<?xml version="1.0" encoding="UTF-8"?>
<svg id="Capa_1" data-name="Capa 1" xmlns="http://www.w3.org/2000/svg" viewBox="0 0 694 694" fill="currentColor">
  <path d="M434,53l-1,4c-1.76-.31-3.29,1.36-4,3l12.5-2c7.11-2.32,16.31-4.43,24-5,3.54-.26,11.84-.56,15,0,.37.07.59.88,1,1,1.68.48,4.33.89,6,2,1.2.79,2.28,2.56,3.5,3.5l-3.5-.5c-4.5-4.27-10.32-3.23-15-5-1.8-.68-3.09-.02-2.5,2l4.5,1c10.57,9.42,25.61,12.64,34.5,24.5.69.92,4.69,7.84,5,9,.23.84-.21,2.11,0,3,.09.39.91.61,1,1,.26,1.14-.22,2.78,0,4,.07.38.95.63,1,1,1.34,10.84-.56,20.74-3,30-.26.99.5,2.15-1,3l3-.5v2.5c-3.45,4-4.17,9.73-6,14-1.11,2.59-2.88,5.53-4,8-.29.64-.71,2.55-1,3-.52.81-2.27,2.49-3,1l3-6c.01-3.89,1.72-7.6,4-11h-2l-4,9-5,6-2,8.5-1-4c-1.1.34-2.29,1.61-3,2.5-10.53,13.24-21.59,25.73-33,39-12.6,14.66-30.99,30.15-45,46-3.09,3.5-6.27,6.38-9,10,1,.77,2.31-1.34,3-2,4.74-4.54,9.46-9.26,14-14,16.93-17.67,37.44-39.93,56.5-54.5,1.59-1.22,2.61-4.33,4.5-1.5-5.18,5.47-10.88,10.48-16,16-8.12,8.74-16.52,17.85-25,27-17.62,19.01-38.36,38.38-58.5,56.5-11.65,10.48-20.69,25.39-30.5,37.5l-18,20,12.5,15.5-3.5-8.5c1.96-2.64,1.93-.55,3.5.5,8.39,5.6,15.23,15.01,21.5,22.5,7.46,8.91,14.6,18.13,22,27,21.87,26.22,51.41,45.55,74,72,1.95,2.28,5.57,4.01,5,7.5-2.38.54-2.6-.46-4-1.5-3.62-2.68-8.21-6.51-11.5-9.5-14.48-13.15-27.63-28.63-42-42-.75-.15-.69,1.07-.5,1.5.46,1.04,3.87,3.66,5,5,17.34,20.67,31.27,37.5,51.5,56.5,17.17,16.12,22.16,21.18,32.5,42.5.61,1.25,2.28,2.73,2,4.5.77-.05,1.65.48,2-.5.96-2.67,1.35-5.13,5-4.5l-5,9.5c.63,1.51,2.25,2.77,3,4,2.58,4.27,7.75,13.59,9,18,.23.81-.18,2.07,0,3,.08.39.95.63,1,1,.24,1.62.24,5.38,0,7-.05.37-.92.61-1,1-1.07,5.35-1.86,10.76-3,16-1.83,8.42-4.65,15.8-7,24-.1.36-3.64,5.54-4,6-1.92,2.47-10.23,10.15-12.5,9.5-3.72-1.07-3.22,1.14-6,3-2.18,1.46-6.24,2.32-9,3-.4.1-.62.93-1,1-2.46.44-10.35.33-13,0-.37-.05-.62-.93-1-1-2.72-.5-5.82-.09-5.5,3h-3l2-3.5c-.95-1.93-2.7-1.14-3.5-1.5-3.33-1.49-8.39-6.47-11-4-3.34-1.25-5.05-5.62-8.5-6v-2c-9.51-9.25-21.34-16.74-31.5-26-8.34-7.6-15.75-16.3-24-24-.53,1.04.89,2.72,1.5,3.5.84,1.08,2.12,1.93,3,3,2.18,2.66,5.06,6.15,7,9,.84,1.23,2.52,1.6,2,3.5-1.37-.79-3.13-1.13-4-2.5-2.63-4.13-7.75-10.19-11-14-1.49-1.75-4.35-5.11-6.5-4.5-3.41.98-2.68-.72-5-2-4.69-2.59-6.85-4-11-7-28.55-20.65-54.64-49.46-79.5-75.5-8.13-8.52-16.39-16.95-24.5-25.5h-1.5l3,4.5c.15.75-1.07.69-1.5.5-.84-.37-6.33-6.22-7.5-7.5-12.27-13.46-24.1-27.38-38.5-39.5-8.57-7.21-18.28-13.8-27-21-3.35-2.76-6.66-6.16-10-9l-.5,1.5c10.81,9.91,20.6,21.8,31.5,31.5,8.86,7.89,19.84,15.99,29.5,23.5,1.02.79,1.26,1.93,3,1.5l-1.5,2c-1.06-.84-1.95-2.27-3-3-6.8-4.74-14.5-9.63-21-15-18.18-15.02-32.87-33.45-50-49-2.07-1.88-13.03-11.44-13.5-12.5-.19-.43-.25-1.65.5-1.5l7,5,.5-2c-2.45.32-3.63-2.64-5.5-4-1.34-.97-3.68-2.32-5.5-2v-1.5l-13-12c1.79-2.17,1.18-1.11,2.5-.5.7.32,3.18,1.31,3.5,1l-2-5,3.5,2c5.85-.36,2.98-3.54,0-6h-1c-.64,1.47-2.6,1.7-3,2-3.38,2.48-3.97,6.8-8.5,8-.45-2.3.29-2.57,1.5-4,2.23-2.62,5.19-4.91,7.5-7.5l-1-4.5c3.25-.52,5.84-4.58,8.5-7,1.66-1.51,6.1-3.98,7.5-6.5,4.26-7.65,21.21-19.17,26-29.5h2c5.64-8,15.39-14.97,23.5-22,13.96-12.11,25.35-27.18,39-40,3.81-3.57,11.35-8.72,13.5-12.5.68-1.19,7.06-5.26,8.5-6.5,5.36-4.61,9.74-9.17,13.5-14.5,21.95-31.12,46.78-60.79,78.5-83.5,6.76-4.84,12.68-8.94,20-12l2,1c2.17.63,13.02-10.25,15-12,4.54-4.01,8.51-8.9,13-13,1.63.98-.31,2.21-1,3-1.08,1.24-2.39,2.29-3.5,3.5l-1.5,3.5,12-11,8.5-9c-1.54.89-2.94,2.11-4.5,3-5.89,3.37-11.58,6.69-17,10-1.42.87-2.93,1.66-4,3l-.5-4c2.98-.06,5.13-3.42,7.5-5,1.66-1.11,6.18-3.16,8-4,4.42-2.05,8.56-4.9,13-7,6.46-3.05,11.73-6.94,17-11,1.44-1.11,2.27-3.34,4.5-3ZM475,61l-5.5-4c-3.82.69-8.05-3.17-11.5.5l4.5,1.5h7l5.5,2ZM428.34,60.9l-6.99,4.19,1.15,1.91,6.99-4.19-1.15-1.91ZM443,62c-1.94-.55-2.34,1.3-3.5,2-.89.54-2.34-.58-1.5,2,1.44-.71,1.72-1.43,3.5-2,1.34-.43,1.82.79,1.5-2ZM470,66c.13.11-1.87,2.35.5,3,1.64.45,3.47.03,4.5-1.5-1.52-2.11-4-.99-5.5-3.5l-5.5-1,4.5,3h1.5ZM450,64h-2v1h2v-1ZM454,65v2h6v-2h-6ZM467,68l-3-1v2l3,1v-2ZM496,83c.45-2.3-.29-2.57-1.5-4-4.33-5.09-7.17-7.14-13-10-.85-.42-2.2-1.36-3-2-2.12,1.63-4.04,4.08-1,6,.26.16.8-.15,1,0,2.23,1.58,3.74,3.74,7,3,.5-.11,1.69-1.77,3.5-1l-2,2.5,9,5.5ZM455,68c-2.49.03-5-.05-7.5,0-1.22.02-3.73-.75-3.5,1l7.5,3c1.34-1.34,3.9-1.21,3.5-4ZM448,72l-10-3c.94,1.44,3.15,4.2,4.5,5,.75.45,2.04-.89,1.5,2,1.77.69,4.92-3.1,4-4ZM469,72l-9.5-2-4.5,2.5c2.22,2.55,6.29,3.07,9.5,2.5.37-.07.6-.89,1-1,1.78-.48,4.15,1.32,3.5-2ZM441,78c.29-1.8,0-2.2-1-3.5-1.6-2.08-3.78-4.25-6.5-3.5l-5.5,3c2.73,5.04,8.86,1.57,13,4ZM415,73c-1.84-.39-2.38,1.01-3.5,2-2.64,2.33-4.9,5.12-7.5,7.5l5.5-4.5c2.11-.38,4.24-3.04,5.5-5ZM457,76l-4.5-2c-1.62,1.5-2.77,3.74-2.5,6l4.5-1,2.5-3ZM475,82c.82.82,4.46-2.01,4-3.5l-5.5-4.5c-1.51,2.13-3,2.26-5.5,2-.57,3.18,1.07,1.49,2.5,2,1.05.38,1.86,3,4.5,2v2ZM515,110c-.16-1.74-.86-2.54-1-4.5-.27-3.75-.01-7.52-1-11-1.82-6.4-6.28-12.9-11.5-17.5-1.13-.99-1.66-2.39-3.5-2-.38.35,3.88,5.09,4,5.5,1.33,4.63,5.14,8.99,7,14,1.4,3.79,1.78,8.98,3,13l3,2.5ZM429,79l-6.5-2c-.51,1.13-1.7.82-2,1-1.01.6-1.95,2.28-3,3-3.51,2.42-8.53,5.17-12,8-.84.69-4.46,3.98-3.5,5l8.5-6c1.71-1.4,5.06-1.77,7-3,2.87-1.82,3.12-6.98,7.5-6v1.5c.06.91,1.71.56,2.5.5,1.57-.11,2.92-.77,1.5-2ZM466,87c3.49.15,7.08.67,8-3.5l-8.5-4.5-3.5,2.5c1.47,1.83,4.26,3.1,4,5.5ZM437,80h-4v1c1.21-.2,1.79.02,2.5,1l1.5-2ZM440,82v-2l-2,1.5v.5h2ZM457,83c1.9.29,3.29-1.1,3-3l-3,1v2ZM489,88c-.09-2.53-1.76-4.41-3.5-6-1.11-1.02-1.68-2.38-3.5-2l2,6c2.57-.64,3.16,1.08,5,2ZM444.26,81.98c0-.68-.55-1.24-1.24-1.24s-1.24.55-1.24,1.24.55,1.24,1.24,1.24,1.24-.55,1.24-1.24ZM493,83l-5-2c-.39,1.9,1.3,2.67,2.5,4l2.5-2ZM430,82l-8.5,4-9.5,10,9.5-4c2.49-1.93,4.44-5.86,7.5-6l1-4ZM434,86v-2l-2,1.5v.5h2ZM445,86v-2l-2,1.5v.5h2ZM460.5,84l-1.5,1.5,1.5,1.5,1.5-1.5-1.5-1.5ZM454,85l-4.5,2-3.5,4,5.5-1,3.5-2.5-1-2.5ZM480,85c-1.73-.2-3-.08-4,1.5-.16.26.14.8,0,1-.82,1.16-2.47,1.57-2,3.5l5,2,1-8ZM497,86h-2.5l-1.5,1.5,2.5,1.5,1.5-3ZM431,89v-2l-2,1.5v.5h2ZM466,95c-.09,1.12.2,1.74-1,2.5v1c1.57,1.24,2.66,3.77,5,3.5l1-4.5-3.5-3.5-1.5,1c.05-.65-.02-1.34,0-2l-2,1c.34-2.2-.13-3.23-1-5l2-.5-3-1.5c-.22.18.68,1.35,1,2l-6-1.5c3.52,2.64,4.41,7.39,9,7.5ZM473,90l1-2.5-.5-.5-2.5,3h2ZM438,88l-4,1.5-4,3.5c1.63.48,8.97-4.19,8-5ZM500,88c-3.38-.73-1.07,2.21-3,3.5,1.08,2.09,3.35,3.63,3,6l2,2.5-2-12ZM456,91l-3,4.5,5.5,3.5,2.5-3.5-5.5-6.5c-1.65,1.82-5.78,1.58-5.5,5l6-3ZM483,91v-2l-2,1.5v.5h2ZM493,97c-.28-1.75,1.55-2.61,1-4.5-.21-.71-3.26-3.29-4-2.5l3,7ZM473,93l-4-1c.22,1.33,3.17,3.83,4,3v-2ZM483,98c-.52-2.63,3.31-3.13,3-6l-5,5.5,2,.5ZM443,95l-.5-2-2.5,1v2l3-1ZM406,95c-2.28-.4-3.05,2.03-4.5,3-1.01.67-3.99,1.33-5,2-1.51,1-4.19,3.56-5.5,5,4.61.94,4.82-.94,7.5-3,.22-.17.8.16,1,0,2.24-1.78,4.75-4.68,6.5-7ZM486,113l1-6.5c.52-.65,1.94-3.64,2-4,.48-2.68-.39-5.01-1-7.5l-3,2.5-3,8,2,5,2,2.5ZM419,96h-2v1h2v-1ZM497,110l4-2.5c.57-2.01-.91-2.62-1-3-.21-.9.24-2.19,0-3-.12-.39-.87-.6-1-1-.19-.59.18-1.37,0-2-.19-.68-3.28-3.31-4-2.5.65,2.1-1.54,3.67-1,5.5.17.56,1.85,1.45,2,2,.23.83-.2,2.09,0,3,.32,1.48,1.19,2.03,1,3.5ZM474,98h-2v3l2-1.5v-1.5ZM451,99c-2.75-.51-2.03.84-2,3,2.46-.44,2.52,1.46,3.5,3,.64,1,2.4,1.3,3.5,2l-5-8ZM443,100h-4v2l4-1v-1ZM459,101l-3-1c-.29,1.9,1.1,3.29,3,3v-2ZM436,104c-.03-3.97-3.97-3.97-4,0h4ZM467,102l-4-1v2l4,1v-2ZM379,113c1.13-1.13,3.22-6.93,7-7.5l1.5-3.5c-1.06.89-1.93,2.17-3,3-4.29,3.32-8.67,7.74-13,11-2.1,1.59-2.56,3.88-4.5,5.5,1.04.53,2.72-.89,3.5-1.5,2.17-1.7,5.03-5.9,7-7,.47-.26,1.31.19,1.5,0ZM448,104l-1.5-2h-1.5v2h3ZM474,102l-4,4h4v-4ZM406.5,103c-.65,0-.65,1,0,1s.65-1,0-1ZM426,103h-2v1h2v-1ZM427,109c.93.93,4.7-2.27,4-4l-4,2v2ZM444,106c-2.81,0-4.5,2.6-4,5l3-1-1,4c3.34-1.18,1.63-5.37,2-8ZM446,111l5-2.5-5-2.5v5ZM465,106h-3v2h3v-2ZM477,110v-4h-1l-1,4h2ZM425.5,107c-.65,0-.65,1,0,1s.65-1,0-1ZM438,116c-.39-2.95,1.2-6.89-1.5-9l-6.5,5.5,4.5,4.5,3.5-1ZM471,113l1-3.5-3.5-2.5c-3.19,2.25-.84,5.83,2.5,6ZM366.5,108l-3.5,3.5.5.5,3.5-3.5-.5-.5ZM394,108c-1.76-.31-3.29,1.36-4,3,1.76.31,3.29-1.36,4-3ZM363,109l-7.5,3c-27.37,18.52-50.66,43.11-71.5,68.5l-12,16,6.5-4.5c24.7-25.21,52.97-46.92,75.5-74.5,1.58-1.94,3.5-2.62,4.5-3.5,1.58-1.39,3.45-3.18,4.5-5ZM491,109c-3.32-.65-1.52,1.71-2,3.5-.11.4-.93.63-1,1-.44,2.49.31,5.86,0,8.5,3.39.73,1.59-2.47,2-4.5.08-.39.95-.63,1-1,.34-2.3-.24-5.11,0-7.5ZM493,124l3-10.5-2.5-4.5-.5,6.5c-1.55,1.09-.96,3.11-1,5-.02,1.17-.71,3.75,1,3.5ZM480.81,109.51l-1.47.88,2.56,4.26,1.47-.88-2.56-4.26ZM420,111c-1.72-.28-3.05,1.3-4,2.5-1.01,1.27-.94,2.03.5,2.5l3.5-5ZM454,111c-2.52.17-5.85,3.5-6,6l6-6ZM461,115l1-2.5-1.5-1.5h-2.5l1,4h2ZM512,122c3.76-1.76,1.36-7.73,2-11l-3,3.5c1.88,1.69.7,4.96,1,7.5ZM426,114l-2-2v2h2ZM501,128.5v-15l-2-1.5c.52,1.63-1.36,2.25-1,3.5.12.4.92.62,1,1,.54,2.42-.6,12.75,0,13.5l2-1.5ZM503,112l-1.91.42,1.32,5.93,1.91-.42-1.32-5.93ZM381,119c3.75.57,5.49-3.56,8-5.5l-3.5,1.5-4.5,4ZM402,113c-1.98-.54-2.37,1.34-3.5,2-.2.12-.65-.12-1,0-.7.24-.77,2.09-1.5,3l3.5-2,2.5-3ZM475,113h-2c-.52,2.48.79,3.95,1,6h1v-6ZM465,114h-2l-1,5c1.61-.08,3.49-4.51,3-5ZM408,119c.93.93,4.7-2.27,4-4l-4,2v2ZM452,120l2-5c-1.84.77-6.72,5.46-2,5ZM422,116h-2v2l2-2ZM426,118h-2.5l-1.5,3,4,1v-4l4,1c-.22-1.33-3.17-3.83-4-3v2ZM445,116c-.71-.81-3.81,1.82-4,2.5-.6,2.19.96,3.56,1,5.5l3-2.5v-5.5ZM458,116c-2.57-1.06-5.42,6.59-5,7,3.03.83,3.55-2.26,6-2l-1-5ZM417,118c-1.9-.29-3.29,1.1-3,3,1.9.29,3.29-1.1,3-3ZM480,121v-3h-1v3h1ZM388,124c2.09-.99,5.14-2.1,5-5-1.83,1.64-5.3,2.15-5,5ZM468,125l1-4.5c-1.44-2.55-5.81-1.83-4.5,1.5.63,1.59,1.29,3.36,3.5,3ZM337,146c2.54.11,3.79-2.6,5.5-4,.2-.17.81.16,1,0,7.48-6.29,14.09-14.97,21.5-21.5-1.04-.53-2.72.89-3.5,1.5-1.89,1.48-4.28,5.04-6,6-1.27.71-3.34,2.58-5,4-4.84,4.16-9.2,9.29-13.5,14ZM406,120c-3.75-.57-5.49,3.56-8,5.5,2.09,3.17,4.35-.11,6-2,.99-1.13,2.39-1.65,2-3.5ZM472.5,120c-.65,0-.65,1,0,1s.65-1,0-1ZM379.5,121c-.65,0-.65,1,0,1s.65-1,0-1ZM428,126l3.5-2-1-3-2.5,5ZM496,136l2-7.5-1-7.5-3,5.5-1,5,3,4.5ZM416,127l6-3.5c-2.64-3.49-6.51-.24-6,3.5ZM449,122h-2v3l2-1.5v-1.5ZM482,124c-2.54.5-2.93-3.53-5-.5l2,5.5c2.79.32,1.57-.17,2-1.5s1.11-2.18,1-3.5ZM410.5,123c-.65,0-.65,1,0,1s.65-1,0-1ZM472,131l1-5.5-3-2.5-1,5.5,3,2.5ZM505,140c2.1-.52,2.36-3.06,3-4.5.38-.84,1.88-3.44,2-4,.27-1.32.24-2.96.5-4.5.33-1.93,1.16-2.48-1-4l-3.5,11.5-1,5.5ZM439,127c.32-1.5-.44-2.06-1.5-3h-2.5c.22,1.33,3.17,3.83,4,3ZM462,142l4-14.5c-1.57-1.24-2.66-3.77-5-3.5.77,1.8-.89,3.01-1,3.5-.45,2.05-1.33,8.15-1,10,.07.37.89.6,1,1,.48,1.78-1.32,4.15,2,3.5ZM448,130h2.5l1.5-3.5-1.5-1.5c-1.71,1.56-3.01,2.5-2.5,5ZM375,130l2-3.5-.5-.5-3.5,4h2ZM379,132l6-6c-2.43,1.08-5.89,2.9-6,6ZM408,126c-1.07-1.09-7.08,4.84-6,6,2.14-1.78,6.02-2.67,6-6ZM425,126l-3.5,1-2.5,1.5c2.74,4.19,6.08,2.16,6-2.5ZM391,127c-1.55-1.32-4.32,3.35-4,5l4-5ZM432.5,127l-.5,3.5c.93,1.19,1.91,1.93,3.5,1.5,1.38-.37,1.52-1.22.5-2.5-.67-.85-2.36-2.8-3.5-2.5ZM347,146c2.3.45,2.57-.29,4-1.5,2.89-2.46,4.86-5.61,7-8,1.56-1.75,3.45-3.24,5-5,.99-1.12,2.39-1.66,2-3.5l-18,18ZM412,130v-2h-1v2h1ZM486,134c-.06-2.4.67-4.57-1.5-6-2.87,2.01-.77,3.5-.5,6h2ZM396,130h-2v1h2v-1ZM416.5,130c-2.75,1.74-.61,4.31,1,6,3.48-2.47,3.01-4.7-1-6ZM442.5,130c-.65,0-.65,1,0,1s.65-1,0-1ZM457,130c-2.55-.39-2.98,2.01-4,4,2.55.39,2.98-2.01,4-4ZM378,140c2.25-.28,6.79-8.1,6-9-2.91.6-4.28,4-7,4l1,5ZM393,131c-1.55-.3-2.68.88-3.5,2-.66.9-.45,1.44-.5,1.5-1.82,2.12-4.13,3.91-6,6l2,.5-3,5.5,2,3.5,9-5.5-2.5-.5-.5-3-3,2c-.91-4.51,2.02-5.15,5-7.5l1-4.5ZM410,131c-1.93-.49-2.34,1.2-3.5,2-.24.16-.8-.15-1,0-.82.61-4.47,4.07-3.5,5,1.84.39,2.37-1.01,3.5-2,1.58-1.39,3.45-3.18,4.5-5ZM430,131h-2v3h2v-3ZM469,142l2-6.5-4-4.5-4,15,4.5-4h1.5ZM478,138l1-3.5-3-3.5-1,4.5,3,2.5ZM412,134c-3.39,1.16-5.48,4.11-8,6.5l2.5,3.5,6.5-5.5-1-4.5ZM440,134h-2v2l2-2ZM445,135l-4-1,1,6c2.12-.92,3.48-2.61,3-5ZM398.26,135.98c0-.68-.55-1.24-1.24-1.24s-1.24.55-1.24,1.24.55,1.24,1.24,1.24,1.24-.55,1.24-1.24ZM423,135c-1.13-1.06-5.39,3.64-5,4,1.94.55,2.34-1.3,3.5-2,.89-.54,2.34.58,1.5-2ZM432,135c-2.71-.04-4.51,2.5-4,5,2.67.48,1.6-.53,2.5-2,.6-.98,2.01-1.19,1.5-3ZM451,136h-2l-1,4h2l1-4ZM483,137h-2v1h2v-1ZM434,141v-3h-.5l-1.5,1.5v1.5h2ZM454,138h-2l-1,4h2l1-4ZM495,138c-3.74-.4-2.34,0-3,1.5-.18.41-.86.61-1,1-.67,1.84-1.52,5.11-2,7-.35,1.39.44,2.9-1,4.5l6-5.5,1.5-5.5-.5-3ZM400,139l-4,1-1,3c1.94.55,2.34-1.3,3.5-2,.89-.54,2.34.58,1.5-2ZM374,145c1.11-1.57,2.51-2.76,2-5l-4,3.5c-.34,2.19.52,1.34,2,1.5-.92,1.3-1.74,2.49-3,3.5l1,4c-1.21,1.02-2.01,2-2.5,3.5-.73,2.23.67,1.99.5,4l1-3c2.95.06,4.44-3.29,6-5.5l-3-1.5c-.28-.26,1.67-2.83,2-3.5.92-1.85-1.12-1.41-2-1.5ZM425,140c-2.46-.86-5.73,5.25-5,6l4.5-2,.5-4ZM472,152c-.43-3.06,2.85-2.68,4-4.5.13-.2-.15-.68,0-1,.2-.43.92-.64,1-1,.61-2.65-.62-3.89-2.5-5.5-2.9,2.08-2,4.97-2.5,7.5-.08.38-.93.62-1,1-.16.87-.62,3.83,1,3.5ZM417,141h-2v1h2v-1ZM431,142l-3-.5v6.5c2.74-1.18,3.42-3.16,3-6ZM438,141h-2v3h2v-3ZM481,144v-3h-1v3h1ZM446,142l-5,4.5v1l2.5,4.5c3.03-2.6,2.6-6.37,2.5-10ZM458,142c-3.32-.65-1.52,1.72-2,3.5-.11.4-.93.63-1,1-.29,1.64.2,3.76,0,5.5l3-2.5,1-2-1-5.5ZM484,142h-2v1h2v-1ZM364,143l-2,2h-2c.26,2.4-2.53,3.67-4,5.5l-3,9.5c3.08-1.4,4.69-5.93,8-6v-2h-2v-1.5l5-7.5ZM380,143c-1.9-.29-3.29,1.1-3,3h2l1-3ZM402,143c-1.3-1.42-5.98,4.67-6.5,6-.73,1.87-.34,1.78,1,3,1.83-1.47,3.1-4.26,5.5-4v-5ZM414,144c-1.15-1.15-6.36,4.7-6,5,2.07,1.35,7.12-3.88,6-5ZM486,144l-4,3.5-1,4.5c2.82-1.52,3.31-5.48,5-8ZM418,152l-1,.5c0,.64.98.45,1,.5.14.36-.2,1.01,0,1.5,1.54.48.21,4.61,2.5,3.5,1.82-.88,3.02-3.43,2.5-5.5l-4-.5-.5-2,1.5-1.5-1-3.5c-1.17-1.35-1.92-.12-2,1.5-.11,2.16-.24,3.73,1,5.5ZM434,146h-2l-1,3c1.9.29,3.29-1.1,3-3ZM346,149v-2l-2,1.5v.5h2ZM426,152v-3.5l-2-1.5v3.5l2,1.5ZM447,151c.4.5,2.65-1.75,2-3-.4-.5-2.65,1.75-2,3ZM333,159c-4.34,1.19-4.63,2.76-7,5.5-1.84,2.12-4.14,3.89-6,6-.99,1.12-2.39,1.66-2,3.5,2.61-2.67,9.39-7.61,11-10.5.26-.47-.19-1.31,0-1.5h2.5l1.5-3c3.4-.93,5-3.56,7-6.5.54-.8,2.08-2.45,1.5-3.5l-9.5,8.5,1,1.5ZM365,149c-1.25-.65-3.5,1.6-3,2,1.25.65,3.5-1.6,3-2ZM403,149h-2v1h2v-1ZM414,154v-5h-.5l-2.5,2.5,3,2.5ZM435.5,149c-.65,0-.65,1,0,1s.65-1,0-1ZM453,151v-2h-1v2h1ZM461.88,148.53l-1.6,7.2,2.12.47,1.6-7.2-2.12-.47ZM466.5,149c-.65,0-.65,1,0,1s.65-1,0-1ZM405,153h1.5l1.5-1.5-1.5-1.5h-1.5v3ZM330.5,151c-.65,0-.65,1,0,1s.65-1,0-1ZM385,151c-1.9-.29-3.29,1.1-3,3,1.9.29,3.29-1.1,3-3ZM390,158c-.28-2.9,3.91-3.42,3-7-.39-.44-8.61,6.36-9,7.5-.57,1.68-.22,3.06,2,2.5v-4l4,1ZM401,151h-2v1h2v-1ZM436.26,151.98c0-.68-.55-1.24-1.24-1.24s-1.24.55-1.24,1.24.55,1.24,1.24,1.24,1.24-.55,1.24-1.24ZM438,162c-.6-2.78,1.33-3.81,3-5.5l-1-5.5-3,2.5c-.37,2.55-1.14,4.06-1,7,.08,1.62.83,2.85,2,1.5ZM352,152l-3,2.5-2,3.5c.31.35,6.11-4.78,5-6ZM464,155c.4.5,2.65-1.75,2-3-.4-.5-2.65,1.75-2,3ZM403,153l-7,5.5.5,2.5c2.28-2.52,7.13-3.59,6.5-8ZM451,153l-4,2.5,1,2-1.5,4.5c2.95-2.82,5.43-4.39,4.5-9ZM492,159c-.27-2.45,2.82-2.94,2-6l-4,5.5,2,.5ZM327.5,154c-.65,0-.65,1,0,1s.65-1,0-1ZM365,154c-1.84-.39-2.38,1.01-3.5,2-1.97,1.74-4.02,4.61-6,6-1.6,1.13-1.16.09-2.5,2.5-.58,1.04-1.65,2.28-2,3.5l14-14ZM407,162l5-4.5-2.5-3.5-3.5,1c-.42,2.55.44,4.62,1,7ZM433,154l-4,6c2.3.38,1.9-.24,2.5-2,.47-1.38.69-2.75,1.5-4ZM459.26,154.98c0-.68-.55-1.24-1.24-1.24s-1.24.55-1.24,1.24.55,1.24,1.24,1.24,1.24-.55,1.24-1.24ZM371,163l6.5-4,.5-4c-2.77,2.32-6.87,3.79-7,8ZM443.76,154.44l-1.09,4.35,2.24.56,1.09-4.35-2.24-.56ZM470,168l6-5.5v-7.5c-2.31,1-3.14,4.36-4,6.5l-2,6.5ZM480,155h-2v5l2-1.5v-3.5ZM484,157v-2h-1v2h1ZM468.26,156.98c0-.68-.55-1.24-1.24-1.24s-1.24.55-1.24,1.24.55,1.24,1.24,1.24,1.24-.55,1.24-1.24ZM324,156.5l-47,47,1.5,1.5,47-47-1.5-1.5ZM345,157c-.89-1.02-4.4,2.71-5,3.5-1.3,1.69-1.13,2.49-1,4.5.89,1.02,4.4-2.71,5-3.5,1.3-1.69,1.13-2.49,1-4.5ZM426,157l-5,3.5-.5,4.5,5.5-8ZM363,163c1.05-1.7,2.55-2.61,2-5l-6,7,3-1,1.5,1,1.5-2h-2ZM417,158h-2v1h2v-1ZM404,159c-1.93-.49-2.34,1.2-3.5,2-.24.17-.8-.15-1,0-3.52,2.67-3.48,5.32,0,8l4.5-3.5v-6.5ZM415,160c-2.22-.32-3.07,1.87-4.5,3-.2.16-.78-.17-1,0-2.49,1.89-3.96,4.51-1,7,.73-.58.6-1.37,1.5-2.5,1.87-2.34,5.61-3.94,5-7.5ZM462,165c1.55,1.32,4.32-3.35,4-5l-4,5ZM479,169l4-9c-.91.73-2.76.8-3,1.5-.63,1.8-1.87,2.58-2,3-.32,1.07-.32,2.72-1,4l2,.5ZM345,170l3-2.5,1-6.5-3,4.5-1,4.5ZM443,161l-2,.5-1,5.5,2-2h3l-.5-2h-1l-.5-2ZM434,162h-2v4h2v-4ZM458,162c-3.74-.4-2.34,0-3,1.5-.19.42-.89.62-1,1-.42,1.4-.15,3.07-1,5s-3.07,3.29-3,5.5c.29.33,2.63-1.9,3-2.5.28-.45.74-2.62,1-3,1.76-2.55,5.11-3.24,4-7.5ZM488.5,162l-1.5,1.5.5.5,1.5-1.5-.5-.5ZM377,173c-.74-1.89,1.76-2.64,2-3.5.45-1.65-.31-4.59,0-6.5-2.4.9-3.36,4.35-6,4-.85.85,1.85,3.81,2,4.5.56,2.59.7,6.24,1,9l2,1.5c-.49-1.63,1.81-3.67,2-4.5.56-2.45-.38-4.82-3-4.5ZM391,163c-1.04-1.1-6.3,3.76-5,6,1.04,1.1,6.3-3.76,5-6ZM428,163l-4,3.5-1,2,2,4.5,2-.5,1-9.5ZM334,173c-.79-2.4,7.01-6.08,2.5-8-1.89-.8-1.79,2.98-3.5,3.5l-.5,2.5,1.5,2ZM341,170c3.1.21,3.27-2.25,3-5-2.18.97-3.47,2.63-3,5ZM366,168v-2l-2,1.5v.5h2ZM468,166l-3,2.5c-.22,2.54-3.89,3.11-3,6.5l5-3.5,1-5.5ZM311,177c2.47-1.75,5-4.23,7-6.5.99-1.12,2.39-1.66,2-3.5-1.9.53-2.99,3.16-4.5,4-.47.26-1.31-.19-1.5,0s.26,1.03,0,1.5c-.78,1.41-3.49,2.19-3,4.5ZM359,169v-2c-.38-.45-7.73,4.53-7,7,2.74-1.14,4.03-5.16,7-5ZM384,167c-1.25-.65-3.5,1.6-3,2,1.25.65,3.5-1.6,3-2ZM410,181c.26-3.81,3.59-5.92,6-8.5l-1-5.5-7,7.5c1.59.98.79,2.45,1,4,.15,1.13-.73,2.75,1,2.5ZM418,169v-2h-1v2h1ZM428,174l3-2.5-.5-4.5-2.5,7ZM447,167h-2l-1,5c1.61-.08,3.49-4.51,3-5ZM461,167c-2.54-.43-1.7.38-2.5,2-.64,1.29-1.64,2.54-1.5,4l4-6ZM369,169.5v15c0,.33.89.59,1,1,.22.8-.57,2.39.5,2.5l5.5-4.5-2-6-3-9.5-2,1.5ZM387,177l4.5-1,1.5-1.5v-6.5c-2.76,1.02-2.86,3.91-5,5.5l-1,3.5ZM397,170v-2h-1v2h1ZM442,169c-1.9-.39-2.67,1.3-4,2.5l1.5,2.5,2.5-1.5v-3.5ZM329,170c-1.9-.29-3.29,1.1-3,3l3-3ZM340,170l-6,6c1.42-.34,3.89-.82,5-1.5,1.58-.97.9-2.96,1-4.5ZM405,170l-3,2.5v1l1.5,1.5c1.91-1.27,1.58-2.86,1.5-5ZM477,171l-2,2c-6.34,2.14-8.39,10.39-14,14.5l-2,5.5,5-4.5c2.51-5.3,8.33-7.1,10-13,.3-1.07,3.68-2.3,3-4.5ZM365,175c-.9-.45-1.61-1.26-2.5-1l-5.5,7.5,1,5,4.5,7.5c.62-.98,3.31-2.79,3.5-3.5.42-1.53.23-9.93,0-12-.03-.24-1.16-1.01-1-3.5.64.32,1.82,1.22,2,1v-4l-2,1.5c-.04.5.03,1.01,0,1.5ZM383,176l2-1.5v-1l-1.5-1.5h-.5v4ZM421,182c1.92-1.06,4.63-3.31,4-5.5l-3.5-4.5c-1.57,1.06-1.91,2.79-1.5,4.5.09.4.94.63,1,1,.22,1.37-.15,3.06,0,4.5ZM330,173c-3.6.1-3.94,4.06-6.5,6-.24.18-.83-.15-1,0-.95.82-5.51,4.93-4.5,6l4-2v-2c3.05.34,3.95-4.34,7-4l1-4ZM348.5,173c-.65,0-.65,1,0,1s.65-1,0-1ZM324,174l-3.5,2-11.5,11c1.27.06,2.99-.79,4-1.5,3.61-2.53,7.8-8.2,11-11.5ZM454,177c1.9.29,3.29-1.1,3-3l-3,3ZM401,175h-4v4l5-1.5-1-2.5ZM433,178c.4.5,2.65-1.75,2-3-.4-.5-2.65,1.75-2,3ZM439,179v-4h-.5c-1.54,1.1-1.73,2.14-1.5,4h2ZM356,180l1-4c-1.18.31-1.49,1.42-3,1v3h2ZM407,177h-2c-.23,1.86-.04,2.9,1.5,4h.5v-4ZM448,177h-2v2l2-2ZM453,177l-7,6.5v5.5l-4.5-1c-.42.55-1.16.97-1.5,1.5-.27.42-.74,2.62-1,3-.77,1.11-3.81,3.3-4,4-.23.85.23,2.15,0,3s-2.69,1.57-2,3.5c1.84-.76,3-2.76,4.5-4,3.72-3.08,7.25-6.33,10.5-10.5l5-11.5ZM309,178c-1.84-.39-2.37,1.01-3.5,2-10.4,9.15-19.69,20.62-30,30l-1-3-2.5,3.5,3.5.5c3.59-2.19,6.59-5.34,10-8,8.53-6.64,14.37-12.44,21.5-21.5l2-3.5ZM339,184l2-6c-2.46,1.51-4.08,4.05-7,4l1,4,4-2ZM341,185c1.99-.08,3.82-1.92,5.5-3,.23-.15.76.15,1,0,.85-.54,3.32-3.13,2.5-4-3.36,1.83-7.07,3.6-9,7ZM390,189l3-4.5v-6.5c-1.79-.22-.55,1.49-1.5,3-.51.81-2.35,1.94-2.5,2.5-.61,2.18.96,3.57,1,5.5ZM414,191c-.28-1.58.82-1.95,1-3.5.35-2.99-.25-6.44,0-9.5-.91.66-4.9,5.14-5,5.5-.6,2.16.48,2.86,1,4,.6,1.32,1.03,2.96,3,3.5ZM419,186v-4.5l-2-2.5c.06,1.82-.09,3.67,0,5.5.08,1.63.85,2.87,2,1.5ZM439,183c1.64-.71,3.31-2.24,3-4-1.64.71-3.31,2.24-3,4ZM404,180c-3.18-.57-1.49,1.07-2,2.5-.27.74-2.4,2.07-3,3l-1,6.5c2.73-1.54,3.47-6.19,7-6l-1-6ZM428,184c1.64-.71,3.31-2.24,3-4-1.64.71-3.31,2.24-3,4ZM330,182c-1.07-1.09-7.08,4.84-6,6,1.39-.04,7.35-4.63,6-6ZM345,189c1.59-1.42,5.41-.48,6-2.5.55-1.89-1.28-2.75-1-4.5l-3,1c.52,1.4-2.8,5.1-2,6ZM386,182h-2l-1,3c1.9.29,3.29-1.1,3-3ZM399.5,182c-.65,0-.65,1,0,1s.65-1,0-1ZM435,182c-2.55-.39-2.98,2.01-4,4l4-1v-3ZM421,187c1.9.29,3.29-1.1,3-3l-3,3ZM335,194c4-2.04,4.47-4.75,4-9l-5,5.5,1,3.5ZM355,185c-1.16-1.36-1.92-.12-2,1.5-.09,1.83-.2,4.24,0,6,.04.37.95.63,1,1,.23,1.73-.15,3.72,0,5.5,3.05-.03,4.61-2.9,4-5.5-.09-.38-.88-.6-1-1-.18-.64.21-1.44,0-2-.56-1.52-2.72-3.1-2-5.5ZM380,187v-2h-1v2h1ZM320,186c-1.16-1.03-6.03,3.85-5,5,2.81.57,1.51-.82,2.5-2,.53-.63,2.96-2.6,2.5-3ZM330,187c-1.95-.52-2.34,1.26-3.5,2-2.39,1.52-5.77,3.31-8,5-1.19.9-2.78,2.31-2.5,4l6.5-1,6.5-4.5,1-5.5ZM399,204c1.71.41,1.98-.66,3-1.5,2.1-1.75,3.92-4.17,6-6l-1-9.5-9,9.5,1,7.5ZM376,188l-3.5,2-2.5,3c.86.73,6.86-2.6,6-5ZM388,188c-2.33-.37-2.33.93-3,2.5-.3.71-1.33,3.17-1,3.5,4.48.57,4.23-2.49,4-6ZM427,188h-2v2l2-2ZM420,196l-.5-7c-3.12,2.1-2.61,4.61-2.5,8l3-1ZM314,190c-1.93-.49-2.34,1.21-3.5,2-.24.17-.8-.15-1,0-.83.62-3.38,3.11-2.5,4,2.98-1.6,7.77-1.33,7-6ZM381.26,190.98c0-.68-.55-1.24-1.24-1.24s-1.24.55-1.24,1.24.55,1.24,1.24,1.24,1.24-.55,1.24-1.24ZM333,194v-2l-2,1.5v.5h2ZM349,192c-1.15-1.37-1.92-.12-2,1.5-.11,2.11-.52,4.11,1.5,5.5l.5-7ZM411.5,192c-.65,0-.65,1,0,1s.65-1,0-1ZM346,201c.67-1.99-1.67-3.4,0-4.5l-2-3.5,2,8ZM378,193c-3.56-.92-4.08,3.27-7,3v11l3-2.5c1.29-4.23,5.12-6.51,4-11.5ZM367,194h-3v2.5l1.5,1.5,1.5-1.5v-2.5ZM434,194h-2v2l2-2ZM456,194l-9,8.5-2.5,4.5c1.21-.86,2.34-1.53,3.5-2.5,3.03-2.52,7.39-6.58,8-10.5ZM341,204c.13-1.8-.19-3.71,0-5.5.16-1.55,1.29-1.91,1-3.5l-6,5.5,5,3.5ZM414,195h-2v5h2v-5ZM383,196h-2v3h2v-3ZM393,196h-2c-.54,2.17,1.11,3.14,1,5l2-1.5-1-3.5ZM422,202c1.93.49,2.34-1.2,3.5-2,.24-.17.8.15,1,0,.84-.64,3.35-3.06,2.5-4l-7,6ZM306,199c.24-.44,1.17-1.83,1-2l-4.5,3-1-2c-1.69,1.91-3.88,3.56-5.5,5.5-2.09,2.5-4.18,6.04-6,9l.5,4.5,4.5-3.5,4-6,1-6,1.5-1.5c.72,1,1.28,1.17,2.5,1-.61.87-1.03,1.87-2,2.5l-.5,3.5,8.5-8.5-4,.5ZM324,201c1.91-.4,2.12,1.68,4,.5,1.65-1.03,2.35-2.54,2-4.5l-3.5,1-2.5,3ZM348,203c3.18-.09,5.75-3.67,2.5-6l-2.5,6ZM363,198h-2v1.5l1.5,1.5h.5v-3ZM389,198l-4,1,1,9c3.65-.18,4.55-3.43,4-6.5-.07-.39-1.78-1.73-1-3.5ZM421.5,198c-.65,0-.65,1,0,1s.65-1,0-1ZM321,199c-2.75-.27-5.21-.1-5,3,2.33.47,2.67-2.47,5-2v-1ZM409,204v-5c-1.95.56-2.6,3.44-5,3l.5,2h4.5ZM314,200h-1.5l-1.5,2h3v-2ZM359,200l-4,1,.5,5c1.71-1.87,4.14-3,3.5-6ZM430,200c-2.29-.41-3.05,2.04-4.5,3-.23.15-.76-.15-1,0-1.64,1.05-3.82,1.56-3.5,4l4-1.5,5-5.5ZM347,205v-1.5l-2-1.5v3h2ZM418,202h-2v2l2-2ZM367,203l-5,1c.13,1.12-.21,2.48,0,3.5.08.39.95.63,1,1,.24,1.71-.16,3.73,0,5.5.82.9,4.82-2.86,5-3.5.73-2.67-1.18-4.84-1-7.5ZM384,212v-5.5l-1.5-3.5-.5,7.5,2,1.5ZM393,208l2-1.5c-1.32-.86-1.05-2.01-1-3.5h-1v5ZM336,206c.46-1.77-.74-3.76-1-.5,1.7,1.46.9,4,1,6,.08,1.62.85,2.87,2,1.5l1-6.5-1.5-1.5-1.5,1ZM352,204l-4,3.5,1,2.5c1.31.27,3.62-.15,4-1.5.53-1.91-1.28-2.74-1-4.5ZM420,206v-2h-1v2h1ZM313,205c-3.78.28-5.95,3.02-8.5,5-.22.17-.81-.16-1,0-.84.68-4.47,4-3.5,5,3-1.19,5.11-3.22,7.5-5,.22-.16.79.16,1,0,1.54-1.17,3.46-3.33,4.5-5ZM377,217c4.36.72,4.53-2.94,4-6.5-.06-.37-.94-.62-1-1-.22-1.38.14-3.05,0-4.5l-6,6.5,3,5.5ZM334,209v-3h-.5l-1.5,1.5v1.5h2ZM405,206h-5v5l5-5ZM414,208v-2h-1v2h1ZM321,207c-.83-.83-3.78,1.67-4,3l4-1v-2ZM361,217c-.12-1.74.72-10.08-1.5-10-.62.98-3.31,2.79-3.5,3.5-.58,2.11.41,6.07,0,8.5l5-2ZM283,208c-1.84-.39-2.38,1.01-3.5,2-4.92,4.34-9.89,9.14-15,13-.83.63-3.36,3.08-2.5,4,1.94-.46,3.12-2,4.5-3,5.5-3.98,9.26-7.07,13.5-12.5.52-.67,3.48-3.08,3-3.5ZM387,212l3,.5-1-1,2-3.5-4,4ZM419,208h-2l-2,4c1.73.7,4.93-3.07,4-4ZM402,216c.16.43-.08,1.37,0,2,3.32-1.17,5.27-3.45,7-6.5-.5-1.34-2.19.02-3,.5.28-1.05.13-1.86,1-3h-2c.68,2.54-4.5,4.47-4,6.5.17.68.98.45,1,.5ZM430,211v-2h-1v2h1ZM312.5,210c-.65,0-.65,1,0,1s.65-1,0-1ZM327.5,210c-.44.13-5.81,5.6-6.5,6.5-3.79,4.91,4.07,4.5,6.5,6.5l4.5-3.5c.35-3.08-.35-5.68-1.5-8.5-.65-1.04-1.92-1.32-3-1ZM335,218c-.37-2.63,1.34-6.82-2-8,.07,2.15-.11,4.34,0,6.5.08,1.63.85,2.87,2,1.5ZM347,210h-2v4h2v-4ZM275,225c3.09-.19,5.28-2.44,7.5-4,.23-.16.8.15,1,0,1.57-1.18,2.93-3.21,4.5-4.5l1-5.5-14,14ZM323,211h-2v1h2v-1ZM342,211c-4.49-.93-5.11,10.1-2.5,10,.62-.98,3.31-2.79,3.5-3.5.66-2.38-1.41-4.07-1-6.5ZM314,212h-7l3,1v1c-1.61-.33-8.9,4.53-9,5.5,2.61,3.59,4.54-1.08,6.5-2.5.63-.46,3.38-1.55,4-2,.87-.64,2.17-1.94,2.5-3ZM320,214v-2h-1v2h1ZM434,212l-10,9.5-15.5,15.5c-1.58,1.46-2.76,3.67-2.5,6,.76.89,12.76-11.08,14-12.5,3.98-4.54,7.46-10.27,11-15,.53-.71,3.47-3.02,3-3.5ZM394,213c-3.06.15-5.03,2.44-7,4.5l2.5,4.5,3.5-2.5,1-6.5ZM267.5,214l-10.5,9.5-4.5,6.5,13.5-12.5,1.5-3.5ZM351,223l3-1.5-1-7.5-3,3.5c1.68,1.22.84,3.49,1,5.5ZM374,214c-1.17-1.35-1.92-.12-2,1.5-.11,2.16.07,4.35,0,6.5,1.32.27,3.62-.15,4-1.5.62-2.19-2.22-4.28-2-6.5ZM427,214c-2.01,1.51-4.47,2.48-6,4.5-2.12,2.8-4.85,6.23-7,9-.73.95-3.12,2.19-2.5,3.5,2.17-1.27,3.84-2.6,5.5-4.5,2.41-2.77,5.33-5.97,8-9,.99-1.13,2.39-1.66,2-3.5ZM384.5,215l-1.5,1.5.5.5,1.5-1.5-.5-.5ZM365.5,216c-.65,0-.65,1,0,1s.65-1,0-1ZM255,217c-1.84-.39-2.38,1.01-3.5,2-4.22,3.72-7.81,8.24-12,12-3.74,3.35-7.21,5.7-10.5,9.5-3.91,4.52-8.97,8.52-13,13l3.5-1.5,18.5-16.5c3.47-5.4,8.97-9.15,13-14,1.25-1.5,3.24-2.66,4-4.5ZM315,218c-2.03-1.87-8.6,5.84-10.5,6l-1.5,1.5,1,2.5c2.5-.12,4.44-1.71,6-3.5l-2-1.5c2.13,1.11,8.55-3.57,7-5ZM367,229c-.34-2.15,1.82-3.08,3-4.5l-1-6.5-5,5.5,1,3-1,1,3,1.5ZM395,225c2.41.32,2.98-1.86,4-3.5,1.24-1.98,1.5-1.79-.5-3.5-1.13.79-.05,2.45-1,4-.42.69-3,2.5-2.5,3ZM451,218l-3.5,2c-10.3,10.66-21.61,20.54-30.5,32,3.53.33,4.65-4.83,6.5-6,4.3-2.72,5.43-5.23,8.5-8.5,6.2-6.61,13.22-12.5,19-19.5ZM349,225l-1.5-6c-2.77,1.95-.83,2.31-.5,3.5.44,1.59-1.12,3.01,2,2.5ZM362,219c-1.1-1.13-6.36,3.93-5,6l3.5-3,1.5-3ZM410,219c-2.06-.2-4.2,1.94-4,4l4-4ZM319,220h-2v1h2v-1ZM336,220h-2v5h2l-1-1.5,1-3.5ZM386,220c-2.44-.39-2.16.29-2,2.5l3,4.5-1-7ZM414.5,220l-1.5,1.5.5.5,1.5-1.5-.5-.5ZM288,232l10.5-7,.5-4c-.78-.92-8.06,6.44-9,7.5-.99,1.13-2.39,1.66-2,3.5ZM392.91,221.65l-2.87,4.78,1.62.97,2.87-4.78-1.62-.97ZM332,223l-2,2h-2c.29,1.9-1.1,3.29-3,3-.06,2.04-.45,3.7,1.5,5,1.09.32,2.88-1.67,3.5-2.5.15-.19-.17-.75,0-1,.37-.55,1.17-.96,1.5-1.5.93-1.53.37-3.33.5-5ZM374,237c1.71.41,1.98-.66,3-1.5,2.34-1.95,4.61-4.09,7-6l-3-6.5c-1.82,1.5-4.84,2.56-6,4.5-.13.22.14.69,0,1-.2.43-.92.64-1,1-.46,2.06.32,5.23,0,7.5ZM321,227c.29-1.9-1.1-3.29-3-3v2l3,1ZM344,224c-2.66-.47-1.61.52-2.5,2-.77,1.29-2.17,1.56-1.5,4l4-6ZM355,224c-4.2-.07-2.86,4.22-3,7,3.26-1.36,3.27-3.8,3-7ZM277.82,225.21l-4.49,2.69.88,1.47,4.49-2.69-.88-1.47ZM325,225h-2v2l2-2ZM285,228v-2l-2,1.5v.5h2ZM287.5,227c-.65,0-.65,1,0,1s.65-1,0-1ZM315,234c.04-1.94,1.6-3.31,1-5.5-.47-1.71-3.48-1.64-5-1.5,1.02,2.07-6.58,6.55-5,8l9-1ZM348,231l2-1.5-1.5-1.5h-.5v3ZM358,236c1.2,1.41,8.27-5.46,3.5-8-4.17.92-3.65,4.51-3.5,8ZM393,230v-2h-1v2h1ZM253,236c2.53.32,2.85-1.89,4-3.5.83-1.16,2.47-1.57,2-3.5-.5-.58-6.08,5.47-6,7ZM271,229c-1.25-.65-3.5,1.6-3,2,1.25.65,3.5-1.6,3-2ZM303,230h-1.5l-1.5,2h3v-2ZM323,233c.82-.66-3.83-3.2-4-3v3h4ZM345,230c-2.92-.22-3.62,2.79-5,4.5l1.5,3.5c2.89-2.39,4.16-4.02,3.5-8ZM275,231h-2v1h2v-1ZM298,233v-2c-1.18.31-1.49,1.42-3,1v1h3ZM369.5,231l-4.34,2.6.97,1.62,4.34-2.6-.97-1.62ZM271,234l-.5-2-3.5,2.5-3,3.5c2.91-.6,4.28-4,7-4ZM287,233h-2v1h2v-1ZM354,239l2-1.5v-4.5l-2,1.5v4.5ZM378,246c3.16-2.51,6.33-5.48,9-8.5.99-1.12,2.39-1.66,2-3.5-2.59,1-4.33,4.79-6.5,6-.47.26-1.31-.19-1.5,0s.26,1.03,0,1.5c-.78,1.41-3.49,2.19-3,4.5ZM401.5,234c-.65,0-.65,1,0,1s.65-1,0-1ZM261,235c-2.23-.33-3.06,1.89-4.5,3-1.53,1.18-4.06,2.29-5.5,4.5l-2,3.5,5.5-5,6.5-6ZM320,241l4-6-4,1-.5,2,.5,3ZM372,235l-5,4.5c.62,2.33-1.37,2.79-2,4.5,1.93.49,2.34-1.21,3.5-2,.24-.17.8.15,1,0,2.74-2.07,2.78-3.66,2.5-7ZM285,238l-.5-2-4.5,4c2.43.4,2.74-2.53,5-2ZM293,237l1.5,4,3.5-3.5-5-.5ZM309,240c1.65.32,6.32-2.45,5-4l-5,4ZM333,236h-2v1h2v-1ZM250.5,237l-4.75,4.75,1,1,4.75-4.75-1-1ZM304,237c-3.1-.21-3.27,2.25-3,5,3.1.21,3.27-2.25,3-5ZM308,237h-2v1h2v-1ZM290,238c-.81-.77-6.18,3.42-7,4.5l6-1.5v3c-1.04-.07-.69-.91-2-.5-1.6.5-2.97.45-4,2l2.5,3.5,6.5-6.5-2-4.5ZM317,243l-.5-5-3.5,4,4,1ZM362.5,238c-.65,0-.65,1,0,1s.65-1,0-1ZM328,245c1.07,1.09,7.08-4.84,6-6-1.39.04-7.35,4.63-6,6ZM400,243c1.64-.71,3.31-2.24,3-4-1.64.71-3.31,2.24-3,4ZM267,240c-2.24-.51-2.65,2.23-4.5,2l-2.5,3,3.5-2,3.5-3ZM342,242v-2h-1v2h1ZM346,240l-3,2.5c1.93,1.28.11,1.34,0,2-.23,1.37.15,3.06,0,4.5h3v-9ZM360,242v-2h-1v2h1ZM395.5,240c-.65,0-.65,1,0,1s.65-1,0-1ZM281,243v-2h-1v2h1ZM299,241c-2.67-.48-1.6.53-2.5,2-.6.98-2.01,1.19-1.5,3,2.65.06,4.51-2.46,4-5ZM338.26,241.98c0-.68-.55-1.24-1.24-1.24s-1.24.55-1.24,1.24.55,1.24,1.24,1.24,1.24-.55,1.24-1.24ZM301,247c1.83-1.64,5.3-2.15,5-5-2.09.99-5.14,2.1-5,5ZM362,245c.4.5,2.65-1.75,2-3-.4-.5-2.65,1.75-2,3ZM309,250c2.16-1.54,4.27-2.44,6-4.5-2.64-3.36-4.36-3.36-7,0l1,4.5ZM369,251l4-2.5,3-5.5-7,8ZM389,256c.31.36,3.51-2.84,4-3.5.44-.59,1.56-3.4,2-4,1.29-1.75,4.21-2.94,4-5.5l-6,5.5-4,7.5ZM244.25,243.25l-5.75,5.75,1,1,5.75-5.75-1-1ZM334,247v-3l-3,2.5v.5h3ZM339,244h-2v5h1c-.11-1.86,1.54-2.83,1-5ZM405,244l-3,1.5-2,.5c-.19.19.26,1.03,0,1.5-1.61,2.9-7.4,6.06-9,9.5,1.84.39,2.38-1.01,3.5-2,3.72-3.29,7.3-7.2,10.5-11ZM325,245h-2l-1,4h1v-2h2v-2ZM392,245c-.96-.95-4.38,2.66-5,3.5-.15.2.16.76,0,1-.8,1.16-2.49,1.57-2,3.5,3.23-1.82,5.06-5.01,7-8ZM277,257c1.19,1.26,5.9-4.67,7-5.5l-3.5-5.5c-3.86.44-2.18,4.83-2.5,7.5-.18,1.55-1.28,1.92-1,3.5ZM303,256l5-4.5-2.5-5.5c-2.25,2.24-4,3.01-3.5,6.5.22,1.54,1.26,1.95,1,3.5ZM366,248v-2h-1v2h1ZM263,249v-2c-.38-.45-7.73,4.53-7,7,2.74-1.14,4.03-5.16,7-5ZM294,247c-1.13-1.06-5.39,3.64-5,4,1.94.55,2.34-1.3,3.5-2,.89-.54,2.34.58,1.5-2ZM296,251c1.46-.77,3-1.16,4-2.5l-1.5-1.5c-1.2,1.33-2.89,2.1-2.5,4ZM269,252l4-3.5-.5-.5c-1.14,1.13-1.78,2.37-3.5,2v2ZM256,249c-1.02-.94-5.62,3.18-5,5,.4.46,2.38-1.98,3-2.5,1.18-.99,2.57.31,2-2.5ZM334,249h-5v7c.71.81,3.8-1.81,4-2.5.18-.63-.2-1.42,0-2s1.53-.86,1-2.5ZM233,250c-1.84-.39-2.38,1.01-3.5,2-1.41,1.24-2.59,2.76-4,4-.19.17-.82-.16-1,0-4.21,3.73-10.46,9.75-14,14-.97,1.16-1.64,2.29-2.5,3.5,1,.76,2.31-1.34,3-2,1.19-1.13,2.27-2.42,3.5-3.5.19-.17.82.16,1,0,6.19-5.52,11.85-11.94,17.5-18ZM327,250l-5,5,3.5-2,1.5-3ZM346,250l-1.5,1-1.5-1v3c1.9.29,3.29-1.1,3-3ZM276,251c-1.06-1.21-6.7,4.24-2.5,4l.5,2,2-.5v-5.5ZM294,252c-1.9-.29-3.29,1.1-3,3,1.9.29,3.29-1.1,3-3ZM300,252h-2v3.5l1.5,1.5h.5v-5ZM319,252l-6.5,4-1.5,4c3.45-.29,5.08-3.79,6-6.5.41-1.2,2.35.38,2-1.5ZM359.21,251.82l-2.87,4.78,1.62.97,2.87-4.78-1.62-.97ZM263,259l3.5-6c-1.54,1.16-4.66,2.78-5.5,4.5-.74,1.51.78,1.83,2,1.5ZM286.5,253c-.65,0-.65,1,0,1s.65-1,0-1ZM250,257v-2l-2,1.5v.5h2ZM270.5,255l-5.5,5.5,3.5,4.5,5.5-4.5-3.5-5.5ZM280,263c2.77-2.32,6.87-3.79,7-8-1.82,1.05-3.61,2.92-5,4.5-.99,1.13-2.39,1.66-2,3.5ZM296,255c-1.9-.29-3.29,1.1-3,3l4,1-1-4ZM335,255c-2.06-.2-4.2,1.94-4,4l4-4ZM353,255h-2v3h2v-3ZM367,283c1.1-.34,2.29-1.61,3-2.5,4.12-5.18,8.2-11.54,12-17,1.83-2.63,4.69-5.08,5-8.5l-18,19.5-2,8.5ZM327,256l-3,1.5v4.5l3-1.5v-4.5ZM372.75,255.75l-5.5,5.5,1,1,5.5-5.5-1-1ZM214.25,256.25l-8.75,8.75,1,1,8.75-8.75-1-1ZM236,267c.19-.19,1.03.26,1.5,0,1.62-.9,4.66-4.25,6.5-5.5l1-4.5c-1.92.56-11.63,11.47-11,12h2v-2ZM346,257h-2l-1,3c1.9.29,3.29-1.1,3-3ZM293,261l-1.5-3-7,6-1.5,3c1.93.49,2.34-1.21,3.5-2,.24-.16.79.15,1,0,1.77-1.3,2.97-4.23,5.5-4ZM322,258h-3l-1,10c2.34.27,3.43-2.26,5-3.5-1.79-1.44-.76-4.23-1-6.5ZM252,259c-2.08-.14-3.76,2.1-5,3.5-.99,1.12-2.39,1.66-2,3.5l7-7ZM300.5,259c-.65,0-.65,1,0,1s.65-1,0-1ZM335,259c-.95-.97-7.58,4.12-3.5,6l3.5-6ZM260,260c-1.84-.39-2.37,1.01-3.5,2-2.27,2-3.07,3.42-4.5,5.5-.8,1.16-2.49,1.57-2,3.5,2.8-2.12,5.68-4.87,8-7.5.99-1.13,2.39-1.66,2-3.5ZM310,263l-1.5-3-4.5,6,4-1v-2h2ZM341,260c-2.28-.94-4.56,4.37-4,5,1.38-.77,1.84-1.38,3.5-2,1.08-.4.32-2.07.5-3ZM298,263v-2h-1v2h1ZM315,268l1-7c-2.54,1.18-4.67,5.79-1,7ZM359.5,261c-.65,0-.65,1,0,1s.65-1,0-1ZM296,263h-3.5c-1.21,2.52-7.53,3.77-6.5,7.5.92,3.32,3.69-1.05,4.5-1.5.47-.26,1.31.19,1.5,0l1-4,3-2ZM346,262h-3c-.11,1.86,1.54,2.83,1,5l2-1.5v-3.5ZM254,273c2.45-2.04,6.09-.34,8.5-1,.84-.23,3.32-3.76,4.5-4.5l-4.5-4.5c-2.13,2.43-4.96,4.55-7,7-.85,1.02-1.91,1.29-1.5,3ZM357,264h-2v2l2-2ZM272,269h2.5l1.5-1.5v-2.5l-4,4ZM328,269l-1-2.5.5-1.5-1.5,1.5,2,2.5ZM331.5,266c-.65,0-.65,1,0,1s.65-1,0-1ZM336,266c-2.33-.47-2.67,2.47-5,2v1c2.37.47,4.03-.82,5-3ZM342,266l-4,1-1,5c1.04,1.16,6.42-3.98,5-6ZM282,267c-1.73-.7-4.92,3.05-4,4l4-1v-3ZM307,271l1-4c-1.33.22-3.83,3.17-3,4h2ZM363,267c-2.53-.32-2.85,1.89-4,3.5-.83,1.16-2.47,1.57-2,3.5,2.93-1.44,4.22-4.47,6-7ZM318,279c2.41-2.52,4.37-4.36,7-6.5l-1-4.5c-1.19.7-5.8,4.79-6,5.5-.39,1.41.27,3.86,0,5.5ZM357,268c-1.12-1.07-6.07,3.91-5,5,2.95.11,4.01-2.93,5-5ZM301,273c.29-1.9-1.1-3.29-3-3l3,3ZM367,270l-5.5,5-1.5,4c2.88-2.36,4.87-6.01,7-9ZM232,273l-.5-2-4.5,4c2.43.4,2.74-2.53,5-2ZM237,271c-1.9-.29-3.29,1.1-3,3l3-3ZM271,271h-1.5l-1.5,2h3v-2ZM284,275l-.5-4-5.5,3.5,2.5,2.5c.67-1.8,3.35-1.85,3.5-2ZM335,271h-2l-2,4c1.73.7,4.93-3.07,4-4ZM222,272c-2.91-.25-3.42,3.28-5,5,2.81.57,1.51-.82,2.5-2,.54-.64,2.94-2.57,2.5-3ZM239,281l4-3.5,2-5.5-4,3.5-2,5.5ZM293,277l3.5,1,3.5-3.5-2.5-2.5c-1.37,2.19-4.84,1.88-4.5,5ZM342,272c-1.76-.31-3.29,1.36-4,3,1.76.31,3.29-1.36,4-3ZM249.26,273.98c0-.68-.55-1.24-1.24-1.24s-1.24.55-1.24,1.24.55,1.24,1.24,1.24,1.24-.55,1.24-1.24ZM314.5,273c-.65,0-.65,1,0,1s.65-1,0-1ZM259,274l-8,2h5.5l2.5-2ZM326,275c-1.84-.39-2.38,1.01-3.5,2s-2.61,2.39-3.5,3.5c-1.26,1.59-.97,1.03.5,2.5,2.74-2.41,4.26-5.17,6.5-8ZM273,280l6-.5-3.5-3.5-2.5,1v3ZM336,276c-2.06-.2-4.2,1.94-4,4l4-4ZM215,277c-1.84-.39-2.37,1.01-3.5,2-3.34,2.94-6.2,6.5-9.5,9.5l-1.5,3.5c4.27-3.62,8.54-7.14,12.5-11.5l2-3.5ZM229,277c-1.84-.39-2.37,1.01-3.5,2-2.27,2-4.74,4.54-6.5,7,1.93.49,2.34-1.2,3.5-2,1.64-1.13,2.77-1.53,4.5-3.5.99-1.13,2.39-1.66,2-3.5ZM295,284c.33-.34-.7-2.79-1-3.5-.67-1.57-.67-2.87-3-2.5l-1,4.5,2.5,2.5,2.5-1ZM230.5,279c-.65,0-.65,1,0,1s.65-1,0-1ZM263,281v-2l-2,1.5v.5h2ZM251,280h-1.5l-1.5,2h3v-2ZM303,280h-2l-1,4h2l1-4ZM307.5,280c-.65,0-.65,1,0,1s.65-1,0-1ZM337,293c.32.38,2.59-1.99,3-2.5.75-.95,2.24-4.02,3-5,1.4-1.82,3.72-2.47,3-5.5-3.87,2.04-5.1,5.77-7.5,9-1.05,1.4-2.04,1.62-1.5,4ZM358,281c-2.78.12-4.77,2.09-6.5,4l-1-1-2.5,4c2.29.41,3.05-2.05,4.5-3,.42-.28,2.55-.72,3-1,.6-.37,2.83-2.72,2.5-3ZM365,281c-1.65.42-2.07,2.15-3,3.5-1.7,2.48-3.74,5.3-5,8l-6.5,8.5,13.5-14.5,1-5.5ZM277,282h-2v2l2-2ZM335,282c-2.01-.23-1.81,1.33-4,.5-1.86-.7-2.4-.22-3,1.5l4,.5,3-2.5ZM350,282h-2v2l2-2ZM264,283h-1.5l-1.5,2h3v-2ZM273,288c.7-1.73-3.07-4.93-4-4v2l4,2ZM286,284l3.5,6c2.11-1.78,1.44-1.38,0-3-.47-.53-3.15-3.4-3.5-3ZM311,284c-1.12-1.12-6.35,3.93-5,6l3-2.5,2-3.5ZM251,285c-1.64.26-2.76.77-4.5,1-1.34.18-3.15.61-1.5,2,2.83.43,4.86-.29,6-3ZM270,289l-2-4-2,1.5,1.5,2.5h2.5ZM326,287v-2h-1v2h1ZM183,286c-3.29.22-5.08,4.29-7.5,6s-4.47,4.06-6.5,6.5c-1.18,1.42-2.77,2.6-4,4,1.31.62,2.55-1.77,3.5-2.5.22-.17.81.16,1,0,4.78-3.87,9.24-9.51,13.5-14ZM197,290c-4.89,3.16-11.06,8.04-15.5,12s-8.75,8.7-12.5,13.5l8.5-5.5,23.5-23.5-4,1.5v2ZM256,289c.97-.12,2.02.07,3,0v-3l-3,1c-.03.66.06,1.35,0,2-2.9.37-3.8,2.55-6,4.5l2.5,2.5c.53-.95,3.38-4.11,3.5-4.5.19-.63-.08-1.68,0-2.5ZM319.5,286c-.65,0-.65,1,0,1s.65-1,0-1ZM355,286c-1.93-.47-2.34,1.18-3.5,2-1.35.96-3.08,1.32-3.5,3,1.86.76,7.63-4.45,7-5ZM237,287c-1.73-.7-4.93,3.07-4,4h2l2-4ZM286,294c.27-2.48-.37-5.87-3-7l-1,5h2l2,2ZM311,290c.4.5,2.65-1.75,2-3-.4-.5-2.65,1.75-2,3ZM328,291c-2.23.46-2.36.72-4,2.5-1.02,1.11-2.38,1.68-2,3.5.92.92,5.7-3.75,6-4.5.19-.48-.13-1.1,0-1.5.58-.12,1.35.06,2,0l1-2.5-2-1.5c.54,1.63-.87,2.01-1,2.5-.14.53.12,1.12,0,1.5ZM335.26,287.98c0-.68-.55-1.24-1.24-1.24s-1.24.55-1.24,1.24.55,1.24,1.24,1.24,1.24-.55,1.24-1.24ZM220,288c-1.25-.65-3.5,1.6-3,2,1.25.65,3.5-1.6,3-2ZM234,303c2.41-.49,1.62-2.28,2-3.5.21-.67,1.25-1.39,2-4,.16-.56,1.85-1.45,2-2,.39-1.41-.27-3.86,0-5.5-1.07.52-4.83,3.89-5,4.5-.37,1.35.69,3.08-1,4l2,2.5h-1.5l-.5,4ZM302,291c1.9.29,3.29-1.1,3-3l-3,3ZM323,290v-2h-1v2h1ZM372.5,288c-.65,0-.65,1,0,1s.65-1,0-1ZM267,291l-3.5-2-2.5,2.5,3.5,3.5,2.5-4ZM215,290h-2v2l2-2ZM273.5,290c-.65,0-.65,1,0,1s.65-1,0-1ZM306,295c2.58.08,4.51-2.39,4-5-1.98.74-2.54,3.29-4,5ZM224.5,291l-2.5,2.5.5.5,2.5-2.5-.5-.5ZM333,291c-.78-.86-3.47,1.67-4,2.5-1.59,2.49-1.88,6.14-5,8l-1,5.5,11-12.5-1-3.5ZM345,294v-2h-1v2h1ZM348.5,292c-.65,0-.65,1,0,1s.65-1,0-1ZM353.5,292c-.65,0-.65,1,0,1s.65-1,0-1ZM277.26,293.98c0-.68-.55-1.24-1.24-1.24s-1.24.55-1.24,1.24.55,1.24,1.24,1.24,1.24-.55,1.24-1.24ZM290.5,293l-3.5,3.5.5.5,3.5-3.5-.5-.5ZM302.26,293.98c0-.68-.55-1.24-1.24-1.24s-1.24.55-1.24,1.24.55,1.24,1.24,1.24,1.24-.55,1.24-1.24ZM305.26,293.98c0-.68-.55-1.24-1.24-1.24s-1.24.55-1.24,1.24.55,1.24,1.24,1.24,1.24-.55,1.24-1.24ZM261,294c-1.07-1.13-7.13,4.93-6,6l3.5,1,3.5-3.5-1-3.5ZM308,305l4-6.5,1-4.5c-1.44.94-4.2,3.16-5,4.5-.13.22.14.69,0,1-.2.43-.92.64-1,1-.16.7-.67,4.81,1,4.5ZM319.5,294l-1.5,1.5.5.5,1.5-1.5-.5-.5ZM230,295l-5,2,1.5,3,3.5-5ZM246,300c3.81.57,5.6-2.51,2.5-5l-2.5,1.5v3.5ZM345,298c-.36,1.15.16,1.94-1.5,3-1.12.71-4.55,2.35-5,1l-1.5,1.5-3,13-3,5c.79,1.62,3.35-.99,4-2,1.32-2.06,2.63-4.95,4-7,2.82-4.22,5.48-8.07,8-12,1.4-2.19,4.51-3.76-1-3.5v-2h-2v2.5l1,.5ZM275,299l-1.5-3c-1.36,2.17-4.86,1.91-4.5,5l4,1v-3h2ZM177,299v-2l-4,3.5.5.5,3.5-2ZM283,297h-2v2l2-2ZM299,300c.29-1.9-1.1-3.29-3-3l3,3ZM201.5,298c-.65,0-.65,1,0,1s.65-1,0-1ZM233,304l-1.5-6-2.5,3.5,4,2.5ZM305.26,298.98c0-.68-.55-1.24-1.24-1.24s-1.24.55-1.24,1.24.55,1.24,1.24,1.24,1.24-.55,1.24-1.24ZM318,308c1.74-.57,2.96-3.44,3.5-5,.74-2.11.82-2.58-1-4-3.45,2.27-2.45,5.39-2.5,9ZM223,303l-.5-3-1.5,5c2.46.37,4.26-.54,4-3l-2,1ZM245,300h-2v2.5l1.5,1.5,1.5-1.5-1-2.5ZM256,304c.82-.82-2.01-4.46-3.5-4l-4.5,5.5c2.63,3.9,5.4,2.47,6-1.5h2ZM278,300l-2,.5-3,4.5,6-2-1-3ZM216.5,301l-4.75,4.75,1,1,4.75-4.75-1-1ZM268,311c-.69-1.93,1.78-2.68,2-3.5.79-2.93-1.56-5.13-4-6.5.81,2.12-4,4.73-4,5.5,1.05.83,4.78,5.65,6,4.5ZM286,306c.4.5,2.65-1.75,2-3-.4-.5-2.65,1.75-2,3ZM313,309l1-6c-2.28,1.03-2.96,2.19-3,4.5-.04,2,.07,1.56,2,1.5ZM226,304l-.5,3,2,3,3.5-2.5c-1.57-1.24-2.66-3.77-5-3.5ZM243,304l-4,2.5-1,4.5,3-2.5c-.23-1.85,2.51-2.26,2-4.5ZM297,307v-1.5l-2-1.5v3h2ZM220,305c-1.84-.39-2.37,1.01-3.5,2-2.5,2.19-4.23,4.51-6,7l.5,3c4.59.61,5.54-4.72,8-7.5l1-4.5ZM245.5,308c-1.32.38-3.57,4.26-4.5,5.5l2.5,2.5c1.51-1.59,8.24-6.8,4-8-.42-.12-1.58-.12-2,0ZM263,315l3-1.5-5.5-5.5-4.5,3.5c-.33,1.08,1.68,2.88,2.5,3.5.2.15.76-.17,1,0,1.23.84,1.6,2.52,3.5,2v-2ZM284,308c-.93-.93-4.7,2.27-4,4l4-2v-2ZM295,312l1-2.5-3-1.5v4h2ZM181,317c2.23.33,3.06-1.89,4.5-3,.21-.17.8.16,1,0,1.58-1.26,2.93-3.16,4.5-4.5l-5.5,2.5-4.5,5ZM218,317c1.35-1.07,2.8-.75,4-1.5,1.01-.63,1.95-2.22,3-3l-1-3.5c-1.35.68-3.13,2.31-4,3.5-.15.21.16.76,0,1-.79,1.16-2.49,1.57-2,3.5ZM321,318l4-9-3.5,2c-1.04,2.53-3.22,3.39-2.5,6.5l2,.5ZM310,312l-2-2v2h2ZM334,310c-2.86-.52-1.72,1.02-2.5,3-.54,1.39-1.7,2.46-1.5,4,2.74.52,1.87-1,2.5-3,.44-1.38.71-2.75,1.5-4ZM197,314v-2h-1v2h1ZM235,316l1-2.5-2-1.5-1,4h2ZM271.5,312c-.65,0-.65,1,0,1s.65-1,0-1ZM272,316c1.64-.71,3.31-2.24,3-4-1.64.71-3.31,2.24-3,4ZM299,319c-.33-3.15,5.4-4.06,1.5-7l-4.5,3.5c.72,1.88.56,4.24,3,3.5ZM314,315v-3h-.5l-1.5,1.5v1.5h2ZM204,316v-2l-2,1.5v.5h2ZM252.5,314c-2.19,2.46-5.3,3.84-4.5,7.5l3.5,2.5,5.5-3.5c-.5-2.82-2.51-4.63-4.5-6.5ZM282,314h-2v1h2v-1ZM175.26,315.98c0-.68-.55-1.24-1.24-1.24s-1.24.55-1.24,1.24.55,1.24,1.24,1.24,1.24-.55,1.24-1.24ZM195,315l-5,2,1.5,3,3.5-5ZM291,315h-2v2l2-2ZM199,316c-1.9-.29-3.29,1.1-3,3l3-3ZM241,320c.37-2.4-.48-4.24-3-4-.83.83,1.67,3.78,3,4ZM303.5,316c-2.57,2.26-5.56,4.87-2,8,1.96.56,3.59-3.52,4.5-4.5l-2.5-3.5ZM201.5,317c-.65,0-.65,1,0,1s.65-1,0-1ZM209,320l-2.5-3-3.5,4,6-1ZM226,317c-1.08-1.03-5.7,4.06-6.5,5-1.21,1.43-1.95,1.7-1.5,4,2.86-2.08,2.91-4.75,6.5-6,.7-.24.77-2.09,1.5-3ZM280,324c-.64-2.11,1.53-3.65,1-5.5-.24-.84-1.92-1.82-3-1.5l-1,5.5,3,1.5ZM332,342c1.77-1.05,3.68-2.93,5-4.5,1.03-1.22,2.97-4.8,4-6,2.39-2.79,5.53-5.23,8-8l4-6.5c-.34-.37-2.59,1.98-3,2.5-.17.21.16.81,0,1-3.43,4.17-8.35,7.88-12,12-.16.18.17.81,0,1-2.21,2.53-6.41,4.75-6,8.5ZM172,318l-3.5,2-5.5,5.5c1.31.62,2.55-1.77,3.5-2.5.22-.17.81.16,1,0,1.56-1.27,3.45-3.26,4.5-5ZM231.5,318c-.65,0-.65,1,0,1s.65-1,0-1ZM239,322c.31-1.76-1.36-3.29-3-4-.31,1.76,1.36,3.29,3,4ZM277,318h-2v2l2-2ZM184,319c-2.29-.41-3.05,2.04-4.5,3-.41.27-2.59.73-3,1-1.16.77-7.22,7.33-6.5,8,2.81-.1,4.52-3.31,6.5-5,.17-.15.77.18,1,0,1.19-.9,2.78-2.31,2.5-4l4-3ZM289,319c-1.9-.29-3.29,1.1-3,3h2l1-3ZM150,328c-.23-3.54,6.09-3.73,6-8l-8,7.5,2,.5ZM190,320l-4,3.5v1.5h-3l-2,5,5.5-5,1,1,3.5-2.5-1-3.5ZM195.5,320c-.65,0-.65,1,0,1s.65-1,0-1ZM216,322v-2l-2,1.5v.5h2ZM320,322v-2h-1v2h1ZM237,322l-4-1c.22,1.33,3.17,3.83,4,3v-2ZM295,321h-2v3h2v-3ZM324,328c2.62-1.11,3.27-4.5,3-7-2.43.47-1.61,2.36-2,3.5-.26.76-1.71,1.63-1,3.5ZM335.5,321l-3.5,4.5.5.5,3.5-4.5-.5-.5ZM210,322l-7.5,2-3.5,3.5,2.5,2.5,8.5-8ZM247,328c4.31-2.27,1.25-4.99-2-6l2,6ZM259,324l-2-1.5-3,4.5,5-3ZM275,322c-4.27.73-5.21,3.5-1.5,6l1.5-6ZM283,327l3-2.5-1.5-1.5-1.5,1.5v2.5ZM323,323c-3.35-.32-2.64,2.74-4,5,3.35.32,2.64-2.74,4-5ZM338.5,323l-2.5,2.5.5.5,2.5-2.5-.5-.5ZM226,324c-2.67-.48-1.6.53-2.5,2-.6.98-2.01,1.19-1.5,3,2.65.06,4.51-2.46,4-5ZM228,332c1.62-1.14,4.52-3.45,5.5-5,.84-1.33.05-2.68-1-3-2.75-.84-1.98-.14-2.5,1.5-.77,2.41-2.82,3.3-2,6.5ZM243.62,323.53l-1.62.97,2.6,4.34,1.62-.97-2.6-4.34ZM258,328c1.64-.71,3.31-2.24,3-4-1.64.71-3.31,2.24-3,4ZM293,327v-1.5l-2-1.5v3h2ZM308,324c-3.87.25-5.93,4.75-1,5l1-5ZM204,330l2.5,4,3.5-4.5,1-4.5c-2.66,1.04-3.9,5.07-7,5ZM300,328c-.71-1.64-2.24-3.31-4-3,.71,1.64,2.24,3.31,4,3ZM279,326c-2.64-.21-3.35,1.72-3,4h-2v3c-1.73,0-1.78-2.22-2-2.5-1.05-1.36-3.24-3.71-5-2,2.25,2.29,2.81,5.07,6.5,5.5,1.94-2.51,6.07-4.25,5.5-8ZM160,327c-1.97-.57-2.38,1.38-3.5,2-.48.26-1.31-.19-1.5,0s.26,1.03,0,1.5c-.74,1.33-3.71,3.54-5,5-.99,1.13-2.39,1.66-2,3.5l10.5-8,1.5-4ZM242,327c-2.21-.26-3.36,1.32-3,3.5l1.5,1.5,2.5-1-1-4ZM289.33,329.23c0-1.16-.94-2.1-2.1-2.1s-2.1.94-2.1,2.1.94,2.1,2.1,2.1,2.1-.94,2.1-2.1ZM170,328c-2.61-.51-5.08,1.42-5,4,.95.95,4.56-2.58,5-4ZM215,328l-1.5,1,.5,1c-2.58-.61-2.42,1.68-3,2.5-.82,1.16-2.48,1.58-2,3.5,1.93-.55,7.08-6.79,6-8ZM253,328h-3l1,4h2v-4ZM188,331v-2l-2,1.5v.5h2ZM196,329v2.5l1.5,1.5,2.5-1.5c-1.33-1.2-2.1-2.89-4-2.5ZM297,329h-3v3c1.9.29,3.29-1.1,3-3ZM222,332l-2-2v2h2ZM248.5,330c-.65,0-.65,1,0,1s.65-1,0-1ZM305,334c.83-.83-1.67-3.78-3-4l1,4h2ZM310,332v-2h-1v2h1ZM327,330c-1.9-.29-3.29,1.1-3,3h2l1-3ZM177,334l1-2.5-.5-.5-2.5,1v2h2ZM283,340c-.81-2.12,4-4.72,4-5.5l-4.5-3.5c-1.22,1.73-4.05,4.57-3.5,6.5.2.69,3.22,3.28,4,2.5ZM212,340l6-5.5-.5-2.5c-1,1.23-2.6,2.27-3.5,3.5-.15.21.16.76,0,1-.8,1.16-2.49,1.57-2,3.5ZM238,332h-2l-2,4c1.73.7,4.93-3.07,4-4ZM245,331.5l-3,3,4,4,3-3-4-4ZM266,332c-2.44-.74-2.28,1.62-3,3.5l4.5,4.5c.29-1.15,3.44-.51,2.5-2.5-.77-1.63-4.49-2.95-4-5.5ZM184.5,333l-1.5,1.5.5.5,1.5-1.5-.5-.5ZM192,339c.24.28,6.46-4.06,2.5-6l-2.5,6ZM201.5,333c-2.9,2.2-1.55,5.39,2,5l1.5-1.5-3.5-3.5ZM224,336c.65-1.25-1.6-3.5-2-3-.65,1.25,1.6,3.5,2,3ZM231,338l2-5c-1.55.06-3.49,4.41-3,5h1ZM299,333c.47,1.6-1.17,1.93-.5,3,.48.77,1.98,2.29,3,2,3.85-1.92-1.58-6.02-2.5-5ZM135,340l-4,2.5,3.5,4.5,10.5-12.5-10.5,9.5.5-4ZM170,336v-2h-1v2h1ZM175,342c4.07-.59,5.7-4.22,5-8-2.4.9-3.36,4.35-6,4l1,4ZM188,336v-2h-1v2h1ZM307,337v-2h-1v2h1ZM243,342c.1-.09-.28-1.99,1-2.5-1.7-1.46-3.09-4.19-5.5-3.5-1.13.32-2.41,3.8-4.5,3v3c2.67-.46,3.33,3.46,6,3-.81-2.92,2.73-2.75,3-3ZM256,338l3-1.5-.5-.5-2.5,1v1ZM168,337c-1.42-1.32-6.67,5.04-6,7l6-7ZM197,347l4-6.5-3.5-3.5c-2.19,2.47-5.31,3.82-4.5,7.5.1.44,1.55.88,1,2.5h3ZM221,337l-6,3c.82,7.5,7.17-1.79,6-3ZM266,342c1.04-1.17-3.66-5.39-4-5l1.5,3,2.5,2ZM129,341c.4.5,2.65-1.75,2-3-.4-.5-2.65,1.75-2,3ZM159,338c-3.06.15-5.03,2.44-7,4.5l4,2.5-2-4,4,1,1-4ZM191,338h-2v2l2-2ZM248.5,338c-.65,0-.65,1,0,1s.65-1,0-1ZM288,341l-.5-3-2.5,5,1.5-2h1.5ZM317.5,338c-.65,0-.65,1,0,1s.65-1,0-1ZM207.26,339.98c0-.68-.55-1.24-1.24-1.24s-1.24.55-1.24,1.24.55,1.24,1.24,1.24,1.24-.55,1.24-1.24ZM275,341v-2h-1v2h1ZM209,342h-2l1.5,3,.5-3h2v-2h-2v2ZM229,342l-2-2v2h2ZM310,342l-2-2-2,5,2-3h2ZM185.5,341c-.65,0-.65,1,0,1s.65-1,0-1ZM261.5,341l-2,2,3,3,2-2-3-3ZM278,343v-2h-1v2h1ZM165,350c1.93.49,2.34-1.2,3.5-2,.24-.17.8.15,1,0,1.98-1.5,4.15-4.57,1-6-1.85-.84-1.83,3.02-3.5,3.5l-.5,1.5-1.5,3ZM181,342h-2v3h1c-.42-1.51.69-1.82,1-3ZM204,342h-2v1h2v-1ZM237,349c.6-3.72-3.06-5.32-5.5-7l-4.5,3.5,3,6.5c6.94.27,3.56-1.05,1.5-4-.71-1.02-1.56-2.72-1.5-4,1.54.22,5.69,6.39,7,5ZM250,344v-2h-1v2h1ZM255,349l1-4.5-2.5-2.5-2.5,2.5v1l4,3.5ZM272,342h-2v1h2v-1ZM301,345c-.71-1.64-2.24-3.31-4-3,.71,1.64,2.24,3.31,4,3ZM215,346c.29-1.9-1.1-3.29-3-3-.29,1.9,1.1,3.29,3,3ZM309,346c.4.5,2.65-1.75,2-3-.4-.5-2.65,1.75-2,3ZM145,344l-3.5,2c-.47,1.66-4.36,1.67-3.5,3.5,1.49,3.16,4.19,2.08,6.5,2.5.4.07.89,1.55,2.5,1v4h5l-1,3.5,3,2.5c.07-1.99-1.07-1.75-.5-4,.08-.32.88-.88.5-2-1.55-.04-4.14-1.15-5-2.5-.16-.25.15-.8,0-1-.48-.67-1.88-1.56-2-2-.32-1.17.21-3.13,0-4.5l-5,2.5,3-5.5ZM159,346v-2h-1v2h1ZM202.26,344.98c0-.68-.55-1.24-1.24-1.24s-1.24.55-1.24,1.24.55,1.24,1.24,1.24,1.24-.55,1.24-1.24ZM270.5,344l-.5.5,1.5,1.5.5-.5-1.5-1.5ZM185,345l-3,1.5v2.5l3-1.5v-2.5ZM190.5,345c-5.32,6.11,4.05,7.91,2.5,2.5-.16-.57-2.01-1.72-2.5-2.5ZM242.5,345c-.65,0-.65,1,0,1s.65-1,0-1ZM269,353l2-5.5-4.5-2.5-2.5,2.5v1l5,4.5ZM154,349l-6-3,3,6,3-3ZM177,348l-2-2v2h2ZM206,346h-2l-2,4c1.73.7,4.93-3.07,4-4ZM212,346h-2l1.5,2h.5v-2ZM282.5,346l-1.5,1.5,1.5,3.5,1.5-1.5-1.5-3.5ZM225,351c-.58-.12-1.35.06-2,0v2l5,2-1-2,1-.5-4-5.5c-.39,1.82.33,2.59,1,4ZM241,353l3-2.5,2-3.5-5,6ZM248.5,347c-1.73.51-1.76,5.51-3.5,6.5v1l5.5,3.5,3.5-6.5c-1.31-.91-3.96-4.95-5.5-4.5ZM260,347h-2c.11,1.86-1.54,2.83-1,5,2.18-.97,3.47-2.63,3-5ZM220.26,348.98c0-.68-.55-1.24-1.24-1.24s-1.24.55-1.24,1.24.55,1.24,1.24,1.24,1.24-.55,1.24-1.24ZM273,352l1-4-2,1.5v2.5h1ZM296,348h-4c1.02,1.99,1.45,4.39,4,4v-4ZM305.26,348.98c0-.68-.55-1.24-1.24-1.24s-1.24.55-1.24,1.24.55,1.24,1.24,1.24,1.24-.55,1.24-1.24ZM331.25,347.75l-1,1,4.5,4.5,1-1-4.5-4.5ZM175,349c-1.7-.49-6.7,1.57-6,3.5.29.8,2.11,2.28,3,1l3-4.5ZM188,349l-4,3.5,3.5,4.5.5-8ZM202,355l3,.5,4-4-2.5-2.5c-.78.95-5.7,4.89-4.5,6ZM325,351v-2l-2,1.5v.5h2ZM159,353c.29-1.9-1.1-3.29-3-3-.29,1.9,1.1,3.29,3,3ZM288.5,350c-.65,0-.65,1,0,1s.65-1,0-1ZM152,367c-3.54-5.88-9.92-7.32-14-12.5-.15-.2.17-.77,0-1-.95-1.28-2.82-3.58-4-1-1.08,2.36,2.76,1.24,3,1.5-.57,3.01,1.99,5.57,5,5,.13,3.03,4.27,4.47,6.5,6,1.16.8,1.57,2.49,3.5,2ZM174,355h2.5l1.5-1.5-1.5-2.5c-1.2,1.33-2.89,2.1-2.5,4ZM263,351l-2,.5-2,4.5c2.36-.68,3.67,3.52,5.5,3,1.08-.31,1.86-2.32,1.5-3.5-.33-1.11-3.71-2.33-3-4.5ZM307,351l-1,4,2.24.56,1-4-2.24-.56ZM216,355v-3h-.5l-1.5,1.5v1.5h2ZM221,352h-2l1.5,2h.5v-2ZM275,360l-.5-8-4.5,4.5c1.57,1.24,2.66,3.77,5,3.5ZM280,352h-2l-1,4h2l1-4ZM285,354v-2h-1v2h1ZM290,359c1.46-.27,2.1-1.78,2.5-3,.74-2.23-.67-1.99-.5-4-1.46.27-2.1,1.78-2.5,3-.74,2.23.67,1.99.5,4ZM337,365c-3.32-4.7-6.12-9.69-11-13-.45,2.3.29,2.57,1.5,4,2.21,2.6,3.92,4.16,6,7,.82,1.12,1.95,2.3,3.5,2ZM156,356c.29-1.9-1.1-3.29-3-3l3,3ZM193,353c-1.9-.29-3.29,1.1-3,3h2l1-3ZM168,359c.07-2.08.43-3.72-1.5-5l-2,1-2.5-1,.5,3,5.5,2ZM199,354c-2.3-.45-2.57.29-4,1.5s-4.91,4.42-1.5,5.5,2.09-1.81,4-3l1.5-4ZM132,355h-2v1h2v-1ZM218,355v1.5l1.5,1.5,1.5-1.5-1.5-1.5h-1.5ZM222,361c3.02-1.11,6.01-2.94,2.5-6l-2.5,6ZM240,355c-1.48-1.33-7.5,2.7-3.5,5l3.5-5ZM169.5,356c-.65,0-.65,1,0,1s.65-1,0-1ZM185,362c.4-.36-3.41-3.98-4-4.5-1.62-1.44-1.22-2.11-3,0l7,4.5ZM214,356c-.93.18-2.6-.58-3,.5-.47,1.26-1.08,2.24-1,3.5l3,1,1-5ZM381,396c.33-2.23-1.89-3.06-3-4.5-6.97-9.02-14.98-19.35-23-28-2.44-2.64-5.1-5.37-8-7.5-.25,2.43,1.92,3.87,3,5.5,6.96,10.5,16.86,19.81,25,29,1.7,1.92,3.85,4.1,6,5.5ZM174,360l-.5-3c-1.2,1.33-2.89,2.1-2.5,4l3-1ZM199,357l-.5,5,3.5-3.5-3-1.5ZM255,361l5.5,2c3.69-1.45-1.5-6.46-3-6l-2.5,4ZM305,357h-2v1.5l1.5,1.5h.5v-3ZM319.5,357c-.65,0-.65,1,0,1s.65-1,0-1ZM247,361c-2.07.37-3-1.72-4.5-3-.65.92-2.92,2.1-2.5,3.5.35,1.14,1.81,1.21,2.5,1.5,1.46.61,2.86,1.25,4.5,1v-3ZM219,365l-3-6-1,3.5,4,2.5ZM287,359v2.5l1.5,1.5,1.5-2.5-3-1.5ZM312.5,359c-.65,0-.65,1,0,1s.65-1,0-1ZM176,363h-2v2c3.96.05,5.32,6.7,10,6-.22-4.71-6.58-4.08-8-8l7,3c-1.06-1.44-4.19-5.38-5.5-6-2.33-1.1-1.26,2.76-1.5,3ZM300,367c-1.02-3.23,4.11-4.35.5-7-1.87,2.49-6.09,6.46-.5,7ZM320,360h-2v3.5l1.5,1.5h.5v-5ZM327,360l-2,.5,1,2.5h2l-1-3ZM166,361h-3c-.29,1.9,1.1,3.29,3,3v-3ZM211,367c.63-3.36-1.53-3.88-4-5-.55,1.94,1.3,2.34,2,3.5.54.89-.58,2.34,2,1.5ZM233,362l-4.5,4-2.5-1,2,1,2,6c3.37.31,3.17-3.77,5-5.5l-2-4.5ZM272,368c.85-1.04-1.5-6.93-4-6-1.34,2.08,3.65,6.43,4,6ZM282,372c3.49.23,3.23-4,5-5.5l-2-4.5c-1.67.12-1.6,1.63-2,2.5-.48,1.05-1.16,2.47-1.5,3.5-.73,2.23.67,1.99.5,4ZM196,363h-2v2l2-2ZM259,365l-6-2c-.29,2.97,1.99,2.78,4,3.5l2-1.5ZM266,365l-2-2v2h2ZM278.5,363c-.65,0-.65,1,0,1s.65-1,0-1ZM324,363c-3.94-.4-1.15,1.75-1,2.5.66,3.31.04,6.87,2,10l4,3.5-5-16ZM161,365l-4-1v2l4,1v-2ZM206,375c-.26-2.54-.13-3.98,2-5.5v-2l-5.5-3.5c-1.31,1.62-2.29,2.4-4.5,2-.07,1.17-.16,1.92.5,3,.57.92,3.99,4.23,5,5,.87.66.96,1.38,2.5,1ZM238.75,363.25l-1,1,4.5,4.5,1-1-4.5-4.5ZM305,365c-3.18.09-5.75,3.67-2.5,6l2.5-6ZM177,371c-2.25.23-3.48-2.15-5-3.5-1.62-1.44-1.22-2.11-3,0l6.5,5.5,1.5-2ZM216,369l-3-3c-.29,1.9,1.1,3.29,3,3ZM264,366h-2l1.5,2h.5v-2ZM320.5,366c-.65,0-.65,1,0,1s.65-1,0-1ZM331,366l-2,.5,6,15,3,3.5-1-5.5c-3.22-2.9-3.68-7.35-5-11-.21-.59-1.53-.85-1-2.5ZM349,383c.22-.21-1.57-2.89-2-3.5-2.77-3.95-5.44-6.94-9.5-9.5-1.82-1.14-1.44-4.43-4.5-4-.44,1.91,1.1,2.34,2,3.5,3.66,4.72,5.8,7.36,10.5,11.5,1.13.99,1.66,2.39,3.5,2ZM154,370c.19.19,1.03-.26,1.5,0,2.93,1.63,6.88,7.83,10,10l5.5,3.5c-2.35-3.06-4.62-5.89-7.5-8.5-.19-.17-.82.16-1,0-2.76-2.56-5.26-5.41-8-8l-.5,3ZM256,370l-6-2-1,6h2l1.5,2,3.5-6ZM297,368c-3.1-.21-3.27,2.25-3,5,1.61-.08,3.49-4.51,3-5ZM210,373c3.97-.03,3.97-3.97,0-4v4ZM225.5,369l-1,1,4.75,4.75,1-1-4.75-4.75ZM234,373c.61.52,5-1.77,5-2.5l-2.5-1.5-2.5,4ZM263,373v-2.5l-1.5-1.5-1.5,2.5,3,1.5ZM166.26,370.98c0-.68-.55-1.24-1.24-1.24s-1.24.55-1.24,1.24.55,1.24,1.24,1.24,1.24-.55,1.24-1.24ZM246,370h-2v3h2v-3ZM269,371l-4-1-1,3.5,2,3.5,3-2.5v-3.5ZM308,370h-2v3l2-1.5v-1.5ZM203,378c.37-.33-3.85-4.5-4.5-5-.78-.61-2.46-2.03-3.5-1.5,1.2,1.01,1.01,2.56,2.5,3.5.25.16.79-.15,1,0,1.45,1.02,2.23,3.38,4.5,3ZM300,379c-.09-2.58,2.93-3.13,2-6.5-2.32-4.11-6.72,2.53-6,5,.39,1.35,2.66,1.77,4,1.5ZM220.26,372.98c0-.68-.55-1.24-1.24-1.24s-1.24.55-1.24,1.24.55,1.24,1.24,1.24,1.24-.55,1.24-1.24ZM225,380c5.47-1.65-1.86-8.25-3-7l3,7ZM241,373c-2.54-.27-2.91,2.74-5.5,2l-.5,3c1.08,1.17,6.37-4.67,6-5ZM191,377c.29-1.9-1.1-3.29-3-3v2l3,1ZM261,381c.27-3.2.26-5.64-3-7l-2,5,5,2ZM281,376l-1.5-2h-1.5v2h3ZM293,374c-2.16-1.02-4.6,4.32-4,5,2.67.48,1.6-.53,2.5-2,.6-.98,2.01-1.19,1.5-3ZM188,394l-7.5-8-13.5-11,2,2v2c1.9-.29,3.29,1.1,3,3h2c.98,3.07,5.89,7.31,8.5,9,1.67,1.08,3.51,2.92,5.5,3ZM218,378c.65-1.25-1.6-3.5-2-3-.65,1.25,1.6,3.5,2,3ZM233,377v-2l-2,1.5v.5h2ZM274,375l-5,5,2-3,3-2ZM215,376l-3,2c1.89-.9,5.4,4.7,6,4l-3-6ZM244,379l-1.5-3h-1l-3.5,4,6-1ZM310,376l-4,3.5v1.5l2,.5c-2.15,1.3-1.58,2.44-2,4-.11.41-1,.67-1,1,0,.31.82.56,1,1s-.06,1.02,0,1.5c-3.57-.37-4.26,4.68-1.5,7l2.5-4.5-1-2c1.78-.7,3.25-8.13,3-9-.12-.42-.99-.67-1-1l2-3.5ZM252,377h-2v3l2-1.5v-1.5ZM278,377c-2.3-.38-1.9.24-2.5,2-.47,1.38-.69,2.75-1.5,4,2.66.47,1.61-.52,2.5-2,.77-1.29,2.17-1.56,1.5-4ZM305,377c-2.54-.43-1.7.38-2.5,2-.64,1.29-1.64,2.54-1.5,4l4-6ZM231,385l1-5.5-3-1.5v3l-3,1.5c1.19,3.23,3.75,5.92,6.5,8.5l6.5,3,2-6.5-5.5-4.5c-1.31,1.62-2.29,2.4-4.5,2ZM265,382v-1.5l-2-1.5v3h2ZM285,379h-2l-1,5h1l2-5ZM293.5,379c-.59.18-1.72,2-2.5,2.5l3.5,3.5c3.69-1.86,2.94-7.18-1-6ZM346,390l.5-4c-2.58-2.09-3.21-5.49-6.5-7l3,7.5,3,3.5ZM156.5,380c-.76,1,1.34,2.31,2,3,2.04,2.14,4.78,5.27,7,7,.78.61,2.46,2.03,3.5,1.5-3.88-4.52-8.42-7.48-12.5-11.5ZM194,383c-.37-2.02-2.49-1.73-3.5-3l-.5.5c1.33,1.2,2.1,2.89,4,2.5ZM220.5,380c-.65,0-.65,1,0,1s.65-1,0-1ZM263,389h-2.5l-1.5-2.5c2.68-2.52-.35-4.96-3-6-1.87-.73-1.78-.34-3,1,.58,3.92,4.35,5.72,6.5,8.5.71.92.67,2.25,2,3l1.5-4ZM330,383c-.71-1.64-2.24-3.31-4-3,.71,1.64,2.24,3.31,4,3ZM210,386c.32-1.68-.89-2.52-2-3.5-1.62-1.44-1.22-2.11-3,0l5,3.5ZM209.5,381l3,4,5.5,2.5c-2.42-2.92-5.43-4.35-8.5-6.5ZM242,383l-2-2v2h2ZM268,382h-2v1h2v-1ZM197,386c-1.2.06-3.24-.73-3,1l4.5,3-1.5-4c.66-.03,1.34.01,2,0v-.5c-1.33-1.2-2.1-2.89-4-2.5l2,3ZM224,383h-2v1h2v-1ZM249,383h-1.5l-1.5,2h3v-2ZM298,388l1-5c-1.61.08-3.49,4.51-3,5h2ZM194,384h-2v1h2v-1ZM285,390c.33.33,2.79-.7,3.5-1s2.15-.35,2.5-1.5c.42-1.4-1.85-2.58-2.5-3.5-2.01-.66-3.99,4.38-3.5,6ZM322,389v-3.5l-2-1.5v3.5l2,1.5ZM353,391c7.24-.65-.75-8.42-2-7l2,7ZM266,385c-1.9-.29-3.29,1.1-3,3h3v-3ZM301,392l1-6-3,3.5,2,2.5ZM340,388v-2h-1v2h1ZM247,389v-2h-1v2h1ZM191,388h-2l1.5,2h.5v-2ZM204.5,389l-.5.5,1.5,1.5.5-.5-1.5-1.5ZM295,389c-1.34-.25-3.56.11-4,1.5-.61,1.95,2.64,2.43,3.5,3.5l.5-5ZM350,389l-3,2.5v1c3.05,2.12,3.75,7.06,8,7.5,1.21-1.28-2.99-6.65-4-7.5l-1-3.5ZM245,390l-2,2h-2c-.06,2.04-.45,3.7,1.5,5,2.72-1.95,2.78-3.77,2.5-7ZM258,396c-2.54.79-7.31-7.58-9-6,.79,1.91,1.81,3.72,3.5,5,.22.17.8-.16,1,0,1.48,1.16,4.63,5.74,4.5,1ZM312,393c-.31-1.18-1.42-1.49-1-3h-1v3h2ZM222,393l-2-2v2h2ZM266,391h-2v1h2v-1ZM331,398c1.05-1.03-2-6.8-4-7l1,7h3ZM282.5,392c-.65,0-.65,1,0,1s.65-1,0-1ZM363,392c2.29,3.11,5.22,5.84,8,8.5.69.66,2,2.76,3,2-1.59-1.73-3.45-3.24-5-5-1.63-1.85-2.75-5.58-6-5.5ZM223,405l-10.5-5-5-5-5.5-2c4.54,6.73,11.65,8.82,17.5,14l3.5,1v-3ZM238,399l-1.5-4-5.5-2,7,6ZM276,393c-.9-1.04-4.37,2.72-5,3.5-.15.19.17.78,0,1-1.11,1.44-3.36,2.3-3,4.5h4c.16-3.61,5.31-4.28,4-9ZM299,393h-2c-.29,1.9,1.1,3.29,3,3l-1-3ZM321,393l-2,.5,2,9,2,2.5c-.18-1.76.26-3.82,0-5.5-.06-.37-.91-.61-1-1-.2-.91.24-2.2,0-3-.15-.52-1.54-.86-1-2.5ZM357,393h-2v1h2v-1ZM359,393l3.5,7c3.93-1.41-1.97-6.36-3.5-7ZM228,398c.31-1.76-1.36-3.29-3-4-.31,1.76,1.36,3.29,3,4ZM252,398l-3.5-4-1.5,1.5v1l1.5,1.5h3.5ZM318,394c-4.31-.57-.76,4.43-1,6.5l1,1-2,3,4,3.5-2-14ZM264.5,395c-.65,0-.65,1,0,1s.65-1,0-1ZM290,400c.98,1.05,6.34-3.18,2.5-5h-4.5l2,5ZM311,395h-3l-1,3.5c1.57,1.24,2.66,3.77,5,3.5l-1-7ZM194,395.5l-1,1,5.75,5.75,1-1-5.75-5.75ZM287,396h-2v2l2.5,1,.5-.5-1-2.5ZM352,402c1.12-1.2-4.7-6.35-5-6-.77,3.72,2.7,4.14,5,6ZM242,399l-3-1c-.29,1.9,1.1,3.29,3,3v-2ZM286,417l2-7.5,2-3-8.5-8.5c-2.08,1.92-3,4.75-2.5,7.5.07.38.92.61,1,1,.3,1.45-.65,3.02,1,4-1.54.62.18,3.66,1.5,4.5.25.16.79-.15,1,0,.58.4,2.1,2.49,2.5,2ZM296,406l2-4.5-.5-3.5-4.5,4.5,3,3.5ZM255,403l-1.5-4-4.5,1,3.5,4,2.5-1ZM237,402l-2-2v2h2ZM248,406l-2.5-6c-3.25,2.33-.68,5.91,2.5,6ZM302,410c-.39-3.1,1.18-5.52,2-8.5l-4-1.5-2,8.5c1.1,1.55,2.17,1.73,4,1.5ZM333,400h-2c-.23,1.86-.04,2.9,1.5,4h.5v-4ZM337,409l-1-6.5-2-2.5.5,5,2.5,4ZM367,400l-2,.5c-.48,3.79,1.97,6.2,4.5,8.5.91.83,1.59,2.21,3,2,1.38-.37,1.52-1.22.5-2.5-1.62-2.03-3.52-3.89-5-6-.6-.85-1.41-.93-1-2.5ZM245,409l-7-7,3.5,5,3.5,2ZM361,406c.2-2.06-1.94-4.2-4-4l4,4ZM276,403h-2.5l-1.5,1.5c-.39,1.43,1.57,2.89,3,2.5l1-4ZM330,417c3.73-1.24.67-5.68,3-7.5l-5-6.5c1.29,4.77,2.51,8.92,2,14ZM385.5,403c-.53,1.04.89,2.72,1.5,3.5.96,1.23,2.46,2.27,3.5,3.5l-1.5-3.5-3.5-3.5ZM309,419c.92-2.95.85-6.15,3-8.5,1.12-1.92-4.96-7.54-6-6.5-.93,2.99-.83,6.11-3,8.5.77,1.59,2.11,2.75,3,4,.52.74.38,3.08,3,2.5ZM198,405l8.5,9,6.5,4.5c-1.96-2.17-3.24-4.53-5.5-6.5-1.43-1.25-4.56-2.67-6-5l-3.5-2ZM260,405h-5v2h5v-2ZM326,405h-2v3h2v-3ZM375.5,405c-.65,0-.65,1,0,1s.65-1,0-1ZM278,406h-2v3.5l1.5,1.5h.5v-5ZM349.18,406.79l-1.76,1.06,3.49,5.81,1.76-1.06-3.49-5.81ZM224.62,407.47l-.97,1.62,4.78,2.87.97-1.62-4.78-2.87ZM256,414l-.5-4c-1.41-1.25-3.42-2.29-5.5-2-.56,4.01.5,2.4,1.5,3,1.45.87,2.22,3.47,4.5,3ZM270.5,408c-.65,0-.65,1,0,1s.65-1,0-1ZM261,410l-3-1c-.29,1.9,1.1,3.29,3,3v-2ZM292,421c-.17-3.58,2.92-7.07,2-10.5l-3-1.5-3,8.5v2.5l4,1ZM321,413c.37-2.4-.48-4.24-3-4-.83.83,1.67,3.78,3,4ZM364,411l-1-.5c1.9,1.44,3.28,4.58,6,4.5l-5-4ZM251,412l-4-1c.37,2.02,2.49,1.73,3.5,3l.5-2ZM382,422l-2-5.5-5.5-5.5-1,3,8.5,8ZM225,414c-2.06.83-3.01-3.19-5-1.5l9,7.5-1.5-4h-2.5v-2ZM230.5,412c-.65,0-.65,1,0,1s.65-1,0-1ZM273.5,412c-.65,0-.65,1,0,1s.65-1,0-1ZM232.5,413l-.5.5,1.5,1.5.5-.5-1.5-1.5ZM272,421c.49-1.93-1.2-2.34-2-3.5-.16-.24.15-.8,0-1-.59-.8-4.1-4.5-5-3.5-.2,1.73-.08,3,1.5,4,.26.16.8-.15,1,0,1.52,1.08,2.63,3.34,4.5,4ZM317,420l2-3.5-3-3.5-1,6.5,2,.5ZM326,417l-1-2.5.5-1.5-1.5,1.5,2,2.5ZM339,429c-.28-1.58.82-1.95,1-3.5.26-2.21.3-6.84,0-9-.25-1.83-1.38-2.31-2.5-3.5-1.98,1.31-1.4,2.58-1.5,4.5-.08,1.53-.18,3.55,0,5,.05.37.94.62,1,1,.35,2.16-1.43,6.31,2,5.5ZM359,418v-5h-1c.54,2.17-1.11,3.14-1,5h2ZM348,414h-2v5h2v-5ZM258,420c.36-.3-1.89-2.55-2.5-3-.2-.15-.76.16-1,0-1.16-.79-1.57-2.49-3.5-2l3,3.5,4,1.5ZM259,415h-2v1h2v-1ZM278,417c-.38.45-2.44-2.67-2,.5l3,3.5-1-4c1.63.63,2.71,2.35,4,3.5,1.62,1.44,1.22,2.11,3,0l-5.5-5.5h-1.5v2ZM296,425c3.66-2.16,4.41-7.4.5-10l-2.5,8h1.5l.5,2ZM363,416c-2.19-.55-2.59.75-2,2.5.23.69,4.17,4.39,5,3.5l-3-6ZM378,426l-2-5.5-4.5-4.5c-1.08,1.07-2.06,1.33-1,3,1.37,2.16,5.41,5.22,7.5,7ZM237,420c.5-.4-1.75-2.65-3-2-.5.4,1.75,2.65,3,2ZM304.51,417.69l-1.47.88,2.56,4.26,1.47-.88-2.56-4.26ZM271,426c.39-1.84-1.01-2.37-2-3.5-1.6-1.81-3.26-4.06-6-3.5-.38.32,1.99,2.59,2.5,3,.21.17.81-.16,1,0,1.5,1.24,2.66,3.25,4.5,4ZM351,422v-3h-1v3h1ZM312.5,420c-.65,0-.65,1,0,1s.65-1,0-1ZM321,430l-.5-10c-2.49,1.34-3.98,2.55-4.5,5.5,2.19,1.37,1.88,4.84,5,4.5ZM245,432v-4.5c-1.47-1-3.08-2.56-4.5-3.5-.22-.15-.75.16-1,0-1.21-.76-1.52-1.81-3.5-2.5-2.11-.74-2.58-.82-4,1l6.5,5.5c2.58.06,3.49,4.26,6.5,4ZM246.5,421l-1,1,5.75,5.75,1-1-5.75-5.75ZM273,422l2.5,1,.5-.5-3-1.5v1ZM300,427l4-3.5-2.5-2.5-1.5,6ZM334,421h-2v3.5l1.5,1.5h.5v-5ZM365,423l-5-2c-.98,3.35,1.73,4.22,2,7,3.19.58,1.48-1.12,2-2.5.23-.61,1.52-.85,1-2.5ZM325,422c-1.15-1.37-1.92-.13-2,1.5-.14,2.82.1,5.69,0,8.5,1.89.2.76-2.23,1-3.5.07-.39.95-.63,1-1,.24-1.71-.16-3.73,0-5.5ZM290,424l-4-1c-.53.54,1.76,5,2.5,5l1.5-1.5v-2.5ZM367.75,422.25l-1,1,7.5,7.5,1-1-7.5-7.5ZM384,423c-.96,4.31,2.68,5.79,5,8.5.17.2-.16.81,0,1,3.16,3.66,7.24,6.88,10.5,10.5l-1.5-3.5c-3.65-3.81-7.03-8.04-10-12-.16-.21.16-.79,0-1-.9-1.2-2.63-2.81-4-3.5ZM274.5,424l-1,1,4.75,4.75,1-1-4.75-4.75ZM312,425h-2v1.5l1.5,1.5h.5v-3ZM249,442c.37-.34-1.98-2.59-2.5-3-.21-.17-.81.16-1,0-2.45-2.02-4.57-4.89-7-7-.19-.16-.8.17-1,0-2.65-2.24-4.58-5.82-8.5-6,.41,2.13,3.08,1.85,4,3.5,1.39,2.49,3.91,3.52,6.5,5.5,1.07.82,1.94,2.12,3,3l6.5,4ZM264,426c.29,1.64,1.82,1.89,3,2.5.71.37,2.34,1.58,3,1l-2.5-2.5-3.5-1ZM297,427l-4-1c-.39,1.9,1.3,2.67,2.5,4l1.5-1.5v-1.5ZM306.26,426.98c0-.68-.55-1.24-1.24-1.24s-1.24.55-1.24,1.24.55,1.24,1.24,1.24,1.24-.55,1.24-1.24ZM373,437l1-4.5c-1.19-.86-6.78-7.81-8-6.5l-1,4.5c1.19.86,6.78,7.81,8,6.5ZM380.4,425.16l-2.06,1.24,2.56,4.26,2.06-1.24-2.56-4.26ZM247.5,427c-.65,0-.65,1,0,1s.65-1,0-1ZM316,427c-4.87,2.45.25,5.57,2.5,8,2.96-2-.52-2.88-1.5-4.5l-1-3.5ZM329,427c-.57,3.37-2.95,7.04-2,10.5.14.53,3.49,3.79,4.5,3.5,2.2-1.3,1.13-2.92,1.5-4.5.09-.39.93-.62,1-1,.68-3.75-.44-3.8-2-6-.52-.73-.38-3.09-3-2.5ZM262,428c-.45,2.3.29,2.57,1.5,4,3.06,3.6,7.42,6.56,11,9,.68.47,1.52,1.86,2,2,3.06.92,5.11-3.03,2-5-4.15-2.62-9.05-5.29-13-8-1.16-.79-1.57-2.49-3.5-2ZM256,438c.89-4.46-2.2-5.43-5-7.5-1.4-1.04-1.62-2.04-4-1.5l1.5,4c2.17,2.18,4.17,4.82,7.5,5ZM295,435l-4-5-1,3.5,2,1.5-.5-3h1.5l2,3ZM303,430c-1.9-.39-2.67,1.3-4,2.5l2.5,2.5c1.91-1.27,1.58-2.86,1.5-5ZM385,430c-5.04-.2.78,4.02,2,5.5.17.2-.16.81,0,1,1.62,1.92,3.91,4.09,6,5.5.33-2.23-1.89-3.06-3-4.5-.17-.21.16-.8,0-1-1.65-2.06-4.97-3.68-5-6.5ZM284.5,432c-.65,0-.65,1,0,1s.65-1,0-1ZM309,437c.27-2.75.1-5.21-3-5-.27,2.75-.1,5.21,3,5ZM341,432h-2v1h2v-1ZM279,434h-2l2.5,3,.5-.5-1-2.5ZM346,434c-2.02.37-1.73,2.49-3,3.5l1.5,1.5c1.91-1.27,1.58-2.86,1.5-5ZM302,436l-5-1c1.36,2.54,5.82,7.03,5,1ZM336,445l2-10-4,6.5c.08,2.14-.98,4.09,2,3.5ZM369,439c.22-1.99-1.86-4.18-4-4-.69.74,3.03,7.3,4.5,8l1.5-4h-2ZM377,435c-2.63-.35-3.42,2.46-4,4.5.95.78,4.9,5.7,6,4.5-.26-1.65.39-4.07,0-5.5-.22-.82-2.69-1.57-2-3.5ZM324,436h-2l-1,2.5,3,1.5v-4ZM318,445l1-4.5-4.5-3.5c-1.65,1.3-1.39,1.23-1,3s1.4,3.25,1.5,5h3ZM421,456l-18-19c.1,2.81,3.31,4.52,5,6.5.17.2-.16.81,0,1,2.6,3,6.51,6.86,9.5,9.5,1.12.99,1.66,2.39,3.5,2ZM266,445c.35-.31-5.75-7.11-7-6-.32,2.53,1.89,2.85,3.5,4,1.16.83,1.57,2.47,3.5,2ZM301,442c-.22-1.33-3.17-3.83-4-3v2l4,1ZM308,442c.29-1.9-1.1-3.29-3-3-.29,1.9,1.1,3.29,3,3ZM392,450c1.3-1.3-4.97-6.03-6-7.5-.15-.21.16-.75,0-1-.62-.97-4.33-3.07-5-2.5,1.89,2.73,4.67,4.84,4,8.5l3,5.5c.41.49,2.64-1.75,2-3h2ZM256,444c.31-1.76-1.36-3.29-3-4-.31,1.76,1.36,3.29,3,4ZM328,440l-2,.5c-.52,2.69.9,5.43,4,5.5v-4h-1.5l-.5-2ZM341,452c.52-4.03,5.66-8.11,1.5-12l-2.5,3.5-2,3v2l3,3.5ZM289,448c-1.4-2.02-3.6-4.49-5.5-6-1.28-1.02-2.13-.88-2.5.5-.43,1.59.31,2.57,1.5,3.5l6.5,2ZM291,441h-2v1h2v-1ZM352,447l1-6h-1l-1,6h1ZM362,445c.24-1.88,0-3.47-2-4v4h2ZM254,451c1.63-1.82-5.79-5.39-6.5-7l-4.5-2c3.33,3.53,7.29,6.13,11,9ZM374,442c-2.44-.74-2.28,1.62-3,3.5l6,5.5c-.13-1.67.43-3.47-.5-5-.79-1.3-3.04-1.93-2.5-4ZM384,450l-2.5-7-.5,4.5,3,2.5ZM322,444h-2c-.37,2.4.48,4.24,3,4l-1-4ZM356,444h-2v1h2v-1ZM395.5,444l-.5.5,2.5,2.5.5-.5-2.5-2.5ZM269,450l-5.5-2-4.5-3c-.39,1.84,1.01,2.37,2,3.5,2.14,2.43,6.82,7.98,8,1.5ZM309,449c.2-2.06-1.94-4.2-4-4l4,4ZM355,449v-3h-1v3h1ZM282,453c.35-.31-5.75-7.11-7-6-.32,2.53,1.89,2.85,3.5,4,1.16.83,1.57,2.47,3.5,2ZM309,450c-1.64.96-4.41-3.59-5-3l4.5,5,.5-2ZM335,447c-3.08-.48-1.6.82-2,2.5-.34,1.46-1.18,2.05-1,3.5l2-2.5,1-3.5ZM366,447h-2c-.52,2.48.79,3.95,1,6h1v-6ZM402.5,447c-.65,0-.65,1,0,1s.65-1,0-1ZM247,459c.92-1.01-2.64-4.36-3.5-5-.61-.45-3.38-1.55-4-2-1.75-1.29-2.94-4.2-5.5-4l4.5,5,3,1,5.5,5ZM290,452c-2.85,0-4.83-3.78-8-4,1.36,1.64,4.93,6.24,6.5,7,1.99.97,1.6-1.95,1.5-3ZM325,451l2-1.5-1.5-1.5h-.5v3ZM345,460l2-6.5v-5.5l-2,3.5c.82,1.89-.93,3.62-1,4-.14.83-.68,4.77,1,4.5ZM373,463c.58-3.39,2.56-5.98,2-9.5l-6-5.5c.23,1.7-.34,3.94,0,5.5.07.34,1.92,2.65,2,3,.47,2.17-1.26,5.52,2,6.5ZM398.5,448c-.65,0-.65,1,0,1s.65-1,0-1ZM294,452l2-1.5-1.5-1.5h-.5v3ZM357.5,449c-.65,0-.65,1,0,1s.65-1,0-1ZM315,452l-2-2v2h2ZM383,462c2.38-.64,2.08-3.57,3-5.5l-6.5-6.5c-3.74,3.14.17,6.37,2,9,.71,1.01,1.97,1.22,1.5,3ZM399,465c-.28-2.94,3.86-3.51,3-6.5-.31-1.07-7.45-7.25-9-8.5l-2,7.5c1.47,1.53,3.05,2.96,4.5,4.5,1.08,1.14.99,1.14,1.5,2.5.37.98,1.23.45,2,.5ZM321,451h-2l1.5,2h.5v-2ZM329,453v-2l-2,1.5v.5h2ZM339,454c.29-1.9-1.1-3.29-3-3-.29,1.9,1.1,3.29,3,3ZM351.5,451c-.65,0-.65,1,0,1s.65-1,0-1ZM277.26,452.98c0-.68-.55-1.24-1.24-1.24s-1.24.55-1.24,1.24.55,1.24,1.24,1.24,1.24-.55,1.24-1.24ZM304,455c-.22-1.33-3.17-3.83-4-3v2l4,1ZM344,452h-2v2l2-2ZM438.75,451.25l-1,1,17.5,17.5,1-1-17.5-17.5ZM272,453c-5.42.71-2.02,3.94.5,6,.89.72,4.08,2.27,5,3,2.05,1.61,3.63,4.94,6.5,5-3.06-4.35-7.54-7.52-11-11.5-.76-.88-1.33-1.02-1-2.5ZM362,453h-2v4h2v-4ZM405,456c.29-1.9-1.1-3.29-3-3l3,3ZM282,476c-2.84-3.92-6.71-6.98-10-10.5-2.61-2.79-5.41-8.13-9.5-9.5l-3.5-2c-.39,1.84,1.01,2.37,2,3.5,2.94,3.34,6.66,5.88,9.5,8.5s5.19,5.52,8,8c1.12.99,1.66,2.39,3.5,2ZM320,458l-1-4h-1v4h2ZM327,457c.65-1.25-1.6-3.5-2-3-.65,1.25,1.6,3.5,2,3ZM315,457v-2h-1v2h1ZM355,455c-2.8-.33-1.56.18-2,1.5s-.65,2.86-1,4c-.2.63-1.71,1.57-1,3.5h1.5l.5,2c.77-.05,1.64.48,2-.5.9-2.44,1.32-4.28,1-7-.18-1.55-1.28-1.92-1-3.5ZM301,456l1,4.5,5.5,7.5c1.77.06,1.87-7.15,1.5-8.5-.49-1.77-2.91-1.24-3.5-1.5-.7-.32-3.73-2.78-4.5-2ZM342,456h-2v3h2v-3ZM365,456h-2v4h2v-4ZM374,469c2.45.28,7.25.2,8-2.5.84-3.03-.89-3.37-2-5-.15-.22.16-.75,0-1-.73-1.16-2.52-1.55-2-3.5-1.48.24-1.72,1.24-2,2.5-.51,2.27-1.74,4.72-2,6-.21,1.02.13,2.38,0,3.5ZM416,459v-2h-1v2h1ZM294,470c-1.4-2.13-3.58-4.33-5.5-6-.19-.16-.81.17-1,0-2.44-2.09-4.22-5.05-7.5-6-.87.91,1.67,3.37,2.5,4,2.01,1.52,5.01,3.46,7,5,1.44,1.11,2.27,3.33,4.5,3ZM332,458l-4,3.5,2.5,3.5,1.5-7ZM295,460l2.5,1,.5-.5-3-1.5v1ZM335,461v-2l-2,1.5v.5h2ZM360,461v-2h-1v2h1ZM250,460c-.39,1.84,1.01,2.38,2,3.5s2.33,2.45,3.5,3.5c8.06,7.26,16.79,14.27,25,21,1.07.88,1.92,2.16,3,3,.78.61,2.46,2.03,3.5,1.5-2.94-2.7-5.52-5.85-8.5-8.5-7.18-6.38-15.61-12.64-23-19-1.84-1.58-3.3-3.89-5.5-5ZM320,461l-3-1c-.39,1.9,1.3,2.67,2.5,4l.5-3ZM369,465c.2-.17-2.34-4.82-3-4-.37,2.4.48,4.24,3,4ZM293,462l5.5,7,3.5-.5c-2.05-1.34-3.68-2.9-5.5-4.5-1.12-.99-1.66-2.39-3.5-2ZM314,464v-2l-2,1.5v.5h2ZM340,463l-4-1-2,6.5,3.5,4.5,2.5-7.5v-2.5ZM361,472l1-10c-2.98,1.06-2.37,4.82-4,6.5l3,3.5ZM394,475l2-7.5-5-5.5c.16,1.78-.23,3.78,0,5.5.05.37.95.63,1,1,.2,1.54-.08,3.37,0,5s.84,2.86,2,1.5ZM404,462c-2.19.67-2.73,2.94-4,4.5,1.54,2.36,4.62,3.92,5,0,.21-2.13-1.09-2.65-1-4.5ZM419.5,463l-.5.5,1.5,1.5.5-.5-1.5-1.5ZM319,476l1-6.5c-1.44-1.84-1.07-5.08-4.5-5.5l-3.5,7.5c.57,1.33,2.21,1.3,2.5,1.5,1.46,1.02,2.27,3.4,4.5,3ZM299,487c.66-2.7-2.63-3.25-3.5-4-5.79-4.98-11.22-10.94-17-16l-3.5-2c8.72,9.59,16.94,19,26.5,28,.18.17.82-.17,1,0,4.12,3.87,7.91,8.1,12,12l-1.5-4.5c-3.72-4.51-10.11-8.37-12-13.5h-2ZM354,471c.48-1.92-1.18-2.34-2-3.5-.52-.74-.38-3.08-3-2.5l.5,4,4.5,2ZM369,468c-.18-.18-3.77-.06-3-3-2.77.68-1.61,2.82-2,4.5-.09.39-.91.61-1,1-.33,1.41.67,3.04-1,4l3.5,3.5c2.27-.06,2.88-2.13,3.5-3.5.2-.43.92-.64,1-1,.53-2.32-.52-2.85-1-4-.22-.54.17-1.33,0-1.5ZM390,471c.52-2.48-.79-3.95-1-6h-1v4.5l2,1.5ZM406,472c2.19-.67,2.73-2.94,4-4.5-2.17-2.09-3.9-4.85-4,0-.03,1.5.02,3.01,0,4.5ZM422,466c-.33,2.23,1.89,3.06,3,4.5,2.08,2.69,4.07,6.44,6,9,.63.84,2.39,2.8,3.5,2.5,2.83-1.89-.28-2.91-1.5-4.5-.17-.22.16-.8,0-1-2.9-3.62-7.49-7.36-11-10.5ZM328.5,467c-.65,0-.65,1,0,1s.65-1,0-1ZM343,479c.15-3.52,3.19-9.75-1-12l-2,7.5v2l3,2.5ZM329,472c.2-2.06-1.94-4.2-4-4l4,4ZM404,474c.08-1.24-4.42-6.65-5-6l2,3.5,3,2.5ZM384,469c-2.17-.38-2.03.21-2.5,2-.37,1.39-.75,2.53-.5,4,3.08.48,1.6-.82,2-2.5.34-1.46,1.18-2.05,1-3.5ZM410,469l.5,6,2.5-4.5-3-1.5ZM388,471c-2.8-.32-1.57.17-2,1.5-.65,2-1.37,3.99-2,6,.96.78,4.89,5.7,6,4.5-.05-3.38,2.6-5.1-1-7.5l-1-4.5ZM399,471l-2,.5-3,7,6,6.5c.2-3.68,4.01-5.08,3-9-2.56.39-3.72-2.65-4-5ZM300,475l-7-3c1,1.12,4.55,4.53,5.5,5,1.51.74,1.83-.78,1.5-2ZM379,474c.5-.4-1.75-2.65-3-2-.5.4,1.75,2.65,3,2ZM349,486c-.72-2.4,1.43-3.98,2-5.5.21-.57-.2-1.39,0-2,.13-.4.88-.6,1-1,.54-1.77-1.93-4.96-3.5-4.5-2.48,1.61-1.15,4.22-1.5,6.5-.06.37-.91.6-1,1-.59,2.52.65,4.49,3,5.5ZM358,475v-2h-2v2h2v2h2v-2h-2ZM416,480l1-4.5-2.5-2.5-2.5,4.5,4,2.5ZM326,481l2-4.5c-1.26-1.11-2.04-2.87-4-2.5l-2,4.5c1.26,1.11,2.04,2.87,4,2.5ZM334,474h-2c-.93.93,2.27,4.7,4,4l-2-4ZM375,487l1-7.5-4-4.5c.69,1.93-1.77,2.67-2,3.5-.28.99.5,2.18-1,3l6,5.5ZM408.5,475c-.65,0-.65,1,0,1s.65-1,0-1ZM315.26,476.98c0-.68-.55-1.24-1.24-1.24s-1.24.55-1.24,1.24.55,1.24,1.24,1.24,1.24-.55,1.24-1.24ZM313,480c-.31-1.18-1.42-1.49-1-3h-1v3h2ZM418,477l-1,4.5c.77,4.31,4.37,2.14,5-1l-4-3.5ZM311,489c-2.73.08-4.34-3.3-6.5-5-1-.79-3.94-2.22-5-3-1.45-1.07-2.25-3.35-4.5-3l16.5,17-.5-6ZM354.5,478l-4.5,9.5,4.5,4.5c2.21-1.3,1.13-2.92,1.5-4.5.09-.39.91-.61,1-1,.33-1.41-.67-3.04,1-4l-3.5-4.5ZM363,483l2-2.5c-1.33-1.2-2.1-2.89-4-2.5-.47,2.33,2.47,2.67,2,5ZM322,526c-1.18,1.12-4.54-3.21-5.5-4-12.76-10.46-25.08-22.27-38-33-1.29-1.07-4.7-2.93-6-4-2.35-1.93-4.3-5.65-7.5-6,3.84,4.94,8.72,8.96,13,13.5,26.29,27.87,53.84,56.81,84.5,77.5l3.5.5c-3.27-3.86-6.57-7.15-10-11-4.95-5.56-10.88-12.63-16-18-6.66-6.99-13.79-13.55-20.5-20.5l2.5,5ZM306,483c.93-.93-2.27-4.7-4-4l2,4h2ZM318,484c-.11-1.86,1.54-2.83,1-5l-3,2.5,2,2.5ZM333,480l-2.5-1-2.5,3.5,4.5,4.5c2.98-2.19.84-4.54.5-7ZM381,480h-2v1.5l1.5,1.5h.5v-3ZM341,484c.29-1.9-1.1-3.29-3-3-.29,1.9,1.1,3.29,3,3ZM407,481l-3,2.5-1,6.5,3-3.5,1-5.5ZM325,483l-2.5-1c-2.19,1.26-1.12,2.86-1.5,4.5-.09.38-.88.59-1,1-.47,1.56,1.12,3.8,2.5,4.5,2.34,1.19,1.32-3.44,1.5-4.5.06-.38.92-.61,1-1,.21-1.02-.13-2.38,0-3.5ZM394,491c2.7.44,2.63-2.04,4-3.5l-6-5.5c.26,1.65-.39,4.07,0,5.5.22.82,2.69,1.57,2,3.5ZM311.25,482.75l-1,1,4.5,4.5,1-1-4.5-4.5ZM385,483l-3,2.5,2,3.5c1.08.32,2.76-.66,3-1.5.46-1.63-2.66-2.42-2-4.5ZM408,495c-.68-2.39,3.65-4.22,4-5.5.66-2.39-1.44-4.14-1-6.5-2.43.69-2.12,3.74-3,5.5l-2,6,2,.5ZM443,491c.49-1.93-1.21-2.34-2-3.5-.16-.24.15-.79,0-1-.87-1.19-2.65-2.82-4-3.5l2,5.5,4,2.5ZM362,484l-3,2.5-1,5.5,3-2.5,1-5.5ZM427,497c2.38-.64,2.08-3.57,3-5.5-.86-1.06-5.34-9.33-7-7.5.41,2.43-1.66,4.12-1,6.5.4,1.46,5.58,3.85,5,6.5ZM338,485l-3,3.5,3.5,2.5c3.51-2.57-.69-3.17-.5-6ZM373,491c1.35-2.07-3.88-7.12-5-6l2,3.5,3,2.5ZM379,485h-2l-1,4h3v-4ZM458,486c-.15,2.59,2.67,3.75,4,5.5.86,1.13,2.43,3.63,3,5l12.5,13.5c3.84-3.18-.48-5.05-2.5-7.5-3.03-3.69-5.17-5.43-8.5-8.5-2.84-2.63-5.26-5.82-8.5-8ZM327,487c-.16,1.43.25,3.16,0,4.5-.07.37-.88.59-1,1-1.16,3.81,2.65,3.07,4.5,3.5,1.15.27,2.22.66,4,1,.81.16,1.54,2.38,3.5-.5l-1.5-4.5c-3.32-1.06-5.02-5.66-9.5-5ZM361,501c4.09.08,2.56-3.09,3-5.5.07-.38.95-.63,1-1,.26-2.04-.18-4.4,0-6.5-.98.31-2.5,1.7-3,2.5-.29.47-.7,2.45-1,3-.37.69-1.85,1.48-2,2-.75,2.62,2.29,2.96,2,5.5ZM383,489h-2c-.27,2.75-.1,5.21,3,5,.54-2.17-1.11-3.14-1-5ZM388,494l2-1.5-1-3.5-2,2.5,1,2.5ZM365,504c2.32.37,2.34-.92,3-2.5.54-1.28.67-3.14,1-4,.24-.62,1.47-2.29,2-3l-2.5-3.5-2.5,5.5-1,7.5ZM377,496c.08-2.14.41-3.73-1.5-5l-1.5,1.5v1l3,2.5ZM400,491c-1.9-.29-3.29,1.1-3,3,1.9.29,3.29-1.1,3-3ZM418,493l-1.5-2h-1.5v2h3ZM393,492h-2v5l2-1.5v-3.5ZM452,501c.43-.43-6.24-8.65-8-9-.92,3.96,1.42,2.36,3,4.5.17.23-.15.81,0,1,.66.84,4.02,4.47,5,3.5ZM452.5,492c-.65,0-.65,1,0,1s.65-1,0-1ZM322,504c.9-.96-3.34-5.55-4-6.5-.17-.24.15-.8,0-1-.9-1.19-2.31-2.78-4-2.5-.26.25,1.61,2.81,2,3.5.58,1.04,1.39,3.04,2,4,.87,1.38,2.68,1.73,4,2.5ZM389,499l-2.5-5-1.5,3h2l2,2ZM401,497c.4.5,2.65-1.75,2-3-.4-.5-2.65,1.75-2,3ZM408,497c1.9.29,3.29-1.1,3-3l-3,3ZM426,500c1.15-1.15-4.7-6.36-5-6-.55,1.83,3.61,7.39,5,6ZM381,499v-4h-.5l-1.5,1.5v1l2,1.5ZM433,501l-1.5-6-1.5,4.5,3,1.5ZM454.5,495c-.65,0-.65,1,0,1s.65-1,0-1ZM373,512l3-9.5v-4l-2.5-2.5c-.49.78-2.34,1.93-2.5,2.5-.6,2.1-1.45,4.08-2,6-.35,1.23.72,2.97-1,4l2.5-.5c2.31,1.84.96,1.38.5,2.5-.66,1.64.74,1.77,2,1.5ZM418,496l-5,1c-.28,2.62-.13,5.76,2.5,7,1.99.94,1.35-2.21,2.5-2.5-.13-.65.17-1.4,0-2-.12-.41-.99-.66-1-1,0-.17,1.55-1.02,1-2.5ZM342,500v-3h-.5l-1.5,1.5v1.5h2ZM397,497h-3c-.27,2.75-.1,5.21,3,5v-5ZM421,497h-2l1,3.5-1,7.5,5-4.5-3-6.5ZM352,505l1-3.5c-1.06-.99-5.85-4.67-7-3.5v5c1.36-.53,5.19,2.81,6,2ZM408.49,500.97c0-1.48-1.2-2.68-2.68-2.68s-2.68,1.2-2.68,2.68,1.2,2.68,2.68,2.68,2.68-1.2,2.68-2.68ZM337,503c-1.25-2.17-3.18-4.58-6-4l2.5,3,3.5,1ZM387,504c.51-2.61-1.42-5.08-4-5-.51,2.61,1.42,5.08,4,5ZM379,504v-3h-.5l-1.5,1.5,2,1.5ZM470,513c.21-3.49-4.69-7.53-7.5-10-1.13-.99-1.66-2.39-3.5-2,3.09,5.53,8.18,9.42,12.5,14l.5-2h-2ZM341,507l1-3.5-2.5-1.5c-2.7,1.97-1.76,5.12,1.5,5ZM432,508l-3.5-6c-2.11,1.78-1.44,1.38,0,3,.47.52,3.15,3.4,3.5,3ZM436,502h-2c.31,1.18,1.42,1.49,1,3h1v-3ZM455,505l1-2.5-.5-.5-2.5,3h2ZM350,506l-4.5-2-2.5,3.5v2l5.5,5.5,1.5-9ZM404,509c.51-2.5-.79-3.43-2.5-5l-1.5,1.5c-.42,1.53,3.18,4.32,4,3.5ZM415,516c-.56-2.99,1.79-5.62,1-8.5-.17-.63-4.17-4.4-5-3.5l-1,5.5,5,6.5ZM444,504h-2v1h2v-1ZM339,509h-1.5l-4.5-3.5,5.5,6.5.5-3ZM361,507l-5-2,3.5,4,1.5-2ZM382,505l-1.5,3-2-1c-.49.77-2.35,1.94-2.5,2.5-.48,1.75.64,3.5-2,5,1.99,1.81,3.85,5.4,6,2,.89-1.41,2.02-3.33,3-5,.41-.7.5-2.24,2-3l-3-3.5ZM393,509c.37-2.4-.48-4.24-3-4-.37,2.4.48,4.24,3,4ZM430,518c-.4-2.21.38-3.19,2-4.5l-5.5-7.5-3.5,6.5c1.14.88,5.81,6.75,7,5.5ZM446.4,505.16l-2.06,1.24,2.56,4.26,2.06-1.24-2.56-4.26ZM332,517c-1.82-2.77-3.79-6-6.5-8-.2-.15-.76.16-1,0-1.16-.8-1.57-2.49-3.5-2,1.43,3.28,5.05,3.93,7,6.5.05.06-.16.6.5,1.5.82,1.12,1.95,2.3,3.5,2ZM319,510v-2h-1v2h1ZM341,510v-2h-1v2h1ZM442,508h-2l1.5,2h.5v-2ZM360,511l-6-2-1,7h-3c.69,1.43,2.28,3.01,3.5,4,.19.16.78-.17,1,0,.97.75,2.19,2.62,3,3,1.99.94,1.35-2.21,2.5-2.5v-9.5ZM460,512l-3-3c-.29,1.9,1.1,3.29,3,3ZM332.26,510.98c0-.68-.55-1.24-1.24-1.24s-1.24.55-1.24,1.24.55,1.24,1.24,1.24,1.24-.55,1.24-1.24ZM396,512v-2h-1v2h1ZM438.5,510c-.65,0-.65,1,0,1s.65-1,0-1ZM449,514l3-2.5-1.5-1.5-1.5,1.5v2.5ZM487,520c.48-1.92-1.18-2.34-2-3.5-.16-.22.16-.78,0-1-1.27-1.8-3.38-3.43-4.5-5.5-.87.22-.66,2.92-.5,3.5.24.88,5.89,6.6,7,8s2.92,4.73,4,6c1.36,1.6,3.1,2.93,4.5,4.5l-1.5-5.5c-1.09-.87-4.95-10.75-6-9.5l-1,3ZM388,515c2.01-.53,2.24-2.12,2-4-2.01.53-2.24,2.12-2,4ZM401,512l-3-1v5l3-2.5v-1.5ZM420,512l-3,3.5.5,3.5,2.5-7ZM353,522c.38-.35-2.94-3.53-3.5-4-.2-.17-.81.16-1,0-2.28-1.95-4.01-5.57-7.5-5l3.5,4c1.05.33,3.18,1.43,4,2,1.46,1,2.22,3.39,4.5,3ZM410,513h-2v1h2v-1ZM439,513c-2.44-.39-2.16.29-2,2.5l4,3.5-2-6ZM460.75,512.25l-1,1,5.5,5.5,1-1-5.5-5.5ZM334.81,513.51l-1.47.88,2.56,4.26,1.47-.88-2.56-4.26ZM369,516l-4-2c-.49,2.78.78,4.68,2,7l-4-1c-.5,2.16-2.4,6.7.5,8,2.01.9,1.24-1.94,2.5-2.5.92-3.41,3.71-5.86,3-9.5ZM386,514l-3,2.5-1,3.5,4-1v-5ZM394,515c-3.12-.36-3.15,2.94-4,4.5-.75,1.37-2.83,1.76-2,4.5l2.5,1,1.5-1.5,2-8.5ZM402.5,516l-1.5,1.5,2.5,1.5,1.5-1.5-2.5-1.5ZM411,520c.83-.83-1.67-3.78-3-4l1,4h2ZM424,516c-2.4-.63-4.5,3.81-4,5.5.41,1.38,3.49,2.5,4.5,3.5,1.35-1.37,3.1-2.39,2.5-4.5-.31-1.09-3.72-2.34-3-4.5ZM459,529v-6.5c-1.75-1.97-1.11-6.65-5-6.5.84,2.27-1.49,4.82-1,6.5.23.78,2.56,1.61,2,3l4,3.5ZM396,522l1-5c-1.61.08-3.49,4.51-3,5h2ZM334.5,519c-.65,0-.65,1,0,1s.65-1,0-1ZM362,543c.39-1.84-1.01-2.38-2-3.5-5.2-5.9-9.28-11.38-14-17-1.03-1.23-2.55-2.81-4-3.5.13,3.99,3.87,5.81,6,8.5,2.54,3.21,5.67,7.62,8,11l6,4.5ZM437,519l-3,2.5c-.13,1.6-.22,3.73,1.5,4.5,2.01.9,1.24-1.94,2.5-2.5l-1-4.5ZM401,531c.15-1.11-.23-2.52,0-3.5.09-.38.88-.6,1-1,.28-.97-.5-2.18,1-3l-3.5-3.5-4.5,7.5,6,3.5ZM408,520h-2c-.37,2.4.48,4.24,3,4l-1-4ZM469,525l-1-5-1,3,2,2ZM481,524c.29-1.9-1.1-3.29-3-3l3,3ZM373,522c-4.01-.56-2.4.51-3,1.5-.43.71-1.62,1.31-2,2-.63,1.12-.77,3.19-2,4l3.5,3.5,2.5-3.5,1-7.5ZM416,524c.5-.4-1.75-2.65-3-2-.5.4,1.75,2.65,3,2ZM462,522h-2l1.5,2h.5v-2ZM474,522l2,5.5,6.5,6.5,3.5-2.5c-2.72-2.98-5.57-4.91-8.5-7.5-1.13-.99-1.66-2.39-3.5-2ZM342,523l-2,2c3.33-.34,2.98,4.19,6,5l-4-7ZM430,529c.21-2.05,1.52-3.52,1-6-3.02,1.33-4.6,4.56-1,6ZM418,524l-1,3.5,4.5,3.5c3.59-2.43-1.45-5.47-3.5-7ZM357,528l-6-3,3.5,5,2.5-2ZM380,525l-6,5.5-1,5.5c3.36.66,4.29-1.82,5-4.5l-1-2,3-4.5ZM405,529l1-4c-1.33.22-3.83,3.17-3,4h2ZM390,531c.61-3.28-1.38-3.83-4-5-.91,1.06,2.56,4.5,4,5ZM412,526h-2v1h2v-1ZM440,529v-3h-.5l-1.5,1.5v1.5h2ZM463,526l-1,3.5c.32,4.75,5.62,1.04,5-1-.22-.73-3.28-3.29-4-2.5ZM473,526h-2l3.5,4,.5-.5-2-3.5ZM410,529c-.94-.95-7.56,4.06-3.5,6l3.5-6ZM434,531v-2l-2,1.5v.5h2ZM359,530c-.08,2.14-.41,3.73,1.5,5l1.5-1.5v-1l-3-2.5ZM388,532l-5-2c-.27,3.73-5.32,4.32-4,9l5,2,4-9ZM425,530l-1,4.5,3.5,3.5c3.11-2.63,1.65-7.83-2.5-8ZM455,535c.51-2.5-.79-3.43-2.5-5l-.5.5c1.63,1.28.34,3.91,3,4.5ZM392,531c-1.03.9,2.72,4.38,3.5,5,1.28,1.02,2.13.88,2.5-.5.55-3.37-3.29-4.61-6-4.5ZM437,532h-2v3c1.51-.42,1.82.69,3,1l-1-4ZM462,532h-2c.31,1.18,1.42,1.49,1,3h1v-3ZM475,537c.51-2.61-1.42-5.08-4-5-.25.21,2.44,4.99,4,5ZM419.26,533.98c0-.68-.55-1.24-1.24-1.24s-1.24.55-1.24,1.24.55,1.24,1.24,1.24,1.24-.55,1.24-1.24ZM488,533c-2.8-.32-1.57.17-2,1.5-.46,1.42-.91,3.03-2,4l2.5,2.5,3.5-3.5-2-4.5ZM416,534c-2.8-.33-1.56.18-2,1.5s-1.11,2.2-1,3.5l4,1,.5-3-1.5-3ZM451,539v-1.5l-3-3.5,1,4.5-2,2c2.23,1.55-.63,3,0,5.5l3-2.5-1-4.5h2ZM368,537c-2.26.53-2.57-2.4-5-2l3.5,6,1.5-2.5v-1.5ZM390,535l-4,7.5c1.57,1.31,3.07,4.22,5.5,3.5l3.5-5.5-5-5.5ZM412,535h-2v2l2-2ZM406,537l-4-1v5c1.77.7,4.92-3.11,4-4ZM467,536l-2,6.5,3.5,5.5c4.08-4.93,5.6-9.6-1.5-12ZM435,537l-4,3.5,3.5,4.5,2.5-4.5-2-3.5ZM444,537h-2v3l2-1.5v-1.5ZM409,545l-.5-6-3.5,5,4,1ZM423,542c.29-1.9-1.1-3.29-3-3-.29,1.9,1.1,3.29,3,3ZM368,544h2.5l1.5-1.5-1.5-2.5c-1.2,1.33-2.89,2.1-2.5,4ZM479,544c.24-1.88,0-3.47-2-4v4h2ZM492,541h-2c.11,1.86-1.54,2.83-1,5h3v-5ZM377.5,542l-.5.5,2.5,3.5,2.5-1.5-4.5-2.5ZM414,542l-4,6,2-3h2v-3ZM456,545v-1.5l-2-1.5v3h2ZM485,548c.44-2.82-.31-4.87-3-6-.33,1.72.5,2.97,1,4.5.43,1.33-.79,1.82,2,1.5ZM499,546c.65-1.25-1.6-3.5-2-3-.65,1.25,1.6,3.5,2,3ZM426,544l-6,.5,5,4.5,1-5ZM439,551c4.2.07,2.86-4.22,3-7-3.26,1.36-3.27,3.8-3,7ZM379,551c1.14-1.06-4.95-7.14-6-6v4c2.45-.27,2.94,2.82,6,2ZM399,545c-2.41-.32-2.98,1.86-4,3.5-.95,1.53-1.51,2.78.5,3.5,2.24.8,4.19-5.28,3.5-7ZM421,556l1-4.5c-1.27-.84-1.46-3.15-2-4-.95-1.49-2.49-1.3-3.5-2.5l-3.5,6,8,5ZM473,554c-.69-1.93,1.78-2.68,2-3.5.29-1.06-.19-2.77,0-4l-3-1.5-2,3.5v3l3,2.5ZM360,546c1.4,2.02,3.6,4.49,5.5,6,1.28,1.02,2.13.88,2.5-.5.43-1.59-.31-2.57-1.5-3.5l-6.5-2ZM482,552l-1.5-6c-1.94,1.47-1.6,1.9-1,4,.51,1.78.29,2.38,2.5,2ZM494,546l-2.65.59,1.74,7.84,2.65-.59-1.74-7.84ZM386,547l-2,2.5,5,3.5-3-6ZM406,550c.65-1.25-1.6-3.5-2-3-.65,1.25,1.6,3.5,2,3ZM429,547l-3,2.5v1.5c1.98-.52,2.34,1.52,4,2l-1-6ZM433.26,548.98c0-.68-.55-1.24-1.24-1.24s-1.24.55-1.24,1.24.55,1.24,1.24,1.24,1.24-.55,1.24-1.24ZM447,551c.65-1.25-1.6-3.5-2-3-.65,1.25,1.6,3.5,2,3ZM458,548h-2c-.23,1.86-.04,2.9,1.5,4h.5v-4ZM488,548h-2l-1,4c1.5.32,2.06-.44,3-1.5v-2.5ZM362,560l-7.5-9-3.5-2,7.5,9,3.5,2ZM404,558l1-4.5c-1.34-1.34-1.21-3.9-4-3.5l-1,4.5,1,2.5,3,1ZM434,551h-2l1.5,2h.5v-2ZM389,558c-1.9-2.43-4.43-6.47-8-6l4.5,4,3.5,2ZM463,552h-2v1h2v-1ZM377,562c.13-2.47-2.57-3.83-4-5.5-.15-.17.18-.77,0-1-.62-.82-3.13-3.39-4-2.5-.39,1.84,1.01,2.37,2,3.5,1.69,1.92,3.86,4.1,6,5.5ZM414,554l-4-1c-.46,3.38,1.06,5.96,3.5,8h5.5c1.02-.93-3.39-5.8-5-5v-2ZM426,553h-3v1.5l1.5,1.5,1.5-1.5v-1.5ZM444.5,553c-.65,0-.65,1,0,1s.65-1,0-1ZM477,554l-3,3.5v1l2.5,3.5.5-8ZM482,561c2.41-.49,1.62-2.29,2-3.5.41-1.33,2.2-1.56-.5-3.5l-1.5,7ZM501.5,554c-.65,0-.65,1,0,1s.65-1,0-1ZM394,558v-1.5l-1.5-1.5-1.5,1.5,1.5,1.5h1.5ZM434,555h-2v1h2v-1ZM439,555c-2.81-.23-3.34,1.9-3,4.5l1.5,1.5c2.17-1.43,1.44-3.6,1.5-6ZM463,555h-2v3h2v-3ZM491,555c-4.01.12-4.24,5.17-4,8l3.5-3,.5-5ZM429,556l-.5,7c2.53-1.75,4.2-5.35.5-7ZM451,556h-2l-1,4c1.33-.22,3.83-3.17,3-4ZM453,563l1-7c-2.18.78-2.96,3.59-3,5.5s.07,1.56,2,1.5ZM502,559v-3h-1v3h1ZM386,560c-2.81.24-4.35-2.96-7-3-1.24,1.24,4.68,5.89,5.5,7l1.5-4ZM497,557c-2.02-.59-2.68.69-2,2.5s2.74,6.55,3,8c.3,1.71-.09,4.1,0,6,.08,1.62.84,2.86,2,1.5l1-5.5-4-12.5ZM470,558h-2v3l2-1.5v-1.5ZM513,579c2.13-.56,1.86-1.8,2-3.5.42-5.14-.81-8.26-2-13l-3-4.5c-.11,4.86,2.64,8.73,2,13.5,1.88,1.69.7,4.96,1,7.5ZM393,561c.5-.4-1.75-2.65-3-2-.5.4,1.75,2.65,3,2ZM397,559c-1.22-.33-2.74-.01-2,1.5.56,1.13,3.71,3.68,5,4.5l-3-6ZM408.26,559.98c0-.68-.55-1.24-1.24-1.24s-1.24.55-1.24,1.24.55,1.24,1.24,1.24,1.24-.55,1.24-1.24ZM442,560l-1,2.5.5.5,1.5-3h-1ZM456.5,560l-2.5,4.5,2.5,1.5,1.5-1.5v-3l-1.5-1.5ZM437,565c.29-1.9-1.1-3.29-3-3-.29,1.9,1.1,3.29,3,3ZM447,562c-2.63-.46-1.63.48-2.5,2s-2.53,1,0,3l2.5-5ZM415,568c-.99-2.09-2.1-5.14-5-5-1.07,1.05,3.84,6.06,5,5ZM417.26,563.98c0-.68-.55-1.24-1.24-1.24s-1.24.55-1.24,1.24.55,1.24,1.24,1.24,1.24-.55,1.24-1.24ZM424,573l2-4.5c-1.5-.82-.72-2.02-1-3-.21-.74-3.72-2.72-4.5-2.5-1.43,1.44-2.99,2.28-2.5,4.5l6,5.5ZM472,563h-2l1,5h2l-1-5ZM480,566v-3h-1v3h1ZM486,563h-2v1.5l1.5,1.5h.5v-3ZM492,573c1.96.37,2.74-1.39,4-2.5l-2-7.5-3,4.5,1,5.5ZM446,570c3.05.24,4.14-3.69,4-6-1.71.26-1.8,1.89-2.5,3-.62.99-2,1.19-1.5,3ZM391,565l-6,.5c3.91,4.25,7.75,9.69,12.5,13.5.2.16.78-.17,1,0,1.44,1.11,2.27,3.33,4.5,3-.62-2.24-6.62-6.1-7-7.5-.3-1.09.3-2.91,0-4-.36-1.32-3.46-3.14-5-2.5v-3ZM459,570c2.01-.53,2.24-2.12,2-4-2.01.53-2.24,2.12-2,4ZM488.5,566c-.65,0-.65,1,0,1s.65-1,0-1ZM450,573l4-1.5-.5-4.5-3.5,6ZM436,568h-2v1h2v-1ZM387,580c-.19-.19-1.03.26-1.5,0l-10.5-9.5-3-1c7.71,7.13,14.72,15.5,22.5,22.5,2.42,2.18,6.39,4.98,9,7,1.44,1.11,2.27,3.33,4.5,3l-19.5-19c-1.85-1.18-1.37-2.87-1.5-3ZM420,573l-4-4c-.2,2.06,1.94,4.2,4,4ZM482,571l-2-2v2h2ZM464,573v-3h-.5l-1.5,1.5v1.5h2ZM469,570l-2,.5,1,4.5c1.17.28,2.58-.53,3-1.5,1.04-2.37-3.19-.46-2-3.5ZM433,573c.5-.4-1.75-2.65-3-2-.5.4,1.75,2.65,3,2ZM443,571h-3v2h1.5l1.5-2ZM408,582l1-3.5c-.55-.42-.97-1.16-1.5-1.5-.44-.28-2.58-.73-3-1-1.87-1.23-3.44-4.25-6.5-4-.69.61,5.34,7.34,6.5,8,.46.26,1.26-.18,1.5,0l2,2ZM446,572h-2l-1,4h2l1-4ZM459,577c.08-2.14.41-3.73-1.5-5-1.2,1.33-2.89,2.1-2.5,4l4,1ZM490,572h-2l1,5h2l-1-5ZM508,593.5v-19c0-.21-1.55-.99-1-2.5-3.94-.4-1.15,1.75-1,2.5.95,4.79,1.04,12.77.5,17.5l-.5,5,2-3.5ZM427.5,573c-3.58,1.02.71,5.08,2,6,1.32-1.22,1.75-1.14,1-3-.48-1.18-1.39-3.46-3-3ZM497,573h-2v3h1c-.42-1.51.69-1.82,1-3ZM479.26,574.98c0-.68-.55-1.24-1.24-1.24s-1.24.55-1.24,1.24.55,1.24,1.24,1.24,1.24-.55,1.24-1.24ZM421,575h-2v1h2v-1ZM462.26,575.98c0-.68-.55-1.24-1.24-1.24s-1.24.55-1.24,1.24.55,1.24,1.24,1.24,1.24-.55,1.24-1.24ZM467,575h-2c-.29,1.9,1.1,3.29,3,3l-1-3ZM502,576h-2v7h2v-7ZM487,580c.65-1.25-1.6-3.5-2-3-.65,1.25,1.6,3.5,2,3ZM495,577l-3,2.5-1,2,1,3.5,3-1.5v-6.5ZM424.5,578c-.65,0-.65,1,0,1s.65-1,0-1ZM439.26,578.98c0-.68-.55-1.24-1.24-1.24s-1.24.55-1.24,1.24.55,1.24,1.24,1.24,1.24-.55,1.24-1.24ZM444,578c-.92.18-2.61-.58-3,.5-.54,1.5-1.3,2.81-1,4.5h3l1-5ZM448,587l3-9c-.32-.38-2.59,1.98-3,2.5-.16.2.16.79,0,1-1.77,2.27-5.81,4.29,0,5.5ZM458,579l-3.5-1-2.5,4.5-2,6.5,3.5-1c1.59-.62,1.37-2.87,1.5-3s2.38.09,3-1.5v-4.5ZM464.5,578c-.65,0-.65,1,0,1s.65-1,0-1ZM481,578c-1.9-.29-3.29,1.1-3,3h2l1-3ZM417.5,579c-.65,0-.65,1,0,1s.65-1,0-1ZM415,587c.38-.41-2.28-7.91-5-7-.72,3.28,1.62,6.64,5,7ZM435,583v-1.5l-2-1.5v3h2ZM466,582l-4-1-2,7c.31.37,6.92-3.71,6-6ZM475,583l-2-2v2h2ZM402,585h1.5c2.66,2.1,5.41,4.98,8,7,1.95,1.53,1.94,1.24,3.5-.5l-12.5-8.5-.5,2ZM473,586c-.31-1.18-1.42-1.49-1-3h-1v3h2ZM477,584h-2l-1,3c1.9.29,3.29-1.1,3-3ZM484.5,584c-.65,0-.65,1,0,1s.65-1,0-1ZM510,590l2-1.5v-4.5l-2,1.5v4.5ZM483,601c.3.36,2.55-1.89,3-2.5.37-.5,1.58-2.29,2-3,.71-1.18,1.44-3.58,2-5,.17-.42.89-.62,1-1l-1-4.5-4,6.5-3,9.5ZM496,588v-3h-.5l-1.5,1.5v1.5h2ZM429,588c-2.26.53-2.57-2.4-5-2l5.5,6-.5-4ZM469,589v-2h-1v2h1ZM482,587l-3,2.5-1,5.5,3.5-3,.5-5ZM446,591c.29-1.9-1.1-3.29-3-3-.29,1.9,1.1,3.29,3,3ZM472,595l2-7c-2.18.89-3.7,3.52-4,5.5s.41,1.59,2,1.5ZM460,590l-3.5-1-1.5,4,2-2,3,1v-2ZM422,592c.5-.4-1.75-2.65-3-2-.5.4,1.75,2.65,3,2ZM436,594c.4-.34-3.89-5.07-5-4l2,5,3-1ZM498,603c3.42-1.23,2.48-3.26,3-5.5.09-.4.95-.63,1-1,.29-2-.2-4.42,0-6.5l-3,4.5-1,8.5ZM450.26,591.98c0-.68-.55-1.24-1.24-1.24s-1.24.55-1.24,1.24.55,1.24,1.24,1.24,1.24-.55,1.24-1.24ZM427,597c-2.17.59-9.52-7.15-11-2.5-.64,2.02,3.78,2.88,4.5,4.5,2.36-.78,2.82,1.44,4,2,1.99.94,1.35-2.21,2.5-2.5v-1.5ZM463.26,593.98c0-.68-.55-1.24-1.24-1.24s-1.24.55-1.24,1.24.55,1.24,1.24,1.24,1.24-.55,1.24-1.24ZM443,596l-2-2v2h2ZM456.26,594.98c0-.68-.55-1.24-1.24-1.24s-1.24.55-1.24,1.24.55,1.24,1.24,1.24,1.24-.55,1.24-1.24ZM463,596c-2.5-.51-3.43.79-5,2.5l1.5,1.5c1.53.42,4.32-3.18,3.5-4ZM511,598v-2h-1v2h1ZM454,597h-2v1h2v-1ZM469,599v-2h-1v2h1ZM441,599h-2v1h2v-1ZM452,602c-2.93.05-5.36-5.17-8-1.5l4.5,5.5,3.5-4ZM477,599l-3,.5c.94,3.16-1.91,3.76-2,6.5l3-2.5c-.61-2.29,1.28-2.72,2-4.5ZM490,599c-2.55-.39-2.98,2.01-4,4,2.55.39,2.98-2.01,4-4ZM468,600h-2v2l2-2ZM430,608l-12-7,8.5,9c1.7.63,3.43,2.03,5,3,.7.43,3.29,2.25,3.5,2,.57-3.01-1.99-5.57-5-5v-2ZM427,601c-.27,2.34,2.26,3.43,3.5,5l2.5-2.5-6-2.5ZM476,607c3.05.24,4.14-3.69,4-6-1.69.13-4.71,5.16-4,6ZM455,605h2.5l1.5-1.5-1.5-1.5h-2.5v3ZM495.5,603l-1.5,1.5.5.5,1.5-1.5-.5-.5ZM487,604c-.8-.85-3.47,1.66-4,2.5-.15.24.15.77,0,1-.61.95-3.71,4.83-3,5.5l4-1.5,3-7.5ZM495,611c1.7,1.78,5.61-6.27,5-7-2.92,1.23-3.54,4.43-5,7ZM420,607l-4-1.5,10,9.5c.42-3.48-5.02-4.76-6-6.5-.26-.47.19-1.3,0-1.5ZM447,611l-6-6c.15,2.5,3.48,5.83,6,6ZM488,612l2.5-7c-1.76,1.63-3.43,3.34-4.5,5.5-.75,1.51.78,1.84,2,1.5ZM436,606h-3v2h3v-2ZM437.5,606c-.65,0-.65,1,0,1s.65-1,0-1ZM456,606h-3v2h3v-2ZM467,609l-1.5-2c-1.06.94-1.82,1.5-1.5,3,1.18-.31,1.49-1.42,3-1ZM441,612c.31-1.76-1.36-3.29-3-4-.31,1.76,1.36,3.29,3,4ZM477,610v-2l-2,1.5v.5h2ZM486,620l7-6.5,1-5.5-6,6.5,1,2-3,3.5ZM461.26,611.98c0-.68-.55-1.24-1.24-1.24s-1.24.55-1.24,1.24.55,1.24,1.24,1.24,1.24-.55,1.24-1.24ZM463.5,611c-.65,0-.65,1,0,1s.65-1,0-1ZM475,612h-3v1.5l1.5,1.5,1.5-1.5v-1.5ZM443.5,613c-.65,0-.65,1,0,1s.65-1,0-1ZM453.26,613.98c0-.68-.55-1.24-1.24-1.24s-1.24.55-1.24,1.24.55,1.24,1.24,1.24,1.24-.55,1.24-1.24ZM463.5,613c-1.13,1.15-2.36,1.07-3.5,2.5-1.02,1.28-.88,2.13.5,2.5,1.59.43,2.57-.31,3.5-1.5l-.5-3.5ZM441,617c.29-1.9-1.1-3.29-3-3-.29,1.9,1.1,3.29,3,3ZM500,623l2-3.5,2-5.5c-2.86,1.85-3.63,5.99-6,8.5l2,.5ZM486.26,615.98c0-.68-.55-1.24-1.24-1.24s-1.24.55-1.24,1.24.55,1.24,1.24,1.24,1.24-.55,1.24-1.24ZM449,621c.13-1.47.23-4.53-1.5-5-1.92-.53-2.73,1.27-4.5,1-1.02,2.48,5.12,4.87,6,4ZM464,625l3.5,1,1.5-1.5,3-7.5c-1.47,1.03-5.33,2.01-6,3.5-1.05,2.32,2.46.69,2,2.5l-4-1v3ZM473,626l4.5-1,5.5-6.5-4.5-1.5c-.95,1.44-2.66,3.19-3.5,4.5-.15.24.15.76,0,1-.74,1.16-2.52,1.55-2,3.5ZM460,625l1-3.5-3.5-2.5c-2.2,1.19-3.78,3.52-6.5,3l2.5,3h6.5ZM435,623v-2h-1v2h1ZM497,622l-4,3.5-1.5,3.5c.86-1.19,6.68-5.65,5.5-7ZM445,625l-4-1v2c1.71-.31,2.62.21,4,1v-2ZM458,629l-1.5-2h-1.5v2h3ZM440,628c1.98,3.92,7.33,4.38,10.5,7l4.5-.5-4.5-2.5-10.5-4ZM475,628h-3v2h1.5l1.5-2ZM464.5,629c-.65,0-.65,1,0,1s.65-1,0-1ZM487,631l-.5-2c-2.04,2.22-7.48,2.11-7.5,6,3.17-.22,5.15-3.99,8-4ZM466,635l-7.5-1-1.5,3c1.75-.78,3.18.95,3.5,1,2.68.39,9.23.32,12,0,1.55-.18,1.92-1.28,3.5-1l-2.5-3-5,1-2.5,2v-2Z"/>
  <path d="M402,216c-.18-1.14.96-.94,1-1-.06.03.16,1.18-1,1Z"/>
  <path d="M403,215c1.11-1.42,1.29-1.98,3-3-.3,1.11.13,2.06-1.5,3-.43.25-1.15-.16-1.5,0Z"/>
  <path d="M227,353c-1.13.18-.94-.94-1-1,.06.06,1.18-.13,1,1Z"/>
  <path d="M226,352c-.09-.09-.4.28-1-1,1.34.28.94.94,1,1Z"/>
  <path d="M305,200l1-1c-.65,1.19-.87.87-1,1Z"/>
  <path d="M304,201c.13-.18-.15-1.17,1-1-.07.07.32.82-1,1Z"/>
  <path d="M345,298c.18-.57-.02-1.13,1-1l-1,1Z"/>
  <path d="M362,164l1-1c-.15.24.15,1.17-1,1Z"/>
  <polygon points="418 153 418 152 419 152 418 153"/>
</svg>