<?xml version="1.0" encoding="UTF-8"?>
<svg id="Capa_1" data-name="Capa 1" xmlns="http://www.w3.org/2000/svg" viewBox="0 0 694 694">
  <path d="M172,108l-10.5,3c-2.11-.88-4.36.89-5,1-2.07.35-4.67-.85-6,1l-6.5,1c3.8-.17,7.69.24,11.5,0,22.16-1.38,46.1-5.97,68,0,.44.12,2.62,1.92,3,2,7.16,1.55,25.22.58,33,0,9.9-.74,37.85-3.05,47-1,13.71,3.07,30.56-.93,45-2,40.41-3,83.54-2.75,124,0,6.88.47,15.19,2.54,22,3,32.56,2.19,61.74-4.03,94,0,1.89.24,4.05-.16,6,0l6-5,.5,4.5,3.5,1.5c1.68-1.42,6.55-1.36,9-1,.29.04,1.69,1.76,3.5,1l1-2.5,2,1-4,8,1,3.5h-2l-4,10,4-5.5,1-3.5,1.5,1c1.06-.91,1.91-2.13,3-3,1.59-1.26,1.03-.97,2.5.5-1.4.82-1.48,1.88-2,3-5.7,12.17-16.05,21.46-21,34-3.59,9.09-6.44,18.05-10,27-.62,1.57-2.69,3.09-2,5.5h-3c-.58-3.54,1.45-6.01,1-9.5,1.24-1.05,1.14-2.85,1.5-4.5.2-.91,1.64-3.05-.5-3l-1,4.5-12,25c-23.29,40.66-47.02,81.8-71,122-1.15,1.93-4.13,4.16-4,6.5h-1.5l.5-2h-2c.63,1.97-.64,2.64-1,3.5-7.53,17.83-17.94,35.25-27,52-2.42,4.48-5.17,11.75-8,16-.39.58-3.03,3.26-3.5,3.5-2.77,1.41-1.2-4.77,1-6,2.77-1.55,5.4-8.99,7.5-12.5l15-28-4,4-5,10-8,11c-3.28,8.03-7.7,15.39-12,24-8.52,17.08-15.87,36.13-25,54-16.76,32.8-37.15,64.56-59,93-4.53,5.9-6.89,11.82-10,18-.39.77-4.59,7.03-6,5.5l2-4.5.5-3.5-5.5,9.5,1,3.5h-4c-.9,5.72-7.45,5.07-2-.5l-1-5-1,1.5h-4l-4-8.5c-4.58-4-5.97-10.13-10.5-14.5l4.5,10.5,7,12c.37,2.74-2.06,1.49-3,0-7.69-12.17-13.04-26.45-20-40-11.42-22.22-27.31-42.33-42-64-1.57-2.31-4.41-5.81-5.5-8.5-.7-1.73-1.11-2.25,1-2l7.5,10.5,3,2c-.66-1.54-2.33-2.9-3-4-.29-.48-.71-2.54-1-3-8.44-13.6-17.74-25.1-28-37-36.55-42.36-53.4-94.66-79-141-21.67-39.23-47.28-72.09-71-109l-13-20c2.34-3.48,5.07,1.15,7,3,.69.66,2,2.77,3,2l-11.5-18.5h-1c-1.52,1.57-1.84,2.77-3.5.5l3-4c-1.24-.79-1.37-2.93-2-4-.58-.99-3.85-4.44-4-5-.47-1.7-1.26-7.1,0-8-4.61-3.86-4.91-10.39-10-14,.46-1.32,2.19-.26,3,0,.69.22,2.76-.06,4.5.5.41.13.61.89,1,1h1l2.5-2h-4v-3c1.75.78,3.32-1.01,3.5-1,.35.02.62.94,1,1,5.7.94,13.53-.69,19.5,0-1.26-3.51-5.82-1.46-8.5-2l-2.5-3c1.78.16,3.78-.23,5.5,0,2.39.32,5.11.7,8,1,14.85,1.56,27.5,2.27,42-1,6.95-1.57,14.89-4.01,22-5,2.39-.33,5.44.88,7-1h1l1.5,3ZM491,117c-2.79-.16-5.72.23-8.5,0-.36-.03-.64-.97-1-1-37.21-2.86-75.94-4.16-114-2-.35.02-.65.98-1,1-3.46.24-7.04-.17-10.5,0-.23,1.75,2.28.98,3.5,1,18.97.38,38.04-.59,57,0,21.64.67,43.26,3.65,65,2,1.96-.15,4.02.04,6,0,1.22-.03,3.73.75,3.5-1ZM212.5,114c-11.99-1.3-28.45,0-41,0-.33,0-.62.94-1,1-1.38.22-3.05-.14-4.5,0v1h52v-1c-1.45-.14-3.12.22-4.5,0-.38-.06-.64-.96-1-1ZM601.5,115c-.65,0-.65,1,0,1s.65-1,0-1ZM576,118c-.56-2.13-1.8-1.86-3.5-2-3.48-.28-8.5-.25-12,0-.36.03-.64.97-1,1-1.31.12-2.69-.12-4,0s-3.71-.81-3.5,1h24ZM579,117v1h9v-1h-9ZM103,118h-6v1h6v-1ZM151,118h-21v2h17.5c.2,0,1.69-1.76,3.5-1v-1ZM162,120c-1.35-3.51-6.17-1.53-9-2-1.37,1.15-.13,1.92,1.5,2,2.49.12,5.02-.09,7.5,0ZM449,120c-5.47-.18-11.02.24-16.5,0-10.45-.46-23.57-1.77-34-2-17.48-.39-35.03.29-52.5,0-.23,1.75,2.28.98,3.5,1,5.32.11,10.68-.2,16,0,.35.01.66.99,1,1,16.59.56,31.93.68,48,2,8.42.69,16.91.66,26,0,.36-.03.64-.97,1-1l7.5-1ZM618,118h-5v3h-10v5h7.5c1.74-1.52,3.24-3.55,5-5,.54-.44,3.15-.38,2.5-3ZM79.5,119c-.65,0-.65,1,0,1s.65-1,0-1ZM501,119v1h9v-1h-9ZM361,122h-49.5l-4.5-1,2.5,2c11.67,2.06,19.78,3.13,32,2,4.15-.38,9.45-.51,14-1,.36-.04.62-.94,1-1,1.36-.2,4.59.93,4.5-1ZM600,121h-3v1h3v-1ZM71.5,122c-.65,0-.65,1,0,1s.65-1,0-1ZM80,129c-1.6-2.98-1.33-7.77-6-7-.47,1.93,1.18,2.34,2,3.5,1.15,1.62,1.47,3.82,4,3.5ZM83.26,122.98c0-.68-.55-1.24-1.24-1.24s-1.24.55-1.24,1.24.55,1.24,1.24,1.24,1.24-.55,1.24-1.24ZM91,122c-2.67-.48-1.6.53-2.5,2-.6.98-2.01,1.19-1.5,3,.68.78,4.37-4.62,4-5ZM96,122c-1.76-.31-3.29,1.36-4,3,1.76.31,3.29-1.36,4-3ZM105.5,123c-.65,0-.65,1,0,1s.65-1,0-1ZM114,123l-4,3.5-2,3.5c2.44.32,2.94-1.86,4-3.5.46-.71,2.23-3.26,2-3.5ZM120.5,123l-1.5,1.5.5.5,1.5-1.5-.5-.5ZM225.5,123c-.65,0-.65,1,0,1s.65-1,0-1ZM274,125l-5-.5c-3.79.02-9.14-1.31-12.5-1.5-8.69-.49-17.78.36-26.5,0,.56,2.13,1.8,1.86,3.5,2,9.79.8,19.34.27,29,1,.36.03.64.97,1,1,2.57.24,5.38-.17,8,0l2.5-2ZM312,125c-1.78-.15-3.76.22-5.5,0-.37-.05-.64-.96-1-1-2.62-.29-6.01-.84-8-1-4.04-.33-8.42.24-12.5,0l8.5,1c2.39,1.93,6.69.72,10,1,.36.03.64.97,1,1,1.3.12,2.68-.03,4,0,1.17.02,3.75.71,3.5-1ZM575,123h-34v1c1.81-.76,3.3,1,3.5,1h29l1.5-2ZM582.06,122.54l-.15,2.46,8.5.53.15-2.46-8.5-.53ZM154.5,124c-.65,0-.65,1,0,1s.65-1,0-1ZM172,124h-12v1h12v-1ZM483,124h-11.5l-3.5,2c3.12-.39,7.26,1,9.5-1l5.5-1ZM596,124h-2v1h2v-1ZM282.5,128c4.58.49,9.83-.36,14.5,0l-5.5-1c-2.77-2.51-8.23.51-11-2h-2l-1.5,2,5,.5c.16.27.32.48.5.5ZM391,125c-9.77.36-19.74-.48-29.5,0-4.14.21-10.83,1.69-15,2-3.3.25-6.69-.17-10,0l-2.5,2c2.11-.16,4.44.24,6.5,0,12.24-1.4,24.09-1.36,37-2,.35-.02.65-.98,1-1,2.98-.17,6.01.06,9,0,1.22-.02,3.73.75,3.5-1ZM496,127h19c.09-2.14.45-1.9-1.5-2-3.34-.16-7.73-.29-11,0-.36.03-.63.95-1,1l-5.5,1ZM532,126c-3.43-.21-7.1.3-10.5,0-1.56-.14-2.54-1.56-4.5-1,.56,2.13,1.8,1.86,3.5,2,2.5.2,5.44.05,8,0,1.22-.02,3.73.75,3.5-1ZM135,126c-2.4-.37-4.24.48-4,3,.83.83,3.78-1.67,4-3ZM138.5,126l-1.5,1.5.5.5,1.5-1.5-.5-.5ZM145.5,126c-.65,0-.65,1,0,1s.65-1,0-1ZM183,126h-4v1h4v-1ZM224,126l-7,3.5,4-1,3-2.5ZM485.5,126c-.65,0-.65,1,0,1s.65-1,0-1ZM247,127h-16.5l-6.5,3c-1.35,1.17-.12,1.92,1.5,2,1.16.06,3.04.22,4,0,.12-.03,1.8-.88,2-1,2.07-1.23,2.82-5.04,5.5-1.5l-1,1.5c2.12.68,3.58-1.55,5.5-1,.42.12.67,1,1,1l4.5-4ZM561,128c1.12,3.21,9.46,3.19,9-1l-9,1ZM572,130c2.4-.06,4.57.67,6-1.5-2.13-2.89-4.63-1.38-6,1.5ZM587,128l-3-1c-.29,1.9,1.1,3.29,3,3v-2ZM119.5,128c-.65,0-.65,1,0,1s.65-1,0-1ZM161,128c-2.28-.91-8.54,3.5-8,5.5l3.5.5c1.2-1.33,2.89-2.1,2.5-4l2-2ZM255,128h-6v2h4.5l1.5-2ZM422,128c-2.46.15-5.06-.22-7.5,0-6.94.62-15.12,2.43-22,3-1.94.16-4.02-.04-6,0-1.22.03-3.73-.75-3.5,1l5,.5c11,2.25,21.02-1.89,31.5-2.5l2.5-2ZM467,128c-3.15.05-6.34-.06-9.5,0-1.22.02-3.73-.75-3.5,1,2.1.18,4.46-.26,6.5,0,.37.05.61.93,1,1,1.89.35,4.91.4,5.5-2ZM558,128h-3v1h3v-1ZM581,128h-2v2l2-2ZM593,128h-2l-1,3h2l1-3ZM598,128c-.92.18-2.61-.58-3,.5-.63,1.71-1.39,3.28-2,5-.15.42-.92.63-1,1-.4,1.78-.28,4.34,1.5,5.5l2.5-4.5,2-7.5ZM608,128h-6l-1,3.5h3l-3,5.5c1.83-1.72,3.88-4.05,5.5-6,.84-1.02,1.91-1.29,1.5-3ZM146,129c-2.17-.54-3.14,1.11-5,1v2c2.37.47,4.03-.82,5-3ZM150.5,129l-1.5,1.5.5.5,1.5-1.5-.5-.5ZM168,129l-4,.5-4,6.5c1.84.39,2.37-1.01,3.5-2,1.58-1.39,3.45-3.18,4.5-5ZM176,129l-4.5,1-4.5,6c1.73.2,3,.08,4-1.5.16-.26-.15-.8,0-1,1.5-2.12,4.02-2.31,5-4.5ZM182,129c-1.93-.24-2.79-.05-4,1.5-1.64,2.09-3.41,4.98-5,7-.91,1.16-2.59,2.02-3,3.5l12-12ZM194,129h-7.5c-1.16,2.08-3.08,3.56-4.5,5.5-.16.22.16.79,0,1-1.07,1.45-3.36,2.25-3,4.5l6.5-1c2.13-2.43,4.96-4.55,7-7,.84-1.02,1.91-1.29,1.5-3ZM202,129c-1.03.24-3.59-.62-4,.5-.68,1.86-1.07,1.69-2,3-.15.22.16.77,0,1-.49.71-3.49,3.02-3,3.5,2.92.74,1.48-1.88,3.5-3,.47-.26,1.31.19,1.5,0v-2c1.76.31,3.29-1.36,4-3ZM213,129c-3.75-.12-5.63-.63-8,2.5-.17.22.16.8,0,1-.91,1.16-2.59,2.02-3,3.5l6.5-1c.78-.95,5.7-4.9,4.5-6ZM376,129c-3.71.28-7.86-.39-11.5,0-.36.04-.62.94-1,1-1.36.2-4.59-.93-4.5,1,3.43-.21,7.1.3,10.5,0,.36-.03.63-.95,1-1l5.5-1ZM460,132c-1.55.25-1.96-.77-3.5-1-9.61-1.47-17.08-2.39-27-1-1.37.19-5.62,1.8-7,2-2.3.34-5.52-1.15-6.5,2,1.96.56,2.94-.86,4.5-1,4.96-.43,10.6-.09,15,1,.4.1.62.93,1,1,5.99,1.07,14.66-.78,21,0l2.5-3ZM481,129l-9.5,1-2.5,2c1.77-.16,3.78.23,5.5,0,.37-.05.62-.94,1-1,2.16-.35,6.31,1.43,5.5-2ZM222.6,129.34l-4.63,2.78.88,1.47,4.63-2.78-.88-1.47ZM278,130c-3.17-.28-5.07-.22-7,2.5l4.5-.5,2.5-2ZM320,130h-18c-.21,1.81,2.23.88,3.5,1,.98.09,2.03-.11,3,0,.37.04.63.96,1,1,2.23.24,4.72-.17,7,0l3.5-2ZM611,130l-10,11.5-1.5,7.5,4.5-5.5c1.1-3.54,3.69-6.4,5.5-9.5.44-.75,1.98-3.42,1.5-4ZM134.5,131c-.65,0-.65,1,0,1s.65-1,0-1ZM269,131h-8.5l-4.5,2.5c2.02,2.65,5.7,1.15,8.5,1.5l4.5-4ZM292,133l-1.5-2h-3l-1.5,1.5v.5h6ZM531,131c-2.49.03-5-.05-7.5,0-1.53.03-2.9-.72-2.5,1.5l1.5,2.5c4.05.44,3.79-1.63,5-2s3.01.41,3.5-2ZM545,135c.11-4.46-4.4-2.07-7-4l2,2v2h5ZM581.5,131c-1.22.73-1.35,1.94-2,3-.93,1.51-2.48,1.02,0,3,3.07-.67,5.06-3.81,2-6ZM148.5,132c-.65,0-.65,1,0,1s.65-1,0-1ZM253,132c-2.05.21-3.52,1.52-6,1v1h6v-2ZM519,135l-1.5-3c-1.61,2.25-2.54-.29-4.5,0-.43,2.95.62,1.72,2.5,2,1.42.21,2.14-.03,3.5,1ZM558,132l-11,.5c1.81,2.52,4.93,1.24,7.5,1.5l3.5-2ZM292,135c-2.44-.41-6.37.58-8.5,0-.82-.22-1.47-2.73-4-2l-1.5,3c1.45.14,3.12-.22,4.5,0,.38.06.63.95,1,1,2.29.29,7.67.83,8.5-2ZM495,137l-2.5-4c-2.62.17-5.43-.24-8,0-.36.03-.64.97-1,1-2.77.24-5.72-.17-8.5,0l1.5,3h1c1.07-1.38,4.16-1.27,6-1,.38.06.64.96,1,1,3.33.36,7.11-.25,10.5,0ZM137,137c1.9.29,3.29-1.1,3-3l-3,3ZM275,134l-4,1,.47,1.88,4-1-.47-1.88ZM513,136c-1.89.46-2.88-.69-4.5-1-1.45-.28-4.35-.93-5-1-2.06-.24-4.39.16-6.5,0-.9.82,2.86,4.82,3.5,5,1.99.55,5.69-.39,8,0l4.5-3ZM109,135h-2v1h2v-1ZM124,138c.4.5,2.65-1.75,2-3-.4-.5-2.65,1.75-2,3ZM313,135h-16v3c1.75.78,3.32-1.01,3.5-1,.29.02,4.35,1.85,5,2,.86.2,2.04-.13,3,0l2-1,2.5-3ZM471,135h-3.5l-1.5,2h3.5l1.5-2ZM535.26,135.98c0-.68-.55-1.24-1.24-1.24s-1.24.55-1.24,1.24.55,1.24,1.24,1.24,1.24-.55,1.24-1.24ZM537.5,135c-.65,0-.65,1,0,1s.65-1,0-1ZM560,135h-3v2h1.5l1.5-2ZM131,136c-1.84-.39-2.37,1.01-3.5,2-1.39,1.22-3.39,3.1-4.5,4.5-1.26,1.59-.97,1.03.5,2.5,2.94-2.72,5.55-5.51,7.5-9ZM153,136l-3.5,2-4.5,4,1.5,2c.86-1.21,7.78-6.72,6.5-8ZM225,136c-2.87-.42-4.3.25-6,2.5-.17.22.16.8,0,1-1.13,1.43-3.32,2.28-3,4.5.64.58,4.38-1.52,5-2.5.16-.25-.15-.79,0-1,1.07-1.52,3.34-2.63,4-4.5ZM237,136c-1.64.27-4.09-.39-5.5,0-1.22.34-5.4,6.13-4.5,7l4.5-1,5.5-6ZM249,138c-.81-2.72-3.33-1.98-5.5-2l-3.5,4c3.62.81,5.79-1.35,9-2ZM254.5,136c-.65,0-.65,1,0,1s.65-1,0-1ZM333,136h-3v1h3v-1ZM566,136h-2v3l2-1.5v-1.5ZM88.5,137c-.65,0-.65,1,0,1s.65-1,0-1ZM111,140l1-2.5-.5-.5-1.5,3h1ZM160,137c-2.21.02-4.7,2.89-6,4.5-.16.19.17.78,0,1-.73.95-3.12,2.19-2.5,3.5l8.5-9ZM167,137c-1.84-.39-2.37,1.01-3.5,2-1.94,1.71-2.43,3.12-3.5,4.5-.73.95-3.12,2.19-2.5,3.5,2.85-1.69,5.32-4.02,7.5-6.5.99-1.13,2.39-1.66,2-3.5ZM215,137c-3.68-.8-5.83,2.03-8,4.5-.99,1.13-2.39,1.66-2,3.5l5-1c-.16-2.97,3.86-4.26,5-7ZM319,137l-4,1v1h4v-2ZM363,138c-3.25.67-7.96-3.41-10,1,2.16-.03,4.33.04,6.5,0,1.22-.03,3.73.75,3.5-1ZM370,137h-5v.5l1.5,1.5h3.5v-2ZM405,137h-27l3.5,2c7.14,2.06,13.32-.62,21,0l2.5-2ZM517.26,137.98c0-.68-.55-1.24-1.24-1.24s-1.24.55-1.24,1.24.55,1.24,1.24,1.24,1.24-.55,1.24-1.24ZM571.5,137c-.65,0-.65,1,0,1s.65-1,0-1ZM573,144c1.57-.8,7.39-5.35,3.5-7l-4,4,.5,3ZM103.5,138l-4.5,4.5.5.5,4.5-4.5-.5-.5ZM206,138l-6.5,1c-.74.88-1.82,1.61-2.5,2.5-.15.2.17.76,0,1-.8,1.16-2.49,1.57-2,3.5l4.5-1,6.5-7ZM262,138l-5.5,1-3,1-2.5,3c3.3.01,6.25.51,9-1.5l2-3.5ZM271,138c-3.85-.63-6.21.6-8,4,3.85.63,6.21-.6,8-4ZM288,139c-2.42-.2-5.14.29-7.5,0-.37-.05-.62-.93-1-1-2.92-.53-5.32.15-6.5,3h12.5l2.5-2ZM377,139l-4-1v2h4v-1ZM135.5,139l-2.5,2.5.5.5,2.5-2.5-.5-.5ZM475.5,139c-.65,0-.65,1,0,1s.65-1,0-1ZM493.5,139h-15.5c-.23,1.75,2.28.98,3.5,1,2.84.06,6.1-.44,8.5.5l5,.5-1.5-2ZM545.5,139c-.65,0-.65,1,0,1s.65-1,0-1ZM555,139c-1.25-.65-3.5,1.6-3,2,1.25.65,3.5-1.6,3-2ZM562,142l-2.5-3-3.5,4h3.5l2.5-1ZM569,139h-2l-2,4c1.73.7,4.93-3.07,4-4ZM592,142c.65-1.25-1.6-3.5-2-3-.65,1.25,1.6,3.5,2,3ZM97.5,140c-.65,0-.65,1,0,1s.65-1,0-1ZM192,144c1.64-.71,3.31-2.24,3-4-1.64.71-3.31,2.24-3,4ZM417,140c-3.42.42-7.96-1.04-10.5,1l-6.5.5c1.06,1.57,2.79,1.91,4.5,1.5.4-.1.63-.95,1-1,2.1-.31,4.67.82,6-1l5.5-1ZM463,140c-3.12.18-6.39-.25-9.5,0-1.7.14-2.94-.13-3.5,2,3.81-.13,7.68.19,11.5,0,1.63-.08,2.87-.85,1.5-2ZM472,140h-4.5l-1.5,2c2.48.52,3.95-.79,6-1v-1ZM534,140l-7,2.5,2.5,2.5,4.5-5ZM108,141l-4,3.5-1.5,3.5c.86-1.19,6.68-5.65,5.5-7ZM190,143v-2h-1v2h1ZM585.5,141c-.65,0-.65,1,0,1s.65-1,0-1ZM78.5,142c-.65,0-.65,1,0,1s.65-1,0-1ZM96.5,142c-.65,0-.65,1,0,1s.65-1,0-1ZM183,142l-6.5,1-2.5,3c4.25.47,6.96,0,9-4ZM360.5,142c-.65,0-.65,1,0,1s.65-1,0-1ZM131.75,142.75l-4.75,4.75,1,1,4.75-4.75-1-1ZM137,146c1.9.29,3.29-1.1,3-3l-3,3ZM328,143c-2.19,2.14-3.27-.36-4.5,0-.4.12-.62.92-1,1-4.22.93-11.31-.64-16,0-1.83.25-2.31,1.38-3.5,2.5l6.5-.5c1.96.9,7.94,2.57,10,2,.7-.19,2.3-2.81,3-3,2.02-.56,6.32,1.6,5.5-2ZM394,144l-4.5-1c-2.96.17-6.06-.24-9,0-1.7.14-2.94-.13-3.5,2,2.66.3,5.97-.42,8.5,0,1.74.29,2.39.22,5,0,1.27-.11,3.71.8,3.5-1ZM513,143h-7l1,4c1.62.46,1.71-.54,2.5-1,1.3-.76,3.12-1.48,3.5-3ZM520,143c-2.06-.2-4.2,1.94-4,4l4-4ZM537,143c-1.02-1.1-5.43,3.65-5,4l6,2-1-6ZM542,143h-2v3l2-1.5v-1.5ZM588.5,143l-2.5,3.5,2.5,2.5,1.5-1.5v-3l-1.5-1.5ZM79.5,144c-.65,0-.65,1,0,1s.65-1,0-1ZM336,144l-4.5,1-6.5,4c3.3.01,6.25.51,9-1.5l2-3.5ZM498,144h-8.5l-3.5,2,7.5,1,4.5-3ZM550,144h-4v1.5l1.5,1.5,2.5-3ZM568,147c1.9.29,3.29-1.1,3-3l-3,3ZM93,147v-2h-1v2h1ZM227,145c-3.02.27-5.58,2.42-7,5,3.21.56,5.43-2.74,7-5ZM241,145c-3.01.1-7.09-1.12-7,3,2.48.27,5.87-.37,7-3ZM253,145c-1.82.06-3.67-.09-5.5,0-1.6.08-2.8.76-1.5,2,1.64-1.33,2.8-.79,4.5-1,1.14-.14,2.75.72,2.5-1ZM274.5,145c-.65,0-.65,1,0,1s.65-1,0-1ZM301,145l-8.5,1-5.5,9c1.82-1.66,3.9-.55,5.5-1,1.03-.29,7.28-7.46,8.5-9ZM349,145c-2.82.09-5.68-.12-8.5,0-2.64.12-.75,1.1-2.5,2.5l8.5-.5,2.5-2ZM421,145h-6v1h6v-1ZM430,145v1h9v-1h-9ZM505,148l-2.5-3-.5.5c.98.71,1.2,1.29,1,2.5h2ZM526,145h-2v3h2v-3ZM564,145h-2v1h2v-1ZM576.5,145c-.65,0-.65,1,0,1s.65-1,0-1ZM119,149c.4.5,2.65-1.75,2-3-.4-.5-2.65,1.75-2,3ZM168,146h-2v1h2v-1ZM207,153c2.13,1.81,7.44-5.33,9-6.5l-4.5.5-4.5,6ZM263,146h-2v1h2v-1ZM457,146h-2v1h2v-1ZM474,146c-3.44.2-7.07-.28-10.5,0-1.7.14-2.94-.13-3.5,2,2.08.2,4.5-.29,6.5,0,.41.06,1.49,1.55,4,1l3.5-3ZM500,146h-1.5l-1.5,2h3v-2ZM515,146h-2v1h2v-1ZM98,149v-2h-1v2h1ZM136,147l-5.5,5v3l4-4,1.5-4ZM165,147h-2v1h2v-1ZM206,147c-2.27-.93-8.57,3.54-8,5.5l3,1,5-6.5ZM230,149v-2h-1v2h1ZM253.5,147c-.65,0-.65,1,0,1s.65-1,0-1ZM259.5,147c-.65,0-.65,1,0,1s.65-1,0-1ZM284.25,146.25l-4.5,4.5,1,1,4.5-4.5-1-1ZM358,147l-7.5,1-3.5,4c4.8.58,8.57-.66,11-5ZM545,150c.29-1.9-1.1-3.29-3-3v3h3ZM552.87,149.23c0-1.16-.94-2.1-2.1-2.1s-2.1.94-2.1,2.1.94,2.1,2.1,2.1,2.1-.94,2.1-2.1ZM108.5,148l-3.5,3.5.5.5,3.5-3.5-.5-.5ZM141.5,148c-.65,0-.65,1,0,1s.65-1,0-1ZM197,148h-2v2l2-2ZM278,148h-7c-.32,3.65-5.32,5.57-7,9,4.99,1.07,5.52-1.56,8.5-4,.2-.17.81.16,1,0,1.57-1.32,3.45-3.23,4.5-5ZM314,149c-2.39-.24-5.2.34-7.5,0-.37-.05-.6-.91-1-1-3.47-.81-4.34,1.16-5.5,4l11.5-1,2.5-2ZM364,148c-1.88-.24-3.47,0-4,2,1.88.24,3.47,0,4-2ZM411,159c3.45-.42,5.42-4.55,8-6.5l-.5-1.5,3.5-.5c-1.5-2.38-3.53-1.15-5.5-1.5-.38-.07-.63-.96-1-1-2.38-.29-14.26-.48-16,0s-5.12,7.28-7.5,8.5c-.4,2.22.97,1.47,2.5,1.5,1.97.04,5.35.35,7,0s6.01-4.81,8-6c.3-.18,1.5.13,2-1l5.5,1.5-6,6.5ZM432,149l-4-1,1.5,2h2.5v-1ZM561,148h-2v1h2v-1ZM579,153c.64.8,3.69-4.18,3-5h-1l-2,5ZM187.25,148.25l-5.5,5.5,1,1,5.5-5.5-1-1ZM191.5,149l-6,7,1,3c1.25.36,2.2-1.27,3-2,2.54-2.31,5.59-4.78,2-8ZM264.5,149l-4.75,4.75,1,1,4.75-4.75-1-1ZM346,149l-9,2c2.36-.44,4.11,1.66,6.5,1,.41-.11,2.36-2.2,2.5-3ZM387,149l-7,3,4.5-1,2.5-2ZM387,158l3-2.5,4.5-6.5-5,2-3.5,2,1,5ZM453,150c-1.45-.14-3.12.22-4.5,0-.38-.06-.64-.96-1-1-2.54-.28-5.4.19-8,0l-2.5,3c4.5.32,7.97,2.57,12.5,2l3.5-4ZM481,149h-2v1h2v-1ZM490,149h-4v1h4v-1ZM518,152c2.4.37,4.24-.48,4-3-.17-.2-4.82,2.34-4,3ZM587,149c-3.49-.23-3.23,4-5,5.5l.5,3.5,2.5-2.5c.3-2.13,2.53-3.89,2-6.5ZM101,150h-2v2l2-2ZM116,153c.4.5,2.65-1.75,2-3-.4-.5-2.65,1.75-2,3ZM175,150c-2.8-.6-3.81,1.34-5.5,3l.5,3c1.22-.37,6.07-4.99,5-6ZM179.5,150c-.65,0-.65,1,0,1s.65-1,0-1ZM260,150c-2.01-.13-2.81-.3-4.5,1-2.56,1.97-5.42,5.45-7.5,8,2.01.13,2.81.3,4.5-1,2.56-1.97,5.42-5.45,7.5-8ZM378,150c-1.47-.19-2.02.67-3.5,1-1.75.39-2.36.48-4,1-.59.19-1.37-.18-2,0s-4.39,4.17-3.5,5c2.08-.66,3.71,1.56,5.5,1,.41-.13.62-.91,1-1,.9-.21,2.17.23,3,0,1.71-.47,4.48-4.89,3.5-7ZM466,151l-9-1,3.5,3,5.5-2ZM534,150h-2l1.5,2h.5v-2ZM571.5,150c-.65,0-.65,1,0,1s.65-1,0-1ZM597,150l-4,3.5,1,4.5,2-2.5,1-5.5ZM164,151h-3v2h1.5l1.5-2ZM251,151c-2.08.2-4.5-.29-6.5,0-.37.05-.61.92-1,1-1.55.32-4.01-1.07-3.5,1.5l4.5,4.5,6.5-7ZM285.25,150.25l-4.75,4.75,1,1,4.75-4.75-1-1ZM428,153l-2-2v2h2ZM502,152l-4.5-1-2.5,3c1.94.05,3.3,1.59,5.5,1,.83-.22,1.82-1.93,1.5-3ZM531,154c-.03-3.97-3.97-3.97-4,0h4ZM564,154l1-2.5-.5-.5-2.5,3h2ZM172,160l4-4.5,2-3.5c-.33-.38-2.59,1.98-3,2.5-.16.2.16.79,0,1-1.12,1.43-3.33,2.28-3,4.5ZM226,152h-2v1h2v-1ZM329,152c-1.44.15-3.13-.22-4.5,0-.38.06-.62.93-1,1-1.21.22-2.94-.29-4,0-.5.14-3.17,3.06-3.5,4l10.5-1,2.5-4ZM456,152h-2v2l2-2ZM510,152h-4v3c.83.83,3.78-1.67,4-3ZM84.5,153l-.5.5,2.5,3.5.5-.5-2.5-3.5ZM104,153h-2l-1,5h1l2-5ZM144.5,153c-.65,0-.65,1,0,1s.65-1,0-1ZM152,155v-2l-2,1.5v.5h2ZM158,153l-1,2.5,1.5,2.5,2.5-2.5-3-2.5ZM168,159c.52-2.48-.79-3.95-1-6h-.5c-2.89,2.13-1.38,4.63,1.5,6ZM219,153c-1.25-.65-3.5,1.6-3,2,1.25.65,3.5-1.6,3-2ZM229,158c.99,1.1,6.09-3.85,5-5l-5,1v4ZM340,154c-2.09-.37-3.12-1.12-5.5-1-1.62.08-2.87.84-1.5,2l7-1ZM362,153h-3.5l-1.5,2c1.21-.2,1.79.02,2.5,1l2.5-3ZM442,155l-7.5-2c-1.48,1.26-3.75,1.7-4.5,4,2.79-.16,5.71.23,8.5,0,1.7-.14,2.94.13,3.5-2ZM480,156c1.9.29,3.29-1.1,3-3l-3,1v2ZM539,153h-1.5l-1.5,1.5,1.5,1.5,1.5-1.5v-1.5ZM547,156v-3h-.5l-1.5,1.5,2,1.5ZM196,157l2-1.5-1.5-1.5h-.5v3ZM296,158c2.7-.27,5.9.38,8.5,0,.37-.05.6-.91,1-1,2.15-.51,5.6,1.2,5.5-3-1.87,1.57-3.61.68-5.5,1-.38.06-.63.95-1,1-2.77.35-7.26-1.36-8.5,2ZM423,154h-2l-2,3.5.5.5,3.5-1v-3ZM515.5,154c-.65,0-.65,1,0,1s.65-1,0-1ZM567.5,154l-1.5,1.5.5.5,1.5-1.5-.5-.5ZM110,158c.4.5,2.65-1.75,2-3-.4-.5-2.65,1.75-2,3ZM135.5,155l-2.5,2.5.5.5,2.5-2.5-.5-.5ZM206,157v-2l-2,1.5v.5h2ZM242,159c.29-.24-3.11-4.42-4.5-4l-4.5,5c3.23.54,5.86-.74,9-1ZM385,155c-.83-.83-3.78,1.67-4,3h4v-3ZM406,158c1.9.39,2.67-1.3,4-2.5l-.5-.5c-1.01,1.27-3.13.98-3.5,3ZM474.5,155c-.65,0-.65,1,0,1s.65-1,0-1ZM478,155h-2v3h2v-3ZM505,157l-2-2v2h2ZM127.5,156c-.65,0-.65,1,0,1s.65-1,0-1ZM143,156l-4,3.5-3,3.5c2.68.35,2.71-1.99,4-3.5.57-.67,3.44-3.06,3-3.5ZM150,156h-2v1h2v-1ZM180,156.5l-4.75,4.75,1,1,4.75-4.75-1-1ZM258.5,156l-1.5,1.5.5.5,1.5-1.5-.5-.5ZM346,156h-2v1h2v-1ZM457,156h-4v.5c1.1,1.54,2.14,1.73,4,1.5v-2ZM465.5,156c-.65,0-.65,1,0,1s.65-1,0-1ZM473,158c-.94-2.68-3.41-2.73-5-.5v.5h5ZM487,159c.05-2.9-2.17-4.15-4-1.5l1.5,2.5,2.5-1ZM497,157l-3.5-1-1.5,1.5,2.5,2.5,2.5-1v-2ZM515,156c-1.88-.24-3.47,0-4,2,1.88.24,3.47,0,4-2ZM525,156l-5,2.5c1.86,2.22,3.69,3.96,6,1l-1-3.5ZM529,156h-2v1h2v-1ZM544.5,156c-.65,0-.65,1,0,1s.65-1,0-1ZM578,156h-2l-1,4c.62.75,2.79-3.08,3-4ZM220,159v-2l-2,1.5v.5h2ZM227,161v-2.5l-1.5-1.5c-1.34,1-1.73,2.54-2.5,4h4ZM428.5,157c-.65,0-.65,1,0,1s.65-1,0-1ZM530,162c1.68.32,2.52-.89,3.5-2,1.44-1.62,2.11-1.22,0-3l-3.5,5ZM558.5,157l-2.5,2.5.5.5,2.5-2.5-.5-.5ZM154,163l3-3.5c-1.91-2.38-4.95-2.45-4,1,.14.5,1.54.86,1,2.5ZM164,158h-2l-1,2.5,2.5,2.5,1.5-1.5-1-3.5ZM215,158c-2.68-.44-2.62,2.03-4,3.5l.5.5,3.5-4ZM287,158h-3v1h3v-1ZM334,158c-2.14-.08-3.73-.41-5,1.5l.5.5,4.5-1v-1ZM350,158c-1.84-.39-2.37,1.01-3.5,2-1.58,1.39-3.45,3.18-4.5,5l5-1c-.75-1.5,3.25-5.77,3-6ZM357,158c-4.78-.99-5.79,2.87-8,6,1.87,1.61,7.18-4.38,8-6ZM543,161l-1.5-3-3.5,2.5,1.5,1.5,3.5-1ZM109,159c-1.12-1.13-7.6,4.6-3.5,6,2.02.69,4-4.48,3.5-6ZM118,168l2.5-2v-1l1,1c1.4-2.03,6.69-4.3,3-7l-5,5-1.5,4ZM184,159l-3,1.5.5.5,2.5-1v-1ZM207.5,159c-.65,0-.65,1,0,1s.65-1,0-1ZM278.5,159c-.65,0-.65,1,0,1s.65-1,0-1ZM324,159c-2.34.28-5.29-.39-7.5,0-.37.07-.59.87-1,1-.59.19-1.37-.18-2,0-.68.19-3.31,3.28-2.5,4l9.5-2,3.5-3ZM361.5,159c-.65,0-.65,1,0,1s.65-1,0-1ZM558,165c1.12,1.12,6.35-3.93,5-6-.3-.36-6.15,4.85-5,6ZM581,159h-2v4h2v-4ZM589,165c2.74-1.18,3.42-3.16,3-6-2.02.37-1.73,2.49-3,3.5v2.5ZM146,160c-1.9-.29-3.29,1.1-3,3,1.9.29,3.29-1.1,3-3ZM193,162l-.5-2-3.5,2v1l4-1ZM202,162v-2l-2,1.5v.5h2ZM217.5,160c-.65,0-.65,1,0,1s.65-1,0-1ZM306,160h-11.5l-2.5,2c2.1.18,4.46-.26,6.5,0,.37.05.62.93,1,1,2.92.53,5.32-.15,6.5-3ZM341.5,160l-1.5,1.5.5.5,1.5-1.5-.5-.5ZM369,160c-3.14-.21-5.66,2.05-8.5,2l-2.5,3,7.5-1,3.5-4ZM385,160h-5v1h5v-1ZM398,160l-10,.5c1.81,2.28,5.85,1.63,8.5,1.5,1.63-.08,2.87-.85,1.5-2ZM404,162v-2l-2,1.5v.5h2ZM430,160h-2v1h2v-1ZM335,161l-6.5,1-3.5,3h6.5l3.5-4ZM382,163c-2.08.29-4.09-.75-5.5-2l-2.5,4h5.5l2.5-2ZM408.5,161c-.65,0-.65,1,0,1s.65-1,0-1ZM443,161h-3v1h3v-1ZM455,161h-7v1h7v-1ZM464,163v-2h-1v2h1ZM496,165c2.24.32,3.34-2.13,5-3.5l-.5-.5c-1.48,1.26-3.75,1.7-4.5,4ZM470.5,162c-.65,0-.65,1,0,1s.65-1,0-1ZM502,168l7-4.5c-1.56-1.75-1.55-2.02-3.5-.5-.84.66-4.46,4.01-3.5,5ZM521,163c-1.75.28-2.61-1.55-4.5-1-1.08.31-2.95,2.94-2.5,4.5.21.73,2.13,2.3,3,1l4-4.5ZM537,165c-3.14-.48-5.62,1.62-2.5,4,2.22-2.07,5.91-4.86,1.5-7l1,3ZM573,164v-2h-1v2h1ZM129,163l-3,2.5-1.5,3.5,4.5-6ZM149,171c-.69-1.93,1.77-2.67,2-3.5.6-2.12-1.14-3.12-2.5-4.5l-2.5,3.5v2l3,2.5ZM158,163l-2,3.5c3.02,3.99,7.97-3.21,2-3.5ZM262,163c-2.01-.13-2.81-.3-4.5,1-1.36,1.04-3.66,3.06-3.5,5,1.81,1.63,7.22-4.39,8-6ZM276,163h-3v3h2c-.42-1.51.69-1.82,1-3ZM283,163c-3.21-.56-5.43,2.74-7,5,2.73.28,5.22.09,5-3l2-2ZM480,165l-1.5-2h-1.5v2h3ZM578,163h-2l1.5,2h.5v-2ZM594,182c-.39-1.73,1.54-3.29,2-4.5,1.06-2.81,1.79-7,3-10,.5-1.24,2.37-2.76,2-4.5l-3,3.5-4,11v4.5ZM139,168l3-2.5-2-1.5c.36,1.76-1.36,2.24-1,4ZM203.5,164l-1.5,1.5.5.5,1.5-1.5-.5-.5ZM233,165l1.5,3c1.2-1.33,2.89-2.1,2.5-4l-4,1ZM246,164l-5.5,2-3.5,5c3.46.69,4.96-1.17,7-3.5.99-1.13,2.39-1.65,2-3.5ZM266.5,164l-1.5,1.5.5.5,1.5-1.5-.5-.5ZM283,168c2.68.44,2.62-2.03,4-3.5l-.5-.5-3.5,4ZM301,165c-1.77-.16-3.78.23-5.5,0-.37-.05-.62-.93-1-1-3.93-.72-5.23.44-6.5,4h8.5l4.5-3ZM447,164h-3v1h3v-1ZM451,166v-2h-1v2h1ZM456,166v-2l-2,1.5v.5h2ZM490,164h-5v.5c1.59,2.23,4.06,2.18,5-.5ZM168,165h-2v2l2-2ZM181,166l-3.5-1-2.5,3.5c2.29,3.37,4.79-.56,6-2.5ZM198,165h-2v1h2v-1ZM230,165l-4,3.5,6,2.5-2-6ZM396,168c1.9.39,2.67-1.3,4-2.5l-.5-.5-3.5,1v2ZM459.5,165c-.65,0-.65,1,0,1s.65-1,0-1ZM467.26,165.98c0-.68-.55-1.24-1.24-1.24s-1.24.55-1.24,1.24.55,1.24,1.24,1.24,1.24-.55,1.24-1.24ZM527.5,165c-.65,0-.65,1,0,1s.65-1,0-1ZM273,167l-3.5-1-1.5,3,5-1v-1ZM343,166h-2v1h2v-1ZM477,166h-5v1c1.86-.11,2.83,1.54,5,1v-2ZM522,169h2.5l1.5-1.5-2.5-1.5-1.5,3ZM549,175c2.32-1.75,5.21-4.25,7-6.5,1.02-1.28.89-2.11-.5-2.5l-5.5,4.5-1,4.5ZM574,166l-1,2.5,1.5,1.5c3.64-.52,3.1-4.05-.5-4ZM587.5,166l-6.5,10.5-1.5,4.5,7.5-10.5.5-4.5ZM129,173c.19-.19-.26-1.03,0-1.5.79-1.41,3.49-2.19,3-4.5-1.59.82-7.03,5.8-6,7,.85-.85,2.89-.89,3-1ZM221,167c-3.56-.73-4.86,1.23-7,3.5l2.5,2.5c.76-.93,5.7-4.9,4.5-6ZM316,167h-6v1h6v-1ZM322.5,167c-.65,0-.65,1,0,1s.65-1,0-1ZM419,167l-3,1.5.5.5,2.5-1v-1ZM437,167l-6,.5,2.5,3.5,3.5-4ZM447,168l-5-1,2,4,3-3ZM163,173l2-3.5c-3.02-3.99-7.97,3.21-2,3.5ZM197,174c1.73-.16,4.7-5.18,4-6l-3.5,2-.5,4ZM205.5,168l-1.5,1.5.5.5,1.5-1.5-.5-.5ZM248,170v-2l-2,1.5v.5h2ZM425,170l-.5-2-8.5,5c1.67-.13,3.47.43,5-.5,1.38-.84,1.93-3.06,4-2.5ZM441,168l-5.5,5c-.99.5.74,1.93,1,2,1.06.28,2.77-.19,4,0l2.5-2.5-2-4.5ZM452.5,168c-.65,0-.65,1,0,1s.65-1,0-1ZM453,171c1.9.39,2.67-1.3,4-2.5l-.5-.5c-1.01,1.27-3.13.98-3.5,3ZM488,171l2,1.5,3-4-5,2.5ZM209.25,168.25l-4.75,4.75,1,1,4.75-4.75-1-1ZM366,169c-1.25-.65-3.5,1.6-3,2,1.25.65,3.5-1.6,3-2ZM377,169h-7.5l-2.5,3h7.5l2.5-3ZM389,169c-1.5-.32-2.06.44-3,1.5v2.5c1.33-.22,3.83-3.17,3-4ZM397,169h-3v2h1.5l1.5-2ZM430,169l-2,.5v4.5l4-1.5-2-3.5ZM461,168.5l-6,6,2,2,6-6-2-2ZM473.5,169l-.5.5,1.5,1.5.5-.5-1.5-1.5ZM565,174c2.3-.75,2.74-3.02,4-4.5l-.5-.5c-1.37,1.66-3.82,2.76-3.5,5ZM579,174c-.37-2.07,1.72-3,3-4.5l-.5-.5c-1.37,1.66-3.82,2.76-3.5,5h1ZM116,170l-3,1.5,2,2.5,1-4ZM136.5,170c-.65,0-.65,1,0,1s.65-1,0-1ZM183.25,169.25l-4.5,4.5,1,1,4.5-4.5-1-1ZM328,170h-9v3l-3,2c2.01.16,4.28-.68,5.5,1h1l5.5-6ZM344,170h-7.5l-8.5,9c3.9.66,6.4-1.09,9.5-3,.24-.15.6-.1,1,0l5.5-6ZM407,170h-2v1h2v-1ZM450,170h-2v2l2-2ZM473,171l-6-1c-.51,1.47,1.44,6.66,3.5,6l2.5-5ZM483,170c-2.59-.51-5.08,1.41-5,4,1.94.55,2.34-1.3,3.5-2,.89-.54,2.34.58,1.5-2ZM500,172v-2h-1v2h1ZM508,178c-.78-3.06,4.59-4.12,5-5.5l-1.5-2.5c-.74.42-3.37.87-3.5,1-.19.19.26,1.03,0,1.5-.47.84-3,2.59-3,3l3,2.5ZM524,170c-1.47-.25-2.61.13-4,.5-1.89.5-2.68.7-2,3,.42,1.41,1.23,1.51,2.5.5s2.81-2.59,3.5-4ZM531.5,170c-.65,0-.65,1,0,1s.65-1,0-1ZM154.25,170.25l-4.25,4.25,1.5,1.5,4.25-4.25-1.5-1.5ZM172.04,170.76l-.68,4.05,2.59.43.68-4.05-2.59-.43ZM193,171h-2v1h2v-1ZM270,171c-1.67.13-3.47-.43-5,.5-.54.33-.95,1.13-1.5,1.5-.25.17-.81-.15-1,0-1.19.9-2.78,2.31-2.5,4h4.5l5.5-6ZM276,171c-2.3-.45-2.57.29-4,1.5-1.29,1.1-3.23,2.59-3,4.5,1.13,1.1,6.46-4.7,7-6ZM282,171h-2v1h2v-1ZM293,171h-2v1h2v-1ZM310,171c-3.83-.04-8.51-1.04-9,4l5.5-1,3.5-3ZM353,171c-1.97-.48-4.1.86-5,2.5-.26.48.19,1.31,0,1.5s-1.03-.26-1.5,0c-1,.56-2.91,2.83-3.5,4,4.02.97,3.51-2.73,5.5-4,.25-.16.79.15,1,0,1.17-.83,2.83-2.68,3.5-4ZM381.5,171c-.65,0-.65,1,0,1s.65-1,0-1ZM531,175c.39-1.9-1.3-2.67-2.5-4l-7.5,7.5,2,3.5c2.62.65,2.56-1.96,3-2.5,1.25-1.52,3.38-2.41,3-4.5h2ZM567,179l5-3.5.5-4.5-2.5,2.5c.45,1.29-3.26,5.25-3,5.5ZM135,172c-.95-.97-7.58,4.12-3.5,6l3.5-6ZM225,177l-2-5c-1.12.56-3.53,2.57-4,3.5-1,1.96,1.66,1.48,2.5,1.5,1.17.03,2.34-.02,3.5,0ZM252,172c-.95-.95-4.56,2.58-5,4,2.61.51,5.08-1.42,5-4ZM283,175c1.75-.28,2.61,1.55,4.5,1,.71-.21,3.27-3.22,2.5-4-1.87,1.41-3.42.9-5.5,1-1.62.08-2.86.84-1.5,2ZM354.5,172l-3.5,3.5.5.5,3.5-3.5-.5-.5ZM389,175c1.9.29,3.29-1.1,3-3l-3,3ZM426.26,172.98c0-.68-.55-1.24-1.24-1.24s-1.24.55-1.24,1.24.55,1.24,1.24,1.24,1.24-.55,1.24-1.24ZM493,177c2.58.08,4.51-2.39,4-5-1.42.44-4.95,4.05-4,5ZM141.5,173l-.5.5,1.5,1.5.5-.5-1.5-1.5ZM215,176c.65-1.25-1.6-3.5-2-3-.65,1.25,1.6,3.5,2,3ZM229,173h-3v2h1.5l1.5-2ZM280,173c-3.28-.61-3.83,1.38-5,4,1.06.91,4.5-2.56,5-4ZM362,173l-4,1.5-5,4.5c5.44,1.07,6.53-2.11,9-6ZM450.5,173c-.65,0-.65,1,0,1s.65-1,0-1ZM467,178l-2-5c-1.12.56-3.53,2.57-4,3.5-1,1.96,1.66,1.48,2.5,1.5,1.17.03,2.34-.02,3.5,0ZM99,186v-3.5c-2.02-1.1-2.09-3.57-3-5-1.08-1.7-3.23-2.69-5-3.5-1.13,1.31,4.96,7.84,5,9.5l3,2.5ZM116,178c1.64-.71,3.31-2.24,3-4-1.64.71-3.31,2.24-3,4ZM190,174l-6,6,4-2.5,2-3.5ZM243,174h-2v2l2-2ZM370,174c-3.73-.7-7.4.9-8,5,3.28.39,7.77-1.23,8-5ZM377.5,174l-1.5,1.5.5.5,1.5-1.5-.5-.5ZM403,174h-2v1h2v-1ZM98.5,175l-.5.5,2.5,3.5.5-.5-2.5-3.5ZM111.5,175c-.65,0-.65,1,0,1s.65-1,0-1ZM124,177v-2h-1v2h1ZM157,174.5l-5,5,2.5,2.5,5-5-2.5-2.5ZM195,177v-2h-1v2h1ZM203,178l1-2.5-.5-.5-2.5,3h2ZM208,179h2.5l1.5-1.5-1.5-2.5-2.5,4ZM234.5,175c-.65,0-.65,1,0,1s.65-1,0-1ZM281.5,175c-.65,0-.65,1,0,1s.65-1,0-1ZM416,177l-2-2v2h2ZM477,175c-1.39-1.39-5.55,4.17-5,6,.3.36,6.15-4.85,5-6ZM485.25,174.25l-3.75,3.75,1.5,1.5,3.75-3.75-1.5-1.5ZM547,175c-2.04,1.73-8.26,5.4-4.5,8l5-5-.5-3ZM137.5,176l-3.5,4.5,4.5,2.5,1.5-3.5-2.5-3.5ZM169,182c-.67-1.95,1.71-2.61,2-3.5.37-1.14-1.37-2.87-2.5-2.5-.55.18-2.74,2.44-2.5,3.5l3,2.5ZM175,179c.4.5,2.65-1.75,2-3-.4-.5-2.65,1.75-2,3ZM382,176c-2.5-.51-3.43.79-5,2.5l1.5-.5,1,1,2.5-3ZM427,176c-1.82.06-3.67-.09-5.5,0-1.62.08-2.85.83-1.5,2l7-2ZM452.5,176c-.65,0-.65,1,0,1s.65-1,0-1ZM515,176c-2.05,1.53-7.09,4.57-3.5,7l4-4-.5-3ZM141.5,177c-.65,0-.65,1,0,1s.65-1,0-1ZM303,177h-5v2h3.5l1.5-2ZM306.5,177l-1.5,1.5.5.5,1.5-1.5-.5-.5ZM318,179l-1.5-2h-3l-1.5,1.5v.5h6ZM388,179l-1.5-2-1.5,1.5v.5h3ZM436,179l-1.5-2h-3.5v2h5ZM496,181c1.64-.71,3.31-2.24,3-4-1.64.71-3.31,2.24-3,4ZM564,177l-3,2.5-1.5,3.5,4.5-6ZM189,185c-.41-1.72.67-1.98,1.5-3,1.28-1.56,3.66-2.15,1-4l-4.5,4.5,2,2.5ZM337.5,178c-.65,0-.65,1,0,1s.65-1,0-1ZM490,181c.4.5,2.65-1.75,2-3-.4-.5-2.65,1.75-2,3ZM505,178h-2v1.5l1.5,1.5h.5v-3ZM575,181l1-2.5-.5-.5-2.5,3h2ZM122,179c-1.9-.29-3.29,1.1-3,3l3-3ZM127,178.5l-2,2,2.5,2.5,2-2-2.5-2.5ZM217.88,178.97l-1.91,1.15,3.22,5.37,1.91-1.15-3.22-5.37ZM224,179h-3v.5l1.5,1.5,1.5-2ZM233,179h-4v3c.83.83,3.78-1.67,4-3ZM407.5,179l-4.5,4.5,2.5,2.5c1.6.49,5.93-5.42,7.5-6.5l-5.5-.5ZM454,179h-4v.5l1.5,1.5h1l1.5-2ZM210,182v-2h-1v2h1ZM246,180h-4v.5l1.5,1.5h1l1.5-2ZM262,180h-2v2l2-2ZM268,180h-3v.5l1.5,1.5,1.5-2ZM274,180l-5,2.5c2,2.53,1.53.84,3,0s2.46.13,2-2.5ZM281,180c-2.31-.46-3.71.79-5,2.5-.15.2.17.76,0,1-.8,1.16-2.49,1.57-2,3.5.97,1.02,4.26-2.66,5-3.5.99-1.13,2.39-1.66,2-3.5ZM420,185c.51-2.61-1.42-5.08-4-5,.26,2.2,1.35,5.35,4,5ZM423.26,180.98c0-.68-.55-1.24-1.24-1.24s-1.24.55-1.24,1.24.55,1.24,1.24,1.24,1.24-.55,1.24-1.24ZM466,180l-8,.5,3.5,5.5c.78-.95,5.7-4.9,4.5-6ZM522,184c.39-1.9-1.3-2.67-2.5-4l-.5.5c1.27,1.01.98,3.13,3,3.5ZM535.5,180l-2.5,2.5.5.5,2.5-2.5-.5-.5ZM172.5,181c-.65,0-.65,1,0,1s.65-1,0-1ZM198.5,181l-1.5,1.5.5.5,1.5-1.5-.5-.5ZM205,186l3-3.5-2.5-1.5-1.5,1.5,1,3.5ZM227,187l1-3.5-1.5-2.5-2.5,3.5,3,2.5ZM236,181c-2.3.75-2.74,3.02-4,4.5l.5.5c1.37-1.66,3.82-2.76,3.5-5ZM255.5,181l-7.5,7.5,3.5,4.5,7.5-8.5-3.5-3.5ZM289,181c-1.67.13-3.47-.43-5,.5-1.18.72-3.86,3.75-5,5-.72.79-2.36,1.76-2,3,.32,1.09,2.31,1.86,3.5,1.5.33-.1,3.86-3.75,4.5-4.5.16-.19-.17-.8,0-1,1.24-1.5,3.24-2.66,4-4.5ZM299,181h-4v1.5l1.5,1.5,2.5-3ZM335,181l-4,1,.56,2.24,4-1-.56-2.24ZM340,181l-1,2.5.5.5,1.5-3h-1ZM355,181l-4.5,1-3.5,2,4.5,1,3.5-4ZM363,181c-2.85-.22-5.84,1.43-7,4l4.5-1,2.5-3ZM376,181c-1.15-1.15-6.36,4.7-6,5,2.07,1.35,7.12-3.88,6-5ZM386,181c-3.54-.65-4.42,2.21-6,4.5l3.5-2.5,2.5-2ZM397,181l-3.5,2-2.5,3c1.24.08,6.65-4.42,6-5ZM429,181c-3.17,1.26-7.29,3.82-3.5,7l4.5-2.5-1-4.5ZM450,183l-1.5-2h-1l-1.5,1.5v.5h4ZM480,181c-1.05-1.07-6.06,3.84-5,5,1.83-1.64,5.3-2.15,5-5ZM488,183v-2h-1v2h1ZM502,181h-2c.42,1.51-.69,1.82-1,3h3v-3ZM215,182c-1.96-.37-2.74,1.39-4,2.5l2,6.5,4-3.5-2-5.5ZM240,186l2-1.5-1.5-2.5-1.5,1.5,1,2.5ZM364,186l4-3.5-.5-.5c-1.57,1.4-3.96,1.39-3.5,4ZM433,182h-2v1h2v-1ZM457,182l-4,3,5,1-1-4ZM470,182c-2.52-.51-1.74.83-3,2.5-.62.82-1.91,1.4-2,2.5,1.15,1.03,6.03-3.84,5-5ZM495,182h-1.5l-1.5,1.5,1.5,1.5,1.5-1.5v-1.5ZM518,182l-4,3.5,2,4.5c2.76.78,1.74-2.26,4-3.5l-2-4.5ZM527.5,182c-.65,0-.65,1,0,1s.65-1,0-1ZM124,183h-2l1,5,2-1.5-1-3.5ZM162.5,183c-1.97.66-5.45,5.91-2,7,2.02.64,2.88-3.78,4.5-4.5.38-1.13-1.37-2.88-2.5-2.5ZM183,183h-2l-2,4h2l2-4ZM265,183c-1.25-.65-3.5,1.6-3,2,1.25.65,3.5-1.6,3-2ZM287,190h4.5l3.5-4.5-3-2.5c.07,3.1-3.96,4.34-5,7ZM316,184l-9-1-1,3c2.15-.34,3.08,1.82,4.5,3l5.5-5ZM415,183c-.94-.98-4.72,2.76-5,4h6l-1-4ZM509,183l-3,1.5,1.5,2.5,1.5-1.5v-2.5ZM538.5,183c-1.97,2.66-6.36,5.42-8,8-1.06,1.67-.08,1.93,1,3,1.15.34,4.69-3.49,5.5-4.5.16-.2-.17-.78,0-1,1.5-1.95,4.83-2.99,1.5-5.5ZM565.5,183l-2.5,2.5.5.5,2.5-2.5-.5-.5ZM571.6,182.3l-3.1,6.2,1.6.8,3.1-6.2-1.6-.8ZM105,184l-2,.5,15,28,14.5,22.5-8.5-16.5c-6.07-8.45-9.75-18.52-16-27l-3-7.5ZM136,186l-2-2v2h2ZM151,187c.65-1.25-1.6-3.5-2-3-.65,1.25,1.6,3.5,2,3ZM174,184c-1.25-.65-3.5,1.6-3,2,1.25.65,3.5-1.6,3-2ZM300.5,184l-2.5,2.5.5.5,2.5-2.5-.5-.5ZM547,189c-.47-2.33,2.47-2.67,2-5-2.18.97-3.47,2.63-3,5h1ZM130.5,185l-1.5,1.5,2.5,3.5,2.5-1.5-3.5-3.5ZM141.5,185c-.65,0-.65,1,0,1s.65-1,0-1ZM192,189c1.64-.71,3.31-2.24,3-4-1.64.71-3.31,2.24-3,4ZM267.5,185l-2.5,2.5v1l1.5,1.5,2.5-3.5-1.5-1.5ZM329,186l-5-1c.25,3.87,4.75,5.93,5,1ZM377.5,185c-.65,0-.65,1,0,1s.65-1,0-1ZM448,185l-5,.5,1,2.5c.83.83,3.78-1.67,4-3ZM486,185c-2.53-.32-2.85,1.89-4,3.5-.83,1.16-2.47,1.57-2,3.5.31.35,7.11-5.75,6-7ZM495,190l4-3.5-1.5-1.5c-1.71,1.57-3.01,2.5-2.5,5ZM149,189l-3-3c-.29,1.9,1.1,3.29,3,3ZM184.5,186l-3.5,3.5,1.5,1.5,3.5-3.5-1.5-1.5ZM200,191l3-1.5-1-3.5-3,2.5,1,2.5ZM221,186v2.5l1.5,1.5,2.5-1.5c-1.33-1.2-2.1-2.89-4-2.5ZM239,186c-1.9-.39-2.67,1.3-4,2.5l1.5,2.5c1.71-1.57,3.01-2.5,2.5-5ZM401.5,186c-.65,0-.65,1,0,1s.65-1,0-1ZM491.5,186c-.65,0-.65,1,0,1s.65-1,0-1ZM102,187c-1.61-.09-2.29-.48-2,1.5.44,3.01,3.49,5.67,5,8,.54.83,1.46,3.2,2,4,.48.72,1.51,1.28,2,2,.16.23-.15.77,0,1,.95,1.39,2.48,3.03,3.5,4.5l-1.5-4.5-7-11-2-5.5ZM140,187l-3,1.5v2.5l3-1.5v-2.5ZM210,187l-2,1.5,4,4.5-2-6ZM261,187l-8,8c1.84.39,2.38-1.01,3.5-2,1.91-1.69,3.64-3.55,4.5-6ZM307,190l-2.5-3-2.5,2.5v.5h5ZM322.26,187.98c0-.68-.55-1.24-1.24-1.24s-1.24.55-1.24,1.24.55,1.24,1.24,1.24,1.24-.55,1.24-1.24ZM350,187h-5.5l-1.5,2h5.5l1.5-2ZM355,189v-2l-2,1.5v.5h2ZM421.5,187c-.65,0-.65,1,0,1s.65-1,0-1ZM453,190l-1.5-3-3.5,2.5,5,.5ZM473.5,187c-.65,0-.65,1,0,1s.65-1,0-1ZM505.26,187.98c0-.68-.55-1.24-1.24-1.24s-1.24.55-1.24,1.24.55,1.24,1.24,1.24,1.24-.55,1.24-1.24ZM552,199l5-5.5,2.5-6.5-4.5,5.5c-.05,2.43-3,4-3,6.5ZM178,191v-3h-.5l-1.5,1.5v1.5h2ZM230,190v-2h-1v2h1ZM273,190v-2h-1v2h1ZM360.5,188c-.65,0-.65,1,0,1s.65-1,0-1ZM442,188h-2l1.5,2h.5v-2ZM458,190l-2-2v2h2ZM464.5,188c-.65,0-.65,1,0,1s.65-1,0-1ZM511,195l4-2.5-3.5-4.5-2.5,2.5c.99,1.11,2.02,2.88,2,4.5ZM128,189l-3,1.5,3.5,5.5c3.34-2.12-.85-4.67-.5-7ZM169,189c-.95-.98-3.78,2.19-4.5,3-1.44,1.62-2.11,1.22,0,3l2.5-2.5,2-3.5ZM297,189h-2v1h2v-1ZM472,189h-2v2l2-2ZM489,189l-5,3.5-.5,4.5,4-4,1.5-4ZM143.5,190l-4.5,4.5,2.5,2.5,4.5-4.5-2.5-2.5ZM199,194v-2.5l-1.5-1.5-1.5,2.5,3,1.5ZM220,190c-3.35.09-4.53,3.1-4,6,2.16.33,3.09-1.84,4.5-3l-.5-3ZM265,193c-.25-4.93-4.75-2.87-5,1l5-1ZM271.26,190.98c0-.68-.55-1.24-1.24-1.24s-1.24.55-1.24,1.24.55,1.24,1.24,1.24,1.24-.55,1.24-1.24ZM369,190c-2.73-.56-4.41,1.69-6,3.5-.99,1.13-2.39,1.66-2,3.5,1.84.39,2.37-1.01,3.5-2,1.58-1.39,3.45-3.18,4.5-5ZM402,192v-2l-4.5,1-.5,3c2.43.4,2.74-2.53,5-2ZM500,190c.43,1.9-1.09,2.35-2,3.5-1.26,1.59-.98,1.03.5,2.5,3.09-1.6,7.42-4.97,1.5-6ZM543,196c-.05-1.87,2.19-4.03.5-6-3.26,2.92-5.62,6.05-7.5,10l7-4ZM569,190c-2.44,1.7-4.1,4.81-5,7.5-1.53.8-.69,2.19-1,3-.25.63-2.23,2.49-1.5,3.5l7.5-14ZM208,197c4.29-1.88.22-4.1-1.5-6l1.5,6ZM231.9,190.8l-1.1,3.3,3.3,1.1,1.1-3.3-3.3-1.1ZM246,197c5.3-.42,2.84-5.98-1-6l1,6ZM275.5,191c-.65,0-.65,1,0,1s.65-1,0-1ZM346,191c-3.92-.16-5.46-.59-8,2.5-1.5,1.82-.05,1.02,0,3,2.03,3.28,4.92-.61,6.5-2.5.84-1.02,1.91-1.29,1.5-3ZM352,191c-1.69-.28-3.1,1.31-4,2.5-.16.22.16.8,0,1-.74.94-3.12,2.19-2.5,3.5l6.5-7ZM360,191l-4.5,1c-3.21,3.1-6.35,6.07-8.5,10l4.5-1,8.5-10ZM374,191c-1.9-.29-3.29,1.1-3,3l3-3ZM405.5,191l-5.5,5.5,3.5,5.5,5.5-5.5-3.5-5.5ZM414,191h-5v.5l2.5,2.5,2.5-3ZM422,193v-2h-1v2h1ZM581,191c-.48,3.74-3.23,6.41-5,9.5-.3.53-.7,2.47-1,3-.4.7-1.61,1.31-2,2-1.45,2.58-2.45,5.73-4,8l-25,45-1.5,4.5,9.5-14.5,13-24,16-30v-3.5ZM136.26,192.98c0-.68-.55-1.24-1.24-1.24s-1.24.55-1.24,1.24.55,1.24,1.24,1.24,1.24-.55,1.24-1.24ZM181,192h-2v3l2-1.5v-1.5ZM227,192h-2v2l2-2ZM417.5,192l-4.5,4.5,2,2,4.5-4.5-2-2ZM441,192h-5l1,4,4-4ZM455,192l-7,.5,3.5,4.5c1.24-1.57,3.77-2.66,3.5-5ZM459,195c.4.5,2.65-1.75,2-3-.4-.5-2.65,1.75-2,3ZM507.5,192c-.65,0-.65,1,0,1s.65-1,0-1ZM174.5,193c-.65,0-.65,1,0,1s.65-1,0-1ZM188.5,193l-2.5,2.5.5.5,2.5-2.5-.5-.5ZM205,193l-3,2.5,3.5,4.5c1.86-1.24,1.1-1.88.5-3.5-.31-.83-1.68-1.62-1-3.5ZM285,193h-2v1h2v-1ZM324,193c-2.88-.44-4.95.65-7.5,1-1.34.18-3.13.57-1.5,2l5.5,2c1.24-1.57,3.77-2.66,3.5-5ZM446,193c-1.23-1.23-5.83,4.61-7,5.5-.46,1.29,2.68,7.51,3.5,7.5,1.73-2.33,7.31-5.67,6.5-8.5-.31-1.09-3.72-2.34-3-4.5ZM196,197v-1.5l-2-1.5v3h2ZM332.5,194l-1.5,1.5.5.5,1.5-1.5-.5-.5ZM425,194h-2v1h2v-1ZM433.5,194c-1.87,1.92-3.94,4.98-1,7l3.5-3.5-2.5-3.5ZM474,194l-5,2,1.5,3,3.5-5ZM478,196v-2l-2,1.5v.5h2ZM503,205l6-6.5c-1.18-1.42-3.34-2.35-3-4.5l-6,5.5,3,5.5ZM530,196l-3-2-2,4.5,2.5.5,2.5-3ZM171,200l2-3.5-1.5-1.5-2.5,3.5,2,1.5ZM229.5,195l-3,3,2,2,3-3-2-2ZM244.26,195.98c0-.68-.55-1.24-1.24-1.24s-1.24.55-1.24,1.24.55,1.24,1.24,1.24,1.24-.55,1.24-1.24ZM382,197v-2l-2,1.5v.5h2ZM386.5,195c-.65,0-.65,1,0,1s.65-1,0-1ZM395.5,195c-.65,0-.65,1,0,1s.65-1,0-1ZM465.25,194.25l-4.5,4.5,1,1,4.5-4.5-1-1ZM132,196h-2v3h2v-3ZM137.62,195.53l-1.91,1.15,3.49,5.81,1.91-1.15-3.49-5.81ZM162.5,196c-.65,0-.65,1,0,1s.65-1,0-1ZM178,196h-2v1h2v-1ZM275,196h-4c-.39,1.9,1.3,2.67,2.5,4h.5c-.36-1.76,1.36-2.24,1-4ZM287,196h-3v.5l1.5,1.5,1.5-2ZM338,201l-2-5c-1.94.1-4.33,4.78-2.5,5h4.5ZM457.25,195.25l-4.5,4.5,1,1,4.5-4.5-1-1ZM515.5,196l-1.5,1.5.5.5,1.5-1.5-.5-.5ZM154,199l-2-2v2h2ZM190,202c3.17.31,4.27-3.38,1.5-5h-.5l-1,5ZM211,203c1.54-.29,2.01-1.78,2.5-3,.75-1.86.32-1.78-1-3l-2.5,2.5,1,3.5ZM261,197l-5,2.5,3,1.5,2-4ZM266,197c-2.65-.48-2.53,1.79-3.5,3-.63.79-2.79,1.93-2,3l5.5-6ZM282,197h-2v2l2-2ZM297.5,197c-.36.08-.57.8-1,1-.31.14-.78-.13-1,0-1.75,1.04-3.67,4.18-5.5,5.5l4.5,5.5,8.5-9.5c.73-2.42-3.63-2.92-5.5-2.5ZM369,199l-.5-2-3.5,4,2-2h2ZM393.5,197c-.65,0-.65,1,0,1s.65-1,0-1ZM420.5,197l-4.75,4.75,1,1,4.75-4.75-1-1ZM480.5,197c-1.44,1.44-2.99,2.28-2.5,4.5l1.5,1.5c1.44-1.44,2.99-2.28,2.5-4.5l-1.5-1.5ZM489,205c1.03.99,5.29-3.59,6-4.5,1.53-1.95,1.24-1.94-.5-3.5l-5.5,8ZM151,198c-1.12-1.19-5.03,3.71-6,4.5l1,4.5,6-5.5-1-3.5ZM200,207l4-4.5-4.5-4.5-2.5,3.5,3,5.5ZM252,198c-1.9-.29-3.29,1.1-3,3l3-3ZM271,202l-2.5-4c-.8,1.02-5.65,4.77-4.5,6,2.37-1.25,4.21-2.48,7-2ZM312,208c-.7-2.46,5.98-6.53,6-7.5l-4.5-2.5h-2l-3.5,3.5c.06,1.25,3.24,7.39,4,6.5ZM399,198l-2,1.5,3.5,5.5c2.48-1.98.93-1.49,0-3-.7-1.13-1.58-2.65-1.5-4ZM472,201c1.9.29,3.29-1.1,3-3l-3,3ZM237,200c.12,2.5,1.71,4.44,3.5,6,3.36-2.64,3.36-4.36,0-7l-3.5,1ZM245.5,199c-.65,0-.65,1,0,1s.65-1,0-1ZM383.5,199c-.65,0-.65,1,0,1s.65-1,0-1ZM389,203c1.64-.71,3.31-2.24,3-4-1.64.71-3.31,2.24-3,4ZM411.25,198.25l-5.75,5.75,1.5,1.5,5.75-5.75-1.5-1.5ZM465,205l4-2.5-1-3.5-3.5,3,.5,3ZM136,205c.47-2.33-2.47-2.67-2-5l-2,1.5,4,3.5ZM167,204l2-1.5-3-2.5,1,4ZM174,203l1-2.5-.5-.5-2.5,3h2ZM180,203c1.9.29,3.29-1.1,3-3l-3,3ZM222,206l4.5-3-.5-3c-.35-.43-5.34,3.92-4,6ZM376.5,200c-1.14,1.19-2.37,2.3-3.5,3.5-.57.61-2.4,1.69-1.5,2.5.98-1.02,2.02-1.98,3-3,.66-.69,2.76-2,2-3ZM427,206c4.09-.28,5.28-4.23,1.5-6-1.99-.93-1.34,2.2-2.5,2.5l1,3.5ZM517,207c2.03.05,3.77.45,5-1.5.16-.25-.15-.79,0-1,1.25-1.8,3.58-2.06.5-4.5-.82,1.08-6.77,5.83-5.5,7ZM529,203c1.9.29,3.29-1.1,3-3l-3,3ZM255,201c-4.27.73-5.21,3.5-1.5,6l2.5-2.5-1-3.5ZM282,203v-2h-1v2h1ZM382,203v-2l-2,1.5v.5h2ZM396,201c-1.17-1.35-1.92-.12-2,1.5-.14,2.82.1,5.68,0,8.5l5-4.5c-1.58-1.35-2.91-3.33-3-5.5ZM436,201l-1,4.5,3.5,4.5c3.8-2.87-.12-4.27-.5-5.5s.41-3.01-2-3.5ZM444,211c3.24-2.55,7.44-5.7,8-10-1.72,1.05-3.75,2.94-5,4.5-.16.2.17.79,0,1-1.11,1.44-3.33,2.27-3,4.5ZM457,205c1.64-.71,3.31-2.24,3-4-1.64.71-3.31,2.24-3,4ZM156.5,202c-.65,0-.65,1,0,1s.65-1,0-1ZM209,202h-2l1.5,2h.5v-2ZM277,206c2.9.05,4.15-2.17,1.5-4l-2.5,1.5,1,2.5ZM326,202c-1.9-.29-3.29,1.1-3,3l3-3ZM477,202l-3,3.5,1.5,1.5,2.5-2.5-1-2.5ZM118.5,203c-.65,0-.65,1,0,1s.65-1,0-1ZM284.5,203c-.65,0-.65,1,0,1s.65-1,0-1ZM331,203v1.5l1.5,1.5,1.5-1.5-1.5-1.5h-1.5ZM348,204l-4-1v2h4v-1ZM362,205v-2h-1v2h1ZM373,209l4-.5,1-1,1-4.5-6,6ZM414.25,202.25l-5.75,5.75,1.5,1.5,5.75-5.75-1.5-1.5ZM499,203c-4.11-.82-4.02,3.57-7,5.5l3.5,4.5,5.5-5.5c-1.62-1.31-2.4-2.29-2-4.5ZM149,213c.92.98,6.81-4.87,7-5.5.36-1.19-.41-3.18-1.5-3.5-1.59-.46-5.06,4.52-6.5,5.5l1,3.5ZM186.5,204l-3.5,3.5,2,2,3.5-3.5-2-2ZM194,204v4.5l2.5,2.5,2.5-2.5-5-4.5ZM237,211c-.26-2.01,1.39-1.84.5-4-2.02-4.93-5.42-3.06-4,1,.57,1.63,1.3,3.32,3.5,3ZM242,209c2.3-.75,2.74-3.02,4-4.5l-.5-.5c-1.37,1.66-3.82,2.76-3.5,5ZM309,210l-2.5-6c-2.64,2.89-6.12,5.18-7.5,9,1.93.69,2.68-1.78,3.5-2,1.07-.29,2.78.21,4,0,.39-.07.9-1.55,2.5-1ZM325,206l2.5,5,2.5-1.5-1-5.5-4,2ZM386.5,204c-.65,0-.65,1,0,1s.65-1,0-1ZM391.5,204c-.65,0-.65,1,0,1s.65-1,0-1ZM426,209l-1-5-4,3.5,2.5,3.5.5-2h2ZM171,205h-2v2l2-2ZM179,205h-2v2l2-2ZM206.25,204.25l-4.75,4.75,1.5,1.5,4.75-4.75-1.5-1.5ZM268,205l-6,2,1,3c2.9.14,4.01-2.91,5-5ZM275,205l-8,7.5,1,3.5c1.71.41,1.98-.65,3-1.5,2.15-1.79,3.7-3.83,5-6l-1-3.5ZM463,205c-4.27.73-5.21,3.5-1.5,6l2.5-2.5-1-3.5ZM529,205c-1.9-.29-3.29,1.1-3,3l3-3ZM548,212l3-7-3,3.5v3.5ZM144,206h-2c-.36,1.76,1.36,2.24,1,4h2l-1-4ZM163,210v-2.5l-2-1.5,1,4h1ZM288.5,206c-3.26,2.11.82,5.03,2,7,3.12-2.13-.22-5.31-2-7ZM322,206h-2c.37,1.72-.87,2.36-2,3.5l.5.5,3.5-4ZM343,210l-1.5-4-3.5,2.5,1,2.5,4-1ZM432.5,206l-3.5,3.5c1.24,1.15,1.89,7.29,4.5,6.5l3.5-3.5-4.5-6.5ZM455,206l-7,6.5-1.5,3.5c2.06-2.25,4.48-4.22,6.5-6.5.99-1.12,2.39-1.66,2-3.5ZM488,206c-1.39-1.39-5.55,4.17-5,6,.3.36,6.15-4.85,5-6ZM218,214c-.33-3.15,5.4-4.06,1.5-7-2.08,2.09-4.2,3.23-3.5,6.5l2,.5ZM249,207l-2,.5-3,3,2.5,3.5,1.5-3.5,2,.5-1-4ZM281.5,207l-1.5,1.5.5.5,1.5-1.5-.5-.5ZM359,207h-2v1h2v-1ZM392,213l-3.5-6c-.8,1.16-2.96,2.44-3.5,3.5-1.05,2.06,1.73,1.32,2.5,1.5,1.62.38,2.64,1.42,4.5,1ZM403.5,207l-1.5,1.5.5.5,1.5-1.5-.5-.5ZM471.5,207c-1.61,1.69-3.75,4.26-1,6,2.16-2.09,5.92-4.71,1-6ZM557,207c-.99.31-2.49,1.69-3,2.5-2.84,4.52-5.1,10.65-8,15l-7.5,15.5,5.5-6.5,5-10,8-16.5ZM260,215l2-2.5-2.5-4.5c-1.2,1.33-2.89,2.1-2.5,4,1.76-.32,3.28.99,3,3ZM516,208h-2l-1,2.5.5.5,2.5-1v-2ZM127,209c-.69,1.93,1.77,2.67,2,3.5.17.62-.18,1.38,0,2s4.27,7.56,5,9c7.65,14.99,15.98,27.86,23,43l14.5,16.5-6.5-13.5c-5.13-7.82-9.83-16.74-15-25-2.01-3.22-4.14-7.02-7-10l-13-22-3-3.5ZM160,212l-1.5-3-6.5,7.5,2,5.5,3-2.5,1-2-1-4,3-1.5ZM175,209c-1.46.77-3,1.16-4,2.5l1.5,1.5c1.2-1.33,2.89-2.1,2.5-4ZM189,218c2.33.28,3.42-2.24,5-3.5l-3.5-5.5-3.5,4.5,2,4.5ZM204,214c.35.4,2.45-1.91,3-2.5s2.4-1.69,1.5-2.5c-1.71,1.37-4.74,2.11-4.5,5ZM230.5,209c-3.41,2.49.49,4.13,2,6,2.48-1.98.93-1.49,0-3-.65-1.06-.78-2.27-2-3ZM324,211v-2l-2,1.5v.5h2ZM357,209c-.94-.98-3.84,2.22-4.5,3-1.21,1.43-1.95,1.7-1.5,4l4-3.5,2-3.5ZM531.5,209c-.65,0-.65,1,0,1s.65-1,0-1ZM183,212l-2-2v2h2ZM337,210h-2c-.29,1.9,1.1,3.29,3,3l-1-3ZM401,212v-2l-4,3.5.5.5,3.5-2ZM405,214c2.9.05,4.15-2.17,1.5-4l-2.5,1.5,1,2.5ZM420,210c-1.12-1.19-5.03,3.71-6,4.5l2.5,3.5,4.5-4.5-1-3.5ZM450,223c.96,1.02,4.27-2.66,5-3.5.17-.19-.16-.81,0-1,1.55-1.76,3.42-3.27,5-5l-2.5-3.5c-2.24-.7-4.75,5.29-6,6-.47.27-1.31-.19-1.5,0-.11.11.28,1.99-1,2.5l1,4.5ZM199,214l2-1.5-1.5-1.5h-.5v3ZM239.5,211l-2.5,2.5.5.5,2.5-2.5-.5-.5ZM277.75,210.75l-6.75,6.75,1,1,6.75-6.75-1-1ZM285,211h-2c-.23,1.86-.04,2.9,1.5,4h.5v-4ZM374,211h-2v1h2v-1ZM491,211c-.89-.85-4.8,2.83-5,3.5-.54,1.83,1.65,3.4,1,5.5,1.11,1.2,5.04-3.72,6-4.5l-2-4.5ZM502,211c-2.91-.68-1.39,1.35-3,2.5-1.33.96-2.52-.25-2,2.5.38.39,5.39-4.61,5-5ZM123.5,212c-.65,0-.65,1,0,1s.65-1,0-1ZM147,212l-2,.5c1.27,1.01.98,3.13,3,3.5l-1-4ZM288,212h-2v5l3-1.5-1-3.5ZM316.5,212l-1.5,1.5.5.5,1.5-1.5-.5-.5ZM326,212c-5.05-.65-7.78.41-9,5.5l1,3.5,6-4.5,2-4.5ZM428,212c-2.44-.39-2.16.29-2,2.5l3.5,5.5c2.56-1.58.15-3.08-.5-4.5-.46-1.01-1.03-2.37-1-3.5ZM443,212c-1.25-.65-3.5,1.6-3,2,1.25.65,3.5-1.6,3-2ZM482,214v-2l-2,1.5v.5h2ZM514.5,212c-.65,0-.65,1,0,1s.65-1,0-1ZM180,213c-1.9-.39-2.67,1.3-4,2.5l1.5,2.5,2.5-1.5v-3.5ZM242,221c-.34-2.15,1.82-3.08,3-4.5l-2-3.5-4,3.5c-.21,1,2.37,5.24,3,4.5ZM307,213l-7,2,1,3c2.95.77,2.71-2.68,3-3,.12-.13,2.97.05,3-2ZM372,215l-2-2v2h2ZM399,221c2.57-1.81,7.36-5.03,3.5-8-1.78,1.27-2.34,2.99-3.5,4.5v3.5ZM469,216l-1.5-3-3.5,2.5,1.5,1.5,3.5-1ZM534.5,213l-3.5,3.5.5.5,3.5-3.5-.5-.5ZM124.5,214l-.5.5,2.5,3.5.5-.5-2.5-3.5ZM170.26,214.98c0-.68-.55-1.24-1.24-1.24s-1.24.55-1.24,1.24.55,1.24,1.24,1.24,1.24-.55,1.24-1.24ZM229,214l-2,.5,4,3.5-2-2v-2ZM259,217l-2.5-3-.5.5c.98.71,1.2,1.29,1,2.5h2ZM297.5,214c-.65,0-.65,1,0,1s.65-1,0-1ZM334,214l-3,1.5.5.5,2.5-1v-1ZM384,214h-2v1h2v-1ZM520,214l-3.5,3-2.5,3c2.66.53,1.6-.9,3-2.5.58-.66,3.44-3.07,3-3.5ZM202,217v-2h-1v2h1ZM214,215c-1.82-.38-2.39.98-3.5,2-1.73,1.59-4.37,4.46-1,6,1.85.84,1.83-3.02,3.5-3.5l1-4.5ZM255,215c-4.35-.54-.36,3.8-1,6l3-1.5-2-4.5ZM284,219l-3.5-4c-1.24,1.57-3.77,2.66-3.5,5l7-1ZM338.5,215l-1.5,1.5.5.5,1.5-1.5-.5-.5ZM390,215h-3v.5l1.5,1.5,1.5-2ZM226,216c-2.89-.24-3.63,2.79-5,4.5l2,5.5,4-3.5,1-2-2-4.5ZM266,216h-2v2.5l1.5,1.5,1.5-1.5-1-2.5ZM312,216.5l-6.75,6.75,1,1,6.75-6.75-1-1ZM348.5,216l-4,4,2,2,4-4-2-2ZM367.5,216l-.5.5,1.5,1.5.5-.5-1.5-1.5ZM424,216c-1.21-1.16-4.96,3.67-6,4.5l6.5,5.5,2.5-2.5-3-7.5ZM439,216h-2c.37,1.72-.87,2.36-2,3.5l.5.5,3.5-4ZM479.26,216.98c0-.68-.55-1.24-1.24-1.24s-1.24.55-1.24,1.24.55,1.24,1.24,1.24,1.24-.55,1.24-1.24ZM184,217l1.5,6,2.5-2.5-4-3.5ZM195,219v-2l-2,1.5v.5h2ZM299,223l1-3.5c-1.27-1.2-2.3-3.11-4.5-2.5-1.14.31-1.71,1.29-.5,2.5,1.36,1.36,1.21,3.9,4,3.5ZM335,220l1-2.5-.5-.5-2.5,3h2ZM366,217c-1.22-1.31-6.81,5.64-8,6.5l2.5,4.5,6.5-6.5-1-4.5ZM379.5,217l-5.5,6.5v2l2.5,3.5,9.5-8.5c-.22-3.37-4-2.13-6.5-3.5ZM410,222l5-2.5c-3.09-4.11-5.5-2.72-5,2.5ZM444.5,217l-1.5,1.5.5.5,1.5-1.5-.5-.5ZM177,219c-1.51.42-1.82-.69-3-1l1,4,2-1.5v-1.5ZM200,218h-2v1.5l1.5,1.5h.5v-3ZM253,222c.31-1.76-1.36-3.29-3-4-.31,1.76,1.36,3.29,3,4ZM327.5,218l-1.5,1.5.5.5,1.5-1.5-.5-.5ZM454,229c2.91-2.44,6.67-5.57,9-8.5,1.26-1.59.97-1.03-.5-2.5-1.83,2.25-4.84,4.25-6.5,6.5-.15.2.16.76,0,1-.8,1.16-2.49,1.57-2,3.5ZM483.5,218c-.65,0-.65,1,0,1s.65-1,0-1ZM494.75,217.75l-5.5,5.5,1,1,5.5-5.5-1-1ZM533,218c-2.41,1.57-4.51,3.92-6.5,6-.66.69-2.76,2-2,3,2.18-1.95,4.52-3.25,6.5-5.5.99-1.12,2.39-1.66,2-3.5ZM127.5,219c-.65,0-.65,1,0,1s.65-1,0-1ZM150,219c-.52.62,1.77,5,2.5,5l-1.5-5h-1ZM232.5,219c-.65,0-.65,1,0,1s.65-1,0-1ZM310,229c1.19,1.26,5.9-4.67,7-5.5l-2-4.5-6,6.5,1,3.5ZM503,226c2.41.32,2.98-1.86,4-3.5.5-.79,2.11-2.45,1.5-3.5-.86,1.18-6.69,5.67-5.5,7ZM156,226c2.3.45,2.57-.29,4-1.5.85-.72,3.93-3.49,3-4.5-1,.76-7.75,5.37-7,6ZM195.5,220c-.65,0-.65,1,0,1s.65-1,0-1ZM264,223c.29-1.9-1.1-3.29-3-3-.29,1.9,1.1,3.29,3,3ZM296,226l-3.5-6c-4.06,1.94,2.56,6.95,3.5,6ZM442,220l-3,2.5-1.5,3.5,4.5-6ZM482,220l-5,4.5,2,4.5c.97.92,5.71-2.99,5-5.5-.23-.83-2.69-1.57-2-3.5ZM129.1,220.7l-1.2.6,3.9,7.8,1.2-.6-3.9-7.8ZM172,221l1.5,3,.5-.5-1-2.5h-1ZM181.5,221l-.5.5,1.5,1.5.5-.5-1.5-1.5ZM237,221l-4,2.5,2,3.5,2-.5v-1.5h2l-2-4ZM283,221c-1.44.15-3.13-.23-4.5,0-.38.06-.61.92-1,1-1.05.21-3.1-.62-3.5.5l3.5,4.5,5.5-6ZM330.5,221c-1.46,1.19-8.49,5.69-8.5,6.5l2.5,3.5c1.74-2.34,5.56-4.72,7-7,1.06-1.67.08-1.93-1-3ZM396,221c-3.04-.85-4.91,5.98-4,7l4-2.5v-4.5ZM448,221h-2l2,5h1l-1-5ZM269,222h-2v1h2v-1ZM181,223l-4,2.5,3.5,4.5,2.5-3.5-2-3.5ZM247.5,223l-2.5,3.5c3.7,7.39,7.42.98,2.5-3.5ZM260,227v-2.5l-1.5-1.5-1.5,2.5,3,1.5ZM344,223c-1.9-.29-3.29,1.1-3,3,1.9.29,3.29-1.1,3-3ZM416.5,223c-.65,0-.65,1,0,1s.65-1,0-1ZM471.5,223c-.65,0-.65,1,0,1s.65-1,0-1ZM535.5,223c-1.58,1.22-2.46,2.86-3.5,4.5-.15.23.15.75,0,1-.43.7-1.56,1.29-2,2-.29.46-.71,2.53-1,3-.42.69-1.47,1.29-2,2l-2.5,5.5,9.5-13.5,1.5-4.5ZM188.5,224l-1.5,1.5.5.5,1.5-1.5-.5-.5ZM219,224l-5,4.5c2.15,1.88,3.6,5.32,6,2l-1-6.5ZM288,234l5-4.5-4.5-5.5c-3.09,2.03-.66,3.58-.5,4.5.29,1.64-.2,3.76,0,5.5ZM387.5,224l-4.5,4.5.5.5,4.5-4.5-.5-.5ZM405.5,224c-.48.14-2.77,2.46-2.5,3.5l2.5,2.5,4.5-4.5c-1.02-1.53-2.87-1.96-4.5-1.5ZM445,224c-2.62-.58-2.48,1.76-3,2.5-.48.68-1.84,1.51-2,2-.64,1.92,2.66,2.45,3.5,3.5l3.5-3.5-2-4.5ZM163.5,225c-.65,0-.65,1,0,1s.65-1,0-1ZM204,231l.5-6-2.5,3.5,2,2.5ZM266,225h-2v2l2-2ZM271,225l3.5,6c2.47-1.98.94-1.48,0-3s-.98-3.39-3.5-3ZM301,229c2.06.2,4.2-1.94,4-4l-4,4ZM463.5,225c-1.14,1.19-2.37,2.3-3.5,3.5-.57.61-2.4,1.69-1.5,2.5.98-1.02,2.02-1.98,3-3,.66-.69,2.76-2,2-3ZM171,228c.5-.4-1.75-2.65-3-2-.5.4,1.75,2.65,3,2ZM190.5,226l-2.5,2.5,2.5,2.5h1l1.5-1.5-2.5-3.5ZM232,226c-3.09-.36-2.83,3.14-5,4.5l2.5,4.5,4.5-4.5-2-4.5ZM240.5,226l-3.5,3.5.5.5,3.5-3.5-.5-.5ZM414,226l4.5,7c1.88-2.15,5.32-3.6,2-6l-6.5-1ZM469,226l-7,6.5-2,4.5c2.03-1.4,4.47-3.59,6-5.5.16-.2-.17-.78,0-1,1.11-1.44,3.33-2.27,3-4.5ZM520.5,226c-.65,0-.65,1,0,1s.65-1,0-1ZM162,227l-4,1v1.5l1.5,1.5c1.34-1,1.73-2.54,2.5-4ZM340,229v-2l-2,1.5v.5h2ZM357,227c-1.12-1.19-5.03,3.71-6,4.5l2,3.5,5-4.5-1-3.5ZM374,232l-1-5h-1l1,5h1ZM381,240c1.71.41,1.98-.65,3-1.5,2.92-2.43,4.73-5.3,7-8l-1-3.5-10,9.5,1,3.5ZM476,227l-3,1.5,3.5,4.5c3.52-2.59-.78-3.27-.5-6ZM487,227l-6,6c2.5-.15,5.83-3.48,6-6ZM502,227c-1.85-.39-2.37,1.01-3.5,2-1.89,1.65-5.17,3.91-2,6,1.94-2.51,6.07-4.25,5.5-8ZM154.5,228c-.65,0-.65,1,0,1s.65-1,0-1ZM242.5,228l-3.5,5.5,2.5,3.5,4.5-3.5-3.5-5.5ZM254.5,228l-1.5,1.5,1.5,2.5,1.5-2.5-1.5-1.5ZM263,228h-2v2l2-2ZM308,228l-3,2.5.5,3.5,3.5-2.5-1-3.5ZM314,232l4-3.5-.5-.5c-1.57,1.4-3.96,1.39-3.5,4ZM411.5,228l-4.5,5.5,4.5,6.5c1.55-1.95,5.24-3.9,4.5-6.5l-4.5-5.5ZM168,229h-3v.5l1.5,1.5h1.5v-2ZM268.5,229l-.5,3.5,2.5,2.5c3.41-2.49-.49-4.13-2-6ZM287,237l-1-5.5-1.5-2.5-2.5,2.5v1l5,4.5ZM371,229l-4,3.5-1,2,2.5,3.5,3.5-3.5-1-5.5ZM397,239l6-5.5-2-4.5-6,5.5,2,4.5ZM427,231v-2h-1v2h1ZM451.5,229c-.65,0-.65,1,0,1s.65-1,0-1ZM527,229l-5,3.5v3.5c1.31-.25,5.31-6.7,5-7ZM133.5,230c-.65,0-.65,1,0,1s.65-1,0-1ZM201,234c.24-1.88,0-3.47-2-4-.24,1.88,0,3.47,2,4ZM319.5,230l-3.5,4.5,2.5,3.5,4.5-4.5-3.5-3.5ZM338,230c-1.02-1.02-5.29,3.61-6,4.5-.16.2.17.78,0,1-1.22,1.59-4.33,2.61-1.5,4.5,2.27-2.04,3.74-4.21,5.5-6.5.89-1.16,2.44-1.59,2-3.5ZM382,230c-2.02.37-1.73,2.49-3,3.5l.5.5c1.2-1.33,2.89-2.1,2.5-4ZM165,238l2-4.5-2.5-2.5-3.5,2.5v2l5,9.5c.77-.05,1.63.48,2-.5.52-1.39.46-1.35,1.5-2.5,1.1-1.22,2.38-2.3,3.5-3.5l-2-3.5c-2.21,1-2.98,3.81-6,3ZM190,234l-2.5-3-.5.5c.98.71,1.2,1.29,1,2.5h2ZM250,235l3-1.5-1.5-2.5-1.5,1.5v2.5ZM301,231h-2v1h2v-1ZM471.5,231l-10.5,11.5,2.5,3.5c1.21.36,1.8-.89,2.5-1.5,1.83-1.59,8.57-8.01,8-10l-2.5-3.5ZM216,236c.39-1.9-1.3-2.67-2.5-4l-.5.5c1.27,1.01.98,3.13,3,3.5ZM259,232c-1.5-.32-2.06.44-3,1.5v2.5c1.33-.22,3.83-3.17,3-4ZM423.75,231.75l-4.5,4.5,1,1,4.5-4.5-1-1ZM438.4,231.16l-2.35,1.41,2.78,4.63,2.35-1.41-2.78-4.63ZM501,244c1.69.28,3.1-1.31,4-2.5.15-.2-.17-.76,0-1,1.83-2.62,4.69-5.09,5-8.5-2.55,2.08-6.03,4.94-8,7.5-1.3,1.69-1.13,2.49-1,4.5ZM172.5,233c-.65,0-.65,1,0,1s.65-1,0-1ZM186,238c.27-2.75.1-5.21-3-5-.48,1.21,2.38,5.77,3,5ZM212,243l2-4.5-3.5-5.5-3.5,3.5,1,3,4,3.5ZM234.5,233c-.65,0-.65,1,0,1s.65-1,0-1ZM265,233c-.39,1.9,1.3,2.67,2.5,4l.5-.5c-1.27-1.01-.98-3.13-3-3.5ZM431.5,233l-1.5,1.5.5.5,1.5-1.5-.5-.5ZM196,234l1.5,3,.5-.5-1-2.5h-1ZM280,242c.86.82,4.45-2.02,4-3.5l-5-4.5-.5,2h-1.5l3,6ZM298,234c-1.84-.39-2.37,1.01-3.5,2-1.81,1.59-4.06,3.27-3.5,6,3.23-1.82,5.06-5.01,7-8ZM304,236l-2-2v2h2ZM310,238l2-3.5-.5-.5-3.5,4h2ZM348,239c.92,1.02,6.35-3.08,2.5-5-1.02-.29-2.52,1.23-3,2-.67,1.07.97,1.4.5,3ZM480,236v-2l-2,1.5v.5h2ZM223,237v-2h-1v2h1ZM227,238l-1.5-3-.5.5,1,2.5h1ZM237,235l-4,4.5c-.49,2.22,1.06,3.06,2.5,4.5l4.5-3.5-3-5.5ZM356.5,235l-1.5,1.5.5.5,1.5-1.5-.5-.5ZM493,235l-7,7.5,2.5,2.5c1.78-2.32,3.19-4.63,5.5-6.5l-1-3.5ZM510,254l2-5.5c2.39-1.19,2.94-2.72,4-4,1.66-2,3.43-3.92,5-6l-2.5-3.5-7.5,11.5c-.53,2.15-2.62,3.49-3,6-.3,1.97.41,1.59,2,1.5ZM148.5,236l-.5.5,2.5,3.5.5-.5-2.5-3.5ZM249,236c-1.32-1.35-5.92,4.5-6,6,1.13,1.08,7.09-4.89,6-6ZM255,236h-2v3h2v-3ZM376.5,236c-.65,0-.65,1,0,1s.65-1,0-1ZM405,236c-.77.05-1.63-.48-2,.5-.52,1.39-.46,1.35-1.5,2.5-1.1,1.22-2.38,2.3-3.5,3.5l3.5,6.5c1.13-1.64,5.99-3.72,6.5-5.5.77-2.68-2.96-4.83-3-7.5ZM452,236c-1.13-1.06-5.39,3.64-5,4,1.94.55,2.34-1.3,3.5-2,.89-.54,2.34.58,1.5-2ZM192,244c2.03-.58,5.75-5.54,2.5-7-1.96-.88-1.45,2.49-3,3l.5,4ZM301,237c-2.24-.32-3.34,2.13-5,3.5l.5.5c1.48-1.26,3.75-1.7,4.5-4ZM312,244l5-4.5-2.5-2.5-2.5,1.5v5.5ZM394,237c-1.71-.41-1.98.65-3,1.5-2.85,2.38-4.32,5.53-7,8l2,3.5c1.8,1.71,7.47-7.51,9-8.5l-1-4.5ZM437,241c.24-1.88,0-3.47-2-4-.24,1.88,0,3.47,2,4ZM261,245c3.92-2,3.95-4.42.5-7l-2.5,2.5,2,4.5ZM347,241c.65-1.25-1.6-3.5-2-3-.65,1.25,1.6,3.5,2,3ZM365,238c-2.56-.03-4.7,2.97-5.5,5-.55,1.41-.3,2.6,1,3,1.99.61,3.23-4.28,5-5l-.5-3ZM477,238c-1.84-.39-2.38,1.01-3.5,2-1.44,1.27-3.27,3.05-4.5,4.5-.16.19.17.8,0,1-.6.73-4.47,4.08-4,4.5l4-2.5,8-9.5ZM217,252c-.05-3.71,6.99-6.03,6-9.5-.21-.72-2.87-2.51-3.5-3.5l-1.5,6c-1.8.46-.19-3.06-2.5-2-.29.13-2.45,2.33-2.5,2.5-.76,2.64,2.64,3.2,2,6l2,.5ZM267,239h-2v1h2v-1ZM279,246l-3.5-7c-2,1.71-1.74,1.52-.5,3.5,1.02,1.64,1.59,3.82,4,3.5ZM354,239c-1.9-.39-2.67,1.3-4,2.5l1.5,1.5c1.34-1,1.73-2.54,2.5-4ZM373.5,239l-2.5,2.5.5.5,2.5-2.5-.5-.5ZM377,239c-.08,2.14-.41,3.73,1.5,5l1.5-1.5v-1l-3-2.5ZM179,247l2-2.5-5-4.5,2,3.5,1,3.5ZM252,240c-1.82-.38-2.39.99-3.5,2-1.87,1.7-3.86,2.9-1,5,2.03-1.93,4.36-3.95,4.5-7ZM430,248l2-3.5v-1l-2.5-3.5-3.5,5.5,4,2.5ZM151.5,241l-.5.5,1.5,1.5.5-.5-1.5-1.5ZM297,247l3.5-6c-1.75,1.36-3,4.2-5.5,4l2,2ZM328,241h-2l-2,4c1.73.7,4.93-3.07,4-4ZM336,251c1.84.39,2.37-1.01,3.5-2,1.76-1.55,3.27-3.42,5-5l-.5-3c-1.72,1.05-3.76,2.94-5,4.5-.16.2.17.79,0,1-1.11,1.44-3.33,2.27-3,4.5ZM175,242c-1.19-1.25-5.86,4.62-7,5.5l7,12c1.66.47,1.67,4.36,3.5,3.5.3-.14,2.45-2.33,2.5-2.5.18-.63-.19-1.41,0-2,.31-.96,1.52-1.53,1-4-1.25-.54-.52-3.42-2.5-2.5-1.59.74-2.35,4-5.5,3l4-5.5c-.3-2.98-3.64-4.39-3-7.5ZM257.88,241.97l-1.47.88,2.78,4.63,1.47-.88-2.78-4.63ZM297,250c2.22-.05,4.76-2.91,6-4.5.61-.78,2.03-2.46,1.5-3.5l-7.5,8ZM374,242l1,4.5-.5,1.5,1.5-1.5v-3l-2-1.5ZM230.5,243c-.65,0-.65,1,0,1s.65-1,0-1ZM318.75,242.75l-4.5,4.5,1,1,4.5-4.5-1-1ZM443,246c.4.5,2.65-1.75,2-3-.4-.5-2.65,1.75-2,3ZM202,244h-2v3h2v-3ZM208.5,244c-.65,0-.65,1,0,1s.65-1,0-1ZM242,244h-2v2l2-2ZM265.5,244l-1.5,1.5.5.5,1.5-1.5-.5-.5ZM287.49,243.69l-2.56,4.26,1.47.88,2.56-4.26-1.47-.88ZM348.5,244l-.5.5,1.5,1.5.5-.5-1.5-1.5ZM363,250l4-2.5,1.5-3.5-5.5,6ZM157.5,245c-.65,0-.65,1,0,1s.65-1,0-1ZM234,248c.65-1.25-1.6-3.5-2-3-.65,1.25,1.6,3.5,2,3ZM255,254c-.37-2.07,1.72-3,3-4.5l-4-4.5-4,6.5,5,2.5ZM270,245l3.5,6c4.06-1.94-2.56-6.95-3.5-6ZM310,249c.82-.82-2-4.46-3.5-4l-6.5,7.5,2,3.5,6-5.5v-1.5h2ZM397,245c-2.62-.65-2.56,1.96-3,2.5-1.81,2.2-4.61,3.73-5.5,6.5l.5,3c1.81,1.88,8.13-5.58,10-5l-2-7ZM458,254c-.34-2.15,1.82-3.08,3-4.5l-2-4.5-5,5.5v1c1.26,1.11,2.04,2.87,4,2.5ZM497,245c-.26,2.56-2.58,4.69-4,6.5-1.53,1.95-1.24,1.94.5,3.5.9-1.72,6.19-6.62,6.5-7.5.48-1.37-1.62-2.91-3-2.5ZM345.5,246c-1.93,2.78-3.95,5.25-6.5,7.5l2.5,3.5c1.86-3.31,8.06-7.52,4-11ZM355,251c1.9.39,2.67-1.3,4-2.5l-1.5-2.5c-1.71,1.57-3.01,2.5-2.5,5ZM371,248c-2.56-.18-4.01,2.93-6,4.5l2.5,3.5c2.57-2.65,7.93-6.61,4-10l-.5,2ZM221,262c2.62.65,2.56-1.96,3-2.5,1.45-1.76,3.48-3.26,5-5l-2-7.5c-1.91,1.37-4.66,3.65-6,5.5-.15.21.16.76,0,1-.46.68-1.87,1.53-2,2-.75,2.61,2.89,3.45,2,6.5ZM239,247h-2v1h2v-1ZM323,247c-2.68-.44-2.62,2.03-4,3.5l.5.5,3.5-4ZM420,256c1.14,1.28,5.98-4.73,7-5.5l-2-3.5-5,4.5v4.5ZM440.5,247c-.65,0-.65,1,0,1s.65-1,0-1ZM484,247l-5,4.5c-.62,1.49-2.07,3.74-3,5-1.07,1.45-3.35,2.25-3,4.5l10-9.5,1-4.5ZM160,248h-2l1,2.5,6,7.5c-.24-3.91-4.57-6.52-5-10ZM198,248l-3,3c1.58-.32,3.14.9,3,2.5l3,2.5-2-3.5-1-4.5ZM205,248l-3,1.5,1.5,2.5,1.5-1.5v-2.5ZM269,248l-4,3.5,4.5,4.5,2.5-2.5-3-5.5ZM293.5,248c-.65,0-.65,1,0,1s.65-1,0-1ZM385,254l-2.5-6c-3.06,2.65-1.69,6.72,2.5,6ZM183,252v-3h-.5l-1.5,1.5,2,1.5ZM211,249c-.52.62,1.77,5,2.5,5l-1.5-5h-1ZM432.5,249l-1.5,1.5.5.5,1.5-1.5-.5-.5ZM515.5,249c-.65,0-.65,1,0,1s.65-1,0-1ZM510,280c.87.89,3.38-1.68,4-2.5,3.81-5.05,6.59-10.8,11-16l5-12.5-8,10.5c-3.11,5.65-6.7,11.83-10,17-.74,1.16-2.52,1.55-2,3.5ZM236,252v-2h-1v2h1ZM244,250h-2.5l-1.5,1.5,1,2.5c1.33-.22,3.83-3.17,3-4ZM283,252v-2h-1v2h1ZM292,250c-1.5-.32-2.06.44-3,1.5v2.5c1.33-.22,3.83-3.17,3-4ZM313,250l-6,5.5-2,3.5c1.78-.37,8.41-8.55,8-9ZM329.5,250c-.65,0-.65,1,0,1s.65-1,0-1ZM438.5,250c-.65,0-.65,1,0,1s.65-1,0-1ZM332,256c1.5.32,2.06-.44,3-1.5v-2.5c-1.33.22-3.83,3.17-3,4ZM354,254v-2h-1v2h1ZM362,252c-2.06-.2-4.2,1.94-4,4l4-4ZM438,252h-2v1h2v-1ZM464,252c-1.51-1.34-5.5,4.18-5,6l5-6ZM503.5,252l-3.5,3.5-1.5,3.5,5-7ZM537.5,252c-.65,0-.65,1,0,1s.65-1,0-1ZM234.5,253c-.65,0-.65,1,0,1s.65-1,0-1ZM240,257c.36-1.76-1.36-2.24-1-4l-2,1.5,3,2.5ZM286,256v-3h-.5l-1.5,1.5v1.5h2ZM379,253l-2,1.5,4,3.5-2-5ZM435,256v-1.5l-2-1.5v3h2ZM453,260l2-3.5-2.5-3.5-3.5,3.5,4,3.5ZM193.5,254c-.65,0-.65,1,0,1s.65-1,0-1ZM247,262c.33.37,3.64-2.21,3-4.5-.23-.83-2.69-1.57-2-3.5-.33-.37-3.64,2.21-3,4.5.23.83,2.69,1.57,2,3.5ZM291,257c1.9.29,3.29-1.1,3-3l-3,3ZM400,254l-3.5,2-5.5,4.5c1.78,2.11,1.38,1.44,3,0,2.09-1.86,4.42-4.19,6-6.5ZM209,262c.69-2.44-.76-2.74-1.5-4-.67-1.14-.82-2.73-2.5-3-.51,2.24,2.23,2.65,2,4.5l2,2.5ZM263,255c-2.44-.74-2.28,1.62-3,3.5l4.5,3.5c3.9-2.94-1.83-3.85-1.5-7ZM278.5,255l-1.5,1.5.5.5,1.5-1.5-.5-.5ZM301,259c.83-.83-1.67-3.78-3-4l1,4h2ZM315.5,255c-.65,0-.65,1,0,1s.65-1,0-1ZM325.5,255c-.65,0-.65,1,0,1s.65-1,0-1ZM352,255l-5,4.5-2,3.5c.96.95,4.38-2.66,5-3.5.15-.2-.16-.76,0-1,.8-1.16,2.49-1.57,2-3.5ZM364,255l-4,3.5,2.5,3.5,3.5-3.5-2-3.5ZM507,255l-3,2.5-2.5,6.5c1.35-.98,6.36-7.97,5.5-9ZM238,259c.65-1.25-1.6-3.5-2-3-.65,1.25,1.6,3.5,2,3ZM339,262l.5-3-3-3c-3.19,2.25-.84,5.83,2.5,6ZM375,266c-.26-2.97,3.84-3.5,3-6.5-.23-.83-2.69-1.57-2-3.5l-5,4.5,1,3,3,2.5ZM386,260l2-1.5-1.5-2.5-1.5,1.5,1,2.5ZM531,264l3-3.5,1.5-4.5-2.5,3.5-2,4.5ZM195.5,257l-.5.5,1.5,1.5.5-.5-1.5-1.5ZM230.5,257c-1.33,1.57-3.27,2.92-4.5,4.5-.61.78-2.03,2.46-1.5,3.5l4.5-4.5,1.5-3.5ZM280,264c2.56-.72,6.07-5.95,2.5-7-.97-.29-3.34,1.95-3.5,2.5-.55,1.88,1.29,2.75,1,4.5ZM331,257c-2.67-.48-1.6.53-2.5,2-.6.98-2.01,1.19-1.5,3,2.67.48,1.6-.53,2.5-2,.6-.98,2.01-1.19,1.5-3ZM356.5,257c-.65,0-.65,1,0,1s.65-1,0-1ZM432,257c-1.55-1.55-5.75,5.91-8,5l1.5,3,4.5-4.5,2-3.5ZM191.5,258l-.5.5,3.5,4.5.5-.5c-1.16-1.51-1.72-3.23-3.5-4.5ZM297,264l1-3.5-2.5-2.5-2.5,2.5,4,3.5ZM316.5,258l-3.5,3.5-1.5,3.5c1.04-1.23,2.54-2.27,3.5-3.5.61-.78,2.03-2.46,1.5-3.5ZM415.5,258c-.25.07-2.12,2-2.5,2.5-.18.24.15.83,0,1-1.5,1.74-3.6,3.25-5,5-1.26,1.59-.97,1.03.5,2.5l9.5-9.5c-.74-.67-1.32-1.86-2.5-1.5ZM490,258l-6,5.5-5,7.5c1.08,1.02,5.16-3.55,6-4.5.16-.18-.17-.81,0-1,1.97-2.26,5.56-4.03,5-7.5ZM195,280l-2-9.5-5.5-11.5c-1.86,1.24-1.1,1.88-.5,3.5,1.75,4.73,5.34,9.52,6,15l2,2.5ZM217.18,258.79l-1.47.88,3.49,5.81,1.47-.88-3.49-5.81ZM236,261v-2h-1v2h1ZM289.5,259c-.65,0-.65,1,0,1s.65-1,0-1ZM454,263c1.64-.71,3.31-2.24,3-4-1.64.71-3.31,2.24-3,4ZM540.5,259c-.65,0-.65,1,0,1s.65-1,0-1ZM257.5,260c-3.19.94.73,6.84,2,8l3.5-3.5-5.5-4.5ZM302,263c.4.5,2.65-1.75,2-3-.4-.5-2.65,1.75-2,3ZM348,267c.94.85,3.36-1.66,4-2.5.15-.2-.17-.76,0-1,.8-1.16,2.49-1.57,2-3.5l-6,7ZM384,263v-1.5l-2-1.5v3h2ZM448,265c.52-.62-1.77-5-2.5-5l1.5,5h1ZM166.5,261l-.5.5,3.5,4.5.5-.5-3.5-4.5ZM204,269c.34-3.53-2.17-5.84-4.5-8l.5,4.5,4,3.5ZM233,261l-7,6.5,1,3.5,5.5-5,.5-5ZM243,263l-2,.5,3,3.5-1-4,3,1.5-2.5-3.5-.5,2ZM332,269c2.7.44,2.63-2.04,4-3.5l-2.5-4.5-4.5,3.5c1.18,1.42,3.34,2.35,3,4.5ZM361,264l-3-3c-.29,1.9,1.1,3.29,3,3ZM503,328c3.62-2.32,3.68-7.9,7-10.5,8.73-17.98,18.29-35.02,28.5-52.5.69-1.18,1.59-2.62,1.5-4l-4,4.5c-6.78,12.62-15.62,24.74-22,38-.32.67.54,2.23-1,3l-10,21.5ZM278,269c-.17-2.01,1.24-1.77.5-4-.4-1.21-.96-2.2-2-3l-2.5,3.5,4,3.5ZM316,269c-.53-1.91,1.19-2.27,2-3.5.53-.8,2.09-2.45,1.5-3.5l-5.5,6.5,2,.5ZM389.5,262c-.65,0-.65,1,0,1s.65-1,0-1ZM481.5,262l-2.5,2.5.5.5,2.5-2.5-.5-.5ZM185,263c-4.27-.53-.59,3.51-1,5.5,2.68,2.22,4.07,5.03,5,8l2.5,4.5-1.5-7.5-5-10.5ZM286.5,263l-2.5,2.5.5.5,2.5-2.5-.5-.5ZM294,266c.65-1.25-1.6-3.5-2-3-.65,1.25,1.6,3.5,2,3ZM326,265v-2h-1v2h1ZM368,271c1.96.37,2.74-1.39,4-2.5l-2-5.5-4,3.5,2,4.5ZM443,269c1.08.32,2.76-.66,3-1.5.46-1.63-2.66-2.42-2-4.5l-3,2.5,2,3.5ZM509,274l2-4.5,3.5-6.5-7.5,10.5,2,.5ZM301,264c-1.9-.29-3.29,1.1-3,3,1.9.29,3.29-1.1,3-3ZM357,264c-2.62-.65-2.55,1.96-3,2.5-1.58,1.93-4.77,3.05-1.5,5.5l5.5-4.5-1-3.5ZM381,264c-2.24-.32-3.34,2.13-5,3.5l.5.5c1.22-2,3.87-1.81,4.5-4ZM388.5,264c-.65,0-.65,1,0,1s.65-1,0-1ZM452.5,264c-.65,0-.65,1,0,1s.65-1,0-1ZM471,264c-2.81-.57-1.51.81-2.5,2-.64.76-2.78,1.95-2,3l4.5-5ZM541.5,264c-.65,0-.65,1,0,1s.65-1,0-1ZM196.5,265c-.65,0-.65,1,0,1s.65-1,0-1ZM240,265l-2,.5v3l3,3.5c-.4-1.91,1.68-2.12.5-4-.62-.99-2-1.19-1.5-3ZM341,268c1.9.29,3.29-1.1,3-3l-3,3ZM385,270c3.37-1.25,2.42-5.19-1-5-.11,1.86,1.54,2.83,1,5ZM530.5,265c-.65,0-.65,1,0,1s.65-1,0-1ZM216,272l-3.5-6c-.75,1,1.3,2.92,1.5,3.5.49,1.41-1.18,3.05,2,2.5ZM257,272l-2-3.5-3-2.5c-1.35,2.07,3.88,7.12,5,6ZM292,270c.82-.82-2.01-4.46-3.5-4l-3.5,4.5,2.5,3.5c1.2-1.33,2.89-2.1,2.5-4h2ZM306,270c2.06.2,4.2-1.94,4-4l-4,4ZM324,266c-2.44-.32-2.94,1.86-4,3.5-.46.71-2.23,3.26-2,3.5l4-3.5,2-3.5ZM398.5,266l-1.5,1.5.5.5,1.5-1.5-.5-.5ZM422,269l-2-3c-.24,3.21-4.16,5.08-6,7.5l3.5-1.5c1.46-1.09,2.3-3.38,4.5-3ZM478.5,266c-.65,0-.65,1,0,1s.65-1,0-1ZM171,269v-2h-1v2h1ZM181.5,267c-.65,0-.65,1,0,1s.65-1,0-1ZM197.5,267l-.5.5c1.16,1.51,1.72,3.23,3.5,4.5l.5-.5-3.5-4.5ZM329,267l-2,.5,4,4.5c.4-2.43-2.53-2.74-2-5ZM381.5,267c-1.46,1.7-4.19,3.09-3.5,5.5.05.17,2.32,2.44,2.5,2.5.96.3,3.34-1.95,3.5-2.5.48-1.6-1.25-4.38-2.5-5.5ZM450,269v-2h-1v2h1ZM529.5,267c-.65,0-.65,1,0,1s.65-1,0-1ZM197,276l1.5-2c-1.11-2.06-2.42-4.16-4-6l2.5,8ZM221.5,268c-.65,0-.65,1,0,1s.65-1,0-1ZM502,270v-2h-1v2h1ZM526,268c-1.5.38-2.27,2.21-3,3.5-.3.53-.7,2.47-1,3-.4.7-1.62,1.31-2,2-2.67,4.86-4.29,10.63-8,15l-1.5,4.5,8.5-12.5,7-15.5ZM235,281c-.68-2.11,2.75-4.64,3-5.5.62-2.16-2.15-4.15-2-6.5l-6,5.5,5,6.5ZM269.5,269c-2.52,1.89-3.41,4.46-5.5,6.5l3.5,5.5,6.5-7.5-4.5-4.5ZM296.5,269c-.65,0-.65,1,0,1s.65-1,0-1ZM347,269h-1.5l-1.5,1.5,1.5,1.5,1.5-1.5v-1.5ZM431.5,269l-2.5,2.5.5.5,2.5-2.5-.5-.5ZM440,273l2-1.5v-1l-1.5-1.5h-.5v4ZM207,270c-4.07,1.53-.21,5.46,1.5,7l-1.5-7ZM254,276l-4-6c-.14,1.46.86,2.71,1.5,4,.8,1.62-.04,2.43,2.5,2ZM327,281l3-5.5-4.5-5.5c-1.99,1.87-4,3.68-4.5,6.5,1.04.83,4.79,5.66,6,4.5ZM337,274c1.64-.71,3.31-2.24,3-4-1.64.71-3.31,2.24-3,4ZM364.4,269.16l-2.06,1.24,3.26,5.44,2.06-1.24-3.26-5.44ZM406.25,269.25l-4.75,4.75,1,1,4.75-4.75-1-1ZM448,270h-2v3l2-1.5v-1.5ZM476,270c-2.31-.91-5.75,5.1-5,6,2.55-1.07,3.37-3.93,5-6ZM225.24,270.44l-2.24.56,1,4,2.24-.56-1-4ZM289,278l5-3.5-.5-3.5-4.5,7ZM302,274c1.9.29,3.29-1.1,3-3l-3,3ZM311,275l2-3.5-.5-.5c-1.2,1.33-2.89,2.1-2.5,4h1ZM434,280l4-4.5-1-4.5-4,4.5,1,4.5ZM483,277l3-2.5,2-3.5-5,6ZM185,300c-1.21-5.54-4.2-10.54-7-15.5-.74-1.32-1.34-1.92-2-3-.28-.46-.83-2.28-1-3l-5.5-6.5,2.5,5.5c2.99,6.04,6.87,12.6,10,19l3,3.5ZM348,277c4.14.06,4.14-5.06,0-5l-1,2.5,1,2.5ZM492,288c-.27-2.62,1.16-4.91,3-6.5l4-9.5c-3.4,3.28-6.35,7.25-8,11.5-.36.94-.96.66-1,3-.04,2.01.07,1.56,2,1.5ZM250,275l-2-2v2h2ZM285,277v-2.5l-1.5-1.5-1.5,2.5,3,1.5ZM339,278c2.65.35,3.74-2.8,4-5-1.42.44-4.95,4.05-4,5ZM362,273l-4,4.5c-.49,2.22,1.06,3.06,2.5,4.5l3.5-3.5-2-5.5ZM376,273c-.82-.82-4.45,2.01-4,3.5,2.17,1.36,1.91,4.86,5,4.5l2-3.5c-1.18-1.42-3.34-2.35-3-4.5ZM477.5,273l-1.5,1.5.5.5,1.5-1.5-.5-.5ZM426,274c-2.71,2.11-5.81,4.89-8,7.5-.16.19.17.8,0,1-1.67,2.04-6,4-2.5,6.5l9.5-10.5,1-4.5ZM443.6,273.16l-2.56,4.26,1.47.88,2.56-4.26-1.47-.88ZM448.5,274c-.65,0-.65,1,0,1s.65-1,0-1ZM203.4,274.16l-1.47.88,4.68,7.79,1.47-.88-4.68-7.79ZM223,275h-2c.31,1.18,1.42,1.49,1,3h1v-3ZM246,286c-.81-2.12,4-4.73,4-5.5l-4.5-5.5-3.5,3.5,2,7,2,.5ZM316.75,274.75l-4.5,4.5,1,1,4.5-4.5-1-1ZM417,275c-3.16,1.96-6,4.27-9,6.5,2.14,3.43,5.49-1.29,7-3,.99-1.13,2.39-1.66,2-3.5ZM273,280c1.64-.71,3.31-2.24,3-4-1.64.71-3.31,2.24-3,4ZM390.5,276c-.65,0-.65,1,0,1s.65-1,0-1ZM201,277l-3,2.5,1,5,2.5,4.5,3.5-4.5-4-7.5ZM300,277l-3,2.5-2,3.5,3-2.5,2-3.5ZM305,280c1.9.29,3.29-1.1,3-3l-3,3ZM344,277c.19,2.83-4.01,3.43-.5,6,2.45-2.17,6.01-5.2.5-6ZM399.5,277l-1.5,1.5.5.5,1.5-1.5-.5-.5ZM191,301c.29-1.68-.44-3.01-1-4.5-1.55-4.14-4.14-7.77-6-12l-5-6.5,9,19.5,3,3.5ZM229,278l-2,.5,5,6.5c-.07-2.67-3.3-4.31-3-7ZM250.5,278c-.65,0-.65,1,0,1s.65-1,0-1ZM319,289c3.12.34,2.81-3.13,5-4.5v-1c-1.45-1.96-2.84-5.46-6-5.5.34,2.15-1.82,3.08-3,4.5l4,6.5ZM371,278c-1.43-.39-3.4,1.08-3,2.5l3.5,5.5,2.5-2.5-3-5.5ZM445.5,278c-.65,0-.65,1,0,1s.65-1,0-1ZM470,278c-.91-.87-3.37,1.67-4,2.5-.17.22.16.8,0,1-1.13,1.43-3.32,2.28-3,4.5l5-4.5,2-3.5ZM477,285c1.05,1.17,8.01-4.76,3.5-7-.93,1.04-4.65,5.72-3.5,7ZM261.5,279c-.65,0-.65,1,0,1s.65-1,0-1ZM273,291l8-8.5-2.5-3.5c-1.85,2.75-4.23,5.21-6,8-1.19,1.87.9,2.09.5,4ZM338,282v-3h-1v3h1ZM387,283l2-3.5-.5-.5-3.5,4h2ZM440,279c-1.76-.31-3.29,1.36-4,3,1.76.31,3.29-1.36,4-3ZM165.5,280l1.5,3.5,11.5,14.5-1.5-3.5-11.5-14.5ZM288,280h-1.5l-1.5,2h3v-2ZM432,283c.29-1.9-1.1-3.29-3-3v3h3ZM487.5,280c-.65,0-.65,1,0,1s.65-1,0-1ZM504,280l-9,12.5-7,11-1.5,4.5,6.5-9.5,9-13,2-5.5ZM219,284v-1.5l-2-1.5v3h2ZM227,289l3-1.5-4.5-6.5c-2.56,1.58-.15,3.08.5,4.5.46,1.01,1.03,2.37,1,3.5ZM309,285c1.64-.71,3.31-2.24,3-4-1.64.71-3.31,2.24-3,4ZM357,281l-4,2.5,2,3.5,3-2.5-1-3.5ZM366,290c1.42.39,3.41-1.08,3-2.5-1.54-1.8-1.18-4.81-3.5-6.5l-2.5,4.5c1.18,1.42,3.34,2.35,3,4.5ZM511,281h-2v1h2v-1ZM511,286c2.19-.63,2-3.28,4-4.5l-.5-.5c-1.37,1.66-3.82,2.76-3.5,5ZM191.5,282l1.5,3.5,2.5,3.5-1.5-3.5-2.5-3.5ZM197,284v-2h-1v2h1ZM258.5,282c-2.47,1.98-.94,1.49,0,3,.64,1.04,1.21,3.51,3,3l.5-3.5-3.5-2.5ZM302,287l2-5c-1.84.77-6.72,5.46-2,5ZM425,286c1.64-.71,3.31-2.24,3-4-1.64.71-3.31,2.24-3,4ZM442.5,282c-.65,0-.65,1,0,1s.65-1,0-1ZM269.5,283c-.65,0-.65,1,0,1s.65-1,0-1ZM331,288c1.68.32,2.52-.89,3.5-2,1.44-1.62,2.11-1.22,0-3l-3.5,5ZM340.5,283l-1.5,1.5,1.5,2.5,1.5-2.5-1.5-1.5ZM347.5,283l-1.5,1.5.5.5,1.5-1.5-.5-.5ZM448.5,283l-1.5,1.5.5.5,1.5-1.5-.5-.5ZM239,284l-3,2.5,1,3.5c1.21.28,1.24-.98,1.5-2,.35-1.38.77-2.53.5-4ZM243,289c.51-.64-1.78-5-2.5-5l-.5.5c1.63,1.28.34,3.91,3,4.5ZM284,284l-7,6.5-2,3.5c1.84.39,2.37-1.01,3.5-2,2.38-2.09,5.24-4.69,5.5-8ZM293.5,284c-.65,0-.65,1,0,1s.65-1,0-1ZM406,283.5l-4.5,4.5,2.5,2.5,4.5-4.5-2.5-2.5ZM486,284h-2c.37,1.72-.87,2.36-2,3.5l.5.5,3.5-4ZM475,340c.1-2.31,1.83-4.44,3-6.5,8.32-14.65,17.76-30.18,27-44,1.21-1.81,3.82-2.4,3-5.5-.28-.33-2.63,1.9-3,2.5-10.31,16.5-20.83,33.34-30,50-.38.68-2.27,3.27-2,3.5h2ZM313.5,285l-2.5,2.5c1.49.69,4.65,7.5,5.5,7.5l2.5-3.5-5.5-6.5ZM382,289l2-3.5-.5-.5c-1.2,1.33-2.89,2.1-2.5,4h1ZM476,285l-5,4.5-3,4.5c1.12.99,5.64-3.98,6.5-5,1.21-1.43,1.95-1.7,1.5-4ZM211,286l-2,1.5,4,3.5-2-5ZM223,298l3-5.5c-1.93-2.23-2.19-6.46-6-6.5l-1,4.5c1.21,1.23,1.33,3.34,2,5,.39.97.36,2.35,2,2.5ZM256,293l3-2.5c-1.16-1.51-1.72-3.23-3.5-4.5l-2.5,2.5c1.18,1.42,3.34,2.35,3,4.5ZM292,288v-2l-2,1.5v.5h2ZM350,286l-2,4.5,2.5,1.5,3.5-3.5-4-2.5ZM433.5,286c-.65,0-.65,1,0,1s.65-1,0-1ZM455.5,286c-.85,1.06-2.25,1.95-3,3-.39.54-1.54,2.38-1,3,.85-1.06,2.25-1.95,3-3,.39-.54,1.54-2.38,1-3ZM308,287c-1.73-.7-4.93,3.07-4,4h2l2-4ZM337.5,287l-4,4,2,2,4-4-2-2ZM362,287c-.82-.82-4.45,2.01-4,3.5l4.5,4.5,2.5-3.5c-1.18-1.42-3.34-2.35-3-4.5ZM427.5,287l-8.5,6.5,2.5,2.5c.73-.88,1.83-1.61,2.5-2.5.4-.53,1.35-2.05,2-3,.54-.8,2.08-2.45,1.5-3.5ZM442,291c2.06.2,4.2-1.94,4-4l-4,4ZM295,294l3-2.5,1-3.5c-1.71.26-1.8,1.89-2.5,3-.62.99-2,1.19-1.5,3ZM486,333c-.11-2.34,2.81-4.56,4-6.5,6.81-11.14,11.32-23.38,19-34l1-4.5-13,18.5-10,16-2,5-4,5-.5,2.5,3-3,2.5,1ZM208,289c-2.33-.28-3.42,2.24-5,3.5l4.5,5.5,2.5-3.5-2-5.5ZM235,291v-2h-1v2h1ZM327,297c.1-3.43,5.68-4.57,1.5-8l-4.5,5.5,3,2.5ZM409,299c-.41-1.57.4-1.64,1-2.5,1.15-1.63,2.67-3.49,4-5l-2.5-2.5-.5,2c-2.24-.32-3.34,2.13-5,3.5-.21,1,2.37,5.24,3,4.5ZM430,296c2.53.32,2.85-1.89,4-3.5.83-1.16,2.47-1.57,2-3.5-.31-.35-7.11,5.75-6,7ZM490,291l-2-2v2h2ZM240,290l-1,2.5.5.5,1.5-3h-1ZM309.5,290l-2.5,3.5c2.3,1.86,3.74,4.2,5.5,6.5l1.5-3.5-4.5-6.5ZM392,292v-2h-1v2h1ZM235,298l-3.5-7v3l3.5,4ZM251,300l4-4.5c-1.38-1.75-2.14-4.75-5-4.5l-2,3.5,3,5.5ZM281,299c.94.85,3.36-1.66,4-2.5.17-.22-.16-.8,0-1,1.13-1.43,3.32-2.28,3-4.5-3.35,1.86-4.58,5.22-7,8ZM400.5,291c-.65,0-.65,1,0,1s.65-1,0-1ZM300,299c-.35-1.99,1.4-2.76,2.5-4,1.44-1.62,2.11-1.22,0-3l-4,5,1.5,2ZM340.5,292l-2.5,2.5.5.5,2.5-2.5-.5-.5ZM346,296l2-1.5v-1c-.94-1.06-1.5-1.82-3-1.5l1,4ZM357,292l-4,4.5,3.5,4.5,3.5-4.5c-1.18-1.42-3.34-2.35-3-4.5ZM399,292h-2c-.08,2.14-.41,3.73,1.5,5l1.5-2.5-1-2.5ZM479.5,292c-.65,0-.65,1,0,1s.65-1,0-1ZM328,301l5-4.5-.5-3.5c-1.48,2.64-4.94,4.71-4.5,8ZM386,297c1.64-.71,3.31-2.24,3-4-1.64.71-3.31,2.24-3,4ZM269,294h-1.5l-1.5,1.5,1.5,1.5,1.5-1.5v-1.5ZM455.5,294c-1.78,1.27-2.34,2.99-3.5,4.5l.5.5,3.5-4.5-.5-.5ZM478.5,294l-1.5,1.5.5.5,1.5-1.5-.5-.5ZM487.5,294l-2.5,3.5-1.5,3.5,2.5-3.5,1.5-3.5ZM366.5,295l-2.5,2.5.5.5,2.5-2.5-.5-.5ZM461,295c-2.41-.32-2.98,1.86-4,3.5-.5.79-2.11,2.45-1.5,3.5,2.36-1.97,3.87-4.44,5.5-7ZM473.5,295c-.65,0-.65,1,0,1s.65-1,0-1ZM307,309l4-7.5-5.5-5.5-4.5,5.5,6,7.5ZM344,296h-2l-1,4c1.5.32,2.06-.44,3-1.5v-2.5ZM397,299v-1.5l-2-1.5v3h2ZM419,296l-4,2.5-3,7.5c2.05-.03,1.86-2.88,2-3s1.82.33,3-1.5l2-5.5ZM429,296l-4,3.5,1.5,1.5c.77,0,2.8-4.04,2.5-5ZM227,308c1.96.37,2.74-1.39,4-2.5l-4.5-8.5c-5.25,3.56-.2,6.39.5,11ZM246,297l-3,3.5,3.5,5.5c1.99-1.48,1.54-1.93,1-4-.44-1.68-1.35-3.26-1.5-5ZM324,297c-3.87.25-5.93,4.75-1,5l1-5ZM213,298c-4.8.77-2.93,2.78-.5,5,1.11,1.02,1.68,2.38,3.5,2-.04-2.65-3.24-4.19-3-7ZM260.5,298c-.65,0-.65,1,0,1s.65-1,0-1ZM265.5,298c-.65,0-.65,1,0,1s.65-1,0-1ZM270,301c.4.5,2.65-1.75,2-3-.4-.5-2.65,1.75-2,3ZM289,304v-1.5l2.5-4.5-4.5,5.5,2,.5ZM335.5,298l-2.5,3.5-1.5,2.5,2.5-3.5,1.5-2.5ZM380,304c.35.4,3.03-2.48,3.5-3,1.44-1.62,2.11-1.22,0-3l-3.5,6ZM403.5,298l-4.5,4.5,2.5,3.5c2.23-2.05,5.3-5.53,2-8ZM481.5,298c-3.75,3.34-5.55,7.45-8.5,11.5l1.5,3.5c.53-.94,3.39-4.13,3.5-4.5.59-2.05,1.26-5.1,2-7,.25-.64,2.23-2.49,1.5-3.5ZM175.5,299l2.5,5.5,16.5,23.5-1.5-5.5c-3.41-7.72-8.75-12.7-14-19-.17-.2.16-.81,0-1-1.06-1.25-2.41-2.28-3.5-3.5ZM205.5,299c-.65,0-.65,1,0,1s.65-1,0-1ZM255,302l1-2.5-.5-.5-2.5,3h2ZM352,305l3-2.5-5-3.5,2,6ZM394,299c-2.21-.26-3.36,1.32-3,3.5l1.5,1.5c1.91-1.27,1.58-2.86,1.5-5ZM469,302c.4.5,2.65-1.75,2-3-.4-.5-2.65,1.75-2,3ZM281,302v-2l-2,1.5v.5h2ZM298,300h-2v1h2v-1ZM358,304c2.06.2,4.2-1.94,4-4l-4,4ZM205,320l-8-14.5-4-4.5c-.37,1.74,1.51,3.26,2,4.5.67,1.69,1.3,5.39,2,7,.38.87,1.66,3.46,2,4,.94,1.48,2.19,1.28,2.5,1.5,1.16.82,1.58,2.48,3.5,2ZM264,301h-2l1.5,2h.5v-2ZM340,301l-4,3.5-2,3.5c.31.35,7.11-5.75,6-7ZM345.5,301l-1.5,1.5.5.5,1.5-1.5-.5-.5ZM463,301.5l-4.75,4.75,1,1,4.75-4.75-1-1ZM203,304v-2h-1v2h1ZM257,305l1-2.5-.5-.5-2.5,3h2ZM269,302h-2l1.5,2h.5v-2ZM328,302l-3,1.5-1,3.5c.34.41,5.08-3.92,4-5ZM425,302l-3.5,2-6.5,8c1.84.39,2.37-1.01,3.5-2,1.47-1.3,3.2-3.03,4.5-4.5.99-1.13,2.39-1.66,2-3.5ZM213,311l-2-5.5-4-2.5c1.63,2.88,3.1,6.45,6,8ZM293,306h1.5l1.5-1.5-1.5-1.5-1.5,1.5v1.5ZM319,303l-3,1.5,1,2.5,3-1.5-1-2.5ZM349,303c-2.19-.55-2.59.75-2,2.5.25.75,3.27,3.29,4,2.5l-2-5ZM467.5,303c-.65,0-.65,1,0,1s.65-1,0-1ZM241.5,304c-.65,0-.65,1,0,1s.65-1,0-1ZM252,306v-2l-2,1.5v.5h2ZM283,304h-2v1h2v-1ZM304,311c.49-1.93-1.21-2.34-2-3.5-.16-.24.15-.8,0-1-.39-.52-2.68-2.86-3-2.5-.47,1.93,1.18,2.34,2,3.5.96,1.35,1.32,3.08,3,3.5ZM343,304l-4.5,4-1.5,4c.32.38,2.59-1.99,3-2.5.16-.2-.16-.79,0-1,1.12-1.43,3.33-2.28,3-4.5ZM374,304c-1.73-.7-4.93,3.07-4,4h2l2-4ZM387,305c-.19.2.26,1.03,0,1.5-1.01,1.81-3.99,2.65-.5,5.5l3.5-4.5-.5-3.5c-.51,1.28-2.41.9-2.5,1ZM222,305c-1.22-.34-2.75,0-2,1.5.96,1.93,2.7,3.91,3,6l3,2.5c.38-.39-4.96-7.9-4-10ZM264,308h1.5l1.5-1.5-1.5-1.5h-1.5v3ZM358,305c-1.5-.32-2.06.44-3,1.5v2.5c1.33-.22,3.83-3.17,3-4ZM399,309c.37-2.4-.48-4.24-3-4-.37,2.4.48,4.24,3,4ZM209,313c.51-2.24-2.23-2.65-2-4.5l-2-2.5c-1.11,1.94,3.3,7.79,4,7ZM240,306l-2,1.5,3.5,4.5c2.29-1.89,1.2-1.4,0-3-.77-1.02-1.94-1.24-1.5-3ZM254,310l1-4h-1l-2,3.5,2,.5ZM275.5,306c-.65,0-.65,1,0,1s.65-1,0-1ZM284,309c.4.5,2.65-1.75,2-3-.4-.5-2.65,1.75-2,3ZM292,308v-2h-1v2h1ZM328,310l2-3.5-.5-.5c-1.2,1.33-2.89,2.1-2.5,4h1ZM429,306l-7,6.5c-.6,2.93-5.49,4.22-1.5,7.5l6.5-8.5,2-5.5ZM466,306c-1.14-1.27-8.66,5.89-4.5,8,1.04-1.16,5.33-7.08,4.5-8ZM259.5,307c-.65,0-.65,1,0,1s.65-1,0-1ZM301,317c-.29-1.75,1.55-2.62,1-4.5-.15-.51-2.32-2.18-3-3-.44-.54-.38-3.15-3-2.5l-1,4.5,6,5.5ZM313,316l4-6.5-2.5-2.5-4.5,5.5c.72,1.88.56,4.24,3,3.5ZM346,307c-.77.05-1.63-.48-2,.5-.73,1.94-1.26,1.85-2,3-.16.25.15.78,0,1-1.21,1.79-3.6,2.05-.5,4.5l6.5-6.5-2-2.5ZM405,313c1.18,1.11,6.33-3.94,5-6-2.55,1.07-3.37,3.93-5,6ZM480,360c4-2.94,4.3-9.3,8-12.5,5.59-11.25,11.07-22.57,18-33l3-7.5-10,14.5c-2.22,4.6-3.86,9.09-7,13l-12,25.5ZM249,310v-2h-1v2h1ZM447,308l-8,8.5-2.5,5.5c2.35-3.15,6.3-6.52,8.5-9.5.15-.2-.16-.76,0-1,.8-1.16,2.49-1.57,2-3.5ZM263,309h-2l-2,4.5,4-2v-2.5ZM273,309l-1,2.5.5.5,1.5-3h-1ZM289.5,309l-2.5,2.5v1l1.5,1.5,2.5-3.5-1.5-1.5ZM321,311v-2h-1v2h1ZM368,314l2-3.5-1.5-1.5c-1.71,1.57-3.01,2.5-2.5,5h2ZM394.4,308.16l-2.06,1.24,2.56,4.26,2.06-1.24-2.56-4.26ZM485.5,309c-.65,0-.65,1,0,1s.65-1,0-1ZM269,310h-2v2l2-2ZM352.5,310c-.65,0-.65,1,0,1s.65-1,0-1ZM235,311l-3,2.5,5,4.5-2-7ZM274,315c1.64-.71,3.31-2.24,3-4-1.64.71-3.31,2.24-3,4ZM382,317l3-2.5-2.5-3.5-.5,6ZM216,315c.65-1.25-1.6-3.5-2-3-.65,1.25,1.6,3.5,2,3ZM242,316c1.9.39,2.67-1.3,4-2.5l-1.5-1.5c-1.34,1-1.73,2.54-2.5,4ZM251,312h-2v1h2v-1ZM316,320l2.5-5v-3l-4.5,6.5,2,1.5ZM334,318c-.19-2.83,4.01-3.43.5-6l-3.5,3.5,3,2.5ZM349.5,312l-6.5,6.5,2.5,2.5c1.97-2.25,7.67-5.98,4-9ZM392,312c-3.65,1.95-3.81,3.47-.5,6l.5-6ZM262,319c2.17-1.25,4.58-3.18,4-6-2.17,1.25-4.58,3.18-4,6ZM296,323l-1-5.5-3-4.5-2,3.5,2,3,4,3.5ZM467,324c-.41-1.57.4-1.65,1-2.5,1.04-1.48,2.52-2.95,3.5-4.5,1.19-1.87-.9-2.09-.5-4l-3,3.5-3,5v2l2,.5ZM221,314l-2,.5,4,4.5c.4-2.43-2.53-2.74-2-5ZM271,314h-2v1h2v-1ZM398,317l1-2.5-.5-.5-1.5,3h1ZM459,318l1-2.5-3-1.5v4h2ZM192.5,315c-.65,0-.65,1,0,1s.65-1,0-1ZM258,317v-2l-2,1.5v.5h2ZM278,319l2-3.5-.5-.5-3.5,4h2ZM285.5,315l-.5.5,1.5,1.5.5-.5-1.5-1.5ZM363.5,315l-1.5,1.5,1.5,2.5,1.5-2.5-1.5-1.5ZM412,318l1-2.5-.5-.5-2.5,3h2ZM211.5,316c-.65,0-.65,1,0,1s.65-1,0-1ZM247,320l1-3.5-.5-.5c-1.2,1.33-2.89,2.1-2.5,4h2ZM310,319c.65-1.25-1.6-3.5-2-3-.65,1.25,1.6,3.5,2,3ZM319,322l3-6c-1.56.4-2.2,2.18-3,3.5-.55.9-2.5,2.13,0,2.5ZM335,321c2.58.08,4.51-2.39,4-5-1.56,0-4.25,4.79-4,5ZM380,316h-2c-.29,1.9,1.1,3.29,3,3l-1-3ZM196,320l-2.5-3-.5.5c.98.71,1.2,1.29,1,2.5h2ZM264,323l3-2.5,1-3.5c-1.71.26-1.8,1.89-2.5,3-.62.99-2,1.19-1.5,3ZM299,319l-2-2v2h2ZM240.5,318c-.65,0-.65,1,0,1s.65-1,0-1ZM256,318h-2v2l2-2ZM273,318h-2v1h2v-1ZM279,326c1.06-.33,2.36-1.63,3-2.5.15-.2-.16-.76,0-1,1.21-1.79,3.6-2.05.5-4.5l-1,2h-1.5l-1,6ZM332,321l-2.5-3-.5.5c.98.71,1.2,1.29,1,2.5h2ZM388,323l1-3.5-3-1.5-1,3.5,3,1.5ZM396,318h-2c.2,1.21-.02,1.79-1,2.5l.5.5,2.5-3ZM403,318c-1.9-.29-3.29,1.1-3,3l3-3ZM441,337l3.5-2,11.5-13.5-1-3.5c-2.05,1.4-4.44,3.59-6,5.5-.78.95-2.23,3.9-3,5-.94,1.35-6.06,7.29-5,8.5ZM294,326c-1.63-2.56-3.14-5.03-5.5-7-.67,1.37,1.87,2.5,2.5,3.5.15.24.1.6,0,1l3,2.5ZM307,319c-1.9-.29-3.29,1.1-3,3l4,1-1-4ZM360.5,319c-.65,0-.65,1,0,1s.65-1,0-1ZM378,319c-6.77,1.06-3.92,9.76,1,3.5l-1-3.5ZM466,332c2.94-1.43,3-5.55,5-7.5l2.5-5.5c-2.87,2.78-5.89,6.37-6.5,10h-2l1,3ZM341.5,320c-2.06,1.24-5.59,5.92-2,7,1.46.44,3.35-2.69,4.5-3.5l-2.5-3.5ZM261,321h-2v1h2v-1ZM358.5,321l-6,8c2.37-1.36,4.2-2.97,6-5,1.44-1.62,2.11-1.22,0-3ZM418,321c-1.5-.32-2.06.44-3,1.5v2.5h2l1-4ZM205.5,322c-.73,1.01,1.25,2.86,1.5,3.5,1.84,4.73,3.97,10.11,5,15l18.5,31.5-15.5-32.5c-1.27-4.5-5.22-8.28-6-13l-3.5-4.5ZM235,339c.19-4.67-3.95-7.44-5-11.5l-5-5.5,6,12.5,4,4.5ZM268,327c-.47-2.33,2.47-2.67,2-5-2.18.97-3.47,2.63-3,5h1ZM274.5,322c-.65,0-.65,1,0,1s.65-1,0-1ZM313,322h-2v1h2v-1ZM326,322c-3.9-.84-3.59,2.59-6,4.5-.55,1.33,1.27,4.12,2.5,4.5,2.14.67,3.91-4.58,5.5-5.5l-2-3.5ZM183.5,323l9.5,20.5c14.24,28.4,27.73,59.49,49,85,.17.2-.16.81,0,1,1.06,1.25,2.41,2.28,3.5,3.5l-62-110ZM244,323h-1.5l-1.5,1.5,1.5,1.5,1.5-1.5v-1.5ZM256,327l3-1.5-1.5-2.5-1.5,1.5v2.5ZM287,323c-3.09-.36-2.83,3.14-5,4.5v3l3,6.5,6-7.5-4-6.5ZM302,330l3-3.5-2.5-3.5-1.5,3.5,1,3.5ZM389,326c.4.5,2.65-1.75,2-3-.4-.5-2.65,1.75-2,3ZM398,325v-2l-2,1.5v.5h2ZM202.5,324l2.5,6.5,2.5,3.5c.71-1.03-1.2-2.81-1.5-3.5-.23-.52.19-1.35,0-2-.11-.37-2.97-3.56-3.5-4.5ZM223,323.5l-1.6.8,3.7,7.4,1.6-.8-3.7-7.4ZM263,326v-2h-1v2h1ZM332.5,324c-.65,0-.65,1,0,1s.65-1,0-1ZM381,324c.34,2.15-1.82,3.08-3,4.5l2.5,2.5,3.5-4.5-3-2.5ZM212.5,325c-.65,0-.65,1,0,1s.65-1,0-1ZM269,331c1.71-.26,1.8-1.89,2.5-3,.62-.99,2-1.19,1.5-3l-3,2.5-1,3.5ZM311,327l-2-2v2h2ZM374,330v-3.5l-2.5-1.5-1.5,1.5c-.42,1.53,3.18,4.32,4,3.5ZM408.75,324.75l-4.5,4.5,1,1,4.5-4.5-1-1ZM448,341l9.5-16c-1.42,1.56-3.11,2.91-4.5,4.5-1.53,1.76-3.68,5-5,7-1.01,1.54-2.34,1.26-2,4l2,.5ZM335.5,326l-2.5,3.5,2.5,3.5,2.5-3.5-2.5-3.5ZM414,326h-2v3h2v-3ZM464,328v-2h-1v2h1ZM213.5,327l-.5.5,1.5,1.5.5-.5-1.5-1.5ZM393,331l2-3.5-.5-.5-3.5,4h2ZM245,328v2.5l1.5,1.5,1.5-2.5-3-1.5ZM260,331l1-2.5-.5-.5-2.5,3h2ZM264,331l2-1.5-1.5-1.5h-.5v3ZM308,328l-4,3.5.5,4.5,3.5-8ZM272,336c2.28-1.05,5.58-4.97,2.5-7l-2.5,3.5v3.5ZM328.5,329c-.65,0-.65,1,0,1s.65-1,0-1ZM382,333c2.68.44,2.62-2.03,4-3.5l-.5-.5-3.5,4ZM411,329l-3,2.5.5,3.5,2.5-6ZM462,329l-4,3.5-6,9-2.5,5.5,9.5-12.5,3-5.5ZM215.5,330l5.5,11.5,4.5,6.5-4.5-10.5-5.5-7.5ZM319,330l-2,.5c1.27,1.01.98,3.13,3,3.5l-1-4ZM371,333c.29-1.9-1.1-3.29-3-3l3,3ZM208,346c-.02-2.08-2-3.7-3-5.5-.31-.57-.82-2.22-1-3l-5-6.5,5,10.5,4,4.5ZM256,336l-2-5h-1c-.48,1.21,2.38,5.77,3,5ZM299,334c.65-1.25-1.6-3.5-2-3-.65,1.25,1.6,3.5,2,3ZM332,331l-4,3.5-1,2,1,3.5c2.89.24,3.63-2.79,5-4.5l-1-4.5ZM377,330.5l-2.5,2.5,2,2,2.5-2.5-2-2ZM434,331c-1.18-1.11-6.33,3.94-5,6l3-2.5,2-3.5ZM267,332l-1,2.5.5.5,1.5-3h-1ZM326,335l1-2.5-.5-.5-1.5,3h1ZM338,336l2-3.5-.5-.5c-1.2,1.33-2.89,2.1-2.5,4h1ZM359,337c2.19-.63,2-3.28,4-4.5l-.5-.5c-1.37,1.66-3.82,2.76-3.5,5ZM365,342c-.67-2.4,3.63-4.2,4-5.5.6-2.11-1.15-3.13-2.5-4.5-.54,1.39-4.38,5.05-4.5,5.5-.61,2.2.3,4.83,3,4.5ZM403.5,332c-.65,0-.65,1,0,1s.65-1,0-1ZM245,337c.39-1.9-1.3-2.67-2.5-4l-.5.5c1.27,1.01.98,3.13,3,3.5ZM248,333c-.49,1.93,1.2,2.34,2,3.5.16.24-.15.79,0,1,.9,1.23,2.5,2.27,3.5,3.5l-2.5-5.5-3-2.5ZM263,333l-3,1.5,2,1.5,1-3ZM390,333c-1.9-.29-3.29,1.1-3,3l3-3ZM452,362l7-14.5,6-11-1.5-3.5c-1,1.23-2.59,2.27-3.5,3.5-3.09,4.18-6.22,9.58-9,14-.72,1.14-2.32,2.44-3,4l1,5,3,2.5ZM278,345c2.89.05,4.71-2.92,4-5.5l-4.5-5.5-3.5,4.5,4,6.5ZM316.5,334c-.65,0-.65,1,0,1s.65-1,0-1ZM352,334c-1.12-1.07-6.07,3.91-5,5,2.95.11,4.01-2.93,5-5ZM401.5,334c-.65,0-.65,1,0,1s.65-1,0-1ZM294.5,335c-.78,0-4.56,5.87-5,7-.73,1.87-.34,1.78,1,3l6.5-6.5-2.5-3.5ZM375,338c.65-1.25-1.6-3.5-2-3-.65,1.25,1.6,3.5,2,3ZM380.5,335l-1.5,1.5.5.5,1.5-1.5-.5-.5ZM406,337v-2h-1v2h1ZM271,336l-3,2.5.5,3.5,2.5-6ZM313.5,336l-5,6,1,3c1.85-2.6,10.16-7.32,4-9ZM416,340c2.02-.37,1.73-2.49,3-3.5l-.5-.5c-1.2,1.33-2.89,2.1-2.5,4ZM422,336l-2,3.5.5.5c1.2-1.33,2.89-2.1,2.5-4h-1ZM455,382l10-13.5c4.93-9.19,9.76-18.45,15-27,1.06-1.73,2.94-3.47,3-5.5l-6,7.5-1,3.5h-2c-5.79,9.54-11.29,20.1-17,29.5l-2,5.5ZM301.5,337c-.65,0-.65,1,0,1s.65-1,0-1ZM331,343l3-2.5,1.5-3.5-4.5,6ZM399.5,337l-1.5,1.5.5.5,1.5-1.5-.5-.5ZM259,341v-3h-.5l-1.5,1.5,2,1.5ZM372,338l-5,4.5c-.59,2.16-1.94,2.78.5,4.5l4.5-4.5v-4.5ZM327,344c.47-2.37-.82-4.03-3-5-.47,2.37.82,4.03,3,5ZM358,339l-4,3.5-2,3.5c2.76-1.45,3.85-4.64,6-7ZM376.5,339c-.65,0-.65,1,0,1s.65-1,0-1ZM404,339c-1.9-.29-3.29,1.1-3,3l3,1v-4ZM424,348l3-5.5v-3.5l-4,5.5,1,3.5ZM439.5,339c-.65,0-.65,1,0,1s.65-1,0-1ZM236,340c-.39,1.9,1.3,2.67,2.5,4l.5-.5c-1.27-1.01-.98-3.13-3-3.5ZM293,350c2.94-1.3,3.32-4.67,6-6.5l-.5-3.5-3.5,4.5-2,5.5ZM342,345c-.89.24-1.6-.37-2.5,1l-1.5,4,4-2.5c.08-.82-.13-1.71,0-2.5.62-.17.96.14,2-.5,1.65-1.03,2.35-2.54,2-4.5l-4,2.5c-.08.82.13,1.71,0,2.5ZM397.5,340c-.65,0-.65,1,0,1s.65-1,0-1ZM275,353l2-5.5-4.5-6.5-2.5,3.5v2l5,6.5ZM359,341l-5,8.5,2.5,2.5,5.5-7.5-3-3.5ZM251,346l-3.5-4-.5.5c1.4,1.57,1.39,3.96,4,3.5ZM320,342l-6,5.5.5,3.5,5.5-9ZM395,342l-9,9.5.5,3.5c.66-.07,6.16-7.87,7-9,1.04-1.4,2.04-1.62,1.5-4ZM263,349l2-2.5-4-3.5,2,6ZM380,347c2.02-.37,1.73-2.49,3-3.5l-.5-.5c-1.2,1.33-2.89,2.1-2.5,4ZM400.4,342.16l-2.06,1.24,2.56,4.26,2.06-1.24-2.56-4.26ZM465,357c-.59-1.95,1.35-2.33,2-3.5.73-1.32,1.28-3.64,2-5,.97-1.82,3.01-3.4,3-5.5-4.16,3.64-6.16,9.01-9,13.5l2,.5ZM201.5,344l10.5,17.5,3,7,25.5,43.5-6.5-14.5-14-28-18.5-25.5ZM323,344c-1.33-.27-2.32.44-3,1.5s-1.31,3.78-2,5c-.95,1.68-3.74,1.97-.5,4.5l6.5-7.5-1-3.5ZM248,350c.52-.62-1.77-5-2.5-5l1.5,5h1ZM328.5,345c-.65,0-.65,1,0,1s.65-1,0-1ZM428,349c2.02-.37,1.73-2.49,3-3.5l-.5-.5c-1.2,1.33-2.89,2.1-2.5,4ZM442,348l3-2.5-.5-.5c-.71.98-1.29,1.2-2.5,1v2ZM307.5,346c-.65,0-.65,1,0,1s.65-1,0-1ZM372,351c.3.32,2.64-1.91,3-2.5.1-.17.98-2.16.5-2.5l-2,3-1.5,2ZM398,346l-5,4.5c-.87,3.06-6.59,6.04-2.5,9.5l7.5-9.5v-4.5ZM240.5,347l-.5.5,1.5,1.5.5-.5-1.5-1.5ZM361,357c-.41-1.57.4-1.64,1-2.5,1.01-1.43,2.54-2.98,3.5-4.5,1.06-1.67.08-1.92-1-3l-6.5,7.5,3,2.5ZM254,348c-5.45,1.1-2.12,2.56-1,4.5.3.53.7,2.47,1,3,.73,1.29,1.5,3.12,3,3.5l1-4.5-4-6.5ZM287,348l-3.5,3,.5,4,3-3.5v-3.5ZM325,348l-2,3.5.5.5c1.2-1.33,2.89-2.1,2.5-4h-1ZM350.5,348l-2.5,2.5.5.5,2.5-2.5-.5-.5ZM437.5,348c-.65,0-.65,1,0,1s.65-1,0-1ZM258.5,349l-.5.5,2.5,2.5.5-.5-2.5-2.5ZM269,359l2-2.5v-1l-4.5-6.5-1,3,3.5,7ZM305,349l-3,2.5-1.5,3.5,4.5-6ZM379,349l-3,2.5-2,3.5,5-6ZM335,354l3-1.5-1.5-2.5-1.5,1.5v2.5ZM419,353c.4.5,2.65-1.75,2-3-.4-.5-2.65,1.75-2,3ZM439,354l1-4-2,1.5v2.5h1ZM353,358l2-3.5v-1l-2.5-2.5-3.5,6,4,1ZM308,352l-6,5.5-2,3.5c3.5-2.15,5.16-5.97,8-9ZM312,352h-2l1.5,2h.5v-2ZM414.5,352c-.65,0-.65,1,0,1s.65-1,0-1ZM346.5,353c-.65,0-.65,1,0,1s.65-1,0-1ZM363,362l5.5-5,1.5-4c-3.31,1.89-4.56,5.98-7,9ZM405.5,353c-.65,0-.65,1,0,1s.65-1,0-1ZM290,354h-2l-2,3.5,1.5,1.5,2.5-5ZM232,355l3,10.5,7.5,13.5c3.78-2.92-.39-5.44-1.5-7.5-2.15-4-4.13-9.1-6-13l-3-3.5ZM283,355h-2v4c2.01-.53,2.24-2.12,2-4ZM304,367c3.04-1.97,4-5.89,6-8.5l-1.5-3.5-6.5,8.5,2,3.5ZM394,363l3-4.5,1.5-3.5c-1.93,1.62-3.21,3.38-4.5,5.5-.55.9-2.51,2.13,0,2.5ZM413,355c-2.67-.48-1.6.53-2.5,2-.6.98-2.01,1.19-1.5,3,2.67.48,1.6-.53,2.5-2,.6-.98,2.01-1.19,1.5-3ZM316,358l-2-2v2h2ZM333,356c-2.52-.43-1.72.37-2.5,2-.36.74-1.6,2.33-1,3,.91-1.34,1.67-1.49,3-2,1.08-.41.32-2.07.5-3ZM345,356c-2.3.75-2.74,3.02-4,4.5l.5.5c1.37-1.66,3.82-2.76,3.5-5ZM368,367c.09-2.17,1.42-4.15,3-5.5l2-5.5-8,9.5,3,1.5ZM385.26,356.98c0-.68-.55-1.24-1.24-1.24s-1.24.55-1.24,1.24.55,1.24,1.24,1.24,1.24-.55,1.24-1.24ZM424,358v-2l-2,1.5v.5h2ZM430.5,356c-.65,0-.65,1,0,1s.65-1,0-1ZM431,368l4-8.5-.5-3.5c-1.62,1.21-2.41,2.89-3.5,4.5-.15.22.16.76,0,1-1.13,1.71-3.73,2.39-3,5l3,1.5ZM321,360l1-2.5-.5-.5-1.5,3h1ZM355,361l3-1.5-1.5-2.5-1.5,1.5v2.5ZM402.5,357c-.65,0-.65,1,0,1s.65-1,0-1ZM260.5,358l-3.5,3.5,5.5,8.5,3.5-4.5-5.5-7.5ZM347.5,358c-1.78,1.27-2.34,2.99-3.5,4.5l2.5,3.5,4.5-5.5-3.5-2.5ZM449,364l-4-6-1,3h2l3,3ZM228,359l1.5,3,.5-.5-1-2.5h-1ZM382,359h-2v1.5l1.5,1.5h.5v-3ZM388,359h-2c-.36,1.76,1.36,2.24,1,4h2l-1-4ZM401.5,359c-.65,0-.65,1,0,1s.65-1,0-1ZM476.5,359c-.65,0-.65,1,0,1s.65-1,0-1ZM272.5,360c-.65,0-.65,1,0,1s.65-1,0-1ZM280,360h-2l1.5,2h.5v-2ZM286.26,360.98c0-.68-.55-1.24-1.24-1.24s-1.24.55-1.24,1.24.55,1.24,1.24,1.24,1.24-.55,1.24-1.24ZM313,360l-3,2.5-1.5,4.5,4.5-7ZM318,363v-2h-1v2h1ZM416,371l3-5.5,1.5-4.5-6.5,9.5,2,.5ZM475,361l-1,2.5.5.5,1.5-3h-1ZM290.5,362c-.65,0-.65,1,0,1s.65-1,0-1ZM349,370c1.1-.34,2.3-1.61,3-2.5.16-.2-.16-.79,0-1,1.16-1.49,4.32-2.62,1.5-4.5l-3.5,3.5-1,4.5ZM403,372c-.05-2.21,2.16-3.64,3-5.5.63-1.41,1.23-2.9,1-4.5-1.42.69-3.02,2.28-4,3.5-.16.2.17.79,0,1-1.76,2.27-5.82,4.29,0,5.5ZM230.5,363c-.65,0-.65,1,0,1s.65-1,0-1ZM284,363c-1.5-.32-2.06.44-3,1.5v2.5c1.33-.22,3.83-3.17,3-4ZM380,363l-3,1.5c-2.14,2.63-4.38,5.37-6,8-1.22,1.98-1.52,1.79.5,3.5l6.5-8.5,2-4.5ZM386,366v-1.5l-1.5-1.5-1.5,1.5,1.5,1.5h1.5ZM448,366l-6-3-4,7.5,1,6.5c1.69.28,3.1-1.31,4-2.5,1.23-1.63,2.49-4.02,4-6,.66-.87,1.38-.96,1-2.5ZM293,369c1.9.39,2.67-1.3,4-2.5l-1-2.5c-2.18.97-3.47,2.63-3,5ZM311,374c.34-2.48,2.47-4.79,4-6.5l-.5-3.5-6.5,7.5,3,2.5ZM326,368c1.64-.71,3.31-2.24,3-4-1.64.71-3.31,2.24-3,4ZM246,372l-4.5-7,1.5,4.5,3,2.5ZM339,365l-6,5.5-2,4.5c3.63-2.32,5.03-6.9,8-10ZM361.5,365c-.65,0-.65,1,0,1s.65-1,0-1ZM392,365h-2v1h2v-1ZM473.5,365c-.65,0-.65,1,0,1s.65-1,0-1ZM345,369l-2.5-3-.5.5c.98.71,1.2,1.29,1,2.5h2ZM383,366c-1.06.33-2.36,1.63-3,2.5-.47.64-1.52,3.31-2,4-1.17,1.69-2.53,2.04-3.5,4.5-.73,1.87-.34,1.78,1,3l7.5-10.5v-3.5ZM420,378c-.29-2.08.75-4.09,2-5.5l2-5.5c-2.7,2.55-5.93,6.05-6,9.5-.04,2.01.07,1.56,2,1.5ZM473,369v-2h-1v2h1ZM360,368l-3,2.5-1.5,4.5,4.5-7ZM364.5,368c-.65,0-.65,1,0,1s.65-1,0-1ZM389,370v-2h-1v2h1ZM269,374c.06-2.04.45-3.7-1.5-5l-3.5,4.5,5.5,4.5c1.54-1.09,1.73-2.16,1.5-4h-2ZM279,371v-2h-1v2h1ZM335,380c2.62.65,2.56-1.96,3-2.5,1.65-2,3.43-3.92,5-6l-2.5-2.5c-2-.6-2.29,2.25-2.5,2.5-1.48,1.78-3.08,2.96-4,5l1,3.5ZM421,382l6.5-9-1-4-2.5,4.5c-.51,2.8-3.33,5.11-3,8.5ZM299,370l-3,1.5,2,2,3,1.5-2-5ZM325,370h-2v2l2-2ZM286.5,371c-.65,0-.65,1,0,1s.65-1,0-1ZM292,371h-2v3l2-1.5v-1.5ZM348.26,371.98c0-.68-.55-1.24-1.24-1.24s-1.24.55-1.24,1.24.55,1.24,1.24,1.24,1.24-.55,1.24-1.24ZM363,371l-4.5,4-1.5,4c3.14.37,3.14-2.99,4-4.5l2-3.5ZM380,384c-.52-1.95,1.27-2.34,2-3.5,1.08-1.7,2.1-3.62,3.5-5.5,1.05-1.4,2.03-1.62,1.5-4l-6,6.5-3,6,2,.5ZM408,379c-.72-3.36,2.73-5.03,3-8-.31-.35-2.55,1.89-3,2.5-.15.2.16.75,0,1-.98,1.48-4.66,4.55,0,4.5ZM353.5,372c-.65,0-.65,1,0,1s.65-1,0-1ZM401,375l-3-3c-.29,1.9,1.1,3.29,3,3ZM467.5,372c-.65,0-.65,1,0,1s.65-1,0-1ZM322,373l-6,5.5.5,4.5,2.5-4.5,3-5.5ZM438,379l-3-6v3.5l3,2.5ZM253,383l-2-4.5-3.5-4.5-.5,3.5c1.92,2.17,1.85,6.4,6,5.5ZM295,374c-4.79-.09-.26,3.48,2,4l-2-4ZM346,374l-5,4.5c.38,1.44-1.33,1.97-2,3l.5,3.5,6.5-11ZM466.5,374c-.65,0-.65,1,0,1s.65-1,0-1ZM288.5,375c-.65,0-.65,1,0,1s.65-1,0-1ZM307,375h-2v1.5l1.5,1.5h.5v-3ZM430,379l2-3.5-.5-.5c-1.2,1.33-2.89,2.1-2.5,4h1ZM350.5,376c-.65,0-.65,1,0,1s.65-1,0-1ZM462,386l4-10-4,6.5v3.5ZM295,381c-.73-4.27-3.5-5.21-6-1.5l2,3.5,4-2ZM365,387c.26-2.56,2.58-4.69,4-6.5,1.23-1.57,1.32-2.73-.5-3.5s-1.79,2.98-3.5,3.5c-.47,2.28-2.83,2.91-2,6l2,.5ZM397.5,377c-.65,0-.65,1,0,1s.65-1,0-1ZM273.5,378c-.65,0-.65,1,0,1s.65-1,0-1ZM330,378h-2v1h2v-1ZM395,378c-.31-.35-2.56,1.89-3,2.5-.49.67-1.5,3.25-2,4-.66,1-3.83,4.42-4,5-.36,1.2.4,3.15,1.5,3.5,1.9.6,3.65-4.79,5.5-5.5l4-6-2-3.5ZM417,378l-5,4.5,1.5,4.5,4.5-5.5-1-3.5ZM445,394l8-16-3,3.5-5,9v3.5ZM245,379c-.52.62,1.77,5,2.5,5l-1.5-5h-1ZM269.26,379.98c0-.68-.55-1.24-1.24-1.24s-1.24.55-1.24,1.24.55,1.24,1.24,1.24,1.24-.55,1.24-1.24ZM305,381l-2-2v2h2ZM350,379c-1.56-1.66-7.01,6.53-8,7.5l1.5,3.5c.67-.88,1.96-1.64,2.5-2.5.15-.24-.15-.77,0-1,.75-1.17,4.85-6.6,4-7.5ZM435,383l-1.5-4c-.99,1.45-2.61,3.15-3.5,4.5-.59.89-1.44,3-2,4s-1.64,2.28-2,3.5l7-6.5v-1.5h2ZM271,399l-6-12.5-5-6.5c.16,3.02,2.68,5.01,4,7.5.14.26-.14.74,0,1,1.04,1.93,2.64,3.91,3,6l4,4.5ZM404.5,380c-.65,0-.65,1,0,1s.65-1,0-1ZM323,389c-1.04-2.03,5.08-6.82,4-8l-6,7.5,2,.5ZM334,385c.37-2.4-.48-4.24-3-4-.37,2.4.48,4.24,3,4ZM356,381h-2l1.5,2h.5v-2ZM371,381l-4,6.5.5,3.5,6.5-8.5-3-1.5ZM271,385v-3l-1.5,2,6,10,3.5-3.5-1-4-3.5-2.5-3.5,1ZM278,382h-2l1.5,2h.5v-2ZM403.5,382c-.65,0-.65,1,0,1s.65-1,0-1ZM302,383h-2l-1,3c1.9.29,3.29-1.1,3-3ZM354,383c-1.06.33-2.36,1.63-3,2.5-.16.21.16.77,0,1-1.19,1.66-2.74,3.38-4,5-1.53,1.95-1.24,1.94.5,3.5l7-9-.5-3ZM419,382.5l-3.6,7.2,1.6.8,3.6-7.2-1.6-.8ZM426.5,383l-2.5,3.5.5.5,2.5-3.5-.5-.5ZM221.5,384c-.65,0-.65,1,0,1s.65-1,0-1ZM400.5,384c-.45,0-2.14,2.83-2.5,3.5-1.16,2.15-1.98,4.75-3,7-.25.55-1.08,1.44-1.5,2.5-.73,1.87-.34,1.78,1,3,1.07-1.23,2.48-2.25,3.5-3.5,1.54-1.89,2.71-4.71,4-7,.37-.67,1.49-1.29,2-2l-3.5-3.5ZM260,407c-.78-4.43-3.89-7.79-6-11.5-1.32-2.32-2.34-4.67-3-7-.18-.64-4.15-4.39-5-3.5l7,11.5,4,7,3,3.5ZM255,385h-3v1h3v-1ZM294.5,385c-.65,0-.65,1,0,1s.65-1,0-1ZM306,385l-6,5.5-2,3.5c.87.89,3.38-1.68,4-2.5.17-.22-.16-.8,0-1,1.41-1.78,3.45-3.07,4-5.5ZM330,385c-2.62-.65-2.56,1.96-3,2.5-.68.82-2.85,2.49-3,3-.55,1.88,1.29,2.75,1,4.5l4-3.5,2-3-1-3.5ZM377,385l-5,4.5-2,5.5c3.65-.01,3.72-3.89,6-5.5l1-4.5ZM222.5,386l9.5,19.5,11.5,18.5-12.5-24.5-8.5-13.5ZM286.5,386c-.65,0-.65,1,0,1s.65-1,0-1ZM313,388l-2-2v2h2ZM337,387h-2v3l2-1.5v-1.5ZM273,424l-10-22.5c1.01-2.26-2.73-5.05-3-6-.32-1.13-.32-2.85-1-4-.74-1.24-4.57-4.77-6-3.5l11,20.5,6,12,3,3.5ZM298,390v-2h-1v2h1ZM412,390c.5-.4-1.75-2.65-3-2-.5.4,1.75,2.65,3,2ZM433.5,388c-1.23.97-1.57,2.22-2.5,3.5-.51.7-2.45,1.62-1.5,2.5.85-1.06,2.25-1.95,3-3,.39-.54,1.54-2.38,1-3ZM437,388l-4.5,9c1.63-2.04,3.14-4.27,4.5-6.5.55-.9,2.51-2.13,0-2.5ZM456.5,388l-20.5,29.5-4.5,10.5,16.5-22.5,8.5-17.5ZM290,389l-2,.5c1.27,1.01.98,3.13,3,3.5l-1-4ZM359,389c.41,1.57-.4,1.65-1,2.5-1.5,2.14-3.81,4.48-5,7-.1.21-.24.84-.5,1.5-.73,1.87-.34,1.78,1,3l8.5-12.5-3-1.5ZM308,395c2.02-.37,1.73-2.49,3-3.5l-1.5-1.5c-1.91,1.27-1.58,2.86-1.5,5ZM339,390l-1,2.5,1.5,2.5c2.23-1.59,2.18-4.06-.5-5ZM421,393c.4.5,2.65-1.75,2-3-.4-.5-2.65,1.75-2,3ZM281.5,391c-.65,0-.65,1,0,1s.65-1,0-1ZM334,391l-3,2.5c.2,1.1-3.49,4.99-3,5.5l4.5-4,1.5-4ZM411,393l-3.5-2c-2.61,3.35-4.27,7.87-6.5,11.5-1.22,1.98-1.52,1.79.5,3.5l4.5-4.5,5-8.5ZM319.5,392c-.65,0-.65,1,0,1s.65-1,0-1ZM287,399l-3.5-6-6.5,3c.16,3.59,3.37,4.56,6.5,4,.39-.07,1.73-1.78,3.5-1ZM365,393c-2.37-.32-3.02,1.86-4,3.5-1.09,1.82-2.06,4.44-4,6l-1,4.5c3.1-2.8,5.15-6.84,7.5-10,1.04-1.4,2.04-1.62,1.5-4ZM433,405c-4.09-.81-4.56,2.82-6,5.5-.37.69-1.86,1.49-2,2-.83,3.02-.22,8.14-3,11l-1.5,4.5c2.92-2.96,5.17-6.58,6.5-10.5,2.43-6.1,7.21-12.51,10-19,.24-.55-.23-1.41,0-2,.25-.63,2.24-2.49,1.5-3.5-.97,1.44-2.64,3.17-3.5,4.5-1.51,2.33-2.5,4.3-2,7.5ZM318,396v-2l-2,1.5v.5h2ZM378,405l7-7.5-.5-3.5-4.5,5.5-2,5.5ZM307,395h-2l-1,2.5,2,1.5,1-4ZM324,398c.65-1.25-1.6-3.5-2-3-.65,1.25,1.6,3.5,2,3ZM337,396l-3.5,3-1.5,4,3.5-3,1.5-4ZM412.5,396c-.65,0-.65,1,0,1s.65-1,0-1ZM343,401c2.01-.53,2.24-2.12,2-4-2.01.53-2.24,2.12-2,4ZM369,397c-1.85-2-6.54,7.71-8,8.5l-2,5.5,4-3.5c.88-2.21,2.99-4.46,4.5-6.5,1.04-1.4,2.04-1.62,1.5-4ZM311,404l3-2.5,1-3.5c-1.71.26-1.8,1.89-2.5,3-.62.99-2,1.19-1.5,3ZM321,398h-2c-.37,2.4.48,4.24,3,4l-1-4ZM431.5,398l-1.5,1.5.5.5,1.5-1.5-.5-.5ZM417,399l-2.5,6,2.5-3.5v-2.5ZM425,401v-2h-1v2h1ZM304.26,400.98c0-.68-.55-1.24-1.24-1.24s-1.24.55-1.24,1.24.55,1.24,1.24,1.24,1.24-.55,1.24-1.24ZM313,407l3.5,2c1.36-1.38,3.1-2.38,2.5-4.5-.23-.83-2.69-1.57-2-3.5-1.52.38-2.24,2.2-3,3.5-.46.79-1.46.88-1,2.5ZM328,401h-2v2l2-2ZM336,407l2.5-6-2,3h-1.5l1,3ZM385,414l4-4.5c.35-1.64,1.96-3.33,3-5,1.23-1.98,1.51-1.79-.5-3.5l-6.5,13ZM272,402l4.5,7c.61-1.05-1.01-2.71-1.5-3.5-.82-1.33-1.43-3.1-3-3.5ZM286,402h-7l6.5,11,5.5-7.5c-1.6-1.4-.18-3.16-3-2.5.18,2.18-2.28,4.03-4,5l-.5-3,2.5-3ZM421.5,402l-2.5,2.5.5.5,2.5-2.5-.5-.5ZM342,403l-3,2.5-2,3.5,3-2.5,2-3.5ZM245.94,404.2l-2.38,1.32,34.03,61.26,2.38-1.32-34.03-61.26ZM349.5,404l-2.5,3.5,2.5,1.5,2.5-3.5-2.5-1.5ZM307,405h-2v1h2v-1ZM325.26,405.98c0-.68-.55-1.24-1.24-1.24s-1.24.55-1.24,1.24.55,1.24,1.24,1.24,1.24-.55,1.24-1.24ZM331,405h-2v2l2-2ZM260.5,408l-.5.5,1.5,1.5.5-.5-1.5-1.5ZM313,415l2-3.5-2.5-2.5-4.5-1c-1.43,2.26,4.7,7.33,5,7ZM331.45,407.82l-.64,3.81,2.19.36.64-3.81-2.19-.36ZM400,408c-3.14-.37-3.14,2.99-4,4.5-.64,1.12-2.55,1.52-2,3.5.31.35,3.52-2.84,4-3.5.15-.21-.16-.76,0-1,.8-1.16,2.49-1.57,2-3.5ZM397,425c-.16-2.34,2.9-4.58,4-6.5.73-1.27,1.29-3.66,2-5,.97-1.82,3.01-3.4,3-5.5l-9,12.5-2,4.5h2ZM269.5,409c-.65,0-.65,1,0,1s.65-1,0-1ZM322,409h-2l-1,3c1.9.29,3.29-1.1,3-3ZM328,409h-2v2l2-2ZM355,409c-1.9-.39-2.67,1.3-4,2.5l2,2.5,2-5ZM289,418l3-8-5,5.5,2,2.5ZM347,410l-3,2.5-.5,4.5,2.5-2.5,1-4.5ZM270.5,411c-.65,0-.65,1,0,1s.65-1,0-1ZM377.5,411l-1.5,1.5.5.5,1.5-1.5-.5-.5ZM328,417c2.21.26,3.36-1.32,3-3.5l-1.5-1.5c-1.91,1.27-1.58,2.86-1.5,5ZM354,418c.24.28,6.46-4.06,2.5-6l-2.5,6ZM368,419c-.2-1.21.02-1.79,1-2.5l1.5-4.5-4.5,6.5,2,.5ZM241.5,413c-.65,0-.65,1,0,1s.65-1,0-1ZM271,413l9,19.5,3.5,4.5-1.5-5.5-8-15-3-3.5ZM293.5,413c-.65,0-.65,1,0,1s.65-1,0-1ZM301,415v-2h-1v2h1ZM324,415v-2h-1v2h1ZM334.5,413c-.65,0-.65,1,0,1s.65-1,0-1ZM378,418c-.53-2.26,2.4-2.57,2-5l-4,4.5,2,.5ZM403,434l3-6.5,6-7,3.5-7.5c-1.65,1.91-3.94,3.57-5.5,5.5-2.19,2.7-5.41,7.99-7,11-.6,1.14-.76,3.12-2,4l2,.5ZM276,439c.42-2.19-3.68-5.39-4-6.5-1.28-4.45-6.06-11.29-9-16-.37-.6-2.71-2.83-3-2.5-.02,2.12,2.06,3.66,3,5.5,2.14,4.17,5.31,12.81,9.5,15.5,1.68,1.07,1.38,3.53,3.5,4ZM318,418c-.2-1.21.02-1.79,1-2.5l-2-1.5-1,4h2ZM348,421l2-6-4,4.5,2,1.5ZM297,416c-1.71-.41-1.98.65-3,1.5-1.51,1.26-3.57,3.01-3,5l3.5,4.5,3.5-6.5-1-4.5ZM374,416l-3.5,3-1.5,4c1.32-.26,5.3-6.69,5-7ZM321,420l1-2.5-.5-.5-1.5,3h1ZM384,417h-2c.2,1.21-.02,1.79-1,2.5l.5.5,2.5-3ZM422,450l11-14.5,8-13,2-5.5c-1.06.33-2.36,1.63-3,2.5-5.14,6.98-10.71,17.51-15,25-1.02,1.78-2.97,3.43-3,5.5ZM307,424l-4-6c-.14,1.46.86,2.71,1.5,4,.8,1.62-.04,2.43,2.5,2ZM341,424l2-4.5-3-1.5c-.14,2.02-3.09,6.61,1,6ZM280.5,419c-.65,0-.65,1,0,1s.65-1,0-1ZM327,420l-2.5-1-2.5,2.5,3.5,2.5,1.5-4ZM350,424c2.18-.97,3.47-2.63,3-5-2.18.97-3.47,2.63-3,5ZM361.5,419l-3.5,4.5.5.5,3.5-4.5-.5-.5ZM314.5,420c-.65,0-.65,1,0,1s.65-1,0-1ZM394,422v-2l-2,1.5v.5h2ZM420,420c-.07,2-1.92,3.81-3,5.5-.15.24.15.77,0,1-.46.71-1.54,1.29-2,2-3.22,4.96-6.58,11.03-10,16l-2.5,5.5c1.48-2.16,7.97-4.65,8.5-6.5,1.36-4.71,3.96-8.39,5-13l4-7v-3.5ZM284,422l-2,.5c1.08,1.09,6.65,14.1,8,12.5l-3-7.5-3-5.5ZM346,422c-2.66-.47-1.61.52-2.5,2-.77,1.29-2.17,1.56-1.5,4l4-6ZM363,426l2-3.5-.5-.5c-1.2,1.33-2.89,2.1-2.5,4h1ZM386.5,422l-3.5,3.5-2.5,5.5,4.5-5.5,1.5-3.5ZM373,427l1-4-3,2.5,2,1.5ZM299,424c.69,1.93-1.78,2.68-2,3.5-.46,1.68-.21,4.45,1.5,5.5l4.5-5.5c-1.37-1.46-1.3-3.94-4-3.5ZM324,426c-2.54.5-2.93-3.53-5-.5l2.5,5.5,2.5-5ZM413.5,424l-3.5,4.5.5.5c1.78-1.27,2.34-2.99,3.5-4.5l-.5-.5ZM273.5,425c-.65,0-.65,1,0,1s.65-1,0-1ZM338.26,425.98c0-.68-.55-1.24-1.24-1.24s-1.24.55-1.24,1.24.55,1.24,1.24,1.24,1.24-.55,1.24-1.24ZM391,425l-5,4.5c.33,1.61-1.77,2.31-2.5,3.5-.93,1.53-.37,3.33-.5,5l3-3.5c1.06-3.58,3.73-5.94,5-9.5ZM310,430c.24-1.88,0-3.47-2-4v4h2ZM349,426c-2.67-.48-1.6.53-2.5,2-.6.98-2.01,1.19-1.5,3,.34.39,5.04-3.84,4-5ZM356,430l1-4c-1.33.22-3.83,3.17-3,4h2ZM363,431c1.64-.71,3.31-2.24,3-4-1.64.71-3.31,2.24-3,4ZM393.5,428c-1.78,1.27-2.34,2.99-3.5,4.5l.5.5,3.5-4.5-.5-.5ZM371,429c-2.92-.22-3.62,2.79-5,4.5l2.5,4.5,2.5-4.5v-4.5ZM430.5,429c-.65,0-.65,1,0,1s.65-1,0-1ZM250.5,430l1.5,5.5c3.21,5.2,4.87,10.57,9.5,14.5l-4.5-8.5-6.5-11.5ZM340.5,430c-.65,0-.65,1,0,1s.65-1,0-1ZM416,443l3-3.5,4-9.5-3,3.5-4,9.5ZM429.5,431c-.65,0-.65,1,0,1s.65-1,0-1ZM303,440l4-3.5-2.5-4.5c-.67,1.79-3.34,1.85-3.5,2-.1.09.28,1.99-1,2.5,1.3,2.03,3.75.66,3,3.5ZM334,432c-.92.18-2.61-.58-3,.5-.66,1.82-1.91,3.35-3,5v4.5l4-4.5,2-5.5ZM354,432l-4,2.5.5,3.5,3.5-6ZM317,442v-3.5l-3.5-5.5c-2.58,1.84-1.25,3.21-.5,5.5l4,3.5ZM360,436c.4.5,2.65-1.75,2-3-.4-.5-2.65,1.75-2,3ZM389.5,434l-1.5,1.5.5.5,1.5-1.5-.5-.5ZM440,434c-.46,3.75-3.26,6.4-5,9.5-18.35,32.76-37.4,64.87-56,97l-1.5,4.5,5.5-6.5c18.34-28.71,38.55-58.56,51-89l5-9,1-6.5ZM338,435l-4,3.5-4,6,2.5,2.5,3.5-6.5,2-5.5ZM365,437h-2v5l3-1.5v-1l-1-2.5ZM373,445l1-2.5,2-5.5-4,4.5-1,3.5h2ZM381,454c2.31-1,3.14-4.36,4-6.5l4-4,2.5-6.5-5.5,6.5-5,10.5ZM359,438c-1.5-.32-2.06.44-3,1.5v2.5c.62.76,2.83-3.14,3-4ZM382,438h-2v1h2v-1ZM393,455l3-6.5,4-5,2.5-5.5-4.5,5.5-5,8v3.5ZM250.5,439l-.5.5,1.5,1.5.5-.5-1.5-1.5ZM293,439l-2,.5,4,7,3,3.5c-.4-4.27-4.54-7.04-5-11ZM298.5,439l-.5.5,3.5,4.5.5-.5-3.5-4.5ZM309,439l-3,3.5,4.5,7.5,2.5-2.5-2-3-2-5.5ZM346,444c2.01-.53,2.24-2.12,2-4-2.01.53-2.24,2.12-2,4ZM362.26,442.98c0-.68-.55-1.24-1.24-1.24s-1.24.55-1.24,1.24.55,1.24,1.24,1.24,1.24-.55,1.24-1.24ZM375,449l4.5-4v-3c-1.79-.47-2.35,1.9-3,3-.75,1.27-2.18,1.56-1.5,4ZM326,445v-2h-1v2h1ZM309,496l-10-19.5-8-15-14.5-17.5,27.5,44.5c-.12,1.49,4.18,8.47,5,7.5ZM339,456c.18-2.19,2.39-4.7,4-6.5l2-5.5-6,7.5-2,4,2,.5ZM355,444h-2v2l2-2ZM416,444c-2.4-.86-5.73,5.14-5,6l3-2.5,2-3.5ZM305,446l-2,.5c.13.67-.18,1.43,0,2,.21.66,4.69,5.25,5.5,6.5l.5-3.5c-1.15-1.78-4.31-2.93-4-5.5ZM359,452l1.5-4c.89-1.01-1.11-2.29-2-2-1,.33-3.09,3-2.5,4.5l3,1.5ZM371,447h-2v2l2-2ZM320,452c1.5.32,2.06-.44,3-1.5v-2.5c-.62-.76-2.83,3.14-3,4ZM330,448l-2,.5,1,2.5h2l-1-3ZM351.5,448c-.65,0-.65,1,0,1s.65-1,0-1ZM426.5,449l-13.5,18.5-5,9-1.5,4.5,4.5-5.5c3.36-6.63,7.38-13,12-19l3.5-7.5ZM373.5,450c-.65,0-.65,1,0,1s.65-1,0-1ZM406,450c-2.82,2.31-7.22,5.76-8.5,9-.73,1.87-.34,1.78,1,3,.99-1.45,2.61-3.15,3.5-4.5.55-.83,1.45-3.14,2-4,.74-1.16,2.52-1.55,2-3.5ZM302.5,451c-.65,0-.65,1,0,1s.65-1,0-1ZM350,451l-4,4.5-1.5,4.5c1.84-2.99,5.11-5.3,5.5-9ZM369,451h-2l-1,3.5.5.5,2.5-4ZM300,451.5l-1.6.8,5.7,11.4,1.6-.8-5.7-11.4ZM307,459c-.11-2.48-1.73-4.46-3.5-6-.62,1.05,1.03,2.71,1.5,3.5.35.59.29,2.47,2,2.5ZM325,460c3.66-1.42,1.43-4.46,1-7l-3,2.5v1l2,3.5ZM356,456v-1.5l-2-1.5v3h2ZM373,453c-2.53-.43-1.71.37-2.5,2-.32.66-1.62,2.88-1.5,3,2.67.48,1.6-.53,2.5-2,.6-.98,2.01-1.19,1.5-3ZM318,458l-2-2v2h2ZM351,456c-.33,2.99-2.71,5.61-4.5,8-1.2,1.6-2.3,1.1,0,3l4.5-4.5,3-5-3-1.5ZM361,456h-2v1h2v-1ZM378,459c.4.5,2.65-1.75,2-3-.4-.5-2.65,1.75-2,3ZM409.5,457l-2.5,3.5.5.5,2.5-3.5-.5-.5ZM314.5,459l-1.5,1.5,1.5,3.5,1.5-1.5-1.5-3.5ZM359.26,459.98c0-.68-.55-1.24-1.24-1.24s-1.24.55-1.24,1.24.55,1.24,1.24,1.24,1.24-.55,1.24-1.24ZM368,460h-2l-1,4c1.33-.22,3.83-3.17,3-4ZM313,468l-2-3.5-3-3.5c-.38,1.21,3.39,8.79,5,7ZM329,464v-3h-.5l-1.5,1.5v1.5h2ZM357,462c-3.86-.02-3.31,4.99-6,6.5l-1,5.5,4-4.5,3-7.5ZM380.5,462c-1.57,1.23-2.48,2.86-3.5,4.5-.49.79-2.11,2.45-1.5,3.5l3.5-4.5,1.5-3.5ZM406.5,462c-.65,0-.65,1,0,1s.65-1,0-1ZM382,489l8-13.5c2.56-2.59,4.07-5.87,6-9,1.23-1.98,1.51-1.79-.5-3.5l-7.5,13.5c-2.42,3.13-3.94,6.62-6,10-.55.9-2.51,2.13,0,2.5ZM402,466l1-2.5-.5-.5-1.5,3h1ZM318.5,464l-3,3,3,3,3-3-3-3ZM370,470l2-6-4,4.5,2,1.5ZM381,468c2.02-.37,1.73-2.49,3-3.5l-.5-.5c-1.2,1.33-2.89,2.1-2.5,4ZM273,465l5,11.5,9.5,14.5-1.5-4.5-5-7-6-12-2-2.5ZM331,468v-2h-1v2h1ZM338,471v-2h-1v2h1ZM352,478l4-4.5,1.5-4.5c-.96,1.44-2.65,3.18-3.5,4.5-.15.24.15.76,0,1-.74,1.16-2.52,1.55-2,3.5ZM388.5,469l-3.5,4.5-1.5,4.5,2.5-3.5,2.5-5.5ZM399.5,469c-.65,0-.65,1,0,1s.65-1,0-1ZM314.5,470l-1.5,2.5,2.5,3.5c2.87-2.22,1.37-4.03-1-6ZM322.6,469.16l-2.56,4.26,1.47.88,2.56-4.26-1.47-.88ZM372,475c2.02-.37,1.73-2.49,3-3.5l-.5-.5c-1.2,1.33-2.89,2.1-2.5,4ZM334,475l2-1.5-1.5-1.5h-.5v3ZM367,472l-4,3.5c-.98,3.14-4.17,6.02-6,9-.04.07-.24.85-.5,1.5-.73,1.87-.34,1.78,1,3l7.5-10.5,2-6.5ZM397.5,472c-.65,0-.65,1,0,1s.65-1,0-1ZM298,501l-10-20.5-6-7.5,6,12.5,7,12,3,3.5ZM390,485l5-6.5,1.5-4.5-5,7-1.5,4ZM323.5,475c-.65,0-.65,1,0,1s.65-1,0-1ZM319,478v-2h-1v2h1ZM309,481c.39-1.9-1.3-2.67-2.5-4l-.5.5c1.27,1.01.98,3.13,3,3.5ZM328,477h-2l-1,4h2l1-4ZM339,481c.83-.83-1.67-3.78-3-4l1,4h2ZM342.5,478c-.65,0-.65,1,0,1s.65-1,0-1ZM318,479h-2v1h2v-1ZM345,484c-.11-1.86,1.54-2.83,1-5-2.02.37-1.73,2.49-3,3.5l2,1.5ZM401.5,479c-.65,0-.65,1,0,1s.65-1,0-1ZM320.5,480c-.65,0-.65,1,0,1s.65-1,0-1ZM336,484l-1.5-3-.5.5,1,2.5h1ZM379,486l1-5h-1l-1,5h1ZM399.5,482c-.65,0-.65,1,0,1s.65-1,0-1ZM324,483h-2v1.5l1.5,1.5h.5v-3ZM349,484h-2l-1,4h2l1-4ZM335,492c.67-1.95-1.72-2.63-2-3.5-.52-1.64.25-3.79-3-3.5-.49,1.93,1.21,2.34,2,3.5.16.24-.15.8,0,1,.39.52,2.68,2.86,3,2.5ZM324,535c.53-.55-2.59-3.81-3-4.5-3.5-5.92-5.9-12.56-9-19l-13-20-3-3.5,6,13.5,18,30,4,3.5ZM324,491v-2h-1v2h1ZM345,492v-3h-.5l-1.5,1.5,2,1.5ZM366,510c.02-2.08,1.99-3.71,3-5.5,1.62-2.89,3.36-6.64,5-10,.82-1.67,2.58-3.09,2-5.5l-8,11.5c0,1.93-2.71,4.76-3,6-.18.76-.61,3.85,1,3.5ZM340,490h-2v1h2v-1ZM355,490l-3.5,3,1,4,2.5-7ZM326.5,491l-2.5,3.5,4.5,5.5,3.5-5.5-5.5-3.5ZM368.5,494l-1.5,1.5.5.5,1.5-1.5-.5-.5ZM317,499c.31-1.76-1.36-3.29-3-4-.31,1.76,1.36,3.29,3,4ZM348,501l3-1.5-1.5-2.5-1.5,1.5v2.5ZM362,505l3-3.5,1.5-4.5-2.5,3.5-2,4.5ZM333,501l1-2.5-.5-.5-1.5,3h1ZM338.5,499c-.65,0-.65,1,0,1s.65-1,0-1ZM319,500c-2.44-.39-2.16.29-2,2.5l6,7.5-4-10ZM355.5,500c-.65,0-.65,1,0,1s.65-1,0-1ZM337,501l-4,3.5v4.5l4-3.5v-4.5ZM384.5,501l-3.5,4.5-1.5,4.5,3.5-4.5,1.5-4.5ZM347,505c.65-1.25-1.6-3.5-2-3-.65,1.25,1.6,3.5,2,3ZM330.5,503c-.65,0-.65,1,0,1s.65-1,0-1ZM353,505v-2h-1v2h1ZM379,525l9-15.5,2.5-6.5c-4.6,5.78-7.33,12.65-11.5,18.5v3.5ZM361,509v-3h-1c.42,1.51-.69,1.82-1,3h2ZM343.5,507c-.65,0-.65,1,0,1s.65-1,0-1ZM351,508h-1.5l-1.5,2h3v-2ZM342,509c-2.92-.22-3.62,2.79-5,4.5l1.5,3.5c1.87-2.4,4.17-4.69,3.5-8ZM331,514l-1.5-3-.5.5,1,2.5h1ZM364,511h-2v3h2v-3ZM355,513c.37,1.72-.87,2.36-2,3.5l1.5,1.5,2.5-3.5-2-1.5ZM326.4,513.16l-1.76,1.06,3.26,5.44,1.76-1.06-3.26-5.44ZM344,515l-2.5,7c1.59-1.63,3.27-2.81,4-5l-1.5-2ZM336,520c.65-1.25-1.6-3.5-2-3-.65,1.25,1.6,3.5,2,3ZM324.5,518c-.65,0-.65,1,0,1s.65-1,0-1ZM359.21,517.82l-2.87,4.78,1.62.97,2.87-4.78-1.62-.97ZM353,522l-2-2v2h2ZM330,521l2.5,6c3.25-2.33.68-5.91-2.5-6ZM348,530l2-6-4,4.5,2,1.5ZM355.5,525c-.65,0-.65,1,0,1s.65-1,0-1ZM354.5,528c-.65,0-.65,1,0,1s.65-1,0-1ZM316.5,530c-.65,0-.65,1,0,1s.65-1,0-1ZM338,530h-3c-.37,2.4.48,4.24,3,4v-4ZM332,555c.13-2.01.3-2.81-1-4.5-2.92-3.8-5.48-7.49-8-11-.52-.72-1.5-1.28-2-2-.15-.22.16-.77,0-1-.95-1.39-2.48-3.03-3.5-4.5l6.5,12.5,8,10.5ZM350,535c.4.5,2.65-1.75,2-3-.4-.5-2.65,1.75-2,3ZM366.5,535c-.65,0-.65,1,0,1s.65-1,0-1ZM340,536h-2v3l2-1.5v-1.5ZM343.5,537c-.65,0-.65,1,0,1s.65-1,0-1ZM356,540c.4.5,2.65-1.75,2-3-.4-.5-2.65,1.75-2,3ZM331,546l-1.5-4-4.5-4,2,3.5,4,4.5ZM359,549l3-3.5,2.5-6.5-3.5,4.5-2,5.5ZM340,543c.4.5,2.65-1.75,2-3-.4-.5-2.65,1.75-2,3ZM347,542v-2h-1v2h1ZM354.5,542c-.65,0-.65,1,0,1s.65-1,0-1ZM342,547c.4.5,2.65-1.75,2-3-.4-.5-2.65,1.75-2,3ZM353,545l-4,3.5-3,5-1,4.5,3-2.5c-.22-1.99,1.1-3.22,2-5,.45-.89,3.24-5.24,3-5.5ZM355,549c-2.02.37-1.73,2.49-3,3.5l.5.5c1.2-1.33,2.89-2.1,2.5-4ZM358,552h-2l-1,4c.62.75,2.79-3.08,3-4ZM349,563l3-8c-2.28,1.25-3.21,4.06-4.5,6l1.5,2ZM334,560l2-1.5-1.5-2.5-1.5,1.5,1,2.5ZM355,558l-2.5,2-1,4,3.5-6ZM337.5,560c-.65,0-.65,1,0,1s.65-1,0-1ZM342.5,561c-.65,0-.65,1,0,1s.65-1,0-1ZM353,571l4-3.5,2-5.5-3,3.5c.45,1.3-3.26,5.23-3,5.5ZM341,569l1-3.5-2.5-2.5-2.5,2.5,6.5,9.5,2.5-4.5-2.5-2.5-2.5,1ZM352,573l-1,2.5.5.5,1.5-3h-1ZM343,580l-3-3c-.29,1.9,1.1,3.29,3,3ZM348,580v-3h-.5l-1.5,1.5v1.5h2Z"/>
</svg>