<?xml version="1.0" encoding="UTF-8"?>
<svg id="Capa_1" data-name="Capa 1" xmlns="http://www.w3.org/2000/svg" viewBox="0 0 1024 1024">
  <path d="M203,314l.5,2,5-3c4.7-1.46,8.38-2.17,13-3,.38-.07.63-.94,1-1,3.24-.48,6.41.16,8.5,2.5l-1.5,2.5-3-1-5.5,1,12.5,2c2.57,2.15,6.14,2.37,9,4,5.6,3.19,13.26,12.4,15.5,18.5.43,1.18,1.88,6.16,2,7,.45,3.04-.32,6.83,0,10l-5,5-1,3-4,4-2,5c-3.47,2.69-3.96,4.37-5,8-.74,2.59-32.35,30.82-38,37-13.21,14.45-28.54,38.21-43.5,49.5-.84.63-3.36,3.09-2.5,4,1.38-.93,1.91-.89,3.5-1,11.66-.77,22.51-.54,34,0,19.53.92,40.01-2.29,59-3,33.6-1.25,67.36-.57,101,1,17.98.84,36.92,3.41,55,4,7.51.24,19.34-1.19,26,0,11.7,2.09,40.57-.17,54-1,64.22-3.99,131.39-7.97,196-2,11.55,1.07,23.63,3.72,36,3,34.78-2.02,69.4-5.37,106-4,10.13.38,19.99,1.77,30,1,3.12-.24,6.37.17,9.5,0-3.54-4.14-7.44-8.36-11.5-12-8.48-7.6-18.43-14.15-27-22-14-12.83-25.7-27.16-37.5-40.5-5.77-6.52-13.85-12.1-18-18.5h-2c-.19-1.97-1.89-3.69-3-5.5-1.57-2.56-3.42-4.55-2-7-3.15-3.41-1.72-8.18-2-12.5l3,1.5-1,5c1.65,2.44,1.51,6.1,5,7.5l-1-13.5c-3.28-3.11.54-6.86,1-9,.76-3.52,1.1-6.49,2-10,2.35-9.16,6.95-16.54,15.5-20.5.41-.19.61-.84,1-1,.79-.32,2.21.53,3-1,1.42-.41,2.89,1.58,2.5,3l-4.5,1c-2.35,1.69-4.94,4.67-7.5,5l-1.5,4c1.05-.81,1.97-2.32,3-3,1.39-.91,9.82-4.76,11-5s2.78.22,4,0c.38-.07.63-.95,1-1,4.74-.58,12.85-.19,17,1,.64.18,1.4,2.08,2.5,2,1.29-1.48-4.43-5.29-5-6.5-1.27-2.69,2.9-.79,4,0,4.45,3.19,7.22,9.56,12.5,12.5,2.28,1.27,1.71,2.27,4,4,29.32,22.2,57.66,43.95,81.5,73.5,17.92,22.21,39.1,42.91,58.5,64.5l1-1c3.12-.9,23.66,19.71,26.5,23.5,2.13,2.84,2.75,5.9,4,9,.23.58,1.92,2.64,2,3,.24,1.1.24,5.9,0,7-.08.36-1.77,2.42-2,3s.24,1.45,0,2c-1.6,3.65-5.23,7.64-6,12-.29,1.64.2,3.76,0,5.5,1.9-.29,3.29,1.1,3,3-.19.19-1.03-.26-1.5,0-4.68,2.61-15.66,16.21-19.5,20.5s-9,8.7-11,13.5h-2c-28.85,39.07-67.07,76.67-105.5,108-5.28,4.31-11.85,8.46-17,13-2.24,1.98-13.05,13.74-14,14-1.09.3-2.91-.3-4,0-.93.26-11.52,11.06-14,13-1.68,1.31-2.89,3.09-5,4l-1-3,9.5-8c-1.72-.41-3.32,1.57-4.5,2s-3.81.59-5,1c-.52.18-2.64,1.92-3,2-1.29.28-6.61.25-8,0-.38-.07-.6-.9-1-1-1.45-.36-3.6-.59-5-1-.6-.18-4.4-3.82-5-4-3.12-.92-6.17-1.39-9-3-2.41-1.38-10.81-8.95-12.5-11.5-.28-.42-.71-2.48-1-3-.39-.69-1.85-1.49-2-2-.19-.66.23-1.5,0-2-.29-.62-1.92-2.64-2-3-.31-1.42.23-3.45,0-5-.05-.37-.93-.62-1-1-.26-1.42.57-6.54,1-8,.11-.38.81-.58,1-1,.66-1.51-.74-1.9,3-1.5.78,1.75-.95,3.18-1,3.5-.31,2.15-.36,8.96,0,11,.07.37.88.59,1,1,1.02,3.58,2.77,8.03,5,11,.97,1.29,9.43,9.11,10,8.5.18-2.14-2.01-4.22-4-4-1.61-4.1-4.82-8.07-6-12.5-.78-2.95-.37-7.72-1-10-.31-1.11-3.8-2.42-3-4.5,4.1.12,2.49-3.03,3-5.5.67-3.25,4.03-9.52,6-13,1.36-2.41,7.22-11.23,9.5-12.5,2.53-1.41,9.38-9.56,13-13,21.93-20.87,39.08-41.33,57.5-64.5,2.05-2.58,4.64-4.41,6-7.5l-65-2v4c-1.78.15-3.77-.23-5.5,0-25.73,3.37-52.9-.75-78-2-22.23-1.11-45.56-2.59-68-2-10.85.29-24.06.85-35,2-4.58.48-10.65,2.55-15,3s-9.14-.32-13.5,0l4.5-3c2.52-.54,6.22,1.07,8-1l6.5-1c-13.48.19-27.01-.26-40.5,0-65.18,1.27-131.83,10.51-198,7-10.56-.56-23.03-2.52-33-5-2.01-.5-11.71-2.3-13-2-18.4,4.3-55.61.24-77,1-.34.01-.65.99-1,1-16.8.66-33.62.76-50,2-3.75.28-9.84.92-12-2h-23.5l10.5,11c24.88,20.98,49.67,43.27,70.5,68.5l-1,1,1.5-.5,2.5,3.5-1,1,1.5-.5,1.5,1.5v2.5c6.19,2.07,9.86,8.05,13,13.5l-1,3c3.23,2.62,3.15,6.6,4,10,.1.4.93.62,1,1,1.05,5.78-3.45,6-4,8-.29,1.07.25,2.81,0,4-.81,3.92-3.24,9.17-5,13-4.05,8.82-7.35,13.89-15.5,18.5-4.45,2.52-4.33,2.13-9,3-.38.07-.62.94-1,1-1.37.22-3.06-.15-4.5,0l-1-3c2.27.61,3.46-1.7,4.5,0l9-3c2.77-2.4,6.06-4.37,8.5-7.5.61-.78,2.03-2.46,1.5-3.5l-4,4-5,2c-3.72,2.28-7.77,3.15-12,4-.39.08-.63.95-1,1-1.48.22-4.48.19-6,0-.37-.05-.62-.94-1-1-1.55-.23-3.47.25-5,0-.8-.13-3.93-1.61-5-2-2.51-.91-5.18-1.88-7-4-1.27.37,2.06,5.44-1,4-.69-.32-3.69-3.58-4.5-4.5-15.71-17.83-36.01-32.56-53.5-48.5-22.79-20.76-44.46-42.92-63.5-66.5-3.12-3.86-20.69-27.69-23.5-28.5-9.16-2.63-21.57-15.54-27.5-23.5-3.91-5.25-5.31-7.18-7-14-.1-.4-.93-.62-1-1-.24-1.37-.24-5.63,0-7,.07-.37.88-.59,1-1,.18-.65-.22-1.46,0-2,.16-.39.81-.59,1-1,1.18-2.55,2.84-3.91,5-6l1-7,3-5c-1.29-1.91-2.77,1.27-3.5,1.5-.93.29-3.4.27-2.5-1.5.33-.64,2.71-2.83,3.5-3.5,11.24-9.55,19.17-18.95,28.5-30.5,35.3-43.7,77.54-88.22,123-120.5v-2c1.9-.38,5-2.75,6.5-4,4.22-3.53,6.95-7.62,10-12l4.5,1v-2h2c1.22-3.79,5.41-4.83,8-8.5,1.44-2.04,3.69-3.26,5.5-4.5l2.5,1.5c-2.39,1.67-5.26,6.25-7.5,7.5-.47.26-1.31-.19-1.5,0ZM205,317c-.62-.52-5,1.77-5,2.5l5-1.5v-1ZM210.7,320.4l-6,3,.8,1.6,6-3-.8-1.6ZM219,321h-6c.2,1.77.06,3-1.5,4-.25.16-.79-.15-1,0-5.1,3.6-10.8,11.51-15.5,16,1.84.39,2.38-1.01,3.5-2,1.72-1.52,3.26-3.63,5-5,3.89-3.07,8.92-6.76,13-10,.89-.71,2.16-1.9,2.5-3ZM229,323l-5.5-2-4.5,4.5,1,5.5,3.5-2,5.5-6ZM243,323l-4-1.5c2.09,1.46,4.54,5.41,6.5,6.5.47.26,1.31-.19,1.5,0s-.26,1.03,0,1.5c.39.69,1.62,1.31,2,2,1.81,3.3,2.16,6.64,3,10,.1.4.93.62,1,1,.7,3.9-.5,9.38,0,13.5l2-4c-.25,1.66.37,4.04,0,5.5-.13.53-4.03,2.97-1,3.5l3-5.5c-.37-3.1.52-7.08,0-10-.07-.38-.9-.6-1-1-1.82-7.35-5.97-16.49-13-19.5v-2ZM808,321c-2.14-.08-3.73-.41-5,1.5,2.55,3.27-1.09,8.78,3.5,11.5l.5-10.5,1-2.5ZM817,322c-1.8.16-3.24,0-5-.5-1.27-.36-1.2.22-2,1l1,6.5,2.5-4,1.5,3.5,3,3.5-1-10ZM800,327l-1-5-3,2.5c1.33,1.2,2.1,2.89,4,2.5ZM845,344c.39-1.84-1.01-2.38-2-3.5-5.02-5.69-10.8-12.14-17.5-15.5-.87-.43-2.2-1.35-3-2l-2.5,1.5c-.3,1.05.84,1.46,1,3,.35,3.42-1.12,6.18,2.5,8.5l2-7c1.43-.4,4.02,2.63,3.5,4l4-2v5c2.17-.47,2.96,1.94,4.5,3,.73.51,3.27,1.49,4,2,.69.48,3.05,3.51,3.5,3ZM232,353.5v-16c0-.29,1.84-4.32,2-5,.33-1.41-.67-3.04,1-4l-2.5-2.5-2.5,1c.55,1.61-.93,2.11-1,2.5-.24,1.36-.18,4.55,0,6,.05.37.97.64,1,1,.55,5.91-.4,12.51,0,18.5l2-1.5ZM786,343c3.41-1.25,1.59-5.75,2-8.5.05-.37.91-.6,1-1,.21-.89-.23-2.16,0-3,.41-1.5,4.7-1.53,4-4.5l-6,5.5-3,5,2,6.5ZM183,342c4.36-3.03,7.51-7.58,11.5-11,.06-.05.6.16,1.5-.5,1.12-.82,2.3-1.95,2-3.5-.21-.22-2.89,1.57-3.5,2-2.79,1.96-3.62,3.33-5.5,5.5-1.23,1.42-2.76,2.59-4,4-.99,1.12-2.39,1.66-2,3.5ZM217,329c-1.72-.41-1.98.66-3,1.5-2.82,2.33-3.49,3.68-3,7.5l6-4.5v-4.5ZM798,329c-2.73-1.04-2.42,2.99-2,4.5.11.41,2.2,2.36,3,2.5l-1-7ZM241,334c-.98-1.84-1.35-4.36-4-4v10c1.76.23.95-2.26,1-3.5.03-.83-.02-1.68,0-2.5h3ZM812,338v-7h-1v7h1ZM223,349l1.5-12,.5-5-4,4.5c-.57,2.49.94,3.6,1,4,.22,1.51-.07,3.38,0,5,.05,1.24-.76,3.73,1,3.5ZM828,336v-2h-1v2h1ZM819,345c.35-4.1-.07-8.03-4-10-.35,4.1.07,8.03,4,10ZM791,344l1-8c-1.91-.2-.74,2.24-1,3.5-.08.39-.93.62-1,1-.16.86-.62,3.83,1,3.5ZM243,337c-1.17-1.35-1.92-.12-2,1.5-.13,2.56.34,5.61,0,8-.05.32-1.78,1.75-1,3.5l4-2.5c-1.3-.89-1.29-3.4-1-5,.05-.27.98-.43,1-2s-1.39-1.84-1-3.5ZM808,343c.42-2.84-.26-4.82-3-6-.11,3-.6,6.18,3,6ZM209,338h-2v3h2v-3ZM830,343v-3.5l-2-1.5v3.5l2,1.5ZM215,346c.14-.12,2.38.09,3-1.5-1.68-1.22-.84-3.49-1-5.5l-4,3.5v6.5c2.05-.03,1.86-2.88,2-3ZM836,348c.22-3.58.57-7.61-4-8,2.17,2.72-.88,7.96,4,8ZM782,344v-3h-1v3h1ZM798.5,341c-.65,0-.65,1,0,1s.65-1,0-1ZM207,342h-2v3l2-1.5v-1.5ZM823,348v-5h-1v5h1ZM188.5,344l-1.5,1.5.5.5,1.5-1.5-.5-.5ZM193.5,344l-1.5,1.5.5.5,1.5-1.5-.5-.5ZM203,344l-4,2.5-2,5.5c1.36-.8,3.73-2.76,4.5-4s.43-2.65,1.5-4ZM800,350v-6h-1v6h1ZM813,344h-2v4h1c-.31-1.71.21-2.62,1-4ZM236,345c-1.15-1.37-1.92-.13-2,1.5-.2,4.11.85,8.78-1,12.5,3.14.27,4.48-4.45,4-6.5-.09-.4-.95-.63-1-1-.29-2,.2-4.42,0-6.5ZM780,353c0-1.49,0-3,0-4.5,0-1.2.73-3.74-1-3.5.1,2.49-1.14,3.8-1,6.5.08,1.62.85,2.88,2,1.5ZM794,346c-1.15-1.37-1.92-.13-2,1.5s.2,3.46,0,5c-.58,4.4-2.25,9.66-3,14-.31,1.79.75,3.86-1,5l4.5,4.5c3.19.25.06-1.04.5-2.5,1.36-4.53-.06-16.47,1-23,.22-1.37-.15-3.06,0-4.5ZM829,346c-1.17-1.35-1.92-.12-2,1.5-.1,1.99.07,4.01,0,6l3,2.5c-.17-2.11.24-4.44,0-6.5-.18-1.55-1.28-1.92-1-3.5ZM843,355c.47-4.25,0-6.96-4-9v5.5l4,3.5ZM165,347l-6.5,4c-1.4,1.21-2.59,2.86-4,4-34.18,27.57-64.08,59.97-92.5,93.5-2.08,2.46-4.84,4.57-7,7l-1.5,3.5,12-13c30.76-29.84,64.73-58.34,91.5-91.5l8-7.5ZM205,354l3-2.5,1-4.5c-2.75,1.52-4.69,3.61-4,7ZM807,359c-.16-2.79.23-5.71,0-8.5-.14-1.7.13-2.94-2-3.5.16,2.79-.23,5.71,0,8.5.14,1.7-.13,2.94,2,3.5ZM817,347l-2,.5c-.42,3.5.59,3.01,2,5,.52.73.38,3.09,3,2.5l-1-6h-1.5l-.5-2ZM188.25,347.25l-4.75,4.75,1,1,4.75-4.75-1-1ZM933,422l4,4.5,3,2c-4.09-4.48-9-8.48-13-13-4.82-5.46-8.6-11.81-13-17-13.4-15.78-30.08-30.4-45.5-43.5-1.57-1.34-2.92-3.24-4.5-4.5-.99-.78-2.67-.99-3.5-2.5l17.5,18.5c2.85,3.99,10.24,8.63,13,14l42,41.5ZM176,349c-1.84-.39-2.38,1.01-3.5,2-4.41,3.89-11.96,11.05-15.5,15.5-1.26,1.59-.97,1.03.5,2.5,2.27-2.24,5.7-3.79,7.5-6.5,3.67-5.54,3.66-4.16,7-7.5.19-.19-.26-1.03,0-1.5.84-1.51,3.47-2.6,4-4.5ZM218,349l-3.5,3-1.5,4c.74.8,3.81-1.82,4-2.5.37-1.33-.45-2.91,1-4.5ZM848,348.5l-1.5,1.5,40.25,40.25,1.5-1.5-40.25-40.25ZM242,366c3.43-1.38,2.55-4.93,3-7.5.07-.38.95-.63,1-1,.29-2.36-.2-5.08,0-7.5l-2,2.5-2,3c1.32,2.34.1,2.39,0,3-.37,2.24.26,5.14,0,7.5ZM812,352c-1.15-1.37-1.92-.13-2,1.5-.14,2.94-1.28,9.74,3,9.5-1.9-3.28-.68-7.38-1-11ZM191,357c1.64-.71,3.31-2.24,3-4-1.64.71-3.31,2.24-3,4ZM198,360c2.75-1.52,4.69-3.61,4-7-2.75,1.52-4.69,3.61-4,7ZM226,367c.18-1.72.84-2.56,1-4.5.25-3.11-.18-6.38,0-9.5-1.89-.2-.76,2.23-1,3.5-.07.39-.95.63-1,1-.22,1.77-.04,4.12,0,6,.02,1.22-.75,3.73,1,3.5ZM179,358c2.01-.53,2.24-2.12,2-4-2.01.53-2.24,2.12-2,4ZM223,358v-4h-1v4h1ZM799,354h-1v9h1v-9ZM837,363l-.5-3c.95-1.87,1.17-5.23-1.5-6l-1,6.5,3,2.5ZM851,363c.63-3.85-.6-6.21-4-8-.24,2.83,0,7.88,4,8ZM205,363c3.99-.24,4.4-3.73,4-7-2.75,1.52-4.69,3.61-4,7ZM825,360v-4h-1v4h1ZM221,372c.39-2.41-1.57-3.99-1-6.5.41-1.81.95-2.34,1-5,.02-1.17.72-3.75-1-3.5l-1,4.5c.04,2.66-.06,5.34,0,8,.05,2.06-.72,2.89,2,2.5ZM820,370v-9.5l-4-3.5c.58,4.62-2.28,12.21,4,13ZM187,358h-2v4h2v-4ZM842,368c-.56-3.04,1.64-8.45-2-10v7.5l2,2.5ZM214,377c2.13-.56,1.86-1.8,2-3.5.21-2.6-.25-5.43,0-8,.03-.36.95-.63,1-1,.23-1.72-.16-3.73,0-5.5-3.15,1.75-4.67,3.83-4,7.5.07.38.95.63,1,1,.37,2.97-.26,6.45,0,9.5ZM238,360c-2.92-.74-1.48,1.88-3.5,3-.47.26-1.31-.19-1.5,0v6l4-4.5,1-4.5ZM831,367l-3-7c-.2,1.8.06,3.25.5,5s.35,2.38,2.5,2ZM179,367c2.31.91,5.75-5.1,5-6-1.55.05-5.4,5.62-5,6ZM195,361c-2.67-.48-1.6.53-2.5,2-.6.98-2.01,1.19-1.5,3,1.38-.77,1.84-1.38,3.5-2,1.08-.4.32-2.07.5-3ZM198,371l4-3.5v-6.5c-3.93,1.97-4.35,5.9-4,10ZM174.5,362c-.65,0-.65,1,0,1s.65-1,0-1ZM856,369v-5.5l-2-1.5c-.22,1.79.08,3.26.5,5,.24,1,.3,2.28,1.5,2ZM806,369v-6h-1l-1,3.5,2,2.5ZM168,371l3-6c-1.29.82-4.44,3.37-5,4.5-.74,1.51.78,1.83,2,1.5ZM206,373l3-2.5,1-4.5c-2.75,1.52-4.69,3.61-4,7ZM771.5,366l1.5,4.5,3.5,4.5-1.5-4.5-3.5-4.5ZM243,367h-2v1h2v-1ZM813,376v-5.5l-3-3.5v4.5l3,4.5ZM825,375c-.37-2.63,1.34-6.82-2-8,.07,2.15-.11,4.34,0,6.5.08,1.63.85,2.87,2,1.5ZM838,374l-3-7-.5,4,3.5,3ZM852,378c.48-1.86-.72-2.89-1-4.5-.48-2.74.81-5.03-3-6.5-.06,3.18-.28,5.86,1,8.5l3,2.5ZM154.5,368c-.65,0-.65,1,0,1s.65-1,0-1ZM188,368h-2v1h2v-1ZM196,368l-5,3.5-1,6.5,5-3.5,1-6.5ZM866,378c-.13-1.67.43-3.47-.5-5s-3.92-3.88-5.5-5v5.5l1.5,1.5h2.5l2,3ZM174,372c.4.5,2.65-1.75,2-3-.4-.5-2.65,1.75-2,3ZM225,375c2.74-1.18,3.42-3.16,3-6-2.02.37-1.73,2.49-3,3.5v2.5ZM829,369l-2,.5,1,9,3,2.5c-.41-2.44.58-6.37,0-8.5-.22-.82-2.69-1.57-2-3.5ZM144,382c.23-.23,1.27-3.77,4-4.5l4.5-7.5-15,14-17.5,18c.46.45,4.69-4.3,5.5-5,2.54-2.19,6.58-5.83,9.5-7v-2c1.64-.76,8.08-5.08,9-6ZM184.75,369.75l-4.5,4.5,1,1,4.5-4.5-1-1ZM799,382c-.64-3.27,1.76-9.24-2-11,.64,3.27-1.76,9.24,2,11ZM235,378l3.5-6c-1.5,1.28-2.43,3.37-4.5,3l1,3ZM806,376v-4h-1v4h1ZM165,380c1.32-.57,7.08-5.83,6-7-2.76,1.73-5.92,3.22-6,7ZM199,379c2.74-1.18,3.42-3.16,3-6-2.74,1.18-3.42,3.16-3,6ZM842,375v-2h-1v2h1ZM857,383l-2-10c.04,2.49-.06,5,0,7.5.05,2.06-.72,2.89,2,2.5ZM211.5,374c-.65,0-.65,1,0,1s.65-1,0-1ZM819,381l-2-7c.06,1.82-.09,3.67,0,5.5.08,1.62.83,2.85,2,1.5ZM162,375c-1.84-.39-2.37,1.01-3.5,2-1.79,1.57-3.92,3.71-5.5,5.5-.99,1.12-2.39,1.66-2,3.5,3.67-.1,3.97-5.88,7.5-6l3.5-5ZM809,398l-2-3.5c-2.32-1.2-5.51-3.91-7-6s-3.38-4.12-5-6c-1.99-2.3-4.46-4.24-6.5-6.5-.53,1.04.89,2.72,1.5,3.5,1.31,1.68,3.89,2.93,4,5l15,13.5ZM834,376c.36,2.17-.52,5.62,0,7.5.19.71,2.88,2.52,3.5,3.5l-.5-7.5-3-3.5ZM845,376h-1v8h1v-8ZM176.75,376.75l-4.5,4.5,1,1,4.5-4.5-1-1ZM186,377l-5,4.5v4.5l4-2.5,1-6.5ZM208,382v-5h-1v5h1ZM212,378h-2v2l2-2ZM219,383l1-5c-2.66.59-1.37,3.22-3,4.5l2,.5ZM811,378c-1.22-.34-2.75,0-2,1.5,1.04,2.09,2.86,4.42,5,5.5.05-1.98.44-3.84-1.5-5-.75-.45-2.04.89-1.5-2ZM196,379c-3.38.36-5.72,3.72-5,7,1.5-.53,6.54-5.34,5-7ZM803,384l-1-5-1,5.5,4,2.5v-4l-2,1ZM824,379c-3.51-.79-1.57,3.44-2,5.5l3,2.5c.67-1.99-1.67-3.4,0-4.5l-1-3.5ZM862,389l1-7.5-3-2.5c.56,3.04-1.64,8.45,2,10ZM876,388l-1-3.5,1-1-5-4.5v5.5l3,1.5,2,2ZM852,391v-7.5l-4-3.5c-.25,2.01,1.37,1.83.5,4-.91,2.28.26,1.73.5,2.5.19.6-.18,1.38,0,2,.12.42,2.2,2.35,3,2.5ZM161,385v-3h-.5l-1.5,1.5v1.5h2ZM202,383l-3,2.5,1,4.5,2-7ZM203,387l2-1.5v-2.5h-1l-1,4ZM228.5,383c-3.44,2.59-6.59,5.29-9.5,8.5,1.04.53,2.72-.89,3.5-1.5,1.31-1.02,2.8-2.74,4-4,.66-.69,2.76-2,2-3ZM831,392v-6.5l-3-2.5v6.5l3,2.5ZM168.75,383.75l-4.5,4.5,1,1,4.5-4.5-1-1ZM172,396l7-7.5-1-4.5c-1.08.54-4.82,3.87-5,4.5-.28.98.5,2.18-1,3v4.5ZM817,400c.55-1.61-.93-2.11-1-2.5-.43-2.45.46-4.54-1-7-1.14-1.92-5.11-4.93-7-6.5-.24,2.27.79,5.06-1,6.5,1.19,2.01,3.59.75,3,3l17.5,17.5-1.5-8.5c-.69-1.93-3.81-2.33-4-2.5-.12-.11.06-2.44-1.5-3l-.5,3h-3ZM213,385l-3,1.5v4.5c2.98-.86,1.33-3.89,3-6ZM841,389v-3h-1v3h1ZM157.25,386.25l-6.75,6.75,1,1,6.75-6.75-1-1ZM866,393v-6h-1v6h1ZM197,388c-.88-.98-4.82,2.42-4,4h-2v4c3.57-1.27,6.21-3.97,6-8ZM825,395l-1.5-4-2.5-3c-.69,3.39,1.25,5.48,4,7ZM845,388c-2.98-.59-1.92,1.36-2,3.5l3,2.5-1-6ZM882,395v-5.5l-2-1.5v5.5l2,1.5ZM185,389c-3.1-.21-3.27,2.25-3,5,2.18-.97,3.47-2.63,3-5ZM837,398v-6.5l-3-2.5v6.5l3,2.5ZM857,389h-1v9h1v-9ZM875,404v-10.5l-4-4.5v10.5l4,4.5ZM147,390c-1.9-.29-3.29,1.1-3,3h2l1-3ZM207,390l-4.5,4-.5,5c3.46-2.21,5.88-4.58,5-9ZM159,394c.4.5,2.65-1.75,2-3-.4-.5-2.65,1.75-2,3ZM143,395v-2h-1v2h1ZM886,400l1-4.5-2-2.5c.04,1.49-.06,3,0,4.5.05,1.15-.66,2.75,1,2.5ZM158,396l-.5-2-5.5,6.5,4-3v-1.5h2ZM169,394c-4.51-.02-2.7,5.09-3,8l2-2.5,1-5.5ZM215.5,394l-3.5,3.5.5.5,3.5-3.5-.5-.5ZM852,401l-.5-5-2.5-2c-.27,2.48.37,5.87,3,7ZM861,397v-3h-1v3h1ZM179,395c-.97-.97-3.88,2.26-4.5,3-1.21,1.43-1.95,1.7-1.5,4,2.03-.67,2.69-3.48,5-3l1-4ZM831,401c.42-2.84-.26-4.82-3-6-.42,2.84.26,4.82,3,6ZM147,396l-5.5,5-1.5,4,5.5-5,1.5-4ZM187,402l1-6h-1l-1,6h1ZM867,407c-2.45-2.93,1-8.28-3-10-.48,2.31-1.66,5.09-1,7.5.18.67,3.21,3.28,4,2.5ZM892,406l1-4.5-4-4.5v6.5l3,2.5ZM845,398c-1.17-1.35-1.92-.12-2,1.5s.06,3.34,0,5l3,3.5c-.17-2.11.24-4.44,0-6.5-.18-1.55-1.28-1.92-1-3.5ZM137.5,399l-1.5,1.5.5.5,1.5-1.5-.5-.5ZM184,399h-2v5h1c-.54-2.17,1.11-3.14,1-5ZM198,399c-.8-.92-4.83,2.88-5,3.5-.37,1.33.45,2.91-1,4.5.95.97,4.37-2.67,5-3.5,1.3-1.69,1.13-2.49,1-4.5ZM153,414l8-7.5,1-6.5c-1.53,1.21-8.72,7.48-9,8.5-.39,1.41.27,3.86,0,5.5ZM801.5,400c-.65,0-.65,1,0,1s.65-1,0-1ZM837,406c.47-2.37-.82-4.03-3-5-.27,2.75-.1,5.21,3,5ZM814,411c-.19-.19-1.03.26-1.5,0-2.33-1.3-3.48-5.04-5-6-.25-.16-.79.15-1,0-.98-.69-2.16-3.15-3.5-2.5l20.5,20.5c.76-1-1.34-2.31-2-3-1.78-1.86-6.55-5.8-7.5-7.5-.26-.47.19-1.31,0-1.5ZM858,407c.54-2.17-1.11-3.14-1-5h-1v5h2ZM133,411c2.75-1.52,4.69-3.61,4-7l-2.5,3-1.5,4ZM179,404l-5,3.5-1,5.5c1.08-.53,4.83-3.88,5-4.5.37-1.32-.45-2.92,1-4.5ZM851,404l-2,.5c2.6,2.54-1.06,7.97,3,9.5-.27-2.35.39-5.28,0-7.5-.07-.39-1.55-.89-1-2.5ZM887,415l-2-11-1,8.5,3,2.5ZM899,413l-1-6.5-3-2.5c-.47,4.25,0,6.96,4,9ZM168,405h-2v4c2.01-.53,2.24-2.12,2-4ZM875,417v-8.5l-4-3.5v8.5l4,3.5ZM145.5,406c-1.14,1.19-2.37,2.3-3.5,3.5-.57.61-2.4,1.69-1.5,2.5.98-1.02,2.02-1.98,3-3,.66-.69,2.76-2,2-3ZM181,419l7-6.5-.5-5.5c-1.82,1.56-3.45,3.69-3.5,6h-2l-1,6ZM867,417c.25-3.44-2.14-6.4-5-8-.07,2.91.74,5.03,3.5,6,1.2.42-.38,2.35,1.5,2ZM893,422c-.28-2.36-2.3-4.66,0-6.5v-2l-4-4.5v9.5l4,3.5ZM831,416c1.59-.31,3.01,1.2,4,2.5.17.22-.15.81,0,1,.49.61,2.12,2.76,3,2-2.06-1.72-.45-5.01-1-7-.23-.84-3.76-3.32-4.5-4.5-1.22.65-.56,2.88.5,3.5l-2,2.5ZM905,420l1-6.5-4-3.5v6.5l3,3.5ZM125,419c2.82-1.88,5.83-4.16,5-8-2.82,1.88-5.83,4.16-5,8ZM154,421l3-1.5c2.44-2.37,5.35-4.69,5-8.5l-7.5,6-.5,4ZM171,415v-4h-1v4h1ZM846,416c.47-2.37-.82-4.03-3-5-.47,2.37.82,4.03,3,5ZM858,420c-.47-2.83,1.51-7.65-2-9,.09,2.48-.12,5.01,0,7.5.08,1.63.85,2.87,2,1.5ZM150,414v-2h-1v2h1ZM880,422c-.56-3.04,1.64-8.45-2-10,.56,3.04-1.64,8.45,2,10ZM94,430c5.74-5.12,11.76-9.86,17-15.5l-4.5,3.5h-1l-11.5,12ZM134,418c1.64-.71,3.31-2.24,3-4-1.64.71-3.31,2.24-3,4ZM166,420v-4h-1v4h1ZM900,429c-2.73-4.36,1.88-12.06-5-13-.28,1.58.82,1.95,1,3.5.45,3.85-1.62,8.86,4,9.5ZM81,450c.19-.19,1.03.26,1.5,0,4.15-2.31,24.04-24.02,27.5-28.5,1.11-1.44,3.33-2.27,3-4.5-6.74,6.04-12.86,12.24-19.5,18-2.89,2.51-7.21,6.52-10.5,8v2.5c-4.45,1.9-3.32,4.23-5,7-.62,1.02-3.34,2.3-1.5,3.5,1.05-1.49,3.72-3.1,4.5-4.5.26-.47-.19-1.31,0-1.5ZM142,426c.31-3.76,5.33-4.35,4-9-2.83,2.18-6.74,4.72-6,8.5l2,.5ZM167,432c1.84.39,2.37-1.01,3.5-2s7.36-6.99,7.5-7.5c.39-1.41-.27-3.86,0-5.5-2.27,1.32-4.58,3.24-4,6-1.64-.91-5.67,2.3-6,3.5-.45,1.6.66,3.68-1,5.5ZM852,422c.27-2.75.1-5.21-3-5-.48,1.21,2.38,5.77,3,5ZM867,429v-7.5c-.61-1.35-2.11-1.26-2.5-1.5-1.81-1.14-.88-3.1-2.5-3v7.5l5,4.5ZM908,417c.05,3.61-.95,6.73,2.5,9l1.5-5.5-4-3.5ZM874,424c.42-2.84-.26-4.82-3-6-.42,2.84.26,4.82,3,6ZM887,429l-1-4.5v-4l-2-2.5v8.5l3,2.5ZM119,425c2.02-.37,1.73-2.49,3-3.5v-2.5c-2.74,1.18-3.42,3.16-3,6ZM843,419l-2,.5v6l12,11.5-1-6.5-1.5-1.5-3,1c-2.63-1.52-.92-4.39-1.5-6.5-.29-1.07-3.73-2.35-3-4.5ZM162,420c-3.93.26-4.37,5.09-7.5,7l-.5,3c1.84.39,2.37-1.01,3.5-2,2.47-2.17,5.3-4.32,4.5-8ZM129.5,421l-2.5,2.5.5.5,2.5-2.5-.5-.5ZM151,422h-2v3h2v-3ZM858,427c.31-1.76-1.36-3.29-3-4-.31,1.76,1.36,3.29,3,4ZM906,435c-1.8-2.85-.75-6.32-1-9.5l-3-2.5c.24,2.04-.34,4.58,0,6.5.07.37.87.59,1,1,.53,1.73-.87,4.71,3,4.5ZM893,434c.25-1.55-.76-1.96-1-3.5-.43-2.81.76-5.02-3-6.5.14,4.05-1.43,9.43,4,10ZM915,424c.39,2.95-1.2,6.89,1.5,9l3.5-3.5-5-5.5ZM111,433c2.82-1.88,5.83-4.16,5-8l-4,3.5-1,4.5ZM879,425h-2l2.5,5-.5-1.5c1.84-1.19-.35-1.5,0-3.5ZM134,432c2.02-.37,1.73-2.49,3-3.5v-2.5c-2.74,1.18-3.42,3.16-3,6ZM140,435c1.82.38,2.39-.98,3.5-2,2.59-2.37,2.9-3.29,2.5-7-1.08.53-4.83,3.88-5,4.5-.37,1.32.45,2.92-1,4.5ZM179.5,426l-14,15c2.66-2.16,5.19-3.91,7.5-6.5.17-.19-.16-.82,0-1,1.43-1.56,3.04-2.97,4.5-4.5.66-.69,2.76-2,2-3ZM874,436v-6.5l-3-3.5v7.5l3,2.5ZM909,438c5.55-.37,2.59-7.4-1-9l1,9ZM92.5,430l-1.5,1.5.5.5,1.5-1.5-.5-.5ZM122,430h-2c.2,1.21-.02,1.79-1,2.5l.5.5,2.5-3ZM867,437c.56-3.21-2.74-5.43-5-7-.56,3.21,2.74,5.43,5,7ZM151,435v-4h-1v4h1ZM887,437c-1.19-2.35-1.08-4.99-4-6-.53,2.96.69,5.92,4,6ZM900,441c-1.17-1.87-1.77-4.08,0-5.5-1.35-1.59-1.95-4.66-5-4.5,2.2,3.65-.97,9.39,5,10ZM109,432c-1.84-.39-2.37,1.01-3.5,2-3.43,3.01-9.85,9.05-12.5,12.5-1.3,1.69-1.13,2.49-1,4.5.88.98,4.82-2.42,4-4h2c-.34-3.05,4.34-3.95,4-7,2.5.51,3.44-.79,5-2.5l2-5.5ZM127,441c-.34-2.15,1.82-3.08,3-4.5l1-4.5-5,4.5-1,4,2,.5ZM921,438l5-2.5-3.5-3.5-2.5,2.5,1,3.5ZM162,433l-5.5,5-.5,5c1.58-1.12,4.57-3.48,5.5-5s.37-3.33.5-5ZM138,434l-3.5,3-.5,5,3-3.5,1-4.5ZM155.5,434c-.65,0-.65,1,0,1s.65-1,0-1ZM879,434c-3.69-.77-.82,3.14-3,4.5v1l4,2.5c-1.66-2.42-.84-5.25-1-8ZM945.5,434c-.65,0-.65,1,0,1s.65-1,0-1ZM147,435l-4,2.5-2,6.5c2.05-.03,1.86-2.88,2-3,.21-.18,1.03.26,1.5,0,.82-.46,1.63-1.87,2.5-2.5v-3.5ZM857,436l-3,2.5,4,3.5-1-6ZM893,443c-1.19-2.35-1.08-4.99-4-6l1,4.5,3,1.5ZM925,441l5-.5-2.5-3.5-2.5,4ZM936.5,437c-.65,0-.65,1,0,1s.65-1,0-1ZM157,467c4.48-3.88,9.02-8.11,13-12.5.16-.18-.17-.81,0-1,3.62-4.02,7.34-8.01,11-12l1.5-3.5c-2.42,2.57-5.12,4.9-7.5,7.5-4.11,4.49-9.04,10.36-13,15-1.69,1.98-4.9,3.69-5,6.5ZM871,440v-2h-1v2h1ZM112.5,439c-.65,0-.65,1,0,1s.65-1,0-1ZM905,446c-.1-3.01,1.12-7.09-3-7v4.5l3,2.5ZM918,439h-3v3l3-3ZM123,440c-3.1-.21-3.27,2.25-3,5,2.18-.97,3.47-2.63,3-5ZM885,440c-1.17-1.35-1.92-.12-2,1.5-.15,3.03-.97,7.71,3,7.5-.14-1.78.21-3.75,0-5.5-.19-1.55-1.28-1.92-1-3.5ZM150,449l3-2.5v-5.5l-3,2.5v5.5ZM868,447c-.42-.42-.95.41-3-2.5-.83-1.17-2.68-2.83-4-3.5l-1,3.5c1.8.67,1.85,3.35,2,3.5.19.19,1.03-.26,1.5,0,2.16,1.2,3.32,4.31,5,6,.86-.65.68-3.54.5-4.5-.07-.35-.82-.57-1-1-.22-.54.17-1.33,0-1.5ZM131,442c-4.1.6-5.7,4.27-5,8,.95-.34,3.86-2.99,4-3.5.37-1.32-.45-2.92,1-4.5ZM932,444l-.5-2-2.5,1v2l3-1ZM919.25,442.25l-4.25,4.25,1.5,1.5,4.25-4.25-1.5-1.5ZM138,444l-3,2.5-1,4.5c2.75-1.52,4.69-3.61,4-7ZM161.5,444l-4.5,4.5.5.5,4.5-4.5-.5-.5ZM899,450l-4-6c.81,1.25,1.03,2.62,1.5,4,.6,1.76.2,2.38,2.5,2ZM948,449l1.5,3,3.5,1.5-10-9.5,3,5h2ZM114,450c3.09.22,3.28-2.27,3-5-1.09.55-4.8,3.84-5,4.5-.15.51-.35,2.5.5,2.5l1.5-2ZM879,449c.31-1.76-1.36-3.29-3-4-.31,1.76,1.36,3.29,3,4ZM934.5,445l-3,3,3,3,3-3-3-3ZM145,451h-1.5c-1.95,1.76-2.85,4.26-2.5,7,3.04-1.76,4.48-3.44,4-7,1.14.14,1.46,1.84,2.5,0,.9-1.6.4-3.3.5-5l-4,3.5c.55.49.89.72,1,1.5ZM890,455c2.72-.81,1.98-3.32,2-5.5l-3-3.5,1,9ZM910,446h-2c-.54,2.17,1.11,3.14,1,5h1v-5ZM75,448l-2,3.5-4.5,5.5c1.96-2.26,4.63-4.22,6.5-6.5.79-.97,2.33-2.2,0-2.5ZM120,455c1.5.32,2.06-.44,3-1.5v-4.5c-2.74,1.18-3.42,3.16-3,6ZM922,450h-2v1h2v-1ZM127,459c3.05-1.42,3.23-5.18,3-8l-2.5,3-.5,5ZM161.75,450.75l-4.5,4.5,1,1,4.5-4.5-1-1ZM882.5,451l-.5.5,3.5,4.5.5-.5-3.5-4.5ZM926,451l-1,5.5,2.5,1.5c3.36-2.09,5.04-2.4,1.5-5.5-1.01-.88-1.31-1.89-3-1.5ZM938,451l-1,3.5,1.5,1.5c2.99-2.22,3.65-4.65-.5-5ZM105,460c2.82-1.88,5.83-4.16,5-8l-4,3.5-1,4.5ZM905,457v-3.5l-2-1.5c-.54,2.17,1.11,3.14,1,5h1ZM878,462l-1-4.5-5-4.5-1,3.5c1.66,1.37,2.76,3.82,5,3.5l2,2ZM894,456c.4.5,2.65-1.75,2-3-.4-.5-2.65,1.75-2,3ZM87,454c-1.84-.39-2.37,1.01-3.5,2-3.04,2.67-5.37,4.54-4.5,9,1.1-.34,2.29-1.61,3-2.5.17-.21-.16-.81,0-1,1.91-2.32,5.59-3.97,5-7.5ZM118,454c-.9-.86-4.82,2.87-5,3.5-.37,1.32.45,2.92-1,4.5.58.52,4.75-1.61,5-2.5.45-1.6-.66-3.68,1-5.5ZM918,454c-1.9-.29-3.29,1.1-3,3l3-3ZM133,465l5-4.5,1-5.5-6,4.5v5.5ZM75,456c-2.36-.85-6.35,5.66-6,6,3.34.01,4.21-3.86,6-6ZM947,461c.57-.57-1.73-5.98-4-5l-1,3.5,5,1.5ZM65.5,457c-.65,0-.65,1,0,1s.65-1,0-1ZM157,459v-2l-2,1.5v.5h2ZM989,490c3.64,1.86,2.46,6.61,5.5,9l-1.5-6.5c-6.71-8.38-16.23-22.58-26.5-25.5-1.37-.39-4.76-6.99-7-8l-3.5-1.5,19.5,20.5,2.5-1-1,2.5c2.61,2.46,3.99,5.37,8,4.5-.84,3.11-2.72,3.69-5,5.5l6.5,7.5,1.5-2.5,1-4.5ZM120,465c3.99-.24,4.4-3.73,4-7-1.96.21-5.05,5.85-4,7ZM891,460c.5-.4-1.75-2.65-3-2-.5.4,1.75,2.65,3,2ZM900,458l-3,1.5,1.5,2.5,1.5-1.5v-2.5ZM935,458l-4.5,2c-1.28.89.22,2.73,1,3,1.92.66,3.99-4.55,3.5-5ZM924,462v-1.5l-2-1.5v3h2ZM64,460c-2.91-.25-3.42,3.28-5,5,1.15,1.03,6.03-3.84,5-5ZM89,465c1.55,1.32,4.32-3.35,4-5l-4,5ZM103.26,460.98c0-.68-.55-1.24-1.24-1.24s-1.24.55-1.24,1.24.55,1.24,1.24,1.24,1.24-.55,1.24-1.24ZM106,469c3.4-1.79,4.63-4.15,4-8-3.4,1.79-4.63,4.15-4,8ZM153.5,461c-1.31,1.35-2.7,2.64-4,4-.66.69-2.76,2-2,3,1.31-1.35,2.7-2.64,4-4,.66-.69,2.76-2,2-3ZM903,465l1-4h-1l-2,3.5,2,.5ZM920,463v-2h-1v2h1ZM952,466l-2.5-4-2.5,2.5,2,2,3-.5ZM954.5,462c-.65,0-.65,1,0,1s.65-1,0-1ZM96,468c2.18-.97,3.47-2.63,3-5-2.18.97-3.47,2.63-3,5ZM127,470l3-7-2,2.5-1,4.5ZM882,463c-4.72-.46.16,4.23,2,5l-2-5ZM896,465l-2-2v2h2ZM935,468c1.48,1.33,7.5-2.7,3.5-5l-3.5,5ZM68,464h-2v1h2v-1ZM112,473c4.79-.83,5.55-4.87,5-9l-4,4.5-1,4.5ZM918,465l-2.5-1-1.5,1.5,2.5,3.5,1.5-1.5v-2.5ZM928,464c-2.63-.46-1.63.48-2.5,2s-2.53,1,0,3l2.5-5ZM75,469v-4h-.5c-1.54,1.1-1.73,2.14-1.5,4h2ZM64.5,466l-4.75,4.75,1,1,4.75-4.75-1-1ZM907,469v-3h-.5l-1.5,1.5v1.5h2ZM86,467c-.8-.81-3.54,1.66-4,2.5-.26.47.19,1.31,0,1.5-.4.4-4.09-.03-3,4,1.82-1.05,3.61-2.92,5-4.5.99-1.13,2.39-1.66,2-3.5ZM154,471v-4h-1v4h1ZM899,467h-2l1.5,2h.5v-2ZM960,467.5l-1,1,4.75,4.75,1-1-4.75-4.75ZM94,468c-2.78-.74-6.04,5.76-5,7,3.01-2.1,5.94-2.55,5-7ZM887.5,468l-.5.5,1.5,1.5.5-.5-1.5-1.5ZM55.5,469c-.65,0-.65,1,0,1s.65-1,0-1ZM104,472v-3h-1v3h1ZM119,478l4-2.5,2-6.5c-2.91,2.22-6.88,4.78-6,9ZM673,471c-4.14-.17-8.36.24-12.5,0-31.04-1.8-63.31-2.8-95-1-.35.02-.65.98-1,1-2.31.16-4.68-.05-7,0-1.22.02-3.73-.75-3.5,1,9.14.18,18.35-.25,27.5,0,27.91.75,57.39,1.52,86,1,.36-.04.62-.94,1-1,1.36-.21,4.59.93,4.5-1ZM931.5,469l-3,3,2.5,2.5,3-3-2.5-2.5ZM942,474l4-3.5-3-1.5c.11,1.86-1.54,2.83-1,5ZM955,469h-2v1h2v-1ZM144.5,470c-.65,0-.65,1,0,1s.65-1,0-1ZM261,470v3h101v-3h-101ZM910.45,469.82l-.64,3.81,2.19.36.64-3.81-2.19-.36ZM50.5,471c-.65,0-.65,1,0,1s.65-1,0-1ZM53.5,471c-.65,0-.65,1,0,1s.65-1,0-1ZM70,471c-1.72-.28-3.05,1.3-4,2.5-1.01,1.27-.94,2.03.5,2.5l3.5-5ZM956.5,471l-1.5,1.5,3.25,3.25,1.5-1.5-3.25-3.25ZM983.5,471l-.5.5,3.5,3.5.5-.5-3.5-3.5ZM97,478c2.41-.44,1.62-2.4,2-3.5.2-.57,1.53-.85,1-2.5-2.74,1.18-3.42,3.16-3,6ZM786,472h-14v1h14v-1ZM57.5,473c-.65,0-.65,1,0,1s.65-1,0-1ZM110,473c-3.99.24-4.4,3.73-4,7,3.04.86,4.91-6,4-7ZM970,478c1.09-1.01-3.85-6.08-5-5,1.39,2.78.79,5.69,5,5ZM908,478l-3-3c-.29,1.9,1.1,3.29,3,3ZM915,480l4-2.5-2.5-2.5-2,2,.5,3ZM48,476c-1.84-.39-2.37,1.01-3.5,2-2.97,2.61-4.94,5.6-7.5,8.5-.99,1.12-2.39,1.66-2,3.5,1.67.32,2.53-.89,3.5-2,1.88-2.16,1-1.89,3-3,.92-.51,4.08-3.92,5-5,1.21-1.43,1.95-1.7,1.5-4ZM190,476l-3.5,1-5.5.5c1.52,2.48,4.1.63,5.5,2.5l3.5-4ZM208.5,479c6.29.92,14.46-.68,21,0l1.5-2c-5.8-.23-11.7.32-17.5,0-.35-.02-.65-.98-1-1-3.79-.25-7.71.18-11.5,0l1.5,3h1c1.7-2.56,4.21-.12,5,0ZM652,482c-1.98-.28-4.7.4-6.5,0-2.03-.45-3.74-.6-6-1-10.66-1.9-23.3,1.32-34-1-.83-.18-4.17-2.82-5-3-4.76-1.03-16.16-.84-21-1-15.13-.51-30.37.38-45.5,0-.23,1.75,2.28.98,3.5,1,2.65.05,5.36-.17,8,0,.35.02.65.98,1,1,14.52.77,27.21,1.55,41,3,3.72.39,6.34-.04,10,1,.36.1,2.86,2.65,4,3,1.76-1.94,3.71-3.86,6.5-4,.79,3.49-2.85,4.37-4,7l4-1.5c2.04-2.44,4.62-3.96,8-3.5,1.94,1.75-7.67,7.44-8,8.5l2.5,3.5,6.5-5.5-1-4.5,5,3v-2c2.08.8,3.38-2.69,4.5-3,1.33-.37,2.93.45,4.5-1l-1,4,6.5,4,8-7,5.5,4,3-5ZM704,478c-1.45-.14-3.12.22-4.5,0-.38-.06-.63-.95-1-1-8.25-1.04-14.83-.88-22,0-10,1.23-22.25-.91-32.5,0-.09,1.93,3.14.8,4.5,1,.38.06.64.96,1,1,15.06,1.63,31.5-.36,46,1,.36.03.63.95,1,1,2.11.26,5.71.43,7-1l1,1,2.5-2.5-3,1.5v-2ZM860,476h-11l-1,3h9.5l2.5-3ZM874,476c-3.51.51-9.96-1.88-10,3h7.5l2.5-3ZM879.44,475.76l-4,1,.56,2.24,4-1-.56-2.24ZM888.5,476c-.65,0-.65,1,0,1s.65-1,0-1ZM928,476h-1.5l-1.5,1.5,1.5,1.5,1.5-1.5v-1.5ZM938,480c-.2-1.21.02-1.79,1-2.5l-2-1.5-1,4h2ZM64,480l-1.5-3-4.5,4.5,3,1,1-2.5h2ZM85,480v-3h-.5l-1.5,1.5,2,1.5ZM141,477l-5,1,1,4c.66.81,4.38-4.67,4-5ZM149,477h-3v.5l1.5,1.5,1.5-2ZM163,477l-7,1.5,4.5,3.5,2.5-5ZM165.5,477c-.65,0-.65,1,0,1s.65-1,0-1ZM176,477c-1.22-.29-2.02.2-3,.5-1.06.33-2.71.46-2,2,.46.99,1.81,1.77,3,1.5l-1-3,3-1ZM199,480c-.97-2.18-2.63-3.47-5-3-.21,3.1,2.25,3.27,5,3ZM253.5,477c-7.14-.32-14.37.23-21.5,0v2c1.75-.19,3.84.28,5.5,0,2.06-.34,1.47,0,2,0h27c.4,0,1.56,2.12,2.5-1-4.8-.18-9.69.24-14.5,0-.35-.02-.65-.98-1-1ZM443.5,477h-46.5l7.5,1c.36.03.64.97,1,1,9.61.69,20-.43,28,1,1.76.31,7.15.27,9,0,.32-.05,1.75-1.78,3.5-1l-2.5-2ZM808,479h14.5v-2c-1.2,1.59-3.25.96-5,1-2,.05-4-.04-6,0-1.22.02-3.73-.75-3.5,1ZM831,477h-5v2h5v-2ZM844,477l-8,.5,5.5,1.5,2.5-2ZM847,477h-2v1h2v-1ZM897.5,477c-.65,0-.65,1,0,1s.65-1,0-1ZM951.5,477l-4.5,4.5,2.5,2.5c2.2-2.21,5.52-4.18,2-7ZM74,480v-2h-1v2h1ZM89,485c1.14,1.12,7.94-4.71,3.5-7l-3.5,7ZM281,478h-8v1h8v-1ZM283.5,478c-.65,0-.65,1,0,1s.65-1,0-1ZM965,482c.39-2.55-2.01-2.98-4-4-.9,1.05,2.28,4.65,4,4ZM115,479h-2c.11,1.86-1.54,2.83-1,5,3.1.21,3.27-2.25,3-5ZM191.5,479c-.65,0-.65,1,0,1s.65-1,0-1ZM382,480c-4.47-.18-9.03.25-13.5,0-5.93-.32-9.11-.3-15,0-4.98.25-10.02-.24-15,0-1.62.08-2.85.84-1.5,2l4,1v2h2v-2l6-2c.65,3.21-2.27,4.48-4,6.5l3.5,2.5,9-8,2,3,7.5-4c.85,3.8-3.89,4.26-3,8,1.93-.69,2.67,1.77,3.5,2,2.68.75,4.92-3.38,7-5,.55-.43,3.11-1.72,4-2l3.5-4ZM498,479c-8.14.18-16.35-.25-24.5,0-.34.01-.66.99-1,1-7.65.25-15.34-.19-23,0l-2.5,2c3.41.49,8.36-.68,11.5,0,1.1.24,3.67,2.91,4,3,2.32.64,3.12-.72,4-1,.59-.19,1.37.18,2,0,.82-.24,3.54-3.76,5.5-3-1.07,1.85,2.93,6.5,4.5,6l5-5,5.5-2-3,5.5,2.5,2.5,9.5-9ZM541,481c-1.75.78-3.18-.95-3.5-1-4.94-.71-11.7.24-17,0-.35-.02-.65-.98-1-1-5.14-.25-10.36.18-15.5,0,.61,2.58-1.67,2.42-2.5,3-2.8,1.98-6.13,6.34-8.5,9,2.3.45,2.57-.29,4-1.5,3.8-3.23,7.62-6.92,11.5-9.5h2l2.5,2.5-1,2.5,6.5,4,6-5c3.29-.94,4.71,4.94,8,4l8.5-7ZM722,480c-2.04-.24-4.57.34-6.5,0-.33-.06-.71-.96-3-1-2-.04-1.56.07-1.5,2,1.45.15,3.12-.22,4.5,0,.38.06.62.94,1,1,1.11.18,2.78.06,4,0,1.63-.08,2.87-.85,1.5-2ZM970,482l3-1.5-1.5-1.5h-2.5l1,3ZM145,480c-2.3.75-2.74,3.02-4,4.5l.5.5c1.37-1.66,3.82-2.76,3.5-5ZM168.5,480l-2,2,2.5,2.5,2-2-2.5-2.5ZM301.5,480c-.65,0-.65,1,0,1s.65-1,0-1ZM317,480h-4v.5c1.1,1.54,2.14,1.73,4,1.5v-2ZM333,480h-7l-1,3.5c2.45,3.08,2.65.77,4.5-.5.24-.16.8.15,1,0,.87-.64,2.17-1.94,2.5-3ZM902.5,480l-1.5,1.5,1.5,2.5,1.5-2.5-1.5-1.5ZM913,484v-2.5l-2-1.5,1,4h1ZM921,485c-.54-2.17,1.11-3.14,1-5l-2,1.5v3.5h1ZM103,485v-4h-1v4h1ZM205.5,481l-.5.5,1.5,1.5.5-.5-1.5-1.5ZM395,481h-10v2c-1.57-.57-6.39,4.21-6,5.5.33,1.09,2.31,1.86,3.5,1.5.89-.27,3.64-4.1,5-5,.37-.25,2.31-.83,3-1l4.5-3ZM405,481h-6.5l-4.5,4.5,3.5,1.5,7.5-6ZM551,481h-7c.37,2.07-1.72,3-3,4.5l2.5,2.5c2.43-2.35,5.77-3.64,7.5-7ZM732,481h-4v1h4v-1ZM746,481l-8,.5c1.3,1.95,2.56,1.43,4.5,1.5,2.14.07,4.11.85,3.5-2ZM768,481h-16.5l-1.5,2c2.11.16,4.43-.23,6.5,0,.37.04.64.97,1,1,2.57.24,5.38-.17,8,0l2.5-3ZM778,481h-6l-1,3c3.01-.1,7.09,1.12,7-3ZM793,481c-3.27-.51-5.7.62-8.5,1-1.34.18-3.14.58-1.5,2l4.5,2,3-2,2.5-3ZM877,481c-1.86-.42-2.88.62-4.5,1-.78.18-3.55-.56-2.5,1.5.37.73,2.52,2.8,3.5,2.5,1.24-1.57,3.77-2.66,3.5-5ZM1004,512l3-4.5c.08-5.26.55-9.52-2-14-.86-1.51-3.05-4.68-4-6-1.45-2.03-3.89-4.44-5.5-6.5l3.5,6.5c.8,5.75,4.26,11.95,5,17,.34,2.3-.24,5.11,0,7.5ZM81,485v-1.5l-1.5-1.5-1.5,1.5,1.5,1.5h1.5ZM158,485l-2.5-3-3.5,1c-1.2,1.09,4.25,6.69,4,2.5l2-.5ZM196,482c-2.98-.6-5.15.98-8,1l1,5,2.5-1,4.5-5ZM223,482l-9,.5,3.5,3.5h1l4.5-4ZM234,487c1.47.5,6.66-1.44,6-3.5-.78-2.47-6.88-1.23-9-1.5l3,2v3ZM257,483c-1.78-.15-3.77.23-5.5,0-.37-.05-.63-.96-1-1-2.06-.24-4.39.16-6.5,0-.9.82,2.85,4.81,3.5,5,1.87.54,2.68-1.24,4.5-1l-.5,4c1.83-1.47,3.1-4.26,5.5-4v-3ZM265,484v-2l-2,1.5v.5h2ZM274,483h-3.5c-.87,1.09-4.07,1.51-3.5,3.5.34,1.18,2.51,2.32,3.5.5l3.5-4ZM290,483l-8.5-1c-.29,1.15-3.44.51-2.5,2.5.48,1.01,2.74,2.36,3.5,3.5h1l6.5-5ZM300,482c-2.4.06-4.57-.67-6,1.5l2.5,1.5c1.01-1.27,3.13-.98,3.5-3ZM314,486c.24-3.05-3.69-4.14-6-4,.26,1.71,1.89,1.8,3,2.5.99.62,1.19,2,3,1.5ZM426,483c-2.79-.17-5.73.24-8.5,0-.36-.03-.64-.97-1-1-1.86-.16-7.62-.38-9,0-.24.07-3.26,3.07-3.5,3.5-.26.47.19,1.31,0,1.5s-1.03-.26-1.5,0c-1.11.62-2.31,2.66-3.5,3.5l4.5-.5c2.93-2.2,4.04-6.09,8.5-5v2l2.5-1,2,1,5-3c1.19-.34,3.24,2.76,4.5-1ZM565,482h-9.5l-8.5,8.5,3.5,3.5,11-9,3.5-3ZM571,484l-.5-2-7.5,7c3.58,0,4.7-5.26,8-5ZM675,483c-1.45-.14-3.12.22-4.5,0-.38-.06-.64-.96-1-1-1.84-.2-8.63-.38-10,0-.63.17-5.42,5.08-4.5,6,3.54.03,4.19,5.01,8,4-.49-1.1,1.64-3.75,2.5-4,1.95-.56,2.31.71,3,1,.42.18,1.03-.07,1.5,0v-2c2.08.23,3.95-2.16,5-4ZM803,487c.59-3.29-2.42-5.85-5.5-5-.55.15-4.8,4.5-4.5,5.5l3.5,2.5,4-4,2.5,1ZM817,482c-2.95.39-6.89-1.2-9,1.5l3.5,3.5h1l4.5-5ZM825,482c-2.3-.45-2.57.29-4,1.5-2.12,1.8-3.91,4.14-6,6,1.47,1.47.91,1.76,2.5.5,1-.8,2.08-2.49,3-3,.47-.26,1.31.19,1.5,0s-.26-1.03,0-1.5c.62-1.12,2.74-2,3-3.5ZM837,482c-2.71.3-6.11-1.08-8,1.5l3.5,3.5,4.5-5ZM854,482c-2,.02-10.02-.86-9,2.5l4,3.5c-.54-2.89.75-1.55,1.5-2,1.06-.63,2.88-2.79,3.5-4ZM860,486l2.5,1c6.3-4.62-2.83-8.19-2.5-1ZM878,485c.31,2.69-4.03,3.4-.5,6,1-1.23,2.6-2.27,3.5-3.5.15-.21-.16-.76,0-1,1.27-1.85,3.58-2.05.5-4.5l-1.5,3h-2ZM934,482c-1.9-.29-3.29,1.1-3,3h2l1-3ZM975.5,482l-2.5,2.5,3.5,3.5,3.5-2.5-4.5-3.5ZM991.5,482l-.5.5c1.16,1.51,1.72,3.23,3.5,4.5l.5-.5-3.5-4.5ZM135,483h-2c.11,1.86-1.54,2.83-1,5,2.18-.97,3.47-2.63,3-5ZM181,483h-4c.03,3.97,3.97,3.97,4,0ZM228,483c-3.2-.2-4.03,4.41-7,4l1,4c1.17,1.22,5.42-4.15,6.5-5l-.5-3ZM339,488c.32-2.24-2.13-3.34-3.5-5l-5.5,4.5,4.5,4.5c1.87-1.48,1.65-4.48,4.5-4ZM579,483l-3,1.5-2,3.5,5-5ZM685,483h-3v.5l1.5,1.5h1.5v-2ZM946,483l-3,3.5,2.5,1.5,1.5-1.5-1-3.5ZM955,489c3.28.28,5.74-4.66,2.5-6-2.5-1.04-2.92,4.58-2.5,6ZM69,484l-4,1v1.5l1.5,1.5c1.2-1.33,2.89-2.1,2.5-4ZM95,491l3.5-3-.5-4-3,7ZM205,486l-1.5-2-2.5,1.5,1.5,1.5,2.5-1ZM311,489c.28-2.33-2.24-3.42-3.5-5h-1c-1.42,1.18-2.35,3.34-4.5,3-.28,2.33,2.24,3.42,3.5,5h1c1.42-1.18,2.35-3.34,4.5-3ZM437,484h-6.5c-1.35,1.45-3.48.37-2.5,3.5,1.25,3.99,4.9-1.61,6.5-1.5l2.5-2ZM508.5,484l-2.5,2.5.5.5,2.5-2.5-.5-.5ZM589,484l-6.5,1-4.5,5.5,3.5,2.5c2.37-2.22,4.21-3.45,3.5-7l2.5,1,1.5-3ZM699,484h-12l-3,5.5c1.57,1.3,3.03,4.2,5.5,3.5,3.33-.94-.78-5.26-.5-7l4.5,3,5.5-5ZM717,485c-3.12-.39-7.26,1-9.5-1-1.26,1.8-4.56,3.81-5.5,5.5-.26.47.19,1.31,0,1.5-.07.07-.92-.2-2,.5-3.01,1.95.93,5.02,2.5,6.5,1.56-.56,1.38-2.89,1.5-3,.2-.19,1.03.27,1.5,0,1.91-1.09,1.56-2.99,1.5-5l3.5,1,6.5-6ZM968.26,484.98c0-.68-.55-1.24-1.24-1.24s-1.24.55-1.24,1.24.55,1.24,1.24,1.24,1.24-.55,1.24-1.24ZM56,485h-2l-1,4c1.33-.22,3.83-3.17,3-4ZM78,488v-1.5l-2-1.5v3h2ZM106,485l.5,6,2.5-4.5-3-1.5ZM164.5,485l-1.5,1.5,1.5,1.5,2.5-1.5-2.5-1.5ZM210.5,485c-.28.08-1.99,1.5-1,2l4,3c3.38-1.88-.46-5.75-3-5ZM286,492l6-4.5-.5-2.5c-.86,1.17-6.7,5.68-5.5,7ZM453,485h-8.5c-3.14,3.11-5.87,6.44-10,8-.98.37-.45,1.23-.5,2l4.5,2,2.5-2.5-1-4.5,2,.5,2,1.5-1-4,4.5,1,3-2,2.5-2ZM473,485c-1.13-1.19-5,3.68-6,4.5l6-.5-2,5,4-4.5c-1.62-1.31-2.4-2.29-2-4.5ZM599,487l-4.5-2-4.5,4.5,3.5,2.5,5.5-5ZM682,485h-2v1h2v-1ZM729,485c-2.97-.26-6.71.07-8,3l2,.5,1.5,1.5,4.5-5ZM117.5,486c-.65,0-.65,1,0,1s.65-1,0-1ZM176,486l-4,1.5,2.5,3.5,2.5-2.5-1-2.5ZM325,488c-.53-2.01-2.12-2.24-4-2,.53,2.01,2.12,2.24,4,2ZM358,486c-1.74-.28-3.03,1.3-4,2.5-.13.16.18.72,0,1-1.27,2.01-3.68.61-3,3.5l2-2c1.58.78,6-3.98,5-5ZM450,491l3.5,4c.7-1.88,8-5.92,7.5-7.5-.35-1.1-2.3-1.86-3.5-1.5-.54.16-4.03,3.32-5,4-.86.6-.93,1.41-2.5,1ZM742,486h-8.5l-6.5,6.5,4.5,3.5,4.5-4.5-1-3.5,3.5,1,3.5-3ZM750,486h-3v2h1.5l1.5-2ZM784,487l-4.5-1-5.5,6.5c1.33,1.2,2.1,2.89,4,2.5v-2c1.67.75,7.04-5.03,6-6ZM825.7,485.6l-1.7,3.4,4.8,2.4,1.7-3.4-4.8-2.4ZM837,486l-1,2.5.5.5,1.5-3h-1ZM857,486c.53,3.27-6.63,4.79-2.5,8l6.5-5.5-4-2.5ZM869,492c-.4-1.91,1.69-2.13.5-4-.35-.54-2.22-2.34-2.5-2l-1,3.5,3,2.5ZM898,489c.65-1.25-1.6-3.5-2-3-.65,1.25,1.6,3.5,2,3ZM907,490l1-4-2,1.5v2.5h1ZM918,486h-2v3l2-1.5v-1.5ZM925,491c3.06.53,6.89-2.63,3.5-5l-3.5,5ZM952.5,486c-.65,0-.65,1,0,1s.65-1,0-1ZM960.5,486c-.65,0-.65,1,0,1s.65-1,0-1ZM86,490l-3-3c-.29,1.9,1.1,3.29,3,3ZM130,489v-2h-1v2h1ZM150,486.5l-4.5,4.5,2.5,2.5,4.5-4.5-2.5-2.5ZM245,488l-3.5-1-3.5,3.5,3.5,2.5c1.24-1.57,3.77-2.66,3.5-5ZM259.25,486.25l-5.75,5.75,1,1,5.75-5.75-1-1ZM275.5,487l-4.5,4.5,3.5,3.5,5.5-4.5c.54-1.83-3.11-3.25-4.5-3.5ZM483.5,487l-3,3,3,3,3-3-3-3ZM509,488c-1.01.88,4.18,7.63,6,3.5l-3-4-3,.5ZM529,491l-3.5-4c-.79.97-5.69,4.88-4.5,6l3.5,1c1.42-1.18,2.35-3.34,4.5-3ZM539,491c.13-.12,1.57.46,2.5-1l-1-3-5.5,3.5,2.5,3.5c1.56-.56,1.38-2.88,1.5-3ZM759,488c-1.93-.04-3.32-1.61-5.5-1-.71.2-2.52,2.88-3.5,3.5l4.5,3.5c.78-.96,5.7-4.89,4.5-6ZM774,487l-5,.5,2.5,1.5,2.5-1v-1ZM971.18,486.79l-2.06,1.24,2.78,4.63,2.06-1.24-2.78-4.63ZM43.5,488c-.65,0-.65,1,0,1s.65-1,0-1ZM62,488l-.64,3.81,2.19.36.64-3.81-2.19-.36ZM183,488c-.39,1.9,1.3,2.67,2.5,4l2.5-1.5c-1.57-1.71-2.5-3.01-5-2.5ZM201,488l-3,1.5-4,3.5c2.26,1.43,7.34-4.71,7-5ZM208,494l3-1.5-4.5-4.5-1.5,3c1.9-.29,3.29,1.1,3,3ZM226,495c1.93.49,2.34-1.21,3.5-2,.24-.17.8.15,1,0,1.97-1.48,3.73-3.14,1-5-.82,1.11-6.74,5.76-5.5,7ZM393,488c-3.79-.83-4.26,1.16-6.5,3-.54.45-3.15.38-2.5,3l3,.5,6-6.5ZM411.5,488c-.65,0-.65,1,0,1s.65-1,0-1ZM421,488l-3,1.5.5.5,2.5-1v-1ZM427,488l-3,1.5-5,4,3.5,2.5,5-5-.5-3ZM626.5,488l-2.5,3.5,4.5,4.5,4.5-3.5-6.5-4.5ZM645,488l-3.5,2-2.5,3,3.5-2,2.5-3ZM672,494c2.52-.17,5.85-3.5,6-6l-6,6ZM805.5,488c-.75,1.78-5.2,3.5-5.5,4.5-.35,1.19.41,3.18,1.5,3.5,1.59.46,5.06-4.52,6.5-5.5l-2.5-2.5ZM962.5,488l-4.75,4.75,1,1,4.75-4.75-1-1ZM83,492v-1.5l-1.5-1.5-1.5,1.5,1.5,1.5h1.5ZM161,488.5l-3,3,2,2,3-3-2-2ZM320,492c.29-1.9-1.1-3.29-3-3-.29,1.9,1.1,3.29,3,3ZM497,495l7-5.5-3.5,1.5-3.5,4ZM572,491l-1.5-2-3.5,4c2.33.47,2.67-2.47,5-2ZM658,493l-7-4,5.5,6,1.5-2ZM719.5,489l-5.5,5.5,2.5,3.5c2.74-.34,2.97-4.05,5.5-5.5l-2.5-3.5ZM843,495l1-3.5-2.5-2.5-4.5,3.5,3.5,3.5,2.5-1ZM885,492c.35-.27,4.62-.53,2.5-3l-5.5,6c2.93.79,2.83-2.87,3-3ZM941,491l-2-2v2h2ZM952,494c.27-2.75.1-5.21-3-5l-1,3.5,1.5,1.5h2.5ZM52,492v-2h-1v2h1ZM74,490h-2v2l2-2ZM94,490h-2v1h2v-1ZM171,490l-3,2.5,2.5,2.5,1.5-2.5-1-2.5ZM331,492l-4-2,3.5,5,.5-3ZM343,490c-1.22-1.15-4.95,3.67-6,4.5l2.5,2.5,5.5-3.5-2-3.5ZM366,493c-2.15.34-3.08-1.82-4.5-3-.93,1.28-6.64,5.58-5.5,7l2,2c1.38,1.05,4.23-3.02,5.5-4,.28-.22,2.5-.27,2.5-2ZM376,493l3-.5-2.5-2.5-4.5,4.5,3,1,1-2.5ZM404,495c2.09-.99,5.14-2.1,5-5-1.83,1.64-5.3,2.15-5,5ZM743.46,489.07l-2.25,3.75,1.62.97,2.25-3.75-1.62-.97ZM768,494v-2.5l-1.5-1.5h-2.5l4,4ZM822.5,490l-3.5,3.5,3.5,3.5,3.5-3.5-3.5-3.5ZM103,495v-4h-1v4h1ZM113,493v-2l-2,1.5v.5h2ZM122,493l2.5,4c2.22-1.86,3.96-3.69,1-6l-3.5,2ZM217.5,491l-1.5,2.5,3.5,1.5,1.5-1.5-3.5-2.5ZM262.5,491c-.28.09-3.01,2.88-3.5,3.5-1.26,1.59-.97,1.03.5,2.5l5.5-4.5c-.74-.67-1.32-1.86-2.5-1.5ZM289,495l4-3.5-.5-.5c-1.57,1.4-3.96,1.39-3.5,4ZM300.5,491l-.5.5,2.5,2.5.5-.5-2.5-2.5ZM465,494l-1.5-3c-1.95,2.57-6.08,4.55-6.5,8l2-2c2.6.53,3.21-3.36,6-3ZM508,493l-.5-2-6.5,5.5c2.51,6.87,6.16,1.67,10-1,.44-1.48-1.74-2.92-3-2.5ZM560.25,490.25l-6.75,6.75,1.5,1.5,6.75-6.75-1.5-1.5ZM602,491c-1.02-.94-5.62,3.18-5,5,.4.46,2.38-1.98,3-2.5,1.18-.99,2.57.31,2-2.5ZM793,491h-2l1.5,2h.5v-2ZM910.95,491.32l-.58,3.49,2.59.43.58-3.49-2.59-.43ZM180.5,492l-2.5,2.5,3,3,2.5-2.5-3-3ZM247.5,492l-3.5,3.5.5.5,3.5-3.5-.5-.5ZM317,496l-2.5-4-4.5,4.5,2.5,2.5c1.42-1.18,2.35-3.34,4.5-3ZM389,496l3.5,3,4.5-5.5-3.5-.5c-1.46.94-2.25,3.45-4.5,3ZM588,491.5l-4.5,4.5,3.5,3.5,4.5-4.5-3.5-3.5ZM655,497c-2.28.77-5.64-5-6.5-5l-4.5,4.5,6.5,5.5c1.32-1.51,2.05-2.26,4-3,.98-.37.45-1.23.5-2ZM676,496c-.91.91,3.08,5.45,4.5,5l5.5-5.5-5.5-3.5c-1.2,1.33-2.89,2.1-2.5,4h-2ZM833,492h-2v2l2-2ZM858,496c-.39,1.9,1.3,2.67,2.5,4l5.5-5.5c-2.63-3.9-5.4-2.47-6,1.5h-2ZM875,492h-2.5l-1.5,1.5,1.5,2.5c1.2-1.33,2.89-2.1,2.5-4ZM893,492c-1.19-1.22-5.47,4.21-6.5,5l.5,3,4-3.5.5-1.5,1.5-3ZM903,495v-1.5l-2-1.5v3h2ZM936.5,492c-2.06,1.23-5.59,5.94-2,7,2.36.7,5.48-5.19,2-7ZM966.5,492l-4.5,3.5,3.5,3.5,3.5-3.5-2.5-3.5ZM33,493l-3,2.5-1.5,7.5c2.1-2.76,4.41-6.49,4.5-10ZM48,493h-2v1h2v-1ZM60,495l-1.5-2-1.5,1.5v.5h3ZM89.5,493c-.65,0-.65,1,0,1s.65-1,0-1ZM143.5,493l-6,6,2.5,2.5,6-6-2.5-2.5ZM201.5,493c-3.45.95-3.44,7.6,1,8l4.5-5.5c-1.51-1.78-2.95-3.21-5.5-2.5ZM230,497c-.44,2.7,2.04,2.63,3.5,4l5.5-5.5-3.5-2.5c-1.75,1.36-3,4.2-5.5,4ZM284,493l-3.5,2-2.5,3c.85-.41,6.78-4.31,6-5ZM481,496l-3.5-3-3.5,3.5,2.5,2.5c1.42-1.18,2.35-3.34,4.5-3ZM535,495l-3.5-2-3.5,4.5,2.5,2.5,4.5-5ZM548,495l-4.5-2-3.5,3.5,3.5,3.5c1.36-2.17,4.86-1.91,4.5-5ZM747.5,493l-3,3,4,4,3-3-4-4ZM761.5,493l-4.5,4.5c1.99,1.81,3.85,5.4,6,2,.38-.6.51-2.28,2-3l-3.5-3.5ZM782,498c-.23,1.84-.04,2.91,1.5,4,1.01-2.04,7.15-4.34,6.5-6.5l-2.5-2.5c-.94,0-2.86,6.11-5.5,5ZM924,495v-2h-1v2h1ZM66,497h1.5l1.5-1.5-1.5-1.5-1.5,1.5v1.5ZM77,493.5l-2.5,2.5,3,3,2.5-2.5-3-3ZM99,494h-2l1.5,2h.5v-2ZM155.5,494l-4,4,2,2,4-4-2-2ZM165,494l-2.4,4.8,3.6,1.8,2.4-4.8-3.6-1.8ZM252,494c-2.91-.68-1.39,1.35-3,2.5-1.33.96-2.52-.25-2,2.5,1.13,1.04,6.03-3.84,5-5ZM300,498c.34-6.44-5.26-3.88-8-.5l3.5,3.5c1.5-1.28,2.43-3.37,4.5-3ZM328,499c1.12-1.12-3.93-6.35-6-5-.36.3,4.85,6.15,6,5ZM412,496v-2l-4,3.5.5.5,3.5-2ZM451,498l-4-4c-.2,2.06,1.94,4.2,4,4ZM490,494c-1.9-.29-3.29,1.1-3,3l3-3ZM517.5,494l-1.5,1.5,3.5,2.5,1.5-1.5-2.5-2.5h-1ZM578,495l-4.5-1-2.5,2.5,2.5,2.5h1l3.5-4ZM609,496l-4.5-2-1.5,3-2,2,4.5,1,3.5-4ZM616,500l5.5,3,4.5-4.5-5.5-4.5c-.83,1.02-5.67,4.83-4.5,6ZM692.5,494l-1.5,1.5.5.5,1.5-1.5-.5-.5ZM812,494c-1.64-.19-3.11-.07-4,1.5-.26.46.18,1.26,0,1.5-.13.17-3.79.07-3,3,2.3.45,2.57-.29,4-1.5.76-.65,4-3.59,3-4.5ZM944.75,493.25l-1.5,1.5,3.25,3.25,1.5-1.5-3.25-3.25ZM979,494h-3c.31,1.18,1.42,1.49,1,3l2-1.5v-1.5ZM193,495h-3v3l3-3ZM212,495c-.51,2.5.79,3.43,2.5,5l1.5-2.5-4-2.5ZM266.5,495l-4.5,4.5,2.5,2.5,5.5-3.5-3.5-3.5ZM377,500c1.52.5,6.69-1.48,6-3.5-1.4-4.1-7.13,2.38-6,3.5ZM461,502c1.46-.44,2.36-2.04,3.5-3,.06-.05.6.16,1.5-.5,1.12-.82,2.3-1.95,2-3.5l-7,7ZM564.25,494.25l-6.25,6.25,1.5,1.5,6.25-6.25-1.5-1.5ZM637,498l-1.5-3-3.5,5,5-2ZM724.5,495l-4.5,5.5,2.5,3.5,6.5-5.5-4.5-3.5ZM737,498c2.29.13,3.97-1.35,1.5-3l-4.5,3.5,3,1.5v-2ZM774,498c-.22-1.33-3.17-3.83-4-3-.32,1.5.44,2.06,1.5,3h2.5ZM838,497l-4-2c-1.76,1.9,5.09,8.99,4,2ZM851.5,495c-.65,0-.65,1,0,1s.65-1,0-1ZM954,498h1.5l1.5-1.5-1.5-1.5-1.5,1.5v1.5ZM89,499l-2.5-3-.5.5c.98.71,1.2,1.29,1,2.5h2ZM286.25,495.25l-5.5,5.5,1,1,5.5-5.5-1-1ZM349,496l-6,3.5,2.5.5,3.5-4ZM395,503c2.36-.9,4.42-2.52,6-4.5,1.26-1.59.97-1.03-.5-2.5-.84,1.15-6.71,5.71-5.5,7ZM427,501l3.5,2h1l3.5-3.5-3.5-3.5-4.5,5ZM670,499v-1.5l-1.5-1.5-1.5,1.5,1.5,1.5h1.5ZM700,501c.27-2.34-2.26-3.43-3.5-5l-2.5,2.5,2.5,3.5,3.5-1ZM800,499c-.22-1.33-3.17-3.83-4-3v2l4,1ZM46,501c-.47-1.57,1.83-2.47,0-3.5-1.1-.62-1.82-.6-3-.5l2,2,1,2ZM54.04,496.76l-.58,3.49,2.59.43.58-3.49-2.59-.43ZM106,501l1-4c-1.33.22-3.83,3.17-3,4h2ZM178,501c.7-1.73-3.05-4.92-4-4l1,4h3ZM222,500h1.5l1.5-1.5-1.5-1.5h-1.5v3ZM324,503c1.17-1.17-3.67-4.98-4.5-6-.87.76-.5,2.16-2,3-.47.26-1.31-.19-1.5,0-.53,2.6,3.36,3.21,3,6l5-3ZM338,501c.35-2.65-2.8-3.74-5-4,.44,1.42,4.05,4.95,5,4ZM372,500l-3.5-3-4.5,4.5,1,3.5c2.66-1.04,3.9-5.07,7-5ZM418,498h-4.5l-2.5,2.5c1.33,1.2,2.1,2.89,4,2.5.19-.19-.26-1.03,0-1.5,1.12-2.02,3.74-.58,3-3.5ZM447,499l-3.5-2c-.65.92-2.93,2.11-2.5,3.5.17.56,2.54,2.79,3.5,2.5.72-.22,3.28-3.24,2.5-4ZM827.5,497l-1.5,1.5.5.5,1.5-1.5-.5-.5ZM847,504l4-3.5-2-3.5-3,3.5,1,3.5ZM867,497c.71,2.8-2.61,2.61-3.5,4l1,3c2.19.63,3.91-4.6,5.5-5.5l-3-1.5ZM877,501c1.64-.71,3.31-2.24,3-4-1.64.71-3.31,2.24-3,4ZM891,501c-.39,1.9,1.3,2.67,2.5,4l4.5-4.5-1-3.5c-1.97,1.01-4.4,1.45-4,4h-2ZM918,502c-.37-1.72.87-2.36,2-3.5l-1.5-1.5-2.5,3.5,2,1.5ZM989,503c3.53-1.34,1.36-3.48,1-6h-1v6ZM65,498h-2v3h2v-3ZM95.5,498c-.65,0-.65,1,0,1s.65-1,0-1ZM121,498h-2.5l-1.5,3.5,1.5,1.5c1.71-1.56,3.01-2.5,2.5-5ZM240.75,497.75l-5.5,5.5,1,1,5.5-5.5-1-1ZM255,497.5l-4.5,4.5,2,2,4.5-4.5-2-2ZM310,502c.31-1.76-1.36-3.29-3-4-.31,1.76,1.36,3.29,3,4ZM480,503c2.58.08,4.51-2.39,4-5-1.42.44-4.95,4.05-4,5ZM494,498c-1.9-.29-3.29,1.1-3,3l3-3ZM512.5,498c-.86.25-3.31,3.75-4.5,4.5l2.5,2.5,6.5-4.5c-1.37-1.35-2.39-3.1-4.5-2.5ZM595,498c-2.06-.2-4.2,1.94-4,4l4-4ZM714,502c.06-6.29-4.23-4.23-7-.5l3.5,3.5,1.5-3h2ZM818,503c.28-2.33-2.24-3.42-3.5-5-.83,1.05-5.65,4.78-4.5,6l3.5,2c1.42-1.18,2.35-3.34,4.5-3ZM819.5,498c-.65,0-.65,1,0,1s.65-1,0-1ZM908.26,498.98c0-.68-.55-1.24-1.24-1.24s-1.24.55-1.24,1.24.55,1.24,1.24,1.24,1.24-.55,1.24-1.24ZM968,501c1.89,4.08,4.76,3.65,6-.5l-2.5-2.5c-2.03,1.3-.66,3.75-3.5,3ZM982,498h-2v3h2v-3ZM74,501l-2-2v2h2ZM83,498.5l-3,3,3,3,3-3-3-3ZM184,503c2.06.2,4.2-1.94,4-4l-4,4ZM209.5,499l-4.5,4.5,2.5,3.5,4.5-4.5-2.5-3.5ZM382,502l2.5,3,4.5-3.5-2.5-2.5c-1.42,1.18-2.35,3.34-4.5,3ZM465,503l2.5,4c.75-1.94,7.05-4.76,6.5-6.5-.35-1.1-2.31-1.86-3.5-1.5-1.33.4-3.09,4.66-5.5,4ZM541,503c.78-.76-1.79-3.79-2.5-4-2.43-.71-3.92,2.19-5.5,3.5l3.5,2.5,4.5-2ZM550.5,499l-4.25,4.25,1.5,1.5,4.25-4.25-1.5-1.5ZM563,506h3.5c3.97-2.1,6.93-4.76,1-7-1.79,2.18-5.14,3.6-4.5,7ZM585,501l-4.5-2-3.5,2.5,4.5,3.5c1.24-2.26,4.28-1.24,3.5-4ZM688,501l-.5-2-4.5,5,3-3h2ZM746,503l-3.5-4-4.5,3.5,4.5,3.5c2.04-1.29.64-3.73,3.5-3ZM767.5,499l-4.25,4.25,1.5,1.5,4.25-4.25-1.5-1.5ZM832,501l-.5-2-2.5,2.5,3.5,3.5,2.5-2.5-3-1.5ZM932,502c.29-1.9-1.1-3.29-3-3-.29,1.9,1.1,3.29,3,3ZM959.5,498l-2.5,2.5,3.5,3.5,2.5-2.5-3.5-3.5ZM38.5,500c-.3.09-4.41,4.2-4.5,4.5-.36,1.19.41,3.17,1.5,3.5,1,.3,5.34-3.94,5.5-4.5.45-1.57-.86-3.99-2.5-3.5ZM149.5,500l-6.25,6.25,1.5,1.5,6.25-6.25-1.5-1.5ZM158,505c3.87-.25,5.93-4.75,1-5l-1,5ZM199,505l-1.5-4-3.5.5,5,3.5ZM289,505c1.84.23,2.91.04,4-1.5-1.08-3.88-3.86-4.59-6-1-.45.76.89,2.04-2,1.5l2,1v2h2v-2ZM334,502l-4-2c-.7,1.73,3.07,4.93,4,4v-2ZM351.5,500c-1.66,1.98-5.38,3.55-2,6,2.26-.42,4.06-1.8,5.5-3.5l-3.5-2.5ZM399,506c2.14-1.78,6.02-2.67,6-6l-6,6ZM455.26,500.98c0-.68-.55-1.24-1.24-1.24s-1.24.55-1.24,1.24.55,1.24,1.24,1.24,1.24-.55,1.24-1.24ZM528,503c-.97-2.18-2.63-3.47-5-3-.21,3.1,2.25,3.27,5,3ZM640.5,500l-3.5,3.5,4.5,4.5,5.5-3.5-5.5-4.5h-1ZM663,500v1.5l1.5,1.5,1.5-1.5-1.5-1.5h-1.5ZM673,499.5l-1.5,1.5,4.75,4.75,1.5-1.5-4.75-4.75ZM775.5,500c-.65,0-.65,1,0,1s.65-1,0-1ZM787,504l3.5,4c.98-1.44,5.96-4.91,5.5-6.5-.32-1.09-2.31-1.86-3.5-1.5-1.33.4-3.09,4.66-5.5,4ZM940,500h-2v1.5l1.5,1.5h.5v-3ZM943,503v-3h-1v3h1ZM952.26,500.98c0-.68-.55-1.24-1.24-1.24s-1.24.55-1.24,1.24.55,1.24,1.24,1.24,1.24-.55,1.24-1.24ZM94,504v-3h-1v3h1ZM133,507c2.12-1.34,5.83-3.75,2.5-6l-3,3,.5,3ZM171.5,501l-3,3,2.5,2.5,3-3-2.5-2.5ZM220,501h-1.5l-1.5,1.5,1.5,1.5,1.5-1.5v-1.5ZM227,505l3-1.5-1.5-2.5h-2.5l1,4ZM245,501c-1.07-1.09-7.08,4.84-6,6,2.14-1.78,6.02-2.67,6-6ZM274,501l-3.5,2-2.5,3c1.22,1.11,6.35-4.69,6-5ZM302,508c1.24,1.09,4.49-3.18,5.5-4l-2-3v3c-2.04-2.35-3.81-.45-5.5,1.5l2,2.5ZM376,504l-1.5-3c-.82,1.11-6.74,5.76-5.5,7l7-4ZM497,500.5l-3,3,3.5,3.5,3-3-3.5-3.5ZM602,504l-4.5-3h-1.5v1.5l-2,.5,2.5,4,5.5-3ZM733,503l-2-1.5-4,5c.63.41,2.83-.52,3-1,.52-1.48.65-2.82,3-2.5ZM754.5,500l-3,3,4,4,3-3-4-4ZM804,504v-1.5l-1.5-1.5-1.5,1.5,1.5,1.5h1.5ZM857.5,501c-.65,0-.65,1,0,1s.65-1,0-1ZM882.5,501l-1.5,1.5,1.5,1.5,2.5-1.5-2.5-1.5ZM62,502c-.83-.83-3.78,1.67-4,3,2.4.37,4.24-.48,4-3ZM259.5,502c-1.05,1.23-2.52,2.27-3.5,3.5s-.88,2.13.5,2.5c2.49.67,3.91-2.19,5.5-3.5l-2.5-2.5ZM342,504l-2-2v2h2ZM439,504l-.5-2-4.5,5c1.75-.29,2.62,1.55,4.5,1,1.4-.41,4.56-4.89.5-4ZM484,506c2.06.2,4.2-1.94,4-4l-4,4ZM612.5,502l-2.5,2.5,4.5,4.5,3.5-3.5-5.5-3.5ZM630,502c-2.07-1.35-7.12,3.88-6,5l3.5-2,2.5-3ZM695,504l-4.5-2-1.5,3h-2l2.5,5,5-4,.5-2ZM823.5,502c-.65,0-.65,1,0,1s.65-1,0-1ZM987,502l-3,1.5,2-.5v2h2l-1-3ZM69,505v-2h-1v2h1ZM111,505c-.07,2.31-2.23,3.15.5,5,2.42-2.48,7.63-6.02,1.5-7v2h-2ZM411,506l-2.5-3-5.5,5.5c1.29,1.61,1.2,1.43,3,1,2.83-.67,1.45-.89,2.5-2.5.65-1,1.35-1.18,2.5-1ZM450.25,502.25l-3.75,3.75,1.5,1.5,3.75-3.75-1.5-1.5ZM459.26,503.98c0-.68-.55-1.24-1.24-1.24s-1.24.55-1.24,1.24.55,1.24,1.24,1.24,1.24-.55,1.24-1.24ZM520.5,503l-5.5,4.5,2.5,2.5,5.5-3.5-2.5-3.5ZM557,505l-2.5-2-3.5,3.5,3,1.5c-.32-1.76.99-3.28,3-3ZM717.5,503l-4,4,3.5,3.5,4-4-3.5-3.5ZM768,507c2.06.2,4.2-1.94,4-4l-4,4ZM781,505c.5-.4-1.75-2.65-3-2-.5.4,1.75,2.65,3,2ZM851,508l4-3.5-1.5-1.5h-1l-1.5,1.5v3.5ZM874.25,502.25l-5.5,5.5,1,1,5.5-5.5-1-1ZM976.75,502.75l-4.5,4.5,1,1,4.5-4.5-1-1ZM78,509l2-2.5-3-2.5c-.54,2.17,1.11,3.14,1,5ZM274,508c1.47.29,2.16-.45,3-1.5,1.27-1.59.97-1.03-.5-2.5-1.25,1.46-7.65,6.23-2.5,6v-2ZM313,503.5l-1,1,4.75,4.75,1-1-4.75-4.75ZM393,504c-1.05-1.07-6.06,3.84-5,5,1.83-1.64,5.3-2.15,5-5ZM427,506l-4.5-2-3.5,3.5c3.14,4.3,5.61,2.43,8-1.5ZM478,504l-6.5,4,1,3c.83-1.12,6.73-5.75,5.5-7ZM569,508c-.49.49,1.55,5.59,3.5,5l5.5-5.5-3.5-3.5c-1.83,1.47-3.1,4.26-5.5,4ZM587.5,504l-3.5,3.5.5.5,3.5-3.5-.5-.5ZM660,503.5l-4,4,2,2,4-4-2-2ZM669.5,504l-1.5,1.5,4.25,4.25,1.5-1.5-4.25-4.25ZM703.5,504c-3.36,1.9.41,5.71,3,5,1.38-.38,1.52-1.22.5-2.5-.66-.84-2.38-2.82-3.5-2.5ZM830,508l-3.5-4-.5.5c1.13,1.14,2.37,1.78,2,3.5h2ZM845,508c.37-2.4-.48-4.24-3-4-.83.83,1.67,3.78,3,4ZM902,504c-2.19.63-2,3.28-4,4.5l.5.5c1.37-1.66,3.82-2.76,3.5-5ZM928,507c-.3-4.79-4.27-2.98-5,.5l5-.5ZM948,504h-2l-2,4c1.73.7,4.93-3.07,4-4ZM957,508c.24-1.88,0-3.47-2-4-.24,1.88,0,3.47,2,4ZM965.5,504l-2.5,2.5,2.5,2.5,2.5-2.5-2.5-2.5ZM996,511l-1-4.5-2-2.5c-.2,1.8.06,3.25.5,5s.35,2.38,2.5,2ZM998,510l-1-6h-1l1,6h1ZM89,505h-2v5l2-1.5v-3.5ZM183,505c-1.25-.65-3.5,1.6-3,2,1.25.65,3.5-1.6,3-2ZM195,509c1.05-.94-3.16-6.36-5-2.5l1,3.5,4-1ZM216,507l-1.5-2h-1.5v2l-3,3,6-3ZM223,504.5l-2,2,2.5,2.5,2-2-2.5-2.5ZM231,508c.4.5,2.65-1.75,2-3-.4-.5-2.65,1.75-2,3ZM248.25,504.25l-5.75,5.75,1.5,1.5,5.75-5.75-1.5-1.5ZM330,508l-3.5-3-3.5,3.5,2.5,2.5c1.42-1.18,2.35-3.34,4.5-3ZM508,507l-2-2v2h2ZM529,507l3.5,2,1.5-1.5-3.5-2.5-1.5,2ZM545,505c-.58-.58-6,1.75-5,4,2.61.51,5.08-1.42,5-4ZM736,511c.2-.19,1.03.26,1.5,0,.82-.46,1.63-1.87,2.5-2.5l-4.5-3.5-4.5,5.5,3.5,3.5c1.56-.56,1.38-2.89,1.5-3ZM794,512c1.82.38,2.39-.99,3.5-2,1.87-1.7,3.86-2.9,1-5-1.79,2.18-5.14,3.6-4.5,7ZM818,509l2-3.5-.5-.5-3.5,4h2ZM861.5,505l-.5.5,1.5,1.5.5-.5-1.5-1.5ZM886,509l5-1.5-2.5-2.5-2.5,4ZM914,505h-2l1.5,2h.5v-2ZM937,505h-3v.5l1.5,1.5h1.5v-2ZM28,506h-2v2l2-2ZM64.5,506c-2.13,1.59-2.13,3.41,0,5l2.5-1.5-2.5-3.5ZM98.5,506c-.65,0-.65,1,0,1s.65-1,0-1ZM149,513l6.5-4-1-3c-2.22,2.13-3.51,4.55-5.5,7ZM338.26,506.98c0-.68-.55-1.24-1.24-1.24s-1.24.55-1.24,1.24.55,1.24,1.24,1.24,1.24-.55,1.24-1.24ZM347,509c.29-1.9-1.1-3.29-3-3l3,3ZM358.5,506l-4,4,2.5,2.5,4-4-2.5-2.5ZM382,507l-5-1v2c-4.59-.26-5.08,6.38-.5,5,.79-.24,4.75-4.78,5.5-6ZM495,508l-3.5-2c-5.7,4.31.81,7.67,3.5,2ZM639,512c.01-3.04-3.4-4.49-5.5-6l-4.5,4.5,5.5,4.5c1.42-1.18,2.35-3.34,4.5-3ZM753,508l-4.5-2c-1.11,1.26-2.87,2.04-2.5,4,2.89-.54,1.55.75,2,1.5,2.05,3.42,5.63-.35,5-3.5ZM759,509c.4.5,2.65-1.75,2-3-.4-.5-2.65,1.75-2,3ZM775.5,506c-1.05,1.23-2.52,2.27-3.5,3.5-1.26,1.59-.97,1.03.5,2.5l4-3-1-3ZM806,506l3.5,4,1.5-1.5c0-.77-4.04-2.8-5-2.5ZM876,513l3-7-6,5.5,3,1.5ZM48,507c-3.57-.58-2.43.35-4,2.5l-1,5.5,4-4.5,1-3.5ZM58,507h-3l-1,4,4-4ZM166.5,507l-3.5,3.5,2,2,3.5-3.5-2-2ZM205,510c-.23-1.34-3.16-3.82-4-3l1,4c1.18-.31,1.49-1.42,3-1ZM266,510l-1.5-3-4.5,4.5c1.47,1.48.91,1.76,2.5.5,1.15-.91,1.6-2.43,3.5-2ZM313,514l1-3.5-3.5-3.5-4.5,3.5,4.5,4.5,2.5-1ZM392,512c1.02.94,5.62-3.18,5-5-.4-.46-2.38,1.98-3,2.5-1.18.99-2.57-.31-2,2.5ZM455,507c-.83-.83-3.78,1.67-4,3l4-1v-2ZM464,510c.29-1.9-1.1-3.29-3-3l1,3h2ZM506,509c-2.83.19-3.43-4.01-6-.5l3.5,3.5,2.5-3ZM560,506.5l-4,4,3,3,4-4-3-3ZM587,510c1.97,4.07,5.42,4.04,8,.5l-3.5-3.5c-1.41,1.16-2.34,3.33-4.5,3ZM612,510c-2.15.34-3.08-1.82-4.5-3l-4.5,5.5,4.5,3.5c.83-1.02,5.67-4.83,4.5-6ZM681,507h-2v1h2v-1ZM824,513c1.26.42,3.45-1.03,3-2.5l-3.5-3.5c-1.82,1.96-4.14,3.05-3.5,6h1.5l.5,2h2v-2ZM981,507l-3,1.5c.02,2.16-.59,4.11,1.5,5.5,1.13-1.18,5.96-4.97,2-5l-.5-2ZM34,517c.16-2.01-.68-4.28,1-5.5l-4-3.5-1,3.5,1,3,3,2.5ZM128,514c-.43-1.9,1.09-2.35,2-3.5,1.02-1.28.89-2.12-.5-2.5-3.13.57-5.37,4.46-1.5,6ZM237,508h-2l-1,4c1.33-.22,3.83-3.17,3-4ZM280,514c3.79-.11,5.47-4.14,1.5-6-1.82-.85-1.38,1.97-3,3-.42.27-1.96.2-2.5,1.5l3.5,3.5.5-2ZM297.5,508c-2.05.64-3.83,5.15-1,6,1.46.44,3.35-2.69,4.5-3.5-.97-.74-2.15-2.92-3.5-2.5ZM445,508c-1.94-.55-2.34,1.3-3.5,2-.89.54-2.34-.58-1.5,2,2.54.51,5.06-1.35,5-4ZM482.25,507.25l-6.5,6.5,1,1,6.5-6.5-1-1ZM526.5,508l-4.5,4.5,2.5,2.5,5.5-3.5-3.5-3.5ZM649.5,508c-.65,0-.65,1,0,1s.65-1,0-1ZM664,510l-3,1.5,3.5,3.5,4.5-2.5c.49-1.55-5.79-7.48-5-2.5ZM788,510c-2.33.47-2.67-2.47-5-2l3.5,4,1.5-2ZM841,513l1-3.5c-.93-1.19-1.91-1.93-3.5-1.5-1.38.37-1.52,1.22-.5,2.5.71.89,1.9,2.16,3,2.5ZM856,513c1.1-.34,2.29-1.61,3-2.5,1.02-1.28.88-2.13-.5-2.5-1.59-.43-2.57.31-3.5,1.5l1,3.5ZM932,508l-4,3.5,2.5,3.5,3.5-3.5-2-3.5ZM950.5,508l-3,3,3,3,3-3-3-3ZM992,508h-2c.06,2.4-.67,4.57,1.5,6l1.5-1.5-1-4.5ZM20,509c-3.71,1.84-3.53,8.86-3,12.5.05.37.91.61,1,1,.73,3.38.91,6.53,4,9l6.5,8.5-3.5-6.5c-2.28-7.07-3.2-12.69-4-20-.17-1.58-1.54-2.54-1-4.5ZM75,509l-3,.5c1.33,1.2,2.1,2.89,4,2.5l-1-3ZM139,513c1.64-.71,3.31-2.24,3-4-1.64.71-3.31,2.24-3,4ZM175,512c1.9.29,3.29-1.1,3-3l-3,3ZM221,513c.51-1.62-.65-4.56-2.5-4-.47.14-1.32,1.52-2,2-.41.29-3.07.5-2.5,2.5l1,2.5h3c-.29-1.9,1.1-3.29,3-3ZM255,510l-3.5-1c-1.23,1.84-3.2,1.88-4.5,3.5l1,3.5c1.07,1.13,6.49-4.7,7-6ZM292.5,509c-.65,0-.65,1,0,1s.65-1,0-1ZM331,516c-.38-1.54.33-1.63,1-2.5,1.22-1.59,4.33-2.62,1.5-4.5l-5.5,4.5,3,2.5ZM551,510l-3.5-1c-2.83,2.09-3.8,4.61.5,5-.18-1.17,0-1.82,1-2.5,1.18-.81,2.27.05,2-1.5ZM622,509c-1.9-.29-3.29,1.1-3,3,1.9.29,3.29-1.1,3-3ZM698.5,509l-4.5,4.5,4.5,3.5,4.5-5.5-4.5-2.5ZM723.5,509l-3.5,4.5.5.5,4.5-3.5-1.5-1.5ZM764.5,509l-3.25,3.25,1.5,1.5,3.25-3.25-1.5-1.5ZM807,511l-3.5-2c-1.57,1.4-3.96,1.39-3.5,4h-2l2,5c1.03.97,5.27-3.54,6-4.5.66-.87,1.38-.96,1-2.5ZM849.26,509.98c0-.68-.55-1.24-1.24-1.24s-1.24.55-1.24,1.24.55,1.24,1.24,1.24,1.24-.55,1.24-1.24ZM959.76,509.46l-.43,2.59,3.49.58.43-2.59-3.49-.58ZM969,512c.4.5,2.65-1.75,2-3-.4-.5-2.65,1.75-2,3ZM40,512v-2h-1v2h1ZM83,515c3.37-1.25,2.42-5.19-1-5-.11,1.86,1.54,2.83,1,5ZM186,510v3.5l2.5,1.5,1.5-1.5c.42-1.53-3.18-4.32-4-3.5ZM228,512v-2l-2,1.5v.5h2ZM344,513c.29-1.9-1.1-3.29-3-3-.29,1.9,1.1,3.29,3,3ZM384.5,510l-6.25,6.25,1.5,1.5,6.25-6.25-1.5-1.5ZM415.5,510c-.49.14-4.09,3.95-5.5,4.5l3.5,3.5,6.5-5.5c-1.37-1.35-2.39-3.1-4.5-2.5ZM433,513l-3.5-3-3.5,3.5c2.82,3.67,3.98-.29,7-.5ZM458.5,510l-3,2c-1.3.87.27,2.79,1,3,2.17.62,3.22-1.28,4.5-2.5l-2.5-2.5ZM516,513l-3-3c-.29,1.9,1.1,3.29,3,3ZM677,510h-2v2l2-2ZM687,514c.7-1.73-3.07-4.93-4-4v2l4,2ZM713,516l1-3.5-3.5-2.5c-3.37,2.29.56,4.79,2.5,6ZM886,512l-4-2c.26,2.4-2.53,3.67-4,5.5l2.5,3.5c.9-1.19,6.72-5.74,5.5-7ZM942,512v-2h-1v2h1ZM60,516c2.16-.45,4.39-4.18,1.5-5-2.47-.7-3.93,2.2-5.5,3.5l1,3.5,1-5,2,3ZM93,514l1-2.5-.5-.5-2.5,3h2ZM198,510.5l-3,3,2.5,2.5,3-3-2.5-2.5ZM270,511l-2,2c-1.21-.2-1.79.02-2.5,1l1,3,3.5-6ZM320.5,511l-.5.5,2.5,2.5.5-.5-2.5-2.5ZM365,511c-3.06-.53-6.89,2.63-3.5,5l3.5-5ZM402,511c-3.06-.82-3.55,2.27-6,2-.23,1.84-.04,2.91,1.5,4l3.5-2,1-4ZM480,518l3.5,1,5.5-5.5c-1.33-1.2-2.1-2.89-4-2.5.45,3.47-5.28,3.04-5,7ZM497.5,511l-3,3,3.5,3.5,3-3-3.5-3.5ZM539,511h-4v.5c1.1,1.54,2.14,1.73,4,1.5v-2ZM580.25,510.25l-4.75,4.75,1,1,4.75-4.75-1-1ZM655,511c-3.06-.82-3.55,2.27-6,2l1,4c1.23-.38,6.07-4.98,5-6ZM779,519l5-4.5-3.5-3.5-4.5,3.5c1.18,1.42,3.34,2.35,3,4.5ZM814,513v-2h-1v2h1ZM895.5,511c-.65,0-.65,1,0,1s.65-1,0-1ZM907,511h-2l-2,3.5,1.5,1.5c1.71-1.57,3.01-2.5,2.5-5ZM920,511h-2v1.5l1.5,1.5h.5v-3ZM73,516c-.48-1.66-2.52-2.02-2-4h-1v4h3ZM107,512h-1.5l-1.5,1.5,1.5,1.5h1.5v-3ZM169.5,512l-2.5,2.5.5.5,2.5-2.5-.5-.5ZM208,515v-3h-.5l-1.5,1.5v1.5h2ZM241,512c-1.5-.32-2.06.44-3,1.5v2.5c1.33-.22,3.83-3.17,3-4ZM354,516c.31-1.76-1.36-3.29-3-4-.31,1.76,1.36,3.29,3,4ZM450,512c-2.4-.37-4.24.48-4,3,.83.83,3.78-1.67,4-3ZM470,513l-4-1,1.5,2h2.5v-1ZM569,518l1-2.5-3.5-3.5-3.5,2.5,2,4.5,4-1ZM747,514l-5-2-3,5.5,3.5,2.5c2.38-1.61,5.16-2.52,4.5-6ZM31,522l.5-4-4.5-5,1,6.5,3,2.5ZM124,513c-2.05,1.53-7.09,4.57-3.5,7l4.5-3.5-1-3.5ZM162,513l-4,3.5-2,3.5c.31.35,7.11-5.75,6-7ZM180.5,513l-1.5,1.5.5.5,1.5-1.5-.5-.5ZM232,513c-1.9-.29-3.29,1.1-3,3,1.9.29,3.29-1.1,3-3ZM303.5,513l-3.5,3.5,4.5,4.5,3.5-3.5-4.5-4.5ZM340,517l-2.5-4-4.5,5.5c2.94,3.9,3.85-1.83,7-1.5ZM512,517l-2.5-4-2.5,2.5,2,2,3-.5ZM554,517l3-1.5-2.5-2.5-4.5,3.5c1.34,1.63,4.39,4.62,4,.5ZM584.5,513l-5.5,5.5,2.5,2.5,6.5-4.5-3.5-3.5ZM631,519c1.19-1.12-3.73-5.05-4.5-6l-2.5,2.5c1.01.92,5.77,4.66,7,3.5ZM726.5,513c-.5.15-2.76,2.46-2.5,3.5l3.5,3.5,4.5-3.5c-1.58-1.31-3.07-4.22-5.5-3.5ZM789,516h1.5l1.5-1.5-1.5-1.5-1.5,1.5v1.5ZM838,517c.2-2.06-1.94-4.2-4-4l4,4ZM846,513c-1.9-.29-3.29,1.1-3,3,1.9.29,3.29-1.1,3-3ZM855,516l-3-3c-.29,1.9,1.1,3.29,3,3ZM894,515v-2h-1v2h1ZM945,518l3-1.5-2.5-3.5-1.5,1.5,1,3.5ZM988,516l-1.5-3-4.5,6.5,3,1,2.5-3.5c1.19,1.84,1.5-.35,3.5,0v-2l-3,1ZM998,516v-3h-1v3h1ZM80,514h-2c-.83.83,1.67,3.78,3,4l-1-4ZM154.5,514c-.65,0-.65,1,0,1s.65-1,0-1ZM174,514c-2.72-.33-3.77,2.92-4,5l2-2.5,2-2.5ZM223.5,514l-4.5,4.5.5.5,4.5-4.5-.5-.5ZM259,514l-4,1.5c-.54,1.57-3.85,1.01-3,3,.77,1.82,1.92,1.73,3.5.5.8-.62,4.51-4.09,3.5-5ZM295,517l-3-3c-.29,1.9,1.1,3.29,3,3ZM320,518l-2.5-4-4.5,3.5,2,.5v2l5-2ZM389,514c-.36-.41-2.92,2.39-3.5,3-.66.69-2.76,2-2,3,2.07-1.5,5.49-2.91,5.5-6ZM535,515l-3-.5-3,4.5c2.08,1.34,6.43-3.65,6-4ZM605,519l-4.5-5-4.5,4.5c.76.87,2.16.5,3,2,.26.47-.19,1.31,0,1.5,2.6.53,3.21-3.36,6-3ZM616.25,513.25l-5.5,5.5,1,1,5.5-5.5-1-1ZM641.5,514c-.65,0-.65,1,0,1s.65-1,0-1ZM680.5,514l-1.5,1.5,2.5,2.5,1.5-1.5-2.5-2.5ZM759,514l-4,2.5,2.5,2.5,2.5-1-1-4ZM770,514l-4,1v2c.83.83,3.78-1.67,4-3ZM859,517c.4.5,2.65-1.75,2-3-.4-.5-2.65,1.75-2,3ZM865,514h-2c.2,1.21-.02,1.79-1,2.5l.5.5,2.5-3ZM955,519c3.5-1.6,4.28-4.75,0-5l-1,2.5,1,2.5ZM964.9,513.8l-1.1,3.3,3.3,1.1,1.1-3.3-3.3-1.1ZM977,518c.37-2.4-.48-4.24-3-4-.37,2.4.48,4.24,3,4ZM51,515c-2.68-.44-2.62,2.03-4,3.5l.5.5,3.5-4ZM135,517l-.5-2-3.5,2v1l4-1ZM147,515c-1.9-.29-3.29,1.1-3,3,1.9.29,3.29-1.1,3-3ZM182,515l1.5,5,2.5-2.5-4-2.5ZM277,517l-3.5-2-4.5,4.5,4,2.5c-.54-2.89.75-1.55,1.5-2,.59-.35,2.82-2.71,2.5-3ZM371,518c-.8-5.81-5.59-2.04-7,1,1.91-.4,2.12,1.68,4,.5.99-.62,1.19-2,3-1.5ZM432,519l4.5-1-.5-3-4,4ZM453,517l-.5-2-2.5,2.5,2.5,2.5,2.5-2.5-2-.5ZM461,519h2.5l1.5-1.5-1.5-2.5c-1.2,1.33-2.89,2.1-2.5,4ZM522,519c.2-2.06-1.94-4.2-4-4l4,4ZM544,516l-4-1v2l4,1v-2ZM662,517l-5-2v2l-3,1.5,3.5,4.5c.83-1.05,5.65-4.78,4.5-6ZM673,515c-2.33-.47-2.67,2.47-5,2l1.5,2,3.5-4ZM710,520c.25-2.86-2.75-3.62-4.5-5-3.4,3.01-5.3,4.73-1,8l5.5-3ZM811,515c-1.96-.66-8.31,4.56-7,6,1-.76,7.75-5.37,7-6ZM817,514.5l-1.5,1.5,3.75,3.75,1.5-1.5-3.75-3.75ZM871.5,515c-.65,0-.65,1,0,1s.65-1,0-1ZM938,515c-2.06-.2-4.2,1.94-4,4l4-4ZM67,516c-3.07,0-4.49,3.42-6,5.5l2.5,3.5.5-3h2.5c2.81-1.93.84-3.41.5-6ZM192.5,516l-2,2,2.5,2.5,2-2-2.5-2.5ZM204,516h-2l-1,4c1.33-.22,3.83-3.17,3-4ZM210,516v2.5l1.5,1.5,2.5-1.5c-1.33-1.2-2.1-2.89-4-2.5ZM242.9,515.8l-1.1,3.3,3.3,1.1,1.1-3.3-3.3-1.1ZM328,518c.5-.4-1.75-2.65-3-2-.5.4,1.75,2.65,3,2ZM351,519c-.22-1.33-3.17-3.83-4-3-.32,1.5.44,2.06,1.5,3h2.5ZM426,519c-.37-7.07-8.55.63-8,2.5,3.18,4.13,4.57-2.88,8-2.5ZM491,522c1.9.39,2.67-1.3,4-2.5l-3.5-3.5c-2.43,1.41-2.35,5.29-5.5,5,.15,1.91,4.66,4.36,5,2.5v-1.5ZM639.5,516l-1.5,1.5.5.5,1.5-1.5-.5-.5ZM718,516c-1.9-.29-3.29,1.1-3,3l3-3ZM833,523l2-4.5c-1.98-4.36-7.01-1.36-6,2,.22.72,3.26,3.28,4,2.5ZM925,516l-3,.5,2,3.5h2l-1-4ZM991,532c2.1-.52,2.36-3.07,3-4.5s.6-1.62,1-3c.12-.41.93-.63,1-1,.54-2.91-1.08-4.81-1-7.5l-7,9.5,3,6.5ZM100.5,517l-2.5,3.5,2.5,1.5,1.5-3.5-1.5-1.5ZM222,522l6-3.5-3-1.5-3,5ZM236,517h-1.5l-1.5,1.5,1.5,1.5,1.5-1.5v-1.5ZM283.5,517c-.65,0-.65,1,0,1s.65-1,0-1ZM289,524c-.34-2.15,1.82-3.08,3-4.5l-2.5-2.5-4.5,3.5,4,3.5ZM358.26,517.98c0-.68-.55-1.24-1.24-1.24s-1.24.55-1.24,1.24.55,1.24,1.24,1.24,1.24-.55,1.24-1.24ZM387,524l5.5-2,2.5-3.5c-2.73-3.74-4.38,1.23-6.5,2.5-.99.6-2.06-1.01-1.5,3ZM411,519l-5-2v2l-3,1.5,4.5,3.5c1.26-1.58,3.78-2.67,3.5-5ZM445,517h-2v1h2v-1ZM474,517h-2v1h2v-1ZM645,521c.12-.12,2.44.06,3-1.5l-2.5-2.5-4.5,3.5,2.5,3.5c1.56-.56,1.38-2.88,1.5-3ZM695,521c.7-1.73-3.07-4.93-4-4v2l4,2ZM773,524c.82.82,4.45-2,4-3.5l-4.5-3.5-2.5,2.5c1.18,1.42,3.34,2.35,3,4.5ZM849,516.5l-2,2,2.5,2.5,2-2-2.5-2.5ZM901,516.5l-3,3,2,2,3-3-2-2ZM43.27,520.47c0-1.26-1.02-2.28-2.28-2.28s-2.28,1.02-2.28,2.28,1.02,2.28,2.28,2.28,2.28-1.02,2.28-2.28ZM74.75,517.25l-1,1,4.5,4.5,1-1-4.5-4.5ZM164,518c-.35-.4-2.45,1.91-3,2.5s-2.4,1.69-1.5,2.5c1.38-2.18,4.88-1.93,4.5-5ZM173,522c2.02-.37,1.73-2.49,3-3.5l-.5-.5c-1.2,1.33-2.89,2.1-2.5,4ZM263,518c-.97-.98-6.57,4.06-6,6l2-2c1.67.73,4.94-3.04,4-4ZM507,519l-3.5-1-1.5,1.5c1.33,1.2,2.1,2.89,4,2.5l1-3ZM519,520l-3.5-2c-.56,1.1-1.42.78-2,1-1.96.73.76,4.32,2,5l3.5-4ZM559.5,518l-3.5,3.5,4.5,3.5,3.5-3.5-4.5-3.5ZM572.5,518l-3.5,3.5.5.5,3.5-3.5-.5-.5ZM616,522c-.92.92,3.09,5.44,4.5,5l5.5-5.5-4.5-3.5c-.78,0-3.38,4.81-5.5,4ZM674,524c2.34.27,3.43-2.26,5-3.5l-2.5-2.5-3.5,2.5,1,3.5ZM788,518l-3,1.5-2,2.5c1.19,1.03,5.38-3.66,5-4ZM798,519l-4-1,1,4c1.9.29,3.29-1.1,3-3ZM814,518c-1.28-1.21-5.8,4.6-7,5.5,1.39,1.41,5.3,6.23,5,1.5,1.9.39,2.67-1.3,4-2.5l-2-4.5ZM841,520v-2h-1v2h1ZM869,518c-1.73-.7-4.93,3.07-4,4h2l2-4ZM888.5,518c-.65,0-.65,1,0,1s.65-1,0-1ZM914,518c-2.24-.38-1.96.22-2.5,2-.3.97-.79,1.78-.5,3l1.5-2,1.5-3ZM964,522l-2.5-4-2.5,1-1,3.5c2.57,3.51,3.17-.69,6-.5ZM142,519l-7,7c2.08.14,3.76-2.1,5-3.5.99-1.12,2.39-1.66,2-3.5ZM149.5,519l-2.5,2.5.5.5,2.5-2.5-.5-.5ZM319,524c2.48-.11,4.46-1.73,6-3.5l-3-1.5-3,5ZM347,521l-3.5-2c-.89,1.29-4.96,3.97-4.5,5.5,1.25,4.11,7.11-1.07,8-3.5ZM437,523c2.06.2,4.2-1.94,4-4l-4,4ZM539,522c-.3-4.79-4.27-2.98-5,.5l5-.5ZM547.5,519l-2,2,2.5,2.5,2-2-2.5-2.5ZM589.5,519l-4.5,4.5.5.5,4.5-4.5-.5-.5ZM721,518.5l-2.5,2.5,4,4,2.5-2.5-4-4ZM740,522c-2.15.34-3.08-1.82-4.5-3l-3.5,4.5,3.5,3.5c1.75-1.38,4.75-2.14,4.5-5ZM755,521l-3.5-2-5.5,6,3.5,2,5.5-6ZM761,523c1.64-.71,3.31-2.24,3-4-1.64.71-3.31,2.24-3,4ZM858,519h-2v1h2v-1ZM941,519l-4,4,3,1,1-5ZM952,519h-1.5l-1.5,1.5,2.5,2.5h.5v-4ZM970,524c1.9.39,2.67-1.3,4-2.5l-1.5-2.5c-1.71,1.57-3.01,2.5-2.5,5ZM53,524c.36-1.76-1.36-2.24-1-4l-2,1.5,3,2.5ZM168,520l-3.5,3-2,3,5.5-6ZM209,524c.39-1.9-1.3-2.67-2.5-4l-2.5,2.5,2,3.5,1-2h2ZM302,522l-5-2c.77,1.84,5.46,6.72,5,2ZM310,526l4-3.5-2.5-2.5c-1.64-.51-5.72,4.44-2,4l.5,2ZM361.5,520l-1.5,1.5,3.25,3.25,1.5-1.5-3.25-3.25ZM376,520c-2.61-.51-5.08,1.42-5,4,.9-.6,5.72-3.42,5-4ZM449,520h-2l1.5,2h.5v-2ZM458,519.5l-3,3,2.5,2.5,3-3-2.5-2.5ZM470,520c-1.76-.31-3.29,1.36-4,3,1.76.31,3.29-1.36,4-3ZM480,521l-4-1c.22,1.33,3.17,3.83,4,3v-2ZM528,521l-3-1c-.29,1.9,1.1,3.29,3,3v-2ZM634.5,520l-1.5,1.5.5.5,1.5-1.5-.5-.5ZM70,528l5-2.5-3.5-4.5-1.5,7ZM129,521c-2.65-.35-3.74,2.8-4,5,1.42-.44,4.95-4.05,4-5ZM177,526l3-2.5v-1l-1.5-1.5c-1.91,1.27-1.58,2.86-1.5,5ZM188,520.5l-3,3,2.5,2.5,3-3-2.5-2.5ZM196,525l3-2.5-1.5-1.5-1.5,1.5v2.5ZM232,523l-3-2-3,6c.6.7,4.11-4.9,6-4ZM238.5,521l-1.5,1.5,2.5,1.5,1.5-1.5-2.5-1.5ZM249,520.5l-2.5,2.5,2,2,2.5-2.5-2-2ZM278,523v-2l-2,1.5v.5h2ZM333,521h-2l1.5,2h.5v-2ZM354.26,521.98c0-.68-.55-1.24-1.24-1.24s-1.24.55-1.24,1.24.55,1.24,1.24,1.24,1.24-.55,1.24-1.24ZM428.5,521c-.54.16-4.06,3.94-5.5,4.5l2.5,2.5,5.5-5.5c-.74-.67-1.32-1.86-2.5-1.5ZM577,520.5l-4,4,3,3,4-4-3-3ZM598,523l-4.5-2-4.5,4.5,2,4.5c1.03.97,5.27-3.54,6-4.5.66-.87,1.38-.96,1-2.5ZM604,525c2.06.2,4.2-1.94,4-4l-4,4ZM666,521l-5,5,3-1.5,2-3.5ZM686,521c-.28.24,4.06,6.46,6,2.5l-6-2.5ZM712.5,521l-3.5,3.5.5.5,3.5-3.5-.5-.5ZM787,524l2.5,4,4.5-3.5-3.5-3.5c-.86,0-.31.96-1,2s-1.34,1.18-2.5,1ZM844.5,521l-1.5,1.5,3.25,3.25,1.5-1.5-3.25-3.25ZM886,523v-2h-1v2h1ZM34,532c3.87.25,2.22-3.91,5-5.5-1.18-1.42-3.34-2.35-3-4.5l-2,1.5v2.5l-3-1,3,7ZM154,522c-1.9-.29-3.29,1.1-3,3l3-3ZM216,522h-2v1h2v-1ZM269,523l-3.5-1-4.5,4.5,3.5,2.5,3.5-2,1-4ZM498.5,522l-4.5,4.5,2.5,3.5,5.5-5.5-3.5-2.5ZM655,524l-4.5-2-3.5,4.5,3.5,3.5c.83-1.05,5.65-4.78,4.5-6ZM837.5,522l-2.5,2.5.5.5,2.5-2.5-.5-.5ZM853,525h1.5l1.5-1.5-1.5-1.5-1.5,1.5v1.5ZM873,529l2-4.5-3.5-2.5-2.5,3.5,4,3.5ZM891,529c1.73.2,3,.08,4-1.5.16-.25-.15-.79,0-1,1.25-1.8,3.57-2.07.5-4.5-2.03,1.93-4.36,3.95-4.5,7ZM930.5,522c-.65,0-.65,1,0,1s.65-1,0-1ZM96,527l1-2.5-2.5-1.5-1.5,3,3,1ZM116,526c.65-1.25-1.6-3.5-2-3-.65,1.25,1.6,3.5,2,3ZM170.5,523c-2.17,2.77-8.17,5.58-4,9,2.04-1.85,3.64-3.85,5-6,1.06-1.67.08-1.93-1-3ZM286,525l-4.5-2-4.5,4.5c1.66,1.37,2.76,3.82,5,3.5-.59-3.4,4.41-2.46,4-6ZM298,525l-4.5-2c-1.11,1.26-2.87,2.04-2.5,4l4.5,2c1.11-1.26,2.87-2.04,2.5-4ZM379,523c-.93-.93-4.7,2.27-4,4l4-2v-2ZM399.5,523l-6.5,5.5,4.5,4.5,7.5-6.5-5.5-3.5ZM417,524l-3-.5-3,3,2.5,2.5c.91-1.34,1.67-1.49,3-2,1.08-.41.32-2.07.5-3ZM441,525l1.5,2,3.5-2.5-1.5-1.5-3.5,2ZM476,527c.37-1.96-1.39-2.74-2.5-4l-4.5,2c-.36.32,3.7,4.99,5,4l2-2ZM513,527c.39-1.9-1.3-2.67-2.5-4l-2.5,1.5c1.57,1.71,2.5,3.01,5,2.5ZM543,522.5l-4,4,3,3,4-4-3-3ZM703,525l-5-2c.77,1.84,5.46,6.72,5,2ZM766.5,523c-4.2,1.18,2.2,8.31,5.5,3.5l-5.5-3.5ZM802,523c-1.9-.29-3.29,1.1-3,3l3-1v-2ZM825,526l3.5,2,1.5-2.5-5-2.5v3ZM918,523l-4,2.5c.62,1.46,4.76,3.84,5,2l-1-4.5ZM949,527l-2.5-4-3.5,3.5,1,2.5,5-2ZM981,523c-1.73-.2-3-.08-4,1.5-.16.26.14.8,0,1-.97,1.36-2.56,2.57-3,4.5.85.8,3.53-1.66,4-2.5.26-.47-.18-1.26,0-1.5.13-.17,3.79-.07,3-3ZM49,529l.5-3-2-2-2.5,2.5,4,2.5ZM218.5,524l-1.5,1.5,2.5,1.5,1.5-1.5-2.5-1.5ZM330,526c-1.54-3.87-5.43-1.63-6,1.5.38,1.39,1.22,1.52,2.5.5,1.15-.91,1.6-2.43,3.5-2ZM349.5,524l-4.75,4.75,1,1,4.75-4.75-1-1ZM360,527c-.22-1.33-3.17-3.83-4-3-.32,1.5.44,2.06,1.5,3h2.5ZM455,527c.29-1.9-1.1-3.29-3-3l3,3ZM521.5,523l-3,3,2.5,2.5,3-3-2.5-2.5ZM533,525l-3-1c-.29,1.9,1.1,3.29,3,3v-2ZM551,525c.69,1.41,2.28,3.03,3.5,4,1.28,1.02,2.12.88,2.5-.5l-3-4-3,.5ZM566.5,524l-3.5,3.5.5.5,3.5-3.5-.5-.5ZM641,525l-4-1v2l4,1v-2ZM688,527l-5.5-3-2.5,3.5,4.5,3.5c1.24-2.26,4.28-1.24,3.5-4ZM716,533l4-6.5-4.5-2.5-4.5,4.5c1.58,2.08,5,3.64,5,6.5l5-4.5-5,2.5ZM781.25,523.25l-4.5,4.5,1,1,4.5-4.5-1-1ZM820,524l-3.5,3-2.5,3c2.66.53,1.6-.9,3-2.5.58-.66,3.44-3.07,3-3.5ZM862.5,524c-.65,0-.65,1,0,1s.65-1,0-1ZM908,524h-2l-1,2.5,2,1.5,1-4ZM58,525l-1,3.5,1.5,1.5c2.99-2.22,3.65-4.65-.5-5ZM145,525c-2.95-.11-4.01,2.93-5,5,2.91.25,3.42-3.28,5-5ZM157,525c-1.76-.31-3.29,1.36-4,3,1.76.31,3.29-1.36,4-3ZM203,531l1-3.5-2.5-2.5-2.5,2.5,4,3.5ZM211.5,525l-1.5,1.5.5.5,1.5-1.5-.5-.5ZM233,529l2.5-1-1-3c-1.02,1.01-4.08,2.11-4.5,3.5-.59,1.97,3.87,4.37,3,.5ZM246,526l-4.5,1,.5,3,4-4ZM256,527l-2.5-2-2.5,2.5,3,1.5,2-2ZM369,526c-1.51.42-1.82-.69-3-1-.32,1.5.44,2.06,1.5,3l1.5-2ZM436,525l-3,1.5-4,4.5,3.5-2,3.5-4ZM464,525c-1.25-.65-3.5,1.6-3,2,1.25.65,3.5-1.6,3-2ZM487,528c-.97-2.18-2.63-3.47-5-3,.97,2.18,2.63,3.47,5,3ZM617,531c.64-2.98-1.75-4.1-3.5-6-1.42,1.18-2.35,3.34-4.5,3-.28,2.33,2.24,3.42,3.5,5l4.5-2ZM630,525c-1.93-.47-2.34,1.17-3.5,2-1.35.96-3.08,1.32-3.5,3l3.5-2,3.5-3ZM670,524.5l-4.5,4.5,3,3,4.5-4.5-3-3ZM757.5,525l-3.5,3.5.5.5,3.5-3.5-.5-.5ZM841,524.5l-3.5,3.5,3,3,3.5-3.5-3-3ZM958.26,525.98c0-.68-.55-1.24-1.24-1.24s-1.24.55-1.24,1.24.55,1.24,1.24,1.24,1.24-.55,1.24-1.24ZM65,528l2.5,1,.5-.5-3-2.5v2ZM183,525.5l-3.5,3.5,2.5,2.5,3.5-3.5-2.5-2.5ZM194,526c-2.06-.2-4.2,1.94-4,4l4-4ZM308,527l-3.5-1-1.5,2,3.5,2,1.5-3ZM317,526c-1.9-.29-3.29,1.1-3,3,1.9.29,3.29-1.1,3-3ZM340,528l-5-2v1l5,2v-1ZM383,525.5l-4,4,2.5,2.5,4-4-2.5-2.5ZM579,530c2.06.2,4.2-1.94,4-4l-4,4ZM730,525.5l-2.5,2.5,3.5,3.5,2.5-2.5-3.5-3.5ZM934,526v1.5l1.5,1.5,1.5-1.5-1.5-1.5h-1.5ZM968,526h-1.5l-1.5,1.5,1.5,1.5,1.5-1.5v-1.5ZM353.5,527l-5,5,2.5,2.5,5-5-2.5-2.5ZM449.5,527l-3.5,2.5,3.5,2.5,2.5-2.5-2.5-2.5ZM509,529l-4.5-2-4.5,5.5,2.5,2.5,6.5-6ZM693,527c-.37.33,2.84,3.48,3.5,4,1.26,1.01,1.99.95,2.5-.5l-6-3.5ZM745,527l-5,2.5,3.5,3.5,3.5-2-2-4ZM746,540h20.5l3.5-5c-3.21-.28-4.07,5.4-7,1.5l4-5-4.5-4.5-6.5,4.5c2.81,2.07,5.78,3.52,6,7.5l-9.5-5-6.5,6ZM804,532l4-1.5c.62-2.11-4.75-4.95-5-3l1,4.5ZM823,536l3-5.5-3.5-3.5-4.5,5.5c1.58,1.26,2.67,3.78,5,3.5ZM849,527v1.5l1.5,1.5,1.5-1.5-1.5-1.5h-1.5ZM861,527h-3v3c1.9.29,3.29-1.1,3-3ZM77,531c.4.5,2.65-1.75,2-3-.4-.5-2.65,1.75-2,3ZM92,528h-3l2.5,3h.5v-3ZM112,531c-.31-1.18-1.42-1.49-1-3l-2,1.5v1.5h3ZM133,530v-2h-1v2h1ZM147.5,528c-.65,0-.65,1,0,1s.65-1,0-1ZM159,528c-2.02.37-1.73,2.49-3,3.5l.5.5c1.2-1.33,2.89-2.1,2.5-4ZM175,528c-2.65-.48-2.53,1.79-3.5,3-.63.79-2.79,1.93-2,3l5.5-6ZM213,528l-1,2.5,1.5,1.5c3.64-.52,3.1-4.05-.5-4ZM222,531c.4.5,2.65-1.75,2-3-.4-.5-2.65,1.75-2,3ZM420,532l3-1.5c-.85-.58-1.75-2.15-2.5-2.5-1.76-.83-1.36,1.09-2,2-.7,1-1.31,1.19-2.5,1-.56.47,4.68,5.88,4,1ZM433,534l7-4.5c-1.78-2.11-1.38-1.44-3,0-.59.52-4.4,4.14-4,4.5ZM468,528l-4,3,4.5,2c3.03-2.07-1-2.46-.5-5ZM477,535c1.99-.81,3.64-1.79,5-3.5l-2.5-3.5-4.5,3.5,2,3.5ZM529,531c-1-5.73-6.26-2.8-5,2l5-2ZM553,531c-2.15.34-3.08-1.82-4.5-3l-2.5,3.5,4.5,3.5,2.5-4ZM572.66,530.19c0-1.47-1.19-2.66-2.66-2.66s-2.66,1.19-2.66,2.66,1.19,2.66,2.66,2.66,2.66-1.19,2.66-2.66ZM600.5,528c-1.14,1.19-2.37,2.3-3.5,3.5-.57.61-2.4,1.69-1.5,2.5.98-1.02,2.02-1.98,3-3,.66-.69,2.76-2,2-3ZM628,532l2.5,4,5.5-6.5c-3.18-4.13-4.57,2.88-8,2.5ZM657.5,528l-4.5,4.5,2.5,2.5,4.5-5.5c-.74-.67-1.32-1.86-2.5-1.5ZM705.5,528c-.65,0-.65,1,0,1s.65-1,0-1ZM786,534l2-3.5c-1.27-1.21-2.35-3.13-4.5-2.5-3.16.93-.85,6.45,2.5,6ZM795.46,527.07l-2.25,3.75,1.62.97,2.25-3.75-1.62-.97ZM866,528c.37,2.02,2.49,1.73,3.5,3l.5-.5c-1.33-1.2-2.1-2.89-4-2.5ZM933,528h-2c-.29,1.9,1.1,3.29,3,3l-1-3ZM42.5,529l-3.5,3.5,2.5,3.5,3.5-3.5-2.5-3.5ZM122.26,529.98c0-.68-.55-1.24-1.24-1.24s-1.24.55-1.24,1.24.55,1.24,1.24,1.24,1.24-.55,1.24-1.24ZM255,531c1.95,3.65,3.47,3.81,6,.5l-2.5-2.5-3.5,2ZM286,537l6-5.5c-4.18-5.08-5.03-1.61-8,2l2,3.5ZM332,536c2.7.44,2.63-2.04,4-3.5.29-.96-1.94-3.33-2.5-3.5-2.46-.75-6.37,2.98-3,5,.75.45,2.04-.89,1.5,2ZM364,531v-2l-2,1.5v.5h2ZM373,529c-1.25-.65-3.5,1.6-3,2,1.25.65,3.5-1.6,3-2ZM410,530l-2.5-1-6.5,6.5,2.5,2.5c1.37-1.66,3.82-2.76,3.5-5h3v-3ZM457.5,529c-.65,0-.65,1,0,1s.65-1,0-1ZM518,532c.29-1.9-1.1-3.29-3-3-.29,1.9,1.1,3.29,3,3ZM536,529c-.39,1.9,1.3,2.67,2.5,4l1.5-1.5c-1-1.34-2.54-1.73-4-2.5ZM590,531l-3.5-2c-1.26,1.58-3.78,2.67-3.5,5l2,.5v1l2,.5c-.35-2.29.88-2.35,2.5-3,.98-.39.45-1.22.5-2ZM643.75,528.25l-1,1,4.5,4.5,1-1-4.5-4.5ZM773,533c2.01-.53,2.24-2.12,2-4-2.01.53-2.24,2.12-2,4ZM901.5,529c-.59.18-1.72,2-2.5,2.5l-.5,4.5,5.5-5.5c-.74-.67-1.32-1.86-2.5-1.5ZM913,534l2-3.5-2.5-1.5-1.5,1.5,1,3.5h1ZM922.5,529l-1.5,1.5.5.5,1.5-1.5-.5-.5ZM950.5,529c-.55.18-2.74,2.44-2.5,3.5l2.5,2.5,2.5-3.5c.37-1.13-1.37-2.87-2.5-2.5ZM54,530l-3,1.5,1.5,2.5h2.5l-1-4ZM90,533l-3-3c-.29,1.9,1.1,3.29,3,3ZM151,530c-1.05-1.05-5.72,4.08-6.5,5-1.21,1.43-1.95,1.7-1.5,4l6-5.5,2-3.5ZM196,529.5l-3,3,3.5,3.5,3-3-3.5-3.5ZM239,529.5l-4,4,2.5,2.5,4-4-2.5-2.5ZM250,530c-1.9-.39-2.67,1.3-4,2.5l1.5,1.5h1.5l1-4ZM272,538c1.17,1.17,4.98-3.67,6-4.5l-2.5-3.5-5.5,3,2,5ZM298,531c-.27,2.34,2.26,3.43,3.5,5l2.5-2.5-2.5-3.5-3.5,1ZM320.5,529l-3,3,2.5,2.5,3-3-2.5-2.5ZM490.5,530l-1.5,1.5,2.5,2.5,1.5-1.5-2.5-2.5ZM558,533c1.9.29,3.29-1.1,3-3l-3,3ZM681,533c-2.15.34-3.08-1.82-4.5-3-.83,1.02-5.67,4.83-4.5,6,2.15-.34,3.08,1.82,4.5,3,1.2-1.33,2.89-2.1,2.5-4h1.5l.5-2ZM878.5,530l-2.5,2.5.5.5,2.5-2.5-.5-.5ZM964,530h-2.5l-1.5,1.5v2.5c.93.93,4.7-2.27,4-4ZM966,556c2.23.33,3.06-1.89,4.5-3,5.27-4.08,9.3-8.41,13.5-13.5,1.11-1.34,3.17-2.7,4-4,.18-.27-.1-1.54,1-2l-3.5-3.5-5.5,6.5c-1.79,5.43-8.4,10.71-10,16l-4,3.5ZM1001.5,530c-.65,0-.65,1,0,1s.65-1,0-1ZM65,536l2-3.5-4.5-1.5c-.77.8-1.37.73-1,2,.48,1.63,1.42,3.34,3.5,3ZM73.5,531c-.65,0-.65,1,0,1s.65-1,0-1ZM172,538c4.05.89,5.5-2.17,8-4.5l-2.5-2.5c-.78,1.04-6.77,5.84-5.5,7ZM185,535c1.64-.71,3.31-2.24,3-4-1.64.71-3.31,2.24-3,4ZM205.5,531c-.65,0-.65,1,0,1s.65-1,0-1ZM312,531h-1.5l-1.5,2h3v-2ZM343,531h-2v1h2v-1ZM385,534c-.36,3.09,3.14,2.83,4.5,5l4.5-3.5-4.5-4.5c-1.42,1.18-2.35,3.34-4.5,3ZM689.5,531c-.73.2-2.3,2.13-1,3l5,3c3.65-2-1.6-6.68-4-6ZM713,535c-1.25-2.17-3.18-4.58-6-4,.26,1.71,1.89,1.8,3,2.5.99.62,1.19,2,3,1.5ZM729,533l-4.5-2c-3.02,2.88-5.41,4.38-4.5,9l-2.5-1-.5,2,4.5-1,1.5,1c.07-3.31,4.6-4.92,6-8ZM803,539c.13.13-.09,2.38,1.5,3l1-1,2.5-.5-2.5-2.5-2.5,1c.64-4-.57-5.56-3.5-8l-2.5,3.5c1.49,1.05,3.1,3.72,4.5,4.5.47.26,1.31-.19,1.5,0ZM835,530.5l-2,2,3,3,2-2-3-3ZM848,534c-.39-4.3-2.91-3.33-5-.5l2.5,2.5.5-2h2ZM854,534l3-1.5-2-1.5-1,3ZM864,530.5l-2,2,3.5,3.5,2-2-3.5-3.5ZM890,532c-1.51.42-1.82-.69-3-1v2h3v-1ZM939,533l-3,1.5,3,1.5v-3l2,1v-3h-2v2ZM971,534c.4.5,2.65-1.75,2-3-.4-.5-2.65,1.75-2,3ZM138,532c-1.9-.29-3.29,1.1-3,3h2l1-3ZM163,538l1-3.5-2.5-2.5-2.5,2.5,4,3.5ZM226,535h1.5l1.5-1.5-1.5-1.5-1.5,1.5v1.5ZM354,537c1.82.5,7.34-3.49,6-5l-6,5ZM368,534v-2l-2,1.5v.5h2ZM379,535c.31-3.17-3.38-4.27-5-1.5v.5l5,1ZM447,535c-2.81-5.08-4.95-2.97-8,.5-.99,1.13-2.39,1.66-2,3.5,1.67-.13,3.47.43,5-.5,1.61-.98,2.59-3.92,5-3.5ZM466,536c.72-.58-4.1-3.4-5-4-.08,2.58,2.39,4.51,5,4ZM511,540c-.6-2.77,1.3-3.78,3-5.5l-2.5-2.5-5.5,5.5,5,2.5ZM531,534c-1.9-.39-2.67,1.3-4,2.5l3.5,4.5,5.5-5.5c-1.39-1.41-5.3-6.23-5-1.5ZM572,535l2,1.5,3-4.5c-1.88-.36-.3,1.6-1.5,2s-2.2,1.09-3.5,1ZM610,534l-4.5-2c-1.74,1.57-3.23,3.47-5,5s-1.67.84-3.5,3.5c-.8,1.16-2.49,1.57-2,3.5l57-1-1-4c-1.65.52-1.86-.74-2.5-1-.54-.22-1.35.19-2,0s-5.46-5.39-7-6l-.5,2c-2.8-.29-4.34,3.7-6.5,5-.29.18-1.5-.13-2,1l-6-4c-1.82,1.96-4.14,3.05-3.5,6-1.97.64-2.65-.65-3.5-1-.54-.22-1.33.17-1.5,0-.13-.13.13-2.53-1.5-3-2.31-.66-2.61,1.05-4,2-.22.15-.75-.16-1,0-1.16.73-1.55,2.52-3.5,2v-4c1.43.83,4.99-2.96,4-4ZM621,532c-1.14-1.04-6.03,3.85-5,5,2.98.84,1.38-1.61,2.5-2,1.71-.6,2.82-.79,2.5-3ZM728,541c2.72-2.16,6.69-.23,9.5-1,.52-.14,3.81-3.51,3.5-4.5l-3.5-3.5-5,4-4.5,5ZM75.26,533.98c0-.68-.55-1.24-1.24-1.24s-1.24.55-1.24,1.24.55,1.24,1.24,1.24,1.24-.55,1.24-1.24ZM84.5,533l-3,3,3,3,3-3-3-3ZM104,537c1.9.39,2.67-1.3,4-2.5l-2.5-1.5-1.5,1.5v2.5ZM211,533l-5,2.5,2.5,2.5,2.5-5ZM216,536c1.9.29,3.29-1.1,3-3l-3,3ZM427,533c-.93-.93-4.7,2.27-4,4l4-2v-2ZM522,535l-2-2v2h2ZM567,535l-5-.5,3.5,3.5,1.5-3ZM666,534l-5-1c.74,1.89-1.76,2.64-2,3.5-.32,1.17.21,3.13,0,4.5l-2.5-1-2.5,3c4.1.94,5.01-1.93,7.5-4,.16-.13.72.18,1,0,1.33-.84,2.28-3.64,3.5-5ZM783,536c-2.15.34-3.08-1.82-4.5-3l-7.5,8h7.5l4.5-5ZM787,537c2.06.2,4.2-1.94,4-4l-4,4ZM812,533c-1.9-.29-3.29,1.1-3,3,1.9.29,3.29-1.1,3-3ZM927,533l-3,1.5,1,2.5h2v-4ZM49,542c-.19-.19-1.03.26-1.5,0-3.09-1.72-1.26-1.69-6-3-.71-.2-4.92-5.63-5.5-5-.17,2.6,2.71,3.74,4,5.5.5.68,1.69,3.03,2,4l8.5,8.5c1.5.45,4.05-2.64,3.5-4.5-.48-1.63-4.22-2.6-5-4-.26-.47.19-1.31,0-1.5ZM116.26,534.98c0-.68-.55-1.24-1.24-1.24s-1.24.55-1.24,1.24.55,1.24,1.24,1.24,1.24-.55,1.24-1.24ZM240,539c2.63.62,7-2.39,3.5-5-1.57,1.34-1.72,3.18-3.5,4.5-.9.67-2.39.73-3,2-.96,2,1.95,1.6,3,1.5v-3ZM245,542c1.64-.27,4.09.39,5.5,0,.55-.15,4.8-4.5,4.5-5.5l-2.5-2.5c-1.56.56-1.38,2.89-1.5,3-.2.19-1.03-.26-1.5,0-1.28.71-3.6,3.61-4.5,5ZM288,541c3.12.39,7.26-1,9.5,1l2.5-3.5-4.5-4.5c-2.43,2.35-5.77,3.64-7.5,7ZM313,542c-.9-2.8,3.57-2.98,4-4.5l-1-3.5-9,6.5c1.49,2.22,3.74,1.42,6,1.5ZM317,542h12.5c3.21-2.52.77-4.53-1.5-6.5-.7-.61-1.29-1.87-2.5-1.5l-8.5,8ZM338.5,534l-2.5,2.5.5.5,2.5-2.5-.5-.5ZM348,535l-3-1c-.29,1.9,1.1,3.29,3,3v-2ZM416,535l-3.5-1-5.5,6c4.18.57,8.21-.27,9-5ZM463,539l-4.5-5-3.5,3.5c1.89,2.58,5.29,1.2,8,1.5ZM467,539l5.5,1,3.5-3.5-3.5-2.5-.5,4c-.82.68-5.76-3.44-5,1ZM482,542l7-5.5-2.5-2.5c-1.45.31-6.49,3.82-6.5,4.5l2,3.5ZM571,539l-4.5,2c-2.99.3-4.45-2.99-7-4-2.48,2.34-4.47,5.35-8,6l-2-2-6,5c-2.64-1.96-.55-1.93.5-3.5.16-.25-.15-.8,0-1,.68-.93,4-3.64,4-4l-5.5-3.5c-1.38.37-1.52,1.22-.5,2.5.92,1.16,2.58,2.02,3,3.5l-6.5-2c-2.11,2.63-6.12,4.38-5.5,8-3.74.16-6.82-2.81-9.5-5h-1l-6.5,6c10.13-.31,20.37.42,30.5,0,.35-.01.65-.98,1-1,4.98-.23,11.37.68,16,0,.29-.04,1.69-1.76,3.5-1v-2c1.57.81,4.98-3.08,4-4ZM712,539c-2.29.76-5.61-4.99-6.5-5l-2.5,1.5,3,4.5-6.5-2-4.5,5c3.62-.37,8.01.51,11.5,0,.37-.05.6-.91,1-1,2-.46,4.65.77,4.5-3ZM906.5,534l-3.5,3.5.5,3.5c3.06-.97,6.5-4.5,3-7ZM914,537c1.9.39,2.67-1.3,4-2.5l-.5-.5c-1.01,1.27-3.13.98-3.5,3ZM957,534c.43,1.9-1.09,2.35-2,3.5-1.26,1.59-.98,1.03.5,2.5l3.5-3.5-2-2.5ZM46,536l1.5,3,2.5-2.5-1.5-1.5-2.5,1ZM127,537v-2l-2,1.5v.5h2ZM192,535c-.94-.98-4.72,2.76-5,4h7l-1.5-2-.5-2ZM362,542l2-3.5-.5-3.5-7,6h-1c-1.47-1.96-2.57-2.26-5-2l-1.5,2.5,13,.5ZM495.76,535.46l-.43,2.59,3.49.58.43-2.59-3.49-.58ZM557,535l-5,2v1c1.21.48,5.77-2.38,5-3ZM653,539c.37-2.4-.48-4.24-3-4-.83.83,1.67,3.78,3,4ZM832,535l-6,3.5,2.5,3.5,4.5-3.5-1-3.5ZM858,538c2.73-.28,3.41,4.02,6,.5l-4.5-3.5-1.5,3ZM948,539c.37-2.63-2.15-3.02-4-4v7c2.64-.58,1.05-3.88,4-3ZM183,538v-2l-2,1.5v.5h2ZM236,541c-1.06-1.31-.9-4.55-2.5-5s-2.42,2.66-4.5,2l2.5,3h4.5ZM271,541c.34-3.12-3.13-2.81-4.5-5-.77,0-3.36,4.79-5.5,4-.25,1.65,1.35.96,2.5,1,2.5.08,5.01-.05,7.5,0ZM276,541c2.75-.34,7.51,1.44,8-2.5l-2.5-2.5c-2.05,1.38-4.42,2.57-5.5,5ZM305.5,536c-.65,0-.65,1,0,1s.65-1,0-1ZM375,537l-4.5-1c-1.59.62-1.37,2.87-1.5,3-.19.19-1.03-.26-1.5,0-.74.41-2.21,2.06-2.5,3h7c.19-.19-.26-1.03,0-1.5,1.12-2.02,3.74-.58,3-3.5ZM432,539c.32-1.08-.66-2.76-1.5-3-1.63-.46-2.42,2.66-4.5,2l6,1ZM519,537l-3-.5c-1.44.63-3.14,1.61-4,3-.1.17-.98,2.16-.5,2.5l1.5,3,5.5-5,.5-3ZM580,545c-.26-2.4,2.53-3.67,4-5.5-2.11-6.32-7.92-3.18-7,2.5l-6,2c-.23,1.75,2.28.97,3.5,1,1.83.04,3.68-.03,5.5,0ZM594,536l-4,1v1.5l2,1.5,2-4ZM819,538l-4.5-2-2.5,2.5,3.5,3.5c1.24-2.26,4.28-1.24,3.5-4ZM839,539l3.5,1,1.5-1.5-2.5-2.5-2.5,1v2ZM853,536c-2.92-.74-1.48,1.88-3.5,3-.47.26-1.31-.19-1.5,0s.26,1.03,0,1.5c-.78,1.41-3.49,2.19-3,4.5l6-5.5,2-3.5ZM886,536h-3.5l-1.5,2.5,1.5,1.5c1.53.42,4.32-3.18,3.5-4ZM60,537h-3c-.39,1.9,1.3,2.67,2.5,4l1.5-1.5-1-2.5ZM79.5,537l-1.5,2.5,3.5,1.5,1.5-1.5-3.5-2.5ZM160,546c.55-1.61-.93-2.1-1-2.5-.49-2.72.8-5.62-3.5-6.5l-9.5,9.5c1.2,1.43,2.09,2.36,3.5.5l3,2c1.97-2.32,4.55-3.39,7.5-3ZM166.5,537c-.65,0-.65,1,0,1s.65-1,0-1ZM215,537h-2l-1,3c1.9.29,3.29-1.1,3-3ZM220,540h2.5l1.5-1.5-2.5-1.5-1.5,3ZM333,543c1.71-.19,2.58-.83,4.5-1,3.56-.32,6.18,1.08,8.5-2.5l-4.5-2.5c-1.63,1.5-2.58,3.52-5,3l-3.5,3ZM388,541l-4.5-4h-1l-4.5,5c1.58.28,1.95-.82,3.5-1,2.06-.24,4.39.16,6.5,0ZM453,539l-1.5-2h-1l-1.5,1.5v.5h4ZM675,542l-6.5-5-4.5,6c2.39-.23,5.19.33,7.5,0,.32-.05,1.75-1.78,3.5-1ZM691,543c.65-2.62-1.96-2.56-2.5-3-2.03-1.67-4.19-5.3-6.5-1.5-.45.74.88,2.04-2,1.5.05.77-.48,1.64.5,2,3.61,1.33,6.62,1.07,10.5,1ZM800,542c-.33-1.06-1.63-2.36-2.5-3-.2-.15-.76.16-1,0-.69-.47-1.5-1.83-2-2-1.92-.64-2.45,2.66-3.5,3.5l2.5,1.5h6.5ZM894,537l-1,2.5.5.5,1.5-3h-1ZM922,542c2.68-.94,2.73-3.41.5-5h-.5v5ZM68,540v-2h-1v2h1ZM206,540c-.53-2.01-2.12-2.24-4-2v2h4ZM399,540l-1.5-2-2.5,1v2l4-1ZM420,540v-2l-2,1.5v.5h2ZM744,540v-2l-2,1.5v.5h2ZM871,538l-1,2.5.5.5,1.5-3h-1ZM931.5,538l-1.5,1.5,1.5,3.5,1.5-3.5-1.5-1.5ZM143,541c.5-.4-1.75-2.65-3-2-.5.4,1.75,2.65,3,2ZM484,547h20l-4.5-3-6.5,1,2-5-3.5-1c-2.11,3.01-7.17,3.88-7.5,8ZM526.5,539l-.5.5,1.5,1.5.5-.5-1.5-1.5ZM786,539h-1.5l-1.5,2h3v-2ZM851,546c1.99-.02,10.02.86,9-2.5l-5-4.5-4,7ZM919,542v-3h-.5l-1.5,1.5,2,1.5ZM974.5,539c-.65,0-.65,1,0,1s.65-1,0-1ZM54.5,540l-1.5,1.5,3.25,3.25,1.5-1.5-3.25-3.25ZM90.5,540c-.65,0-.65,1,0,1s.65-1,0-1ZM98,543c.4.5,2.65-1.75,2-3-.4-.5-2.65,1.75-2,3ZM111.5,540c-.65,0-.65,1,0,1s.65-1,0-1ZM122.26,540.98c0-.68-.55-1.24-1.24-1.24s-1.24.55-1.24,1.24.55,1.24,1.24,1.24,1.24-.55,1.24-1.24ZM129.5,540c-.65,0-.65,1,0,1s.65-1,0-1ZM512,545c-2.36-.06-4.27-2.49-6-3.5-1.18-.69-2.62-1.59-4-1.5l4,4.5v2.5h5.5l.5-2ZM841,543c-2.15.34-3.08-1.82-4.5-3l-3.5,4,7.5,1,.5-2ZM941,540h-2v1h2v-1ZM166,545l8,.5c-2.49-2.18-2.32-5.59-6.5-4.5-1.33.35-1.78,2.7-1.5,4ZM480,545c-.08-1.49,1.75-3.35-.5-4-3.34-.96-7.97,5.85-11.5,5l2-4h-5v2c-1.11-.14-2.51.23-3.5,0-.36-.08-2.66-1.93-3-2-1.32-.29-11.88-.31-13,0-.69.19-2.46,2.85-3.5,3.5-1.51.95-3.22-.29-3,1.5l4-.5,37.5.5,2.5-2h-3ZM591,544l-3.5-3h-1l-3.5,4,8-1ZM811,543v-2h-1v2h1ZM825,544l-2.5-3-3.5,2.5v.5h6ZM880,541h-2l1.5,2h.5v-2ZM947,547c.91,1.02,4.37-2.71,5-3.5,1.02-1.28.88-2.13-.5-2.5-2.11-.4-5.2,5.23-4.5,6ZM67,546l-4-4,1,4.5,3-.5ZM74,549c2.33.28,3.42-2.24,5-3.5l-2.5-3.5-4.5,3.5,2,3.5ZM110,542h-2l1.5,2h.5v-2ZM191,542h-10.5l-3.5,1.5,10.5.5,3.5-2ZM412,546h23.5c.3,0,1.89-1.65,1.5-2.5l-2.5-1.5c-.41.12-.62.92-1,1-5.42,1.18-11.57-.72-18,1-1.79.48-4.15-1.32-3.5,2ZM441.5,542c-.65,0-.65,1,0,1s.65-1,0-1ZM870,542h-2.5l-1.5,1.5,1,2.5,3-4ZM890,545v-3h-.5l-1.5,1.5v1.5h2ZM902,545l-1.5-3-2.5,1.5v2.5l4-1ZM965,542c-2.06-.2-4.2,1.94-4,4l4-4ZM972.5,542c-.65,0-.65,1,0,1s.65-1,0-1ZM203,543h-8v1h8v-1ZM211,543h-4v1h4v-1ZM220,543h-6v1h6v-1ZM739,545h27l-8.5-1c-.36-.03-.64-.97-1-1-2.61-.22-6.39-.22-9,0-.36.03-.64.97-1,1l-7.5,1ZM915,548c.12-.12,2.51.13,3-1.5l-2.5-3.5c-2.57,2.26-5.56,4.87-2,8,1.56-.56,1.38-2.88,1.5-3ZM927,543c-3,1.26-4.49,4.58-1.5,7l2.5-2.5-1-4.5ZM408,544h-18c-.23,1.75,2.28.98,3.5,1,2.27.05,4.82-.23,7,0,.36.04.62.94,1,1,1.99.3,5.73.66,6.5-2ZM772,544h-3v1h3v-1ZM872,548l5.5,1c2.48-1.76,1.97-4.69-1-5-1.56,1.27-3.83,1.81-4.5,4ZM938,548c.24-1.88,0-3.47-2-4v4h2ZM94,548c.11-.12,2.44.06,3-1.5l-2.5-1.5c-1.28,2.13-3.03,3.65-4.5,5.5-1.26,1.59-.97,1.03.5,2.5.84-1.19,2.88-2.38,3.5-3.5.26-.47-.19-1.3,0-1.5ZM107.26,545.98c0-.68-.55-1.24-1.24-1.24s-1.24.55-1.24,1.24.55,1.24,1.24,1.24,1.24-.55,1.24-1.24ZM114,549c1.64-.71,3.31-2.24,3-4-1.64.71-3.31,2.24-3,4ZM136,545h-2c-.83.83,1.67,3.78,3,4l-1-4ZM294,545v1h15v-1h-15ZM801,545h-14v1h14v-1ZM63,549l-3-3c-.29,1.9,1.1,3.29,3,3ZM126.5,546c-.65,0-.65,1,0,1s.65-1,0-1ZM864.5,546c-.65,0-.65,1,0,1s.65-1,0-1ZM969,546c-1.76-.31-3.29,1.36-4,3,1.76.31,3.29-1.36,4-3ZM203.5,547c-.65,0-.65,1,0,1s.65-1,0-1ZM895.5,547l-2.5,2.5,2,2,2.5-2.5-2-2ZM904.5,547c-.65,0-.65,1,0,1s.65-1,0-1ZM932,554l1-7c-3.04,1.14-4.77,5.35-1,7ZM694,548v1h39v-1h-39ZM886,548c-1.25-.65-3.5,1.6-3,2,1.25.65,3.5-1.6,3-2ZM954,551c.4.5,2.65-1.75,2-3-.4-.5-2.65,1.75-2,3ZM60,552c.29-1.9-1.1-3.29-3-3l3,3ZM70,549h-2c-.93.93,2.27,4.7,4,4l-2-4ZM81,554c-.11-1.86,1.54-2.83,1-5l-4,3.5,3,1.5ZM104,549h-2v1h2v-1ZM454,552c-9.1-.35-18.41.48-27.5,0-9.74-.52-21.12-2.58-31-3-16.14-.68-30.36.82-46,2-3.12.24-6.37-.17-9.5,0l6.5,1c1.56,1.86,4.6.7,7,1,18.95,2.4,39.93,2.52,60,2,8.46-.22,18.93-.52,28-1,.35-.02.65-.98,1-1,2.64-.17,5.35.05,8,0,1.22-.02,3.73.75,3.5-1ZM123,550l-3,3-2,2c2.27.05,5.06-2.76,5-5ZM920,550c-1.8.76-3.56,2.56-3,4.5l1.5,1.5c2.17-1.43,1.44-3.6,1.5-6ZM923,553v-3h-1v3h1ZM101,551h-2v1h2v-1ZM113,553v-2l-2,1.5v.5h2ZM743,551h-2v1h2v-1ZM794,551h-50c-.23,1.75,2.28.98,3.5,1,4.66.09,9.35-.2,14,0,.35.01.65.99,1,1,8.47.32,19.7.68,28,0,1.7-.14,2.94.13,3.5-2ZM941,551c-1.12-1.12-6.35,3.93-5,6,.3.36,6.15-4.85,5-6ZM59,557c-.19-.19.26-1.03,0-1.5-.54-.97-2.27-1.97-3-3l-3,1,12,10.5c.38-2.27-1.97-3.05-3-4.5-2.05-2.91-2.58-2.08-3-2.5ZM142,557l-1-2.5,1-1-3-1.5c-.48,1.21,2.38,5.77,3,5ZM460,552h-4v1h4v-1ZM908,556v-4h-.5c-1.54,1.1-1.73,2.14-1.5,4h2ZM951.5,552c-.65,0-.65,1,0,1s.65-1,0-1ZM69,557c.2-2.06-1.94-4.2-4-4l4,4ZM98,553l-3,2.5v3.5l3-6ZM873,553h-7l-4,7.5-18.5,22.5,25.5-25.5c-.41-2.36.78-1.1,1.5-1.5s2.21-2.06,2.5-3ZM891.5,553c-.65,0-.65,1,0,1s.65-1,0-1ZM127,561c.43-2.54,2.66-5.58-1-7,.53,2.16-3.45,7.54,1,7ZM888.18,554.21l-3.13,5.22,2.35,1.41,3.13-5.22-2.35-1.41ZM923,560c2.81.52,3.63-.79,4.5-3,1.21-3.08-3.28-4.69-2.5-1h-2v4ZM961,554h-2v2l2-2ZM76,557v-2h-1v2h1ZM88,555h-3v4c1.33-.22,3.83-3.17,3-4ZM108,557v-2h-1v2h1ZM950,555h-3l-1,4c.95.92,4.7-2.27,4-4ZM63.5,556l-.5.5,1.5,1.5.5-.5-1.5-1.5ZM116,559c.65-1.25-1.6-3.5-2-3-.65,1.25,1.6,3.5,2,3ZM879,556l-5,3.5c-.95,2.9-4.03,4.78-6,7-.16.19.17.81,0,1-.93,1.05-9.46,9.04-9,9.5l15-14.5,5-6.5ZM900,563c1.02,1.17,8.02-4.74,3.5-7-2.27,2.14-4.23,3.44-3.5,7ZM915,556l-3,6,3-1.5v-4.5ZM964,556c-1.25-.65-3.5,1.6-3,2,1.25.65,3.5-1.6,3-2ZM104,557l-1,4,2.24.56,1-4-2.24-.56ZM136.5,557l-.5.5,2.5,2.5.5-.5-2.5-2.5ZM935,558c-1.76-.31-3.29,1.36-4,3,1.76.31,3.29-1.36,4-3ZM72.5,559c-.65,0-.65,1,0,1s.65-1,0-1ZM91.5,559c-2.27.76-3.89,5.29-1,7,.64-1.01,3.26-2.73,3.5-3.5.44-1.41-.82-4.06-2.5-3.5ZM123,565l-1.5-6-2.5,3.5,4,2.5ZM150,561c-.19-.19-1.03.26-1.5,0-.7-.39-1.35-1.7-2-2-1.14-.54-2.04.36-1.5,1.5.28.6,2.72,2.81,3.5,3.5,1.13.99,1.66,2.39,3.5,2,.57-1.97-1.38-2.38-2-3.5-.26-.48.19-1.31,0-1.5ZM79.5,560l-.5.5,2.5,2.5.5-.5-2.5-2.5ZM113,560h-2c.31,1.18,1.42,1.49,1,3h1v-3ZM885,560h-2c.11,1.86-1.54,2.83-1,5,2.18-.97,3.47-2.63,3-5ZM945,560c-2.03-.05-3.77-.45-5,1.5-.16.26.15.79,0,1-1.27,1.82-3.78,2.42-3,5.5l2-2c2.09,1.06,6.4-5.66,6-6ZM920,561l-3.5,3,1,4,2.5-7ZM952,564l3-1.5-.5-.5-2.5,1v1ZM76.5,563l-2,2,3.5,3.5,2-2-3.5-3.5ZM100.5,563c-.65,0-.65,1,0,1s.65-1,0-1ZM108,570l1-7c-2.54,1.18-4.67,5.79-1,7ZM137,565l-2-2v2h2ZM895,570l2-7c-2.58,1.48-4.64,3.42-4,6.5l2,.5ZM908,567v-4h-.5l-2.5,2.5,1.5,1.5h1.5ZM928.25,562.25l-5.75,5.75,1,1,5.75-5.75-1-1ZM946,575c3.44-2.63,6.51-5.88,9.5-9,.66-.69,2.76-2,2-3-3.47,2.21-6.77,5.41-9.5,8.5-.99,1.12-2.39,1.66-2,3.5ZM132,570v-6h-1v6h1ZM98,565c-3.81-.75-3.51,2.15-5.5,4l.5,3,5-2v-5ZM874,571c1.91.34,3.48-.33,4.5-2,.58-.95,1.1-3.36,0-4l-16.5,16.5,2,1-2,3.5,2-3h2c.59-4.74,8.51-6.86,8-12ZM117,568v-2h-1v2h1ZM128,571v-5h-.5c-2.23,1.59-2.18,4.06.5,5ZM140,582l-1-3.5,1-1-1-1,2-2-1-3,1-3-2.5-2.5-3.5,4.5c.34,2.67,1.5,4.94,1,8l4,3.5ZM890,649c22.7-19.17,43.82-42.81,64-64.5l14.5-18.5c-7.92,7.09-15.01,16.13-23,23-1.66,1.42-3.73,3.29-5,4-9.99,5.57-23.26,27.77-34.5,33v2h-2c-3.3,5.17-8.35,10.82-14,14v2h-2v1.5l-28,28,3-1c2.78-2.42,5.66-5.2,8.5-7.5,5.74-4.65,12.42-9.95,18.5-14v-2ZM167,579c-.2-.19-1.03.26-1.5,0-2.53-1.41-7.23-7.58-9-10-.82-1.12-1.95-2.3-3.5-2,1.28,5.05,7.7,7.38,10,11.5,1.3,2.34,2.88,2,4,4,.26.47-.19,1.31,0,1.5l2-.5c-1.33-.55-1.82-4.33-2-4.5ZM912,572l3-2.5c-.98-.71-1.2-1.29-1-2.5l-2,1.5v3.5ZM904,568c-.93.18-2.59-.58-3,.5-.51,1.33-.66,2.09-2,3l1,3.5,4.5-4-.5-3ZM114,569c-1.17-1.36-1.92-.12-2,1.5-.11,2.11-.52,4.11,1.5,5.5l1.5-3.5-1-3.5ZM83,570h-2v1.5l1.5,1.5h.5v-3ZM122,572v-2l-2,1.5v.5h2ZM891,570c-1.5-.32-2.06.44-3,1.5v4.5c2.74-1.18,3.42-3.16,3-6ZM934,570h-2v3l2-1.5v-1.5ZM920,573v-2l-2,1.5v.5h2ZM921,594c6.67-6.36,13.89-12.59,20-19.5.99-1.12,2.39-1.66,2-3.5-3.58,2.51-6.32,6.03-9.5,9-2.91,2.72-4.78,4.32-7.5,7.5-1.69,1.98-4.9,3.69-5,6.5ZM103.5,572c-.65,0-.65,1,0,1s.65-1,0-1ZM146,587c-.59-4.21,1.49-7.33,1-11.5l-3-3.5c.54,1.96-.83,2.92-1,4.5-.19,1.75-.36,7.66,0,9,.22.82,1.93,1.83,3,1.5ZM930,573c-1.69-.28-3.1,1.31-4,2.5-.17.22.16.8,0,1-1.13,1.43-3.32,2.28-3,4.5l6-3,1-5ZM122,583c.16-2.01-.68-4.28,1-5.5l-4-3.5c.39,3.35-1.67,9.01,3,9ZM127,574h-2v1.5l1.5,1.5h.5v-3ZM894,581c3.26-1.36,3.27-3.8,3-7-3.26,1.36-3.27,3.8-3,7ZM902,584c.44-4.19,6.37-4.96,5-10l-7,7.5,2,2.5ZM916.75,573.75l-5.5,5.5,1,1,5.5-5.5-1-1ZM91,580c-1.86-2.3-2.28-5.77-6-5-.35.3,4.8,6.12,6,5ZM99,577v-2h-1v2h1ZM109,575c-4.73.79-5.57,4.82-5,9,3.19-.06,4.56-3.57,6-5.5l-1-3.5ZM882,582c3.26-1.36,3.27-3.8,3-7-3.26,1.36-3.27,3.8-3,7ZM133,583l-1-4h-1v2.5l2,1.5ZM71.5,581l12.5,16.5c14.7,17.12,31.26,32.49,47.5,47.5,4.99,4.61,9.88,10.86,15,15,.19.16.78-.17,1,0,1.07.83,1.94,2.11,3,3,.76-1-1.34-2.31-2-3-4.72-4.94-9.78-9.56-14.5-14.5-7.32-7.66-15.35-16.04-23-24s-18.15-21.6-26.5-27.5c-4.37-3.08-8.6-9.55-13-13ZM114,593l1-7.5,1-1-3-3.5v8.5l1,3.5ZM891,581c-3.1-.21-3.27,2.25-3,5,2.18-.97,3.47-2.63,3-5ZM911,592c1.84.39,2.37-1.01,3.5-2,1.85-1.63,4.68-3.45,6-5,1.21-1.43,1.95-1.7,1.5-4-2.78,2.61-7.6,4.11-8,8h-1.5l-1.5,3ZM95,585c-.71-1.64-2.24-3.31-4-3,.71,1.64,2.24,3.31,4,3ZM127,582c-2.85-.61-2.07,1.36-2,3.5.07,1.94-.45,3.2,1.5,4.5l.5-8ZM157,598c-.6-3.46.83-9.49,0-12.5-.18-.64-4.18-4.4-5-3.5v11.5l5,4.5ZM879,582l-3,2.5-1,4.5,3-2.5,1-4.5ZM860,588l.5-5c-9.25,8.57-17.68,18.58-27,27-.17.16-.8-.17-1,0-2.48,2.11-5.29,4.38-4.5,8,1.84.39,2.37-1.01,3.5-2,3.18-2.79,5.06-5.93,8-8,1.16-.82,10.3-9.78,10.5-10.5.25-.92-.16-2.41,0-3.5l2.5,1c1.81-2.32,5.48-4.1,5.5-7h2ZM894,589c2.74-1.18,3.42-3.16,3-6l-2,2.5-1,3.5ZM88,584l-2,.5,30.5,30.5c.76-1-1.34-2.31-2-3-1.78-1.86-6.55-5.8-7.5-7.5-2.18-3.91-11.27-10.17-15-16-1.19-1.86-4.56-1.55-4-4.5ZM139,590c.42-2.84-.26-4.82-3-6-.53,1.65.8,1.93,1,2.5.38,1.1-.41,3.06,2,3.5ZM905.5,584l-4.5,4.5.5.5,4.5-4.5-.5-.5ZM102,588c.65-1.25-1.6-3.5-2-3-.65,1.25,1.6,3.5,2,3ZM110,585c-1.9-.29-3.29,1.1-3,3l3,1v-4ZM162.5,585l-.5.5,1.5,1.5.5-.5-1.5-1.5ZM174,589c-.19-.19.26-1.02,0-1.5-.38-.69-3.06-3.63-4-2,1.27,2.18,2.6,3.83,4.5,5.5,1.13.99,1.66,2.39,3.5,2,.81-.8-1.66-3.54-2.5-4-.47-.26-1.31.19-1.5,0ZM133,596v-7.5l-3-2.5v7.5l3,2.5ZM883,593l2-7c-.8.14-2.89,2.09-3,2.5-.16.57-.66,4.84,1,4.5ZM935.5,587c-.65,0-.65,1,0,1s.65-1,0-1ZM123,602c-1.86-3.13-.72-7.02-1-10.5-.14-1.7.13-2.94-2-3.5.35,3.64-.49,7.98,0,11.5.25,1.82,1.13,2.75,3,2.5ZM864,599c1.84.39,2.37-1.01,3.5-2,3.04-2.67,5.37-4.55,4.5-9-2.26,1.74-5.29,4.28-7,6.5-1.3,1.69-1.13,2.49-1,4.5ZM888,597l3-2.5v-5.5l-2.5,3-.5,5ZM904.75,588.75l-5.5,5.5,1,1,5.5-5.5-1-1ZM932.5,589l-3.5,3.5.5.5,3.5-3.5-.5-.5ZM145,595c.27-2.75.1-5.21-3-5-.47,2.37.82,4.03,3,5ZM167,606c-1.2-1.85-1.32-4.37-1-6.5.06-.38,1.66-1.62,1-4-.17-.6-5.12-5.46-6-4.5v10.5c1.02.8,4.78,5.65,6,4.5ZM110,598c.85-1.04-1.5-6.93-4-6,1.19,2.35,1.08,4.99,4,6ZM139,602c-.47-2.83,1.51-7.65-2-9,.47,2.83-1.51,7.65,2,9ZM199,616l-6-8.5-14-14.5c-.45,2.3.29,2.57,1.5,4,.92,1.08,4.08,4.49,5,5,.47.26,1.31-.19,1.5,0s-.26,1.03,0,1.5c1.32,2.36,6.84,6.37,9,9,.16.19-.17.79,0,1,.41.52,2.66,2.87,3,2.5ZM874,600l3-2.5,1-4.5c-2.75,1.52-4.69,3.61-4,7ZM117,596v-2h-1v2h1ZM128,609c.54-1.96-.83-2.92-1-4.5-.35-3.25,1.5-8.9-2-10.5v11.5l3,3.5ZM920,600c1.34,1.19,5.82-4.64,7-5.5-1.31-.62-2.56,1.76-3.5,2.5-.21.16-.8-.16-1,0-.52.41-2.88,2.67-2.5,3ZM149,599v-4h-1c.2,1.21-.02,1.79-1,2.5l2,1.5ZM881,603c3.4-1.79,4.63-4.15,4-8l-3,3.5-1,4.5ZM896,597h-2v3h1c-.42-1.51.69-1.82,1-3ZM899,605c2.43-1.9,6.47-4.43,6-8-2.43,1.9-6.47,4.43-6,8ZM144,607c-.47-2.83,1.51-7.65-2-9,.47,2.83-1.51,7.65,2,9ZM156,607c.47-4.25,0-6.96-4-9l.5,5,3.5,4ZM198.5,598c-.76,1,1.34,2.31,2,3,3.42,3.57,7.1,6.91,10.5,10.5.17.18-.17.82,0,1,3.71,3.94,7.75,7.59,11.5,11.5l-1.5-3.5-22.5-22.5ZM134,615v-12.5l-4-3.5,1,4.5v9l3,2.5ZM862,599h-2v5h1c-.54-2.17,1.11-3.14,1-5ZM117,607c.04-3.66,1.03-7.61-4-7-1.06,1.09,2.04,6.82,4,7ZM176,614c-1.87-3.11-.7-7.01-1-10.5l-4-3.5c.51,2.95-.71,7.94,0,10.5.17.63,4.1,4.36,5,3.5ZM865,609c2.91-2.22,6.88-4.78,6-9-2.91,2.22-6.88,4.78-6,9ZM888,608l3-7-3.5,4,.5,3ZM875,611c-.54-2.07,1.71-2.7,2.5-4,.93-1.53.37-3.33.5-5-3.17,1.79-5.42,4.95-5,8.5l2,.5ZM917.5,602l-3.5,3.5.5.5,3.5-3.5-.5-.5ZM149,612c-.03-1.82.04-3.67,0-5.5-.03-1.22.75-3.73-1-3.5l-.5,4c1.32,1.32-2.93,5.53,1.5,5ZM857,603l-5,4.5-1,4.5c1.82.38,2.39-.98,3.5-2,2.59-2.37,2.9-3.29,2.5-7ZM121.54,606.19l-1.54.31,1.13,5.67,1.54-.31-1.13-5.67ZM139,607l-2,2.5c-.5,2.1.94,2.69,1,3,.39,2.21-.28,5.16,0,7.5,1.75.23.98-2.28,1-3.5.06-3.16-.05-6.35,0-9.5ZM166,616c.56-4.13-.21-8.17-5-9l.5,5,4.5,4ZM182,620v-10.5l-3-2.5v10.5l3,2.5ZM156,620v-8.5l-4-3.5v8.5l4,3.5ZM197.5,608c-.76,1,1.34,2.31,2,3,1.63,1.7,3.36,3.31,5,5,.52-1.04-.88-2.73-1.5-3.5-1.67-2.07-3.82-2.59-5.5-4.5ZM883,613l1-5c-1.61.08-3.49,4.51-3,5h2ZM894,611v-3h-1v3h1ZM846,618l2-3.5,1-4.5-4,3.5,1,4.5ZM861,615c-.54-2.17,1.11-3.14,1-5-2.18.97-3.47,2.63-3,5h2ZM865,619c3.46-2.21,5.88-4.58,5-9-3.46,2.21-5.88,4.58-5,9ZM144,625c-.2-3.44.28-7.07,0-10.5-.14-1.7.13-2.94-2-3.5v11.5l2,2.5ZM127,612c-2.98-.59-1.92,1.36-2,3.5l3,3.5-1-7ZM886,618c1.71-.26,1.8-1.89,2.5-3,.62-.99,2-1.19,1.5-3-2.17,1.25-4.58,3.18-4,6ZM190,627c-.51-2.95.71-7.94,0-10.5-.18-.64-4.18-4.4-5-3.5v10.5l5,3.5ZM873,622l4-3.5,1-4.5c-2.82,1.88-5.83,4.16-5,8ZM909,614l-24,22.5c1.31.62,2.55-1.77,3.5-2.5.22-.17.81.16,1,0,4.78-3.87,9.33-9.7,14-14,1.79-1.65,5.61-2.73,5.5-6ZM852,624c.38-3.83,5.33-4.37,4-9-1.08.53-4.83,3.88-5,4.5-.16.57-.66,4.84,1,4.5ZM149,630c-.2-3.44.28-7.07,0-10.5-.14-1.7.13-2.94-2-3.5-.62,4.2,1.52,7.35,1,11.5-.1.81-2.03,1.59,1,2.5ZM176,626c-2.2-3.72.96-9.4-5-10,.16,2.01-.68,4.28,1,5.5l-1,1,5,3.5ZM843,617c-3.99.24-4.4,3.73-4,7,3.99-.24,4.4-3.73,4-7ZM136,627c.88-4.42-1.54-6.79-5-9-.52,3.91,1.74,7.17,5,9ZM166,630c-1.07-1.64-1.35-3.61-1-5.5.07-.37.88-.59,1-1,.75-2.47-4.03-6.42-5-5.5,1.71,2.54.81,5.64,1,8.5l4,3.5ZM204,619l-4-1,3.5,4h.5v-3ZM195,632l1-10.5-3-2.5c.87,3.29,2.11,7.83,0,10.5l2,2.5ZM859,625c2.02-.37,1.73-2.49,3-3.5v-2.5c-2.74,1.18-3.42,3.16-3,6ZM882.5,619c-.65,0-.65,1,0,1s.65-1,0-1ZM818,627l2.5,1,2.5-1.5v-6.5c-1.06.33-2.35,1.63-3,2.5-.15.2.16.76,0,1-.79,1.16-2.49,1.57-2,3.5ZM157,639c.78-1.75-.95-3.18-1-3.5-.44-3.05.31-6.83,0-10l-4-3.5v12.5l5,4.5ZM866,628l3-2.5.5-3.5c-1.71,1.87-4.14,3-3.5,6ZM182,633v-7.5l-3-2.5v7.5l3,2.5ZM815,623h-2c.2,1.21-.02,1.79-1,2.5l.5.5,2.5-3ZM836,623l-2,2c-3.8.45-5.76,4.07-5,8,1.85.39,2.37-1.01,3.5-2,2.87-2.51,4.17-3.84,3.5-8ZM872,632c2.91-2.22,6.88-4.78,6-9-2.91,2.22-6.88,4.78-6,9ZM848,624h-2v4h1l1-4ZM854,631c.13-2.63,2.98-3.53,2-7l-6,6.5v2.5l2-2h2ZM202,638c-.81-4,2.35-12.72-3-13v11.5l3,1.5ZM222,641c.45-2.3-.29-2.57-1.5-4-2.39-2.82-6.2-6.53-9-9-1.12-.99-1.66-2.39-3.5-2,.94,2.24,3.68,3.63,5,5.5,1.48,2.1,3.29,3.83,5,6,.96,1.22,2.59,2.81,4,3.5ZM216.5,626l-.5.5,3.5,3.5.5-.5-3.5-3.5ZM141,627l-2,1.5,3,5.5-1-7ZM176,641c-.28-2.34.39-5.29,0-7.5-.07-.37-.87-.59-1-1-.19-.59.18-1.37,0-2-.19-.69-3.29-3.31-4-2.5l1,9.5,4,3.5ZM190,640c-1.71-2.54-.81-5.64-1-8.5l-4-3.5c-.15,4.48-.77,11.03,5,12ZM843,633c.08-2.1.49-4.3-2-5l-2,2v5l4-2ZM812.5,629l-4.5,4.5.5.5,4.5-4.5-.5-.5ZM859,636l3-6-1.5,2h-1l-.5,4ZM166,648c-.87-3.29-2.11-7.83,0-10.5v-1l-4-4.5c.16,1.78-.23,3.78,0,5.5.05.37.96.64,1,1,.24,2.23-.17,4.72,0,7l3,2.5ZM206,642c-.03-2.16.05-4.33,0-6.5-.03-1.22.75-3.73-1-3.5-.21,2.41.3,5.15,0,7.5-.1.81-2.03,1.59,1,2.5ZM816.5,632c-.65,0-.65,1,0,1s.65-1,0-1ZM824,641c3.51-1.35,1.53-6.17,2-9l-2,3.5v5.5ZM868,636l1-4c-2.02.37-1.73,2.49-3,3.5l2,.5ZM210,633h-2c2.01,4.02.6,9.09,1,13.5l3,2.5c.16-2.11-.24-4.44,0-6.5.04-.37.95-.63,1-1,.23-1.72-.16-3.72,0-5.5-1.9.29-3.29-1.1-3-3ZM806,644l5-4.5,1-5.5c-2.4.9-3.36,4.35-6,4v6ZM847,637v-3h-1v3h1ZM873,640v-1.5l3.5-4.5-5.5,5.5,2,.5ZM806.5,635c-.65,0-.65,1,0,1s.65-1,0-1ZM829,645c1.58-1.12,4.57-3.48,5.5-5s.37-3.33.5-5l-5,4.5-1,5.5ZM145.5,636c-.65,0-.65,1,0,1s.65-1,0-1ZM149,639v-3h-1v3h1ZM183,646c-2.54-3.1,1.41-9.76-4-10,2.54,3.1-1.41,9.76,4,10ZM194,636h-1v8h1v-8ZM821,640v-4h-1v4h1ZM838,646c3.46-2.21,5.88-4.58,5-9l-4,3.5-1,5.5ZM850,644c.3.33,6.43-4.74,5-7l-3,3.5-2,3.5ZM863,638l-4,3.5-1,4.5,3.5-4,1.5-4ZM157,650l-1-7.5-4-3.5-1,4.5,6,6.5ZM787,651c2.78-2.59,5.33-5.48,8-8.5.99-1.12,2.39-1.66,2-3.5-2.48,2.06-6.14,4.97-8,7.5-.15.2.16.76,0,1-.8,1.16-2.49,1.57-2,3.5ZM815,647c2.62-1.11,3.27-4.5,3-7-3.26,1.36-3.27,3.8-3,7ZM201,651c-.57-3.19,1.97-9.89-3-10l1,6.5,2,3.5ZM178,661c-.16-1.77.23-3.78,0-5.5-.05-.37-.97-.64-1-1-.25-2.57.17-5.39,0-8l-5-4.5v11.5l6,7.5ZM187,642l-2,.5c-.86,1.73.95,3.64,1,4,.48,3.21-1.11,6.98,4,7.5.28-1.58-.82-1.95-1-3.5s.34-3.74,0-5c-.22-.82-2.69-1.57-2-3.5ZM220,657c.37-3.27-.52-7.39,0-10.5.06-.38,1-.67,1-1l-4-3.5v12.5l3,2.5ZM227,642l-2,.5,2,4c-1.65,2.72-.23,2.96,0,4,.48,2.15-.05,6.41,0,9,.02,1.22-.75,3.73,1,3.5.41-2.43-.58-6.39,0-8.5.15-.55,1.85-1.45,2-2,.37-1.35-.69-3.08,1-4l-1.5-2.5-1.5,2v-3.5l-1-2.5ZM799,651c1.07.32,2.78-.67,3-1.5.59-2.2-.95-3.56-1-5.5-4.01,1.5.61,4.28-2,7ZM240,650c.32-2.24-2.13-3.34-3.5-5l-.5.5c2,1.22,1.81,3.87,4,4.5ZM822,652c3.99-.24,4.4-3.73,4-7-2.86,1.12-2.62,4.76-4,7ZM830,654c3.46-2.21,5.88-4.58,5-9-3.46,2.21-5.88,4.58-5,9ZM863.75,644.75l-7.5,7.5,1,1,7.5-7.5-1-1ZM807,655l4-2.5v-6.5c-1.66.48-2.02,2.52-4,2v7ZM847,646h-2v3l2-1.5v-1.5ZM206,647c-3.94-.4-1.15,1.75-1,2.5.49,2.45-1.38,6.39,2,7.5.53-3.62-1.54-6.44-1-10ZM855,647c-1.18-1.11-6.33,3.94-5,6,.62.74,5.54-5.5,5-6ZM792,653.5c1.14,5.11-.84,13.91,0,19.5,1.89.2.76-2.23,1-3.5.07-.39.95-.63,1-1,.57-4.56.51-9.73,1-14,.24-2.06-.16-4.39,0-6.5l-4,4.5c.11.4.91.62,1,1ZM194,650h-1v9h1v-9ZM235,650v21c1.75.23.98-2.28,1-3.5.04-2.21-.69-9.25,1.5-9.5.71,1.55,2.25.38,2.5-.5.54-1.94-.65-2.24-1-3-.14-.31.13-.78,0-1-.63-1.05-2.79-2.88-4-3.5ZM818.5,650l-4.5,4.5.5.5,4.5-4.5-.5-.5ZM848,674l1.5-3,1,1c4.8-4.24,8.74-9.88,12.5-14.5,1.89-2.32,4.97-3.96,5-7.5-5.68,5.72-13,11.21-18,17.5-.92,1.16-2.88,4.01-3,5.5h-2c.92,1.83-4.32,6.68-4,7l5-4.5v-1.5h2ZM841,654l1-2.5-.5-.5-2.5,3h2ZM166,656l-1-4h-1l1,4h1ZM183,652l-2,.5c2.04,2.48.59,6.53,1,9.5,1.75.23.97-2.28,1-3.5.05-2.17-.03-4.34,0-6.5ZM211,661c.15-1.78-.22-3.76,0-5.5.1-.81,2.03-1.59-1-2.5l1,8ZM159.5,655l-.5.5,2.5,2.5.5-.5-2.5-2.5ZM201,664c-.44-3.05,1.76-8.96-3-9,2.31,2.74-.83,7.5,3,9ZM249,669c.44-4.32-.52-7.98-2-11.5-.66-1.58-.68-2.87-3-2.5l3,5.5c-.82,1.9.93,3.6,1,4,.25,1.35-.96,4.58,1,4.5ZM789,655l-3,2.5c.67,1.67-.87,2.54-1,3-.29,1.03,1.75,2.68,1,4.5,1.89.2.76-2.23,1-3.5.07-.38.92-.61,1-1,.36-1.81-.6-3.64,1-5.5ZM802,661v-6h-1v6h1ZM824,663l2-8-4,4.5c1.77,1.31.46,1.07,0,2-.74,1.51.78,1.83,2,1.5ZM846,659l1-4c-1.33.22-3.83,3.17-3,4h2ZM189,670l1-4.5c-1.84-1.56-.73-4.59-1-7l-3-2.5c-.54,1.96.83,2.92,1,4.5.33,3.01-1.42,8.1,2,9.5ZM819,656c-3.38.36-5.72,3.72-5,7,1.81-.31,5.92-6.01,5-7ZM832.5,656c-.65,0-.65,1,0,1s.65-1,0-1ZM171,662c.54-2.17-1.11-3.14-1-5h-1v3.5l2,1.5ZM215,660v-3h-1v3h1ZM808,669l3-1.5v-10.5l-3,3.5v8.5ZM798,661v-3h-1v3h1ZM219,659c-3.94-.4-1.15,1.75-1,2.5.42,2.13-1.49,6.3,2,5.5l-1-8ZM206,660c-3.94-.4-1.15,1.75-1,2.5.34,1.73-.24,4.13,0,6l3,2.5-2-11ZM784,665v-5h-1v5h1ZM837.5,660c-.65,0-.65,1,0,1s.65-1,0-1ZM174,661c-.89,4.05,2.17,5.5,4.5,8l-.5-4.5-4-3.5ZM215,664v-3h-1v3h1ZM846,661h-2v1h2v-1ZM798,669l.5-4-1.5-3,1,7ZM841.5,662c-.65,0-.65,1,0,1s.65-1,0-1ZM814,674l5-4.5v-6.5c-2.76,1.02-2.86,3.91-5,5.5v5.5ZM834.25,662.25l-4.75,4.75,1,1,4.75-4.75-1-1ZM169.5,664l-.5.5,3.5,4.5.5-.5c-1.16-1.51-1.72-3.23-3.5-4.5ZM225,673l-.5-5-1.5-4c.47,2.83-1.51,7.65,2,9ZM839.5,664l-2.5,2.5.5.5,2.5-2.5-.5-.5ZM846,666v-2h-1v2h1ZM780,681c.17-2.1-.25-4.45,0-6.5.1-.78.71-3.39,1-5s1.48-2.6,1-4.5l-2,2.5c0,2.46-1.67,5.94-2,8-.18,1.11-.06,2.78,0,4,.08,1.63.85,2.87,2,1.5ZM243,683.5v-17.5l-1,6.5c-1.92,2.09-.71,6-1,9-.03.36-.95.63-1,1-.23,1.72.16,3.73,0,5.5l3-4.5ZM215,667c-1.17-1.35-1.92-.12-2,1.5-.15,3.15-1.1,8.75,3,8.5-.17-2.11.24-4.44,0-6.5-.18-1.55-1.28-1.92-1-3.5ZM803,675c3.73-1.49,1.49-5.44,1-8l-1,8ZM201,680c-.16-2.79.23-5.71,0-8.5-.14-1.7.13-2.94-2-3.5.16,2.79-.23,5.71,0,8.5.14,1.7-.13,2.94,2,3.5ZM839,673c-.37-2.07,1.72-3,3-4.5l-.5-.5c-1.37,1.66-3.82,2.76-3.5,5h1ZM184,669l-2,.5c1.76,1.25.72,3.31,1,5,.06.38.95.63,1,1,.25,1.87-.17,4.06,0,6,.65,1.73,4.79,2.29,5,2.5.25.25,1.83,4.75,4,5.5l-1,2.5,5,3v-7h-2v-2l-3,1-.5-6,.5-4-2,4-4-2.5-2-9.5ZM827.5,669c-.65,0-.65,1,0,1s.65-1,0-1ZM835,669c-2.06-.2-4.2,1.94-4,4l4-4ZM179,675c.2-2.06-1.94-4.2-4-4l4,4ZM800,671c-5.46.61-3.72,5.57-4,9.5-.14,1.96-.84,2.76-1,4.5l4-4.5c.01-3.28,1.61-5.93,1-9.5ZM233,679v-7h-1v7h1ZM811,672l-3,2.5c.16,2.36-.84,4.89,1.5,6.5l1.5-3.5v-5.5ZM220,673h-1v8h1v-8ZM207,674c-1.17-1.35-1.92-.12-2,1.5-.07,1.46-.23,3.7,0,5,.05.29,1.7,1.43,1,3l2,2.5-1-12ZM834.21,673.82l-2.87,4.78,1.62.97,2.87-4.78-1.62-.97ZM829,675h-2v2l2-2ZM175.5,676l-.5.5,4.5,4.5.5-.5-4.5-4.5ZM224,686c3.02-.95,1.82-4.15,2-6.5l-3-3.5,1,10ZM777,678v-2h-1v2h1ZM813,688l8-8.5-1.5-3.5c-.97,1.54-6.2,5.42-6.5,6.5-.39,1.41.27,3.86,0,5.5ZM803,687c3.51-1.35,1.53-6.17,2-9-3.51,1.35-1.53,6.17-2,9ZM216,681l-3-1,1,12,1-5.5c1.68-1.22.84-3.49,1-5.5ZM195.5,681c-.65,0-.65,1,0,1s.65-1,0-1ZM829,681h-2v5l2-1.5v-3.5ZM837,684c-2.56-.18-4.01,2.93-6,4.5l3.5-1.5,4-4-1.5-2v3ZM785,682l-5,2.5,4,7.5c1.75.23.98-2.28,1-3.5.04-2.17-.03-4.34,0-6.5ZM794,695l5-2.5,1-9.5c-1.07.52-4.83,3.89-5,4.5-.59,2.16.93,5.27-1,7.5ZM201,690c.07-1.75-.54-3.47,1-4.5l-2-1.5v6h1ZM791,696c-1.62-2.58-.94-5.61-1-8.5-.02-1.22.75-3.73-1-3.5.11,4.13.46,7.54-2,11l4,1ZM233,685c-1.17-1.35-1.92-.12-2,1.5-.09,1.83.06,3.68,0,5.5l2-7ZM810,690v-5h-1c.11,1.86-1.54,2.83-1,5h2ZM823,686c-1.78-.47-1.99.8-3,1.5-1.62,1.12-4.23,3.79-5.5,4.5-.47.26-1.31-.19-1.5,0-.17.17.22.96,0,1.5-.18.43-.94.65-1,1-.25,1.34.16,3.07,0,4.5,1.71.41,1.98-.66,3-1.5,2.8-2.33,5.23-5.57,8-8v-3.5ZM829,695c2.5.15,3.8-2.61,5.5-4,.21-.17.81.16,1,0,1.6-1.36,2.93-3.09,4.5-4.5l-6.5,3.5-4.5,5ZM219,701v-14l-1,5.5-4,8.5h5ZM223.5,691l-1.5,1.5.5.5,1.5-1.5-.5-.5ZM828.5,691c-.65,0-.65,1,0,1s.65-1,0-1ZM208,698c-2.13.33-4-.3-4-2.5l-2-3.5c.18,2.65-.87,5.4,1.5,7l8.5,2-2-9-2,6ZM805,698l1-3.5-2-2.5-1,4.5,2,1.5ZM234.5,693l-1.5,1.5.5.5,1.5-1.5-.5-.5ZM228,694c-2.53-.43-1.71.37-2.5,2-.32.65-1.62,2.89-1.5,3l4.5-2-.5-3ZM800,699v-3h-.5l-1.5,1.5,2,1.5ZM797,698c-1.05-.09-3.95-.51-3,1.5.72,1.52,4.5,2.45,6,3.5.74-2.92-1.88-1.48-3-3.5-.26-.47.19-1.3,0-1.5ZM823,701l1-2.5-.5-.5-1.5,3h1ZM803.5,702c-.65,0-.65,1,0,1s.65-1,0-1ZM801.5,708c-.65,0-.65,1,0,1s.65-1,0-1Z"/>
  <polygon points="768 664 766 664 766 663.5 768 662 768 664"/>
  <path d="M982,539c-.65-1.25,1.6-3.5,2-3,.65,1.25-1.6,3.5-2,3Z"/>
</svg>