<?xml version="1.0" encoding="UTF-8"?>
<svg id="Capa_1" data-name="Capa 1" xmlns="http://www.w3.org/2000/svg" viewBox="0 0 694 694" fill="currentColor">
  <path d="M387.52,288.6l-13.84.65-1.67.11.59-2.05,9.38-1.14,16.11.73,23.92,2.47,25.97,2.17,25.1-1.5,14.75-.25,24.2-3.16c15.46-1.17,30.44-1.55,45.98-1.07l26.96,1.1,23.64-1.76-.16,2.37-14.8,1.29,10.33,1.28,11.94,1.73,5.66-.5.49-6.9,2.99,6.25,8.16.84,1.95,1.16-1.89,1.15-5.56.21,1.35,10.3,2.01,8.97c2.55,10.1,3.73,20.03,4.47,30.19.5,15.26.14,30.11-1.52,45.67-2.26,14.55-4.99,28.12-9.25,42.06l-4.75,19.9-4.76,15.16-7.08,16.27-6.25,11.7c-1.34,3.7-2.98,7.12-4.9,10.21-4.71,5.73-8.37,11.29-12.43,17.79l-.4,3.76-3.81,5.55-7.74,12.65-.26,1.89c12.53-15.6,22.42-31.53,31.63-48.88l12.85-27.29c5.26-13.69,9.41-27.24,13.26-41.62l4.13-27.01.66-12.48,1.89,1.09-.48,13.4c-2.41,21.81-7.69,42.29-15.55,62.91-5.11,12.74-10.38,24.15-16.81,36.16-9.09,17.1-19.42,32.51-31.27,47.42l-16.75,20.22-1.42-.55.08-1.5,11.05-16.9,2.05-3.81-4.99,5.84-20.39,22.44-9.17,7.46-.8-1.53,20.53-20.26,10.09-11.86,2.76-4.27-9.85,10.27-19.73,20.09-19.9,17.83c-12.08,10.12-24.68,18.97-38.54,26.71-11.54,5.9-23,10.22-35.68,13.29l-10.16.43-1.84-3.03,2.1-3.9c.91.28-.04-.01-.74-.23-11.67,4.63-22.92,8.43-35.49,11.38-28.48,7.02-57.07,7.65-85.88,2.23-9.92-2.11-18.77-4.57-28.18-7.92l-31.24-12.76-15.96-8.06-26.71-11.32-5.12,1.12c-5.23-1.71-9.97-3.57-15.06-5.92l-16.18-11.54-25.51-24.59-20.09-22.71c-8.96-10.83-16.54-22.38-23.19-34.82l-5.45-10.51-1.21,2.79-3.08-.66-12.24-19.87c-5.01-11.31-9.15-22.2-12.73-34.09-3.52-15.08-5.96-29.63-7.16-44.99l-.89-19.07c-1.65-10.1-2.4-19.76-2.91-29.96l1.4-29.05,5.27-27.09c3.31-14.72,7.01-28.74,12-42.98l10.01-24.05,11.15-19.99c9.38-14.05,19.45-26.55,31.96-37.84l12.14-15.78,1.42-2.15c-9.36,7.62-16.92,15.05-24.77,23.01l-11.63,14.01c-6.09,8.92-11.62,17.94-16.47,27.56l-4.5,10.43c0,.69-.58.45-1.85-.44,4.07-11.59,9.68-21.75,16.24-32.04,7.88-11.24,16.49-21.34,26.09-31.09l26.5-22.38,22.99-23.03c10.91-9.09,21.74-17.27,33.88-24.88l19.86-10.23,5.73-1.08.57,3.1,20.86-8.95,33.61-8.46c3.94-2.23,7.99-4.21,12.27-5.99l14.11-3.4,25.99-2.46c14.66.07,28.53,1.24,43.01,3.48l20.25,4.37,8.78,1.46c11.97,1.23,23.22,3.51,35.01,6.29,12.29,3.38,23.52,7.82,34.67,13.17,8.4,4.43,16.31,9.36,24.17,15.01l9.51,9.94,3.27,3.82,12.33,7.68,1.07,1.64-2.16,1.16c-.09-.39-.02-.08.18.84l13.52,11.45,3.48-1.81-1.81,4.69,1.31,3.17-3.6-1.07-18.84,19.06-8.16,8.9,7.19-5.79,17.41-14.69.19-2.03,1.43.05,3.81-2.91,1.54,1.67-6.72,6.5-17.95,17.13c-16.55,15.61-32.09,31.16-47.51,47.45l-1.65,2.89,1.02,2.7-2.58-1.04-2.77,1.49-3.65-2.02-6.81,6.14-.79-2.45,3.45-3.72.52-2.02-1.68-2.04-18.72-12.19c-1.03-.5-2.22-.96-1.24-.04l5.58,4.97,1,.76,4.87,4.54-1.5,1.24-13.04-10.1c-9.05-6.1-18.3-11.26-28.07-16.12-8.71-4.04-17.53-7-27.57-8.59-1.17.51-.06.91,1.26,1.2,8.95,2.62,17.28,5.35,25.47,8.7l-.47,1.71-1.91-.46-27.95-9.36-17.13-2.65c-15.65,2.3-30.32,4.94-45.37,8.46-16.64,4.31-32.74,9.2-49.02,15.13l-16.82,12.23c-7.63,5.52-14.53,11.27-21.1,17.92l-11.82,15.59,1.46.56,8.07-8.4c6.33-6.72,12.79-13.02,19.71-19.4l2.08-.02.17,1.33c-9.46,8.74-18.05,17.75-26.12,27.82-7.54,11.06-14,22.08-19.94,34l-12.83,30.85c.04,19.96.83,39.09,2.36,58.97l3.65,28.03,2.89,13.66-.42,3.97,5.91,13.57c3.32,5.94,6.9,11.31,11.06,16.87l8.77,9.19,10,9.01,17.99,14.16,30.52,21.13,16.53,10.77,13.14,5.93,18.08.63,13.88-2.06c-.64.87-1.42,1.8-2.23,2.67l-9.84,1.46c-1.99.42-2.19.64-.08.93l20.32,2.03c5.71-.01,11.37-.27,16.97-1.05l19.07-7.69,25.18-8.58,31.61-12.68c8.03-4.42,15.45-9.14,23.28-14.54l4.22-5.09,4.08-7.14c7.52-12.6,14.31-25.02,20.53-38.25l9.01-18.04,2.2-3.57-22.92.91-21.18,1.71-21.31,1.03-.3-2.3,16.76-1.13c-5.67-.91-11.14-.66-17.18-.41l-7.78.21-22.22,1.79-39.07,2.63-5.11-2.01,2.27-3-.89-.55h-10.7s-1.06,2.64-1.06,2.64l.36,2.47-1.54,1.11-1.32-2.21-.41-3.38-3.85-.58-1.9-1.4,1.9-1.33,3.47-.77-1.64-5.62.05-6.25-2.97-.15-.92-2.7,1.47-20.04c1.17-9.03,1.17-17.89.05-26.94-1.23-10.26-1.31-19.7-.67-30.12l2.92-1.19-.03-8.6,1.16-2.17-1.38-1.61.3-1.45,1.62-.58,1.96-2.91,1.19,1.97,1.59,1.15,9.01-.93h3.12s9.06-.42,9.06-.42l29.2-.49-23.72-2.08ZM372,56.32c1.83-.18,3.77-.11,5.39.51l10.74-.02-5.52-1.51-7.31-.7c-15.9-3.03-31.87-3.19-48.28-1.43-11.07,1.42-21.38,2.96-31.32,7.65l16.31-1.21,19.03-1.9c13.79-1.11,27.07-1.25,40.96-1.38ZM295.74,67.35l5.65-1.03,6.85-.4,1.07-.79,11.25-.35,5.15-1.22c1.75-1.75,1.02-1.72-.92-.65l-15.34.26-4.48,1.21-4.03.66-2.26.57-4.69.93c-1.78,1.59-.2,1.34,1.74.81ZM498.84,90c-19.01-12.2-39.55-20.52-61.81-24.83l-7.27-1.64h-3.98s15.48,5.41,15.48,5.41c14.39,4.67,28.1,10.3,41.89,16.87l29.09,16.03c-3.96-4.91-8.35-8.14-13.4-11.83ZM341.91,83.88l16.97-13.98,5.2-4.33c-6.09-.97-10.74-1.45-17.47-1.47l6.57,2.88-.71,2.27-2.18.46-.39,2.19-8,12ZM412.05,71.83c2.09.34,4.24-.54,5.11-2.36-14.28-3.25-27.57-5.66-42.35-5.29l4.88,1.14,32.37,6.52ZM367.9,72.54l8.19-5.28-9.17-1.52-11.39,16.56,7.43-5.29,4.94-4.46ZM441.75,72.21l-9.68-3.3-5.44-1.44-3.45-1.14-4.33.1,8.22,2.51,21.04,6.97,2.97.87-6.44-3.52-2.89-1.04ZM236.03,81.6l2.05-.11,5.17-2.2,7.99-3.13,15.71-5.19,10.27-3.28-2.28-.29-3.59,1.03-3.87.96-5.51,1.6-8.34,2.58-2.05,1.11-3.58,1.34-3.55,1.24-8.42,4.34ZM324.29,69.01l11.81.02,1.21-.68,6.86-1.08-19.72-.16-4.96,1.32-5.63,1.22,9.31.56,1.12-1.21ZM384.58,79.97l2.88-3.32,2.97,1.2,1.96,1.88,10.25-7.29-24.68-4.94-9.86,15.64,8.23-5.85c2.62-1.68,4.77-2.79,8-3.81-1.02,2.64-1.79,3.95-3.03,5.62l-7.41,8.75,10.69-7.89ZM251.57,83.61l18.58-4.67,20.28-6.69,4.66-.87,4.71-1.81h-1.99s-5.43.82-5.43.82l-4.22.9c-10.38,1.86-20.17,4.46-30.03,7.6l-7.69,4.54c-.93-.15.49.08,1.12.18ZM312,70.5c0-.28-.22-.5-.5-.5s-.5.22-.5.5.22.5.5.5.5-.22.5-.5ZM328.91,76.53l-11.09,13.84,1.31-.28c8.96-7.37,17.63-13.74,26.89-19.9l-20.99,1.89-8.8.84.72,2.59-.23,1.52,1.44-.5,7.65-3.75,2.68.93.43,2.81ZM429.75,75.58c-.06-1.63-.09-2.24-.08-2.17l-8.04-2.97-1.87,3.03,9.99,2.11ZM303.55,77.38l3.26,1.24,6.96-5.17c-6.58.25-11.44,1.43-18.15,3.06-.1.83-.25,2.18-.22,1.85,1.35,1.57,1.41,1.91,1.09,3.38l7.05-4.36ZM318.28,112.89l13.68-11.82c10.04-8.78,19-17.63,27.03-27.95l-4.94,3.97-21.44,18.51-13.23,14.6-1.1,2.69ZM333.08,109.98l7.81-6.15,15.08-11.79,3-3.08,13.15-15.94-7.21,4.92-27.03,25.88-7.98,8,3.18-1.85ZM398.83,84.26l12.5-9.85-4.95-1.15-8.52,8.7-1.07,1.38,2.05.93ZM225.07,184.06l19.74-16.35,19.11-16.8,11.97-10.05,25.85-23.12,30.12-25.83c4.93-5.97,9.09-11.24,13.34-17.67-4.61,2.61-8.07,5.14-12.04,8.02l-25.33,19.51-12.2,12.02-17.32,16.55c-12.72,11.6-24.87,23.45-37,35.79-5.75,5.91-11.22,11.28-16.26,17.93ZM288.92,114.76l7.32-5.69,15.81-15.95,13.36-15.77.3-1.79-1.67.26-6.63,4.56-.27,5.03-1.9,2.75-26.3,26.61ZM401.99,87.05l1.4,1.52,1.55-.56,10.27-13.02c-2.77,1.62-4.83,3.17-7.05,5.02l-6.18,7.03ZM416.54,77.49l5.25,2.73,4.23-2.72-7.2-2.02-2.9,2.45-10.09,13.15c4.67-2.67,8.79-5.82,12.51-8.73l-1.8-4.86ZM453,77.5c0-.28-.22-.5-.5-.5s-.5.22-.5.5.22.5.5.5.5-.22.5-.5ZM187.16,109.85l11.8-7.76,18.38-11.72,14.51-10.2,1.27-1.27-1.54-.62-19.42,9.86c-12.92,7.76-24.72,16.54-36.34,26.58l-9.95,10.08,4.81-3.21,16.47-11.73ZM300.09,89.07l3.87-3.09,4.1-3.03.88-.93,3.05-4.03-4.01,3.04-5.13,3.89-6.06,5.86,3.3-1.71ZM429.43,80.3l1.64-.78-.59-1.67-3.6,4.11,2.55-1.67ZM431.62,87.7l9.26-8.02-5.56-.62-6.69,6.32,2.99,2.31ZM242.31,110.74l8.65-7.72,7.07-5.87c4.01-3.1,8.13-6.08,12.08-8.51l3.14-1.12,9.05-7.16-3.38.56-12.81,4.02-4.65,6.73-14.39,13.31-10.99,9.98c-1.88,1.55-3.51,3.13-5.14,4.91l5.14-3.85,6.24-5.27ZM274.11,93.11l3.88-3.11,4.03-3.14,9.22-6.68c-2.48-1.01-4.88-.1-6.25,1.77l-4.83,5.03-5.18,3.96-3.25,2.83,2.38-.66ZM465,80.5c0-.28-.22-.5-.5-.5s-.5.22-.5.5.22.5.5.5.5-.22.5-.5ZM321.93,129.86l5.1-3.84,5.02-4.01,19.12-15.81c9.11-8.03,17.43-15.72,24.74-25.14l-17.77,13.1c-7.93,8.95-15.99,16.79-24.33,24.7l-5.85,5.16c-2.16,1.84-4.07,3.71-6.03,5.86ZM389.82,81.5c0-.45-.37-.82-.82-.82s-.82.37-.82.82.37.82.82.82.82-.37.82-.82ZM439,93.34l13.58-10.29-6.74-2.71-5.21,5.16-4.56,5.57,2.94,2.26ZM467,81.5c0-.28-.22-.5-.5-.5s-.5.22-.5.5.22.5.5.5.5-.22.5-.5ZM235,82.5c0-.28-.22-.5-.5-.5s-.5.22-.5.5.22.5.5.5.5-.22.5-.5ZM294.91,86.38l1.27,1.06,4.96-5.32-3.23,1.8-2.99,2.46ZM366.42,100.83l7.44-6.87,5.27-3.89,6.25-5.81,1.65-.71-1.44-1.45-8.53,7.95-9.06,7.88-6.14,5.88,4.57-2.98ZM470.73,83.69c-1.01-1.12-2.33-1.86-2.56-1.41l2.56,1.41ZM233,83.5c0-.28-.22-.5-.5-.5s-.5.22-.5.5.22.5.5.5.5-.22.5-.5ZM239.53,86.59l4.84-2.6.27-1.18-4.15,1.7c-1.93.84-3.78,1.82-5.85,3.28l4.89-1.21ZM294.19,106.08c1.57-1.46,3.34-3.31,4.79-5.14l5.89-6.13c4.11-3.61,7.31-7.06,10.31-11.92-2.57,1.3-4.2,2.68-5.93,4.3l-9.19,10.87-11.09,11.78,5.23-3.76ZM230.3,136.68c14.2-11.77,27.85-22.69,42.64-33.5l10.98-11.25,7.09-8-13.03,9.03-17.77,14.36c-10.07,8.55-19.83,16.98-29.04,26.6l-10.12,11,9.25-8.24ZM453.88,89.44l3.4,1.22,4.57-3.95-6.19-2.94-12.97,12.29,3.58,2.15,7.41-5.66.81-1-.6-2.12ZM394.83,84.55l-2.98,2.81,1.41,1.49,2.98-2.81-1.41-1.49ZM410.03,93.11l4.14-3.04,4.98-4.89-4.27,2.73-5.26,4.75c-.78-.86-.26-.29.41.45ZM388.32,87c0-.45-.37-.82-.82-.82s-.82.37-.82.82.37.82.82.82.82-.37.82-.82ZM428.81,89.2c0-.99-.8-1.8-1.8-1.8s-1.8.8-1.8,1.8.8,1.8,1.8,1.8,1.8-.8,1.8-1.8ZM207.76,101.11l-3.99,2.68c-.42,1.18-.51,1.43-.14.4l2.8-.68,2.31-1.85,22.6-11.34,1.71-.78-.42-1.42-4.99,2.64-2.3.52-7.42,3.82-4.27,2.55-5.9,3.47ZM244.03,88.26l-3.56.47c-1.96.76-1.69.95.67,1.23l2.89-1.71ZM226.21,99.84l-.03,2.84,16.7-9.93,3.68-.96,6.48-3.45-2.18.3-8.14,3.05-19.8,7.89-1.92,2.75-.64,2.04,5.86-4.53ZM385.42,87.91l-46.43,38.37,1.35,1.63,46.43-38.37-1.35-1.63ZM390.37,88.59l-52.17,44.98,1.37,1.59,52.17-44.98-1.37-1.59ZM400.31,88.61l-3.67,2.78,1.38,1.83,3.67-2.78-1.38-1.83ZM472.74,92.29l-6.9-4.18-5.65,4.81,5.94,4.79,6.62-5.42ZM417.4,99.27l8-6.74-2.28-2.45-8.34,7.36,2.61,1.83ZM433.27,97.18l2.79-2.73c-.9-.77-1.63-1.41-1.37-1.18l-2.76,2.6,1.34,1.32ZM191.23,141.85l12.96-10.64,25.6-22.36,8.23-8.47,3.97-1.09,5.04-5.42-17.21,8.81c-3.63,2.1-7.16,4.32-10.09,7.19l-27.09,28.87-8.67,9.12,7.25-6.01ZM388.05,101.02l4.15-2.99c1.32-1.07,2.6-2.47,3.79-4.42l-7.08,5.25-4.08,4,3.23-1.84ZM401,95q.98-.98,0,0t0,0ZM472.74,101.02l6.2-4.95-3.5-1.91-5.35,5.52.36,1.19,2.29.14ZM403.45,98.68l3.78-3.43-3.45.93-.33,2.49ZM455.03,105.36l8.82-6.55-5.04-4.33-8.05,7.54,4.28,3.35ZM180.22,163.73l13.2-12.42,14.8-13.96,16.95-16.16,18.66-18.15,6.17-6.92-6.21,4.79-19.63,17.25-18.3,18.75-13.68,14.09-11.97,12.74ZM421.18,103.27l6.92-7.15-5.93,4.6c-.23.35-.48.98-.99,2.55ZM395.34,101.36l3.83-4.48-4.15,1.84-2.23,1.94,2.55.7ZM406.04,100.96c1.53-1.25,2.67-2.4,3.92-3.92-1.53,1.25-2.67,2.4-3.92,3.92ZM263,98.5c0-.28-.22-.5-.5-.5s-.5.22-.5.5.22.5.5.5.5-.22.5-.5ZM266.16,115.73l5.85-4.65c4.93-3.97,9.08-8.01,13.12-12.83l-3.38,1.71-10.9,9.96-4.7,5.81ZM438.91,103.23l4.49-3.15-2.37-2.06-3.32,2.99-.3,1.57,1.5.66ZM479.15,107.8l8.88-5.99-6.62-4.17-6.38,7.18,4.12,2.99ZM490.92,99.65l-3.02-1.66,1.57,2.09,1.45-.44ZM209.33,147.29l9.56-8.46,20.38-17.54,16.64-16.34,3.34-3.84,1.8-.55-.37-1.34-6.41,5.03-14.14,11.96c-19.4,17.41-38.14,34.8-56.16,53.55l9.11-7.8,16.24-14.68ZM276.04,115.22l13.9-13.36,2.06-2.8-7.19,5.91-16.84,16.84,6.02-4.8,2.07-1.78ZM410.92,104.63l4.31-3.76-2.68-1.8-3.9,3.65,2.27,1.91ZM401,100.5c0-.28-.22-.5-.5-.5s-.5.22-.5.5.22.5.5.5.5-.22.5-.5ZM432.1,102.62c1.29-.7,2.2-1.59,1.1-1.76l-4.64,3.82-2.26,1.3.47,1.57,5.34-4.92ZM381.89,115.35c.3-1.01.77-2.58.52-1.74l-.94-1.73,2.72,1.18,9.1-10.29-2.23-.78-18.12,13.98-13.82,15.13-7.1,8.83,8.72-7.19,21.15-17.39ZM405.26,102.6l-1.94-.68-3.38,4.01,5.31-3.33ZM458.13,108.27l6-6.13-5.03,3.58-.97,2.56ZM467.45,104.28l1.63-.76-.62-1.67-4.53,5.12,3.53-2.69ZM505.32,108.83l-5.82-4.35-3.94-2.35c-.6.18-2.16.63-1.01.29l4.32,3.58,2.8,1.63,3.64,1.19ZM318.98,163.14l14.77-15.43,10.96-10.12,16.37-14.47c5.55-4.63,10.34-9.52,15.06-14.95l5.01-4.94-2.25.76-9.9,8.17-40.25,34.06-20.05,17.92,10.26-.99ZM441.03,105.97l2.95-2.95-2.95,2.95ZM419.27,105.99l.85-1.53-2.03-.59-3.5,5.14,4.68-3.02ZM431.04,109.47l5.34-4.24-.04-1.17-1.99-.03-4.7,4.64,1.39.8ZM439.88,116.04l13.21-9.49-4.44-2.81-9.91,10.07-.39,1.82,1.51.42ZM488.63,116.87l2.17,1.62,10.99-7.72-9.81-6.74-8.07,7.2.38,1.97,1.58.43,4.93-3.06,1.73.35v1.43s-3.9,4.51-3.9,4.51ZM202,105.5c0-.28-.22-.5-.5-.5s-.5.22-.5.5.22.5.5.5.5-.22.5-.5ZM407.1,104.15l-5.04,4.47,1.71,1.93,5.04-4.47-1.71-1.93ZM169.62,137.49l9.53-9.32c3.78-4.09,7.16-7.16,11.89-9.97l-.64,3.82,11.73-9.83c2.59-2.08,4.75-3.9,6.9-6.12-9.81,4.74-18.28,10.43-27.02,16.83l-15.23,12.88c-8.57,9.34-16.98,17.72-23.85,28.12l9.27-8.7,6.11-5.9,11.32-11.8ZM197.89,121.77l-3.66,5.31c7.3-6.99,14.03-13.55,20.74-20.93l-10.95,9.78-6.13,5.83ZM390.13,115.28l5.87-5.37c.84-.54,1.8-1.78,2.27-2.74l-3.49,1.73-5.15,4.91-1.7.66.54,1.65,1.66-.83ZM432.85,111.87l3.32-1.78,3.05-2.85-2.54.55-3.83,4.08ZM468.89,114.66l7.61-5.23-3.24-2.95-6.16,6.02-.11,1.85,1.9.31ZM424.09,107.93l-4.82,3.83,1.5,1.89,4.82-3.83-1.5-1.89ZM468.26,108.6l-1.94-.68-3.38,4.01,5.31-3.33ZM445.71,121.42l9.99-9.87.78-2.29-2.54-.09-12.31,9.06,4.07,3.19ZM402.38,111.37l-3.06-.7-7.44,8.33c4.1-2.5,5.97-3.97,10.5-7.63ZM411.34,114.4l.71-2.23,2.06-.63-.91-2.1-4.2,3.93.45,1.72,1.9-.69ZM507.93,109.45l-1.22,1.8,5.63,3.81,1.22-1.8-5.63-3.81ZM424.04,114.96c1.53-1.25,2.67-2.4,3.92-3.92-1.53,1.25-2.67,2.4-3.92,3.92ZM211.79,183.18l11.65-10.79,21.37-19.69,12.06-11.82,15.95-16.95,10.23-10.67-2.3.6-9.69,9.36-11.27,10.48-21.07,20.04-28.88,28.46,1.94.98ZM269.02,153.01l6.04-5.01,7.99-7.12,22.01-17.64,8.92-10.58c-5.59,3.87-10.04,7.77-15.06,12.27l-16.95,14.88-9.93,9.21c-3.37,2.74-6.23,5.6-9.05,8.84l6.03-4.85ZM427.01,117.67l4.08-4.56-4.86,2.85.78,1.71ZM451.61,125.33l9.26-9.92.41-2.77-12.89,10.4,3.21,2.28ZM498.74,125.53l11.25-8.89-5.16-3.76-9.9,9.78,3.81,2.87ZM416.78,118.19l2.57-2.94-1.83-1.43-1.79.82-3.14,2.81,1.9,1.94,2.29-1.2ZM474.57,114.49c.43.7.18.29-.68-1.1l-2.98,3.6,3.66-2.5ZM481.55,113.62l-6.94,5.89,1.49,1.76,6.94-5.89-1.49-1.76ZM517.12,116c0-.62-.5-1.12-1.12-1.12s-1.12.5-1.12,1.12.5,1.12,1.12,1.12,1.12-.5,1.12-1.12ZM537.75,126.44l-1.87-1.39-5.73-5.08-3.18-1.98-4.1-2.83,5.88,5.96,4.35,2.83,5.9,5.17-1.26-2.66ZM197.06,172.05l11.9-9.2,37.43-32.55,8.44-8.3,5.17-5.94-5,3.95-3.99,3-23.59,19.48-24.39,21.49-5.98,8.07ZM402.37,122.17c1.91-1.98,3.75-3.99,5.49-6.33l-7.12,5.04-2.08,2.94,3.71-1.65ZM429.04,119.96c1.53-1.25,2.67-2.4,3.92-3.92-1.53,1.25-2.67,2.4-3.92,3.92ZM464.85,117.44l-.72-2.24-3.32,3.93,4.04-1.7ZM297.11,137.86l14.09-13.62,6.72-7.02-2.23.42c-5.9,5.22-10.98,10-16.16,15.87l-11.48,12.39,9.06-8.04ZM297.35,145.81l5.6-4.83,5.01-3.97,4.09-3.04,1.74-1.79,5.28-4.18,7.86-6.95,4.29-3.84-3.35,1.74-4.89,4.08-6,4.97-5.95,5.01-5.08,4.01-7.01,5.92-6.09,5.88,4.5-3ZM367.98,136.37l18.8-17.6.64-1.33-2-1.06c-6.62,6-12.59,11.86-18.6,18.44l-9.73,11.1,10.89-9.55ZM435.94,119.32l.97-2.58-5.08,5.12,4.11-2.54ZM456.77,129.23l10.69-9,1.61-.69-.55-1.65-1.7.89-11.15,7.74-1.15,1.48,2.25,1.23ZM507.24,123.76l3.45-2.42c.81-.45,1.99-1.96,2.4-3.29l-6.23,4.87-4.95,4.96,5.32-4.12ZM525.18,121.52l-4.49-3.7-1.9.71.86,1.77,3.51,2.7,2.02-1.48ZM405.35,127.73l7.59-6.28-1.22-2-1.34.13-5.61,5.36-.95,1.73,1.52,1.05ZM424.26,119.6l-1.94-.68-3.38,4.01,5.31-3.33ZM478.47,123.37l4.67-4.01c-2.56.46-4.69,1.69-4.67,4.01ZM487.69,120.47c1.02-.37-.58-1.27-1.81-1.39l-4.3,5.98,6.11-4.59ZM390.57,120.49c.43.7.18.29-.68-1.1l-2.98,3.6,3.66-2.5ZM438.55,127.13l5.07-4.21-4.25-3.25-5.25,4.43,4.43,3.03ZM426.59,123.66l.54-2.14-1.44-.24-4.08,3.56,2.78,1.06,2.2-2.23ZM470.14,124.65l2.87-2.58-2.87,2.58ZM508.89,133.44l3.23-1.36,8.91-7.56-4.08-3.2-3.06,2.44-1.83,1.78c2.04-.72,3.18-1.09,5.77-1.38-.92,1.76-1.59,2.76-2.53,3.88l-6.41,5.39ZM267,123.5c0-.28-.22-.5-.5-.5s-.5.22-.5.5.22.5.5.5.5-.22.5-.5ZM527.11,122.49l-1.76,2.12,8.78,7.28,1.76-2.12-8.78-7.28ZM395.51,127.75c1.27-.84,2.33-2.26,2.31-3.96l-7.95,8.04,5.64-4.08ZM409.75,129.73l2.59-.49,4.76-5.12-4.19,2.82-3.16,2.8ZM470.11,131.76l6.13-5.78.15-1.63-1.51.32-12.12,9.41,1.98,2.11,5.37-4.44ZM444.74,131.18l4.17-3.64-2.55-2.49-3.79,3.83.1,1.75,2.06.55ZM490.08,132.62l6.2-5.53-3.23-2.77-6.36,5.64,3.4,2.66ZM415.76,135.2l6.73-7.07-3.39-1.73-6.96,6.09,3.62,2.7ZM432.19,132.14l3.52-3.73-3.56-2.92-4.07,3.27,4.11,3.37ZM523.32,130.77l4.5-.7-4.1-3.73c-4.65,4.03-8.16,7.04-11.93,11.61l11.53-7.18ZM294.06,152.02l-6.07,4.97-5.99,5.01-6,5-6.05,5.01-7.93,6.87-14.2,13.93-13.34,15.93c2-.86,3.22-2.29,4.44-3.87l17.48-14.18,12.58-10.61,7.07-6.09,8.94-7.99,7.97-7,6.06-5,5.99-5.01,6-5,6-5.02,7.03-5.91,5.12-4.89-4.28,2.78-5.86,5.06-6.03,4.98-6,5-5.99,5.01-6.1,4.99-8.85,8.01-7.1,5.98-7.95,7.03-8.19,6.9-2.47-1.19,5.52-5.57,7.09-6.17,6.07-4.98,6.94-6,6-5.03,6.17-4.89,7.03-6.87-4.31,2.74-6.8,6.07ZM399.11,133.04c1.78-1.15,3.45-2.69,3.79-5.3l-9.04,9.06,5.24-3.76ZM172.91,143.78l6.3-4.68,9.99-9.81-3.54,1.52-12.74,12.97ZM469.3,140.24c4.94-3.61,8.16-7.1,11.8-11.05l-4.32,2.73c-2.79,2.48-5.6,5.12-7.48,8.32ZM542.65,131.86l-2.58-2.87,2.58,2.87ZM164,130.5c0-.28-.22-.5-.5-.5s-.5.22-.5.5.22.5.5.5.5-.22.5-.5ZM452.72,129.1l-5.15,4.14,1.61,2,5.15-4.14-1.61-2ZM520.04,141.71l4.01-1.99,2.97-1.28,5.1-5.34-3.47-2.8-.74,1.82-10.83,10.85c-3.06,2.55-5.52,4.97-8.22,7.81l4.31-2.72,6.87-6.36ZM144.61,147.12l-1.33,3.08,9.83-10.01c.85-1.69,2.37-3.22,3.95-4.09l5.15-4.9-3.3,1.76-5.02,4.02-2.89,3.09-6.4,7.05ZM430.02,133.36l-4.06-2.92-7.87,6.65,3.89,2.62,8.03-6.35ZM440.5,132l-3.97,2.38.97,1.62,3.97-2.38-.97-1.62ZM475.9,143.17l11.82-9.1-3.33-2.4-11.73,10.8,1.72,1.55,1.51-.85ZM501.17,132.21l-5.68,4.86,1.18,1.38,5.68-4.86-1.18-1.38ZM538,132.5c0-.28-.22-.5-.5-.5s-.5.22-.5.5.22.5.5.5.5-.22.5-.5ZM407,133.5c0-.28-.22-.5-.5-.5s-.5.22-.5.5.22.5.5.5.5-.22.5-.5ZM339.8,155.25c3.83-.07,6.12-1.35,8.2-3.16l15.96-17.97-3.13,1.86-6.77,6.07-14.26,13.2ZM374.29,153.33l10.5-11.45,5.12-5.07c1.15-.16,2.13-1.68,1.96-2.82l-7.91,7.12-13.13,11.07,1.56,1.71,1.9-.55ZM388.07,159.17l25.16-22.3-3.42-2.69-26.92,23.11c1.65,1.12,3.51,1.84,5.19,1.88ZM541,134.5c0-.28-.22-.5-.5-.5s-.5.22-.5.5.22.5.5.5.5-.22.5-.5ZM331.06,140.94c2.28-1.8,4.07-3.59,5.88-5.88-2.28,1.8-4.07,3.59-5.88,5.88ZM331.99,158.73l14.67-16.96,2.41-2.71,2.8-4.12-7.83,7.13-13.07,11.9-6.49,7.02,7.51-2.26ZM426.36,142.12l5.74-6.82-8.04,6,2.3.81ZM535,135.5c0-.28-.22-.5-.5-.5s-.5.22-.5.5.22.5.5.5.5-.22.5-.5ZM447.15,136.18c-3.04.22-4.2,1.63-4,3.97l4-3.97ZM460.76,136.01l-4.03,3.77,1.66,1.77,4.03-3.77-1.66-1.77ZM468,137q.98-.98,0,0-.98.98,0,0ZM500.12,142.22l5.78-5.85c-3.19.96-5.6,2.63-5.78,5.85ZM436.27,138.02l-1.34-1.6-3.07,3.48,4.41-1.89ZM223.38,200.41c13.26-10.24,24.15-20.4,35.81-31.19,11.34-10.25,21.67-20.11,31.85-31.03l-6.07,4.94-1.93,1.07-48.89,43.59c-3.49,4.32-9.23,6.62-10.77,12.62ZM307.14,141.65l2.87-2.58-2.87,2.58ZM367.44,150.63l3.79-4.49,1.67-.97,5.04-6.14-7.9,6.94-5.33,4.71c1.69-.03,3.64-.06,2.73-.05ZM378.42,156.36c6.85-5.76,12.12-11.21,17.54-17.23l-8.96,7.87c-3.35,2.66-6.66,5.49-8.58,9.36ZM413.5,146.22l6.08-4.87-3.23-2.21-13.33,15.76,10.47-8.68ZM433.88,145.19l4.31-4.42-.71-1.47-7.79,6.29,2.78,1.16,1.42-1.56ZM464.75,141.54l-.13-2.7-3.85,4.22,3.98-1.52ZM490.13,144.53l3.43-2.97,1.06-1.59-1.51-1.11c-4.76,4.09-8.69,7.15-12.47,12.17,3.73-1.88,6.3-3.96,9.49-6.51ZM509.4,140.73c.96-.57,1.57-1.57.71-2.22l-6.21,6.35,5.5-4.13ZM531,140q.98-.98,0,0-.98.98,0,0ZM329.45,142.69c-.05.55.06-.64.18-1.9l-6.7,7.12,6.52-5.22ZM447,141.5c0-.28-.22-.5-.5-.5s-.5.22-.5.5.22.5.5.5.5-.22.5-.5ZM449.14,143.65l2.87-2.58-2.87,2.58ZM467.69,142.72c.02.39-.05-1.12-.09-1.84l-3.76,4.01,3.84-2.17ZM452.04,145.96c1.53-1.25,2.67-2.4,3.92-3.92-1.53,1.25-2.67,2.4-3.92,3.92ZM494.19,147.07c1.69-1.22,3.27-2.74,3.77-5.31l-8.14,8.02,4.37-2.71ZM417.12,150.8l6.48-6.12-1.05-1.7-1.88.7-23.27,19.61,4.59,2.62,15.14-15.11ZM440.08,147.07l3.99-3.45-1.27-1.06-6.91,7.3,4.19-2.79ZM171,146q.98-.98,0,0-.98.98,0,0ZM458.21,144.65l-4.39,3.64,1.14,1.37,4.39-3.64-1.14-1.37ZM472.41,145.55l-2.7-.38-1.67,3.25,4.37-2.87ZM122.08,183.09l4.28-3.95,21.65-26.97,4.34-6.1c-1.54.68-2.69,1.78-3.33,3.06l-6.37,6.54-12.15,14.69-5.57,8.62-2.85,4.09ZM356.06,151.94c2.28-1.8,4.07-3.59,5.88-5.88-2.28,1.8-4.07,3.59-5.88,5.88ZM441.54,154.06l5.84-7.31c-.79-.16-1.56-.32-1.07-.22l-6.46,5.91,1.69,1.62ZM517.55,148.19l1.31-2.38-4.64,4.63,2.31-.17,1.03-2.08ZM175.11,152.26c-.74,1.01-1.49,2.2-2.02,3.94l9.13-8.95-3.4,1.64-3.72,3.37ZM176.84,161.13c5.28-4.69,9.56-8.99,14.34-13.86l-3.43,1.6c-3.87,3.83-8.17,7.13-10.91,12.26ZM193.51,169.1c4.45-3.6,8-7.08,11.57-11.03l7.99-8.89.71-2.13-16.56,15.16-11.45,10.86,1.29,2.09,1.81-1.22,4.64-4.84ZM395.46,160.04l7.38-9.15,3.06-3.92-8.98,7.94-6.25,5.49,2.83,1.82,1.96-2.18ZM415.56,169.12c-.99-2.47-1.02-2.95-.77-3.95l15.62-16.24-2.74-2.3-22.56,20.27,7.97,4.37,2.48-2.15ZM163.41,153.73c1.4-.8,2.52-2.22,2.36-3.95l-8.86,9.06,6.5-5.11ZM279.34,178.32l10.96-10.04,7.82-8.14,10.03-9.91-4.37,2.65-30,26.58,5.57-1.14ZM447.71,157.06l5.61-5.22-1.66-1.57-1.42.91-5.38,4,.58,1.78,2.28.09ZM463.14,152.65l2.87-2.58-2.87,2.58ZM417.21,168.1l13.6-13.22c1.68-.52,3.01-2.1,3.2-3.92l-8.05,7-6.1,5.72-2.65,4.42ZM500.94,155.04l3.2-2.37-1.38-1.12-7.8,8.34,5.98-4.85ZM357.37,161.33l6.35-7.45-1.24-1.2-3.43,2.35-6.47,5.51,4.78.79ZM462.97,159.03l4.01-3,3.16-2.35-1-.85-4.39,3.09-7.79,7.93,6.01-4.82ZM478,154q.98-.98,0,0-.98.98,0,0ZM204.24,173.7c7.28-6.44,13.55-12.75,19.62-19.58-6.99,6.29-13.45,12.78-19.62,19.58ZM429.17,166.84l10.28-10.5-.07-1.2-1.64-.71-19.88,17.71,5.16,1.96,6.15-7.26ZM499.26,164.2c4.65-3.24,7.5-6.38,10.88-9.96l-3.44,1.62c-2.7,2.57-5.43,5.22-7.44,8.34ZM348.82,160.08l4.11-5.18-5.21,3.01-.82,1.64,1.92.53ZM377.62,157.93c-2.6-.54-3.31-.17-4.52,1.33l-2.75.28.97-3.13c.33.37-.78-.87-1.34-1.49l-2.87.63-7.08,6.98,11.68,2.26,5.91-6.85ZM171,156.5l-17,17,1,1,17-17-1-1ZM459.42,167.46c4.45-3.68,7.35-6.63,10.62-10.32l-6.08,4.84c-1.93,1.3-3.87,3.02-4.53,5.48ZM475,157.5c0-.28-.22-.5-.5-.5s-.5.22-.5.5.22.5.5.5.5-.22.5-.5ZM300.27,166.2l5.92-5.92.5-2.43-8.85,8.85,2.43-.5ZM445.11,159.38l-2.97-1.67c-6.14,5.83-11.51,10.97-17.05,17.45l20.02-15.78ZM452,159q.98-.98,0,0-.98.98,0,0ZM477,159.5c0-.28-.22-.5-.5-.5s-.5.22-.5.5.22.5.5.5.5-.22.5-.5ZM339.11,160.79c-3.87-2.28-5.62-.21-5.82,2.01,2.98.24,5.27-.58,5.82-2.01ZM381.65,166.28l3.95-4.7-4.61-2.25-6.2,5.54,6.86,1.41ZM138.31,175.14l10.83-10.83,1.58-3.49-15.9,15.9,3.49-1.58ZM466.7,170.97c3.36-3.57,6.13-5.85,8.57-10.08l-9.28,8.14-1.14,1.46,1.86.47ZM152.21,187.04l17.91-17.76,5.22-7.26c-2.4,1.37-4.01,2.99-5.32,5.13l-11.06,11.74-6.76,8.16ZM345.25,162.66c-2.6-.26-2.76-.27-.44-.04,1.13.1,1.54.13.44.04ZM429.02,176.11c2,1.08,3.82,1.69,4.57,1.26l9.27-9.41,6.45-5.53-2.16-.1-1.11,1.38-9.84,9.43-1.25-.15.49-2.4-6.43,5.5ZM478.11,166.08l4.1-3.7-1.92-.35-6.4,6.85,4.21-2.8ZM492,163q.98-.98,0,0-.98.98,0,0ZM136.31,184.86l7.08-6.57,11.68-13.14.76-2.19-5.94,5.19-9.16,10.6-4.43,6.11ZM392.85,164.67l-4.27-2.04-2.81,2.38-.61,1.39,2.24,1.26,5.44-2.99ZM176.44,165l-68.79,73.23,1.55,1.45,68.79-73.23-1.55-1.45ZM324.19,167.89l8.6.16,1.33-2.24-5.52.82-8.2.65-4.53,1.38,6.14.51,2.17-1.28ZM340.82,166.5c0-.45-.37-.82-.82-.82s-.82.37-.82.82.37.82.82.82.82-.37.82-.82ZM397.64,168.19l1.89.93.55-1.68-2.12-.65-3.41-.94-1.69,1.99,4.78.35ZM452.94,181.08l-6.51,4.27,4.2-7.58c1.89-2.39,2.88-3.62,4.87-7.33l-7.34,4.66-6.14,5.31-1.66-2.04,10.38-12.23-15.08,13.26,14.95,9.84,11.83-12.82.77-2.88c1.73-.54.23-.73-1.1-.76l-8.11,6.87,2,1.98-1.42.39-1.64-.93ZM489.03,165.34l-5.37,4.24,2.76.15,2.62-4.39ZM309.57,167.65c.61.26-.06-.03-1.44-.62-3.22.86-5.79,1.78-7.53,4.54,3.15-.22,4.78-.99,8.98-3.92ZM456.66,170c.49.21.85-.55,1.1-2.13l-1.1,2.13ZM360,169h-19.5v1h19.5v-1ZM396.96,171.73l-5-1.35c1.09,1.42,3.46,1.88,5,1.35ZM290.35,174.86l5.01-2.54c.16-1.26.19-1.56.07-.57l-3.78.77-1.7.98.4,1.37ZM176.06,177.94c2.28-1.8,4.07-3.59,5.88-5.88-2.28,1.8-4.07,3.59-5.88,5.88ZM410.88,173.68l-9.03-2.06-1.89.82,1.24,1.36,6.65,1.95,2-.11,1.02-1.96ZM191.84,175.87c2.73-.18,3.58-1.29,2.9-2.92l-2.9,2.92ZM305.68,174.73l3.45-1.49-4.35.07-2.92,1.42h3.81ZM289,187.88c14.47-4.09,28.34-7.77,42.91-11.12l2.37-.36,5.37-.85,4.57-.67,2.81-1.65-2.39.49-8.29.51-2.2.73-7.18.48-22.23,4.82c-7.94,2.34-15.05,5.17-22.79,9.33l3.79-.24,3.26-1.47ZM124.79,203.88l24.3-24.6,2.63-4.42-21.74,21.94-7.94,9.17,2.74-2.09ZM191.16,182.16c3.71-2.35,5.56-4.32,8.05-6.8l-2.67.33-5.38,6.48ZM251.07,181.93c2.63-2.1,4.76-4.22,6.86-6.86-2.63,2.1-4.76,4.22-6.86,6.86ZM300.01,175.27l-3.64.37.1,1.83,3.54-2.21ZM419.86,179.33l.57-1.27-1.32-.97-4.49-2.34-1.87,1.95,7.11,2.63ZM159.09,204.01l6.87-6.17,18.99-19.55-1.51-2.45-5.33,5.33-14.13,16.78-4.89,6.07ZM213.28,187.19l10.72-11.07-9.03,7.96c-1.06.23-1.92,1.7-1.69,3.11ZM283.23,180.47l4.33-.87,5.64-3.21-8.32,2.39-1.91.66c.14.53.53,2.06.27,1.04ZM92.29,221.95l3.46-6.18,8.61-13.43,12.79-21.17,2.75-4.24-4.68,4.23c-8.54,10.68-16.11,21.62-23.01,33.51-5.39,11.07-10.44,21.7-14.21,33.41l14.3-26.15ZM125.35,211.87c3.65-3.27,6.54-6.22,9.4-9.41l12.42-14.3,9.73-10.96c-1.61.57-3.49,1.97-4.91,3.68l-9.78,9.51c-4.43,4.6-8.42,9.54-12.24,14.78l-4.62,6.71ZM424.6,180.92l-1.46-1.94,1.46,1.94ZM117.26,202.88l15.15-17.61,2.64-4.08-3.95,2.13-4.95,3.68-8.89,15.88ZM427,181.5c0-.28-.22-.5-.5-.5s-.5.22-.5.5.22.5.5.5.5-.22.5-.5ZM456.62,194.13l10.27-13.23-12.8,10.68,2.54,2.55ZM462.36,197.18l2.3-4.53,6.38-5.6,6.19-5.8-3.43,1.7-12.89,11.98-1.32,1.59,1,1.4c.71-.3,1.94-.81,1.78-.74ZM279.72,182.11l-1.37.49c-.49,1.87-.07,1.43,1.37-.49ZM485,182.5c0-.28-.22-.5-.5-.5s-.5.22-.5.5.22.5.5.5.5-.22.5-.5ZM172.24,202.23l5.81-6.18c1.41-1.82,3.14-3.64,4.93-5.28l6.66-6.23-1-1.14-5.53,4.75-5.1,5.77-4.05,4.97-1.71,3.33ZM256.06,195.07l12.92-7.18,5-5.04c-3.97.62-6.93,2.41-9.99,4.85l-6.44,5.77-1.49,1.6ZM209.02,185.79l-.51-1.94-1.49,1.09c-2.54,3.04-4.6,5.09-7.14,8.91l9.14-8.06ZM210.05,205.13c7.52-7.02,13.8-13.36,20.38-21.02l-10.9,8.29c-3.79,3.61-7.72,7.13-9.48,12.73ZM472.84,197.2l.97-3.42,6.64-6.64c.49-.84.96-1.85,1.54-3.38l-4.4,4.43-13.8,12.63,3.26,2.95,5.79-6.57ZM276.67,187.55c.64.09-.74-.11-2.02-.29l-2.76,2.67,4.78-2.38ZM203.08,195.92c2.98-2.4,5.44-4.86,7.84-7.84-2.98,2.4-5.44,4.86-7.84,7.84ZM146.65,235.24c-.06,1.32-.06,2.11.17,1.25l18.54-18.17,27.75-28.05-4.25,2.71-6.45,5.55-26.32,25.49-9.44,11.21ZM128.16,232.48l16.1-14.22,7.74-9.33,13.92-16.75-1.98.79-22.14,21.81-8.18,9.89-5.45,7.81ZM225.16,207.07l6.82-6.13c3.28-2.43,6.38-5.1,8.18-9.05l-11.14,10.05-7.24,6.79,3.39-1.67ZM447,192.5c0-.28-.22-.5-.5-.5s-.5.22-.5.5.22.5.5.5.5-.22.5-.5ZM213,194.5c0-.28-.22-.5-.5-.5s-.5.22-.5.5.22.5.5.5.5-.22.5-.5ZM119.33,251.85l21.44-20.2,12.41-11.53,16.27-19.62,3.4-4.59-10.42,9.59-16.87,15.1-3.77,4.27-17.82,21.04-4.63,5.96ZM190.18,204.11l7.78-7.92c-2.11.46-3.44,1.57-3.98,2.64l-3.8,5.28ZM460.28,202.75l-3.26-2.77-3.93-3.08-2.39-.69,2.42,1.76,4.73,4.15,2.44.62ZM475.59,206.2l-2.34,3.91,13.73-14-8.89,7.92-2.5,2.17ZM217.32,224.27l4.73-5.26,5.83-7.14,12-13.59-1.93.23-6.21,6.31-5.99,7.08-2.69,4.29-5.22,5.63-.52,2.46ZM195.33,203.98l4.8-4.77-3.92,2.08-.88,2.69ZM472.08,203.36l2.71-4.49c-2.48,2.24-4.24,4-6.18,7.05,1.37-.91,2.7-1.91,3.47-2.56ZM104.29,291.2l23.81-25.15,38.07-39.81,10.77-12.27,7.97-8.86,4.02-5.11-6.44,5.53-25.81,25.17-24.52,23.41-14.35,18.76-10.72,14.06-2.79,4.27ZM176.98,227.8l12.17-11.64,8.9-10.01,1.63-3.34-23.51,24.05-12.05,13.07,12.86-12.13ZM253.74,205.91l.92-1.96-4.94,3.74,4.02-1.78ZM467.39,208.97l-3.58-4.09-3.06-.92,2.13,2.13,4.52,2.88ZM185.96,228.92l4.94-5.03,8.97-11.89,5.05-5.61-1.49-.45-.53,1.88-3.94,2.99-26.83,28.22-12.14,12.83,7.12-5.93,18.85-17.01ZM119.06,216.11l3.97-5.03,1.77-3.23-8.02,7.91-2.59,5.41,4.88-5.06ZM104.9,208.7l-5.4,10.8,1.2.6,5.4-10.8-1.2-.6ZM202.11,212.62c1.78-1.14,2.88-2.2,3.81-3.63l-3.81,3.63ZM471.82,212.5c0-.45-.37-.82-.82-.82s-.82.37-.82.82.37.82.82.82.82-.37.82-.82ZM101.23,234.55l-.71,4.16-.36,7.44,2.12-3.23,7.95-10.58,14.8-17.22.78-2.24-4.65,4.29-15.42,17.29c-.14,1.92-.21,1.66-.41-.5.03-2.32,1.15-5,2.67-6.97l3.63-6.27-5,3-5.41,10.83ZM213.75,223.02l7.19-9.02-11.16,9.55,3.97-.53ZM208,220l1.4-1.42,2.4-3.73-10.83,11.02,7.04-5.86ZM214.35,241.03l9.83-12.01,4.87-5.91.7-2.33-5,5.16-12.41,14.55-1.4,3.75,3.42-3.21ZM203.49,241.66l8.36-10.7,3.3-3.81.57-2.45-2.76,3.43-11.08,12.1,1.61,1.44ZM168.34,260.16l24.76-24.85,4.63-6.44-27.89,27.77-1.5,3.52ZM121.33,237.16l4.48-7.22-14.25,14.64-4.24,6.24c5.58-4.45,9.78-8.64,14-13.65ZM69.32,301.08l6.34-25.33c2.61-10.56,5.65-20.67,8.95-31.11l2.05-4.94,2.84-7.12c.7.09.27.03-.88-.11-6,12.27-11.27,24.32-16.11,37.46-4.57,13.93-7.51,27.51-7.95,42.04l.61,5.06-1.31,2.42,1.98,1.66.43-7.03,3.06-12.99ZM180.17,253.69l3.99-2.65,12.65-11.4,5.1-6.62c-5.12,3.63-9.5,7.41-13.79,11.98l-4.75,5.28c-1.04.21-1.6.33-1.05.22l-2.15,3.2ZM137.18,271.02c3.89-3.48,7.44-6.95,10.82-11.17l24.85-25.71c-10.29,9.56-20.08,19.51-29.87,29.59l-5.8,7.29ZM103.95,264.96l-1.82,3.23,2.93-3.13,3.9-5.09,3.19-3.87,14.74-18.07c-3.58,2.69-6.71,5.63-10,8.94l-5.1,6.95-3.78,5-1.99,3.12-2.08,2.93ZM86.05,341.13l11.98-14.16,22-24.09,14.99-15.83,13.97-15.11,18.02-18.83,10.83-12.05c-7.61,7.04-14.79,14.15-21.81,21.93l-18.02,18.98-14.24,14.94-12.11,12.63-3.12,3.14-22.4,21.29-.09,7.16ZM90.32,244c0-.45-.37-.82-.82-.82s-.82.37-.82.82.37.82.82.82.82-.37.82-.82ZM82.15,264.46c.55,1.27.78,1.82.4.93l4.44-12.53,1.51-2.99.19-4.03-2.49,5.38-3.06,8.82-.98,4.41ZM122.96,259.47l10.21-10.17,1.51-3.5-16.62,16.83c2.5-1.15,3.65-2.04,4.9-3.16ZM202.16,256.97l3.95-3.58,1-2.47,2.75-4.87-2.89,2.7-2.13,3.35-2.69,4.87ZM94.38,259.74l2.29-6.74-.14-6.29-6.45,17.44,4.29-4.41ZM195.67,293.19l1.34-3.16,1.36-3.53,7.05-15.18,2.44-4.22,3.95-7.36,8.1-12.68-5.65,4.15-7.91,16.09-1.96,2.23c-2.98,5.72-5.47,11.29-7.78,17.14l-2.96,8.51-.43,3.93,2.43-5.9ZM102.35,249.62l-2.53-.64-.99,2.15.72,1.92,2.8-3.43ZM163.27,289.81l9.39-9.17,17.63-16.47,9.43-15.21-14.85,14.95-13.92,15.09-7.68,10.81ZM95.04,273.97l13.63-20.72-11.87,9.71-1.75,11.01ZM195.13,280.02l10.66-20.25,1.8-3.08c.2-.14,0-.2-.56-.19l-2.36,3.23c-3.42,6.72-6.83,13.11-9.54,20.28ZM98.99,279.25l2.36-1.58,3.67-4.76,5.97-6.9,6.03-6.97-2.76,1.86-11.31,11.89-1.94,3.21-2.01,3.25ZM89.07,327.02l5.92-5.21,9.11-8.7,12.98-13.05,28.62-30.13c3.18-3.36,6.29-5.84,8.49-10.05l-9.18,8.3-10.81,10.15-17.21,15.69-6.17,7.03-17.81,20.9-3.94,5.08ZM79.64,288.36l2.4-7.36,2.93-10.02,1.48-4.27.08-3.93-4.28,11.52-.53,3.34-.96,2.34-1.08,4.06-.72,4.06c.7,2.23.83,2.2.69.26ZM196.66,268.48h.69s2.58-5.56,2.58-5.56l-2.08,1.81-1.18,3.74ZM89.18,292.75l4.12-25.01-3.81-1.05-3.18,10.53-4,22.96,6.87-7.43ZM148.4,290.18l13.68-14.01,7.69-9.23-21.02,20.71-.35,2.53ZM90.21,304.97l24.37-32.29,3.17-4.83-15.07,14.87-11.78,13.38-.7,8.88ZM181.86,273.4l-37.82,40.06,1.71,1.61,37.82-40.06-1.71-1.61ZM95.26,282.67l1.85-5.74-2.52-.69-1.56,11.02c1.43-1.23,1.9-2.51,2.24-4.59ZM155.38,310.5l2.12-2.01,2.05-1.87,14.41-14.63,6.18-5.32c.88-1.99,1.81-4.78,2.36-7.02l-16.91,18.1-7.53,8.32-10.11,10.73-2.77,4.33,8.57-8.39,1.62-2.24ZM106.33,301.14l7.75-8.06,8.42-9.82c-2.13.49-3.67,2.1-4.4,3.96l-16.21,16.54,4.44-2.63ZM188.35,288.92l1.66-3.02-2.09,1.57.44,1.45ZM546.49,292.06l14.53-.86,20.06-.4-5.53-1.71-28.6.73-42.08.43c3.97.73,7.06.77,11.34.87l1.08.86,29.19.09ZM188.32,291c0-.45-.37-.82-.82-.82s-.82.37-.82.82.37.82.82.82.82-.37.82-.82ZM478,292.5c0-.28-.22-.5-.5-.5s-.5.22-.5.5.22.5.5.5.5-.22.5-.5ZM179.87,298c2.51-.88,2.71-3.32,1.47-5.09l-1.47,5.09ZM485,293v1h20.5v-1h-20.5ZM577.68,294.79c-2.35-3.04-5.64-1.96-8.05-1.16l-8.77.99c5.43.39,10.25.39,16.82.17ZM594.19,293.46l-14.18-.67c.56,1.57.92,2.61.55,1.56l13.62-.89ZM143.41,337.25l11.28-11.47,20.72-21.62,2.32-10.25-20.11,21.72-13.34,14.28-.88,7.35ZM184.69,302.47l1.85-4.52.11-4.05-2.83,8.11c.88,2.28,1.03,2.26.87.46ZM616.12,295c0-.62-.5-1.12-1.12-1.12s-1.12.5-1.12,1.12.5,1.12,1.12,1.12,1.12-.5,1.12-1.12ZM623,298.03l-1.37-4.04-3.98.3,3.41,2.41,1.57,5.47.37-4.13ZM407,295v1h18.5v-1h-18.5ZM432,295.5c0-.28-.22-.5-.5-.5s-.5.22-.5.5.22.5.5.5.5-.22.5-.5ZM612.09,295.48c-2.7-.44-5.04-.43-7.19.03,2.7.44,5.04.43,7.19-.03ZM367.58,297.56l-6.84-1.85-.27,8.13,7.1-6.28ZM90.11,310.89c4.66-3.98,8.8-8.12,12.78-12.78-4.66,3.98-8.8,8.12-12.78,12.78ZM85.23,356.43c2.34-2.39,3.64-4.07,4.67-6.02l1.46-4.25,22.6-25.13,12.05-12.97,8.85-10.01c-5.6,5.05-10.79,10.2-15.83,15.92l-11.88,12.32-15.87,14.96-6.07,5.69.02,9.48ZM373,298.5c0-.28-.22-.5-.5-.5s-.5.22-.5.5.22.5.5.5.5-.22.5-.5ZM379.14,300.65l2.87-2.58-2.87,2.58ZM384.38,302.96l4.85-4.92-3.25,1.27-1.6,3.65ZM584.64,309.24l11.33-10.58-5.39-.32-8.68,7.83,2.74,3.07ZM383.16,313.1l14.71-13.9c-1.43-.11-3.28,0-3.9.22l-7.98,9.51-2.84,4.16ZM394.33,310.16l10.88-10.51c-1.49-.88-3.62-.38-4.24,1l-12.42,13.48c-.05-.21.1.42.33,1.44l5.45-5.41ZM383.15,329.02l13.91-12.92,18.51-16.36-6.28-.4-16.55,18.53-5.8,5.96-3.79,5.19ZM406.82,327.12l15.06-14.39,12.94-11.87,1.49,1.87-3.19,4.45,7.99-7.68-15.46-.22-11.71,12.66-8.78,10.08,17.68-17.3,2.77-.33-.55,2.56-4.88,5.11c-4.5,5.24-9.87,8.93-13.37,15.05ZM458.4,302.56l3.98-1.21,9.79-.97-18.86-.69-7.67-.6-2.92,3.61,6.16-.08,3.15-1.8,6.38,1.74ZM483.18,299.42l-6.24-.57c.52,1.5.87,2.53.56,1.62l5.68-1.05ZM601,299.5c0-.28-.22-.5-.5-.5s-.5.22-.5.5.22.5.5.5.5-.22.5-.5ZM593.95,319.31l16.93-14.61c1.54-1.35,2.07-3.9,1.45-5.84l-7.07-.13-2.1,4.46-11.58,13.1,2.38,3.02ZM617.27,299.5l-1.88-.57-.41,2.26,2.29-1.69ZM414.83,305.97l3.09-3.04,3.37-2.74-5.46-.22,1.04,1.5-.72,1.77-23.02,23.63,21.7-20.9ZM506.75,301.61l3.49-1.28-5.52-.57-1.95,2.22,3.98-.37ZM80.14,318.02l6.43-7.93,1.2-9.41-6.84,6.42-.79,10.92ZM469.21,328.18l25.51-22.8-2.98-1.04,5.61-1.47,1.91-1.84-6.76.44-31.9,32.25-7.66,8.31-12.79,13.92,19.73-19.12,9.33-8.66ZM504.83,328.83l25.28-22.67,2.21-.61.8,1.65-1.24,1.61-6.15,5.96-24.74,26.04-7.83,9.19,12.82-12.18,13.9-12.92,23.43-22.83c-3.52-.58-6.82-.69-10.28-.59l-13.97,1.25-1.03,3.54-20.96,22.63-9.88,11.1,21.73-21.19,10.24-9.89,2.71-.4-.72,2.51-15.48,15.56-31.52,32.28,30.68-30.03ZM543.4,307.86l4.39-3.94,2.17-.82,2.11-.52-.55-1.7-1.91.93-4.34.37c-.11-.25.14.3.6,1.33l-6,6.33,3.52-1.98ZM406.87,381.48l-10.64,10.85,3.87-.35,44.13-44.68,11.57-12.42,32.26-32.63-10.25,8.72-22.67,22.18-16.03,15.72-21.29,21.93-10.94,10.69ZM555.12,309.78l8.24-7.66-7.53-.57-2.28,5.68c-.12-.04.7,1.28,1.57,2.55ZM564.84,304.87c2.73-.18,3.58-1.29,2.9-2.92l-2.9,2.92ZM571.7,309.91l8.41-7.69-6.86-.48-5.64,6.18,4.08,2ZM591.14,313.08l9.04-11-6.06,4-6.79,5.28,1.16,2.63,2.64-.91ZM621.56,316.59c1.31-1.97,1.59-3.32.95-3.53l-.8-4.13-.81-4.13-1.7-2.92.22,4.46,1.25,4.05.89,6.2ZM460.83,318.68l10.05-8.81,7.41-6.57c-2.87-.69-4.63.11-6.18,1.58l-5.38,5.89-25.57,26.24c7.89-5.42,13.13-12.19,19.67-18.34ZM451.37,363.87l25.9-25.47,11.92-11.23,13.05-11.78,13.8-12.23-8.89.39-4.07,5.56-26.49,26.61-11.36,12.37-6.31,6.89-7.56,8.91ZM624.32,304c0-.45-.37-.82-.82-.82s-.82.37-.82.82.37.82.82.82.82-.37.82-.82ZM420.09,330.67l7.86-7.73,18.11-17.31-4.7-1.55-19.43,22-6.96,7.84-5.83,7.09,10.95-10.34ZM403.14,358.05l9.81-9.35,31.76-30.94,14.59-13.33-8.09.59-18.91,20.17-20.1,21.88-4.27,4.9-4.8,6.09ZM451,319.64l12.26-11.38,4.88-4.34-5.07.83-12.83,13.42-27.32,27.53-5.68,7.39,33.74-33.45ZM485.18,322.05l17.95-17.36c-1.75-.29-3.47.05-4.41.88l-9.47,10.55-13.27,13.7,9.21-7.77ZM616.62,313.57c1.56-2.01,1.61-3.84.79-4.76l-.83-4.94c-.77,1.32-1.34,2.29-1.14,1.94l1.18,7.76ZM78.34,305.75c-.09-1.1-.06-.69.04.44.23,2.32.22,2.16-.04-.44ZM177.58,314.59l1.33-4.1-.39-5.81-2.04,7.34-.29,4.04,1.4-1.47ZM548.75,305.2l-52.55,49.44,1.76,1.87,52.55-49.44-1.76-1.87ZM558.06,311.94c2.28-1.8,4.07-3.59,5.88-5.88-2.28,1.8-4.07,3.59-5.88,5.88ZM611.92,309.5l1.16-2.7-3.33,2.9,2.16-.2ZM75.14,333.98l1.69-5.4.19-9.83,1.08-1.07-.42-8.79-1.47,6.55-.2,8.79-.94,2.19.07,7.57ZM564.46,316.27l5.45-5.57-3.91-1.37-4.81,4.85,3.27,2.09ZM580.12,308.23l-4.67,4.44,2.44,2.57,4.67-4.44-2.44-2.57ZM149.27,336.77l13.6-13.05,10.22-8.95.82-4.85-13.87,15.06-10.76,11.8ZM551.12,309.8l-6.7,7.38,1.72,1.56,6.7-7.38-1.72-1.56ZM599.41,326.03l3.4-3.23,9.5-6.84c.85-.79,1.23-2.66,1.06-4.28l-5.23,4.49-7.58,7.56-1.62.74.48,1.56ZM84.99,370.15l18.42-20.77,19.73-22.23,11.75-13.88-1.8.28-4.22,4.22-16.83,16.25-13.32,13.54-14.32,15.04.61,7.57ZM90.33,314.59c.72-.8.39-.44-.47.5-.99,1.03-.77.8.47-.5ZM555,313.5l-7,7,1,1,7-7-1-1ZM571.56,320.87l4.7-4.4-1.37-2.01-1.5.1-4.42,4.23.68,1.85,1.91.23ZM585.17,313.61l-4.23,4.16,2.5,2.54,4.23-4.16-2.5-2.54ZM61.49,349.95l2.49-19.91-.24-6.19-2.33-8.97-1.16,10.39-.62,19.72.79,14.15,1.07-9.19ZM87.29,324.15l6.91-6.87.5-2.43-6.91,6.87-.5,2.43ZM360.04,318.96c1.53-1.25,2.67-2.4,3.92-3.92-1.53,1.25-2.67,2.4-3.92,3.92ZM142.5,317.07q0-1.25,0,0,0,2.33,0,0ZM559.73,315.58l-8,7.52,2.23,2.37,8-7.52-2.23-2.37ZM620.29,316.67l-3.42-.53.39,4.17,3.03-3.64ZM79.12,325.2l6.44-6.17c-1.08-.54-1.73-.87-1.2-.61l-4.48,3.36-.76,3.42ZM174.43,326.01c3.91-1.52,4.93-4.91,3.93-8.08-2.79,2.16-4.17,4.95-3.93,8.08ZM149.12,342.87l24.02-23.62c-1.77-.41-3.57,1.16-4.05,2.95l-19.98,20.67ZM577.52,325.94l4.32-4.44-2.41-2.25-4.97,4.37,3.05,2.32ZM589.92,318.6l-4.37,3.83,1.87,2.13,4.37-3.83-1.87-2.13ZM541.31,322.73c1.12-1.01,1.86-2.33,1.41-2.56l-1.41,2.56ZM623,320.5c0-.28-.22-.5-.5-.5s-.5.22-.5.5.22.5.5.5.5-.22.5-.5ZM133.29,327.76l2.75-3.7,1.82-3.25-2.92,3.12-3.97,5.17,2.31-1.33ZM361.42,328.49l3.62-4.4,1.9-3.14-5.06,4.16-1.27,1.68.82,1.7ZM519.79,343.02l14.16-13.93c2.52-2.53,4.38-4.96,5.89-8.13l-11.68,10.18-12.93,12.3,2.28,1.29,2.27-1.71ZM566.94,320.83l-7.84,7.56,2.07,2.15,7.84-7.56-2.07-2.15ZM612.21,323.76l2.95-2.1-1.4-1.11-7.79,8.35,6.24-5.14ZM137.16,330.14l6.02-5.81.67-2.33-2.45,1.32-2.37,3.55-1.88,3.27ZM445.79,379.78l10.51-11.6,20.82-22.07,12.59-13.28,6.37-6.62,2.76-4.3-8.85,8.35-43.18,42.42-17.31,17.63,7.18-.14,9.12-10.39ZM609,322.5c0-.28-.22-.5-.5-.5s-.5.22-.5.5.22.5.5.5.5-.22.5-.5ZM191.52,377.17l.75-8.31-1.2-1.16-.2-11.33-.96-2.23.14-17.26-.79-1.17-.86-12.85-.61,20.26,1.2,1.17-.03,13.88,1.04,1.15-.08,7.81.76,2.2.84,7.83ZM537.13,332.07l6.25-5.73,2.29-1.81,1.04-1.82-5.97,4.17-8.86,8.91,5.24-3.72ZM604.92,326.55l1.9-3.74-5.01,5.01,3.12-1.27ZM620.16,323.13c-2.73.18-3.58,1.29-2.9,2.92l2.9-2.92ZM370.9,329.96l-10,9.18,1.2,8.22,13.94-15.26,6.78-8.13-13.13,12.84-4.69,5.44-1.7-1.68.76-1.6,3-3.98,3.86-5.03ZM584.81,323.88l-4.42,3.85,1.51,1.73,4.42-3.85-1.51-1.73ZM623.5,325.07q0-1.25,0,0,0,2.33,0,0ZM82.79,332.1l2.05-7.67-6.12,4.54.3,6.24,3.77-3.11ZM162.2,338.07l8.19-8.07c.69-.88,1.31-2.94,1.22-3.84l-8.32,9.24-1.1,2.67ZM538.14,337.11l3.7-3.25,9.08-6.74-1.31-1.49-8.64,7.21-6.2,5.91,3.37-1.65ZM573.03,325.16l-8.33,7.94,2.37,2.49,8.33-7.94-2.37-2.49ZM597.82,327.5c0-.45-.37-.82-.82-.82s-.82.37-.82.82.37.82.82.82.82-.37.82-.82ZM614.65,329.53l.16-2.71-3,2.91,2.84-.21ZM175.75,334.64l.58-4.32.64-2.42-3.06,2.39.34,7.81,1.5-3.46ZM620.91,328.12l-2.66.73v3.2s2.66-3.93,2.66-3.93ZM75.31,370.34l-1.33-2.23v-10.79s-.98-1.2-.98-1.2c.02-9.13.15-17.21-.57-26.23l-.53,32.18.96,1.25.34,8.26,1.42,4.58.68-5.82ZM372.1,367.04l6.86-6.25,14.9-13.9,14.18-16.74-3.02,2.08-22.28,21.49-6.76,8.21-3.89,5.1ZM415.73,391.07l14.2-15.23,35.79-38.86,6.28-6.9-7.15,6.1-26.64,26.04-31.57,29.54,9.1-.69ZM578.44,332.26l1.63-.73-.52-1.6-1.95.61-6.48,7.54c3.33-1.88,4.96-3.6,7.32-5.81ZM600.03,329.34l-5.37,4.24,2.76.15,2.62-4.39ZM611,330.5c0-.28-.22-.5-.5-.5s-.5.22-.5.5.22.5.5.5.5-.22.5-.5ZM70.57,398.36l.87,5.29.72,4.5,1.47,3.31c-.5,1.96-.37,1.77.43-.4l-.66-3.41-.8-5.31-.57-3.37-.7-3.35-.62-7.29-.55-2.26-1.07-15.13-.77-4.32-.24-5.62-1.17-19.95-.13-10.17-1.47,5.55-.83,7.58-1.94,29.03,2.16,14.03.91,2.33,1.26,2.87-.25-5.03-1.48-14.22-.4-13.4,1.81-1.09.81,13.22,1.53,16.29.79,4.95.91,5.38ZM361.75,333.86l1.11-2.78c-1.71,1.31-2.43,2.71-1.11,2.78ZM536.06,351.96l6.99-5.89,15.07-12.86.26-1.9-1.88-.08-13.54,12.6-9.33,8.9-2.31,1.21.3,1.53,4.44-3.51ZM179,332.5c0-.28-.22-.5-.5-.5s-.5.22-.5.5.22.5.5.5.5-.22.5-.5ZM362.97,351.62l-.31,3.47,10.11-11.19,11.28-11.74-6.01,4.85-2.02,1.67-5.12,5.19-7.92,7.75ZM363.02,364.2l5.02-6.22,10.74-12.11,13.22-13.71-11.11,9.77-16.36,15.69c-1.49,1.84-2.13,3.96-1.5,6.57ZM618.65,339c2.77-.92,3.33-3.31,2.06-5.41-2.11.86-3.02,3.2-2.06,5.41ZM134.13,346.16l6.1-5.43.91-7.16-6.71,6.95-.3,5.64ZM144.48,365.93l10.56-10.15,5.34-6.1,2.65-1.58,8.18-7.98-.38-6.25-19.64,23.29-4.21,4.85-6.44,7.54,1.96-.65,1.99-2.95ZM614.96,333.99c-2.47.91-3.45,1.91-4.89,3.73,1.88-.51,3.64-1.72,4.89-3.73ZM129,336q.98-.98,0,0-.98.98,0,0ZM558.97,342.76l6.07-5.52-1.61-2.04-2.02,1.22-19.62,19.41c-1.31,1.12-2.47,2.38-3.14,4.1,7.48-4.95,13.57-10.75,20.32-17.17ZM577.08,342.92c2.98-2.4,5.44-4.86,7.84-7.84-2.98,2.4-5.44,4.86-7.84,7.84ZM594.05,336.95l-.47-2.03-1.8.59,2.27,1.44ZM75.34,336.75c-.09-1.1-.06-.69.04.44.23,2.32.22,2.16-.04-.44ZM77.87,350.32l4.83-5.54.68-9.06-5.09,4.89-.42,9.71ZM86.23,385.4l18.59-19.6,15.84-17.25,7.22-10.64c-3.91,3.26-7.16,6.57-10.63,10.35l-15.08,16.88-11,12.05c-2.51,2.21-4.89,4.59-4.95,8.21ZM176.99,359.04l2.06-1.28-.18-19.82-1.82,3.45-.06,17.65ZM440.32,339c0-.45-.37-.82-.82-.82s-.82.37-.82.82.37.82.82.82.82-.37.82-.82ZM590.08,337.33l-9.38,8.5,1.57,1.74,9.38-8.5-1.57-1.74ZM391.26,356.8l7.76-8.71,1.81-1.94,6.01-7.14-13.86,13.88-6.98,8.06-4.85,6.08c3.52-3.17,6.72-6.37,10.1-10.23ZM608.11,341.04l-.51-2.27-4.59,5.07,5.09-2.8ZM569.27,340.5l-1.88-.57-.41,2.26,2.29-1.69ZM614.82,340.5c0-.45-.37-.82-.82-.82s-.82.37-.82.82.37.82.82.82.82-.37.82-.82ZM174.85,345.98l.33-3.35c-.58-.21-1.43-.52-.67-.24l-1.48,2.18,1.82,1.41ZM608.92,347.13l3.5-5.14-4.68,3.02-.85,1.53,2.03.59ZM473.22,367.63l10.19-11.33,4.65-5.3,6.74-8.01-30.79,29.93-16.51,15.9,7.42.34,18.3-21.54ZM102.22,379.16l9.4-9.41,19.59-19.89.09-5.96c-6.11,6.5-11.42,12.87-17.08,20.3l-9.22,10.67-2.78,4.29ZM485.71,363.88l5.4-5.71,1.71-2.15,11.02-11.99-19.8,19.17-24.12,25.16c1.15.65,2.83.48,4.02-.35l21.77-24.13ZM621.98,351.16l.27-7.65-3.61,3.03,3.34,4.62ZM88.97,374.69l5.4-8.19,7.57-9.51,6.09-6.88,3.81-5.19c-2.49,2.29-4.67,4.51-6.86,7.07l-7.19,8.11-10.78,11.94c-2.19,2.16-3.2,4.65-1.49,8.05,1.13-1.56,2.14-3.12,3.45-5.4ZM495.41,365.01l10.78-9.78,7.04-6.08,1.58-2.16-1.97-1.51-20.09,19.3-8.84,8.94,2.3-.56,9.2-8.15ZM565.09,354.91c3.65-3.03,6.79-6.16,9.81-9.81-3.65,3.03-6.79,6.16-9.81,9.81ZM595.12,352.04c2.44-1.89,4.72-3.93,6.04-7.16l-7.15,6.31c-1.76,1.13-3.44,2.61-4.23,4.78l5.33-3.93ZM170.02,355.92l-.03,4.61,2.37-2.1-1.6-13.03-7.58,7.7-.17,6.2,4.48-3.77-.32-2.68.95-.22,1.89,3.28ZM523,347q.98-.98,0,0-.98.98,0,0ZM622.17,407.01l1.63-4.96.96-3.85,1.38-9.22.66-4.96,1.47-12.04c-.05-1.51.1-3.04.62-4.36l.05-20.66-1.86,3.46-.19,17.24-1.02,2.26-.92,12.18-.66,4.8-1.55,12.19-.57,2.31v5.63ZM555.77,371.59l23.56-21.4-.22-1.8-1.34.17-11.61,10.59-9.08,8.9c-.82,1.19-1.47,2.22-1.31,3.54ZM598.16,355.11l6.09-5.75c.99.65.61.4-.41-.27l-3.14,1.8-6.84,6.91,4.3-2.69ZM616.38,348.47l-4.56,2.74.79,1.32,4.56-2.74-.79-1.32ZM189.81,386.15l-.31-5.51-.97-8.28-.5-5.43-.78-4.35-.35-11.47-2.19-.93.97,5.23.66,11.18.69,4.38.57,4.38.69,6.26,1.53,4.53ZM535.08,357.92c2.98-2.4,5.44-4.86,7.84-7.84-2.98,2.4-5.44,4.86-7.84,7.84ZM82.35,360.79l.03-10.2-4.71,4.51-.12,10.21,4.81-4.52ZM366.6,394.84l8.16-9.51,8.35-9.24,6.88-8.15,9.06-9.82,1.83-1.85,2.89-4.4-12.84,12.96c-1.62,2.4-3.65,4.44-5.91,6.35l-7.2,7.65-13.83,15.05-.06,4.39,1.75.82.23-2.19.7-2.05ZM620.37,354.66l.71-2.22-1.66-.52-.76,2.66,1.71.08ZM601.11,362.07l3.82-3.14,4.44-2.93,1.93-2.92-3.46,1.86-6.74,6.04-3.31,2.83,3.33-1.74ZM617,354.5c0-.28-.22-.5-.5-.5s-.5.22-.5.5.22.5.5.5.5-.22.5-.5ZM110.85,364l-11.96,11.96-13.31,13.92,1.32,14.54,5.8-7.22,21.59-23.92,2.69-3.51,11.19-11.55.52-2.54-1.54,2.65-15,14.94-9.29,9.55-11.86,12.2-2.41.63-.59-2.51,8.75-12.38,8.21-9.68,5.91-7.08ZM602.08,368.56l12.34-9.4.58-2.29-1.82-.51-12.49,11,1.39,1.2ZM159.26,363.48l.81-6.83-5.35,6.25-.72,6.26,5.26-5.68ZM384.84,393.37l10.74-11.93,7.52-8.27.69-2.47-1.81,2.43-22.07,22.72-1.84.64-.92-1.82,24.79-29.64,6.94-8.05-9.75,9.33-20.18,20.57-11.97,11.97,12.02-.26,6-.96,3.52-.34,1.49-3.25-4.49,2.43-.67-3.1ZM498.8,381.75l-6.79,6.58,5.77.22,1.96-3.7,13.21-14.86,12.06-12.86-5.98,4.82-2.72,2.31-1.81,2.31-1.53,1.67-4.78,4.78-9.37,8.73ZM568.47,378.49l19.56-19.42.34-1.43-1.15-.49-21.3,18.96.77,2.37,1.79.02ZM622.73,357.23c.36-.04-.46.05-2.62.31l.98,2.16c.9.49,1.03,1.17,1.64-2.47ZM140.07,364.93c2.63-2.1,4.76-4.22,6.86-6.86-2.63,2.1-4.76,4.22-6.86,6.86ZM99.61,400.92l18.42-21.84,5.97-7.02,1.76-2,6.28-6.9,2.77-4.31c-1.37,1.39-2.58,2.73-3.82,4.33l-14.09,14.73-9.09,9.89-20.49,20.59,1.08,4.87,11.21-12.34ZM161.1,368.89l7-6.24-.68-3.59-5.1,4.86-1.22,4.96ZM468.68,388.78h12s14.03-16.08,14.03-16.08l6.25-6.73c2.18-2.49,4.32-4.78,5.72-7.33l-20.38,17.66-8.5,6.95-2.71-1.49-6.42,7.02ZM533,359.5c0-.28-.22-.5-.5-.5s-.5.22-.5.5.22.5.5.5.5-.22.5-.5ZM611.14,370.15l5.58-3.93-.09-5.27-11.94,9.84-.77,1.37,1.44,2.27,5.77-4.28ZM170.99,363.91c1.35.09,2.01-.56,1.92-1.92l-1.92,1.92ZM179.83,376.97l.36-5.17-1-2.15-.42-7.91-2.02,2.66,1.23,2.48.07,7.79,1.77,2.31ZM506.96,386.98l8.22-8.85,9.7-10.16,5.19-5.85-3.26,1.83-16,14.8-10.02,9.47c2.34.99,4.5.43,6.17-1.25ZM536,362.5c0-.28-.22-.5-.5-.5s-.5.22-.5.5.22.5.5.5.5-.22.5-.5ZM621.65,369.99l.49-6.75-2.25-1.3.37,15.21,1.38-7.16ZM363.73,373.39l7.31-10.42-8.28,5.26.98,5.16ZM553,363.5c0-.28-.22-.5-.5-.5s-.5.22-.5.5.22.5.5.5.5-.22.5-.5ZM363.61,383.91l9.25-11.04,7.03-8.78-16.23,14.06-.05,5.76ZM406.04,368.96c1.53-1.25,2.67-2.4,3.92-3.92-1.53,1.25-2.67,2.4-3.92,3.92ZM533,365.5c0-.28-.22-.5-.5-.5s-.5.22-.5.5.22.5.5.5.5-.22.5-.5ZM551,365.5c0-.28-.22-.5-.5-.5s-.5.22-.5.5.22.5.5.5.5-.22.5-.5ZM79.06,377.18l3.16-4.17-.34-7.32-4.16,3.4,1.34,8.09ZM139.74,384.31l10.41-11.44,1.79-7.04-11.45,12.01c-.62,1.92-.97,4.38-.75,6.47ZM160.06,375.2l9.11-8.78c-1.19.02-2.74.04-1.47.02l-3.61,3.71c-2.09.9-3.73,2.5-4.03,5.05ZM561.27,375.23l8.79-9.09-7.19,5.93c-.95.26-1.74,1.67-1.61,3.16ZM91.58,422.42l10.34-11.57,18.74-22.05,16.22-18.97.91-3.22-6.03,6.2-5.59,5.55-28.87,30.32-7.73,8.63,2.01,5.11ZM521.02,381.49l9.96-10.67,2.92-3.81-8.94,7.92-13.93,12.44-1.1,3.01,1.93,1.3,9.15-10.2ZM174.21,372.15l-.42-3.04c.56-1.55-1.46-.87-2.1.21l.82,4.02.99,1.72,1.6-.52-.89-2.4ZM378.03,370.97l2.95-2.95-2.95,2.95ZM151.04,377.75c.35-.08,2.1-.48,1.52-.35l5.64-6.34-.72-2.27-1.91,2.72-2.03,1.96-2.5,4.27ZM546,370q.98-.98,0,0-.98.98,0,0ZM617.85,370.3l-2.57-1.1-5.42,5.8,8-4.69ZM594.03,375.05l4.38-3.6c1.3-.53.78-.83-1.47-.95l-8.02,8.33,5.11-3.79ZM552.91,374.34c1.05-.39,1.15-2.32-.15-2.59l-3.98,4.34,4.14-1.75ZM157.57,390.89l13.63-13.94-1.73-4.29-9.7,11.35c-1.68,1.86-2.56,4.54-2.2,6.88ZM575.7,384.63l2.16-.11,4.32-3.48,6.99-6.83-4.29,2.73-5.79,5.05-3.39,2.63ZM603.54,376.71l-1.7-2.94-1.79,1.28c-6.15,5.38-11.88,9.85-17.23,16.09l20.72-14.42ZM521.59,395.7l.68-2.51,1.62.35,6.22-6.45,7.92-10,.68-2.24-7.85,8.05-11.19,10.76-1.47,3.29.22,4.48c2-1.14,3.11-3.09,3.16-5.71ZM616.57,381.47l-.57-7.09-6.61,5.76,2.12,4.52,5.06-3.19ZM495.06,381.94c2.28-1.8,4.07-3.59,5.88-5.88-2.28,1.8-4.07,3.59-5.88,5.88ZM559,375.5l-5.5,5.5,1,1,5.5-5.5-1-1ZM81.92,385.35l.06-8.58-2,1.83-.17,5.22,2.11,1.53ZM155.5,378l-5.5,5.5,1,1,5.5-5.5-1-1ZM176.69,385.52l-1.02-6.18c.52-2.1-1-1.34-2.13.29l2.74,6.86c.13,2.15.25,1.55.41-.96ZM529.6,397.13l17.58-16.84-.05-1.75-2.14.55-15.19,15.5-4.89,5.26,4.69-2.72ZM147.74,382.87l.63-3.87-9.58,11.23c3.91-2.13,5.18-4.06,8.96-7.36ZM192.51,384.08c.26-1.99.25-3.74-.03-5.16-.26,1.99-.25,3.74.03,5.16ZM563.42,378.51l-6.68,6.34,2.28,2.4,6.68-6.34-2.28-2.4ZM619.37,396.15l1.14-9.78.35-5.48-1.87,4.59.38,10.68ZM163.33,401.36l10.88-11.01-2.46-8.59-17.29,19.74-2.28,11.56,11.15-11.7ZM588.42,393.62l1.44,2.05,2-.89,13.34-12.5-3.22,1.63-13.55,9.71ZM135.88,388.99c.51-1.81.73-3.75.63-5.59-4.56,5.33-8.42,9.44-12.03,15.81,5.25-2.62,6.83-6.17,11.4-10.22ZM429.5,383l-7.5,7.5,1,1,7.5-7.5-1-1ZM551.07,382.32l-10.72,10.5,1.42,1.45,10.72-10.5-1.42-1.45ZM595.06,395.7l14.38-9.56-1.59-3.12-4.12,3.69-8.66,8.98ZM361.32,385c0-.45-.37-.82-.82-.82s-.82.37-.82.82.37.82.82.82.82-.37.82-.82ZM364.05,388.95c1.92-1.52,3.38-2.98,4.9-4.9-1.92,1.52-3.38,2.98-4.9,4.9ZM187.51,396.79l1.07,2.72,2.11,2.57-2.65-9.11-2.66-8.07.14,3.94,1.3,4.09.69,3.87ZM94.85,432.62l5.29-8.64.24-2.31h1.51s17.12-21.47,17.12-21.47l.93-1.34,6.06-6.74,3.07-4.05.73-2.37-1.81,2.39-5.98,6.88-2.96,2.93-15.92,17.16-10.59,11.88,2.31,5.67ZM152.04,389.68l1.72-3.9-4.96,5.2,3.24-1.3ZM565.23,395.47l7.4-6.1c.93-.49,2.07-1.92,2.41-3.36l-6.1,5c-1.57.97-2.93,2.33-3.72,4.46ZM540.07,403.57l15.2-13.34,1.4-1.73-1.33-1.66-2.2,1.25-15.04,14.82-4.67,5.35c-.16-.39.13.32.5,1.22l6.14-5.91ZM615.65,387.03h-1.65s-.73,1.97-.73,1.97l1.58.69.8-2.66ZM624.11,414.99l1.72-4.93.88-4.02,1.03-3.99.85-4.43.9-6.31.27-4.47-1.48,4.53-.64,5.25-.98,4.39-.89,5.06-1.21,4-.46,4.92ZM83.27,388.5l-1.88-.57-.41,2.26,2.29-1.69ZM146.5,388l-7.5,7.5,1,1,7.5-7.5-1-1ZM183.22,394.8l-.32-5.52-1.49-1.3-.49,1.96,1.24,2.85.18,2.2.88-.19ZM443,388.5c0-.28-.22-.5-.5-.5s-.5.22-.5.5.22.5.5.5.5-.22.5-.5ZM194.32,390c0-.45-.37-.82-.82-.82s-.82.37-.82.82.37.82.82.82.82-.37.82-.82ZM603.16,398.27l8.92-6.35.39-1.88-1.24-.58-13.04,10.05c1.75-.32,3.33-.73,4.97-1.23ZM511.75,398.32l4.29-4.24,2.91-4.03-7.02,5.34-.17,2.93ZM84.2,457.9l-10.26-32.92-6.8-19.74,2.05-3.66-3-5.54-3.05-5.07c.88,11.9,2.44,23.63,4.59,36.11,3.13,13.59,7.05,26.15,12.42,38.65,4.44,9.19,8.38,18.01,15.49,25.79l-4.58-13.49-2.44-7.03-4.42-13.09ZM478.04,393.44l2.01-.91c-.15-.35-.72-1.65-.52-1.2l-11.98-.03c-1.35.1-2.78.93-4.33,2.6l14.82-.47ZM493.09,391.48c-2.34-.36-4.39-.36-6.18.03,2.34.36,4.39.36,6.18-.03ZM569.59,398.96l5.73-5.76,2.38-1.12-.4-1.53-5.27,4.45-4.23,3.46,1.79.5ZM129.18,401.34l7.02-7.08.47-2.44-7.76,7.92-1.7,2.97,1.35.34.62-1.71ZM152.46,391.96l-5.21,6.11,1.64,1.4,5.21-6.11-1.64-1.4ZM178.85,391.73l-2.12.42,1.42,7.12,2.12-.42-1.42-7.12ZM361,392.5c0-.28-.22-.5-.5-.5s-.5.22-.5.5.22.5.5.5.5-.22.5-.5ZM439.49,394.44c.02-.52.11-2.74.08-1.91l-7.73.97,7.65.93ZM450.29,394.12l1.91-2-8.49-.25-1.91,2,8.49.25ZM461.35,392.32l-6.46.08,1.92,2.44,4.53-2.53ZM582.26,392.6l-1.94-.68-3.38,4.01,5.31-3.33ZM196.87,407l-.45-4.92-.99-4.45-1.11-4.78v4.73s.85,5.56.85,5.56l1.69,3.86ZM510.14,394.25l-1.83-1.44-5.85,3.04,4.02,1.91,3.66-3.51ZM83,394.5c0-.28-.22-.5-.5-.5s-.5.22-.5.5.22.5.5.5.5-.22.5-.5ZM499.98,394.27l-7.09-.2c1.72,3,5.52,2.81,7.09.2ZM145.76,397.09l-.24-2.15c-3.31,3.33-5.67,5.26-7.78,9.18l8.01-7.03ZM149.18,430.11l27.55-28.36-1.39-6.46-1.62.6-21.64,26.28c-1.73,2.15-2.91,4.74-2.91,7.95ZM394.89,398.49l.91-3.42-4.35,1.71,3.44,1.72ZM595.76,424.28l-2.86,2.69,5.01-2.96,11.59-6.45,2.08-8.5,2.32-14.36-12.21,10.81,5.85,4.96c.05.06.95,3.05,1.02,3.36l-6.52,5-6.26,5.45ZM361.12,395.72l-1.47,1.03.79,2.32,1.65-.53-.98-2.82ZM410.98,397.88l-4.68-1.35c-2.21-.92-5.03-.96-6.48,1.36h11.15ZM532.45,402.71l4.95-6.69c-2,1.23-3.34,2.46-4.46,3.82l-3.88,5.34c1.32-.59,2.73-1.67,3.39-2.46ZM576.29,408.63l11.98-10.77-1.78-2.12-2.11.59-11.17,8.86,3.08,3.44ZM417.25,397.66c-2.6-.26-2.76-.27-.44-.04,1.13.1,1.54.13.44.04ZM558.05,401.95c1.92-1.52,3.38-2.98,4.9-4.9-1.92,1.52-3.38,2.98-4.9,4.9ZM134.65,403.02l1.33-4.26-4.27,4.06-1.8,4.38,4.74-4.19ZM107.32,419.86c1.84-1.73,3.35-3.27,4.72-4.85l6.01-6.98,6.41-7.9c-2.52,1.23-4.12,2.89-5.47,4.84l-4.97,6.02-4.03,4.94-2.66,3.94ZM541.24,422.17l6.88-5.11,8.89-8.05c3.3-2.8,6.15-5.64,9.07-8.83l-5.14,3.8-5.94,5.04-7.03,5.97c-2.69,2.08-4.99,4.32-6.73,7.18ZM181.37,404.66l.71-2.22-1.66-.52-.76,2.66,1.71.08ZM614.12,424.66l2-11.77-.37-11.02-1.39,5.08-3.47,18.3,1.68,2.16,1.54-2.75ZM143.5,403l-5.5,5.5,1,1,5.5-5.5-1-1ZM557,403.5c0-.28-.22-.5-.5-.5s-.5.22-.5.5.22.5.5.5.5-.22.5-.5ZM390.27,405.24l14.88-.74-16.23-.73-1.19.98-10.88.77,12.25.74,1.18-1.02ZM107.9,427.79l15-18.77,3.16-4.19-3.23,1.75-3.21,4.09-13.07,14.03-.49,2.65,1.85.44ZM134.91,404.65l-2.91,4.85,1.62.97,2.91-4.85-1.62-.97ZM513.41,409.4l.37-4.52-2,4.75,1.63-.23ZM519,405.5c0-.28-.22-.5-.5-.5s-.5.22-.5.5.22.5.5.5.5-.22.5-.5ZM522,406q.98-.98,0,0-.98.98,0,0ZM161.51,423.95l10.34-10.97,5.97-7.14c-3.98,2.53-6.35,5.09-9.06,7.87l-19.87,20.87,1.67,1.7,10.95-12.33ZM581.97,414.45l2.13-.37,4.95-4.05,4.15-3.87-3.22,1.81-3.17,1.97-4.85,4.51ZM188.32,408c0-.45-.37-.82-.82-.82s-.82.37-.82.82.37.82.82.82.82-.37.82-.82ZM519.87,413.57c.75-.04,2.48-.12,1.62-.08l5.58-6.36-3.48,1.74-3.72,4.7ZM520.07,454.92l14.79-11.81,27.1-22.04,12.28-10.75-3.42-3.75-35.29,29.98-26.89,26.06-5.69,6.29,5.13-3.91,11.98-10.08ZM598.12,413.96c-3.09,2.98-4.18,4.09-6.42,7.15l5.25-2.77,7.63-6.36-4.71-4.91-7.33,5.32-4.69,4.31,11.23-6.38c-.02,2.2-.31,2.98-.96,3.63ZM141.52,423.97l6.6-6.23,1.51-9.75c-3.92,3.98-5.6,7.36-8.02,12.06l-.09,3.92ZM122.01,415.98l5.92-6.72c-.19.05-2.01.53-1.55.41l-6.46,7.2-1.71,3.37,3.8-4.25ZM181.47,414.51l3.6-1.45c-.36-1.36-.58-2-1.56-4.49-.96,2.2-1.2,2.94-2.03,5.94ZM195.45,413.4l-2.28-4.45.46,3.92,2.16,3.14-.33-2.61ZM527.21,415.76l4.03-3.35.47-2.59-9.86,9.84c-1.12-.74-.72-.47.45.31l4.91-4.21ZM141.97,412.25c.22.3-.8-1.09-.86-1.18l-4.25,5.5c.79.03,2.54.11,1.56.07l3.55-4.39ZM485.41,460.09l2.23-4.57,1.69-2.25,6.69-13.31,2.08-3,2.98-4.83c3.51-5.43,5.67-10.71,7.37-17.2l.13-4.03-10.64,23.08-5.28,10.74-1.97,2.93-2.58,4.25-3.22,6.18-2.87,5,3.39-2.98ZM112.93,434.5l16.54-20.09.05-1.86-1.37.49-17.75,19.05,2.53,2.41ZM135,412.5c0-.28-.22-.5-.5-.5s-.5.22-.5.5.22.5.5.5.5-.22.5-.5ZM176,413q.98-.98,0,0-.98.98,0,0ZM190,413.5c0-.28-.22-.5-.5-.5s-.5.22-.5.5.22.5.5.5.5-.22.5-.5ZM75,414.5c0-.28-.22-.5-.5-.5s-.5.22-.5.5.22.5.5.5.5-.22.5-.5ZM158.17,439.07l9.14-8.91,7.23-7.66,5.08-4.99-.22-3.36-3.46,3.9-6.05,6.88-6.91,7.99-4.81,6.16ZM516.9,413.8l-2.3,6.9,1.5.5,2.3-6.9-1.5-.5ZM155.1,438.35l14.94-17.24,4.92-6.16c-1.41.25-2.8,1.44-3.31,2.57l-19.16,20.14-.6,1.68,1.64.93,1.57-1.91ZM191,415.5c0-.28-.22-.5-.5-.5s-.5.22-.5.5.22.5.5.5.5-.22.5-.5ZM184.62,423.84l3.7-2.79-2.43-5.71-3.07,3.2,1.81,5.3ZM568.14,427.07l5.85-5.1c2.22-1.42,4.1-3.33,5.26-5.96l-6.43,4.9-8.03,7.85,3.34-1.68ZM624.32,417c0-.45-.37-.82-.82-.82s-.82.37-.82.82.37.82.82.82.82-.37.82-.82ZM127.05,421.95c1.92-1.52,3.38-2.98,4.9-4.9-1.92,1.52-3.38,2.98-4.9,4.9ZM152,418q.98-.98,0,0-.98.98,0,0ZM587,417.5c0-.28-.22-.5-.5-.5s-.5.22-.5.5.22.5.5.5.5-.22.5-.5ZM118.37,442.12l14.48-18.82.06-3.23-17.06,18.26,2.52,3.78ZM181.04,428.25l1.36-5.36-2.62-2.35-2.42,6,1.45,2.38,2.23-.66ZM520,422.5c0-.28-.22-.5-.5-.5s-.5.22-.5.5.22.5.5.5.5-.22.5-.5ZM88.97,425.69c-.2-.63-1.07-1.94-1.81-2.72l1.81,2.72ZM145.97,427.89l.43-4.55-3.98,3.7,3.55.85ZM515.9,422.7l-2.5,5,1.6.8,2.5-5-1.6-.8ZM510.15,451.05l6.89-6.08,9.98-8.96,10.91-10.01,2.61-2.66-2.71.53-11.89,11.13-15.76,14.99-3.4,2.81,3.37-1.76ZM551,465.18l1.16.03,31.42-23.66c8.08-5.31,15.03-11.27,21.42-18.48-7.45,4.05-13.94,8.55-21.07,13.68l-27.89,21.24-5.04,7.19ZM186.48,431.64l4.24-3.92-1.58-4.02-3.95,4.59,1.29,3.34ZM518.97,479.99l8.01-6.85,14.01-11.95,7.74-6.34,31.4-26.48,4.05-4.46-3.48,1.78-43.45,35.62-14.98,13.75c-2.37,2.5-4.76,4.84-7.2,6.92l-6.34,5.67,2.44-.52,7.82-7.14ZM607.73,427.36l-.09-2.47-3.83,3.96,3.91-1.5ZM84.79,427.49l-2.2-.11,2.06,3.71.13-3.59ZM176.18,431.77l-1.15-5.53-18.45,19.68,2.49,2.92,17.11-17.06ZM97.81,440.64l8.1-9.97-2.79-2.42-5.27,4.92-2.93-.05,2.89,7.52ZM127.07,437.13l4.88-6.07,1.96-2.72-1.46-.39-.69,1.65-5.81,6.25-2.98,4.13-2.79,4.17,6.88-7.02ZM195.5,428l-1.47.88,3.09,5.15,1.47-.88-3.09-5.15ZM560.93,427.27l-40.14,34.91,1.34,1.54,40.14-34.91-1.34-1.54ZM142.33,431.59l-.76-2.66-1.66.52.71,2.22,1.71-.08ZM511,430.5c0-.28-.22-.5-.5-.5s-.5.22-.5.5.22.5.5.5.5-.22.5-.5ZM182.9,436.18l.48-5.14c-2.41,2.28-2.98,3.04-4.61,6.46l4.13-1.31ZM188.82,442.67l6.12-5.69-3.12-6.53-4.91,5.34,1.91,6.88ZM508.24,436.99l2.48-4.32-.8-.42-1.46,2.49-.21,2.25ZM521.81,433.47l-3.15.69-1.84-2.2c-3.45,3.45-4.64,5.79-5.46,10.04l3.01-1.47,7.44-7.06ZM537.98,495.11l21.34-17.82,22.58-19.34c3.26-2.39,6.24-4.91,9.3-7.71l10.92-11.2c2-2.07,3.39-3.92,3.86-7.43-5.51,3.36-9.98,6.54-14.8,10.47l-7.01,7.13-24.99,22.07-15.41,15.48-9.91,11.02,4.11-2.69ZM609.74,440.33l1.84-4.42-.09-4.23c-.84,1.77-1.3,3.15-1.93,5.22l-.45,3.24c.42,2.27.54,2.12.62.19ZM114.47,494.87l-9.05-17.12-9.18-18.97-1.27-2.57-8.11-21.27-1.6-2.07.15,4.22,10.46,29.05,14.03,23.89,2.22,3.48,2.36,1.35ZM125.85,452.39l13.24-16.65-.87-3.67-6.79,7.56-3.24,6.09c-.95,2.47-1.68,4.21-2.34,6.68ZM145.43,434.18c-2.16-.85-2.48-.97-2.37-.93l-1.07,3.93,3.44-3.01ZM101.45,448.51l9.07-10.83-2.17-3.27-9.56,8.99,2.66,5.12ZM201.11,439.81l-1.78-2.98c-.34,1.6.46,2.9,1.78,2.98ZM458.55,501.13c-6.41,5.26-11.07,10.58-15.79,16.6l3.98-1.1,6.36-.3,17.41-17.83,8.59-9.58c2.99-3.54,5.94-6.69,9.23-9.54l19.36-19.55,13.18-12.8c3.83-3.12,6.97-6.29,10.19-9.86l-5.11,3.81-5.96,5.01-6.87,5.85-24.04,22.19-4.44,3.66-23.7,27.25-6.48,8.37-2.15-1.56,6.24-10.63ZM141.42,439.91l-1.32-1.89-2.48,3.98,3.8-2.09ZM163.2,455.11l8.95-8.89,5.21-7.19c-1.96,1.05-3.34,2.4-4.35,4l-6.05,6.87-3.76,5.21ZM181.15,449.48l5.56-5.07-1.86-5.76-4.6,5.16.91,5.67ZM208,439.5c0-.28-.22-.5-.5-.5s-.5.22-.5.5.22.5.5.5.5-.22.5-.5ZM94.93,444.7l-2.46-4.35c.03-.64-.05,1.26-.08,1.84l1.53,2.39c.39.05,1.04.12,1.01.12ZM145.32,441c0-.45-.37-.82-.82-.82s-.82.37-.82.82.37.82.82.82.82-.37.82-.82ZM115.48,446.06c.99-1.68.64-4.11-1.41-5.11l1.41,5.11ZM151.43,443.17l-2.13-1.82c-1.52,2.5-2.36,4.1-2.91,6.47l5.03-4.65ZM199.21,445.75l-3.22-5.72-6.42,7.58,1.27,4.63,8.37-6.49ZM503.61,450.63l4.05-7.07.37-2.12-1.55-.49-.89,1.71-.69,2.29-3.06,6.83,1.76-1.14ZM469,518.37c3.05-1.02,5.46-3.01,7.91-5.46l12.24-11.67,32.73-30.28,21-18.79,8.07-7.12,4.29-3.84-3.37,1.72-4.88,4.18-7.2,5.58-20.8,17.23-17.31,14.77-20.92,20.04-11.75,13.65ZM113.86,447.83l-1.71-5.75-9.73,10.02,3.82,7.19,7.62-11.45ZM142.95,445.05l-1.44-2.27-.59,1.8,2.03.47ZM600.72,450.37l1.99-7.19-1.82.5-10.31,11.25,6.67-3.26,3.46-1.3ZM589.23,490.46l5.91-11.49,7.17-16.93,3.14-14.18.33-3.96-1.62,2.89-1.07,4.23-3.47,10.81-9.52,24.27-1.64,4.28c-.51-.05-.25-.02.77.07ZM125.05,447c-.3-.87-.79-2.34-.55-1.61l-2.63,1.12,1.2,2.4,1.97-1.91ZM149.04,449.96c1.53-1.25,2.67-2.4,3.92-3.92-1.53,1.25-2.67,2.4-3.92,3.92ZM97.77,450.51l-2.54-3.49.19,2.49,2.07,3.71.28-2.7ZM131.82,459.87l8.75-10.85-2.6-2.44-9.38,10.29,3.23,3ZM151.4,456.78l5.45-5.67-2.06-3.03-4.61,5.85,1.22,2.84ZM165.05,448.1c-3.03.45-3.62,2.25-3.64,3.94l3.64-3.94ZM168.8,461.39l9.43-8.65-.86-4.96-9.02,11.48.45,2.13ZM123.98,455.05l-1.31-1.52-2.7-4.63-3.26,3.96,2.72,8.1,4.55-5.91ZM193.05,460.69l8.81-8.89-2.01-3.5-7.94,8.92,1.13,3.47ZM215.53,455.01l-1.41-3.3-3.02-2.87,1.81,3.32,2.61,2.85ZM182.03,460.99l6.76-6.04-1.17-5.31-6.3,6.46.71,4.89ZM139.1,457.36l4.2-6.43-3.36,2.85-3.89,5.38,3.05-1.8ZM158.94,455.98c-.6-1.54-.77-1.96-.7-1.79-2.93,3.02-3.93,3.87-5.52,6.9l6.22-5.11ZM169.02,454.08c-1.98.69-2.75,1.95-3.72,3.81l3.72-3.81ZM526,454.5c0-.28-.22-.5-.5-.5s-.5.22-.5.5.22.5.5.5.5-.22.5-.5ZM570.2,478.72l5.89-4.61,18.04-15.8,3.95-4.23-4.99,2.78-14.29,11.89-8.61,9.97ZM111.67,470.53l5.68-7.16-2.76-8.77-7.14,7.6,4.22,8.32ZM196.04,469.01l10.1-9.24-3.14-5.16-9.08,10.55,1.12,4.16,1-.32ZM207,455.5c0-.28-.22-.5-.5-.5s-.5.22-.5.5.22.5.5.5.5-.22.5-.5ZM112.92,484.02l-9.59-19.45-1.23-3.62-1.84-3.31-.72-1.7-1.39.43,3.58,6.98.61,2.27,7.65,15.55,2.93,2.85ZM136.98,465.06c2.54-3.04,4.6-5.09,7.14-8.91l-9.14,8.06.51,1.94,1.49-1.09ZM160,458q.98-.98,0,0-.98.98,0,0ZM218.66,464.36l-2.51-4.58-3.03-2.88,2.35,4.83,3.2,2.64ZM521.03,456.47l-40.38,35.63,1.34,1.52,40.38-35.63-1.34-1.52ZM219.98,459.98l-1.96-1.96,1.96,1.96ZM122.85,471.48l7.23-9.47-3.04-3.45-6.58,7.37,2.39,5.54ZM148.72,459.11l-1.37.49c-.49,1.87-.07,1.43,1.37-.49ZM160.11,464.75l3.01-3.13.77-2.82-5.19,5.02-1.77,4.45,3.17-3.51ZM174.99,467.99l4.11-3.71-.43-4.55-6.1,6.49c.96.7,2.71,1.97,2.43,1.77ZM183.1,471.29l7.46-7.71-.75-3.63-7.18,7.24.47,4.1ZM544.34,478.94l10.55-10.05,5.02-4.77,4.24-3.71-2.03.11-5.84,4.88-11.6,9.2-6.55,9.43,6.2-5.09ZM106.96,496.15l1.88,2.02-1.05-2.91-2.8-4.2-2.72-4.44-1.53-2.37-4.47-8.46-1.58-2.38-6.27-12.46.02,2.41,1.6,3.63,2.22,5.12,2.36,4.28,3.35,5.63,3.14,5,1.87,3.03,2.05,2.94,1.93,3.17ZM141.48,468.05c2.08-2.24,3.57-4.54,2.64-7.52l-6.49,8.15,2.23.91,1.62-1.54ZM264.07,492.83l-13.11-13.83-12.07-8.79-9.86-9.08,13.1,13.75,11.87,10.27,5.89,4.86,4.17,2.82ZM539.19,528.68l6.75-5.53,30.72-26.43,2.41-.09-1.09,2.55-27.7,25.92-20.33,20.68,9.18-7.73,11.8-11.3,22.9-21.01,5.16-2.93c7.15-13.74,13.41-27.43,17.94-42.08l-8.95,9.28,2.28,1.35-.32,1.52-27.9,24.19-32.88,31.96-21.05,21.82,21.78-21.14,20.3-18.4,27.41-23.89,2.73.42-1.14,2.39c-11.9,9.77-22.47,19.81-33.03,30.86l-6.97,7.6ZM214.37,465.7l-4.21-3.51,2.93,4.74c.04,1.28.18,1.2,1.28-1.23ZM609,462.5c0-.28-.22-.5-.5-.5s-.5.22-.5.5.22.5.5.5.5-.22.5-.5ZM149.36,462.44l-3.66,5.64,1.81,1.18,3.66-5.64-1.81-1.18ZM162.09,468.58l4.9-5.17-1.72-.44-3.3,3.95-2.37,3.51,1.46.25,1.03-2.1ZM576.11,466.62c1.78-1.14,2.88-2.2,3.81-3.63l-3.81,3.63ZM198.71,482.38l12.99-13.06-3.44-5.52-10.95,13.15,1.39,5.43ZM226.96,467.96c-1.25-1.53-2.4-2.67-3.92-3.92,1.25,1.53,2.4,2.67,3.92,3.92ZM605.13,470.06l2.35-2.02.28-4.14-2.63,6.15ZM224.12,473.36c.84-1.65,1.38-2.72,1.29-2.54l-4.48-5.02h-1.7s.4,2.39.4,2.39l4.49,5.18ZM500.06,509.01l7.9-7.03,7.08-5.96,8.05-6.93,15.82-13.18c3.84-3.06,6.83-6.57,9.11-10.79l-6.7,5.28-24.24,21.62-3.16,3-10.9,9.96c-3.68,3.09-6.88,6.3-10,9.86l7.05-5.84ZM125.71,479.37l8.62-10.91-1.77-1.36-8.61,8.8,1.76,3.47ZM162.16,474.19l2.91-3.05,2.81-4.25-4.01,3.82-1.71,3.48ZM116.48,479.45l4.37-5.37-2.3-6.07-5.76,5.2,3.7,6.23ZM185.72,479.66l7.46-7.69-1.39-4.11-7.63,9.55-.06,1.96,1.62.29ZM148.16,480.45l6.82-8.23c.24-.66.25-1.44-.09-3.66l-8.51,8.58,1.78,3.31ZM165.87,477.38l6.33-6.59-.58-2.05-1.97.68-5.01,6.32-.14,1.4,1.36.26ZM199.96,469.04c-1.88,1.22-3.24,2.67-4.17,4.86,2.01-.82,3.34-2.08,4.17-4.86ZM143.1,471.95l.77-2.12-2.93,2.66,1.65,1.54.51-2.07ZM221.78,475.26l-3.73-4.71-2.26-.53-.14,1.99,3.5,5.37,2.63-2.13ZM131.48,478.31l5.63-6.16c.08-1.17-2.29-1.09-2.18,0l-2.95,3.88-3.94,5.03c1.44-.24,2.79-1.48,3.45-2.75ZM180.73,471.23c.36-.04-.46.05-2.62.31l.98,2.16c.9.49,1.03,1.17,1.64-2.47ZM480,472q.98-.98,0,0-.98.98,0,0ZM582.69,470.1l-45.93,41.01,1.55,1.74,45.93-41.01-1.55-1.74ZM157,474q.98-.98,0,0-.98.98,0,0ZM205.3,492.1l12.22-12.81-4.11-6.08-13.09,15.5,1.65,5.89,3.33-2.5ZM130.38,489.17l10.05-12.2-.56-2.55-2.21,1.18-9.21,9.71,1.92,3.86ZM232.19,477.58l-4.2-3.79-1.59,1.58.71,1.48,3.1,3.42,1.99-2.69ZM447.27,597.83l12.85-12.73,11.82-12.21,33.8-34.11,5.2-4.68,11.97-11.22,23.21-22.74,8.8-8.27,6.2-6.92,6.95-7.71,3.06-3.14-3.79,2.44c-8.72,6.34-16.83,13.29-24.6,21.04l-24.68,24.46c-3.54,3.76-6.35,7.66-8.88,12.07l-3.04,3.49-3.29-.59-24.94,25.88-13.72,14.28-7.33,7.74-10.82,12.09-3.98,5,5.21-4.15ZM176.26,474.47l-7.26,8.17,2.2,1.95,7.26-8.17-2.2-1.95ZM191.19,480.28l3.07-5.42-3.45,2.87-3.07,5.42,3.45-2.87ZM152.22,485.19l4.89-4.99,2.72-4.33-5.98,5.82-1.63,3.5ZM120.48,487.02l3.61-5.38-2.31-3.59-4.2,4.6,2.9,4.37ZM223.78,485.34l4-3.59-3.26-3.85-3.27,2.91,2.52,4.52ZM161.87,478.47l-3.31,3.63,1.38,1.26,3.31-3.63-1.38-1.26ZM194.08,487.9l2.58-3.73-1.48-4.35-4.77,5.25,3.68,2.83ZM143.1,487.21l3.5-4.91-1.13-1.56-1.57,1.16-8.94,14.14c3.17-2.62,5.45-5.39,8.13-8.83ZM176.46,489.61l4.78-5.59.63-3.35-2.87,3.33-4.52,5.46c1.07.08,2.98.22,1.99.15ZM488.19,529.31l15.11-13.05,13.95-12.89c7.6-6.76,14.39-13.99,19.38-22.19l-26.12,22.06-19,17.37-3.33,8.71ZM596.35,495.4l4.3-8.79,2.07-5.72-2.11,2.62-3.24,6.91-2.07,5.32,1.04-.34ZM165,481.5l-5,5,1,1,5-5-1-1ZM237.89,488.26l2.97-2.24-5.29-4.26-1.72,2.74,4.03,3.76ZM519,484q.98-.98,0,0-.98.98,0,0ZM174,485q.98-.98,0,0-.98.98,0,0ZM185.91,483.71l-2.57,2.52,2.31.87.26-3.39ZM208.59,500.58l13.73-13.77-3.12-3.29-11.19,13.64-1.33,2.5,1.91.93ZM226.11,487.62c1.78-1.14,2.88-2.2,3.81-3.63l-3.81,3.63ZM135.25,491.09l3.7-6.16-5.26,4.82-1.79,4.51,3.35-3.16ZM155.68,484.71l-2.21,3.68,1.62.97,2.21-3.68-1.62-.97ZM161.55,494.33l7.31-7.28-.71-1.65c-.61-.03-1.59-.07-1.55-.07l-4.92,4.99-.12,4.01ZM294.49,509.3c-.69-1.74-1.27-2.21-2.29-2.59l-32.16-21.64,6.63,7.27,5.26,4.99,22.56,11.98ZM466.11,489.08l4.1-3.7-1.92-.35-6.4,6.85,4.21-2.8ZM585.98,506.43l4.33-10.14,5.6-11.31-2.22,2.55-5.39,10.67-6.63,10.87,4.31-2.64ZM236.4,490.21l-4.34-4.42-4.33,5.15,3.03,4.23,5.64-4.96ZM416.27,511.77c11.73-5.43,22.57-11.28,33.47-18.09l3.69-2.18,6.12-4,1.22-1.6-5.19,2.67-5.47,3.43-19.36,8.6-42.75,14.98c1.02.21,2.98.1,4.28-.29l12.75-1.43c3.9-.41,7.55-1.09,11.24-2.09ZM147.72,490.69l2.17-3.84-4.01,3.76c.72.03,2.23.1,1.84.09ZM191.87,489.83l-3.34-2.86-3.99,5.64,1.09,3.69,6.23-6.48ZM487.38,513.44l10.75-9.42,16.79-16.87-11.94,10.83-10.87,10.04c-2.12,1.21-4.07,2.97-4.73,5.42ZM115,488.5c0-.28-.22-.5-.5-.5s-.5.22-.5.5.22.5.5.5.5-.22.5-.5ZM125.56,494.87l2.99-3.61-2.44-3.94-3.48,3.57,2.93,3.98ZM180.95,493.84l1.07-6.44-4.82,5.64,3.75.8ZM197,489q.98-.98,0,0-.98.98,0,0ZM156.75,491.86l1.11-2.78c-1.71,1.31-2.43,2.71-1.11,2.78ZM167.22,495.17l4.03-6.36-6.62,5.92-1.65,4.53,4.24-4.08ZM243.29,488.08l-2.88,2.46,3.25,3.81,2.88-2.46-3.25-3.81ZM147.05,494.95c1.92-1.52,3.38-2.98,4.9-4.9-1.92,1.52-3.38,2.98-4.9,4.9ZM213.21,503.39c4-4.71,7.89-7.91,11.03-13.67-5.25,3.46-8.2,7.11-12.54,11.34l-.47,2.23,1.98.11ZM174.26,492.09l-2.58.97-2.54,4.11,5.12-5.08ZM189.14,499.05l5.11-7.2-7.62,6.76-.47,3.68,2.98-3.24ZM153.6,493.11l-3.46,3.52,1.34,1.31,3.46-3.52-1.34-1.31ZM229.17,496.79l-3.14-4.1-11.29,13.06c.65.61,2.45,1.68,3.45,2.02l10.98-10.99ZM238.92,492.52l-5.88,6.21,3.18,3.01,5.88-6.21-3.18-3.01ZM183.39,493.43l-2.41,3.05,3.08,2.15-.67-5.2ZM248.42,493.43l-2.37,2.51,4.8,4.53,2.37-2.51-4.8-4.53ZM130.4,500.9l.26-6.37-4.11,3.17,3.85,3.2ZM175.6,494.11l-7.26,8.52,2.4,2.05,7.26-8.52-2.4-2.05ZM191.17,506.52l8.67-9.41-3.07-2.96-7.13,7.84-.89,2.46,2.42,2.08ZM119.72,503.92l-.53-2.89-2.22-3.3-2.22-1.9,2.08,4.14,2.89,3.95ZM429.97,510.59l5.95-3.48,6.17-3.12,2.87-2.05,3.34-1.83,3.79-4.02-5.05,2.82-4.37,2.84-2.4,1.53-18.3,9.39,3.82-.39,4.18-1.68ZM136.14,499.65l2.87-2.58-2.87,2.58ZM144.94,498.98c-.6-1.54-.77-1.96-.7-1.79-2.93,3.02-3.93,3.87-5.52,6.9l6.22-5.11ZM156.33,496.7l-3.24,3.76,1.57,1.35,3.24-3.76-1.57-1.35ZM470.07,503.93c2.63-2.1,4.76-4.22,6.86-6.86-2.63,2.1-4.76,4.22-6.86,6.86ZM183.87,578.81l-18.12-13.44-12.15-12.99-24.64-24.31-14.83-17.93-3.14-4.07-1.93-3.18-3.68-4.35c.9-.61.27-.18-.66.45l2.34,2.94,1.92,3.09,1.65,2.34,3.16,5.69,16.46,22.78,6.1,7.81c6.69,7.21,13.78,13.75,21.71,20.31,9.32,7.51,18.33,14.1,27.65,19.92l-1.82-5.05ZM244.89,497.91l-6.78,7.17,4.15,3.93,6.78-7.17-4.15-3.93ZM142.43,509.9l7.02-9.16-1.35-1.99-7.76,7.52,2.09,3.62ZM175.11,507.17l6.25-6.31-1.19-1.93-1.67.24-5,6.36,1.61,1.64ZM111,500.5c0-.28-.22-.5-.5-.5s-.5.22-.5.5.22.5.5.5.5-.22.5-.5ZM127.97,502.97l-2.95-2.95,2.95,2.95ZM161.91,502.4l-1.47-2.81-3.41,4.22,2.15,1.17,2.74-2.58ZM255.41,499.92l-1.83,2.41,4.02,3.06,1.83-2.41-4.02-3.06ZM261.98,501.98l-1.96-1.96,1.96,1.96ZM133.62,501.15c.27-.22-.79.65-1.65,1.35.96,2.42,2,2.57,1.65-1.35ZM225.17,512.14l8.74-8.49-2.21-3.04-8.32,9.89.29,2.11,1.51-.48ZM193.07,508.93c2.63-2.1,4.76-4.22,6.86-6.86-2.63,2.1-4.76,4.22-6.86,6.86ZM203.75,504.86l1.11-2.78c-1.71,1.31-2.43,2.71-1.11,2.78ZM514.25,515.12l6.86-6.93,4.66-6.31-16.92,16.87,5.4-3.63ZM147.27,509.46l5.63-6.42c-2.54.92-3.97,2.33-4.92,3.79l-3.43,4.84,2.04-.5.68-1.71ZM181.39,508.61l3.52-4.03-1.5-2.03-6.23,6.59,2.35,1.29,1.87-1.83ZM248.45,513.43l6.83-6.46-3.37-2.91-6.3,7.12.32,2.58,2.52-.33ZM271.85,507.97l-3.67-3.17-3.17-.66,3.87,2.98,2.97.85ZM126.43,514.04l.82-1-3.26-4.08-3.09-3.98,2.76,6.03,2.76,3.02ZM131.96,509.26l-2.13-3.81c.25.06-.88-.2-1.87-.42l1.71,2.73,2.3,1.51ZM148.25,519.85l9.26-12.18-2.14-2.52-9.84,10.26,2.71,4.44ZM169.95,505.51l-4.88-.37,1.35,4.86,3.54-4.48ZM210,505.5c0-.28-.22-.5-.5-.5s-.5.22-.5.5.22.5.5.5.5-.22.5-.5ZM185.14,513.03l4.3-4.75-2.79-2.24-4.04,5.11.27,2.35,2.26-.47ZM200.45,506.23l-4.58,4.91,1.25,1.16,4.58-4.91-1.25-1.16ZM205.48,511.74l3.26-3.57-1.41-2.43-2.73,2.12-.57,2.51,1.46,1.37ZM444.14,508.65l2.87-2.58-2.87,2.58ZM263.93,506.07l-1.77,2.43,4.94,3.61,1.77-2.43-4.94-3.61ZM140.34,514.65l-.26-4.96-2.12-1.18-2,1.79,4.38,4.35ZM215.23,510.03c0-1.01-.82-1.84-1.84-1.84s-1.84.82-1.84,1.84.82,1.84,1.84,1.84,1.84-.82,1.84-1.84ZM232.44,518.38l7.78-7.78-3.27-3.39-7.3,8.97,2.78,2.2ZM251.44,516.55c3.06-3.61,4.8-5.15,6.82-8.69l-8.08,7.12c-.02,1.09.87,2.93,1.26,1.57ZM567.77,519.9l6.69-7.83,1.2-4.06-15.66,16.77,7.77-4.88ZM173.35,510.21l-1.47-1.85-3.03,3.79,4.5-1.94ZM301.24,523.02l1.93-1.91-12.12-4.4-12.29-5.36-2.32-1.81-2.01-.62-.51,1.59,1.61.86,22,11.44c1.4-1.95,1.69-2.36.01-.02l3.68.22ZM297,509.5c0-.28-.22-.5-.5-.5s-.5.22-.5.5.22.5.5.5.5-.22.5-.5ZM152.78,528.51l11.87-16.01-3.64-2.32-12.14,13.67,3.91,4.67ZM191.5,510l-4.5,4.5,1,1,4.5-4.5-1-1ZM138.33,517.08l-3.35-4.05-1.92-2.35.72,3.31,3.52,4.8c-.12.2.45-.75,1.03-1.71ZM174.75,510.46l-2.85,4.13,3.33,2.3,2.85-4.13-3.33-2.3ZM205.29,519.69l5.4-4.14.56-3.06-1.5-1.07-3.61,3.19c-.45,1.29-.74,3.14-.85,5.07ZM264.58,513.61l-3.91-3.52-7.54,8.73,3.14,2.41,8.31-7.61ZM202.06,515.75l-.24-3.96-2.99,2.85,3.22,1.11ZM275.07,517.02l2.44-2.03-4.84-2.78-1.99,1.5,4.4,3.31ZM424.54,523.79c1-1.62,1.71-2.33,3.19-2.9l8.75-8.5-22.32,9.12-2.9,3.71,8.8-.17,4.47-1.26ZM194.96,513.04c-1.88,1.22-3.24,2.67-4.17,4.86,2.01-.82,3.34-2.08,4.17-4.86ZM216,514q.98-.98,0,0-.98.98,0,0ZM220.68,513.35l-4.31,4.36,1.65,1.63,4.31-4.36-1.65-1.63ZM244.71,517.32l-.36-2.81-2.13.53-5.15,7.55,7.65-5.28ZM305.04,515.42l-4.6-1.49c0,.17-.03,1.09-.03.97l3.63,1.38,3.2.66-2.2-1.52ZM442,514.5c0-.28-.22-.5-.5-.5s-.5.22-.5.5.22.5.5.5.5-.22.5-.5ZM458.03,516.97l2.95-2.95-2.95,2.95ZM521,513.5l-38,38,1,1,38-38-1-1ZM568.29,527.89l6.67-5.01,6.04-8.96-9.03,7.99-3.68,5.98ZM130.7,518.86l-1.62-3.59-1.83.59,3.46,3ZM179.25,518.77l2.51-2.51-.53-1.93-3.91,3.91,1.93.53ZM166,516.5c0-.28-.22-.5-.5-.5s-.5.22-.5.5.22.5.5.5.5-.22.5-.5ZM197.25,515.55l-3.67,3.94,2.56,2.38,3.67-3.94-2.56-2.38ZM145.79,520.69l-2.54-3.69.21,2.25,1.03,1.78c.44-.12,1.78-.47,1.31-.34ZM174,518.49l-4.64-1.66,1.77,5.17,2.87-3.51ZM184.51,517.01l-3,3.9,1.39,1.07,3-3.9-1.39-1.07ZM211.04,520.68l1.72-3.9-4.96,5.2,3.24-1.3ZM222.28,520.48l2.65-3.61-5.74,5.46,2.35-.02.74-1.82ZM265.06,526.75l8.34-7.93-4.61-2.66-14.66,18.31,1.2,1.8,9.72-9.52ZM261.11,539.24l-.69,2.73c1.33-.29,2.48-.64,3.27-1.01l18.17-18.19,3.61-2.86-5.53-3.58-1.24,2.2,1.8,1.34.89,2.38-4.37-1.39-15.91,18.39ZM309,517.5c0-.28-.22-.5-.5-.5s-.5.22-.5.5.22.5.5.5.5-.22.5-.5ZM385.84,520.79l5.76-1.25,3.95-.85,4.61-1.5-6.11.31-5.42,1.12-5.27.69-5.5,1.45,7.98.03ZM410.11,518.87l4.06-1.61-4.53.05-3.92,2.07c-2.03.05-2.1.12.21.28l4.18-.79ZM247.31,517.28l-6.55,7.16,2.18,1.99,6.55-7.16-2.18-1.99ZM159.47,537.58l9.8-13.47-1.99-4.81-12.46,12.73,4.65,5.55ZM224.57,526.25l5.63-5.78-2.63-1.8-5.25,6.54.4,1.38,1.85-.35ZM329.02,521.8l-4.67-1.21-3.49-.98-3.97-.43,2.47,1.52,4.09,1.11h5.57ZM433.37,533.4c.24.95.42,1.64.35,1.4l5.29-5.78,6.25-5.87,2.79-4.19-7.92,1.81-5.04,6.95,3.09.18-4.81,5.51ZM399.33,598.98l3.85-5.03,12.52-15.21,17.02-19.04,25.61-27.49,7.46-8.31.84-5.11-6.74,6.24-6.02,6.83,4.72-3.02c-1.83,2.37-3.44,4.02-5.61,6.02-11.11,9.78-20.92,19.91-30.35,30.71l-17.35,20.16c-6.97,8.52-13.58,16.71-19.2,26.23l13.27-12.98ZM140.73,519.45l-1.94,1.47,3.91,5.18,1.94-1.47-3.91-5.18ZM176.5,520l-4.5,4.5,1,1,4.5-4.5-1-1ZM188.33,520.59c.72-.8.39-.44-.47.5-.99,1.03-.77.8.47-.5ZM202.18,519.35l-3.55,3.41,2.13,2.22,3.55-3.41-2.13-2.22ZM215.5,520l-4.5,4.5,1,1,4.5-4.5-1-1ZM402.82,520.5c0-.45-.37-.82-.82-.82s-.82.37-.82.82.37.82.82.82.82-.37.82-.82ZM456.11,523.62c1.78-1.14,2.88-2.2,3.81-3.63l-3.81,3.63ZM130.62,524.89c-1.14-1.78-2.2-2.88-3.63-3.81l3.63,3.81ZM247.61,529.34l7.4-7.02-3.47-1.43-5.83,6.79,1.89,1.66ZM252.1,532.89l5.54-7.23,3.21-4.74-11.36,10.44,2.61,1.53ZM268.3,548.09l14.55-14.29,10.44-10.34-5.41-2.94-3.49,5.09-17.34,21.08,1.25,1.39ZM438.22,543.16l7.98-8.11,7.49-8.39c-.83-2.01-.14-4.04.91-5.51l-3.4,3.72-2.77,5.45-7.43,8.5-2.79,4.34ZM192.09,521.41l-3.83,3.68,2.21,2.3,3.83-3.68-2.21-2.3ZM304.33,521.76l-1.15,2.76,4.95,2.06,1.15-2.76-4.95-2.06ZM332.25,522.66c-2.6-.26-2.76-.27-.44-.04,1.13.1,1.54.13.44.04ZM173.84,532.86l7.35-8.14-1.59-1.76-1.55,1.04-4.47,4.35.26,4.51ZM230.16,526.35l1.54-3.61-6.66,7.18c2.57-1,3.95-2.28,5.11-3.57ZM405.67,526.13l2.44-3.03-2.53.33-5.89,2.16,5.98.54ZM206,525q.98-.98,0,0-.98.98,0,0ZM217.3,523.61l-5.4,5.97,1.84,1.66,5.4-5.97-1.84-1.66ZM229.19,532.11c2.84-2.53,5.02-4.61,7.18-8.06-1.81,1.13-3.34,2.47-4.47,3.67l-2.71,4.39ZM197.12,524.58l-3.57,3.92,2.28,2.08,3.57-3.92-2.28-2.08ZM272.62,552.19l6.37-7.39,17.2-17.62,1.36-1.69-1.72-1.1-15.75,17.57-7.92,8.58.46,1.67ZM289.24,564.45l3.73.15,10.38-10.31,23.6-22.35,2.34-.9.55,2.12-17.94,20.71-8.95,9.99-4.81,6.17,8.79-8.28,11.89-10.99,20.5-19-20.51-4.13-4.53-2.16-1.86.02c-.27.45-.83,1.36-.8,1.31l1,2.65-3.08-.16-2.1,1.07-13.28,14.71-12.53,13.36,2.31,1.77,25.95-26.34,6.87-5.9,2,.7-.05,2.17-9.53,10.36-16.01,17.95-3.95,5.31ZM342.95,528.92l-3.31-1.71-6.25-.49-4.56-1.29h-5.08s6.8,2.17,6.8,2.17l2.49.21,4.36.89,5.54.21ZM447.54,550.07c1.57-1.53,3.07-2.87,4.7-4.06l15.17-14.71,3.49-6.31-2.05,1.77-10.65,11.34-16.3,16.64,2.6-1.05,3.04-3.64ZM184,526.5c0-.28-.22-.5-.5-.5s-.5.22-.5.5.22.5.5.5.5-.22.5-.5ZM228.05,537.52l3.22,2.24,10.26-11.17-2.74-2.4-8.27,8.9c.83,1.03,2.12,2.62.65.81l-3.12,1.63ZM440.77,577.11l6.46-5.91,23.32-22.68,16.17-16.23-1.02-6.21-13.49,14.17-28.98,31.9-10.51,12.06,1.34.43,6.7-7.52ZM146.35,526.75l-1.81,1.65,4.48,4.9,1.81-1.65-4.48-4.9ZM209.82,527.5c0-.45-.37-.82-.82-.82s-.82.37-.82.82.37.82.82.82.82-.37.82-.82ZM278.5,556.09l26.61-27.86-3.95-1.52-7.38,8.07-17.07,19.58,1.8,1.72ZM348.39,598.95l11.73-11.85,13.71-13.3,17.43-16.43,17.68-16.41,12.94-13.41-13.86.48.33,1.59,1.64-.37,4.49-.18-2.26,2.06-7.44,1.53-11.06,12.13-49.26,53.93,1.96,2.18,1.99-1.94ZM170,528.5c0-.28-.22-.5-.5-.5s-.5.22-.5.5.22.5.5.5.5-.22.5-.5ZM177.01,543.82l7.83-9.03,4.43-5.59-2.98-1.55-10.94,11.54,1.65,4.63ZM203.35,529.2l-2.15-1.03-2.45,4.32,4.6-3.29ZM220.75,527.82c-1.12,1.26-2.06,2.44-3.03,3.93,1.78-.2,2.8-1.26,3.03-3.93ZM353.16,529.52l-4.82-.84-1.88-.79-.53,1.65,2.04.7,5.2-.73ZM370.03,530.57l-5.11-2.4-4.16,2.58,9.26-.19ZM380.29,531.12l1.91-2-8.49-.25-1.91,2,8.49.25ZM392.44,529.41l-7.86-.47,2.06,2.87,5.81-2.4ZM401.06,529.52c-1.68-.99-4.11-.64-5.11,1.41l5.11-1.41ZM236.26,540.14l8.69-8.5-.48-1.82-1.37,1.27-6.23,6.72-.61,2.33ZM371.33,589.32l3.64-4.47,4.51-4.34,7.58-7.46,11.12-10.92c9.03-8.92,17.16-17.97,25.03-27.88l2.56-4.35c-7.08,6.27-13.44,12.66-19.89,19.98l-14.78,16.18-7.18,7.86-12,12.92-.56,2.49ZM554.68,548.77l7.3-7.77,3.95-5,4.95-6.02-8.85,8.22-14.58,14.39,7.23-3.83ZM182.47,544.12l10.21-10.38,1.02-1.87-2.23-.85-11.74,14.04c1.05.12,2.06-.31,2.75-.93ZM206.16,531.13c-2.73.18-3.58,1.29-2.9,2.92l2.9-2.92ZM223.14,534.62l1.75-3.94-2.22,1.59-1.61,2.52,2.08-.17ZM452.16,598.02l3.75-4.08-6.11,4.76-8.61,8.11,6.83-1.36,9.26-1.61,3.17,1.17,5.84-2.75,11.08-11,5.91-6.16,20.08-20.84,10.38-11.49,11.24-12.71,7.87-9.05-14.82,14.2-9.8,10.07-24.26,26.7-3.88,4.95-1.45-.67.24-1.42,9.64-12.99.79-3.45,6.63-8.33-3.08,2.95-13.16,13.84-22.44,22.27-5.78,2.98.69-4.09ZM167.67,541.33l4.49-6.31-1.43-3.26-6.82,7.59,3.76,1.98ZM211.86,533.76c0-.9-.73-1.62-1.62-1.62s-1.62.73-1.62,1.62.73,1.62,1.62,1.62,1.62-.73,1.62-1.62ZM312.96,569.78l18.07-18.72,18.21-17.79c-1.25-.79-4.1-1.11-5.39-.68l-11.67,14.6-14.21,15.77-11.55,12.77c3.05-1.09,5.03-3.33,6.54-5.94ZM242.98,543.73l6.81-8.16-1.65-2.23-1.88.78-7.52,7.75,4.24,1.85ZM344.1,544.67l8.2-8.37,2.28-2.86-.77-.48-1.93.91-9.71,10.18c-6.36,7.4-13.98,12.82-19.38,21.03l21.31-20.41ZM364.32,533.73l-4.73-.33-10.44,14.66,15.17-14.33ZM376.91,543.92l10.47-10.23-4.63-.14-8.56,11.56-6.12,6.84,8.84-8.04ZM384.15,546.73l3.89-4.71,9.1-8.53c-1.74-.91-3.88.03-4.69,1.67l-9.86,11,1.55.57ZM187.1,548.21l11.02-13.58-2.05-.81-12.38,12.96,3.41,1.43ZM258.11,537.62c1.78-1.14,2.88-2.2,3.81-3.63l-3.81,3.63ZM323.18,584.95l29.64-29.27,23.19-21.6-4.43-.92-3.62,2.78-16.66,19.2-13.34,13.84-14.79,15.97ZM418.17,548.06l7.92-7.8,2.94-4.23.79-2.32-1.83,2.39-5.03,5.85-4.8,6.11ZM152,534.5l-1,1,6,6,1-1-6-6ZM198.14,538.65l2.87-2.58-2.87,2.58ZM219.64,539.79l.4-3.12-1.6-.3-3.83,4.87,5.03-1.45ZM492.32,537c0-.45-.37-.82-.82-.82s-.82.37-.82.82.37.82.82.82.82-.37.82-.82ZM252.5,537l-5.5,5.5,1,1,5.5-5.5-1-1ZM403.23,577.25l3.75-4.37,6.77-7.09,11.64-12.5c4.84-5.35,9.27-10.38,13.52-16.24l-12.62,11.29-16.29,19.64-5.05,5.9-1.72,3.38ZM197.55,552.21l9.78-12.43-3.85-2-11.56,12.77,5.63,1.66ZM489,539q.98-.98,0,0-.98.98,0,0ZM338.76,581.85l17.99-20.14,8.04-9.77,8.26-9.83,1.79-3.14-15.54,14.32-10.73,10.42-23.02,23.38,4.83,3.58,8.4-8.81ZM226.1,546.42l3.77-4.73-3.15-1.89-2.79,2.13-1.61,2.68,3.79,1.81ZM264.05,544.95c1.92-1.52,3.38-2.98,4.9-4.9-1.92,1.52-3.38,2.98-4.9,4.9ZM174.04,543.97l-.34-3.02-1.75,1.58,2.09,1.44ZM255,540.5l-5,5,1,1,5-5-1-1ZM306.78,571.28l14.07-15.4,13.12-14.78-3.99,3.07-28.3,26.83,2.54,2.61,2.55-2.33ZM484.77,566.87c.83-.34,1.81-1.3,2.14-2.08l22.89-23.74-43.22,42.9,1.91.43.66-2.09,15.62-15.42ZM164.28,546.95l-5.23-5.23,1.27,3.95,3.95,1.27ZM165.92,542.34l-2.9-.15c1.33,1.91,2.83,3.07,2.9.15ZM342.04,597.52l19.66-21.77,23.09-25.65,7.11-8.09-8.75,8.16-10.98,10.13-34.64,34.55,4.51,2.67ZM214.37,545.66l.71-2.22-1.66-.52-.76,2.66,1.71.08ZM258.42,542.36l-4.4,4.88,2.01,1.81,4.4-4.88-2.01-1.81ZM236.71,551.7l4.22-4.92-4.74-2.59-4.46,4.63,4.98,2.88ZM380.5,544l-40,40,1,1,40-40-1-1ZM171.53,551.4l3.06-4.48-4.04-2.12-2.89,2.1,3.87,4.5ZM205.96,555.58l6.26-7.85-1.9-3.18-8.82,9.62,4.46,1.41ZM262.75,548.54l-.13-2.7-3.85,4.22,3.98-1.52ZM315.27,580.15l12.72-13.21,14.03-14.78,4.8-6.21c-5.24,4.85-10.09,9.59-14.76,15.11l-15.12,15.71-1.67,3.37ZM217.64,556.67l6.59-8.21-4.06-1.98-4.56,4.88,2.04,5.31ZM318.08,581.8l2.29,1.87,1.73-1.61,17.93-19.05,15.01-15.84-3.08,1.82-1.98,1.69-7.65,7.63-24.24,23.48ZM435.03,608.3l8.47-12.68,10.73-11.66,4-5.97c5.66-7.79,11.5-14.75,17.89-21.83l4.95-4.93,2.78-4.25-10.91,9.97-8.79,8.21-17.43,18.55-24.55,25.24c-1.4,1.07-2.14,1.76-3.38,3.35l16.24-3.99ZM249.82,549.48l-2.25-1.21-1.7.98.99,1.57,2.96-1.34ZM167.87,552.16c-.18-2.73-1.29-3.58-2.92-2.9l2.92,2.9ZM176.6,548.83l-2.43,4.03c1.68-.98,2.41-1.63,2.43-4.03ZM262.84,551.87c2.73-.18,3.58-1.29,2.9-2.92l-2.9,2.92ZM178.85,558.85l6.01-7.85-3.53-1.47-5.87,6.11,3.39,3.22ZM252.63,549.48l-2.96,3.22,1.57,1.44,2.96-3.22-1.57-1.44ZM235.32,554.03l-5.34-3.35-9.81,10.63,6.85,2.3,8.3-9.57ZM244.11,553.29c.51-.68,1.35-1.8,0,0-2.89.47-2.13.35,0,0ZM256.38,551.53l-2.38,3.97,1.62.97,2.38-3.97-1.62-.97ZM457,552.5c0-.28-.22-.5-.5-.5s-.5.22-.5.5.22.5.5.5.5-.22.5-.5ZM186.83,565.59l8.04-10.81-4.98-2.33-8.5,9.61,5.44,3.52ZM271.27,553.5l-1.88-.57-.41,2.26,2.29-1.69ZM215.38,559.54l-.94-6.11-4.09,4.08,5.02,2.03ZM262.88,555.11l-1.31-1.41-2.04.94-2.03,4.22,5.38-3.75ZM437.15,585.92l4.69-5.98-9.21,8.9-21.78,23.05c-1.12,1.42-2.68,2.1-4.58.99l23.11-28.57,9.66-11.34,8.98-9.92,7.8-9.05-18.94,18.74-1.87,2.32-18.23,19.74-10.98,11.98-8.26,9.35,9.59-.69,6.02-1.92,6.9-8.51,17.1-19.09ZM249,555.5c0-.28-.22-.5-.5-.5s-.5.22-.5.5.22.5.5.5.5-.22.5-.5ZM293,555.5c0-.28-.22-.5-.5-.5s-.5.22-.5.5.22.5.5.5.5-.22.5-.5ZM236.76,563.87l4.83-5.72-.55-1.76-2.23.2-7.1,7.76,2.75,1.63,2.29-2.1ZM267.5,556l-4.5,4.5,1,1,4.5-4.5-1-1ZM195.28,570.08l8.68-11.49-4.75-1.95-9.25,10.69,5.33,2.75ZM289.13,560.39l1.54-3.68-3.86,5.21,2.33-1.53ZM238.25,567.16c2.79-2.6,5.02-4.6,7.03-8.23l-5.47,4.65-1.56,3.58ZM252,559.5c0-.28-.22-.5-.5-.5s-.5.22-.5.5.22.5.5.5.5-.22.5-.5ZM270.49,565.5l4.87-5.12-1.82-1.61-1.64.91-3.29,4.06,1.88,1.77ZM298,565.09l4.85-6.14-8.8,8.84c2.1-.37,3.45-1.54,3.95-2.7ZM506.39,580.22l11.66-12.11,7.71-8.85c-2.23.88-3.92,2.05-4.65,3.96l-14.28,14.55-.44,2.45ZM203.95,574.44l8.37-11.99-4.5-2.27-9.94,11.27,6.07,2.99ZM374.17,601.08c2.85-2.62,5.34-5.13,7.96-8.15l12.66-13.15,10.27-11.72,6.81-8.06-10.86,10.2c-6.62,6.07-12.47,12.43-17.86,19.71l-5.18,6.01-3.79,5.16ZM248.27,560.63l-6.13,6.78,1.73,1.57,6.13-6.78-1.73-1.57ZM256,561.5c0-.28-.22-.5-.5-.5s-.5.22-.5.5.22.5.5.5.5-.22.5-.5ZM277.04,567.21l4.02-4.06-.94-1.61-1.35.17-4.47,5.14,1.18,1.33,1.57-.97ZM361.99,594.05l20.56-22.51,8.29-9.52c-14.68,12.86-28.1,26.14-41.97,40.11l3.41,2.55,9.71-10.63ZM173.97,565.97l-2.95-2.95,2.95,2.95ZM248.19,569.17l6.01-6.07c-1.41.37-2.81,1.01-3.19,1.42l-2.82,4.65ZM225.04,565.69l-4.08-1.56,1.54,1.96,2.54-.4ZM261,564.5c0-.28-.22-.5-.5-.5s-.5.22-.5.5.22.5.5.5.5-.22.5-.5ZM284.5,564l-5.5,5.5,1,1,5.5-5.5-1-1ZM222.33,568.54l-5.35-3.8-10.48,11.23,7.64,3.4,8.19-10.82ZM258.51,568.55l.55-2.11-1.58-.51-.79,1.6-2.79,3.8,4.61-2.79ZM266.75,568.86l1.11-2.78c-1.71,1.31-2.43,2.71-1.11,2.78ZM288,565.91l-5.16,5.39,1.71,1.64,5.16-5.39-1.71-1.64ZM359.55,608.38l18.38-19.49,13.91-14.76,4.24-4.99,1.76-3.34-4.03,4.2-4.94,4.88-31.96,31.98,2.65,1.53ZM204.3,597.96l-37.39-23.91-3.84-3.12-5.2-3.68,16.08,15.02c6.49,4.97,12.85,9.22,19.91,13.28,3.6,1.31,6.73,2.55,10.44,2.4ZM233.48,567.69c-2.07-.68-3.72-.65-4.95.06,1.47,1.8,3.58,1.79,4.95-.06ZM518.09,576.91c3.65-3.03,6.79-6.16,9.81-9.81-3.65,3.03-6.79,6.16-9.81,9.81ZM236,569.5c0-.28-.22-.5-.5-.5s-.5.22-.5.5.22.5.5.5.5-.22.5-.5ZM272.68,568.69l-2.66,2.19,1.6,1.93,2.66-2.19-1.6-1.93ZM292.5,569l-5.5,5.5,1,1,5.5-5.5-1-1ZM318,570q.98-.98,0,0-.98.98,0,0ZM221.37,582.85l8.41-11.25-3.73-1.2-8.9,10.2,4.22,2.25ZM240.54,572.95l1.47-2.89-2.68-.03-1.29,2.87,2.5.06ZM264.1,569.6l-3.52,2.22,1.19,1.89,3.52-2.22-1.19-1.89ZM245.73,573.36l-.09-2.47-3.83,3.96,3.91-1.5ZM189.96,575.96c-1.25-1.53-2.4-2.67-3.92-3.92,1.25,1.53,2.4,2.67,3.92,3.92ZM278.36,572.02l-3.67,1.41,1.72,1.95,1.94-3.36ZM252.61,572.11l-4.37,4.37,1.64,1.64,4.37-4.37-1.64-1.64ZM266.32,579.72l3.9-4.99-1.11-1.38-1.44.28-5.38,6.36,4.03-.26ZM231,575q.98-.98,0,0-.98.98,0,0ZM228.71,586.69l9.46-11.51c-1.9-.71-3.48-.54-4.05.48l-8.83,8.91,3.42,2.13ZM278.84,576.87c2.73-.18,3.58-1.29,2.9-2.92l-2.9,2.92ZM299.7,573.12l-5.25,5.09,2.8,2.89,5.25-5.09-2.8-2.89ZM201,575.5c0-.28-.22-.5-.5-.5s-.5.22-.5.5.22.5.5.5.5-.22.5-.5ZM261.14,574.81l-5.03,2.8.85,2.16,4.18-4.97ZM256.27,596.85c6.56-5.82,11.35-11.57,16.91-17.72l1.48-2.21-2.12-.77-4.4,5.03c-4.56,5-8.97,9.77-11.87,15.67ZM285.84,575.8l-3.36,2.85,1.59,1.87,3.36-2.85-1.59-1.87ZM509.95,591.55l4.2-1.41,3.71-3.2,3.29-1.9,6.86-6.14c.94-.34,1.88-1.78,1.99-2.9l-4.97,4.01-4.05,2.98-3.97,3.02-4.07,2.94-2.99,2.59ZM198.17,581.87l-2.64-2.44-3.41-1.44,3.81,3.52,2.24.36ZM210.09,582.7l-4.98-4.87c0,2.89,2.27,4.3,4.98,4.87ZM302.14,580.65l2.87-2.58-2.87,2.58ZM236.24,592.18l7.89-7.97,3.63-5.36c-2.34,1.11-3.82,2.54-4.73,4.15l-5.1,5.84-1.7,3.33ZM483.76,589.78l7.06-5.77,1.87-4.92-10.66,10.8-2.11,1.99,3.85-2.1ZM260.13,602.19l4.86-7.39,7.95-9.72,3.88-5.19-9.08,8.98-11.08,11.74,3.48,1.58ZM487.94,593.33c4.25-2.53,8.62-5.87,11.47-8.83l1.17-4.48-4.4,3.2-12.9,10.13c-2.34,1.8-4.28,3.41-6.43,5.48l11.09-5.49ZM212,581.5c0-.28-.22-.5-.5-.5s-.5.22-.5.5.22.5.5.5.5-.22.5-.5ZM249.65,588.4l6.41-7.45c-2,.32-3.74,2.03-4.36,3.58l-3.69,4.21c.34-.07,2.12-.44,1.64-.34ZM265.02,603.14l17.68-20.49-1.2-1.8-1.85.87-7.54,8.32-9.01,12.08,1.92,1.02ZM293.68,585.96l2.42-3.11-2.56-2.88-4.17,3.79,4.31,2.21ZM385.06,607.75l10.86-14.91,5.19-5.9,2.6-6.03-26.83,30.09-4.24,5.08,2.25,2.34,5.51-.57,4.65-10.09ZM502.81,586.78l3.94-2.36,2.64-3.26-3.52,1.73-4.28,3.7c-1.22-.19.44.07,1.22.19ZM221.18,602.68l-3.46-2.41-2.49-1.54-6.59-3.44-20.5-13.26,3.72,5.15,9.71,6.31,13.76,7.23,5.84,1.96ZM233.8,590.46l6.12-8.55-9.03,7.77,2.9.77ZM248.87,602.24c5.18-7.93,8.9-12.83,14.42-19.58l-3.7-.35-16.7,18.01,5.98,1.92ZM310.72,585.69l2.17-3.84-4.01,3.76c.72.03,2.23.1,1.84.09ZM208.1,587.8l-6.36-4.34-2.75.17,5.42,4.43,3.7-.26ZM219.61,586.11l-.35-1.69-2.07-1.18h-2.45s-1.52,2.13-1.52,2.13l4.09,2.77,2.3-2.03ZM240.56,596.32l4.76-7.97,2.62-4.44-2.94,3.2-7.31,7.15,2.88,2.07ZM315.04,590.33l3.74-4.59-2.33-1.7-2.01,1.4-2.89,2.88,3.49,2.01ZM275.85,606.25l15.75-18.32-4.33-2.25-17.08,19.01,5.67,1.57ZM225.92,589.36c0-1.29-1.04-2.33-2.33-2.33s-2.33,1.04-2.33,2.33,1.04,2.33,2.33,2.33,2.33-1.04,2.33-2.33ZM214.58,593l-2.74-3.53-2.4-.52-.51,1.63,2.15.55,3.5,1.87ZM325.08,596.23l3.67-3.71-5.08-3.44-3.56,3.99,4.97,3.16ZM310.83,595.75l1.93-3.82-2.66-1.85-3.6,3.47,4.33,2.2ZM416,590.5c0-.28-.22-.5-.5-.5s-.5.22-.5.5.22.5.5.5.5-.22.5-.5ZM232.17,594.76l-2.56-3.72-2.79,2.37,5.35,1.35ZM488.47,599.43l3.4-2.43,2.19-1.08,4.41-2.61,2.63-2.15-6.22,2.84-4.16,2.77-2.37,1.13.13,1.53ZM220.09,593.45l-3.23-1.3,4.21,4.48,1.05-2.1-2.02-1.08ZM290.64,602.39l-4.89,3.32,1.29-4.5,4-5.11,2.8-4.25-3.89,4.19-7.04,8.16-2.45,3.46,5.67,1.53,3.65-3.83.85-2.98ZM395.15,615.02l5.86-7.08,7-7.91,6.86-7.99c-3.58,3.08-6.81,6.3-9.89,9.99l-9.99,11.01-5.17,3.9c2.13.31,4.12-.52,5.32-1.91ZM459.33,592.59c.72-.8.39-.44-.47.5-.99,1.03-.77.8.47-.5ZM432.01,630.56c4.11.52,6.04.57,9.04.51,9.84-2.62,18.66-5.56,28.01-9.66,14.29-7.08,26.98-15.44,39.4-24.86.79-.78,1.99-2.08,2.42-2.67l-8.65,4.53-13.49,8.25-1.97.89-1.38-1.44-15.59,7.56-26.81,9.51c-4.34,1.64-7.18,3.16-10.99,7.38ZM323.56,597.87l-5.61-3.09-3.36,3.63,5.47,3.41,3.5-3.95ZM226.88,596.49l-2.3-.65-.86,2.01,3.8,2.65.98-2.03-1.62-1.98ZM237.63,598.17c-.67-1.88-1.45-2.38-2.7-1.84l2.7,1.84ZM302.17,605.14l6.22-7.8-4.18-1.78-13.68,14.18,6.58,1.8,5.06-6.41ZM337.16,602.69l2.68-3.06-3.76-2.78-3.47,3.31,4.56,2.53ZM369.97,615.03l7.83-11.24,4-5.92-15.12,15.12,3.28,2.04ZM230.66,599.03l-1.07,2.63,5.58,2.28,1.07-2.63-5.58-2.28ZM292,600.5c0-.28-.22-.5-.5-.5s-.5.22-.5.5.22.5.5.5.5-.22.5-.5ZM309.95,613.94l8.59-10.45-5.95-3.38-10.87,12.15,8.23,1.69ZM332.29,608.43l3.25-3.99-4.37-2.47-3.63,4.02,4.75,2.44ZM342.9,605.01l1.11-2.35-2.57-.8-1.21,2.24,2.67.91ZM364,611.14l5.7-9.03-6.99,6.71-.6,1.73,1.89.59ZM223,603.5c0-.28-.22-.5-.5-.5s-.5.22-.5.5.22.5.5.5.5-.22.5-.5ZM238.78,602.43l-1.09,2.88,8.16,3.08,1.09-2.88-8.16-3.08ZM258.78,604.36l-3.22-1.13-2.85-.12,2.09,2.01,2.7.96,1.28-1.72ZM351.17,607.02l-4.85-2.91c-1.31,2.3-1.37,2.42-1.35,2.38l2.1,1.6,4.11-1.07ZM467.55,608.69l3.19-1.28,2.4-2.7-8.29,3.8,2.7.17ZM262,606.5c0-.28-.22-.5-.5-.5s-.5.22-.5.5.22.5.5.5.5-.22.5-.5ZM338.62,605.48l-3.55,3.45,1.81,1.86,3.55-3.45-1.81-1.86ZM254.58,611.15l1.8-2.23-4.76-1.93-2.87.24-.82,1.65,6.64,2.28ZM269.45,609.79l4.69-.07-4.1-2.05-3.51-.78-1.55,1.72,4.46,1.18ZM325.09,616.48l5.32-6.3-4.48-2.45-7.43,7.51,6.58,1.24ZM435.76,612.68l4.32-.93,2.98-.67,7.63-2.52c.68.23-.77-.26-1.56-.52l-4.15,1.25-4.08,1.04-3.65.55-1.5,1.8ZM340.97,618.4l6.48-8.03-4.64-1.93-4.98,5.34-3.35,3.17,6.49,1.46ZM282.32,612.86c2.23-.4,2.5-1.39.04-1.73l-3.31-1.46-2.1.78c.16.42.63,1.61.51,1.31l4.87,1.1ZM356.09,610.7c-2.07-.33-2.9-.46,0,0,1.35,1.78.56.74,0,0ZM267.79,612.55l-2.87-.65-2.38-.98-1.55,1.62,8.32,2.77.78-1.82-2.31-.93ZM333.63,610.84l-4.97,4.9,1.7,1.73,4.97-4.9-1.7-1.73ZM245.92,613.65l-3.02-1.66,1.57,2.09,1.45-.44ZM293.89,615.95l1.25-1.45-1.25-1.2-5.22-1.14-1.87,1.51,7.09,2.28ZM429.68,613.73l3.45-1.49-4.35.07-2.92,1.42h3.81ZM351.09,618.52l3.88-5.18-3.9-.92-5.26,6.06,5.28.05ZM357.99,618.52l2.58-4.96c.62.43-.68-.47-1.12-.77l-3.83,3.89-1.26,2.37c2.45-.35,4.6-.66,3.64-.52ZM454.36,614.75l2.79-1.54-4.16.33-2.09,2.27,3.46-1.06ZM255.29,617.14l-3.76-1.62-4.86-1.46,3.67,2.62,5.05,1.81c.06.72.04.44-.11-1.34ZM387.75,616.54l-.13-2.7-3.85,4.22,3.98-1.52ZM424.82,614.5c0-.45-.37-.82-.82-.82s-.82.37-.82.82.37.82.82.82.82-.37.82-.82ZM277.32,615.44l-4.69.03,4.82,2.07,2.11.52.5-1.6-2.75-1.01ZM308.48,616.39l-8.81-1.98-2.08,2.13,7.88,2.12,3.01-2.27ZM368.62,618.34l-4.68-3.96-3.91,4.26,8.59-.29ZM414,616.5c0-.28-.22-.5-.5-.5s-.5.22-.5.5.22.5.5.5.5-.22.5-.5ZM387.59,624.51l.03,2.98,2.46.26c11.76-1.45,22.77-4.2,33.92-7.64l7.17-2.55-2.3-.05-3.93.73-3.96,1.05-3.88.85-29.5,4.37ZM429.97,622l8.64-2.51c1.16-.56,2.21-1.24,3.56-2.57l-16.84,5.46c-.62-.28.78.35,1.5.68l3.13-1.05ZM322.7,620.34l-.86-2.55-7.12.71c2.82,1.06,4.98,1.45,7.98,1.84ZM401.17,619.39l-6.03-.33c-1.52,2.5-.69,2.2.9,1.2l5.13-.88ZM311.32,633.75l2.26-1.31-2.39-1.94-15.31-2.46-32.01-7.86,7.11,3.88,10.92,4.38,8.28,2.35,21.15,2.96ZM381.77,622.4l8.02-.58,1.38-1.86-6.22.22-4.16.79c-1.48.09-2.66.58-4.06,1.85l5.04-.43ZM303.17,624.72c-1.69-1.32-2.67-1.68-3.96-1.74l-3.66-.8-6.68.07,4.56,1.36,4.03,1.23,5.71-.12ZM337.99,622.7c-2.43-.25-3.58-.32-4.05-.21l4.05.21ZM342,622v2h5v-2h-5ZM363.42,622.61l-1.74-.45-10.43-.23-1.3,2.05,14.78.03,1.25-1.73-2.56.33ZM376.1,622.48c-3.05-.49-5.7-.48-8.2.03,3.05.49,5.7.48,8.2-.03ZM316.92,626.55l-4.28-1.24-3.77-.42-2.32-1-1.57,1.77,4.39.97,3.78.48,2.31.97,1.47-1.54ZM377.47,627.86l7.51-.37-1.3-2.28-8.85.97-3.96,1.58,6.6.1ZM321,627.5c0-.28-.22-.5-.5-.5s-.5.22-.5.5.22.5.5.5.5-.22.5-.5ZM332.1,628.48c-3.05-.49-5.7-.48-8.2.03,3.05.49,5.7.48,8.2-.03ZM351,629v1h8.5v-1h-8.5ZM306.34,636.79l5.67,1.2,27.93,3.36,31.1-1.3c12.69-2.03,24.64-4.54,37.18-8.15,2.05-.22,2.2-.39-.04-.95l-5.22.68c-21.4,2.86-42.29,4.59-63.9,5.34l-24.06-.61-7.64-.81c-1.72-.18-3.92-.29-5.53-.28l4.51,1.53ZM324.93,632.38c-3.11-.51-6.5-1.2-9.79,1.12,5.94.6,10.72.58,15.97.23l-6.19-1.35ZM341.09,633.48c-2.7-.44-5.04-.43-7.19.03,2.7.44,5.04.43,7.19-.03Z"/>
  <circle cx="196.5" cy="498.5" r=".5"/>
</svg>