<?xml version="1.0" encoding="UTF-8"?>
<svg id="Capa_1" data-name="Capa 1" xmlns="http://www.w3.org/2000/svg" viewBox="0 0 694 694" fill="currentColor">
  <path d="M503,61c-.23,1.75,2.28.97,3.5,1,1.98.04,4.04-.15,6,0,.36.03.65.98,1,1,4.73.29,10.56-.64,15,0,.32.05,1.75,1.78,3.5,1l-3-4c3.7-.89,5.05,1.46,7.5,3,6.68,4.21,8.21,5.81,12.5,12.5.78,1.21,1.37,2.55,2.5,3.5l-1.5-6.5c-1.8-2.54-3.91-5.27,1-4.5-.53,1.65.79,1.91,1,2.5,1.52,4.2,2.63,10.34,4,15,2.83,9.6,8.55,24.42,7,35-.06.4-1.58,1.52-1,4,4.95,21.18,5.34,45.79,2,68-2.11,13.98-2.9,25.53-2,40,.29,4.67-1.49,11.07,2,14l-2,3c5.27,48.24,5.51,101.24,1,150-.03.36-.97.64-1,1-2.08,28.07,1.73,56.72,1,86.5h2c-.16,2.11.23,4.44,0,6.5-1.33,11.65-3.04,24.25-2,37,.42,5.17,2.58,11.83,3,17,.28,3.45-.53,7.8,0,11,.06.38.99.66,1,1l-3,1.5v-8l-2,3.5c-1.15,2.83,1.19,13.31,1,14-2.26,8.19,1.37,20.47,2,29,.21,2.76.43,8.49,0,11-.07.39-1.55.9-1,2.5l-3-2c-.63.76.57,11.97,0,14.5-.09.4-1.36.68-1,2,.11.4.91.62,1,1,.34,1.54-.23,3.81,0,5.5h-2l-1.5,3-9.5-5c-.48.42,2.47,2.84,3,3.5,1.26,1.59.97,1.03-.5,2.5-4.83-4.29-9.12-9.87-14-14-2.3-1.95-5.76-3.67-8-6l-2,1c-.36-.1-.57-.78-1-1-28.35-14.33-46.68-38.15-71-57-10.51-8.14-21.55-15.47-32-24-5.46-4.45-14.39-11-17.5-16.5-1.25-2.2-6.44-6.13-9.5-8.5-15.08-11.69-31.18-22.56-46-34-1.07-.82-1.94-2.11-3-3-1.74,1.48-3.24,3.61-5,5-16.03,12.69-30.92,28.32-47,41-14.4,11.35-28.87,19.99-44,31-8.27,6.02-16.62,15.85-25,21-.17.1-2.16.98-2.5.5,1.73-.57,1.85-3.37,2-3.5.21-.18,1.03.26,1.5,0,1.41-.79,3-3.45,4.5-4.5-.34-.48-2.33.39-2.5.5-1.01.62-1.95,2.24-3,3-6.58,4.74-12.52,9.88-19,14l-11,11,26-20c1.47.97.26,2.5-.5,3.5-.81,1.06-2.44,2.6-3.5,3.5-1.33,1.13-3.33,2.57-5,4-16.57,14.2-34.4,25.83-51,40-2.44,2.08-4.09,5.63-7.5,5l.5-3-11,8c-1.44,1.79-4.23.76-6.5,1v2h-2l-1-7h-3l2-10h-2c.35-4.67-.49-9.92,0-14.5.12-1.16,1.45-2.97,1-6-4.37-29.4,3.56-65.69-1-96s-3.6-66.45-1-98c1.07-13.01,1.41-26.14,3-39,.9-7.29.1-15.58,1-24,1.04-9.76,1.13-20.26,0-31-3.58-34-5.65-65.67-4-101,.52-11.22,1.62-23.97,3-35,.36-2.91-1.11-7.59-1-8,3.74-13.58-2.05-30.69,0-43,1-6-1.21-15.39,0-21,.07-.34,1.93-2.66,2-3,.25-1.17-.25-2.83,0-4,.18-.83,2.82-4.17,3-5,.75-3.44.18-9.03,1-13,.36-1.76,3.76-8.36,5-10,.68-.89,1.76-1.62,2.5-2.5l3,1c.71-.52,1.32-1.61,2-2,5.56-3.23,25.88-8.36,32-9,2.52-.26,5.66.41,8,0,.39-.07.89-1.55,2.5-1v3c1.78.15,3.77-.23,5.5,0,.37.05.64.96,1,1,4.34.47,17.76-.99,22-2,.46-.11.87-1.55,2.5-1v3c4.14-.18,8.36.25,12.5,0,28.06-1.68,57.78-.68,86-2,23.11-1.08,46.89-4.12,71-3,13.63.63,28.42,3.33,42,4,9.78.48,20.39-.8,30,0,3.19.27,7.4,2.76,11-1h42l2.5,3h-18ZM428,62c-.56-2.13-1.8-1.86-3.5-2-8.31-.68-16.64-.48-25-1-.35-.02-.65-.98-1-1-10.34-.55-21.12.4-31.5,0-.23,1.75,2.28.98,3.5,1,5.96.12,12.08-.31,18,0,9.43.5,20.45,2.25,30,3,3.12.25,6.38-.17,9.5,0ZM363,61c-1.72-.18-2.56-.84-4.5-1-3.11-.25-6.38.18-9.5,0,.56,2.13,1.8,1.86,3.5,2,2.2.18,4.75.04,7,0,1.22-.02,3.73.75,3.5-1ZM496.5,60c-.65,0-.65,1,0,1s.65-1,0-1ZM435,61h-5v1h5v-1ZM202,62h-25v1c1.81-.76,3.3,1,3.5,1h17c.33,0,.61-.92,1-1,1.03-.2,2.38.13,3.5,0v-1ZM382,62l-10,.5c1.27,1.78,2.99,2.34,4.5,3.5l3-2,2.5-2ZM390,62h-5v2l-3,3,4-1.5,4-3.5ZM403,63h-8c.37,2.07-1.72,3-3,4.5,2.53,3.24,2.82.45,4.5-.5.54-.31,2.46-.69,3-1,1.29-.73,3.12-1.5,3.5-3ZM291,64h-10.5l-8.5,10c1.45.13,2.72-.85,4-1.5,1.05-.53,5.16-3.41,5.5-3.5,2.18-.6,4.69-.49,7-2l2.5-3ZM293.5,64c-.65,0-.65,1,0,1s.65-1,0-1ZM334.5,64c-.65,0-.65,1,0,1s.65-1,0-1ZM412,64c-1.88-.24-3.47,0-4,2h4v-2ZM222,65l-7,1.5c1.48,1.97,1.92,1.56,4,1s3.53.17,3-2.5ZM228,65l-5.5,3-2.5,3,4.5-2,3.5-4ZM239,65h-5.5c-.78.95-5.7,4.9-4.5,6h4v-3h3.5l2.5-3ZM313,66c-1.91-.18-4.2.72-5.5-1l-2.5,4h4.5l3.5-3ZM343,65h-5l1.5,3h1l2.5-1v-2ZM389,68c.4.5,2.65-1.75,2-3-.4-.5-2.65,1.75-2,3ZM497,67l-.5-2-5.5,6c.66.66,4.25-5.01,6-4ZM502,67l-.5-2-7.5,7c3.58,0,4.7-5.26,8-5ZM180,66c-3.39.26-7.17-.36-10.5,0-.36.04-.62.94-1,1-1.33.21-3.69-.63-4.5.5l1.5,2.5c.82-1.51,2.08-.7,3-1,.4-.13.6-.88,1-1,.92-.28,2.05.33,4,0,2.26-.38,5.52,1.18,6.5-2ZM246,66c-2.44-.69-2.74.76-4,1.5-1.14.67-2.73.82-3,2.5l4-1.5,3-2.5ZM257,66c-2.05-1.31-7.09,3.77-6,5l6-5ZM275,66c-1.64.27-4.09-.39-5.5,0-.82.22-5.62,5.69-6.5,7,3.37-.12,5.41-3.57,8.5-4l3.5-3ZM299.51,65.19l-5.81,3.49.79,1.32,5.81-3.49-.79-1.32ZM322,66h-5v2l-2,2c2.85.22,5.84-1.43,7-4ZM347,66c-1.25-.65-3.5,1.6-3,2,1.25.65,3.5-1.6,3-2ZM477,67l-8-1,5.5,3c2.21.16,2.89.44,2.5-2ZM488,66c-1.21-.48-5.77,2.38-5,3,2.37.47,4.03-.82,5-3ZM491.5,66l-3.5,3.5.5.5,3.5-3.5-.5-.5ZM535,66h-2v1h2v-1ZM208,67h-5v.5l2.5,2.5,2.5-3ZM244,73c2.52-.17,5.85-3.5,6-6l-6,6ZM264,67c-3.27-.37-5.66,2.45-8.5,3l-5.5,4.5,2.5,2.5,11.5-10ZM289,76c4.47.58,6.36-1.64,8.5-5l4.5-3.5-5.5,2.5-7.5,6ZM333,67c-.95-.95-4.56,2.58-5,4,2.61.51,5.08-1.42,5-4ZM352,72l6-4.5-3.5,1.5-2.5,3ZM362.5,67l-5.75,5.75,1,1,5.75-5.75-1-1ZM373,68l-3.5-1-4.5,4,4.5,1,3.5-4ZM404.5,67c-.65,0-.65,1,0,1s.65-1,0-1ZM481,67h-2v1h2v-1ZM511,67l-4.5,4-2,3c1.5-1.28,2.43-3.37,4.5-3l2-4ZM517,67h-2c.2,1.21-.02,1.79-1,2.5l.5.5,2.5-3ZM524,67c-2.59-.51-5.08,1.41-5,4l3-1.5,2-2.5ZM326,68l-4,1v1h2.5l1.5-2ZM372,73c1.82.5,7.34-3.49,6-5l-6,5ZM446,69c-2.17.54-3.14-1.11-5-1v2h5v-1ZM531,73c.84-2.45-5.18-5.73-6-5l.5,2-1,1c-.99.5.74,1.93,1,2,1.43.38,3.85-.26,5.5,0ZM189,71l-2-2v2h2ZM201,70l-6,1,4.5,2,1.5-3ZM454,69c-2.75-.27-5.21-.1-5,3,2.37.47,4.03-.82,5-3ZM179.26,70.98c0-.68-.55-1.24-1.24-1.24s-1.24.55-1.24,1.24.55,1.24,1.24,1.24,1.24-.55,1.24-1.24ZM213,70c-1.76-.36-2.24,1.36-4,1l1.5,2,2.5-3ZM337,70c-1.88-.24-3.47,0-4,2,1.88.24,3.47,0,4-2ZM386,70h-1.5l-1.5,1.5,1.5,1.5h1.5v-3ZM407,70h-3v.5l1.5,1.5h1.5v-2ZM427,70h-4v2c1.88.24,3.47,0,4-2ZM144,86c.5-4.41,4.97-6.74,6-10.5l3.5-4.5c-1.76,2.86-6,4.15-7.5,6.5-.56.88-2.01,4.2-2.5,5.5-.39,1.05-1.51,3.07.5,3ZM433,71l-4,1v1h2.5l1.5-2ZM465,71h-2l1.5,2h.5v-2ZM144.5,72c-.65,0-.65,1,0,1s.65-1,0-1ZM186,72c-2.4-.37-4.24.48-4,3,.83.83,3.78-1.67,4-3ZM194.26,72.98c0-.68-.55-1.24-1.24-1.24s-1.24.55-1.24,1.24.55,1.24,1.24,1.24,1.24-.55,1.24-1.24ZM214,76h2.5l1.5-1.5-1.5-2.5c-1.2,1.33-2.89,2.1-2.5,4ZM229,73c-1.51.42-1.82-.69-3-1v3h1.5l1.5-2ZM238,72h-2v1h2v-1ZM288,72c-1.61-.85-6.84,2.29-6,3,2.44.68,2.72-.74,4-1.5s2.25,0,2-1.5ZM306,72h-5v1h5v-1ZM314,72c-1.25-.65-3.5,1.6-3,2,1.25.65,3.5-1.6,3-2ZM415,72h-4v1l4,1v-2ZM440,72c-2.75-.27-5.21-.1-5,3,2.75.27,5.21.1,5-3ZM483,72h-3v1h3v-1ZM511.5,72l-1.5,1.5.5.5,1.5-1.5-.5-.5ZM543,78l-1.5-4c-1.41-1.25-3.42-2.29-5.5-2,1.73,2.76,3.22,5.92,7,6ZM176,74l-3-.5c-1.17.76-.91,2.48-2.5,3.5-.25.16-.79-.15-1,0-.66.46-3.84,3.69-3.5,4,2.2.68,3.43-2.7,4.5-3,.62-.18,1.38.18,2,0,.52-.15,3.15-3.05,3.5-4ZM343.26,73.98c0-.68-.55-1.24-1.24-1.24s-1.24.55-1.24,1.24.55,1.24,1.24,1.24,1.24-.55,1.24-1.24ZM351,74l-2.5-1-2.5,2.5,1.5,1.5,3.5-3ZM367,74l-4.5-1-1.5,2c1.99-.07,1.75,1.07,4,.5,1.03-.26,2.28-.29,2-1.5ZM393.5,73l-1.5,1.5.5.5,1.5-1.5-.5-.5ZM404,74l-7,1.5c1.88,2.92,5.92.88,7-1.5ZM462,75l-1.5-2h-1.5v2h3ZM473,73l-7,1.5,2.5,2.5h1l3.5-4ZM518,73h-2v1h2v-1ZM196.5,74c-.65,0-.65,1,0,1s.65-1,0-1ZM243.26,74.98c0-.68-.55-1.24-1.24-1.24s-1.24.55-1.24,1.24.55,1.24,1.24,1.24,1.24-.55,1.24-1.24ZM260.5,74l-4.75,4.75,1,1,4.75-4.75-1-1ZM319,74h-2v2l2-2ZM327,74c-2.4-.37-4.24.48-4,3,.17.2,4.82-2.34,4-3ZM379,75l2.5,1,.5-.5-3-1.5v1ZM422,74h-3v1c1.51-.42,1.82.69,3,1v-2ZM449,76c-.65-2.31-2.52-2.15-4.5-2l-2.5,3,7-1ZM493,74c-1.25-.65-3.5,1.6-3,2,1.25.65,3.5-1.6,3-2ZM519,78c2.02-.37,1.73-2.49,3-3.5l-.5-.5c-1.2,1.33-2.89,2.1-2.5,4ZM533.5,74c-.65,0-.65,1,0,1s.65-1,0-1ZM156,75c-1.5-.32-2.06.44-3,1.5v2.5c1.33-.22,3.83-3.17,3-4ZM192,76l-3.5-1c-2.69,1.95-1.78,5.11,1.5,5l2-4ZM207,75h-2v1h2v-1ZM234,75h-2.5l-1.5,1.5,2.5,1.5,1.5-3ZM302,75l-7,3c1.8.2,3.25-.06,5-.5s2.38-.35,2-2.5ZM332,75c-.83-.83-3.78,1.67-4,3l4-1v-2ZM355,75c-1.76-.31-3.29,1.36-4,3,1.76.31,3.29-1.36,4-3ZM371,75h-1.5l-1.5,2h3v-2ZM407.5,75c-.25.07-2.09,1.98-2.5,2.5-1.02,1.28-.88,2.12.5,2.5,2.28.63,4.82-2.52,6.5-3.5-1.01-1.52-2.88-1.96-4.5-1.5ZM479.5,74l-6,3,1,2,6-3-1-2ZM514,77l-2-2v2h2ZM527,75h-2.5l-1.5,1.5v2.5l4-4ZM223.43,75.04l-4.26,2.56,1.24,2.06,4.26-2.56-1.24-2.06ZM310,78l-1.5-2-3.5,1v2l5-1ZM339,77l-2.5-1-1.5,2,2.5,1,1.5-2ZM427,76h-2v1h2v-1ZM502,76c-1.76-.31-3.29,1.36-4,3,1.76.31,3.29-1.36,4-3ZM546.38,76.47l-1.18.71,4.28,7.13,1.18-.71-4.28-7.13ZM164.5,77c-.65,0-.65,1,0,1s.65-1,0-1ZM176,80c1.9.29,3.29-1.1,3-3l-3,3ZM213,77h-3v.5l1.5,1.5h1.5v-2ZM240,79l-2.5-2-2.5,3c2.17.54,3.14-1.11,5-1ZM250,80c.32-1.5-.44-2.06-1.5-3h-2.5c-.76.62,3.14,2.83,4,3ZM268,77c-2.84-.57-4.77,1.86-6,4,1.04.85,6.93-1.5,6-4ZM362,78l-5-1-1,3,3.5,1,2.5-3ZM411,80l2.5,2,4.5-3.5c-2.96-3.9-3.93,1.91-7,1.5ZM433,79l-1.5-2h-1.5v2h3ZM459,77l-6,3c1.91-.4,2.12,1.68,4,.5,1.1-.69,2.28-2.01,2-3.5ZM532.6,76.16l-3.26,5.44,2.06,1.24,3.26-5.44-2.06-1.24ZM205,78h-2v1h2v-1ZM315,78h-3v2c1.18-.31,1.49-1.42,3-1v-1ZM346,80l-1.5-2h-1.5v2h3ZM380,79l-4.5-1-2.5,2,4.5,2,2.5-3ZM488,78c-2.06-.2-4.2,1.94-4,4l4-4ZM159.5,79l-2.5,2.5.5.5,2.5-2.5-.5-.5ZM229,79c-1.88-.24-3.47,0-4,2,1.88.24,3.47,0,4-2ZM288,79h-2v1h2v-1ZM322,79h-4v2l4-1v-1ZM422.25,78.25l-4.75,4.75,1,1,4.75-4.75-1-1ZM443,80l-5.5-1-.5,2,3.5,2,2.5-3ZM466,79c-2.84-.42-4.82.26-6,3,2.84.42,4.82-.26,6-3ZM511,79l-3,.5v1.5h-1.5l-.5,2,3,1,2-5ZM528,81v-2l-2,1.5v.5h2ZM536,79l-1,4.5,2.5,1.5,3.5-3.5-5-2.5ZM197,85l4-3.5-1.5-1.5c-.77,0-2.8,4.04-2.5,5ZM209.26,80.98c0-.68-.55-1.24-1.24-1.24s-1.24.55-1.24,1.24.55,1.24,1.24,1.24,1.24-.55,1.24-1.24ZM218,80h-3v2h1.5l1.5-2ZM247,81l-4.5-1-1.5,3c1.76-.28,2.61,1.54,4.5,1,.84-.24,1.82-1.92,1.5-3ZM279,80c-3.58-.42-8.01.6-9,4.5,1.07,1.08,1.33,2.06,3,1,1.56-.99,4.46-4.05,6-5.5ZM296,80h-4v.5c1.1,1.54,2.14,1.73,4,1.5v-2ZM327,80h-3v2h1.5l1.5-2ZM350.26,80.98c0-.68-.55-1.24-1.24-1.24s-1.24.55-1.24,1.24.55,1.24,1.24,1.24,1.24-.55,1.24-1.24ZM366,80c-1.25-.65-3.5,1.6-3,2,1.25.65,3.5-1.6,3-2ZM387,81c-1.91.4-2.13-1.69-4-.5-.69.44-1.29,1.46-2,2,2.26,3.02,4.81,1.11,6-1.5ZM393.5,80l-.5.5,1.5,1.5.5-.5-1.5-1.5ZM519,81l-5-1-2,5,4.5,1,2.5-5ZM185,85l1-4c-2.02.37-1.73,2.49-3,3.5l2,.5ZM253.5,81c-.65,0-.65,1,0,1s.65-1,0-1ZM305,81c-2.84-.42-4.82.26-6,3,1.52.89,6.86-2.3,6-3ZM335,81h-4.5l-1.5,2h4.5l1.5-2ZM427,81c-1.13-1.07-5.4,3.67-5,4l3.5,1,1.5-5ZM472,83v-2h-1v2h1ZM497,81c-2.06-.2-4.2,1.94-4,4l4-4ZM179,85c.4.5,2.65-1.75,2-3-.4-.5-2.65,1.75-2,3ZM234,82h-3v.5l1.5,1.5h1.5v-2ZM285,82c-3.46-.69-4.96,1.17-7,3.5-.99,1.13-2.39,1.65-2,3.5l4-1.5,5-5.5ZM310,82c-1.76-.31-3.29,1.36-4,3,1.76.31,3.29-1.36,4-3ZM342,82c-2.75-.27-5.21-.1-5,3,2.17.54,3.14-1.11,5-1v-2ZM357,84c-.53-2.01-2.12-2.24-4-2,.53,2.01,2.12,2.24,4,2ZM376,84l-5.5-2-2.5,3c2.08-.29,4.09.75,5.5,2l2.5-3ZM404,85c.82-.66-4.29-3.71-5-3v2l5,1ZM454,83l-4.5-1-1.5,3,3.5,1,2.5-3ZM154,83c-1.9-.29-3.29,1.1-3,3l3-3ZM168.5,83c-.65,0-.65,1,0,1s.65-1,0-1ZM172.5,83l-2.5,2.5.5.5,2.5-2.5-.5-.5ZM203,86c.4.5,2.65-1.75,2-3-.4-.5-2.65,1.75-2,3ZM214,83h-2v1h2v-1ZM224,83h-3v2c1.18-.31,1.49-1.42,3-1v-1ZM261,85v-2h-1v2h1ZM317,83l-6,3h3.5l2.5-3ZM388,86c2.14.08,3.73.41,5-1.5-1.97-2.7-5.12-1.76-5,1.5ZM438,84c-1.91.4-2.13-1.69-4-.5-.67.43-3.99,2.73-4,3l4.5,1.5,3.5-4ZM470,83h-2v1h2v-1ZM472,86l3-2.5-.5-.5c-.71.98-1.29,1.2-2.5,1v2ZM236,87l2.5,1,2.5-1.5-3.5-2.5-1.5,3ZM292,84c-2.01-.13-2.81-.3-4.5,1-1.88,1.45-4.11,4.02-5.5,6l5.5-2,4.5-5ZM323,84c-2.61-.51-5.08,1.42-5,4,2.61.51,5.08-1.42,5-4ZM347,84c-1.88-.24-3.47,0-4,2,1.88.24,3.47,0,4-2ZM360.5,84c-.65,0-.65,1,0,1s.65-1,0-1ZM482,84c-2.61-.51-5.08,1.42-5,4,2.61.51,5.08-1.42,5-4ZM526,84h-2l1.5,2h.5v-2ZM543,84c-.08,2.14-.41,3.73,1.5,5,2.7-1.97,1.76-5.12-1.5-5ZM209,84.5l-4,4,2,2,4-4-2-2ZM227,88h1.5l1.5-1.5-1.5-1.5-1.5,1.5v1.5ZM249.5,85c-.65,0-.65,1,0,1s.65-1,0-1ZM330,85c-3.39-.69-5.48,1.25-7,4,3.27.4,6.76-.01,7-4ZM354,86l-6,.5,4.5,2.5,1.5-3ZM394,88l6-.5-4.5-2.5-1.5,3ZM409,87c.5-.4-1.75-2.65-3-2-.5.4,1.75,2.65,3,2ZM460,87c-.44-1.73-1.83-2.3-3.5-2l-1.5,1.5,2.5,1.5,2.5-1ZM506,85h-4l-1,3c1.6-.47,1.93,1.17,3,.5s2.28-2.01,2-3.5ZM523,89l-1-4-3,3c1.76-.36,2.24,1.36,4,1ZM531,85c-2.55-.39-2.98,2.01-4,4l2.5,1c1.91-1.27,1.58-2.86,1.5-5ZM192.6,85.16l-3.26,5.44,1.47.88,3.26-5.44-1.47-.88ZM218.5,86c-.65,0-.65,1,0,1s.65-1,0-1ZM253,88v-2l-2,1.5v.5h2ZM299,86l-4.5,1-5.5,5c1.67-.13,3.47.43,5-.5s3.88-3.92,5-5.5ZM371,88l-5-2v2c1.86-.11,2.83,1.54,5,1v-1ZM381,86c-2.4-.37-4.24.48-4,3,2.4.37,4.24-.48,4-3ZM145,91c2.06.2,4.2-1.94,4-4l-4,4ZM157,87c-1.9-.29-3.29,1.1-3,3l3-3ZM176,90c1.9.29,3.29-1.1,3-3l-3,3ZM257.5,87l-2.5,2.5.5.5,2.5-2.5-.5-.5ZM265.25,86.64l-.45,1.58,4.75,1.36.45-1.58-4.75-1.36ZM304,89l-.5-2-5.5,5.5,4.5-3.5h1.5ZM337,87c-2.96-.53-5.92.69-6,4,2.08,1.34,6.43-3.65,6-4ZM356,90c.4.5,2.65-1.75,2-3-.4-.5-2.65,1.75-2,3ZM415,87h-3v2h3v-2ZM449,88l-3.5-1-3.5,5c2.44.69,2.74-.76,4-1.5,1.14-.67,2.73-.82,3-2.5ZM489.5,87l-1.5,1.5.5.5,1.5-1.5-.5-.5ZM514,88l-2.5-1-1.5,2.5,3,1.5,1-3ZM534.5,87c-.65,0-.65,1,0,1s.65-1,0-1ZM165.5,88c-.65,0-.65,1,0,1s.65-1,0-1ZM198,88h-2v2l2-2ZM216,90l-2-1.5-5,5.5,2-2c2.26.53,2.57-2.4,5-2ZM341.25,87.25l-3.75,3.75,1.5,1.5,3.75-3.75-1.5-1.5ZM387,88c-2.5-.51-3.43.79-5,2.5l1.5,1.5,3.5-4ZM406,89l-2.5-1-1.5,3h4v-2ZM465,88c-1.88-.24-3.47,0-4,2,1.88.24,3.47,0,4-2ZM507.5,88c-.65,0-.65,1,0,1s.65-1,0-1ZM235,89h-3v.5l1.5,1.5h1.5v-2ZM243,91v-2h-1v2h1ZM260.5,89c-.65,0-.65,1,0,1s.65-1,0-1ZM311,89c-3.28-.72-6.64,1.62-7,5,1.66,1.54,6.47-3.5,7-5ZM369,91c-2.08.29-4.09-.75-5.5-2l-2.5,3c2.52-.55,4.16.99,6.5,1,2,.01,1.57-.03,1.5-2ZM421,91c-.53-2.01-2.12-2.24-4-2v2h4ZM455,90l-3-.5-4,4.5c3.39.69,5.48-1.25,7-4ZM469,89h-1.5l-1.5,1.5,1.5,1.5h1.5v-3ZM539,89h-2l-1,3h2l1-3ZM169.26,90.98c0-.68-.55-1.24-1.24-1.24s-1.24.55-1.24,1.24.55,1.24,1.24,1.24,1.24-.55,1.24-1.24ZM224.5,90c-.65,0-.65,1,0,1s.65-1,0-1ZM249,90h-2v2l2-2ZM265,90h-2v1h2v-1ZM276,92c-.53-2.01-2.12-2.24-4-2v2h4ZM317,90c-3.21-.56-5.43,2.74-7,5h4v-2l3-3ZM343,93l3.5,1,3.5-2.5-5.5-1.5-1.5,3ZM396,91c-1.93-.04-3.32-1.61-5.5-1-.41.11-2.36,2.2-2.5,3,1.62-.02,3.39,1.01,4.5,2l3.5-4ZM502,92l-1.5-2h-2.5v1l4,1ZM520,90h-4v2l2.5,1,1.5-3ZM548.5,90c-.65,0-.65,1,0,1s.65-1,0-1ZM157,95c2.06.2,4.2-1.94,4-4l-4,4ZM322,95l1-2.5-2.5-1.5-2.5,4h4ZM376.5,91c-.65,0-.65,1,0,1s.65-1,0-1ZM411,91h-3v1h3v-1ZM429,94c.23-2.81-1.9-3.34-4.5-3l-1.5,2,6,1ZM474,91c-1.9-.29-3.29,1.1-3,3,1.9.29,3.29-1.1,3-3ZM544,91c-4.19-.72-5.56,3.35-2.5,6l2.5-6ZM147,94v-2l-2,1.5v.5h2ZM176,95v-3h-.5l-1.5,1.5v1.5h2ZM203,92c-2.06-.2-4.2,1.94-4,4l4-4ZM222,92c-.58-.58-6,1.75-5,4,2.61.51,5.08-1.42,5-4ZM354,92c-1.76-.31-3.29,1.36-4,3,1.76.31,3.29-1.36,4-3ZM396,97c3.02.64,4.14-1.81,6-3.5l-3-1.5c-.19.2.26,1.03,0,1.5-1.12,2.02-3.74.58-3,3.5ZM465,94l-6.5-2-3.5,3,5,2.5c-2.67,3.45-5.7-.22-9,.5l-1,3,11-1v-2h2v-2h1.5l.5-2ZM508,92h-4v1c1.71-.31,2.62.21,4,1v-2ZM523,92h-2v2l2-2ZM150,97l2-3.5-.5-.5-3.5,4h2ZM167,93h-2v3l2-1.5v-1.5ZM181,96l1-2.5-.5-.5-1.5,3h1ZM194,97c2.02-.37,1.73-2.49,3-3.5l-.5-.5c-1.2,1.33-2.89,2.1-2.5,4ZM232,93c-2.14-.08-3.73-.41-5,1.5l1.5,1.5h1l2.5-3ZM260,93l2.5,3,1.5-1.5-1.5-1.5h-2.5ZM331,93c-2.84-.42-4.82.26-6,3,2.84.42,4.82-.26,6-3ZM375,95c-.53-2.01-2.12-2.24-4-2v2h4ZM417,93h-3v1h3v-1ZM477.5,93l-1.5,1.5.5.5,1.5-1.5-.5-.5ZM527.26,93.98c0-.68-.55-1.24-1.24-1.24s-1.24.55-1.24,1.24.55,1.24,1.24,1.24,1.24-.55,1.24-1.24ZM549,95v-2h-1v2h1ZM272,94l-7,3c1.75-.28,2.61,1.55,4.5,1,.71-.21,3.29-3.26,2.5-4ZM288.5,94c-.65,0-.65,1,0,1s.65-1,0-1ZM336,94c-1.9-.29-3.29,1.1-3,3,1.9.29,3.29-1.1,3-3ZM365,95l-6.5-1-2.5,3,7.5,1,1.5-3ZM406.25,93.25l-4.25,4.25,1.5,1.5,4.25-4.25-1.5-1.5ZM434,94h-2v2l2-2ZM513,95l3.5,1-1-2h-2.5v1ZM236.5,95c-.65,0-.65,1,0,1s.65-1,0-1ZM243.5,95c-.65,0-.65,1,0,1s.65-1,0-1ZM261,99l-2.5-3-3.5.5,2.5,2.5h3.5ZM344,96l-2.5-1-2.5,2h5v-1ZM380.26,95.98c0-.68-.55-1.24-1.24-1.24s-1.24.55-1.24,1.24.55,1.24,1.24,1.24,1.24-.55,1.24-1.24ZM440,95h-4c.03,3.97,3.97,3.97,4,0ZM501,96l-7-1,4,1.5,3-.5ZM144,98v-2h-1v2h1ZM163,100l1-2.5-2.5-1.5-1.5,1.5v2.5h3ZM169,100c1.64-.71,3.31-2.24,3-4-1.64.71-3.31,2.24-3,4ZM272,100l3,.5,3-3c-2.25-3.33-4.66.38-6,2.5ZM287,98l-2-2v2h2ZM302,96h-2l1.5,2h.5v-2ZM414,96c-2.9-.53-5.91.65-6,4h4c-.52-1.98,1.52-2.34,2-4ZM520.5,96c-.65,0-.65,1,0,1s.65-1,0-1ZM546,99v-3h-1v3h1ZM552,96c-3.69-.77-.82,3.14-3,4.5l2,6.5c1.75.23.98-2.28,1-3.5.05-2.5-.03-5.01,0-7.5ZM180,97l-3,1.5v2.5l3-1.5v-2.5ZM371,97c-1.88-.24-3.47,0-4,2h4v-2ZM385,97h-2v1h2v-1ZM424,100l-5.5-3h-1l-2.5,4c2.7-1.76,5.98-.77,9-1ZM440,102c1.2-1.35,7.98-.4,7-3.5-1.18-3.73-7.29.31-7,3.5ZM151,102c2.02-.37,1.73-2.49,3-3.5l-.5-.5c-1.2,1.33-2.89,2.1-2.5,4ZM206,98c-3.84-.83-6.12,2.18-8,5,2.03.05,3.77.45,5-1.5.15-.24-.15-.76,0-1,1.14-1.81,3.1-.88,3-2.5ZM217,98h-2v1h2v-1ZM234,100l-.5-2c-1.01,1.27-3.13.98-3.5,3l4-1ZM284,100l-2.5-2-2.5,3c2.17.54,3.14-1.11,5-1ZM347.5,98c-.65,0-.65,1,0,1s.65-1,0-1ZM534,99l-5-1v1l5,2v-2ZM227,99c-2.91.3-8.02-1.51-8,3l4.5-1,3.5-2ZM238,99v1h9v-1h-9ZM265,99h-2v1h2v-1ZM487,99h-4v2c1.88.24,3.47,0,4-2ZM497,100c-2.92.17-7.21-3.16-9,1,1.82-.03,3.67.04,5.5,0,1.22-.03,3.73.75,3.5-1ZM541,99h-3v2h1.5l1.5-2ZM214,102c-.94-2.68-3.41-2.73-5-.5v.5h5ZM300,100h-2v1h2v-1ZM309,100h-4.5l-1.5,2h6v-2ZM360,101l-10.5-1-3.5,1.5c1.31,1.98,2.58,1.4,4.5,1.5,2.71.14,8.38,1.04,9.5-2ZM434,100h-2v1h2v-1ZM437.26,100.98c0-.68-.55-1.24-1.24-1.24s-1.24.55-1.24,1.24.55,1.24,1.24,1.24,1.24-.55,1.24-1.24ZM520.5,100c-.65,0-.65,1,0,1s.65-1,0-1ZM543.9,99.8l-1.6,4.8,1.8.6,1.6-4.8-1.8-.6ZM141.5,101c-.65,0-.65,1,0,1s.65-1,0-1ZM188,106c1.55,1.32,4.32-3.35,4-5l-4,5ZM316,101h-5v1h5v-1ZM526,101l-5,5,3-.5c-.62-2.33,1.36-2.79,2-4.5ZM156,103l-.5,3c1.53-1.39,2.26-1.74.5-3.5-.97-.97-2.17,1.5-3,2l3-1.5ZM373,102l-2.5,2c-1.57-2.54-7.06-3.39-8.5,0l9,2v-2l2-2ZM374,106h14.5c.33,0,.62-.94,1-1,1.36-.2,4.59.93,4.5-1-2.04-.24-4.58.34-6.5,0-.35-.06-3.65-1.94-4-2-1.78-.32-4.11.22-6,0l-3.5,4ZM511,102h-5v3c1.21.48,5.77-2.38,5-3ZM534,103l-2.5-1-4.5,6,3.5,1c1.88-1.03,1.15-2.33,1.5-3.5.16-.52,2.57-2.02,2-2.5ZM135,105v-2h-1v2h1ZM149,105v-2h-1v2h1ZM176.5,103l-1.5,1.5.5.5,1.5-1.5-.5-.5ZM184,106l3-2.5-.5-.5c-.71.98-1.29,1.2-2.5,1v2ZM499,103h-3v1c1.51-.42,1.82.69,3,1v-2ZM514,103h-2v1h2v-1ZM210,104h-5v1h5v-1ZM401,104h-4v1h4v-1ZM402.5,104c-.65,0-.65,1,0,1s.65-1,0-1ZM196.5,105c-.65,0-.65,1,0,1s.65-1,0-1ZM537.5,105c-.65,0-.65,1,0,1s.65-1,0-1ZM146,106l-2,.5,4,3.5-2-2v-2ZM170,111l1-5c-2.66.59-1.37,3.22-3,4.5l2,.5ZM249,106h-6v1h6v-1ZM358,107c-1.69-.23-3.96.34-5.5,0-3.25-.73-5.2.47-9,0-4.71-.59-9.59-1.39-15-1-.36.03-.64.97-1,1l-7.5,1h19v2c1.95.88,4.15-.96,4.5-1,2.82-.35,6.14.31,9,0,.36-.04.62-.94,1-1,1.36-.2,4.59.93,4.5-1ZM503.5,106c-.65,0-.65,1,0,1s.65-1,0-1ZM237,108c-1.72-.18-2.57-.83-4.5-1-1.32-.11-2.68.08-4,0l-2.5,2c2.49-.03,5,.05,7.5,0,1.22-.02,3.73.75,3.5-1ZM512,107h-3v1h3v-1ZM540,111l3-1.5-1.5-2.5-1.5,1.5v2.5ZM521,108h-2l1.5,2h.5v-2ZM483,110c-6.8-.23-13.7.31-20.5,0-.35-.02-.65-.98-1-1-4.48-.24-9.03.17-13.5,0l7.5,1c.36.03.64.97,1,1,7.13.51,15.74.15,23,0,1.22-.02,3.73.75,3.5-1ZM158.5,110c-.65,0-.65,1,0,1s.65-1,0-1ZM188,110h-2v1h2v-1ZM257,110v3h79v-3h-79ZM509,158c.15-1.44-.22-3.13,0-4.5.35-2.13,1.84-7.02,2-9,.7-8.65-.47-18.14-3-26-.13-.41-.9-.61-1-1-.23-.85.23-2.15,0-3-.07-.24-3.26-3.43-3.5-3.5-.97-.27-4.75-.16-6,0-.37.05-.62.93-1,1-16.48,2.93-37.96,1.04-54-1-8.81-1.12-18.67-1.34-28-1-14.15.51-29.82,2.19-44,3-32.8,1.88-67.97,3.45-101,1-21.43-1.59-44.34-3.34-66-1-2.08.23-5.33-.46-7,0-1.5.41-8.28,9.09-10.5,10.5.16,1.95-.24,4.11,0,6,1.92,15.39,2.17,33.08,1,49-.52,7.13-3.3,15.18-4,22-.36,3.49-.68,21.55,0,24,.34,1.22,4.25,2.63,3,5.5h-2c.17,3.12-.24,6.38,0,9.5,1.97,25.17,4.24,51.38,6,77,.25,3.62-.18,7.36,0,11l-3,3.5-1-46-2,2.5c.95,14.48-1.72,31.41,1,45,1.74,8.71-.63,15.86,1,24,5.49,27.47,2.48,57.54-1,85-1.49,11.72-1.77,26.23,0,38,1.07,7.09,2.59,15.83,3,23,.72,12.61-.53,25.83,0,38.5,1.48-.41,2.34-2.09,3.5-3,8.65-6.74,18.02-14.36,27-21,2.09-1.55,12.02-7.75,12.5-9.5.23-.85-.23-2.15,0-3,.88-3.19,37.46-35.53,42.5-39.5,15.01-11.83,33.77-21.78,46.5-36.5,1.9-2.2,4.09-3.23,5.5-4.5,1.71-1.54,9.19-9.76,10-10,.65-.19,1.7.11,2.5,0v2c1.86-.03,5.02-1.74,6-3.5.26-.47-.19-1.31,0-1.5.17-.17.96.22,1.5,0,.85-.35,1.53-1.64,3.5-1v4c1.89-.73,2.62,1.75,3.5,2,1.64.47,3.76-.24,3.5,3v-4c1.36-.27,3.61.16,4,1.5,1.08,3.77,1.4,4.31,4.5,6.5,12.87,9.09,25.91,17.35,38,27,18.02,14.39,33.98,33.66,52,48,14.89,11.85,31.1,22.51,46,34,2.06,1.59,3.63,4.97,6.5,5l1,2c.18-5.47-.24-11.02,0-16.5.98-21.97.35-43.33-1-65-2.81-45.31-1.65-87.81,3-132,1.63-15.52-1.25-28.94-2-44-1.79-36.12,2.69-69.78,4-104,.25-6.48-.18-13.03,0-19.5h-3ZM525.5,110c-3.23.96-3.02,6.2,1,5,3.23-.96,3.02-6.2-1-5ZM550,113v-3h-1v3h1ZM166.5,111c-.65,0-.65,1,0,1s.65-1,0-1ZM514.5,111c-.65,0-.65,1,0,1s.65-1,0-1ZM164,112c-4.14-.06-4.14,5.06,0,5l1-2.5-1-2.5ZM536,112c-.92.18-2.61-.58-3,.5-.51,1.4-.87,3.04-2,4l.5,3.5,3.5-4.5,1-3.5ZM559,119v-7h-1v7h1ZM154,118c.4-.35-1.91-2.45-2.5-3s-1.69-2.4-2.5-1.5c2.18,1.38,1.93,4.88,5,4.5ZM179,115v-2h-1v2h1ZM541,113l-3,.5-3,9.5,3-.5,3-9.5ZM139.5,114c-.65,0-.65,1,0,1s.65-1,0-1ZM515,118v-3h-1v3h1ZM545,115l-3,2.5-1,3,.5,5.5,2.5-3.5,1-7.5ZM146,123c.49-1.93-1.21-2.34-2-3.5-.16-.24.15-.8,0-1-.39-.52-2.68-2.86-3-2.5-.47,1.93,1.18,2.34,2,3.5.96,1.35,1.32,3.08,3,3.5ZM554,116h-1v11h1v-11ZM159.5,117l-.5.5,1.5,1.5.5-.5-1.5-1.5ZM521.5,117l-.5.5,1.5,1.5.5-.5-1.5-1.5ZM167,120v-2l-2,1.5v.5h2ZM143,125c.48-1.93-1.19-2.34-2-3.5-.3-.42-.3-2.52-2-2.5-.48,1.93,1.19,2.34,2,3.5.3.42.3,2.52,2,2.5ZM155,120c-.39,1.9,1.3,2.67,2.5,4l.5-.5c-1.27-1.01-.98-3.13-3-3.5ZM514.5,120c-.65,0-.65,1,0,1s.65-1,0-1ZM176.5,121c-.65,0-.65,1,0,1s.65-1,0-1ZM549,130l1-9-3,4.5c-.15,1.98-.31,3.85,2,4.5ZM139.5,125l-.5.5,3.5,3.5.5-.5-3.5-3.5ZM148.5,125l-.5.5,1.5,1.5.5-.5-1.5-1.5ZM536,127v-2h-1v2h1ZM525.5,126l-.5.5,1.5,1.5.5-.5-1.5-1.5ZM542,128l-2.5-1-1.5,1.5v2.5h3l1-3ZM162.5,128c-.65,0-.65,1,0,1s.65-1,0-1ZM142,133c.24-1.88,0-3.47-2-4-.24,1.88,0,3.47,2,4ZM156,135c.48-1.93-1.19-2.34-2-3.5-.3-.42-.3-2.52-2-2.5-.48,1.93,1.19,2.34,2,3.5.3.42.3,2.52,2,2.5ZM525,139c-2.13-2.99-4.12-6.64-7-9-.41,2.29,2.04,3.05,3,4.5.15.23-.15.76,0,1,1.05,1.64,1.56,3.82,4,3.5ZM553,132l-2-2v2h2ZM530.81,131.51l-1.47.88,2.56,4.26,1.47-.88-2.56-4.26ZM548,132l-2,2.5v3.5l2-6ZM145,137c.4.5,2.65-1.75,2-3-.4-.5-2.65,1.75-2,3ZM177,134h-2v3.5l1.5,1.5h.5v-5ZM544,136v-2h-1v2h1ZM142,138c.65-1.25-1.6-3.5-2-3-.65,1.25,1.6,3.5,2,3ZM523,141c.39-.39-2.37-2.9-3-3.5-.69-.66-2-2.76-3-2l6,5.5ZM555,151v-13.5l-5-2.5-1,8,4-1c.81.83-1.7,8.26,2,9ZM153,144l-3.5-7-.5,3.5,4,3.5ZM183,137v45c1.75.23.98-2.28,1-3.5.05-2.32-.16-4.69,0-7,.02-.35.98-.65,1-1,.49-8.71.7-21.41,0-30-.14-1.7.13-2.94-2-3.5ZM162,141l-3-3c-.29,1.9,1.1,3.29,3,3ZM536,141c.65-1.25-1.6-3.5-2-3-.65,1.25,1.6,3.5,2,3ZM170.5,139c-.65,0-.65,1,0,1s.65-1,0-1ZM142,147l1-4.5-1.5-2.5c-1.74-.07-2.64,6.7.5,7ZM521,151l-1-5.5,1-2-3-3.5c-.3,1.73,1.58,2.66,1,4.5-.13.41-.91.62-1,1-.54,2.29-.19,5.85,3,5.5ZM529,145c.31-1.76-1.36-3.29-3-4-.31,1.76,1.36,3.29,3,4ZM539,142h-2c-.29,1.9,1.1,3.29,3,3l-1-3ZM563,182c.16-2.45-.23-5.08,0-7.5.03-.36.97-.64,1-1,.48-6.67.58-17.39,0-24-.03-.36-.95-.63-1-1l-1-5.5c-.36,5.35.49,11.23,0,16.5-.15,1.59-1.41,3.71-1,7,.05.37.97.64,1,1,.32,3.46-.07,7.43,0,11,.02,1.22-.75,3.73,1,3.5ZM160,147c.29-1.9-1.1-3.29-3-3l3,3ZM145,147v-2h-1v2h1ZM147,146l1.5,7c2.92-1.88.88-5.92-1.5-7ZM157,148v-2h-1v2h1ZM169,149l-2.5-3-.5.5c.98.71,1.2,1.29,1,2.5h2ZM142,149h-2v2l2-2ZM544,149h-2l1.5,2h.5v-2ZM168,153l-3-3c-.29,1.9,1.1,3.29,3,3ZM535,156c.48-1.93-1.19-2.34-2-3.5-.3-.42-.3-2.52-2-2.5-.61,1.61,3.37,6.7,4,6ZM174,154v-2h-1v2h1ZM156,162c.04-1.93,1.61-3.32,1-5.5-.14-.51-3.05-3.16-4-3.5.17,2.01-1.23,1.77-.5,4,.12.36,1,.63.5,1.5l3,3.5ZM555,161c-.35-2.72,1.3-6.87-2-8,.35,2.72-1.3,6.87,2,8ZM526,157v-3h-1c.42,1.51-.69,1.82-1,3h2ZM146,157v-2h-1v2h1ZM166,156l-4-1c-.53.54,1.76,5,2.5,5l1.5-1.5v-2.5ZM520,155h-2v1h2v-1ZM532,165l-1-4.5-3-3.5c-.63,3.85.6,6.21,4,8ZM150.5,158c-.65,0-.65,1,0,1s.65-1,0-1ZM171,167l1-5.5-2.5-3.5-2.5,4.5v1l4,3.5ZM541,163c.36-.37-3.3-5.77-4-5-.55,1.94,1.3,2.34,2,3.5.54.89-.58,2.34,2,1.5ZM518,170l3-5.5-1.5-5.5-1.5,11ZM149,164l1-4-2,1.5v2.5h1ZM154,170l1-4.5-3-3.5-.5,4,2.5,4ZM160.67,161.48l-1.39,6.25,2.65.59,1.39-6.25-2.65-.59ZM176,175v-8.5l-2-3.5,1,4.5c-1.64,1.05-.36,2.95-2,4l3,3.5ZM555,163h-2v1.5l1.5,1.5h.5v-3ZM523.5,164l-1.5,1.5.5.5,1.5-1.5-.5-.5ZM547.5,164l-.5.5,1.5,1.5.5-.5-1.5-1.5ZM539,168l-2.5-3-.5.5c.98.71,1.2,1.29,1,2.5h2ZM525,173l5-2.5-3.5-4.5-1.5,2.5v4.5ZM536,169c.65-1.25-1.6-3.5-2-3-.65,1.25,1.6,3.5,2,3ZM169,178l1-5.5-5-5.5-2,4.5,6,6.5ZM545,167v2.5l1.5,1.5,1.5-1.5-3-2.5ZM145,175v-4.5l-2-1.5c-.52,2.48.79,3.95,1,6h1ZM157,175c3.17.31,4.27-3.38,1.5-5h-.5l-1,5ZM537,174l-1.5-3-.5.5,1,2.5h1ZM554.5,171c-.65,0-.65,1,0,1s.65-1,0-1ZM545,175c.65-1.25-1.6-3.5-2-3-.65,1.25,1.6,3.5,2,3ZM552,175c.65-1.25-1.6-3.5-2-3-.65,1.25,1.6,3.5,2,3ZM150,183c-.43-2.37,1.65-4.09,1-6.5-.22-.83-1.93-1.83-3-1.5l-1,4.5,3,3.5ZM525,177v-2h-1v2h1ZM534,183c-.02-1.62,1.01-3.39,2-4.5l-3.5-3.5-2.5,2.5,4,5.5ZM166,183l-1-4.5-3-2.5c.4,1.91-1.69,2.13-.5,4,1,1.58,2.94,2.2,4.5,3ZM543,181l1-2.5-3-1.5,1,4h1ZM143,184l1-3.5-1-2.5h-1v6h1ZM177,187c-.44-3.05,1.76-8.96-3-9v5.5l3,3.5ZM525.5,180c-.65,0-.65,1,0,1s.65-1,0-1ZM555,198c-.24-2.39.34-5.2,0-7.5-.05-.37-.91-.61-1-1-.35-1.61.02-3.28-1-5-.56-.94-4.47-4.8-5.5-4.5-1.85.55-1.02,3.57-2.5,4.5,1.74.9,2.08,3.83,3.5,4.5,1.95.92,1.16-1.7,2.5-2.5.5-.99,1.93.74,2,1,.67,2.46-1.67,4.57-1,7l3,3.5ZM531,182c-3.3-.72-1.72,2.42-2,4.5l3,3.5c-.17-2.01,1.23-1.77.5-4-.46-1.41-1.76-2.42-1.5-4ZM162,183l-2,.5,2,3.5h2l-2-4ZM538.68,183.43l-1.33,5.98,2.65.59,1.33-5.98-2.65-.59ZM155,189l1-5h-1l-2,5h2ZM523.5,184c-.65,0-.65,1,0,1s.65-1,0-1ZM147,185c-2.98-.59-1.92,1.36-2,3.5l3,2.5-1-6ZM173,189l-2-2v2h2ZM162,198l-.5-5-4.5-5-1,4.5c1.44,1.91,2.76,5.41,6,5.5ZM524,191c.65-1.25-1.6-3.5-2-3-.65,1.25,1.6,3.5,2,3ZM177,191l-2-2v2h2ZM545,189c-.76.05-1.65-.48-2,.5-.48,1.33-1.22,2.51-1,4l3.5,4.5,2.5-4.5c-1.18-1.42-3.34-2.35-3-4.5ZM135,196v-6h-1v6h1ZM536,191l-.64,3.81,2.19.36.64-3.81-2.19-.36ZM176,194v-2h-1v2h1ZM528,192l-2,.5v5l3,3.5c-.64-2.11,1.53-3.66,1-5.5-.24-.84-2.68-1.56-2-3.5ZM146,194h-2l1,4h1v-4ZM522,200v-6h-1v6h1ZM151.5,196c-.65,0-.65,1,0,1s.65-1,0-1ZM544,204v-4.5l-4-3.5c-.4,3.27,1.03,6.6,4,8ZM135,199l-2,2.5c-.17,5.99.23,12.02,0,18-.01.35-.99.65-1,1-.59,15.79.44,31.71,0,47.5,1.75.23.98-2.28,1-3.5.14-6.99-.22-14.01,0-21,.24-7.76,1.7-18.23,2-26,.23-6.15-.17-12.36,0-18.5ZM145,205v-3.5l-2-2.5c-.16,1.42.64,2.07,1,3.5.26,1.04-.8,2.77,1,2.5ZM167.5,199c-.65,0-.65,1,0,1s.65-1,0-1ZM556,210v-6.5l-4-4.5v5.5l4,5.5ZM175.5,200c-.65,0-.65,1,0,1s.65-1,0-1ZM155,201l3.5,6,1-3-4.5-3ZM532,206l2-1.5v-3.5l-2,1.5v3.5ZM151,204v-2h-1v2h1ZM166,202l-1,3.5,1.5,1.5,1.5-1.5-1-3.5h-1ZM527,207c.47-2.33-2.47-2.67-2-5h-1c-.27,2.75-.1,5.21,3,5ZM176,216c-.16-2.79.23-5.71,0-8.5-.14-1.7.13-2.94-2-3.5.8,3.26-1.8,6.59-1,9.5.11.41,2.2,2.36,3,2.5ZM513,207v-2h-1v2h1ZM158,212c.08-1.24-4.42-6.65-5-6l2,3.5,3,2.5ZM541.5,206c-.65,0-.65,1,0,1s.65-1,0-1ZM149,211l1-4-2,1.5v2.5h1ZM539,216l1-4.5-4-4.5-1,4.5c1.26,1.48,1.7,3.75,4,4.5ZM550,207h-2c-.23,1.86-.04,2.9,1.5,4h.5v-4ZM524,209l-2,.5c1.63,1.28.34,3.91,3,4.5l-1-5ZM166,213l-1.5-3,.5,1.5-1,1.5h2ZM511,274c.17-4.14-.24-8.36,0-12.5.02-.35.98-.65,1-1,.55-11.22.53-23.33,1-34,.24-5.48-.18-11.03,0-16.5l-1,8.5c-.03.36-.98.65-1,1-.32,4.89-.8,10.75-1,15-.54,11.54-.23,24.38,0,36,.02,1.22-.75,3.73,1,3.5ZM531.5,210c-.65,0-.65,1,0,1s.65-1,0-1ZM156,220l-1-5.5-3-3.5-1,4.5,5,4.5ZM555,215l1-2.5-2-1.5-1,2.5,2,1.5ZM547.5,214c-.65,0-.65,1,0,1s.65-1,0-1ZM148,215h-2v4h1l1-4ZM168.5,215c-.65,0-.65,1,0,1s.65-1,0-1ZM164,219v-1.5l-2-1.5v3h2ZM524,218l-2-2v2h2ZM173,217l-2,.5v3l5,4.5c1.22-4.11-2.72-4.66-3-8ZM139,223v-5h-1v5h1ZM530.26,218.98c0-.68-.55-1.24-1.24-1.24s-1.24.55-1.24,1.24.55,1.24,1.24,1.24,1.24-.55,1.24-1.24ZM533,218c.92,1.32,1.68,2.6,2.5,4,1.01,1.73,1.59.43,2.5-.5l-5-3.5ZM546,224l1-4.5-3-1.5c.48,2.07-1.59,6.81,2,6ZM153,228l1-4.5-4-4.5-1,4.5,4,4.5ZM555,222l-2-2v2h2ZM168,224v-1.5l-1.5-1.5-1.5,1.5,1.5,1.5h1.5ZM533,222l-2,.5c-.28,2.29,2.1,4.56,3.5,6.5l.5-3.5-2-3.5ZM146,229v-6h-1v6h1ZM162,223h-2v4h1l1-4ZM528,224h-2v3l2-1.5v-1.5ZM174,232c.72-3.28-1.62-6.64-5-7-.49,1.93,1.21,2.34,2,3.5.16.24-.15.8,0,1,.65.87,1.94,2.17,3,2.5ZM554,234c-.47-2.83,1.51-7.64-2-9l-1,5.5,3,3.5ZM544,231v-3.5l-2-1.5v3.5l2,1.5ZM166,227c-3.97.03-3.97,3.97,0,4v-4ZM143,242l-1-5.5c-.86-2.14-3.5-3.55-3-6l-2-2.5v11c1.49-.76,5.78,3.28,6,3ZM151,236l1-3.5c-1.26-1.48-1.7-3.75-4-4.5.26,3.18-1.42,8.05,3,8ZM531,228l-2,.5v3l3.5,4.5c4.18-3.43-1.4-4.57-1.5-8ZM525,233v-4h-1v4h1ZM157,234l2-1.5v-2.5h-1l-1,4ZM170,231l-2,.5v3.5l4,2-2-6ZM163,240c.49-2.56,2.73-6.51-1-8-.45,1.87-.79,4.15-2,5.5l3,2.5ZM518,232h-2v1h2v-1ZM540,237l2-1.5v-1l-1.5-1.5h-.5v4ZM547,235v-2h-1v2h1ZM552,238l-1-4-2,2.5v1l5,4.5v-4h-2ZM531,243c-.17-2.01,1.23-1.77.5-4-.54-1.65-1.77-3.35-3.5-4v4.5l3,3.5ZM156.5,238c-.65,0-.65,1,0,1s.65-1,0-1ZM166,238l-1,5.5,3.5,3.5c4.07-2.07-.63-11.02-2.5-9ZM520,253c.78-.91-1.69-3.67-2-4.5-.7-1.89-1.08-4.77-1-7l-2-3.5v11h2c-.82,1.27,2.63,4.43,3,4ZM545,242v-4h-.5l-1.5,1.5v1l2,1.5ZM523.5,239c-.65,0-.65,1,0,1s.65-1,0-1ZM539,243v-4h-1l-1,4h2ZM150,242v-2h-1v2h1ZM155.5,240c-.65,0-.65,1,0,1s.65-1,0-1ZM182,263v-21.5l-2-1.5,1,6.5c-1.97,4.44-1.97,9.28-1,14l2,2.5ZM161,247v-4.5l-2-1.5-1,2.5,3,3.5ZM142,254c-.48-2.75-2.01-5.68-4-7.5v-2l-2-2.5v6.5l6,5.5ZM528,251l1-4.5-3-4.5-1,4.5,3,4.5ZM551,248l-4-6c-.67,2.44.73,2.71,1.5,4,.89,1.48-.16,2.47,2.5,2ZM143,246l-3-3c-.29,1.9,1.1,3.29,3,3ZM543,248l1-2.5-1.5-2.5-2.5,3.5,3,1.5ZM533,248v-2h-1v2h1ZM536,252l1-5c-1.61.08-3.49,4.51-3,5h2ZM145.14,248.39l-.54,4.31,2.4.3.54-4.31-2.4-.3ZM159,255c-.17-2.01,1.24-1.77.5-4-.4-1.22-1.04-2.73-2.5-3l-1,4.5,3,2.5ZM164,248l2.5,6v-3l-2.5-3ZM549,256c-.17-2.01,1.23-1.77.5-4-.59-1.8-2.18-4.21-4.5-4l1,4.5,3,3.5ZM540,258l2-6.5-3-1.5c.29,2.08-.75,4.09-2,5.5l3,2.5ZM175,254v-3h-1v3h1ZM519,261l-1-5.5-4-3.5c-.88,4.42,1.54,6.79,5,9ZM526.5,253c-.65,0-.65,1,0,1s.65-1,0-1ZM136,264l5-1.5c1.13-4.38-3.81-4.76-4-8.5-1.65-.25-.96,1.35-1,2.5-.08,2.5.05,5.01,0,7.5ZM151,257v-3h-.5l-1.5,1.5v1.5h2ZM163,254l.5,7,2.5-3.5-3-3.5ZM156,255l-2,1.5,1,7.5,3-4.5c-.99-1.11-2.02-2.88-2-4.5ZM169.5,255c-.65,0-.65,1,0,1s.65-1,0-1ZM533.5,256l-1.5,1.5.5.5,1.5-1.5-.5-.5ZM546,264l1-4.5c-1.34-1.34-1.21-3.9-4-3.5l-1,4.5,4,3.5ZM174,257h-1.5l-1.5,1.5,1.5,1.5,1.5-1.5v-1.5ZM149,266c1.43-2.26-4.7-7.33-5-7-.47,1.93,1.18,2.34,2,3.5.96,1.35,1.32,3.08,3,3.5ZM537,265c3.7-1.52,1.86-4.78-1-6l-1,4,2,2ZM558.5,259c-.65,0-.65,1,0,1s.65-1,0-1ZM523,265c3.37-1.25,2.42-5.19-1-5-.54,2.17,1.11,3.14,1,5ZM168,264v-3h-1c.42,1.51-.69,1.82-1,3h2ZM162,271c-.72-2.65,1.65-5.08,1-7.5-.22-.82-1.93-1.83-3-1.5.41,2.43-1.66,4.11-1,6.5.11.41,2.2,2.36,3,2.5ZM514,271c2.11-1.6,1.71-.21,2.5,0,1.21.33,1.76-.84,2.5-1.5l-4.5-7.5-.5,9ZM172,263h-2l-1,3.5,3,1.5v-5ZM558,279l1-5.5c-2.48-1.68-.12-3.35,0-4,.34-1.92-.24-4.46,0-6.5l-3,5.5c.6,3.16-1.7,8.85,2,10.5ZM145,265l-2,.5c-.39,3.5.69,6.85,4,8.5-.29-1.75,1.55-2.62,1-4.5-.33-1.1-3.72-2.34-3-4.5ZM183,267l-4-2,2,4.5c-2,2.24-.61,6.38-1,9.5l2-2.5,1-9.5ZM536,271c-.4-1.91,1.69-2.13.5-4-.44-.69-1.46-1.29-2-2-2.28,1.82-1.42,1.64-.5,3.5.39.78.31,2.41,2,2.5ZM544,271l-3-6v3.5l3,2.5ZM154,271c.31-1.76-1.36-3.29-3-4-.31,1.76,1.36,3.29,3,4ZM165,274l1-7-2,3.5,1,3.5ZM176,268h-2v3.5l1.5,1.5h.5v-5ZM528,270v-2l-2,1.5v.5h2ZM169,279c-.73-3.2,3.29-7.18-1-9l-2,6.5v1l3,1.5ZM532,279l3-4.5-2-3.5-3,4.5,2,3.5ZM542,276c.47-2.37-.82-4.03-3-5l-1,2.5c1.33,1.2,2.1,2.89,4,2.5ZM152,279l1-4.5-3-2.5-1,4.5,3,2.5ZM521.81,271.51l-1.76,1.06,4.15,6.91,1.76-1.06-4.15-6.91ZM547,272h-2v1h2v-1ZM159,275l-2.5-1-.5.5,3,2.5v-2ZM174,274c-3.32-.65-1.52,1.72-2,3.5-.11.4-.93.63-1,1-.15.83-.19,3.29,0,4,.22.83,3.05,1.95,2,4.5l2-2.5-1-10.5ZM550.26,274.98c0-.68-.55-1.24-1.24-1.24s-1.24.55-1.24,1.24.55,1.24,1.24,1.24,1.24-.55,1.24-1.24ZM147,281c.2-2.06-1.94-4.2-4-4l4,4ZM523,286c-.17-2.01,1.23-1.77.5-4-.12-.36-1-.63-.5-1.5l-3-3.5v5.5l3,3.5ZM539,285l1-5.5-3-2.5c.02,1.62-1.01,3.39-2,4.5l4,3.5ZM544,280l1-2.5-.5-.5-1.5,3h1ZM137,278h-1v16h1v-16ZM157,285l1-4.5-3-2.5c.64,2.11-1.53,3.65-1,5.5.24.84,1.92,1.82,3,1.5ZM562,379l1-4.5c0-20.23,1.46-39.53,1-60,0-.34-.99-.66-1-1-.24-9.6,1.13-21.94,0-31-.05-.37-.93-.61-1-1-.24-1.27.89-3.7-1-3.5v49h2c-2.18,12.08-.38,25.73-1,38.5-.13,2.6-1.08,6.03-1,10,.02,1.22-.75,3.73,1,3.5ZM161.5,279c-.65,0-.65,1,0,1s.65-1,0-1ZM549,279h-2l-1,3.5,2,1.5,1-5ZM150,285c.24-1.88,0-3.47-2-4-.24,1.88,0,3.47,2,4ZM180,297c.2-2.76-.29-5.79,0-8.5.04-.36.94-.62,1-1,.3-1.99.66-5.73-2-6.5-.18,1.72-.84,2.56-1,4.5-.22,2.61.15,5.37,0,8l2,3.5ZM528,280.5l-1.5,1.5,3.75,3.75,1.5-1.5-3.75-3.75ZM540,288l3-3.5v-2.5c-2.41.44-1.62,2.4-2,3.5-.2.57-1.53.85-1,2.5ZM166,283h-2l2.5,3,.5-.5-1-2.5ZM514,283h-1v12h1v-12ZM558,283c-2.14-.09-1.9-.45-2,1.5-.14,2.83-.6,7.08,1,9v1c-3.66,2.8-1.42,8.62-2,13l2,1.5c.16-2.11-.23-4.43,0-6.5.04-.37,1-.67,1-1v-18.5ZM145,284l-2,.5,3,3,1.5,3.5c2.11-1.78,1.44-1.38,0-3-1.19-1.34-2.89-2.08-2.5-4ZM162,284c-3.08-.48-1.6.82-2,2.5-.34,1.46-1.18,2.05-1,3.5,2.98-.86,1.34-3.92,3-6ZM154,286h-2c-.51,2.5.79,3.43,2.5,5l1.5-1.5-2-3.5ZM529,287l-3-1-1,2.5,2.5,2.5,1.5-1.5v-2.5ZM545.5,286c-1.41.96-1.67,2.51-2,4-.39,1.77-.65,1.7,1,3,1.41-.96,1.67-2.51,2-4,.39-1.77.65-1.7-1-3ZM552,286h-2l1.5,2h.5v-2ZM523,291l-2.5-4-.5.5,1,3.5h2ZM165,294l-.5-6-2.5,4.5,3,1.5ZM173,292c.83-.83-1.67-3.78-3-4-.37,2.4.48,4.24,3,4ZM536,291c.29-1.9-1.1-3.29-3-3l3,3ZM534,298l1-4.5-2.5-2.5-2.5,3.5,4,3.5ZM552,301c-.51-3.51,1.88-9.96-3-10-.16,2.01.68,4.28-1,5.5v1l4,3.5ZM154,299l-2.5-7-1,4,3.5,3ZM527,296c-.48-1.66-2.52-2.02-2-4l-2,1.5c1.33,1.2,2.1,2.89,4,2.5ZM159,295v-2h-1v2h1ZM171,302l1-5.5-3-3.5c.44,2.36-1.66,4.11-1,6.5.11.41,2.2,2.36,3,2.5ZM164,301v-2.5l-1.5-1.5-1.5,1.5,3,2.5ZM525,301c.39-1.9-1.3-2.67-2.5-4l-.5.5c1.27,1.01.98,3.13,3,3.5ZM538,297h-2v4c2.01-.53,2.24-2.12,2-4ZM544,299l-2-2v2h2ZM144,300v-2h-1v2h1ZM158,302c.24-1.88,0-3.47-2-4v4h2ZM532,303c.47-2.37-.82-4.03-3-5-.47,2.37.82,4.03,3,5ZM152,305c.71-.71-2.34-5.82-3-5l1,5h2ZM542,307c-.28-1.76,1.54-2.61,1-4.5-.24-.84-1.92-1.82-3-1.5l-1,3.5,3,2.5ZM162,303l-2,2.5v1l3,2.5-1-6ZM170,309l-3-6v3.5l3,2.5ZM175,306v-3h-1v3h1ZM530,309l-3-6v3.5l3,2.5ZM550,306l-2.5-3-.5.5c.98.71,1.2,1.29,1,2.5h2ZM144,309v-3.5l-2-1.5v5h2ZM536,307v-1.5l-2-1.5v3h2ZM155,314c3.01-.99,2.75-6.32.5-8l-1.5,3.5,1,4.5ZM548,314l1-4.5-4-3.5-1,4.5,4,3.5ZM539,308h-2c-.93.93,2.27,4.7,4,4l-2-4ZM149,314c.47-2.33-2.47-2.67-2-5h-1c-.47,2.37.82,4.03,3,5ZM167,309c-2.22-.56-2.57.82-2,2.5.21.62,3.02,3.1,4,3.5l-2-6ZM175,315v-4.5l-2-1.5v4.5l2,1.5ZM520,309h-2l1.5,2h.5v-2ZM534,309h-2v5h1c-.11-1.86,1.54-2.83,1-5ZM162,318l-.5-5-2.5-2c.1,3.01-1.12,7.09,3,7ZM528,314c.65-1.25-1.6-3.5-2-3-.65,1.25,1.6,3.5,2,3ZM141.5,312c-.65,0-.65,1,0,1s.65-1,0-1ZM538,320l1-4.5-3-2.5-1,4.5,3,2.5ZM523,314l-2,1.5,4,3.5-2-5ZM547,320c.57-2.84-1.86-4.77-4-6-.62,1.61,3.4,6.71,4,6ZM148,321l.5-3-4.5-3c-1.34,2.08,3.65,6.43,4,6ZM155,320c-1.02-1.99-1.45-4.39-4-4l2,4h2ZM168,325v-5.5l-3-3.5-2,3.5v1l5,4.5ZM175,322c.53-1.65-.8-1.93-1-2.5-.38-1.1.41-3.06-2-3.5-.42,2.84.26,4.82,3,6ZM532,320l-1-4h-1v2.5l2,1.5ZM520,319l2.5,7c2.01-1.71,1.73-1.52.5-3.5-.82-1.33-1.43-3.1-3-3.5ZM545,328c.21-3.32.22-6.65-2.5-9l-2.5,4.5,5,4.5ZM160,325v-3.5l-2-1.5v3.5l2,1.5ZM535,323v-2h-1v2h1ZM154,329l-.5-5-2.5-2c-.27,2.48.37,5.87,3,7ZM551,325v-3h-.5l-1.5,1.5,2,1.5ZM147,330l-1-4.5-3-2.5c-.51,2.24,2.23,2.65,2,4.5l2,2.5ZM174,331v-5.5l-3-2.5-1,4.5,4,3.5ZM530,326v-3h-.5l-1.5,1.5v1.5h2ZM166,333l1-4.5-4-3.5-1,4.5,4,3.5ZM536.5,325c-.65,0-.65,1,0,1s.65-1,0-1ZM532.5,327c-.65,0-.65,1,0,1s.65-1,0-1ZM156,328v2.5l1.5,1.5,1.5-2.5-3-1.5ZM522,334c.44-2.82-.31-4.87-3-6-.68,2.44.74,2.72,1.5,4s0,2.25,1.5,2ZM543,333c1.06-1.13-3.64-5.39-4-5-.55,1.94,1.3,2.34,2,3.5.54.89-.58,2.34,2,1.5ZM550,328h-2v5h2l-1-2.5,1-2.5ZM528,329l-2,.5c1.27,1.01.98,3.13,3,3.5l-1-4ZM536,330h-2v3h1c-.42-1.51.69-1.82,1-3ZM146,340l-1-5.5-3-3.5,1,6.5,3,2.5ZM151.5,332c-.65,0-.65,1,0,1s.65-1,0-1ZM172,338l-3-6c.4,1.91-1.68,2.12-.5,4,.69,1.1,2.01,2.28,3.5,2ZM541,340l.5-3-3-4-1.5,3.5,4,3.5ZM165,340c.49-2.74-.45-5.47-3.5-6l-.5,4h2l2,2ZM156,335l-2,.5c1.63,1.28.34,3.91,3,4.5l-1-5ZM179,335h-1v11h1v-11ZM550,341c-1.2-2.5-1.33-6.01-5-6l2,3.5,3,2.5ZM151,336h-2l1.5,2h.5v-2ZM527,336h-2l2.5,5,1.5-1.5-2-3.5ZM534,337h-2v2l2-2ZM557,342v-5h-1v5h1ZM522,342c.65-1.25-1.6-3.5-2-3-.65,1.25,1.6,3.5,2,3ZM170,347l-1-4.5,1-1-3-1.5-.5,3,3.5,4ZM509,427c.16-2.79-.23-5.72,0-8.5.03-.36.98-.65,1-1,1.47-22.14.71-44.86,2-66,.23-3.81-.17-7.7,0-11.5l-2,3.5c-.14,11.33-.44,21.75-1,33-.02.35-.98.65-1,1-.65,14.78-.3,31.13,0,46,.02,1.22-.75,3.73,1,3.5ZM150,345v-2.5l-2-1.5,1,4h1ZM163,347l-4-6c-.67,2.44.73,2.71,1.5,4,.89,1.48-.16,2.47,2.5,2ZM538,345c.24-1.88,0-3.47-2-4v4h2ZM549,350c.88-4.42-1.54-6.79-5-9l1,4.5,4,4.5ZM143,342h-2c2.03,2.37-.73,3.86,0,6.5.1.36,4.09,4.84,5,5.5l-1-7.5-2-4.5ZM531,345v-3h-1v3h1ZM156,346c.29-1.9-1.1-3.29-3-3l3,3ZM522,350c.89-1.52-2.3-6.86-3-6-.53,1.65.8,1.93,1,2.5.38,1.1-.41,3.06,2,3.5ZM539.5,346c-.65,0-.65,1,0,1s.65-1,0-1ZM170,356c.88-4.42-1.54-6.79-5-9-.88,4.42,1.54,6.79,5,9ZM153,352l2-1.5-3-2.5,1,4ZM160,352l-1-4h-1l1,4h1ZM179,353c.54-2.17-1.11-3.14-1-5h-1v5h2ZM535,348h-2l1.5,2h.5v-2ZM549,358c.68-3.25-2.31-4.45-4-6.5-.16-.19.17-.79,0-1-.71-.89-1.9-2.16-3-2.5-.87,3.83,1.23,4.26,3,6.5.16.2-.17.78,0,1,.9,1.19,2.32,2.78,4,2.5ZM530,349h-2v4h1c-.31-1.71.21-2.62,1-4ZM539,354l-2-2v2h2ZM555,358l-.5-6c-2.87,2.01-.77,3.5-.5,6h1ZM531.11,352.73l-.65,4.55,2.1.3.65-4.55-2.1-.3ZM152,370c.13-2.01.3-2.81-1-4.5-3.03-3.95-6.13-7.9-9.5-11.5l5.5,8.5,2,5,3,2.5ZM157,354c-.08,2.14-.41,3.73,1.5,5l1.5-1.5-2-3.5h-1ZM170,363c.64-.68-5.39-7.66-7-8l2,3.5,5,4.5ZM527,361l-1-6h-1l1,6h1ZM541.5,355c-.65,0-.65,1,0,1s.65-1,0-1ZM153,356c-2.98-.59-1.92,1.36-2,3.5l1.5,3.5.5-7ZM178,361v-4h-1v4h1ZM522,357c-3.91-.39-1.18,1.68-1,2.5.2.9-.23,2.16,0,3,.18.66,1.79,2.83,2.5,3.5l-1.5-9ZM535,362l1-5h-1l-1,5h1ZM141.6,357.7l-1.2.6,3,6,1.2-.6-3-6ZM543,362c.31-1.76-1.36-3.29-3-4-.31,1.76,1.36,3.29,3,4ZM169,372l-1-4.5-6-7.5c.4,1.91-1.69,2.13-.5,4,.76,1.2,2.81,1.89,2.5,3.5l5,4.5ZM545.5,361l.5,1.5-1,2,1.5,1.5,1.5-1.5-2.5-3.5ZM157,367l1-2.5-1-2.5h-1l-1,5h2ZM544,376l2-5.5-7.5-8.5-2.5,4.5c.84,1.06,2.27,1.95,3,3,.48.68,1.53,3.36,2,4,.63.87,1.94,2.17,3,2.5ZM140,380c3.27-.65,4.24,1.65,5,4.5l4,4-6-15-2-9.5c-1.71-.25-1.02,2.33-1,3.5.07,3.45.63,4.21,0,7-.34,1.54.23,3.81,0,5.5ZM184,429c.16-2.45-.23-5.08,0-7.5.03-.36.97-.64,1-1,.28-3.01.81-6.62,1-9,1.12-14.01,1.14-27.05,0-41-.16-1.94-.82-2.78-1-4.5-1.75-.23-.98,2.28-1,3.5-.28,14.24-3.19,32.37,0,46,.58,2.48-.94,3.6-1,4-.25,1.7-.04,4.15,0,6,.03,1.22-.75,3.73,1,3.5ZM167,380c.78-3.78-2.19-5.98-4-8.5-.16-.22.16-.79,0-1-.64-.87-1.94-2.17-3-2.5.13,1.67-.43,3.47.5,5,.52.85,1.95,1.23,1.5,2.5l5,4.5ZM532.5,368c-.65,0-.65,1,0,1s.65-1,0-1ZM525,373l-1-4h-1l1,4h1ZM535,370c.17,2.01-1.23,1.77-.5,4,.64,1.95,1.61,2.24,2.5,3.5.16.23-.15.79,0,1,.91,1.23,2.49,2.27,3.5,3.5,3.81-3.09-2.17-5.87-2.5-8.5l-3-3.5ZM148,370.5l-1.6.8,3.6,7.2,1.6-.8-3.6-7.2ZM156,372h-2v1h2v-1ZM158.5,376l.5,4.5,4.5,6.5,1.5-3.5-6.5-7.5ZM177,377c-2.98-.59-1.92,1.36-2,3.5l3,2.5-1-6ZM546.5,377c-.65,0-.65,1,0,1s.65-1,0-1ZM523,388c.41-2.08-.39-3.64-1-5.5-.13-.41-.91-.62-1-1-.29-1.24.93-3.7-1-3.5v5.5l3,4.5ZM534,379l-2,.5v5l4.5,5.5,2.5-3.5c-1.12-.49-.83-1.73-1-2-1.12-1.77-4.33-2.93-4-5.5ZM552,387v-6h-1l-1,2.5v2l2,1.5ZM162,395c-.17-2.01,1.23-1.77.5-4-.84-2.55-3.15-3.23-3.5-5.5l-3-3.5-.5,4c.98.6.27,1.71.5,2.5.15.52,1.62,1.31,2,2,.85,1.55.88,4.86,4,4.5ZM145,395l-2-6.5-3-4.5c.49,3.41-.68,8.36,0,11.5.23,1.07,2.78,3.17,2,5l4.5,6.5,2.5-2.5-7-9,3-.5ZM177,392l-1-4.5-3-3.5,1,5.5,3,2.5ZM544,386v-2h-1v2h1ZM169,388h-2v5h1c-.54-2.17,1.11-3.14,1-5ZM519,392c.65-1.25-1.6-3.5-2-3-.65,1.25,1.6,3.5,2,3ZM542,389h-2l-1,5c1.61-.08,3.49-4.51,3-5ZM548,394h1.5l1.5-1.5-1.5-1.5-1.5,1.5v1.5ZM532.5,392c-.65,0-.65,1,0,1s.65-1,0-1ZM544,399c-.14-1.49-.05-2.56.5-4,.7-1.86.22-2.4-1.5-3,.53,2.16-3.45,7.54,1,7ZM173,393l-2,.5v9.5c4.57.17,1.89-4.53,4-6.5l-2-3.5ZM522,393c-3.69-.55-1.4,2.16-.5,4,.8,1.62-.03,2.43,2.5,2l-2-6ZM531,399l2-2.5-3-3.5,1,6ZM164,401l2-1.5v-5.5l-2,1.5v5.5ZM519,397c-1.17-1.36-1.92-.12-2,1.5-.11,2.11-.52,4.11,1.5,5.5l1.5-3.5-1-3.5ZM548,397h-2v3l2-1.5v-1.5ZM157,409c-.4-1.91,1.69-2.13.5-4-.54-.85-1.94-1.23-1.5-2.5l-2-3.5-1,4.5,4,5.5ZM529,405l-2-5-2,1.5c1.38,1.47,1.32,3.94,4,3.5ZM534,404l2-1.5-1.5-2.5-1.5,1.5,1,2.5ZM550,407l1-7c-.8.14-2.89,2.09-3,2.5-.42,1.51-.73,5.54,2,4.5ZM540.5,402c-.65,0-.65,1,0,1s.65-1,0-1ZM167.5,403c-.65,0-.65,1,0,1s.65-1,0-1ZM525,413c-.4-2.21.38-3.19,2-4.5-2.66-1.52-2.79-5.66-6-5.5,2.52,3.3-1.36,9.83,4,10ZM149,424c.63.74,3.21-3.5,3-4.5l-11.5-14.5.5,4.5c2.34,2.63,3.31,7.45,5,10,.97,1.47,3.44,2.26,3,4.5ZM539,406h-2c-.83.83,1.67,3.78,3,4l-1-4ZM175,414l1-7-2,2.5,1,4.5ZM531,410l2-1.5c-.94-1.06-1.5-1.82-3-1.5.31,1.18,1.42,1.49,1,3ZM160.5,408c-.65,0-.65,1,0,1s.65-1,0-1ZM133,409h-3v84h3v-84ZM152,410l-3,.5c1.5,2.11,1.01,2.66,3.5,3.5,1.2.4-.38,2.36,1.5,2l-2-6ZM547,410h-2v3h1c-.42-1.51.69-1.82,1-3ZM520,414v-1.5l-2-1.5v3h2ZM528.6,410.3l-3.1,6.2,2,1,3.1-6.2-2-1ZM167,418l1-3.5-1.5-2.5-1.5,1.5v3l2,1.5ZM514,418v-6h-1v6h1ZM536,412h-2v1.5l1.5,1.5h.5v-3ZM550.5,414c-.65,0-.65,1,0,1s.65-1,0-1ZM144,422c.44-.53-2.27-6.81-4-7-.69,3.39,1.25,5.48,4,7ZM349,418l-2.5-3h-1l-1.5,1.5c1.27,1.91,2.86,1.58,5,1.5ZM533,415c-2.28,1.05-5.58,4.97-2.5,7l2.5-3.5v-3.5ZM543.5,415c-.65,0-.65,1,0,1s.65-1,0-1ZM522,416h-2l1.5,2h.5v-2ZM537.5,416c-.65,0-.65,1,0,1s.65-1,0-1ZM539.5,418c-.65,0-.65,1,0,1s.65-1,0-1ZM157,421v-2h-1v2h1ZM335,419c-1.76-.31-3.29,1.36-4,3,1.76.31,3.29-1.36,4-3ZM358,426l-3.5-5-3.5-1.5,7,6.5ZM525,421v-2h-1v2h1ZM547,421v-2h-1v2h1ZM165,423l-3-3c-.29,1.9,1.1,3.29,3,3ZM172,420h-2v2l2-2ZM535,420l-2.9,5.8,3,1.5,2.9-5.8-3-1.5ZM345,421h-2v2l2-2ZM553,428v-7h-1v7h1ZM175.5,422c-.65,0-.65,1,0,1s.65-1,0-1ZM340,426c-.79-1.38-1.31-2.29-1-4h-1v4h2ZM523,427c-.2-1.21.02-1.79,1-2.5l-2-1.5v4h1ZM147,427l-3-3c-1.5-.34-1.24,1.72-1,2.5s2.55,1.6,2,3l3,2.5-1-5ZM153.84,423.74l-1.32,5.93,1.48.33,1.32-5.93-1.48-.33ZM160.5,424l-.5.5,1.5,1.5.5-.5-1.5-1.5ZM349.26,424.98c0-.68-.55-1.24-1.24-1.24s-1.24.55-1.24,1.24.55,1.24,1.24,1.24,1.24-.55,1.24-1.24ZM529.26,424.98c0-.68-.55-1.24-1.24-1.24s-1.24.55-1.24,1.24.55,1.24,1.24,1.24,1.24-.55,1.24-1.24ZM544.5,424c-.65,0-.65,1,0,1s.65-1,0-1ZM176,425h-1v9h1v-9ZM169,426h-2v1h2v-1ZM346.26,426.98c0-.68-.55-1.24-1.24-1.24s-1.24.55-1.24,1.24.55,1.24,1.24,1.24,1.24-.55,1.24-1.24ZM362,429v-1.5l-3-1.5v1h2v2h1ZM145,438l-2-6.5-4-4.5c.24,1.03-.62,3.59.5,4,1.9.69,2.88.86,2.5,3.5l3,3.5ZM349,431l3-1.5v-2.5l-3,1v3ZM541,435l3-5.5-4-2.5c-.54,2.68-2.69,6.54,1,8ZM159,428l-2,.5-1,5,2.5,2.5,2.5-4.5-2-3.5ZM527,428h-3v5h2c-.11-1.86,1.54-2.83,1-5ZM533,431c.65-1.25-1.6-3.5-2-3-.65,1.25,1.6,3.5,2,3ZM318,440c3.89-3.16,7.6-5.7,11-9.5-1.04-.53-2.72.89-3.5,1.5-1.61,1.26-2.78,3.75-5,4l-2.5,4ZM342,430h-2l-1,3c1.9.29,3.29-1.1,3-3ZM359,433c.29-1.9-1.1-3.29-3-3l3,3ZM512,430c-2.72-.39-1.95.44-2,2.5-.04,1.83.03,3.68,0,5.5l2-8ZM167,431h-2c.31,1.18,1.42,1.49,1,3h1v-3ZM347,433v-2h-1v2h1ZM527,438l3-2.5-.5-3.5-2.5,6ZM535,434v-2h-1v2h1ZM547,432l-4,3.5,1,4.5,4-3.5-1-4.5ZM152,433h-2l-1,4h2l1-4ZM354,437v-2.5l-1.5-1.5-1.5,2.5,3,1.5ZM366,436l-6-2,2,6,4-4ZM553,437v-3h-1v3h1ZM143,446l1-4.5-5-6.5c.27,1.99-.39,4.67,0,6.5.24,1.12,2.32,3.04,3,4,.52.74.38,3.08,3,2.5l1,2,2-3.5c-1.85-2.73-2.69-.57-5-.5ZM161,442c4.2.07,2.86-4.22,3-7-2.62,1.11-3.27,4.5-3,7ZM336,435c-1.05-1.07-6.06,3.84-5,5,2.09-.99,5.14-2.1,5-5ZM531,440l2-1.5v-2.5h-1l-1,4ZM539,439c.65-1.25-1.6-3.5-2-3-.65,1.25,1.6,3.5,2,3ZM340.5,437c-.65,0-.65,1,0,1s.65-1,0-1ZM349,440c.65-1.25-1.6-3.5-2-3-.65,1.25,1.6,3.5,2,3ZM154,444l2-1.5v-3l-1.5-1.5c-2.87,2.01-.77,3.5-.5,6ZM337,444c-.38-2.61,4.04-3.38.5-6l-2.5,5.5,2,.5ZM360,441c.65-1.25-1.6-3.5-2-3-.65,1.25,1.6,3.5,2,3ZM346,442c.65-1.25-1.6-3.5-2-3-.65,1.25,1.6,3.5,2,3ZM368.5,439c-.65,0-.65,1,0,1s.65-1,0-1ZM149,442l-2-2v2h2ZM178,445c.54-2.17-1.11-3.14-1-5h-1v5h2ZM386.02,439.27l-1.39,1.67,39.3,32.75,1.39-1.67-39.3-32.75ZM511,440h-1v19h1v-19ZM515,440h-1v11h1v-11ZM524,443c.4.5,2.65-1.75,2-3-.4-.5-2.65,1.75-2,3ZM535.6,439.3l-3.1,6.2,2,1,3.1-6.2-2-1ZM544,444c.83-.83-1.67-3.78-3-4-.37,2.4.48,4.24,3,4ZM333,443v-2h-1v2h1ZM532,443v-2h-1v2h1ZM552,444v-3h-1v3h1ZM354,447l3-2.5v-1l-1.5-1.5c-1.91,1.27-1.58,2.86-1.5,5ZM364.5,442c-.65,0-.65,1,0,1s.65-1,0-1ZM372,442l-3,1.5,4,5.5-1-7ZM312,450c1.39,1.23,6.69-5.58,8-6.5l-4.5,3.5c-1.07-.53-3.86,2.68-3.5,3ZM136,450l1-6h-1l-1,6h1ZM158,451l2-3.5v-3.5c-1.46.27-2.1,1.78-2.5,3-.74,2.23.67,1.99.5,4ZM167,448v-4h-1c.2,1.21-.02,1.79-1,2.5l2,1.5ZM172,448c.24-1.88,0-3.47-2-4v4h2ZM326,446v-2h-1v2h1ZM329,444l-2,3.5,2.5,2.5,2.5-3.5-3-2.5ZM380,456c.39-3.43-.37-6.36-3-8.5l-2-3.5c-.41,3.33,2.73,5.22,2,8.5l3,3.5ZM538,444l-1.5,5,2,2c2.51-2.38,4.24-6.79-.5-7ZM152,449l2-1.5v-1l-1.5-1.5h-.5v4ZM343,445c-.93-.93-4.7,2.27-4,4l4-2v-2ZM362,445h-2v1h2v-1ZM530,445h-2l-1,4c1.5.32,2.06-.44,3-1.5v-2.5ZM547,446h-2c-.29,1.9,1.1,3.29,3,3l-1-3ZM140,447c-3.15-.67-1.82,1.91-2,4h2c-.01,1.18,1.36,3.62,2,4.5.45.61,2.7,2.86,3,2.5.32-1.75-1.41-3.2-2-4.5-.37-.83.55-2.24-1.5-3.5-.96-.59-2.07,1.02-1.5-3ZM350.5,448c-.65,0-.65,1,0,1s.65-1,0-1ZM368.26,448.98c0-.68-.55-1.24-1.24-1.24s-1.24.55-1.24,1.24.55,1.24,1.24,1.24,1.24-.55,1.24-1.24ZM322,449l-3,2.5-1,4.5c2.74.52,1.87-1,2.5-3,.44-1.38.71-2.75,1.5-4ZM357.5,449c-.65,0-.65,1,0,1s.65-1,0-1ZM532,453l1-4c-2.02.37-1.73,2.49-3,3.5l2,.5ZM151,455l-.5-5-1.5,2.5,1,2.5h1ZM335,450h-2c.2,1.21-.02,1.79-1,2.5l.5.5,2.5-3ZM342.26,450.98c0-.68-.55-1.24-1.24-1.24s-1.24.55-1.24,1.24.55,1.24,1.24,1.24,1.24-.55,1.24-1.24ZM362.5,450c-.65,0-.65,1,0,1s.65-1,0-1ZM520,452v-2h-1v2h1ZM547,461v-7.5l-4-3.5-2,5.5c2.24,1.64,2.55,5.64,6,5.5ZM164,451h-2l-1,2.5,1,2.5h2v-5ZM343,456c2.58.08,4.51-2.39,4-5-1.42.44-4.95,4.05-4,5ZM369.26,451.98c0-.68-.55-1.24-1.24-1.24s-1.24.55-1.24,1.24.55,1.24,1.24,1.24,1.24-.55,1.24-1.24ZM373,453v-2h-1v2h1ZM382.5,451l-.5.5,1.5,1.5.5-.5-1.5-1.5ZM526.88,450.53l-1.88.47,1,4,1.88-.47-1-4ZM157,452h-2l1.5,2h.5v-2ZM315.5,452c-.65,0-.65,1,0,1s.65-1,0-1ZM395,459c-.19-.19-1.03.26-1.5,0-2.33-1.3-4.68-5.82-7.5-7,.06,3.31,4.59,5.13,6,7.5.68,1.14.68,2.88,1,4,.05.17,2.19,2.35,2.5,2.5,2.49,1.2.31-2.09,1-2l4,4c.75.15.69-1.07.5-1.5-.69-1.57-5.01-4.22-6-6-.26-.47.19-1.31,0-1.5ZM514,452v21c1.75.23.98-2.28,1-3.5.05-2.52-.34-5.68,0-8,.06-.4,1.58-1.51,1-4-.09-.39-.94-.63-1-1-.23-1.36.95-4.59-1-4.5ZM169,453v3.5l1.5,2.5c2.68-2.06,2.03-6.2-1.5-6ZM396.5,453l2,3,13,11,3.5,1.5-10.5-8.5-8-7ZM534,453l-1,2.5,1.5,2.5c2.23-1.59,2.18-4.06-.5-5ZM328.5,454c-.65,0-.65,1,0,1s.65-1,0-1ZM336,457h1.5l1.5-1.5-1.5-1.5h-1.5v3ZM359.5,454c-.65,0-.65,1,0,1s.65-1,0-1ZM143,463l-1-3.5-4-4.5v8h5ZM154,462l3-4.5-2.5-2.5-1.5,2.5,1,4.5ZM306,463h5.5l3.5-6.5-3-1.5c.54,2.89-.75,1.55-1.5,2-.9.54-5.47,5.11-4.5,6ZM327,456c-.83-.83-3.78,1.67-4,3,2.4.37,4.24-.48,4-3ZM556.5,456c-.65,0-.65,1,0,1s.65-1,0-1ZM148,457h-2l1,5,2-1.5-1-3.5ZM241,498l4.5-2,43.5-38.5-12.5,8.5c-8.9,8.1-18.49,15.06-27,23-2.98,2.78-6.03,5.76-8.5,9ZM332,459v-2l-2,1.5v.5h2ZM349.5,457c-.65,0-.65,1,0,1s.65-1,0-1ZM371,460c.32-1.5-.44-2.06-1.5-3h-2.5c-.76.62,3.14,2.83,4,3ZM530,457h-2v1h2v-1ZM340.5,458c-.65,0-.65,1,0,1s.65-1,0-1ZM539.5,458l-2.5,3.5,6.5,8.5c5.49-4.33.72-5.48-2-9-.71-.92-.67-2.25-2-3ZM557,458h-1v24h1v-24ZM161,461v-2h-1v2h1ZM300.5,459c-.65,0-.65,1,0,1s.65-1,0-1ZM334.5,459c-.65,0-.65,1,0,1s.65-1,0-1ZM363,462l-3-3c-.29,1.9,1.1,3.29,3,3ZM383,463c.37-2.4-.48-4.24-3-4-.37,2.4.48,4.24,3,4ZM533,463c.24-1.88,0-3.47-2-4-.24,1.88,0,3.47,2,4ZM330.26,461.98c0-.68-.55-1.24-1.24-1.24s-1.24.55-1.24,1.24.55,1.24,1.24,1.24,1.24-.55,1.24-1.24ZM390,464c.65-1.25-1.6-3.5-2-3-.65,1.25,1.6,3.5,2,3ZM160,462l-3,1.5,1,3.5h1l1-5ZM171,465c.29-1.9-1.1-3.29-3-3-.29,1.9,1.1,3.29,3,3ZM322.5,462l-1.5,1.5,1.5,1.5,1.5-1.5-1.5-1.5ZM338,462h-2v1h2v-1ZM373,464c-.53-2.01-2.12-2.24-4-2,.53,2.01,2.12,2.24,4,2ZM152,472l-.5-2,2.5-3.5-3-3.5v7l-2,2h3ZM284,471c.4.4,4.83-4.3,5.5-5s2.76-2,2-3l-7.5,8ZM354,466c.65-1.25-1.6-3.5-2-3-.65,1.25,1.6,3.5,2,3ZM318,464h-1.5l-1.5,2h3v-2ZM333,467c.4.5,2.65-1.75,2-3-.4-.5-2.65,1.75-2,3ZM358.5,464c-.65,0-.65,1,0,1s.65-1,0-1ZM140,465c-3.9-.63-1.47,3.79-1,5.5l4,4.5-3-10ZM162,465l-1,2.5.5.5,1.5-3h-1ZM307,467v-2c-1.18.31-1.49,1.42-3,1v1h3ZM340.5,465c-.65,0-.65,1,0,1s.65-1,0-1ZM364,465h-2c.31,1.18,1.42,1.49,1,3h1v-3ZM384.26,465.98c0-.68-.55-1.24-1.24-1.24s-1.24.55-1.24,1.24.55,1.24,1.24,1.24,1.24-.55,1.24-1.24ZM542,474c.34-2.23-1.89-3.06-3-4.5-.17-.22.16-.81,0-1-.99-1.22-2.58-2.81-4-3.5l1.5,4,5.5,5ZM352,469c-.71-1.64-2.24-3.31-4-3,.71,1.64,2.24,3.31,4,3ZM392,469c.65-1.25-1.6-3.5-2-3-.65,1.25,1.6,3.5,2,3ZM531,466h-2l1.5,2h.5v-2ZM326.5,467c-.65,0-.65,1,0,1s.65-1,0-1ZM375,471c.5-3.75-1.55-4.4-5-4l2.5,4h2.5ZM411,474l-7-7c-.82,3.06,2.27,3.55,2,6l5,1ZM168,477l-.5-5-2.5-4-1,5.5,4,3.5ZM322,468c-1.9-.29-3.29,1.1-3,3l3-3ZM161,471v-2h-1v2h1ZM310,469l-7.2,1.6.64,2.86,7.2-1.6-.64-2.86ZM316,469h-2v3l2-1.5v-1.5ZM347,469l-3.5,2-11.5,10.5c1.04.53,2.72-.89,3.5-1.5,1.68-1.31,2.93-3.89,5-4l6.5-7ZM384.4,468.16l-2.06,1.24,2.56,4.26,2.06-1.24-2.56-4.26ZM534,469c-1.59.33-2.46,1.99-2,3.5.19.61,4.7,5.28,5.5,6.5,4.16-3.63-3.47-6.41-3.5-10ZM329.5,470c-.65,0-.65,1,0,1s.65-1,0-1ZM526,474c2.01-.53,2.24-2.12,2-4-2.01.53-2.24,2.12-2,4ZM549,470l-2,3.5v1l3.5,3.5-1.5-8ZM155.5,471l-2.5,2.5v1l1.5,1.5,2.5-3.5-1.5-1.5ZM300,471c-1.73-.7-4.92,3.05-4,4l4-1v-3ZM336,471c-2.08-.14-3.76,2.1-5,3.5-.99,1.12-2.39,1.66-2,3.5l7-7ZM395,475c-1.02-1.99-1.45-4.39-4-4l1,4h3ZM149,476v-2.5l-2-1.5,1,4h1ZM290,476l.5-4-6.5,5.5,6-1.5ZM355.5,472l4,5,3.5,1.5-7.5-6.5ZM359.5,472c-.65,0-.65,1,0,1s.65-1,0-1ZM348,474c2.54-.18,3.76,2.66,5.5,4,.21.16.79-.16,1,0,1.07.81,1.94,2.12,3,3l3.5,1.5-9.5-8.5h-3.5ZM377,474l-5-1c-.28,1.48.9,2.82,2,3.5,1.32.82,2.58.06,3.5,1.5l-.5-4ZM404,477c-.48-1.66-2.52-2.02-2-4h-1v4h3ZM281,474c-2.22-.33-3.07,1.88-4.5,3-.21.16-.8-.16-1,0-.52.41-2.88,2.67-2.5,3,1.93.49,2.34-1.2,3.5-2,.24-.16.79.15,1,0,.66-.48,3.85-3.68,3.5-4ZM320,474c-1.25-.65-3.5,1.6-3,2,1.25.65,3.5-1.6,3-2ZM327,474c-.36-.4-3.98,3.41-4.5,4-1.44,1.62-2.11,1.22,0,3l4.5-7ZM413,476v-2h-1v2h1ZM312,478c.4.5,2.65-1.75,2-3-.4-.5-2.65,1.75-2,3ZM426,482c-2.42-.07-4.53-2.62-6.5-4-.22-.15-.77.16-1,0-1.46-1-2.22-3.39-4.5-3-.88.87,2.86,4.82,3.5,5,1.2.34,2.66.38,4,1s2.97,1.83,4,3l.5-2ZM518,478v-3h-1v3h1ZM529,475c-.45,2.3.29,2.57,1.5,4,1.4,1.65,2.76,3.22,4,5l.5-3.5c-2.23-1.58-2.46-5.58-6-5.5ZM145.88,475.97l-1.76,1.06,2.78,4.63,1.76-1.06-2.78-4.63ZM160,476h-2l-1,4h2c-.31-1.71.21-2.62,1-4ZM388,480c.37-2.4-.48-4.24-3-4-.83.83,1.67,3.78,3,4ZM309,477l-5,.5-3,2.5,4.5-1,3.5-2ZM408.5,477l-.5.5,1.5,1.5.5-.5-1.5-1.5ZM152.5,478l-1.5,1.5,1.5,2.5,1.5-2.5-1.5-1.5ZM177.5,478c-.65,0-.65,1,0,1s.65-1,0-1ZM298,481v-3c-1.46.77-3,1.16-4,2.5v.5h4ZM396,478h-3c-.39,2.55,2.01,2.98,4,4l-1-4ZM546,477.5l-1.5,1.5,4.75,4.75,1.5-1.5-4.75-4.75ZM165,488l1-5.5-3.5-3.5-2.5,3.5v1l5,4.5ZM317.5,479l-1.5,1.5.5.5,1.5-1.5-.5-.5ZM281,484l4.5-1,2.5-3c-2.36,1.91-7.09-.5-7,4ZM380,484c.5-3.75-1.55-4.4-5-4,0,1.56,4.79,4.25,5,4ZM405,480h-2v3h3c-.31-1.18-1.42-1.49-1-3ZM533,488c1.65-1.78-4.4-7.24-6-8l2,5.5,4,2.5ZM145,488l-1.5-7-.5,4.5,2,2.5ZM178,484v-3h-1v3h1ZM312,481h-2v2l2-2ZM542,481h-2v2l2-2ZM307,482l-4.5,1-2.5,2c1.86.41,2.88-.61,4.5-1s2.98,1.08,2.5-2ZM319.5,482l-5.75,5.75,1,1,5.75-5.75-1-1ZM390,486c.37-2.4-.48-4.24-3-4-.2.17,2.34,4.82,3,4ZM413,482h-4v.5c1,1.34,2.54,1.73,4,2.5v-3ZM151,483h-2c-.36,1.76,1.36,2.24,1,4h2l-1-4ZM157,483h-2v2l2-2ZM420,486l-3-3c-.29,1.9,1.1,3.29,3,3ZM546,489l1-3.5-2.5-2.5-2.5,3.5,4,2.5ZM276.5,484c-.65,0-.65,1,0,1s.65-1,0-1ZM297,484c-2.17-.54-3.14,1.11-5,1v2l5-1v-2ZM399,488v-2.5l-1.5-1.5h-2.5c-.93.93,2.27,4.7,4,4ZM408,489c.39-1.9-1.3-2.67-2.5-4l-1.5,1.5,1,2.5h3ZM286,486c-2.48-.27-5.87.37-7,3,2.48.27,5.87-.37,7-3ZM423.5,486l-.5.5,1.5,1.5.5-.5-1.5-1.5ZM539,486h-2v1h2v-1ZM162,493l-2.5-6c-3.96,1.94,2.26,6.28,2.5,6ZM185,504v-6.5l-2-10.5c.42,3.42-1.04,7.96,1,10.5l1,6.5ZM305,490l-.5-3c-2.07,2.12-6.66-.56-6.5,4l7-1ZM415,490l-1.5-3h-2.5l1.5,3h2.5ZM518,495l-1-8c.06,1.79.16,3.25-.5,5-.7,1.86-.22,2.4,1.5,3ZM153,491l2-1.5-1.5-1.5h-.5v3ZM172,496c.69-2.2-2.71-3.44-3-4.5-.27-1,.66-3.09-.5-3.5l-2.5,3h2v3l4,2ZM276,488h-1.5l-1.5,2h3v-2ZM529,492c.24-1.88,0-3.47-2-4v4h2ZM149,489h-2v4h2v-4ZM270,489c-.83-.83-3.78,1.67-4,3l4-1v-2ZM296,489l-4.5,1-1.5,2h5l1-3ZM422,491c-.53-2.01-2.12-2.24-4-2,.53,2.01,2.12,2.24,4,2ZM543,493l-1-4-2,1.5,1,2.5h2ZM549,493l1-3.5-.5-.5c-1.2,1.33-2.89,2.1-2.5,4h2ZM553,500l3-2.5v-8.5l-2,2.5,1,3-2,5.5ZM401,491l-4-1c.37,2.02,2.49,1.73,3.5,3l.5-2ZM430,493c-.19-1.83-5.11-3.74-6-3-.38,2.17.21,2.03,2,2.5,1.39.37,2.53.75,4,.5ZM536,492v-2l-2,1.5v.5h2ZM141,497l2-1.5v-3l-1.5-1.5h-.5v6ZM287.5,491c-.65,0-.65,1,0,1s.65-1,0-1ZM380.5,491c-.65,0-.65,1,0,1s.65-1,0-1ZM247,503c2.81-.1,4.51-3.31,6.5-5,.2-.17.82.16,1,0,1.94-1.7,3.59-3.76,5.5-5.5l-6.5,3.5-6.5,7ZM284,492c-3.27-.4-6.76.01-7,4,2.24-1.38,5.88-1.14,7-4ZM312,492h-2c.2,1.21-.02,1.79-1,2.5l.5.5,2.5-3ZM382.5,492c-.65,0-.65,1,0,1s.65-1,0-1ZM410,496c.37-2.4-.48-4.24-3-4-.83.83,1.67,3.78,3,4ZM150,497l2-1.5v-2.5h-1l-1,4ZM158,493l-2,.5c-.51,1.85.99,2.51,1,4l4,3.5c1.22-4.11-2.72-4.66-3-8ZM303,493l-6,1-1,4c.23.27,3.5-2.26,4.5-2l2.5-3ZM418,498l-5-5,1,4,4,1ZM523,500c3.14-1.03,1.76-4.56,2-7-1.91-.2-.74,2.24-1,3.5-.09.46-1.77,1.71-1,3.5ZM275,494c-2.4-.37-4.24.48-4,3h3l1-3ZM421.4,493.16l-2.06,1.24,3.26,5.44,2.06-1.24-3.26-5.44ZM534,494c-1.9-.39-2.67,1.3-4,2.5l3,2.5c-.11-1.86,1.54-2.83,1-5ZM538,498l3-2.5-2-1.5c.36,1.76-1.36,2.24-1,4ZM561,494h-1v13h1v-13ZM268,495l-4.5,1-2.5,2.5,4.5.5c2.15-1.57,3.08-.43,2.5-4ZM294,495l-4,.5-2,3.5c1,.85,6.95-1.5,6-4ZM403,496l-4-1v3l5,1-1-3ZM432,500c.18-.15-1.76-3.78-2.5-4-1.04-.3-2.2.14-3.5-1l1,5h5ZM447.5,495c-.65,0-.65,1,0,1s.65-1,0-1ZM546,495h-2v1h2v-1ZM171,503c.72-3.28-1.62-6.64-5-7-.47,1.93,1.18,2.34,2,3.5.96,1.35,1.32,3.08,3,3.5ZM286,498v-2h-1v2h1ZM552,498v-2h-1v2h1ZM275,502l5.5-1,1.5-4c-1.59,1.45-3.17.63-4.5,1-.68.19-3.31,3.28-2.5,4ZM317.5,497l-28,21-25.5,21.5,17.5-11.5,32-26,4-5ZM146,500v-2l-2,1.5v.5h2ZM412,499l-3-1v2l3,1v-2ZM544,498c-1.5-.32-2.06.44-3,1.5v2.5c1.33-.22,3.83-3.17,3-4ZM444,502c-1.11-2.62-4.5-3.27-7-3,1.36,3.26,3.8,3.27,7,3ZM517,501v-2h-1v2h1ZM529,504l1-2.5-2-2.5-1,5h2ZM552,499h-2v1.5l1.5,1.5h.5v-3ZM154.5,500l-.5,4.5,2.5,3.5c3.56-3.13.57-5.74-2-8ZM272,500c-1.9-.29-3.29,1.1-3,3,1.9.29,3.29-1.1,3-3ZM392.5,500l-.5.5,1.5,1.5.5-.5-1.5-1.5ZM420,501l-4-1,1.5,2h2.5v-1ZM434.5,500c-.65,0-.65,1,0,1s.65-1,0-1ZM259,505l4.5-1,2.5-3-4.5,1-2.5,3ZM406,502l-4-1,3.5,4h.5v-3ZM168,511c-.17-2.01,1.23-1.77.5-4-.66-2.01-2.55-3.99-4.5-5v3.5l4,5.5ZM426,502h-3v.5l1.5,1.5h1.5v-2ZM235.5,503l-1.5,1.5.5.5,1.5-1.5-.5-.5ZM414,504l-3-1c-.89,1.09,2.28,4.64,4,4l-1-3ZM433,503h-4v2c2.17-.54,3.14,1.11,5,1l-1-3ZM538,506h1.5l1.5-1.5-1.5-1.5h-1.5v3ZM547,509l3-3.5-1-2.5-2,1.5v4.5ZM555.5,503c-.65,0-.65,1,0,1s.65-1,0-1ZM256,504c-2.17-.54-3.14,1.11-5,1v1h3.5l1.5-2ZM280,504c-1.66-.26-3.03.4-4.5,1-.97.39-2.35.36-2.5,2,1.66.26,3.03-.4,4.5-1,.97-.39,2.35-.36,2.5-2ZM286,509l7-4.5-4,1-3,3.5ZM525.5,504c-.65,0-.65,1,0,1s.65-1,0-1ZM531.6,503.3l-3.1,6.2,2.4,1.2,3.1-6.2-2.4-1.2ZM298,505c-1.94-.55-2.34,1.3-3.5,2-.89.54-2.34-.58-1.5,2,.44.46,2.35-1.99,3-2.5,1.12-.88,2.28.11,2-1.5ZM422,506l-4-.5,5,4.5-1-4ZM436.5,505c-.65,0-.65,1,0,1s.65-1,0-1ZM444,505h-3v2c1.98-.52,2.34,1.52,4,2l-1-4ZM450,506l-3-1c-.5,2.4,1.19,5,4,5l-1-4ZM144,506h-2v5h1c-.54-2.17,1.11-3.14,1-5ZM148.5,506c-.65,0-.65,1,0,1s.65-1,0-1ZM270,506c-1.9-.29-3.29,1.1-3,3,1.9.29,3.29-1.1,3-3ZM178,512v-5h-1v5h1ZM264,507c-2.39-.45-3.7,1.48-6,1l-1,4,5.5-1,1.5-4ZM405.5,507c-.65,0-.65,1,0,1s.65-1,0-1ZM428,507h-3v.5c1.4,1.57,1.39,3.96,4,3.5l-1-4ZM543,513v-6h-.5l-2.5,3.5,3,2.5ZM165,519l1-4.5-4.5-6.5-2.5,4.5,2,3,4,3.5ZM436,512c.06-2.65-2.46-4.51-5-4l1,4h4ZM525,510v-2h-1v2h1ZM552.21,507.82l-2.87,4.78,1.32.79,2.87-4.78-1.32-.79ZM255,509c-2.6-.23-4.34,1.6-7,1l-1,4,7-1,1-4ZM453.5,509c-.65,0-.65,1,0,1s.65-1,0-1ZM145.77,509.78l-1.69,5.64,1.93.58,1.69-5.64-1.93-.58ZM277,510l-4.5,1-1,1-1.5,4c1.93.47,2.34-1.18,3.5-2,1.62-1.15,3.82-1.47,3.5-4ZM408.5,510l-.5.5,3.5,3.5.5-.5-3.5-3.5ZM418,511l-4-1c.22,1.33,3.17,3.83,4,3v-2ZM438.5,510c-.65,0-.65,1,0,1s.65-1,0-1ZM545.5,510c-.65,0-.65,1,0,1s.65-1,0-1ZM186,536v-25c-3.88,1.24-1,4.12-1,4.5v20.5h1ZM244,515l1-4c-.91.73-2.76.8-3,1.5-.42,1.19-1.06,2.16-1,3.5l3-1ZM284,514l3-2.5-.5-.5c-.71.98-1.29,1.2-2.5,1v2ZM448,515c-1.02-1.99-1.45-4.39-4-4l1,4h3ZM534,511h-2v3l2-1.5v-1.5ZM228,519c1.93.49,2.34-1.2,3.5-2,.24-.16.8.15,1,0,.86-.63,4.42-4,3.5-5-1,.64-8.8,6.3-8,7ZM424,512l-2,1.5,4,3.5-2-5ZM439.5,512c-.65,0-.65,1,0,1s.65-1,0-1ZM453,516c.2-.17-2.34-4.82-3-4-.37,2.4.48,4.24,3,4ZM268,513c-2.4-.86-5.73,5.14-5,6l3-2.5,2-3.5ZM456,513c-.39,1.9,1.3,2.67,2.5,4l.5-.5c-1.27-1.01-.98-3.13-3-3.5ZM540,522l2-5.5-3.5-3.5-2.5,3.5,1,3,3,2.5ZM282.5,514c-.65,0-.65,1,0,1s.65-1,0-1ZM431,514l-3,.5,2,3.5h2l-1-4ZM549,514c-2.02.37-1.73,2.49-3,3.5l.5.5c1.2-1.33,2.89-2.1,2.5-4ZM555.5,514c-.65,0-.65,1,0,1s.65-1,0-1ZM260,520l1-5c-1.58,1.02-6.48,1.76-7,3.5-.15.51-.35,2.5.5,2.5l5.5-1ZM415,515c-.28,1.74,1.3,3.03,2.5,4,.77.62,2.46,2.02,3.5,1.5l-3.5-2.5-2.5-3ZM439,516l-5-1,1,4,3.5,1,.5-4ZM524,520c-.54-2.17,1.11-3.14,1-5l-2,1.5v3.5h1ZM151,523l1-4.5-3-2.5-1,4.5,3,2.5ZM237.5,516c-.65,0-.65,1,0,1s.65-1,0-1ZM280,516h-2v1h2v-1ZM517,521v-5h-1v5h1ZM530.5,516c-.65,0-.65,1,0,1s.65-1,0-1ZM553,516c-2.6-.88-4.82,5.03-4,6,4.05.17,2.34-3.71,4-6ZM443,517h-2l2.5,3,.5-.5-1-2.5ZM168,523l1-5c-1.61.08-3.49,4.51-3,5h2ZM449,518h-2c-.36,1.76,1.36,2.24,1,4h2l-1-4ZM464.5,518l-.5.5,1.5,1.5.5-.5-1.5-1.5ZM144,519h-2v5l2-1.5v-3.5ZM240.5,519c-.65,0-.65,1,0,1s.65-1,0-1ZM252,519l-4.5,1-3.5,4,5.5-1,2.5-4ZM276,519l-5,1v2c-2.76-.36-3.3,3.03-5,5,2.23.34,3.06-1.89,4.5-3,.21-.17.8.16,1,0,1.56-1.24,3.45-3.28,4.5-5ZM453.62,518.53l-1.62.97,2.6,4.34,1.62-.97-2.6-4.34ZM530,519h-2l-1,4c1.33-.22,3.83-3.17,3-4ZM228,522v-2l-2,1.5v.5h2ZM428,520h-2l2.5,3,.5-.5-1-2.5ZM544.5,520l-3.5,4.5.5.5,3.5-4.5-.5-.5ZM434,521l-2,1.5,4,5.5-2-7ZM512,521h-1v21h1v-21ZM242,522c-2.55-.39-2.98,2.01-4,4,2.55.39,2.98-2.01,4-4ZM442,523l-5-1c1.18,2.39.85,3.66,3,5.5,1.43,1.22,1.7,1.94,4,1.5l-2-6ZM158,533l1-4.5c-2.14-1.59-2.24-4.48-5-5.5.29,1.75-1.55,2.62-1,4.5.11.36,4.09,4.84,5,5.5ZM221,529l1.5-6c-1.5.63-1.19,2.7-2,3-1.66.61-5.7,3.91-7,5-1.23,1.03-2.81,2.55-3.5,4l5.5-2,3-4h2.5ZM259,523l-4.5,1-2.5,2,4.5-1,2.5-2ZM534,530l1-3.5-3-3.5-2,3.5v1l4,2.5ZM547,523c-.24-.28-6.46,4.06-2.5,6l2.5-6ZM148,524c-3.12-.51-1.56.91-2,2.5-.33,1.19-2.27,1.55.5,3.5l1.5-6ZM171,527v-3h-.5l-1.5,1.5,2,1.5ZM236,524h-2v3h1c-.42-1.51.69-1.82,1-3ZM412.5,524l-.5.5,4.5,3.5.5-.5-4.5-3.5ZM448,530c.89-1.52-2.3-6.86-3-6-.53,1.65.8,1.93,1,2.5.38,1.1-.41,3.06,2,3.5ZM466.5,524c-.65,0-.65,1,0,1s.65-1,0-1ZM164.5,525c-.65,0-.65,1,0,1s.65-1,0-1ZM231,525c-4.29-.85-6.52,2.56-8,6,3.3-.97,8.78-1.38,8-6ZM452,525h-2l1,3.5,4,2.5c-.59-2.37-3.13-3.81-3-6ZM457,525l-2,1.5,4,5.5-2-7ZM248.78,525.4l-6.26,2.28.48,1.32,6.26-2.28-.48-1.32ZM464,533c-.37-2.45-1.81-5.19-3.5-7-.71,1.03,1.2,2.81,1.5,3.5.39.9-.46,3.09,2,3.5ZM477,530c-.71-1.64-2.24-3.31-4-3,.71,1.64,2.24,3.31,4,3ZM524,527h-2v2l2-2ZM140,531v-3h-1v3h1ZM238.5,528c-.65,0-.65,1,0,1s.65-1,0-1ZM256,528c-1.88-.79-7.5,2.36-6,4l3.5-2,2.5-2ZM470,528l-2,.5,4,4.5c-.63-1.71-2.14-3.2-2-5ZM163.5,529c-.65,0-.65,1,0,1s.65-1,0-1ZM169,529h-2v1h2v-1ZM429.4,528.34l-.88,1.47,5.44,3.26.88-1.47-5.44-3.26ZM155,539l1-3.5c-2.23-1.58-2.46-5.58-6-5.5.13,1.67-.43,3.47.5,5,.32.53,1.11.95,1.5,1.5.52.74.38,3.08,3,2.5ZM248,530l-5.5,1-2.5,4c.34.29,5.29-1.58,6.5-2,.7-.24.77-2.09,1.5-3ZM528,530l-2,4.5,2.5,2.5,2.5-4.5-3-2.5ZM542.5,530c-.65,0-.65,1,0,1s.65-1,0-1ZM549,532v-2l-2,1.5v.5h2ZM556,539c-.03-1.82.04-3.67,0-5.5-.03-1.22.75-3.73-1-3.5-.6,2.78-2.75,7.43,1,9ZM442,533l3.5,1,.5-.5-4-2.5v2ZM483,535l-3.5-4-.5.5c1.4,1.57,1.39,3.96,4,3.5ZM144,532l-1,4,2.24.56,1-4-2.24-.56ZM235,536c1.5.32,2.06-.44,3-1.5v-2.5c-1.33.22-3.83,3.17-3,4ZM488.5,532c-.65,0-.65,1,0,1s.65-1,0-1ZM541,532h-2l-1,5c1.61-.08,3.49-4.51,3-5ZM162,533h-2l-1,3c1.9.29,3.29-1.1,3-3ZM168,533h-2v1.5l1.5,1.5h.5v-3ZM423.5,533c-.65,0-.65,1,0,1s.65-1,0-1ZM449.5,533c-.65,0-.65,1,0,1s.65-1,0-1ZM475.5,533c-.65,0-.65,1,0,1s.65-1,0-1ZM493,534l-2.5-1-.5.5,3,2.5v-2ZM520.5,533c-.65,0-.65,1,0,1s.65-1,0-1ZM233,534h-2l-1,3h2l1-3ZM425.5,534c-.65,0-.65,1,0,1s.65-1,0-1ZM457,534h-3v1c1.51-.42,1.82.69,3,1v-2ZM228,535c-2.71-.44-4.71.5-7,1l-1,4,5.5-1,2.5-4ZM251.5,535c-2.49,1.3-3.26,2.24-4.5,4.5l.5.5,4.5-4.5-.5-.5ZM460.5,535l-.5.5,1.5,1.5.5-.5-1.5-1.5ZM441.5,536c-.65,0-.65,1,0,1s.65-1,0-1ZM448,537l-3-1v2l3,1v-2ZM467,536h-2l1.5,2h.5v-2ZM480,540c.44-2.68-2.03-2.62-3.5-4l.5,3,3,1ZM543,540l1-4c-1.33.22-3.83,3.17-3,4h2ZM561,552v-16c-1.75-.23-.98,2.28-1,3.5-.06,2.98.75,6.97-1,9v1l2,2.5ZM166,537h-3c-.23,1.86-.04,2.9,1.5,4h.5c-.36-1.76,1.36-2.24,1-4ZM218,540v-3h-1c.42,1.51-.69,1.82-1,3h2ZM240.5,537l-1.5,1.5.5.5,1.5-1.5-.5-.5ZM474,537h-2v1h2v-1ZM147.5,538l-.5,3.5,3.5,3.5c1.34-1.22,1.73-1.13,1-3-.47-1.2-2.3-4.45-4-4ZM211,542c1.5.32,2.06-.44,3-1.5v-2.5c-1.33.22-3.83,3.17-3,4ZM451.5,538c-.65,0-.65,1,0,1s.65-1,0-1ZM459,541l-1.5-3h-2.5l1,3h3ZM489,541c-.67-2.53-3.28-1.7-5-3-.21,3.1,2.25,3.27,5,3ZM506,546l-5.5-6-4.5-1.5c1,1.94,4.18,2.53,5,4,.26.47-.19,1.31,0,1.5s1.02-.26,1.5,0c1.12.62,1.53,2.57,3.5,2ZM143,539h-2v4c2.01-.53,2.24-2.12,2-4ZM159,539h-2l-2,4c1.73.7,4.93-3.07,4-4ZM197,539l-6.5,4-2.5,4c1.12-.93,9.76-7.32,9-8ZM197,546c2.07,1.85,7.63-4.75,7-7-2.38,1.31-2.94,3.11-5.5,4-.7.24-.77,2.09-1.5,3ZM236,539c-1.9-.29-3.29,1.1-3,3l3-3ZM523,539h-3v9l3-4.5v-4.5ZM536,539c-1.9-.29-3.29,1.1-3,3l3-3ZM228,545l2-1.5v-3.5l-2,1.5v3.5ZM453,549l-4.5-7-8.5-2,3.5,4c3.8.56,5.48,4.84,9.5,5ZM464,540h-2l1.5,2h.5v-2ZM469,544v-2.5l-2-1.5,1,4h1ZM549,547l-.5-7c-2.51,2.38-4.24,6.79.5,7ZM218,547l6.5-2,.5-4c-2,.94-4.04,1.69-6,2l-1,4ZM168,546l1-4-3,2.5,2,1.5ZM241,542h-2v1h2v-1ZM249,544l-.5-2-7.5,6c3.57.17,5.06-3.97,8-4ZM476,542h-2l2.5,3,.5-.5-1-2.5ZM483,546c.08-2.58-2.39-4.51-5-4l2.5,4h2.5ZM540,544v-2h-1v2h1ZM160,543l-1,3.5,1.5,1.5c2.99-2.22,3.65-4.65-.5-5ZM176.5,543c-.65,0-.65,1,0,1s.65-1,0-1ZM455,543c-4.49-.66,0,4.83,1.5,6l-1.5-6ZM492,547c0-1.56-4.79-4.25-5-4-.5,3.75,1.55,4.4,5,4ZM551,552c.86.88,4.81-2.85,5-3.5.54-1.83-1.65-3.4-1-5.5-2.39.5-1.63,2.24-2,3.5-.54,1.86-1.14,3.77-2,5.5ZM148,554l-.5-3c4.51-2.07-2.38-8.2-3.5-7l-1,4.5c2.68,2.54,3.21,6.23,6.5,8.5l2.5-5-4,2ZM215,544l-1,3.5,2-1v-2.5h-1ZM464,549c-.38-1.23-4.98-6.07-6-5l2,4.5,4,.5ZM532,546v-2h-1v2h1ZM177,547v-2h-1v2h1ZM213,545h-3l-1,4c2.55.39,2.98-2.01,4-4ZM497,545l-.8,1.6,4.6,2.3.8-1.6-4.6-2.3ZM155,546h-2v3l2-1.5v-1.5ZM237.5,546l-1.5,1.5.5.5,1.5-1.5-.5-.5ZM467,546l-2,.5c1.27,1.01.98,3.13,3,3.5l-1-4ZM512,551c1.26-2.85-3.85-7.1-5-3.5-.63,1.96,4.57,3.98,5,3.5ZM206,551l1-4c-2.02.37-1.73,2.49-3,3.5l2,.5ZM234,547c-2.4-.37-4.24.48-4,3,.83.83,3.78-1.67,4-3ZM472,547h-2c-.36,1.76,1.36,2.24,1,4h2l-1-4ZM166,551l-.5-3c-1.2,1.33-2.89,2.1-2.5,4l3-1ZM225,552l2-1.5v-2.5h-1l-1,4ZM479,550l-2-2v2h2ZM530,548c-2.31-.91-5.75,5.1-5,6,2.55-1.07,3.37-3.93,5-6ZM536,548h-2v2l2-2ZM544,553c2.68-.94,2.73-3.41.5-5h-.5v5ZM487,553l-2-3.5-4-.5c.16,1.73,5.18,4.7,6,4ZM158,550h-2v3l2-1.5v-1.5ZM188,556c1.64-.29,1.89-1.82,2.5-3,.37-.71,1.58-2.34,1-3l-3.5,2v4ZM222,550l-4.5,1-.5,3,5-4ZM458,551l-3-1c-.89,1.09,2.28,4.64,4,4l-1-3ZM494,554c.51-3.82-1.67-4.39-5-4l1,3,4,1ZM194.5,551c-.65,0-.65,1,0,1s.65-1,0-1ZM200,551c-1.76-.31-3.29,1.36-4,3,1.76.31,3.29-1.36,4-3ZM479.5,551c-.65,0-.65,1,0,1s.65-1,0-1ZM499,551l-2,.5c1.27,1.01.98,3.13,3,3.5l-1-4ZM167.5,552c-.65,0-.65,1,0,1s.65-1,0-1ZM467,556c.79-.96-1.63-3.69-3-4v3c1.51-.42,1.82.69,3,1ZM504,555v-1.5l-2-1.5v3h2ZM530,557l1-5h-1l-2,5h2ZM556,554v-2h-1v2h1ZM210,553c-1.9-.29-3.29,1.1-3,3,1.9.29,3.29-1.1,3-3ZM213.5,553c-.65,0-.65,1,0,1s.65-1,0-1ZM510,554l-4-1,1.5,2h2.5v-1ZM519,553h-2v3h1c-.42-1.51.69-1.82,1-3ZM536.5,553c-.65,0-.65,1,0,1s.65-1,0-1ZM205,554c-.96-.79-3.69,1.63-4,3h3c-.42-1.51.69-1.82,1-3ZM477,557c-.22-1.33-3.17-3.83-4-3-.32,1.5.44,2.06,1.5,3h2.5ZM542,557v-1.5l-2-1.5v3h2ZM547,556v-2h-1v2h1ZM155,555h-2l-1,4c1.33-.22,3.83-3.17,3-4ZM169,558l1-2.5-.5-.5-2.5,3h2ZM224.5,555c-.65,0-.65,1,0,1s.65-1,0-1ZM489,556l-4,.5,5,3.5-1-4ZM511.5,555c-.65,0-.65,1,0,1s.65-1,0-1ZM553,558v-3h-1v3h1ZM145,562l3-2.5-4-3.5,1,6ZM163,556c-1.9-.29-3.29,1.1-3,3,1.9.29,3.29-1.1,3-3ZM198,556c-1.88-.24-3.47,0-4,2,1.88.24,3.47,0,4-2ZM219,556l-4,1v1h2.5l1.5-2ZM483,559c.65-1.25-1.6-3.5-2-3-.65,1.25,1.6,3.5,2,3ZM496,557h-3l1,3h3l-1-3ZM502,560c.65-1.25-1.6-3.5-2-3-.65,1.25,1.6,3.5,2,3ZM557,565l-2-8-1,5.5,3,2.5ZM155,562l2-3.5-.5-.5-3.5,4h2ZM211,558l-1,2.5.5.5,1.5-3h-1ZM506,558l-2,.5,1,2.5h2l-1-3ZM199,564c1.46-.77,3-1.16,4-2.5v-2.5c-1.44.5-4.91,3.94-4,5ZM205,562c.4.5,2.65-1.75,2-3-.4-.5-2.65,1.75-2,3ZM221,559c-2.33-.11-3.84,2.19-6,2l-1,4,7-6ZM514,559h-3v.5l1.5,1.5h1.5v-2ZM545,559h-2v1h2v-1ZM167,560c-1.9-.29-3.29,1.1-3,3l3-3ZM479,562l-1.5-2h-1.5v2h3ZM517.5,560c-.65,0-.65,1,0,1s.65-1,0-1ZM157,565l3-2.5-1.5-1.5-1.5,1.5v2.5ZM196,561l-5,1-2,5c3.85.23,6.72-2.15,7-6ZM469.5,561c-.65,0-.65,1,0,1s.65-1,0-1ZM143,569c.48-2.61,2.61-5.63-1-7,.04,1.49-.06,3,0,4.5.05,1.15-.66,2.75,1,2.5ZM182,562h-2v1h2v-1ZM484.5,562c-.65,0-.65,1,0,1s.65-1,0-1ZM493,563l-4-1v2h4v-1ZM531,562h-2l1.5,2h.5v-2ZM543,562c-1.5-.32-2.06.44-3,1.5v2.5c1.33-.22,3.83-3.17,3-4ZM150,569l3-3.5-2.5-2.5-2.5,2.5,2,3.5ZM169,563l-3,2.5,1.5,1.5,1.5-1.5v-2.5ZM222,565v-2l-4,3.5.5.5,3.5-2ZM471.5,563c-.65,0-.65,1,0,1s.65-1,0-1ZM499,566c.29-1.9-1.1-3.29-3-3v2l3,1ZM505,566c-.31-1.18-1.42-1.49-1-3h-1v3h2ZM517,564h-1.5l-1.5,2h3v-2ZM176,570c2.68-.94,2.73-3.41.5-5h-.5v5ZM185,565h-2v4h2v-4ZM206,565h-2l-1,4c1.5.32,2.06-.44,3-1.5v-2.5ZM211,568v-3l-3,2.5v.5h3ZM479.5,565l-.5.5,1.5,1.5.5-.5-1.5-1.5ZM531,572c2.38-1.08,4.42-5.12,1.5-7l-1.5,3.5v3.5ZM163,566c-1.5-.32-2.06.44-3,1.5v2.5h2l1-4ZM489,567l-3-1v2l3,1v-2ZM528,566h-2l1.5,2h.5v-2ZM545,566c-2.43-.4-1.79.3-2.5,2-.91,2.15.77,2,.5,4l2-6ZM154.5,567c-.65,0-.65,1,0,1s.65-1,0-1ZM496,570c-.71-1.64-2.24-3.31-4-3,.71,1.64,2.24,3.31,4,3ZM200,570v-2l-2,1.5v.5h2ZM501,571v-1.5l-2-1.5v3h2ZM148,574l.5-3-2-2-2.5,2.5,4,2.5ZM166,569h-2c.2,1.21-.02,1.79-1,2.5l.5.5,2.5-3ZM517,569h-3l1,4h1l1-4ZM174,570l-3,2.5,2.5,1.5,1.5-1.5-1-2.5ZM192,570l-5,2v1l5-1v-2ZM476.5,570c-.65,0-.65,1,0,1s.65-1,0-1ZM550,576v-6h-1l-1,3.5,1,2.5h1ZM179,574c.4.5,2.65-1.75,2-3-.4-.5-2.65,1.75-2,3ZM498,582c.41-2.29-2.04-3.05-3-4.5-.27-.42-.72-2.57-1-3-.55-.86-1.83-1.62-2.5-2.5l-4.5-1c1.38,2.24,3.6,4.16,5.5,6,1.08,1.05,1.72,2.36,3.5,2l2,3ZM159,572c-2.16-1.02-4.6,4.32-4,5,2.67.48,1.6-.53,2.5-2,.6-.98,2.01-1.19,1.5-3ZM529,572l-3,1.5,2.5,4.5.5-6ZM535,574v-2h-1v2h1ZM480.5,573c-.65,0-.65,1,0,1s.65-1,0-1ZM499,577c.39-1.9-1.3-2.67-2.5-4l-.5.5c1.27,1.01.98,3.13,3,3.5ZM542,573h-2l1,4,2-1.5c-.98-.71-1.2-1.29-1-2.5ZM145,579v-3.5l-2-1.5v5h2ZM503,577c.65-1.25-1.6-3.5-2-3-.65,1.25,1.6,3.5,2,3ZM196,575h-2v1h2v-1ZM509,577v-2h-1v2h1ZM520,580l-1-5h-1l1,5h1ZM161,581l2-5c-1.84.77-6.72,5.46-2,5ZM171,576h-2v3l2-1.5v-1.5ZM188,576c-1.55.1-3.52-.58-4.5,1-.82,1.32-.06,2.58-1.5,3.5l3.5-2.5,2.5-2ZM176,577v1.5l1.5,1.5,1.5-1.5-1.5-1.5h-1.5ZM190.5,577l-4.75,4.75,1,1,4.75-4.75-1-1ZM530,580c.4.5,2.65-1.75,2-3-.4-.5-2.65,1.75-2,3ZM540,580v-3h-1v3h1ZM154,581v-3h-1v3h1ZM509.5,578c-.65,0-.65,1,0,1s.65-1,0-1ZM556,583v-5h-1v5h1ZM500.5,579c-.65,0-.65,1,0,1s.65-1,0-1ZM543,583l1-4-2,1.5v2.5h1ZM148.5,580l-2.5,2.5.5.5,2.5-2.5-.5-.5ZM512,582l-2-2v2h2ZM175,581l-3,1.5,1.5,2.5,1.5-1.5v-2.5ZM509,587c-1.42-2.01-1.68-6.2-5-6l2,3.5,3,2.5ZM524,585c.37-2.4-.48-4.24-3-4-.37,2.4.48,4.24,3,4ZM535.12,580.77l-.64,3.81,2.51.42.64-3.81-2.51-.42ZM199,584l-.5-2c-3.47,3.3-8.06,4.61-10.5,9,2.54.18,3.77-2.66,5.5-4,.21-.16.79.16,1,0,1.54-1.19,2.37-3.41,4.5-3ZM482.5,582l10,10c7.85,6.27,15.82,12.84,24,19l5.5,2.5c-1.22-1.06-2.26-2.49-3.5-3.5-.2-.16-.79.17-1,0-1.34-1.05-2.99-2.19-4-3l-31-25ZM158.26,583.98c0-.68-.55-1.24-1.24-1.24s-1.24.55-1.24,1.24.55,1.24,1.24,1.24,1.24-.55,1.24-1.24ZM166.5,583c-.65,0-.65,1,0,1s.65-1,0-1ZM144,588c.4.5,2.65-1.75,2-3-.4-.5-2.65,1.75-2,3ZM533,590l1-3.5-2.5-1.5-1.5,1.5,3,3.5ZM153,586h-2v1h2v-1ZM169,590l3-1.5-2-2.5-1,4ZM550,589v-2h-1v2h1ZM153,588v1.5l1.5,1.5,1.5-1.5-1.5-1.5h-1.5ZM183,590v-2h-1v2h1ZM544,592c.24-1.88,0-3.47-2-4l-1,4h3ZM149,592v-3h-1c.42,1.51-.69,1.82-1,3h2ZM522.5,590c-.65,0-.65,1,0,1s.65-1,0-1ZM137,595l2-1.5v-1l-1.5-1.5h-.5v4ZM536,591c-1.9-.29-3.29,1.1-3,3l3-3ZM166,595c.4.5,2.65-1.75,2-3-.4-.5-2.65,1.75-2,3ZM511.5,592l-.5.5,2.5,2.5.5-.5-2.5-2.5ZM547,595c.4.5,2.65-1.75,2-3-.4-.5-2.65,1.75-2,3ZM153,593c-1.9-.29-3.29,1.1-3,3h3v-3ZM183,595v-2l-3,2.5.5.5,2.5-1ZM162,594h-3v.5l1.5,1.5,1.5-2ZM147,595h-2v3h1c-.42-1.51.69-1.82,1-3ZM156,596h-2v2l2-2ZM170,599c1.9.39,2.67-1.3,4-2.5l-.5-.5c-1.01,1.27-3.13.98-3.5,3ZM562,596h-1v12h1v-12ZM139,597h-2v3h2v-3ZM165,597h-2v2l2-2ZM175,602c2.3-.75,2.74-3.02,4-4.5l-.5-.5c-1.37,1.66-3.82,2.76-3.5,5ZM523.5,597l-.5.5,1.5,1.5.5-.5-1.5-1.5ZM529,597h-2l1.5,2h.5v-2ZM543,597l-3,1.5v2.5l3-1.5v-2.5ZM150,598h-2l-1,4h2l1-4ZM159,598l-3,1.5v2.5l3-1.5v-2.5ZM150,604c.4.5,2.65-1.75,2-3-.4-.5-2.65,1.75-2,3ZM526.5,601c-.65,0-.65,1,0,1s.65-1,0-1ZM162,602c-1.25-.65-3.5,1.6-3,2,1.25.65,3.5-1.6,3-2ZM539,605c.65-1.25-1.6-3.5-2-3-.65,1.25,1.6,3.5,2,3ZM152,607c1.64-.71,3.31-2.24,3-4-1.64.71-3.31,2.24-3,4ZM172.5,603c-.65,0-.65,1,0,1s.65-1,0-1ZM545,603h-2v2l2-2ZM556,604h-2v1h2v-1ZM531,605l3.5,4,.5-.5c-1.4-1.57-1.39-3.96-4-3.5ZM154,610c2.06.2,4.2-1.94,4-4l-4,4ZM550,606h-2v2l2-2ZM556,607h-2l-1,4c.62.75,2.79-3.08,3-4ZM145,610v-2h-1v2h1ZM164.5,608c-.65,0-.65,1,0,1s.65-1,0-1ZM522.5,608c-.65,0-.65,1,0,1s.65-1,0-1ZM141,615v-6h-1c-.21,2.05-1.52,3.52-1,6h2ZM149.5,609c-.65,0-.65,1,0,1s.65-1,0-1ZM524.5,609c-.65,0-.65,1,0,1s.65-1,0-1ZM530.5,609l2,3,4.5,2.5-6.5-5.5ZM164,610c-2.24-.32-3.34,2.13-5,3.5l.5.5c1.48-1.26,3.75-1.7,4.5-4ZM150,611h-2l1.5,2h.5v-2ZM153.26,612.98c0-.68-.55-1.24-1.24-1.24s-1.24.55-1.24,1.24.55,1.24,1.24,1.24,1.24-.55,1.24-1.24ZM544,612h-2v3h2v-3ZM550,616v-2l-2,1.5v.5h2ZM555,620l1-6-4,5.5,3,.5ZM147,617v-2h-1v2h1ZM149,619l2-1.5-1.5-1.5h-.5v3ZM141,617h-2v5h2v-5ZM546.5,617c-.65,0-.65,1,0,1s.65-1,0-1ZM144,626l-2-5c.53,3.62-1.54,6.44-1,10l9-8-6,3ZM547,621l1.5,3,.5-.5-1-2.5h-1ZM555,623l-3,2.5v1l3,1.5,1,4-1-9ZM156.5,625c-.65,0-.65,1,0,1s.65-1,0-1ZM550,627h-2v1h2v-1ZM138,634v-3h-1v3h1Z"/>
</svg>