<?xml version="1.0" encoding="UTF-8"?>
<svg id="Capa_1" data-name="Capa 1" xmlns="http://www.w3.org/2000/svg" viewBox="0 0 694 694" fill="currentColor">
  <path d="M347,64l3-.5,4,.5-2-4c2.53,1.76,4.64,3.6,8,3-.97-2.23-1.88-4.65-2.5-7-.27-1-1.09-3,1-2,.62.3,2.23,2.82,2.5,3.5.15.38.97,2.83,1,3,.86,4.14-1.31,2.81,2.5,5.5,2.04,1.44,4.02,4.75,6,6,.27.17,1.51-.12,2,1,1.82-2.11,4.28-3.36,7-3,2.75,1.8,6.29,4.66,8.5,7.5,2.09,2.68,4.93,7.71,7,11,4.17,6.62,8.4,17.24,14.5,21.5s12.65,10.12,19,15l13,10c.62-1.31-1.77-2.55-2.5-3.5-8.05-10.37-18.48-20.66-27-31-.97-1.18-3.54-3.03-4-4-.54-1.14.36-2.04,1.5-1.5.79.37,4.54,4.43,5.5,5.5,11.7,13.04,23.7,26.98,35,40,6.4,7.38,14.31,12.12,21.5,17.5,1.75,1.31,3.41,3.3,5.5,4.5.25,2.11-.27,1.7-2,1-3.25-1.31-4.01-2.54-6.5-4.5-.78-.61-2.46-2.03-3.5-1.5l51.5,54.5c2.62,1.56,5.13.63,8,1,.37.05.63.96,1,1,2.07.23,4.39-.16,6.5,0,.29,2.76-2.22,3.54-4.5,3-.4-.09-.63-.94-1-1-1.69-.25-3.74.17-5.5,0l17.5,16,4.5-2c.19.19-.26,1.03,0,1.5.98,1.77,6.67,5.81,7,7,.3,1.09-.3,2.91,0,4,.33,1.19,6.42,5.78,7.5,7.5.69-1.04,1.89-1.32,3-1,.28.08,1.99,1.5,1,2l-1.5,1.5c3.95,3.69,7.5,7.86,11.5,11.5.18.16.82-.17,1,0,3.44,3.11,6.16,7.27,10.5,9l2-3,2,8h1.5c10.16,9.53,20.35,20.69,31,29,1.16.91,2.02,2.59,3.5,3l2-8,2.5-1c.33-.09,2.67.8,3,1,1.38.84,7.27,6.95,8.5,8.5.16.2-.16.79,0,1,8.64,11.08,15.86,22.78,25,34,2.39,2.93,6.18,6.78,8,10,2.04,3.61,6.77,5.82,10.5,8.5,1.43,1.03,3.01,2.43,4.5,3.5.4,2.22-.97,1.47-2.5,1.5-3.87.08-10.77-.7-14,0-.34.07-2.66,1.93-3,2-3.41.74-8.95.49-12,1-1.95.33-4.44-.22-6.5,0,.39,1.9-1.3,2.67-2.5,4l-18-5c-1.81,1.89-5.29.72-8,1-.36.04-.64.96-1,1-10.04,1.05-19.1,1.9-29,3l-2.5,2c2.46-.15,5.06.22,7.5,0,.36-.03.64-.97,1-1,3.41-.32,6.02-.55,9-1,1.99-.3,5.73-.66,6.5,2l-13.5,1c-2.66,2.17-7.53.41-11,1-.39.07-.9,1.55-2.5,1v10.5l5,7.5-3-.5-2-1.5c.16,2.11-.24,4.44,0,6.5,4.23,37.03,2.53,82.69,0,120-.36,5.35-2.14,12.05-1,17,1.87,8.07,2.92,15.51,4,24,.05.37.97.64,1,1,.75,7.92-1.64,16.32-6,23,0,.33.88.58,1,1,.57,2.01-.96,3.85-3,3.5l-3,14c1.82.76,2.95-.86,3.5-1,1.82-.46,5.12-.96,7-1,.87-.02,3.48-.43,2.5,1.5-.24.46-1.93,2.07-2.5,2.5-2.72,2.04-7.1,4.12-10,6-5.59,3.62-11.33,6.56-14.5,12.5.23,2.16-1.64,3.68-1,6,.75,2.7,5.55,2.78,8,2.5l-1.5,2c-5.22,1.15-10.45.58-16,1-9.1.68-18.34-.02-28,1-17.97,1.89-35.89-.67-54,1-6.24.58-13.7,2.32-20,3-2.23.24-4.72-.17-7,0l-1.5-2,4.5-1c11.08.42,21.03-2.15,32-2l4.5-1-2.5-2c-8.93-2.75-19.29-2.35-29-2-6.16.22-14.81,1.4-21,2-2.42.24-5.05-.16-7.5,0-.18,2.09,1.15,4.67-2,4,.61-5.03-3.34-4.04-7-4l4-2c-.68-5.99-7.49-3.58-12-4-.51-2.75.83-2.03,3-2,.16-2.11-.23-4.43,0-6.5.04-.37.95-.63,1-1,.51-3.95-.07-8.7,2-12v-1c-2.6-2.08-3.71-5.83-3-9,.38-1.72,3.83-4.39,4-5,.34-1.25.16-6.34,0-8-.77-8.18-2.6-17.32-2-26,.45-6.57,2.27-13.55,1-20-.72-3.67-2.48-8.26-3-12-1.1-7.84-1.88-17.89-1-25,.31-2.48.47-11.9,0-14-.37-1.64-2.87-3.55-4-5-.81-1.04-4.89-5.61-5-6-.32-1.18.53-3.92-1.5-4.5-.63-.18-1.41.19-2,0-3.8-1.21-6.31-1.26-10-2-24.76,2.25-50.46,3.35-75,6-2.23.24-4.72-.17-7,0l-7.5,9.5c-.18,7.66.25,15.35,0,23-.83,25.34-.5,52.03-1,78-.21,10.88-1.81,23.36-1,35,.14,1.97.84,2.76,1,4.5l-4-5-1,7c.6.51,8.51-.45,10.5,0,1.57.35,1.57,2.65,0,3-1.85.41-10.03-.47-10.5,0v6c-1.42.25-1.13-1.62-1.5-3-.24-.91-.83-1.78-.5-3h-3v2c-4.07.18-8.33-.98-11.5,2h-1c-10.47-3.71-22.93-.43-34,0-16.23.64-36.09-2.16-51,2-10.82,3.02-22.28,6.57-35,5-.37-.05-.62-.93-1-1-1.22-.22-2.82.24-4,0-.38-.08-.6-.9-1-1-4.34-1.12-8.6-2.44-12-5-9.21-6.95-17.62-18.85-20.5-30.5-.1-.4-.93-.62-1-1-.29-1.64.2-3.76,0-5.5l2,2.5c2.09,12.03,13.71,30.37,25.5,35.5.56.24,1.43-.24,2,0,1.57.66,4.31,2.65,6,3,13.16,2.73,24.87-.4,37-3l2.5-2c-5.88-.88-15.11,1.19-20.5,0-.38-.08-.6-.88-1-1-1.34-.39-2.41,2.39-4,0-.74.68.32,1.11.5,2.5.5,3.73-2.82-.11-3.5-.5-5.13-2.93-9.71-3.49-15-5-6.45-1.84-13.1-6.03-17.5-11.5s-6.69-11.46-8-18c-.08-.39-.95-.63-1-1-.49-3.34.35-7.52,0-11l-1.5-1.5c-2.06.51-5.93-.42-6.5-2.5-.47-1.72-.21-10.64,0-13,.64-6.98,2.48-12.72,2-21-1.22-20.93-.54-41.22,1-62,1.2-16.13,4-33.85,5-50,.57-9.31-.42-19.14,0-28.5-1.09.56-4.8,3.83-5,4.5-.35,1.16.38,2.47-1.5,3.5l-.5-2-3-1.5c1.23-1.06,2.25-2.49,3.5-3.5.2-.17.81.16,1,0,.85-.71,5.4-5.13,5.5-5.5.25-.92-.16-2.41,0-3.5-1.7.02-5.46.47-6-1.5-1.12-4.1,4.72-8.61,5-12.5-.49-.56-11.61,8.52-11,.5,1.41-2.05,3.63-4.13,5-6,.16-.22-.16-.79,0-1,1.07-1.45,3.38-2.28,3-4.5-1.75-.78-3.18.95-3.5,1-4.06.59-7.62-.33-11-1-1.03-.21-2.38.13-3.5,0v-4c-2.11.16-4.44-.23-6.5,0-.37.04-.63.96-1,1-2.07.23-4.39-.16-6.5,0v3c-1.44-.15-3.13.22-4.5,0-.38-.06-.64-.96-1-1-16.99-1.84-34.58,2.51-51,0-1.16-1.18-4.92-1.39-5.5-3.5-.43-1.56-.29-6.01,1-7-1.23-1.77-4.39-1.49-4-4.5l7,1,2-4.5-1-5.5,2.5,2c2.33-2.03,3.98-5.06,4.5-8l-5,.5c1.23-1.51,2.85-2.55,4.5-3.5,1.4-.81,3.4-.8,4.5-2.5,1.64-2.55,3.31-5.35,5-8,6.37-9.97,12.13-20.03,19-29,.57-.75,4.02-4.29,4.5-4.5.44-.19,1.65-.25,1.5.5l-25,36,1.5.5c9.58-9.04,18.33-19.06,28-28,16.53-15.29,35.76-29.74,53-44,8.2-6.78,13.55-14.6,20.5-22.5,23.11-26.27,49.6-51,76.5-70.5,10.08-7.31,19.59-14.52,29-23,24.79-22.33,42.58-49,69-70,2.6-2.07,5.33-4.87,8-7l2,4c1-1.18,5.66-4.84,4.5-6h-1.5l-.5-3,4.5,2c1.4-1.11,2.61-3.02,4-4,2.45-1.73,4.1-3.52,5.5-6.5.45-.95,1.59-1.52,1-3.5l2.5,1c1.62-2.04,2.57-4.31,5.5-5,.45,2.3-.29,2.57-1.5,4-1.62,1.91-4.02,3.58-5.5,5.5-1,1.3-1.29,1.7-1,3.5ZM360,66h-2v1h2v-1ZM347.5,70l-1.5,1.5.5.5,1.5-1.5-.5-.5ZM356,82c-.73-2.64,1.66-5.1,1-7.5-.26-.93-5.1-5.57-7-4.5l2,1.5-4,3c1.93,2.96,3.37-.05,6,.5.64,2.11-1.53,3.65-1,5.5.24.84,1.92,1.82,3,1.5ZM364.75,69.25l-1,1,6.5,6.5,1-1-6.5-6.5ZM377.5,72l-3.5,3.5,23.5,22.5-7.5-13.5c-2.04-1.4-2.8-4.46-4-6-1.28-1.65-6.71-7-8.5-6.5ZM344,79c1.9.29,3.29-1.1,3-3l-3,3ZM365,82l-5,4.5,4.5,4.5c2.64-1.99,1.15-5.67,1.5-8.5-.1-.37-5.1-5.31-5.5-5.5-1.99-.94-1.35,2.21-2.5,2.5v2.5c1.64.51,2.21-1.33,3.5-1,.57.15,1.67,1.75,3.5,1ZM323,79c-.42-.45-5.74,4.38-6.5,5-9.2,7.41-17.57,16.88-25.5,25.5-2.86,3.12-6.1,5.92-9,9l3.5-1.5c7.67-7.32,15.3-14.72,23-22,4.35-4.12,8.91-7.27,12.5-12.5.79-1.16,2.49-1.57,2-3.5ZM374.5,79l1.5,3.5,3.5,2.5-5-6ZM349,80c-1.9-.29-3.29,1.1-3,3l3-3ZM326,92c.19-.2-.26-1.03,0-1.5,1.13-2.02,5.2-3.55,5-6.5-1.94,1.6-5.78,4.53-7,6.5-.1.17-.98,2.16-.5,2.5.51-1.28,2.41-.9,2.5-1ZM370,86l-2,.5-1,6,11,10.5-1-6.5c-1.28-1.23-2.22-3.96-3-5-1.33-1.76-4.22-2.98-4-5.5ZM384,89c.65-1.25-1.6-3.5-2-3-.65,1.25,1.6,3.5,2,3ZM357.5,89l-3.5,3.5,3,3,3.5-3.5-3-3ZM402,106c-1.05-1.8-2.92-3.63-4.5-5-.19-.17-.81.16-1,0-2.94-2.58-5.64-5.77-8.5-8.5-.69-.66-2-2.76-3-2,4.65,4.25,8.8,9.35,13.5,13.5,1.12.99,1.66,2.39,3.5,2ZM327.5,95l-5,6,3.5-2.5,1.5-3.5ZM363,95c-1.1-.26-5,1.75-5,2.5l1.5,1.5,3.5-4ZM353,96c-1.9-.29-3.29,1.1-3,3,1.9.29,3.29-1.1,3-3ZM384,101l-2.5-3-2.5-1.5c.81.64,4.53,4.98,5,4.5ZM352,104l4.5-2-1-3-3.5,5ZM370,109c2.29.51,4.67-1.08,5-3.5l-6-4.5c.28,1.75-1.55,2.61-1,4.5.24.84,2.68,1.56,2,3.5ZM380.5,101c-.65,0-.65,1,0,1s.65-1,0-1ZM351,104c-3.05.37-6.62,2.39-6,6l4-2.5,2-3.5ZM385,108c.31-1.76-1.36-3.29-3-4-.31,1.76,1.36,3.29,3,4ZM361,105c-3.14-.5-5.5,1.92-5,5,2.09-.99,5.14-2.1,5-5ZM334.5,107l-12.5,10.5c1.31.62,2.56-1.77,3.5-2.5.2-.16.78.17,1,0,1.36-1.01,2.26-3.15,4-3l4-5ZM380,110c-1.6.47-1.92-1.17-3-.5-1.65,1.03-2.35,2.55-2,4.5l5-4ZM301.5,110l-38,35-10.5,12.5c1,.76,2.31-1.34,3-2,1.19-1.13,2.27-2.42,3.5-3.5,12.82-11.3,26.31-21.86,37.5-35.5.88-1.07,2.16-1.92,3-3,.61-.78,2.03-2.46,1.5-3.5ZM368,113v-1.5l-2-1.5v3h2ZM352.5,111c-.65,0-.65,1,0,1s.65-1,0-1ZM359,115c2.01-.53,2.24-2.12,2-4-2.01.53-2.24,2.12-2,4ZM392.25,111.75l-1,1,4.5,4.5,1-1-4.5-4.5ZM351,113h-2v1h2v-1ZM382.5,114l-3,2c-1.3.87.27,2.79,1,3,2.17.62,3.22-1.28,4.5-2.5l-2.5-2.5ZM348,117v-2l-2,1.5v.5h2ZM355,121l2-3.5-1.5-1.5c-1.71,1.57-3.01,2.5-2.5,5h2ZM399,117c.24,2.97,3.65,4.87,5.5,7,.71.81.37,1.78,1.5,2.5l3-1c-.88-.73-1.61-1.83-2.5-2.5-.63-.48-3.23-1.51-4-2-1.67-1.06-1.37-3.53-3.5-4ZM470,167c-6.47-9.66-15.9-18.22-24.5-27l-28-21-3.5-1.5c1.56,1.42,2.91,3.11,4.5,4.5.19.17.82-.16,1,0,3.86,3.42,7.18,7.52,11,11,7.86,7.15,15.85,14.48,24,22l26,24c.53-1.04-.89-2.72-1.5-3.5-1.7-2.17-5.9-5.03-7-7-.26-.47.19-1.31,0-1.5h-2ZM384,121l2.5,4,3.5-2.5-2.5-3.5-3.5,2ZM406.5,119l3,4,14,12,3.5,1.5-10.5-9.5-10-8ZM342.5,120l-1.5,1.5.5.5,1.5-1.5-.5-.5ZM377.33,121.77c0-1.16-.94-2.1-2.1-2.1s-2.1.94-2.1,2.1.94,2.1,2.1,2.1,2.1-.94,2.1-2.1ZM398.5,120c-.65,0-.65,1,0,1s.65-1,0-1ZM300.5,121l-6.5,5.5,3.5-1.5,3-4ZM351,123v-2h-1v2h1ZM327.5,122l-3.5,2.5.5.5c.98-1.21,2.55-.98,3.5-2.5l-.5-.5ZM358.5,123l-1.5,1.5.5.5,1.5-1.5-.5-.5ZM348,128l-2.5-4-3.5,3.5,2.5,2.5,3.5-2ZM381,124c-1.9-.29-3.29,1.1-3,3,1.9.29,3.29-1.1,3-3ZM396,124l-2,1.5,4,3.5-2-5ZM393,126c-6.9.38.91,7.22,2,6l-2-6ZM315,134c.19-.2-.26-1.03,0-1.5.8-1.43,2.17-1.27,2.5-1.5.56-.4,2.77-2.17,2-3l-8.5,7.5,4-1.5ZM381,132c2.5.51,3.43-.79,5-2.5l-1.5-1.5c-1.53-.42-4.32,3.18-3.5,4ZM411.5,128c-1.17.91-1.96,1.96-1.5,3.5.27.91,11.78,12.05,13.5,13.5,1,.84,3.85,3.23,5,4,.88.59,3.24.74,4,2l-1.5-3.5-19.5-19.5ZM335,138c3.03-1.79,5.66-3.84,8-6.5l-2.5-2.5-4.5,3.5-1,5.5ZM321.5,131l-2.5,2.5.5.5,2.5-2.5-.5-.5ZM370.5,133c-.65,0-.65,1,0,1s.65-1,0-1ZM391.08,135.49c0-1.43-1.16-2.58-2.58-2.58s-2.58,1.16-2.58,2.58,1.16,2.58,2.58,2.58,2.58-1.16,2.58-2.58ZM375,137c.4.5,2.65-1.75,2-3-.4-.5-2.65,1.75-2,3ZM339,143c2.06-1.21,3.84-3.27,5.5-5,.66-.69,2.76-2,2-3-2.1,3.01-7.15,3.86-7.5,8ZM353.5,136c-.65,0-.65,1,0,1s.65-1,0-1ZM344,146l6-4.5-.5-3.5c-2.26,2.34-5.29,4.42-5.5,8ZM373,138h-2v2l2-2ZM411.5,138l3.5,4.5c-.11.43-.16.81,0,1,2.51,2.97,5.89,5.56,8.5,8.5.53-1.04-.89-2.72-1.5-3.5-2.84-3.64-7.46-6.87-10.5-10.5ZM322,142c.4.5,2.65-1.75,2-3-.4-.5-2.65,1.75-2,3ZM380.5,139l-3.5,2.5,2.5,4.5,4.5-3.5-3.5-3.5ZM406,139l-3,1.5,1.5,2.5,1.5-1.5v-2.5ZM330,143l1-2.5-.5-.5-2.5,3h2ZM318,150l3-2.5,1-4.5c-1.68.27-1.83,1.86-2.5,3-.74,1.26-2.19,1.56-1.5,4ZM340,146c.4.5,2.65-1.75,2-3-.4-.5-2.65,1.75-2,3ZM376,144h-3c-.7,1.73,3.05,4.92,4,4l-1-4ZM401,146v-2l-2,1.5v.5h2ZM412,151l4-1.5-5.5-5.5.5,4.5,1,2.5ZM340,147h-4.5c-1.34,1.98-4.29,2.72-6,4-.59.44-2.77,2.15-2,3l3.5-1.5c-1.9,2.08-4.14,3.89-6,6-.99,1.12-2.39,1.66-2,3.5.43.49,2.83-2.5,3.5-3,3.57-2.67,8.32-5.04,11.5-8.5,1.02-1.11,2.38-1.68,2-3.5ZM361.5,146c-.65,0-.65,1,0,1s.65-1,0-1ZM312.5,147l-1.5,1.5.5.5,1.5-1.5-.5-.5ZM259,163c.26-.18,1.1.28,1.5,0,2.02-1.44,4.44-3.9,6.5-5.5l-7,3.5c2.74-3.72,6.32-6.68,9.5-10,.66-.69,2.76-2,2-3l-25.5,24.5,13-9.5ZM352.5,148l-6.5,5.5,4.5-2.5,2-3ZM443,157c.39-1.84-1.01-2.38-2-3.5-1.71-1.93-3.76-3.59-5.5-5.5l1.5,3.5,6,5.5ZM371,150h-2v1h2v-1ZM288,169c2.81-.1,4.52-3.31,6.5-5,2.88-2.46,7.14-5.53,10-8,.88-.76,4.46-3.95,3.5-5-4.37,2.9-7.55,6.53-11.5,10-.19.17-.81-.16-1,0-2.63,2.33-5.38,5.19-7.5,8ZM313.91,150.65l-2.87,4.78,1.62.97,2.87-4.78-1.62-.97ZM367,151h-2c-.36,1.76,1.36,2.24,1,4h2l-1-4ZM415,153c1.76,2.18,4.69,9.54,8,5.5l-5-6-3,.5ZM407,153h-2v1h2v-1ZM360,161c4.27-.73,5.21-3.5,1.5-6l-1.5,6ZM308,161c-.4-1.3,1.08-5.03-1-5l-7.5,8c-3.41,1.76-5.55,4.82-9,7-1.49.94-1.3,2.49-2.5,3.5l5.5-2.5c2.17-2.78,5.56-4.08,8-6,2.16-1.69,3.77-5.08,6.5-5ZM373.26,156.98c0-.68-.55-1.24-1.24-1.24s-1.24.55-1.24,1.24.55,1.24,1.24,1.24,1.24-.55,1.24-1.24ZM410,156h-2v1h2v-1ZM358,157l-7,5.5,2.5,4.5c.74-1.18,4.27-3.66,4.5-4.5.39-1.41-.27-3.86,0-5.5ZM400,157c-.95-.89-8.13,4.22-9,5.5l2.5,2.5c.83-1.16,7.81-6.77,6.5-8ZM413.26,159.98c0-.68-.55-1.24-1.24-1.24s-1.24.55-1.24,1.24.55,1.24,1.24,1.24,1.24-.55,1.24-1.24ZM405,160l-6,4.5,3.5-1.5,2.5-3ZM367,161c-1.93-.49-2.34,1.21-3.5,2-1.64,1.13-2.77,1.53-4.5,3.5-.99,1.13-2.39,1.66-2,3.5.28.29,4.74-3.44,5.5-4,.22-.16.79.16,1,0,.82-.61,4.47-4.07,3.5-5ZM414,165h2.5l1.5-1.5-3.5-2.5-1.5,1.5,1,2.5ZM269.5,162l-25.5,22.5c1.31.62,2.55-1.77,3.5-2.5.22-.17.81.16,1,0,1.41-1.14,2.59-2.88,4-4,4.35-3.46,8.92-6.67,13-10,.79-.65,1.86-1.71,2.5-2.5s2.02-2.46,1.5-3.5ZM407,165l-.5-2c-2.6,3.05-6.49,4.19-8.5,8,3.94-.22,5.36-6.05,9-6ZM460,175c.39-1.84-1.01-2.38-2-3.5-1.96-2.22-3.4-3.88-5-6-.63-.83-3.08-3.36-4-2.5,1.71,3.3,3.64,6.66,6.5,9,.19.16.79-.17,1,0,.67.52,3.08,3.48,3.5,3ZM310,169c2.3-.75,2.74-3.02,4-4.5l-.5-.5c-1.37,1.66-3.82,2.76-3.5,5ZM430.5,164l-1,1,4.75,4.75,1-1-4.75-4.75ZM240.25,165.25l-4.75,4.75,1,1,4.75-4.75-1-1ZM351,169c.65-1.25-1.6-3.5-2-3-.65,1.25,1.6,3.5,2,3ZM410,169l-.5-3-7.5,7.5,3.5-1.5c1.55-1.16,2.35-3.43,4.5-3ZM419.5,166l-1.5,1.5.5.5,1.5-1.5-.5-.5ZM456,178l-8.5-8-3.5-1.5c2.65,3,5.54,5.22,8.5,7.5,1.16.89,1.59,2.44,3.5,2ZM320.5,169l-3.5,3.5.5.5,3.5-3.5-.5-.5ZM345,169l-3,2.5-2,5.5,5-4.5v-3.5ZM384.5,169c-.65,0-.65,1,0,1s.65-1,0-1ZM241.25,169.25l-4.5,4.5,1,1,4.5-4.5-1-1ZM332.5,170c-.65,0-.65,1,0,1s.65-1,0-1ZM373,170c-1.84-.39-2.38,1.01-3.5,2-1.84,1.62-4.05,3.17-5.5,5,1.93.49,2.34-1.2,3.5-2,.24-.16.8.15,1,0,1.52-1.13,3.47-3.35,4.5-5ZM422.5,170c-3.59,1.08-.06,5.76,2,7l2.5-3.5c-1.15-.81-3.04-3.94-4.5-3.5ZM451,178c-1.21-2.06-3.27-3.84-5-5.5-.69-.66-2-2.76-3-2,2.5,2.38,4.02,7.07,8,7.5ZM243,219c-1.61,2.6-3.18,4.97-5.5,7-15.35,13.4-31.66,26.42-47,39-2.86,2.35-5.7,5.05-8.5,7.5l5.5-2.5c36.93-25.46,70.8-52.26,106-81,1.24-1.02,2.27-2.43,3.5-3.5l-1-3,1-2,7.5-5.5,1-4c-.83,1.51-2.51,1.72-3.5,2.5-2.63,2.07-4.87,5.39-7.5,7.5-4.72,3.79-11.23,7.14-16,11-11.12,9-20.99,20.91-32,30-1.42,1.17-2.6,2.78-4,4l-.5-4.5,8-8c-1.8-1.69-3.87,2.37-5.5,3.5-2.21.1-3.42,1.9-5,3-19.58,13.57-36.36,29.87-55,44-3.2,2.43-6.49,5.73-11,5l-6.5,8c.75.7,4.62-2.46,5.5-3,23.75-14.51,44.2-37.37,67-53,1.16-.79,1.57-2.49,3.5-2ZM337,179l2.5-8c-1.47,2.05-3.69,2.83-5.5,4.5l3,3.5ZM139,253l3.5-2,65-61,17.5-17.5-6.5,3.5c-25.91,19.3-47.46,42.73-69.5,66.5-3.28,3.53-7.17,6.57-10,10.5ZM353.5,172c-.65,0-.65,1,0,1s.65-1,0-1ZM463.5,172c-.76,1,1.34,2.31,2,3,3.21,3.35,6.61,6.84,10,10,.18.17.82-.17,1,0,2.59,2.4,4.95,5.06,7.5,7.5.69.66,2,2.76,3,2l-23.5-22.5ZM233.5,173l-19.5,18.5c1,.76,2.31-1.34,3-2,1.19-1.13,2.27-2.42,3.5-3.5.19-.17.82.16,1,0,3.35-2.98,6.87-6.73,10-10,.66-.69,2.76-2,2-3ZM323,176c1.9.39,2.67-1.3,4-2.5l-.5-.5-3.5,2v1ZM347,175v-2l-2,1.5v.5h2ZM407,181c2.18-1.76,9.54-4.69,5.5-8l-6.5,4.5,1,3.5ZM376,174c-2.23-.33-3.06,1.89-4.5,3-.22.17-.81-.16-1,0-.81.66-4.5,4.04-3.5,5,1.93.49,2.34-1.21,3.5-2,.24-.16.79.15,1,0,.91-.67,5.48-4.99,4.5-6ZM419.18,173.79l-2.06,1.24,3.49,5.81,2.06-1.24-3.49-5.81ZM438.5,174l-.5.5,2.5,2.5.5-.5-2.5-2.5ZM268.5,175l-2.5,2.5.5.5,2.5-2.5-.5-.5ZM348.5,176l-1.5,1.5.5.5,1.5-1.5-.5-.5ZM390.5,176c-.65,0-.65,1,0,1s.65-1,0-1ZM278.5,177l-16.5,14.5c1.31.62,2.55-1.77,3.5-2.5.22-.17.81.16,1,0,2.25-1.82,4.29-4.5,6.5-6.5,1.28-1.16,2.32-1.52,3.5-2.5.63-.52,2.76-2.1,2-3ZM257.5,178l-1.5,1.5.5.5,1.5-1.5-.5-.5ZM284.5,178l-10,7-8.5,7.5,3.5-1.5c2.06-1.46,4.09-3.55,6-5,1.16-.88,3.6-2.42,5-3l4-5ZM323,190l3.5-2c3.35-3.82,10.15-5.08,4-10-3.96,3.17-5.09,7.6-7.5,12ZM410,184l4.5,2c3.4-3.01,5.3-4.73,1-8-1.48,2.62-5.68,2.82-5.5,6ZM429.5,178l-2.5,3.5c1.32,1.57,1.65,4.34,4.5,3.5.5-.15,2.76-2.46,2.5-3.5l-4.5-3.5ZM304,181v-2l-4,3.5.5.5,3.5-2ZM387,180h-2l1.5,2h.5v-2ZM464,189c.19.19,1.03-.26,1.5,0,.68.38,1.28,1.53,2,2,.8.53,2.45,2.09,3.5,1.5-3.3-3-6.16-6.56-9.5-9.5-1.13-.99-1.66-2.39-3.5-2l2,4c3-.9,3.72,3.72,4,4ZM237,182c-1.24-1.09-4.5,3.18-5.5,4-.2.17-.81-.16-1,0-.64.54-4.88,4.65-4.5,5l7.5-5,3.5-4ZM252.5,182l-6,4-8.5,7.5c1.05.58,2.7-.96,3.5-1.5,1.83-1.24,3.91-3.62,6-4l5-6ZM267.5,182l-3.5,3.5.5.5,3.5-3.5-.5-.5ZM398.5,182l-2,2,3,3,2-2-3-3ZM380.5,183c-1.75,2.29-8.03,3.67-4,7,2.16-1.58,7.79-4.15,4-7ZM427,188c.62-.7-1.92-6.07-4-5-.55,1.94,1.3,2.34,2,3.5.54.89-.58,2.34,2,1.5ZM468.75,182.25l-1.5,1.5,3.25,3.25,1.5-1.5-3.25-3.25ZM457.5,184l-.5.5,2.5,2.5.5-.5-2.5-2.5ZM322,185l-6.5,4c-1.41,2.49-8.93,6.42-9.5,8.5-.39,1.41.26,3.86,0,5.5,4.47-3.27,9.13-5.32,13-9.5l3-8.5ZM391.62,185.53l-1.62.97,2.6,4.34,1.62-.97-2.6-4.34ZM350,190c1.9.39,2.67-1.3,4-2.5l-.5-.5c-1.01,1.27-3.13.98-3.5,3ZM422,187c-2.24-.27-4.49.87-6,2.5l3.5,2.5,3.5-2.5-1-2.5ZM391,194c.51-2.61-1.42-5.08-4-5,.26,2.2,1.35,5.35,4,5ZM352,194l4-3.5-.5-.5c-1.57,1.4-3.96,1.39-3.5,4ZM405,193c.4.5,2.65-1.75,2-3-.4-.5-2.65,1.75-2,3ZM441.75,189.75l-4.5,4.5,1,1,4.5-4.5-1-1ZM503,216c-1.4-2.15-3.58-4.29-5.5-6-6.22-5.52-13.41-11.91-20-17-1.44-1.11-2.27-3.33-4.5-3,2.04,2.4,5.02,6.25,7.5,8,.32.22,1.56.03,2.5,1.5,3.93,6.15,10.17,10.55,15.5,15.5l4.5,1ZM383.5,191l-2.5,2.5,4.5,3.5.5-4.5-2.5-1.5ZM447.5,191l-.5.5,1.5,1.5.5-.5-1.5-1.5ZM343,196l4-3.5-.5-.5c-1.14,1.13-1.78,2.37-3.5,2v2ZM366,197h2.5l1.5-1.5-1.5-2.5c-1.2,1.33-2.89,2.1-2.5,4ZM403,194h-2v1h2v-1ZM411,194c-1.9-.29-3.29,1.1-3,3h3v-3ZM443,197c1.9.29,3.29-1.1,3-3l-3,3ZM301.5,195l-1.5,1.5.5.5,1.5-1.5-.5-.5ZM383,198c-.22-1.33-3.17-3.83-4-3v2l4,1ZM424,198l3-2.5-.5-.5c-.71.98-1.29,1.2-2.5,1v2ZM452,198c.65-1.25-1.6-3.5-2-3-.65,1.25,1.6,3.5,2,3ZM459.5,195l-.5.5,1.5,1.5.5-.5-1.5-1.5ZM349,196c-1.9-.39-2.67,1.3-4,2.5l.5.5c1.01-1.27,3.13-.98,3.5-3ZM236,197c-3.71.47-6.53,3.87-9.5,6-.63.45-3.42,1.56-4,2-1.58,1.2-2.93,3.2-4.5,4.5l4.5-1.5,7-5,6.5-6ZM330.5,197c-.65,0-.65,1,0,1s.65-1,0-1ZM328.5,198l-3.5,3.5.5.5,3.5-3.5-.5-.5ZM364,198c-.81-.81-9.03,3.44-4.5,6,.78-.98,5.68-4.83,4.5-6ZM240,246l6.5-4c1.06-.89,1.93-2.18,3-3,15.24-11.7,30.84-24.56,46-36,.83-.63,3.37-3.09,2.5-4l-25.5,19-32.5,28ZM373.5,199c-3.1.93-3.73,6.82,1,6,1.17-1.31,3.64-1.15,3.5-3.5-1.26-1.2-2.36-3.14-4.5-2.5ZM398,199c-2.4-.37-4.24.48-4,3,.17.2,4.82-2.34,4-3ZM404.5,199c-.65,0-.65,1,0,1s.65-1,0-1ZM471.5,199l-1,1,5.75,5.75,1-1-5.75-5.75ZM287.5,200l-8,6-18.5,13.5,5.5-2.5,14-10,7-7ZM304,200c-2.2-.36-3.06,1.89-4.5,3-8.99,6.91-19.7,14.74-28,22-1.59,1.39-2.94,3.08-4.5,4.5l24.5-16.5c1.94-1.3,5.08-2.67,7-4,1.54-1.06,2.33-3.47,4.5-3l1-6ZM449,200c-3.05.14-5.07,2.47-7,4.5l2.5,3.5,3-4,1.5-4ZM334.5,201l-6,5-5,3-3.5,3.5,11.5-7.5,3-4ZM429.5,201c-.65,0-.65,1,0,1s.65-1,0-1ZM494.5,201l2,3,12,12,3.5,1.5c-5.58-6.11-11.66-11.02-17.5-16.5ZM211,223c2.23.33,3.06-1.89,4.5-3,3.38-2.61,7.71-5.3,11-8,1.76-1.44,3.26-3.49,5-5,.19-.17.81.16,1,0,1.59-1.39,2.94-3.08,4.5-4.5-1.04-.53-2.72.89-3.5,1.5-1.07.84-1.94,2.1-3,3-1.83-.02-2.73,1.99-4,3-3.72,2.96-8.12,5.74-12,9-.56.47-3.88,3.65-3.5,4ZM402,205l-1.5-3c-1.71,1.38-4.72,2.08-4.5,5l6-2ZM456,205s-.18.83.5,1l2.5-2h-2v-2h-3v1.5c.31.79,1.52,1.15,2,1.5ZM392.26,203.98c0-.68-.55-1.24-1.24-1.24s-1.24.55-1.24,1.24.55,1.24,1.24,1.24,1.24-.55,1.24-1.24ZM434.43,202.04l-3.46,2.07,1.24,2.06,3.46-2.07-1.24-2.06ZM357,206c-.86-2.53-1.52-1.59-3.5-1l-6.5,7,10-6ZM367.5,204l-3.5,3.5,2.5,3.5,4.5-3.5c-1.05-.84-1.58-4.14-3.5-3.5ZM418.5,204c-.65,0-.65,1,0,1s.65-1,0-1ZM451.5,206c-1.28,1.17-6.98,5.88-3,7,2.65.75,4.71-3.14,6.5-4.5l-3.5-2.5ZM469,214c1.27-1.3-5.54-6.69-6.5-8l-3.5,4.5,4,6.5,6-3ZM228,216c2.23.33,3.06-1.89,4.5-3,.22-.17.8.16,1,0,1.93-1.55,3.59-3.86,5.5-5.5l-4.5,2.5-6.5,6ZM314.5,207l-6.5,4.5,3.5-1.5,3-3ZM395,208h-2v1h2v-1ZM423,210v-2l-2,1.5v.5h2ZM437,209c-.12,3.26,3.03,4.2,5,1.5l-1.5-2.5-3.5,1ZM385,209l-3.5,2-1.5,3,5-5ZM412.5,209c-.65,0-.65,1,0,1s.65-1,0-1ZM360.5,210c-1.74,1.58-3.24,3.46-5,5-.18.15-.78-.17-1,0-.78.63-1.88,1.72-2.5,2.5-1.02,1.28-.88,2.13.5,2.5,2.58.7,2.91-1.97,5-2l6.5-5.5-3.5-2.5ZM425,212v-2h-1v2h1ZM482.5,210l-.5.5,2.5,2.5.5-.5-2.5-2.5ZM323,215c2.24.32,3.34-2.13,5-3.5l-.5-.5c-1.22,2-3.87,1.81-4.5,4ZM384,217c1.05,1.07,6.06-3.84,5-5-1.83,1.64-5.3,2.15-5,5ZM410,212h-2v2l2-2ZM415,213c-1.02.92,3.08,6.35,5,2.5.29-1.02-1.23-2.52-2-3-1.07-.67-1.4.97-3,.5ZM438,214c.5-.4-1.75-2.65-3-2-.5.4,1.75,2.65,3,2ZM459,220c-.59.95-1.05,1.82-2,2.5v.5c2.24.32,3.34-2.13,5-3.5l-2-.5,1-2.5c-1.61-1.41-2.34-2.17-3-4-.85-2.35-6.54,2.3-6,4l4.5,4.5,2.5-1ZM444,217l3-1.5-2.5-2.5-1.5,1.5,1,2.5ZM306,214c-3.72.47-6.52,3.88-9.5,6-19.19,13.66-38.16,29.07-57,44-2.55,2.03-5.1,4.89-8,6l-9.5,8.5,23.5-16.5c16.66-16.65,37.47-29.71,56-44l4.5-4ZM343,214c-2.67-.48-1.6.53-2.5,2-.6.98-2.01,1.19-1.5,3,.34.39,5.04-3.84,4-5ZM376.5,214c-1.05,1.23-2.52,2.27-3.5,3.5-1.26,1.59-.97,1.03.5,2.5,2.16-1.55,6.62-3.19,3-6ZM407.26,214.98c0-.68-.55-1.24-1.24-1.24s-1.24.55-1.24,1.24.55,1.24,1.24,1.24,1.24-.55,1.24-1.24ZM480,215l-2.5-1-.5.5,3,2.5v-2ZM317,220c1.83-1.64,5.3-2.15,5-5-1.83,1.64-5.3,2.15-5,5ZM387,220c2.24.32,3.34-2.13,5-3.5l-.5-.5c-1.22,2-3.87,1.81-4.5,4ZM411,219c-.53-.23-1.14-.32-1.5-1l-1.5,1.5,3,2.5c.07-.98-.13-2.03,0-3,.53.23,1.14.32,1.5,1h1.5l-1-4-2,1.5c-.16.41.07,1,0,1.5ZM429.75,215.25l-1.5,1.5,3.25,3.25,1.5-1.5-3.25-3.25ZM442,219c.65-1.25-1.6-3.5-2-3-.65,1.25,1.6,3.5,2,3ZM477,220l-3.5-4c-1.44,1.99-6.26,4.69-5.5,7.5,1.67,1.87.98,1.4,2.5.5s2.71-2.09,4-3c.86-.6.93-1.41,2.5-1ZM194,229l5.5-3,9.5-8.5-3.5,1.5-11.5,10ZM449,217.5l-2,2,4.5,4.5,2-2-4.5-4.5ZM191.5,219c-3.78,2.1-6.4,5.59-9.5,8.5l3.5-1.5c1.31-1.35,2.7-2.64,4-4,.66-.69,2.76-2,2-3ZM335.5,219l-13,11-8.5,6.5,11.5-7.5,10-10ZM381,219c-1.76-.31-3.29,1.36-4,3,1.76.31,3.29-1.36,4-3ZM248,234c.19-.19,1.03.26,1.5,0l15.5-13.5-16.5,11.5c-11.78,12.09-25.26,20.34-38,31-1.94,1.62-3.59,3.81-5.5,5.5l15.5-10.5c9.59-7.91,19.29-15.79,27.5-24ZM285.5,220l-11,8-27.5,22.5,3.5-1.5,30-23,5-6ZM346,225c1.9.39,2.67-1.3,4-2.5l-1.5-2.5c-1.71,1.57-3.01,2.5-2.5,5ZM427.72,222.82c0-1.59-1.29-2.88-2.88-2.88s-2.88,1.29-2.88,2.88,1.29,2.88,2.88,2.88,2.88-1.29,2.88-2.88ZM506,223l-3-3c-.29,1.9,1.1,3.29,3,3ZM514,220l9.5,10,3.5,1.5c-3.29-3.01-6.16-6.55-9.5-9.5-1.12-.99-1.66-2.39-3.5-2ZM315,221c-1.38-.09-2.82.81-4,1.5-12.49,7.27-22.95,17.9-34.5,26.5-3.02,2.25-7.18,3.98-10,7l-32.5,24.5c1.05.58,2.7-.96,3.5-1.5,1.59-1.08,3.5-2.71,5-4l10-6,57-42,5.5-6ZM399,221c-1.93-.49-2.34,1.2-3.5,2-.24.17-.8-.15-1,0-.83.63-3.37,3.09-2.5,4l3.5-2,3.5-4ZM380,226c2.24.32,3.34-2.13,5-3.5l-.5-.5c-1.22,2-3.87,1.81-4.5,4ZM435.5,222c-.65,0-.65,1,0,1s.65-1,0-1ZM445,222c-.39,1.9,1.3,2.67,2.5,4l.5-.5c-1.27-1.01-.98-3.13-3-3.5ZM480,222l-4,1.5-4,4.5c2.22.33,3.07-1.88,4.5-3,.21-.16.8.16,1,0,.51-.41,2.88-2.68,2.5-3ZM498,224v-2h-1v2h1ZM371,224c-1.93-.49-2.34,1.2-3.5,2-.24.16-.8-.15-1,0-1.52,1.13-3.47,3.35-4.5,5,1.84.39,2.38-1.01,3.5-2,1.84-1.62,4.05-3.17,5.5-5ZM397,232c.76.76,6.03-3.28,7-4.5l-2.5-3.5-6.5,4,.5,2h1.5v2ZM455.5,224l-1.5,1.5.5.5,1.5-1.5-.5-.5ZM502,227c.29-1.9-1.1-3.29-3-3l3,3ZM507.5,224c-.65,0-.65,1,0,1s.65-1,0-1ZM418.75,224.25l-1.5,1.5,3.25,3.25,1.5-1.5-3.25-3.25ZM433,225c-1.9-.39-2.67,1.3-4,2.5l.5.5c1.01-1.27,3.13-.98,3.5-3ZM466.25,224.25l-3.25,3.25,1.5,1.5,3.25-3.25-1.5-1.5ZM481.5,225c-1.11.32-4.93,5.52-6.5,6.5l4.5,5.5c1.15-2.32,7.06-5.02,7.5-6.5.72-2.42-2.19-3.93-3.5-5.5-.65.12-1.41-.17-2,0ZM513,227l-3.5-2-.5.5c1.33,1.2,2.1,2.89,4,2.5v-1ZM442.5,227l-.5.5,2.5,2.5.5-.5-2.5-2.5ZM205.5,228l-2.5,2.5.5.5,2.5-2.5-.5-.5ZM245,308l3.5,1c.31-.02.56-.79,1-1,3.89-1.82,6.62-4.64,10-7,25.59-17.86,52.83-39.22,77-61,4.01-3.62,7.54-7.83,11.5-11.5l-9.5,6.5c-30.21,21.97-58.76,46.41-89,68l-4.5,5ZM377.5,228l-9.5,7.5c1.04.53,2.72-.89,3.5-1.5,1.27-.99,2.16-3.02,4-3l2-3ZM386,231c1.9.29,3.29-1.1,3-3l-3,3ZM338,229c-.84-.95-15.09,11.91-16.5,13-14.88,11.56-30.95,21.9-46,33-1.07.79-1.94,2.23-3,3-.22.16-.78-.16-1,0-1.43,1.03-3.01,2.43-4.5,3.5l4.5-1.5c1.49-1.27,3.42-2.94,5-4,.23-.16.77.15,1,0,1.06-.72,1.95-2.29,3-3,13.39-9.02,26.3-17.57,39-27,2.61-1.94,4.83-4.43,8-6,2.94-1.56,6.64-4.22,9-7,1.21-1.43,1.95-1.7,1.5-4ZM355,229c-1.21-1.12-4.51,3.21-5.5,4-.2.16-.79-.16-1,0-1.41,1.12-2.59,2.86-4,4-4,3.23-8.99,6.62-13,10-2.14,1.8-4.49,4.03-6.5,6l8.5-5,4-3,17.5-16ZM461,231v-2l-2,1.5v.5h2ZM470,229c-2.4-.37-4.24.48-4,3,.17.2,4.82-2.34,4-3ZM508,231l-2-2v2h2ZM514.5,229l-.5.5,4.5,4.5.5-.5-4.5-4.5ZM241,287c2.43.25,3.87-1.92,5.5-3,16.54-10.97,30.78-23.26,47-36,.21-.16.58-.11,1,0l20.5-17.5c-1.05-.58-2.7.96-3.5,1.5-1.58,1.07-3.43,2.87-5,4-16.22,11.67-33.1,24.14-49,37-.2.16-.58.11-1,0l-15.5,14ZM416,233c.29-1.9-1.1-3.29-3-3l3,3ZM388,233c-.78.74,1.78,3.78,2.5,4,3.36,1.01,6.36-4.02,2-6l-4.5,2ZM409,231l-5.5,2-2.5,3,4-1.5,4-3.5ZM196.5,232c-2.05,1.42-4.12,3.61-6,5-7.82,5.76-17.38,12.03-24,20-.97,1.16-1.64,2.29-2.5,3.5l5.5-2.5,8-9,1,1c1.13,0,15.52-13.27,16.5-14.5.62-.78,2.03-2.46,1.5-3.5ZM361,233c-3.11-.48-5.37,2.55-7.5,4-2.99,2.03-7.29,4.69-10,7s-4.91,5.19-7.5,7.5l8.5-4.5,16.5-14ZM439.6,232.34l-4.26,2.56.88,1.47,4.26-2.56-.88-1.47ZM464.26,233.98c0-.68-.55-1.24-1.24-1.24s-1.24.55-1.24,1.24.55,1.24,1.24,1.24,1.24-.55,1.24-1.24ZM543,233c-4.99-.45,1.09,4.75,2.5,6,1.12.99,1.66,2.39,3.5,2-1.31-3.02-5.82-4.54-6-8ZM412,234c-1.94-.69-8.34,4.62-7,6,2.53-1.78,5.56-3.07,7-6ZM428,234h-2l1.5,2h.5v-2ZM471,234c-1.02.91,2.71,4.37,3.5,5,1.28,1.02,2.13.88,2.5-.5.16-1.85-4.51-5.84-6-4.5ZM493,234c-2.24-.51-2.65,2.23-4.5,2l-4.5,5,4-1.5,5-5.5ZM514,237v-2h-1v2h1ZM259.5,236l-44,30-23.5,23.5,23.5-16.5c13.21-10.86,26.6-22.12,40-32l4-5ZM439,240c2.24.32,3.34-2.13,5-3.5l-.5-.5c-1.48,1.26-3.75,1.7-4.5,4ZM384,242l3.5-2c1.81-2.84-3.31-4.26-4.5-1.5l1,3.5ZM398.25,236.25l-3.75,3.75,1.5,1.5,3.75-3.75-1.5-1.5ZM473,242c.39-.38-4.62-5.39-5-5-.84,2.98,1.61,1.38,2,2.5.6,1.71.79,2.82,3,2.5ZM423,238h-2l1.5,2h.5v-2ZM318.5,239l-56,40-19.5,16.5,6.5-3.5,8-7,59-43,2-3ZM365,239c-3.42.29-5.86,3.2-8.5,5-20.82,14.23-40.96,31.17-61,47-.93.74-3.52,2.33-5,3l-13.5,11.5,3.5-1.5,8-7c2.3-.59,4.23-2.71,6-4,15.45-11.3,31.84-22.19,47-34,1.35-1.05,2.28-3.13,4-3l19.5-17ZM381,240c-.82-.94-4.03,2.25-4.5,3-1.8,2.85,3.31,4.26,4.5,1.5v-4.5ZM497.5,240l-6.5,5.5,2.5,3.5c1.58-.22,7.5-4.76,7.5-5.5-1.05-.84-1.58-4.14-3.5-3.5ZM420,241l-4,1.5-4,4.5,4-1.5,4-4.5ZM449.5,241c-.65,0-.65,1,0,1s.65-1,0-1ZM169.5,242l-2.5,2.5.5.5,2.5-2.5-.5-.5ZM402.43,241.04l-4.63,2.78.88,1.47,4.63-2.78-.88-1.47ZM483,245c.13-2.29-1.35-3.97-3-1.5l5,1.5h-2ZM525,242c.63,2.19,3.28,2,4.5,4l.5-.5c-1.66-1.37-2.76-3.82-5-3.5ZM528,246l-6-3c.82,1.29,3.37,4.44,4.5,5,1.51.74,1.83-.78,1.5-2ZM391.5,244c-.65,0-.65,1,0,1s.65-1,0-1ZM429,246l-2-2v2h2ZM464,248l-3.5-4-.5.5c1.4,1.57,1.39,3.96,4,3.5ZM381,249l2.5,3,6.5-6.5-4,1c-1.18,1.32-3.13,2.45-5,2.5ZM451.5,245c-.65,0-.65,1,0,1s.65-1,0-1ZM524,249l-4-4c-.2,2.06,1.94,4.2,4,4ZM372.5,246c-1.58.73-2.79,2.18-4,3-7.61,5.14-14.89,11.65-22,18-1.93,1.72-3.6,3.75-5.5,5.5l8.5-3.5c6.79-4.72,14.72-9.73,21-15,1.94-1.62,3.59-3.81,5.5-5.5l-3.5-2.5ZM394.5,246c-.65,0-.65,1,0,1s.65-1,0-1ZM418,252c3.29.44,5.36-3.02,8-4.5l-3.5-.5-4.5,5ZM392.5,247l-1.5,1.5.5.5,1.5-1.5-.5-.5ZM477.5,247c-.65,0-.65,1,0,1s.65-1,0-1ZM406,252c2.06.2,4.2-1.94,4-4l-4,4ZM457,248l-4,1.5,4.5,4.5,2.5-1.5c-1.28-1.5-3.37-2.43-3-4.5ZM489,247.5l-2,2,3,3,2-2-3-3ZM506.5,248l-2.5,2.5.5.5,2.5-2.5-.5-.5ZM520,252c-.75-2.3-3.02-2.74-4.5-4l-.5.5c1.66,1.37,2.76,3.82,5,3.5ZM502,249c-.82-.69-5.8,2.36-5,3l5-2v-1ZM533,250h-3.5l-1.5,2h3.5l1.5-2ZM386,256c2.38.53,2.6-.45,4-1.5,1.72-1.28,3.6-2.33,5-4l-4.5,2.5c-1.5.39-3.98,1.12-4.5,3ZM367,261l8.5-4,4.5-4.5c-1.9-2.31-1.4-1.18-3,0-2.04,1.51-4.68,3.04-6.5,4.5-1.22.98-2.81,2.58-3.5,4ZM425,259c3.03.73,3.68-1.6,5.5-3,.22-.17.81.15,1,0,.83-.68,4.48-4.01,3.5-5-1.71.64-2.17,2.62-4.5,2l-5.5,6ZM451,250.5l-2,2,4.5,4.5,2-2-4.5-4.5ZM502.5,251c-.65,0-.65,1,0,1s.65-1,0-1ZM513,253l-.5-2-2.5,2.5-2,6.5c1.93.49,2.34-1.21,3.5-2,.24-.16.79.15,1,0,1.23-.9,2.27-2.5,3.5-3.5l-3-1.5ZM333.5,252c-4.32,2.22-7.33,6.1-11,9-4.68,3.69-10.49,7.16-15,11-2.62,2.23-4.91,5.19-7.5,7.5l5.5-2.5c2.88-3.13,5.87-5.34,9-8,.19-.16.57-.11,1,0l18-17ZM486,255l-1.5-3-.5.5,1,2.5h1ZM532,254l3-1.5-.5-.5-2.5,1v1ZM188.5,253c-.65,0-.65,1,0,1s.65-1,0-1ZM263.5,253l-27,19-13.5,10.5,26.5-17.5,4-4,8-5,2-3ZM186.5,254l-2.5,2.5.5.5,2.5-2.5-.5-.5ZM403,254l-5.5,3c-1.55,1.12-2.34,3.45-4.5,3v2c-5.12,1.67-10.09,5.64-14.5,9-1.41,1.07-2.6,2.84-4,4l-22,16-10.5,9.5,12.5-9.5,37-27,11.5-10ZM417.6,253.34l-5.81,3.49.88,1.47,5.81-3.49-.88-1.47ZM438,256l-.5-2-8.5,6.5,5.5-2.5,3.5-2ZM470,257c-.71-1.64-2.24-3.31-4-3,.71,1.64,2.24,3.31,4,3ZM495,254h-2v2l2-2ZM524,254h-2v2l2-2ZM540,255h-2v2l2-2ZM461,257c1.21,1.94,3.71,5.87,6,2.5l-2.5-3.5-3.5,1ZM385,257c-3.39-.89-3.96,2.78-6.5,3l-13.5,11.5,7.5-4.5,9-6,3.5-4ZM491,257h-2v1h2v-1ZM519,257l-4,1.5-3,3.5,4-1.5,3-3.5ZM446,262l-4.5-4c-3.48,2.45-7.25,4.12-9.5,8l4.5,1,2-2,7.5-3ZM528,258h-3v.5l1.5,1.5h1.5v-2ZM555,258l3.5,5,3.5,1.5-7-6.5ZM207.5,259l-4.5,3.5.5.5,4.5-3.5-.5-.5ZM410,262l-1.5-3-23,17-21.5,18,10.5-6c9.79-8.21,20.76-15.56,31-23,1.46-1.06,2.29-3.4,4.5-3ZM462,264c.95-.95-2.58-4.56-4-5-.51,2.61,1.42,5.08,4,5ZM424,260c-2.61-.51-5.08,1.42-5,4,2.2-.26,5.35-1.35,5-4ZM504.87,261.77c0-1.16-.94-2.1-2.1-2.1s-2.1.94-2.1,2.1.94,2.1,2.1,2.1,2.1-.94,2.1-2.1ZM159,261c-2.78,1.94-5.17,4.56-7.5,7-.66.69-2.76,2-2,3,4.08-2.3,8.81-4.82,9.5-10ZM470.5,261l-2.5,2.5.5.5,2.5-2.5-.5-.5ZM552,268c-1.05-1.81-2.92-3.62-4.5-5-1.13-.99-1.66-2.39-3.5-2l.5,3c2.32,1.3,4.42,3.75,7.5,4ZM347.5,262c-.65,0-.65,1,0,1s.65-1,0-1ZM475.5,262l-5.5,4.5,3.5-1.5,2-3ZM521.5,262c-1.25,1.18-2.98,1.38-4,3-.84,1.33-.03,2.71,1,3,2.47.7,3.93-2.2,5.5-3.5l-2.5-2.5ZM496,263l2.5,4,2.5-1.5-5-2.5ZM510,264l-4,1v1l4-1v-1ZM329,282c.19-.19-.26-1.03,0-1.5.91-1.63,8.07-8.27,10-10,.85-.76,2.72-.98,3.5-2.5l2-3-33,25-6.5,6.5,12.5-6.5c2.27-3.1,9.56-6.06,11.5-8ZM417,265c-1.33-1.19-5.82,4.64-7,5.5l3.5-1.5,3.5-4ZM451.5,265l-9.5,8.5,2.5,3.5c4.62-1.47,7.64-5.84,11.5-8.5l-4.5-3.5ZM480,265l-3.5,2-2.5,3c1.24.08,6.65-4.42,6-5ZM167,289l10.5-6,20.5-16.5-26.5,17.5-4.5,5ZM546,269c-.71-1.64-2.24-3.31-4-3,.71,1.64,2.24,3.31,4,3ZM563.75,265.25l-1,1,5.5,5.5,1-1-5.5-5.5ZM433,268l-3.5-1-2.5,4,3,.5c1.65-.74,3.34-1.2,3-3.5ZM504,269v-2c-1.18.31-1.49,1.42-3,1v1h3ZM517,269l-3.5-1-1.5,2.5,1.5,1.5,3.5-1v-2ZM472.5,269l-1.5,1.5.5.5,1.5-1.5-.5-.5ZM359,270c-1.66-.48-3.5,1.73-4.5,2-.85.23-2.15-.23-3,0-1.45.4-11.16,7.58-13,9s-3.99,3.27-5.5,5l9.5-4,16.5-12ZM165.5,271c-.65,0-.65,1,0,1s.65-1,0-1ZM427,275c.44-2.7-2.04-2.63-3.5-4l-53.5,41.5,8.5-3.5c15.69-10.04,29.81-19.99,44-31,1.45-1.12,2.32-3.36,4.5-3ZM440.5,271c-.65,0-.65,1,0,1s.65-1,0-1ZM477,275c2.2-.14,4.29-2.24,6-3.5-1.05-.62-2.71,1.03-3.5,1.5-.59.35-2.47.29-2.5,2ZM527,277c3.05-.14,5.07-2.47,7-4.5l-3.5-.5-3.5,5ZM543,273c.5-.4-1.75-2.65-3-2-.5.4,1.75,2.65,3,2ZM548,271c.15,3.06,2.44,5.03,4.5,7l4.5-2.5c.74-2.23-7.04-5.26-9-4.5ZM511,273l-3.5-1-1.5,2.5,1.5,1.5,3.5-1v-2ZM434,276c1.9.29,3.29-1.1,3-3l-3,3ZM571.5,273l-.5.5,3.5,3.5.5-.5-3.5-3.5ZM106,283c4.85-.61,7.5-5.55,11-8.5l-3.5,1.5c-2.21,2.89-5.83,3.55-7.5,7ZM490,274c-3.44-.25-6.4,2.14-8,5,2.98-.65,6.67-2.17,8-5ZM461.5,275c-1.67,1.87-3.45,3.54-6,4l-4.5,4.5c2.45,3.1,2.71.71,4.5-.5,1.24-.84,3.84-2.14,5-3,1.98-1.47,3.73-3.14,1-5ZM517.5,275l-1.5,1.5.5.5,1.5-1.5-.5-.5ZM538,275c-3.21-.56-5.43,2.74-7,5,3.02-.27,5.58-2.42,7-5ZM125.5,276l-18,15-3.5,4.5,5.5-3.5,16-16ZM256,312c1.26-.47,2.38-1.25,3.5-2,7.95-5.37,14.53-13.85,23-18l10-8,1.5.5-1-1,7-7-36.5,27.5-7.5,8ZM440,275.5l-3,3,3,3,3-3-3-3ZM545,276l3.5,4,.5-.5c-1.4-1.57-1.39-3.96-4-3.5ZM492,279l-.5-2-5,3-2.5,3c3.57.17,5.06-3.97,8-4ZM161,278c-2.23-.33-3.06,1.89-4.5,3-.22.17-.8-.16-1,0-3.76,3.02-7.66,7.36-11.5,10.5l5.5-2.5,11.5-11ZM432,278l-6.5,4-17.5,16.5,3.5-1.5c3.45-3.18,6.5-6.87,10-10,.19-.17.81.17,1,0,2.06-1.85,3.91-4.28,6-6,.19-.16.79.17,1,0,.52-.41,2.87-2.66,2.5-3ZM522,279l1.5,3,2.5-2.5-1.5-1.5-2.5,1ZM570.5,278l-.5.5,4.5,4.5.5-.5-4.5-4.5ZM363.5,279l-40,28-22.5,17.5,13.5-7.5,46-34,3-4ZM541.5,279l-3.5,4.5,5.5,3.5,3.5-3.5-5.5-4.5ZM570,287c.38-1.54-.34-1.63-1-2.5-1.43-1.88-4.03-4.11-6-5.5.34,2.15-1.82,3.08-3,4.5l5.5,5.5,4.5-2ZM434.5,280l-19.5,16.5,10.5-5.5,12.5-8.5-3.5-2.5ZM490,285l1.5,3,3-2,4.5-4.5-3.5-.5c-1.78,1.15-2.93,4.31-5.5,4ZM297.5,281l-1.5,1.5.5.5,1.5-1.5-.5-.5ZM582,283c.5-.4-1.75-2.65-3-2-.5.4,1.75,2.65,3,2ZM516,282v2.5l3.5,1.5,1.5-1.5c-1.56-1.71-2.5-3.01-5-2.5ZM529.5,282l-1.5,1.5.5.5,1.5-1.5-.5-.5ZM140.5,283l-5,3-10.5,9.5c1.04.53,2.72-.89,3.5-1.5,1.68-1.31,2.93-3.89,5-4l7-7ZM395,283c-4.84.77-7.91,4.52-11.5,7-17.91,12.38-35.6,26.61-53,40-1.41,1.08-2.6,2.83-4,4l-7,4-4.5,4.5,28.5-19.5,29-21,22.5-19ZM451,287l-1.5-3-2.5,1,1.5,3,2.5-1ZM458.5,284l-1.5,1.5.5.5,1.5-1.5-.5-.5ZM471.5,284l-1.5,1.5.5.5,1.5-1.5-.5-.5ZM578,284h-2v1h2v-1ZM585,286l-2-2v2h2ZM193,285c-1.93-.49-2.34,1.2-3.5,2-4.64,3.19-10.58,7.3-15,11-1.23,1.03-2.81,2.55-3.5,4l5.5-2,7-5,9.5-10ZM268.5,285l-19,13-10.5,8.5,5.5-2.5,22-16,2-3ZM103,286c-2.83.09-4.5,3.32-6.5,5-18.01,15.08-34.66,30.79-52,47-1.12,1.05-9.46,9.1-8.5,10,1.84.39,2.37-1.01,3.5-2,18.79-16.54,37.49-34.87,56-52,2.64-2.44,5.37-5.1,7.5-8ZM238.5,286c-.65,0-.65,1,0,1s.65-1,0-1ZM368,286l-11.5,7c-9.38,7.97-19.31,14.75-29,22-1.06.79-1.94,2.13-3,3l-21.5,15.5,8.5-3.5,20-14,36.5-30ZM468.5,286l-2.5,2.5.5.5,2.5-2.5-.5-.5ZM465,296l-5-1c-1.4,1.24,4.77,7.36,5,1l3.5-1,9.5-6.5-2.5-2.5-11.5,7.5,1,2.5ZM524.5,286l-1.5,1.5.5.5,1.5-1.5-.5-.5ZM582,288l-3.5-2-.5.5,4,3.5v-2ZM236.5,287c-.65,0-.65,1,0,1s.65-1,0-1ZM586.75,286.25l-1,1,6.5,6.5,1-1-6.5-6.5ZM291.5,288l-3,3-7.5,5.5,3.5-1.5,4-3,3-4ZM308,288l-6,4.5,3.5-1.5,2.5-3ZM394.5,288l-15,11-17.5,15.5,30.5-23.5,2-3ZM442,291h2.5l1.5-1.5-2.5-1.5-1.5,3ZM451.5,288c-.65,0-.65,1,0,1s.65-1,0-1ZM507,295c2.37-.09,4.36-1.62,6-3.5l-3.5-3.5c-1.38,1.18-3.55,1.8-4.5,3.5-.26.47.19,1.3,0,1.5-.11.12-2.51-.14-3,1.5l2.5,3.5,2.5-1v-2ZM533.5,288c-2.69,1.16-.67,4.52,1,5,2.54.74,4.02-.76,5.5-2.5l-2.5-2.5h-4ZM569,292c2.01-.17,1.77,1.24,4,.5,1.21-.4,2.2-.96,3-2l-2.5-2.5h-1l-3.5,4ZM155,294l6-4.5-3.5,1.5-2.5,3ZM325.5,289l-10,6-17.5,14.5,10.5-5.5,12-10,5-5ZM322,297l4.5-2,7.5-5.5-4.5,1.5-7.5,6ZM464.5,289l-1.5,1.5.5.5,1.5-1.5-.5-.5ZM166.5,290c-4.79,3-9.73,5.41-13.5,9.5l5.5-2.5,8-7ZM499.5,290l-1.5,1.5.5.5,1.5-1.5-.5-.5ZM553,290l-3,1.5.5.5,2.5-1v-1ZM172,291c-2.69-.39-3.27,3.12-5.5,3l-4.5,4c1.27.06,2.99-.79,4-1.5,1.74-1.22,4.37-3.91,6-5.5ZM437.5,292c-.56.17-2.14,2.33-3,3-1.08.84-3.66,2.44-5,3l-18.5,14.5,5.5-2.5,13-9,10.5-7.5c-.74-.67-1.32-1.86-2.5-1.5ZM484,292c-2.23-.34-3.06,1.89-4.5,3-.22.17-.81-.16-1,0-.56.45-3.88,3.67-3.5,4l4.5-2,4.5-5ZM528,292c-1.33,1.48,2.7,7.5,5,3.5l-5-3.5ZM557,295l-1.5-3h-2.5l-1,2.5,1.5,1.5,3.5-1ZM120.5,293c-3.78,2.1-6.4,5.59-9.5,8.5l4.5-3.5h1l4-5ZM371.5,293c-3.87,3.62-9.06,5.43-12.5,9.5l10.5-6.5,2-3ZM589,295c.5-.4-1.75-2.65-3-2-.5.4,1.75,2.65,3,2ZM289,305c2.72.16,4.35-2.63,6.5-3l8.5-7.5-5.5,2.5-9.5,8ZM407.5,294l-13,9c-2.18,2.48-4.55,4.09-7,6-.21.16-.58.11-1,0l-19.5,16.5,5.5-2.5,33-26,2-3ZM494.5,294c-.65,0-.65,1,0,1s.65-1,0-1ZM568.5,294l-.5.5,1.5,1.5.5-.5-1.5-1.5ZM578.5,294l-3.5,2.5,1.5,2.5,3.5-2.5-1.5-2.5ZM231,295c-3.1.18-5.31,2.48-7.5,4-.23.16-.79-.15-1,0-1.23.9-2.27,2.5-3.5,3.5l5.5-2.5,6.5-5ZM545.5,295l-1.5,1.5.5.5,1.5-1.5-.5-.5ZM604,304c.39-1.84-1.01-2.38-2-3.5-1.97-2.23-4.16-4.45-7-5.5-.99,1.06,3.59,5.26,4.5,6,.19.16.79-.17,1,0,.67.52,3.08,3.48,3.5,3ZM422,296c-2.06.03-3.73,1.98-5.5,3-.25.15-.75-.14-1,0-.7.41-1.29,1.57-2,2-21.78,13.2-41.86,27.39-61,44l-18.5,14,17.5-11c21.51-14.56,42.01-30,62-45,1.36-1.02,2.26-3.14,4-3l4.5-4ZM556,299c2.4.37,4.24-.48,4-3-.17-.2-4.82,2.34-4,3ZM153,297c-1.93-.49-2.34,1.2-3.5,2-.24.16-.8-.15-1,0-1.86,1.37-4.12,4.07-5.5,6,1.93.49,2.34-1.2,3.5-2,.24-.16.8.15,1,0,1.86-1.37,4.12-4.07,5.5-6ZM309.5,297c-.65,0-.65,1,0,1s.65-1,0-1ZM450.5,297l-32,20-16.5,13.5,15.5-10.5c8.84-5.99,18.72-12.08,28-18l5-5ZM457.5,297c-2.88,1.68-5.29,4.1-8,6-27,18.93-53.15,40.62-79,61-5,3.94-11.23,8.21-16,12-1.58,1.26-2.93,3.16-4.5,4.5l8.5-4.5c32.94-22.18,64.65-47.99,97-71,1.83-1.3,3.38-3.33,5.5-4.5l-3.5-3.5ZM499,296.5l-2,2,3,3,2-2-3-3ZM544,302c1.72.28,3.05-1.3,4-2.5,1.26-1.59.97-1.03-.5-2.5l-3.5,5ZM307.5,298l-9,5c-4.55,4.51-11.36,6.49-16,10-.83.63-2.82,2.4-2.5,3.5,1.22,1.34,1.13,1.73,3,1,3.14-1.23,4.94-4.34,7.5-6.5,1.07-.9,3.87-1.98,5-4l7-4,5-5ZM489.5,298l-36,27-41.5,33.5,8.5-4.5c15.68-13.9,32.35-26.09,49-39,.21-.16.58-.11,1,0l17-14,2-3ZM572.5,298c-.65,0-.65,1,0,1s.65-1,0-1ZM582,300v-2h-1v2h1ZM523,301l-.5-1c-2.39-.61-4.99,2.14-2.5,3l-4,4c1.93.5,2.34-1.22,3.5-2,1.23-.83,1.12-.55,2.5-2,.22-.23.94-.96,1-1,.31-.21,2.3.14,3-1.5l-2-1.5v1.5c-.25.68-.77.4-1,.5ZM406.5,300l-1.5,1.5.5.5,1.5-1.5-.5-.5ZM473.22,298.96l-44.24,33.18,1.2,1.6,44.24-33.18-1.2-1.6ZM497,302l-3.5-2-21.5,18.5,6.5-2.5,15-10,3.5-4ZM541,300c-1.9-.29-3.29,1.1-3,3l4,1-1-4ZM564,300c-1.25-.65-3.5,1.6-3,2,1.25.65,3.5-1.6,3-2ZM194.5,301c-.65,0-.65,1,0,1s.65-1,0-1ZM318.5,301c-4.79,3-9.73,5.41-13.5,9.5l5.5-2.5,3-2,5-5ZM340.5,301l-2.5,2.5.5.5,2.5-2.5-.5-.5ZM554,301c-2.61-.51-5.08,1.42-5,4,2.2-.26,5.35-1.35,5-4ZM180,312l4.5-2,8.5-7.5-3.5,1.5c-1.06.85-1.95,2.24-3,3-.22.16-.78-.16-1,0-1.11.8-2.33,1.51-3,2-.61.44-2.85,2.69-2.5,3ZM506,302h-2v2l2-2ZM323.5,303l-8,5-6.5,5.5,9.5-5.5,5-5ZM569,307c.39-1.9-1.3-2.67-2.5-4l-2.5,1.5c1.57,1.71,2.5,3.01,5,2.5ZM146,310l5.5-2,3.5-3.5-4.5,1.5-4.5,4ZM517,304l-3,1.5.5.5,2.5-1v-1ZM588.5,304c-3.9,1.15.15,8.92,4.5,2.5-1.27-1.21-2.35-3.13-4.5-2.5ZM627.5,304c-2.01.59-1.22,3.29-1.5,4.5-.15.64-1.65,1.63-1,4,.08.31,3.76,3.87,4.5,4.5,6.05,5.16,13.13,10.66,19,16,2.78,2.53,5.25,5.43,8,8l-17.5-26.5c-3.08-2.97-4.93-6.74-8.5-9.5-.98-.76-1.42-1.46-3-1ZM350.5,305l-5.5,4.5,3.5-1.5,2-3ZM536,305c-1.76-1.5-6.8,4.07-8.5,4l-4.5,5c1.38.09,2.82-.81,4-1.5,1.27-.74,5.15-4.39,5.5-4.5,1.61-.52,3.8.26,3.5-3ZM553,309l4-3.5-.5-.5c-1.14,1.13-1.78,2.37-3.5,2v2ZM606.5,305c-.65,0-.65,1,0,1s.65-1,0-1ZM275.5,306l-1.5,1.5.5.5,1.5-1.5-.5-.5ZM501,306c-1.27-.06-2.99.79-4,1.5-4.93,3.47-8.94,7.4-14.5,9.5l-26.5,18.5,10.5-5.5c.71-.53,1.32-1.59,2-2,.48-.29,2.53-.71,3-1,8.24-5.07,16.65-10.53,24-16,1.8-1.34,3.99-3.31,5.5-5ZM547.26,306.98c0-.68-.55-1.24-1.24-1.24s-1.24.55-1.24,1.24.55,1.24,1.24,1.24,1.24-.55,1.24-1.24ZM512.26,307.98c0-.68-.55-1.24-1.24-1.24s-1.24.55-1.24,1.24.55,1.24,1.24,1.24,1.24-.55,1.24-1.24ZM100,308c-1.9-.39-2.67,1.3-4,2.5l.5.5c1.01-1.27,3.13-.98,3.5-3ZM193,319l4.5-2,11.5-8.5-4.5,1.5-11.5,9ZM254.5,308l-1.5,1.5.5.5,1.5-1.5-.5-.5ZM559.5,308l-6.5,5.5,4.5,3.5,6.5-5.5-4.5-3.5ZM216.5,309c-.65,0-.65,1,0,1s.65-1,0-1ZM245,311l-1.5-2h-1.5v2h3ZM513.5,309c-.65,0-.65,1,0,1s.65-1,0-1ZM124,317c1.93.49,2.34-1.2,3.5-2,.24-.16.8.15,1,0,.86-.63,4.42-4,3.5-5-1,.64-8.8,6.3-8,7ZM160.5,310c-.65,0-.65,1,0,1s.65-1,0-1ZM214.5,310c-1.07,1.34-2.58,2.14-4,3-1.12.68-2.72,1.61-4,2l-6.5,6.5,10.5-6.5,4-5ZM312,365c2.7-2.03,4.94-4.1,7.5-6,14.88-11.03,30.4-23.49,45-35,2.56-2.02,5.1-4.9,8-6l8.5-7.5-9.5,4.5c-16.4,10.08-30.31,21.34-45,33-5.63,4.46-7.78,5.42-11.5,11.5-1.06,1.73-2.94,3.47-3,5.5ZM303,395c2.6-.17,4.65-2.72,6.5-4,28.03-19.43,55.38-40.59,83-61l29.5-19.5-7.5,3.5-19,12c-29.67,22.17-59.11,42.05-88,64-1.54,1.17-3.46,3.33-4.5,5ZM586,312l-2-2v2h2ZM594,315l-.5-5c-2.99,2.22-3.65,4.65.5,5ZM611,311l2.5,1,.5-.5-3-1.5v1ZM303.5,311c-.65,0-.65,1,0,1s.65-1,0-1ZM507,311c-2.28-.39-3.04,2-4.5,3-16.55,11.41-32.23,24-49,36-16.75,11.98-32.97,24.89-49,37-1.69,1.28-1.68,2.18-4,3-1.11.39.11,2.89-1.5,3.5l18.5-12.5c24.48-20.5,48.77-38.98,75-58,3.05-2.21,7.09-4.55,10-7,.64-.54,4.88-4.65,4.5-5ZM540.5,311l-8.5,6.5,6.5-3.5,2-3ZM597,311c.13,1.88-.74,10.01,1.5,10,1.23-1.45,6.18-2.24,5.5-4.5-.08-.26-2.91-3.05-3.5-3.5-.19-.15-.76.17-1,0-.83-.57-1.39-1.94-2.5-2ZM113,319h1.5l7.5-6.5-5.5,2.5c-1.34,2.68-8.87,6.56-9.5,8.5-.3.93-.27,3.4,1.5,2.5,1.87-1.89,4.21-4.59,4.5-7ZM346.5,312l-21,14c-7.96,6.85-15.74,12.77-24,18-1.49.94-1.3,2.49-2.5,3.5l17.5-11.5c7.62-6.92,15.45-12.34,24-18l6-6ZM178,315v-2l-4,3.5.5.5,3.5-2ZM243,313h-7.5l-7.5,8.5c2.76,3.78,3.96-1.47,6.5-1.5l8.5-7ZM464.5,313l-1.5,1.5.5.5,1.5-1.5-.5-.5ZM509,315v-2l-2,1.5v.5h2ZM546,313c-1.27-1.11-4.48,3.22-5.5,4-.21.16-.79-.16-1,0-1.81,1.39-3.99,3.28-5.5,5l8.5-5,3.5-4ZM581,316c-.22-1.33-3.17-3.83-4-3v3h4ZM152.5,314c-.65,0-.65,1,0,1s.65-1,0-1ZM298,314l-7.5,4-4.5,4,7.5-4,4.5-4ZM307.5,314l-1.5,1.5.5.5,1.5-1.5-.5-.5ZM102.5,315c-3.07,2.15-6.08,3.58-8.5,6.5l5.5-2.5,3-4ZM250.5,315l-1.5,1.5.5.5,1.5-1.5-.5-.5ZM276,317v-2c-3.9,1.85-7.04,4.2-10,7.5l8.5-5.5h1.5ZM360.5,315c-.65,0-.65,1,0,1s.65-1,0-1ZM521,315h-2l1.5,2h.5v-2ZM554,320c.36-3.09-3.14-2.83-4.5-5-2.05,1.43-4.11,3.6-6,5-1.24.92-2.53,1.78-4,3-.25.21-3.1.5-2.5,2.5,1.44,1.43,2.28,2.99,4.5,2.5l8-6,4.5-2ZM246,316l-8.5,5-4.5,5c.73.69,8.45-6.19,9.5-7,.21-.16.8.16,1,0,.52-.41,2.88-2.67,2.5-3ZM304.5,316l-1.5,1.5.5.5,1.5-1.5-.5-.5ZM460.5,316l-25,17c-20.12,16.6-42.64,30.82-63,47-1.58,1.26-2.93,3.16-4.5,4.5l5.5-3.5c22.35-13.41,42.76-29.15,63-45,2.96-2.32,6.15-5.46,9-8l13-9,2-3ZM91.5,317l-3.5,3.5.5.5,3.5-3.5-.5-.5ZM185,319v-2l-3,2.5.5.5,2.5-1ZM227,317c-1.9-.29-3.29,1.1-3,3l3-3ZM78.5,318l-2.5,2.5.5.5,2.5-2.5-.5-.5ZM134,318c-1.9-.29-3.29,1.1-3,3l3-3ZM171,320v-2h-1v2h1ZM263,331c1.6,1.51,9.42-7.24,11.5-7l4.5-4.5-3.5-.5c-3.02,3.45-7.47,5.21-10.5,8.5-1.02,1.11-2.38,1.68-2,3.5ZM517,318c-1.93-.49-2.34,1.2-3.5,2-2.8,1.92-6.03,3.74-9,6-1.81,1.37-3.99,3.29-5.5,5l12.5-7,5.5-6ZM194,323c2.24.32,3.34-2.13,5-3.5l-.5-.5c-1.22,2-3.87,1.81-4.5,4ZM588,322l-1.5-3h-2.5l1.5,3h2.5ZM119,320c-1.76-.31-3.29,1.36-4,3,1.76.31,3.29-1.36,4-3ZM246,320h-2v1h2v-1ZM128,321c-1.94-.55-2.34,1.3-3.5,2-.89.54-2.34-.58-1.5,2l4-1,1-3ZM135,321c-2.05-.39-2.71,1.48-4,2.5-1.12.89-2.28-.12-2,1.5,1.93.48,2.34-1.19,3.5-2,.43-.3,2.52-.3,2.5-2ZM154.5,321c-.76,1.26-3.12,1.41-4,2-1.73,1.16-4.13,3.58-6,5-.21.16-.78-.16-1,0-1.23.9-2.27,2.5-3.5,3.5l4.5-2.5,8-5,2-3ZM572.5,321c-.65,0-.65,1,0,1s.65-1,0-1ZM85.5,322c-.65,0-.65,1,0,1s.65-1,0-1ZM222,326h2.5l1.5-1.5-1.5-2.5-2.5,4ZM242.5,322c-.65,0-.65,1,0,1s.65-1,0-1ZM298,332l13-9.5-5.5,2.5-3,2-4.5,5ZM158,327c2.06.2,4.2-1.94,4-4l-4,4ZM178,323c-2.24-.32-3.34,2.13-5,3.5l.5.5c1.22-2,3.87-1.81,4.5-4ZM219,323c-1.93-.49-2.34,1.2-3.5,2-.24.16-.79-.15-1,0-1.23.9-2.27,2.5-3.5,3.5l3.5-1.5,4.5-4ZM497.5,323l-29,20-27.5,22.5c1.05.58,2.7-.96,3.5-1.5,1.88-1.28,3.64-3.43,6-4l9-8,33-24,5-5ZM518.5,323c-1.51.63-2.77,2.25-4,3-.47.28-2.59.73-3,1-5.56,3.71-11.52,9.84-17,14s-11.49,8.12-17,12l-26.5,21.5,23.5-16.5c13.43-8.02,25.33-19.79,38-29l6-6ZM532.5,323c-.65,0-.65,1,0,1s.65-1,0-1ZM73,324l-3,1.5.5.5,2.5-1v-1ZM615,325c-1.71.31-2.62-.21-4-1v2h4v-1ZM436,345l6.5-3,22.5-16.5-15.5,8.5-13.5,11ZM595,327l-1.5-2h-1.5v2h3ZM604.5,325c-.65,0-.65,1,0,1s.65-1,0-1ZM191,326c-.83-.83-3.78,1.67-4,3,2.4.37,4.24-.48,4-3ZM236.5,326c-.65,0-.65,1,0,1s.65-1,0-1ZM260.5,326l-5.5,4.5,3.5-1.5,2-3ZM534,326l3.5,4,.5-.5c-1.4-1.57-1.39-3.96-4-3.5ZM609,329c.29-1.9-1.1-3.29-3-3-.29,1.9,1.1,3.29,3,3ZM103.5,327l-1.5,1.5.5.5,1.5-1.5-.5-.5ZM217,332l.5-5-10,7-4.5,4.5,3.5.5c2.83-1.6,6.46-5.59,9-7,.47-.26,1.31.19,1.5,0ZM230,329l1-2-3,1.5,2,.5-1,1.5,3-.5v-1h-2ZM324,343c1.93.49,2.34-1.2,3.5-2,3.8-2.61,8.39-5.51,12-8,.72-.5,1.28-1.51,2-2,.23-.16.77.15,1,0,1.38-.95,3.03-2.48,4.5-3.5l-6.5,2.5c-3.45,3.5-8.61,5.42-12,8-1.54,1.17-3.46,3.33-4.5,5ZM580,327l-6,2.5c1.94,3.96,6.28-2.26,6-2.5ZM531,328l-9.5,5-39,28-15,12-4.5,4,11.5-7,12-10,35-25,9.5-7ZM167.5,329l-1.5,1.5.5.5,1.5-1.5-.5-.5ZM409.5,329l-1.5,1.5.5.5,1.5-1.5-.5-.5ZM583.5,329l-5.5,4.5,2.5,2.5c2.85-.93,5.6-2.2,7.5-4.5l-2.5-2.5h-2ZM598.5,329c-.65,0-.65,1,0,1s.65-1,0-1ZM611.5,329c-.65,0-.65,1,0,1s.65-1,0-1ZM182.5,330c-1.8.42-2.2,3.88,0,5l4.5-3.5c-1.07-1.57-2.77-1.9-4.5-1.5ZM264,337c2.23.34,3.06-1.9,4.5-3,.22-.17.81.15,1,0,1.25-1.02,2.27-2.43,3.5-3.5l-5.5,2.5-3.5,4ZM536,331c-1.91.4-2.13-1.69-4-.5-1.55.98-3.02,2.47-4.5,3.5-11.04,7.68-23.05,16.08-34,24-1.78,1.29-4,3.35-5.5,5,2.57-.03,4.61-2.86,6.5-4,13.49-8.09,26.8-15.3,39-25,.89-.71,2.16-1.9,2.5-3ZM628.5,330c-.65,0-.65,1,0,1s.65-1,0-1ZM147,337c2.14-1.78,6.02-2.67,6-6-2.56,1.59-6.8,1.85-6,6ZM574,333c.5-.4-1.75-2.65-3-2-.5.4,1.75,2.65,3,2ZM616,331h-1.5l-1.5,1.5,1.5,1.5,1.5-1.5v-1.5ZM131.5,332l-2.5,2.5.5.5,2.5-2.5-.5-.5ZM227.5,332c-.65,0-.65,1,0,1s.65-1,0-1ZM261,332c-1.57-1.31-6.5,2.76-6,5,1.15,1.15,6.36-4.7,6-5ZM405.5,332l-2.5,2.5.5.5,2.5-2.5-.5-.5ZM564.5,332c-.65,0-.65,1,0,1s.65-1,0-1ZM606,332h-2v1h2v-1ZM626,334l-2-2v2h2ZM643,343l-8.5-9c-1.85.23-2.26-2.51-4.5-2,2.53,2.78,6.04,7.42,9,9.5,1.01.71,2.73,1.56,4,1.5ZM113,333c-1.9-.29-3.29,1.1-3,3l3-3ZM223,336c.4.5,2.65-1.75,2-3-.4-.5-2.65,1.75-2,3ZM294,333c-3.03-.56-4.57,1.62-6.5,3-.22.16-.79-.16-1,0-.87.64-2.17,1.94-2.5,3,3.96-.12,8.1-2.61,10-6ZM563,333c-1.98-.55-2.38,1.36-3.5,2-1.25.71-4.04.81-4.5,3l4-1.5,4-3.5ZM548,350c1.97-.92,3.84-2.9,5.5-4,3.69-2.44,7.71-4.99,12-7l4.5-4.5c-1.71-2.02-1.52-1.72-3.5-.5-4.19,2.58-7.83,6.42-12,9l-6.5,7ZM586,338l7-4.5-4.5,1.5-2.5,3ZM603,333h-1.5l-1.5,2h3v-2ZM75.96,333.93l-5.44,3.26.88,1.47,5.44-3.26-.88-1.47ZM135,336v-2l-3,2.5.5.5,2.5-1ZM307.5,334c-2.98,2.08-6.17,3.66-8.5,6.5l3.5-1.5,5-5ZM427.5,334l-2.5,2.5.5.5,2.5-2.5-.5-.5ZM619,333.5l-2.5,2.5,4,4,2.5-2.5-4-4ZM178,335l-4.5,2c-1.58,1.46-2.76,3.67-2.5,6l7.5-5-.5-3ZM217,341c2.74-1.18,3.42-3.16,3-6-2.41.44-1.62,2.4-2,3.5-.2.57-1.53.85-1,2.5ZM318,398c1.95.52,2.34-1.26,3.5-2,8.7-5.56,15.33-9.42,24-16,15.92-12.08,32.54-24.31,48-37,2.86-2.35,5.7-5.05,8.5-7.5l-34.5,23.5c-14.63,10.6-30.58,21.35-44,33-1.92,1.67-4.1,3.87-5.5,6ZM56,342c1.18,1.11,6.33-3.94,5-6-.91.73-2.76.8-3,1.5-.52,1.5-1.16,2.99-2,4.5ZM83.5,336c-.65,0-.65,1,0,1s.65-1,0-1ZM211,341c1.55.3,2.67-.88,3.5-2,.38-.52,1.54-2.38,1-3-1.05.78-1.99,2.38-3,3-.88.54-2.35-.58-1.5,2ZM462.5,336c-.65,0-.65,1,0,1s.65-1,0-1ZM570,342c1.74.71,8.87-.89,8-3.5l-2.5-2.5c-2.07,1.5-5.49,2.91-5.5,6ZM638,344l-5.5-6-3.5-1.5,5,6c-.54,2.53,2.15,1.28,4,1.5ZM96,339v-2h-1v2h1ZM131,337h-2v1h2v-1ZM139.45,336.82l-.68,4.05,2.19.36.68-4.05-2.19-.36ZM460.5,337l-1.5,1.5.5.5,1.5-1.5-.5-.5ZM594.5,337l-1.5,1.5.5.5,1.5-1.5-.5-.5ZM152,338c-2.24-.32-3.34,2.13-5,3.5l.5.5c1.48-1.26,3.75-1.7,4.5-4ZM166,338h-2v2l2-2ZM244,338l-3,1.5.5.5,2.5-1v-1ZM242,345c2.76.51,4.39-1.87,6.5-3l1.5-4-3.5,2-4.5,5ZM262,338c-.95-.88-7.69,3.42-7,6,1.93.49,2.34-1.2,3.5-2,.24-.17.8.15,1,0,1.19-.9,2.78-2.31,2.5-4ZM412,395l7.5-1,9-6,64.5-49.5-13.5,6.5c-21.19,14.11-40.22,30.73-61,44l-6.5,6ZM607.5,338l-1.5,1.5.5.5,1.5-1.5-.5-.5ZM456.82,338.05l-47.68,34.05,1.49,2.08,47.68-34.05-1.49-2.08ZM539.5,339l-21,14-28.5,22.5,8.5-4.5,39-29,2-3ZM93,342v-2l-2,1.5v.5h2ZM201,340c-2.25-.35-3.05,1.93-4.5,3-1.1.81-3.92,2.19-5,3-.83.63-3.36,3.08-2.5,4,3.6-2.62,7.47-3.97,10.5-7l1.5-3ZM613,340c-.39,1.9,1.3,2.67,2.5,4l2.5-1.5-1.5-2.5h-3.5ZM630,348l-1.5-4c-1.43-.78-1.92-4.6-4-4-3.72,1.07.86,5.01,2,6s1.65,2.39,3.5,2ZM112,341l-4.5,1-2.5,4,3.5-2,3.5-3ZM160.25,340.25l-4.5,4.5,1,1,4.5-4.5-1-1ZM281,341c-2.37-.47-4.03.82-5,3,1.21.48,5.77-2.38,5-3ZM553,341c-2.93-.35-5.16,1.76-7.5,3-3.82,2.02-8.61,4.58-12,7-1.37.98-2.25,3.17-4,3l-15.5,15.5,13.5-7.5c2.88-1.91,16.3-11.35,17.5-13.5.4-.72-.86-1.91,1.5-1.5l6.5-6ZM55,342c-1.9-.29-3.29,1.1-3,3l3-3ZM98,345c.4.5,2.65-1.75,2-3-.4-.5-2.65,1.75-2,3ZM296,344v-2l-2,1.5v.5h2ZM612,344l-1.5-2h-1.5v2h3ZM73,345v-2l-3,2.5.5.5,2.5-1ZM87,343h-2v1h2v-1ZM177.5,343l-4.5,3.5.5.5,4.5-3.5-.5-.5ZM213,345c-.34-3.13-7.9-2.39-8-.5l1,3.5,7-3ZM237,343c-2.72-.16-4.35,2.63-6.5,3l-3.5,4,5.5-3,4.5-4ZM56,351l5.5-7c-.57,1.73-3.37,1.85-3.5,2-.18.21.26,1.03,0,1.5-.63,1.13-2.56,1.53-2,3.5ZM155,354l9.5-6,.5-4c-3.91.9-5.43,5.68-9,6l-1,4ZM568,344c-1.25-.65-3.5,1.6-3,2,1.25.65,3.5-1.6,3-2ZM643.5,344c-.65,0-.65,1,0,1s.65-1,0-1ZM136,347v-2h-1v2h1ZM254.5,345c-.65,0-.65,1,0,1s.65-1,0-1ZM273,350l6-4.5-4,1-2,3.5ZM292,347v-2l-2.5,1-11.5,9,4.5-2,8-6h1.5ZM321,348l1-2.5-.5-.5-1.5,3h1ZM625,348c-.97-2.18-2.63-3.47-5-3v3h5ZM642,348l-6-3c-.28,1.49.9,2.81,2,3.5,1.88,1.18,2.09-.9,4-.5ZM240,346c-3.84.54-6.6,3.93-9.5,6-.22.16-.79-.16-1,0-.87.63-2.17,1.94-2.5,3,1.21,1.01,7.16-3.99,8.5-5,.21-.16.79.16,1,0,1.2-.9,2.81-2.63,3.5-4ZM245,348l1.5,3c1.71-1.57,3.01-2.5,2.5-5l-4,2ZM201,352c1.9.39,2.67-1.3,4-2.5l-3-2.5c.54,2.17-1.11,3.14-1,5ZM312,353c1.43-.73,2.94-1.17,4-2.5.62-.78,2.03-2.46,1.5-3.5-1.62,2.24-5.62,2.52-5.5,6ZM76,350v-2h-1v2h1ZM102.5,348c-.65,0-.65,1,0,1s.65-1,0-1ZM109.5,348c-.65,0-.65,1,0,1s.65-1,0-1ZM132,348h-2v1h2v-1ZM266,355c1.02,1.17,8.02-4.74,3.5-7-2.27,2.14-4.23,3.44-3.5,7ZM657.5,348l-.5.5,2.5,2.5.5-.5-2.5-2.5ZM146,349h-1.5l-1.5,1.5,1.5,1.5h1.5v-3ZM199,349c-1.95-.52-2.34,1.26-3.5,2-.24.15-.76-.15-1,0-1.32.84-3.06,2.54-4.5,3.5l3,1c3.15-.97,4.18-3.96,6-6.5ZM297,349c-2.24-.32-3.34,2.13-5,3.5l.5.5c1.22-2,3.87-1.81,4.5-4ZM667,364c.24-1.93.05-2.79-1.5-4-2.29-1.79-4.98-3.38-7-6l-7.5-4.5c1.51.83,1.72,2.51,2.5,3.5,2.45,3.1,6.18,5.12,7.5,7.5.65,1.18,5.19,4.31,6,3.5ZM555,352l3-1.5-.5-.5-2.5,1v1ZM648,350h-2.5l-1.5,1.5,2.5,1.5,1.5-3ZM227,365l10.5-7,5.5-5.5-3.5-.5c-3.63,3.06-7.36,5.71-11,8-1.95,1.23-1.55,2.97-1.5,5ZM301,389c1.93.49,2.34-1.21,3.5-2,5.51-3.78,10.49-7.89,16-12l31.5-23.5-13.5,7.5c-10.39,8.47-21.92,14.91-32,23-2.28,1.83-4.42,4.28-5.5,7ZM651,353v-2h-1v2h1ZM182,352l-4,3.5.5.5c1.57-1.4,3.96-1.39,3.5-4ZM223.5,352c-.65,0-.65,1,0,1s.65-1,0-1ZM643,352h-3v1h3v-1ZM46,353c-3.98-.25-6.98,2.92-9,6h6.5c1.58-1.46,2.76-3.67,2.5-6ZM64,353h-3v2h1.5l1.5-2ZM165.5,353l-1.5,1.5.5.5,1.5-1.5-.5-.5ZM366,375l5.5-2,23.5-19.5-14.5,9.5-14.5,12ZM556,356c1.9.39,2.67-1.3,4-2.5l-.5-.5c-1.01,1.27-3.13.98-3.5,3ZM48,358c1.1.26,5-1.75,5-2.5l-1.5-1.5-3.5,4ZM103.5,354c-.65,0-.65,1,0,1s.65-1,0-1ZM107,354h-2v1h2v-1ZM117,354h-2v1h2v-1ZM129,359c-.47-1.6,1.17-1.92.5-3-1.03-1.65-2.55-2.35-4.5-2l4,5ZM142,354l-3,1.5v1l1,2.5,2-1.5v-3.5ZM199,354c-1.25-.65-3.5,1.6-3,2,1.25.65,3.5-1.6,3-2ZM215,356l-.5-2-3.5,2v1l4-1ZM263,354c-.85-.89-9.98,4.84-11,6.5v4.5l10.5-7,.5-4ZM300.5,354c-.65,0-.65,1,0,1s.65-1,0-1ZM368.5,354l-20,13-15.5,12.5,14.5-9.5,17-12,4-4ZM513.5,354l-10,6c-5.51,5.27-12.37,9.21-18,14-2.62,2.23-4.91,5.19-7.5,7.5l12.5-8.5c3.93-4.7,9.37-7.54,14-11,1.28-.96,2.15-3.04,4-3l5-5ZM625,354h-2v1h2v-1ZM80.5,355c-.65,0-.65,1,0,1s.65-1,0-1ZM299,363c1.01,1.07,5.21-3.6,6-4.5.99-1.13,2.39-1.66,2-3.5-3.38,1.84-7.79,3.54-8,8ZM428.5,355c-.65,0-.65,1,0,1s.65-1,0-1ZM661,362c-1.66.37-2.01-.58-3-1.5-3.21-2.97-4.59-6.39-9.5-5.5-.44.08-3.76,2-4,2-.33,0-.62-.94-1-1-1.66-.28-3.75.19-5.5,0l2.5,2c5.7.49,11,2.07,16.5,3v2l4-1ZM58.5,356l-1.5,1.5.5.5,1.5-1.5-.5-.5ZM86,356h-3v2c1.18-.31,1.49-1.42,3-1v-1ZM94,357l5.5,2c1.82-2.24,5.57.43,7.5-2.5l-5.5-.5c-1.69,1.88-4.96.7-7.5,1ZM114,356c-2.4-.37-4.24.48-4,3l4-1v-2ZM397,378c1.93.49,2.34-1.2,3.5-2,1.02-.7,3-1.23,4-3l22.5-16.5-11.5,6.5c-4.78,4.84-10.95,7.99-16,12-.52.41-2.88,2.67-2.5,3ZM125,359c-1.21.2-1.79-.02-2.5-1l-4.5.5,6.5,2.5.5-2ZM188,357h-1.5l-1.5,1.5,1.5,1.5,1.5-1.5v-1.5ZM218.5,357c-.65,0-.65,1,0,1s.65-1,0-1ZM294.5,357l-1.5,1.5.5.5,1.5-1.5-.5-.5ZM667,359v-2h-1v2h1ZM158,358c-1.25-.65-3.5,1.6-3,2,1.25.65,3.5-1.6,3-2ZM192.5,358l-2.5,2.5.5.5,2.5-2.5-.5-.5ZM204,362c2.24.32,3.34-2.13,5-3.5l-.5-.5c-1.5,1.28-2.43,3.37-4.5,3v1ZM589,358h-4v1h4v-1ZM138,363c.37-2.4-.48-4.24-3-4l1,1.5-1,1,3,1.5ZM575,359c-2.33-.26-4.54.92-6,2.5v1c1.81,1.35,1.02,2.79,0,4.5,2.34.27,3.43-2.26,5-3.5l1-4.5ZM620,359h-26v1h26v-1ZM67.69,360.46l-.3,2.4,4.49.56.3-2.4-4.49-.56ZM169.5,360l-1.5,1.5.5.5,1.5-1.5-.5-.5ZM214,360h-2v2l2-2ZM226,372l4.5-2c1.54-1.36,3.34-2.81,5-4,.22-.16.78.16,1,0,2.03-1.45,4.43-3.89,6.5-5.5l-11.5,6.5-5.5,5ZM308,367c-.2-1.21.02-1.79,1-2.5l1.5-4.5-4.5,6.5,2,.5ZM46,361h-2.5l-3.5,3,4.5,1,4.5-1-3-1v-2ZM53,361h-2v1h2v-1ZM65,364c.17-4.24-6.17-4.24-6,0h6ZM79,364c-.03-3.97-3.97-3.97-4,0h4ZM106,364c.33-1.07-.68-2.78-1.5-3-3.4-.91-10.12.66-14,0l-2.5,3h18ZM125,362l-7-1-.5,2c-1.04-1.46-3.16-1.09-5-1-1.63.08-2.87.85-1.5,2,2.06-.22,4.55.32,6.5,0,.38-.06.67-1,1-1s.58.88,1,1c.59.17,1.35-.13,2,0l3.5-2ZM542,365l1-4c-5.69,3.02-10.58,6.82-15,11.5l7.5-3.5c1.37-1.07,3.65-3.25,5-4,.47-.26,1.31.19,1.5,0ZM682,366c-2.27.38-3.05-1.98-4.5-3-.22-.15-.77.16-1,0-1.16-.79-1.57-2.49-3.5-2l-1,5c1.75-.78,3.18.95,3.5,1,.93.14,2.01-.08,3,0,1.08.08,3.77.67,3.5-1ZM82,362h-2v1h2v-1ZM183,362h-3v4c1.5.32,2.06-.44,3-1.5v-2.5ZM560,362l-4.5,1-.5,3,5-4ZM642,364c-.77-2.66-4.51-2.3-6.5-2-.38.06-.64.96-1,1-2.71.29-5.74-.2-8.5,0l2.5,2c3.29-2.03,5.25.54,9,0,1.61-.23,2.59-1.51,4.5-1ZM647,362h-3v1h3v-1ZM650,362h-2v1h2v-1ZM27,366v-3h-1v3h1ZM37,364l-4-1v2h4v-1ZM226,366v-3h-1v3h1ZM567,369v-6h-1v6h1ZM622,363h-2v1h2v-1ZM125.5,364c-.65,0-.65,1,0,1s.65-1,0-1ZM136,367c.4.5,2.65-1.75,2-3-.4-.5-2.65,1.75-2,3ZM209,364h-2v1h2v-1ZM296.26,364.98c0-.68-.55-1.24-1.24-1.24s-1.24.55-1.24,1.24.55,1.24,1.24,1.24,1.24-.55,1.24-1.24ZM304.5,364c-.65,0-.65,1,0,1s.65-1,0-1ZM134,367l-2-2v2h2ZM248,368v-3h-1v3h1ZM274.5,365c-.65,0-.65,1,0,1s.65-1,0-1ZM489.5,365c-.65,0-.65,1,0,1s.65-1,0-1ZM464,406c.74.72,4.49-2.41,5.5-3,4.07-2.4,6.95-3.89,11-7,8.12-6.24,16.25-15.18,24-22,3.18-2.8,6.26-5.76,9.5-8.5l-16.5,10.5c-9.32,8.31-20.08,14.49-30,22-3.54,2.68-1.71,4.51-3.5,8ZM202,368l-.5-2c-2.74,2.43-8.21,2.58-8.5,7,3.68-.33,5.8-4.73,9-5ZM223,366h-2v3l2-1.5v-1.5ZM278,378c1.93-.42,3.15-2.06,4.5-3,2.23-1.55,5.88-3.4,8-5,.83-.63,3.36-3.08,2.5-4-1.93.42-3.15,2.06-4.5,3-2.23,1.55-5.88,3.4-8,5-.83.63-3.36,3.08-2.5,4ZM302,366c-3.99.24-4.4,3.73-4,7,1.96-.21,5.05-5.85,4-7ZM462,384l26-17.5-16.5,8.5c-1.45,2.04-4.36,2.79-6,4-.85.63-4.44,4.02-3.5,5ZM27,367h-2.5l-1.5,1.5c-1.05,7.97,5.21,5.93,10.5,6.5.37.04.64.97,1,1,3.72.3,7.74-.22,11.5,0l-2.5-2c-5.87-.1-10.95-3.43-16.5-5v-2ZM117.5,367c-.65,0-.65,1,0,1s.65-1,0-1ZM126,369v-2h-1v2h1ZM159.5,367c-.65,0-.65,1,0,1s.65-1,0-1ZM177,368l-5-1v4c1.22.3,2.04-.21,3-.5,1.78-.53,2.38-.27,2-2.5ZM270.5,367l-1.5,1.5.5.5,1.5-1.5-.5-.5ZM552,367h-2.5l-1.5,1.5,1.5,2.5c1.2-1.33,2.89-2.1,2.5-4ZM564,367c-3.57.22-5.62,3.2-8,5.5.89,1.15,1.99,1.98,3.5,1.5.4-.13.6-.87,1-1,1.1-.36,2.47.4,3.5-1.5v-4.5ZM586,367h-2v1h2v-1ZM209,368c-1.93-.48-2.34,1.19-3.5,2-.42.3-2.52.3-2.5,2,1.93.48,2.34-1.19,3.5-2,.42-.3,2.52-.3,2.5-2ZM240,372c1.5.32,2.06-.44,3-1.5v-2.5c-.62-.76-2.83,3.14-3,4ZM140,369c-1.95-.37-6.09.64-7,2.5-.74,1.52.78,1.83,2,1.5l2-2-1,6,4-1.5v-6.5ZM316.5,369c-3.54,2.3-6.72,4.21-9.5,7.5l6.5-3.5,3-4ZM127,372v-2h-1v2h1ZM168,370l-3,1.5-4,4.5c2.44.34,4.81-.41,6.5-2l.5-4ZM67.5,372h-27.5l9.5,1c4.21,1.71,10.91,2.73,16,2,.32-.05,1.75-1.78,3.5-1l-1.5-2ZM89,371h-5.5l-1.5,2h5.5l1.5-2ZM105,371h-4v1h4v-1ZM109,373v-2h-1v2h1ZM119,371h-2v1h2v-1ZM589,371l-5,1v1l5-1v-1ZM608,371h-4v1h4v-1ZM81,372l-7,.5c1.39,2.02,3.39,1.61,5.5,1.5,1.62-.08,2.87-.85,1.5-2ZM211,372c-1.93-.49-2.34,1.21-3.5,2-2.87,1.97-6.06,4.14-9,6-1.58,1-1.7,2.27-1.5,4,1.95.52,2.34-1.26,3.5-2,2.74-1.74,6.75-3.37,9-6,1.22-1.43,1.94-1.7,1.5-4ZM234,375c1.9.39,2.67-1.3,4-2.5l-.5-.5-3.5,2v1ZM266,372h-2v1h2v-1ZM293,372c-.87-.96-5.63,3.42-6.5,4-.7.47-3.41,1.55-4,2-2.49,1.9-5.29,4.61-4.5,8,4.45.29,6.95-3.91,10.5-5,2.3-2.64,4-5.52,4.5-9ZM583,372h-2v1h2v-1ZM603,372h-5v1h5v-1ZM647,372h-6v1l3.5,1,2.5-2ZM248,389c1.55.3,2.68-.88,3.5-2,.7-.96,1.1-2.92,1.5-3.5,1.82-2.63,5.12-5,7.5-6.5,1.58-1,1.7-2.27,1.5-4l-13,8.5c-1.11,2.37-1.16,4.62-1,7.5ZM295,375v-2h-1v2h1ZM509.5,373c-3.39,1.84-5.76,4.88-8.5,7.5l3.5-1.5,5-6ZM593.5,373c-.65,0-.65,1,0,1s.65-1,0-1ZM116,376c-.56-2.13-1.8-1.86-3.5-2-2.67-.22-6.21-.24-8.5.5l-5,.5c-.21,1.81,2.23.88,3.5,1,.98.09,2.03-.11,3,0,1.23.14,2.94,1.38,6,1,1.59-.2,2.55-1.52,4.5-1ZM183,380l7-4.5-3.5-.5-3.5,5ZM238.5,375l-4.5,4.5.5.5,4.5-4.5-.5-.5ZM522,389c2.42.34,3.9-2.06,5.5-3,2.85-1.67,6.57-3.16,9-5,1.81-1.37,3.36-3.66,3.5-6-.66-.74-8.65,6.36-9.5,7-.56.42-3.45,1.58-4,2-1.54,1.17-3.46,3.33-4.5,5ZM127,378v-2h-1v2h1ZM231,376c-2.24-.32-3.34,2.13-5,3.5l.5.5c1.48-1.26,3.75-1.7,4.5-4ZM525,376c-1.93-.49-2.34,1.2-3.5,2-.23.16-.78-.15-1,0-1.84,1.29-3.94,3.33-5.5,5,1.27.06,2.99-.79,4-1.5s2.73-1.89,3.5-2.5c.52-.41,2.88-2.67,2.5-3ZM564,376c-3.85-.31-8.01,1.18-7,5.5.09.39.92.62,1,1,.21,1.03-.13,2.38,0,3.5,5.08.78,4.81-4.65,3-8l3-2ZM134.5,377c-.65,0-.65,1,0,1s.65-1,0-1ZM365,377h-2v1h2v-1ZM434,394c2.3.45,2.57-.29,4-1.5,2.29-1.94,4.99-4.47,7.5-5.5l10.5-9.5c-1.31-.62-2.56,1.77-3.5,2.5-.2.16-.78-.17-1,0-1.07.79-1.94,2.25-3,3-3.45,2.44-8.17,4.57-12,7-.84.53-3.36,3.21-2.5,4ZM457,392l7.5-4,13.5-10.5-3.5,1.5-9,6-8.5,7ZM550,377c-1.5-.32-2.06.44-3,1.5v2.5c1.33-.22,3.83-3.17,3-4ZM150.5,378c-.65,0-.65,1,0,1s.65-1,0-1ZM191,382l-.5-4c-.79.99-5.67,4.83-4.5,6,2.43.4,2.74-2.53,5-2ZM390.5,378l-15,10-11.5,10.5,3.5-1.5c1.74-1.44,3.25-3.68,5-5,.57-.43,3.42-1.56,4-2,2.19-1.64,4.34-4.43,7-5l7-7ZM119,379c-1.73-.28-3.13.95-3,2.5l-6,8.5,9-4v-7ZM139,380l-4,1.5v11.5l3-2.5c.22-2.24-.31-4.85,0-7,.05-.32,1.78-1.75,1-3.5ZM155,383c.4.5,2.65-1.75,2-3-.4-.5-2.65,1.75-2,3ZM232,380c-.78-.73-6.85,2.54-6,5,.78.73,6.85-2.54,6-5ZM239.5,380c-.65,0-.65,1,0,1s.65-1,0-1ZM274,380c-1.9-.29-3.29,1.1-3,3,1.9.29,3.29-1.1,3-3ZM395,380c-2.47-.13-3.83,2.57-5.5,4-.17.15-.77-.18-1,0-1.19.9-2.78,2.31-2.5,4,.42.44,8.65-6.24,9-8ZM178,384v-3h-1v3h1ZM359,383v-2l-16.5,10-6.5,5.5,5.5-1.5c5.7-2.47,9.55-6.84,14-10,1.23-.87,1.61-2.5,3.5-2ZM484,412c1.38.09,2.82-.81,4-1.5,6.6-3.85,12.59-9.8,18.5-14.5l19.5-14.5-24.5,16.5-17.5,14ZM330.5,382c-3.52,3.14-7.53,4.72-10.5,8.5l3.5-1.5,7-7ZM554,389c1.72-.6,2.2-1.14,1.5-3-.55-1.44-.64-2.51-.5-4-1.66-.25-.95,1.35-1,2.5-.06,1.5.04,3.01,0,4.5ZM265,387c2.06.2,4.2-1.94,4-4l-4,4ZM127,389v-5h-1l-1,2.5,1,2.5h1ZM153,386v-2l-2,1.5v.5h2ZM184,386v-2h-1v2h1ZM217,386v-2l-3,2.5.5.5,2.5-1ZM374.5,384l-7,5-10.5,6.5,4.5-1.5,9-6,4-4ZM383,396l15-11.5c-1.04-.53-2.72.89-3.5,1.5-2.31,1.81-4.24,4.3-7,5l-4.5,5ZM173,385h-2c.11,1.86-1.54,2.83-1,5,2.18-.97,3.47-2.63,3-5ZM241,394l4-2.5v-6.5c-4.5,1.7-1.97,5.65-4,9ZM274,389v-4h-.5c-1.54,1.1-1.73,2.14-1.5,4h2ZM458,385c-.51-.53-7.31,5.13-8.5,5l-8.5,7.5,4.5-1.5c2.39-2.7,6.44-4.1,9-6,.85-.63,4.44-4.02,3.5-5ZM537.5,385c-.65,0-.65,1,0,1s.65-1,0-1ZM191,386c-1.93-.49-2.34,1.21-3.5,2-.24.16-.79-.15-1,0-1.9,1.4-5.11,4.12-2,6l5-4,1.5-4ZM223,389v-3h-1v3h1ZM549,386h-2v6l2-1.5v-4.5ZM166,387h-2v2l2-2ZM295.5,387l-1.5,1.5.5.5,1.5-1.5-.5-.5ZM332,395c1,.89,5.53-3.34,6.5-4,.23-.16.77.15,1,0,1.39-.95,3.03-2.48,4.5-3.5l-6.5,2.5-5.5,5ZM509.5,387l-9.5,7.5,3.5-1.5,4-3,2-3ZM176.76,387.44l-1.09,4.35,2.24.56,1.09-4.35-2.24-.56ZM215,394c2.74-1.18,3.42-3.16,3-6-2.74,1.18-3.42,3.16-3,6ZM270,388c-1.93-.49-2.34,1.21-3.5,2-.24.17-.8-.15-1,0-2.25,1.7-2.92,3.13-2.5,6,1.93.49,2.34-1.21,3.5-2,.24-.17.8.15,1,0,2.25-1.7,2.92-3.13,2.5-6ZM209.5,389l-1.5,1.5.5.5,1.5-1.5-.5-.5ZM260,389c-.35-.4-2.45,1.91-3,2.5s-2.4,1.69-1.5,2.5c1.38-2.18,4.88-1.93,4.5-5ZM562,389c-4.12-.22-3.94,6.05-1.5,8l1.5-8ZM164,390c-3.28-.61-3.83,1.38-5,4,1.06.91,4.5-2.56,5-4ZM239,390c-1.93-.49-2.34,1.21-3.5,2s-3.11,2.5-4,3c-.47.26-1.31-.19-1.5,0s-1.39,3.67-2,4.5l-2,3.5,12-6,1-7ZM297,392v-2h-1v2h1ZM126.5,391c-.65,0-.65,1,0,1s.65-1,0-1ZM154.5,391c-.65,0-.65,1,0,1s.65-1,0-1ZM166,393v-2l-2,1.5v.5h2ZM452,401l4.5-2,8.5-7.5-3.5,1.5-9.5,8ZM519,391l-5.5,3-10.5,8.5,5.5-3.5,6-3,4.5-5ZM542,396l2-1.5v-3.5h-1c.11,1.86-1.54,2.83-1,5ZM582,530c.16-2.45-.23-5.08,0-7.5.03-.36.97-.64,1-1,.33-4.54.81-10.09,1-14,1.7-34.17,1.11-69.31-1-103-.21-3.29.27-6.74,0-10-.14-1.7.13-2.94-2-3.5.09,2.69-1.54,4.59-1,7.5,1.61,8.69,2,25.43,0,34-.66,2.8,1.67,5.2,2,7,.25,1.34-.16,3.07,0,4.5h-2c.18,11.48-.24,23.01,0,34.5,0,.34.99.66,1,1,.31,15.65-.32,31.35,0,47,.02,1.22-.75,3.73,1,3.5ZM173,392c-2.58-.08-4.51,2.39-4,5,3.35.32,2.64-2.74,4-5ZM195,398l4-1.5,5-4-5.5,2.5-3.5,3ZM150.5,393c-.65,0-.65,1,0,1s.65-1,0-1ZM211,397v-4h-.5l-1.5,1.5v1l2,1.5ZM526.5,393l-12.5,9.5c1.05.58,2.7-.96,3.5-1.5,1.88-1.28,3.64-3.43,6-4l3-4ZM570,409l.5-5,.5-11-2,2.5c.05,3.33-.07,6.67,0,10,.02,1.22-.75,3.73,1,3.5ZM164,394c-1.18-1.12-6.35,4.69-6,5,1.98.54,2.37-1.34,3.5-2,.2-.12.65.12,1,0,.7-.24.77-2.09,1.5-3ZM281,399c.35.4,2.45-1.91,3-2.5s2.4-1.69,1.5-2.5c-1.71,1.37-4.74,2.11-4.5,5ZM536,394l-10,8.5,3.5-1.5c1.79-2.92,6.21-3,6.5-7ZM556,401v-7h-1v7h1ZM260,395c-3.44.63-6.9,2.77-9,5.5-1.3,1.69-1.13,2.49-1,4.5.66.71,4.57-2.4,5.5-3,.23-.15.76.15,1,0,.86-.55,1.62-1.83,2.5-2.5l1-4.5ZM394.5,395l-1.5,1.5.5.5,1.5-1.5-.5-.5ZM116,401l2-1.5v-3.5h-1c.11,1.86-1.54,2.83-1,5ZM140,400l2-1.5-1-2.5-2,1.5,1,2.5ZM155,401v-5h-.5l-1.5,1.5v3.5h2ZM548,406l3-1.5v-8.5l-3,2.5v7.5ZM143.5,397c-.65,0-.65,1,0,1s.65-1,0-1ZM196,404c2.73.56,4.41-1.69,6-3.5.99-1.13,2.39-1.66,2-3.5l-3.5,2-4.5,5ZM206,401c1.64-.71,3.31-2.24,3-4-1.64.71-3.31,2.24-3,4ZM176.5,398c-.65,0-.65,1,0,1s.65-1,0-1ZM291.5,398l-3.5,3.5.5.5,3.5-3.5-.5-.5ZM537,398l-11,9.5,5.5-2.5c1.85-2.92,6.3-2.85,5.5-7ZM158,405c3.05-.37,6.62-2.39,6-6-.31-.36-6.88,3.66-6,6ZM324,399c-1.93-.49-2.34,1.2-3.5,2-.24.16-.79-.15-1,0-.66.48-3.85,3.69-3.5,4,1.93.49,2.34-1.2,3.5-2,.24-.16.79.15,1,0,.66-.48,3.85-3.69,3.5-4ZM372.5,399c-.65,0-.65,1,0,1s.65-1,0-1ZM173,400c-1.9-.29-3.29,1.1-3,3l3-3ZM191.5,400c-.65,0-.65,1,0,1s.65-1,0-1ZM379,409c4.21-1.61,6.74-5.59,10-8.5l-5.5,2.5c-.8,1.02-5.65,4.77-4.5,6ZM408.5,400c-.65,0-.65,1,0,1s.65-1,0-1ZM408,407l8-6.5-3.5,1.5-4.5,5ZM222,407c2.02-.37,1.73-2.49,3-3.5v-2.5c-2.74,1.18-3.42,3.16-3,6ZM275,404c.4.5,2.65-1.75,2-3-.4-.5-2.65,1.75-2,3ZM338,425c7.25-.19,12.34-8.3,18.5-11l13.5-12.5-4.5,1.5c-8.38,6.81-18.15,12.44-26,19-1.6,1.34-2.93,3.11-4.5,4.5l3,.5v-2ZM405.25,400.25l-4.5,4.5,1,1,4.5-4.5-1-1ZM544,401h-2v5h2v-5ZM307,402c-1.93-.47-2.34,1.17-3.5,2-1.62,1.15-3.82,1.47-3.5,4,1.93.49,2.34-1.2,3.5-2,.24-.17.8.15,1,0,.82-.62,3.39-3.13,2.5-4ZM459,402l-3,2.5-2,3.5,5-6ZM456,411c.89.86,4.82-2.86,5-3.5s-.23-1.48,0-2c.3-.69,2.21-2.47,1.5-3.5-3.2,2.43-4.18,5.85-6.5,9ZM145.26,403.98c0-.68-.55-1.24-1.24-1.24s-1.24.55-1.24,1.24.55,1.24,1.24,1.24,1.24-.55,1.24-1.24ZM235,403c-1.9-.39-2.67,1.3-4,2.5l.5.5c1.01-1.27,3.13-.98,3.5-3ZM369,408l6-4.5-3.5,1.5-2.5,3ZM436.5,403l-1.5,1.5.5.5,1.5-1.5-.5-.5ZM194,404c-1.93-.47-2.34,1.18-3.5,2-.2.14-.74-.16-1,0-1.59,1-1.7,2.27-1.5,4l4.5-3,1.5-3ZM264.25,403.25l-4.5,4.5,1,1,4.5-4.5-1-1ZM289,409c.19-.19-.26-1.03,0-1.5.55-.99,3.21-2.11,2.5-3.5-1.8,1.61-4.31,3.82-6.5,4l-1,3c1.97.57,2.38-1.38,3.5-2,.48-.26,1.31.19,1.5,0ZM418,404c-3-.13-4.51,2.47-6.5,4-.22.17-.8-.16-1,0-1.96,1.57-5.05,4.21-4.5,7,2.78-1.73,5.02-4.03,7.5-6,.2-.16.78.17,1,0,1.71-1.29,2.69-3.08,3.5-5ZM446,407l3-2.5-.5-.5c-.71.98-1.29,1.2-2.5,1v2ZM155,409v-4h-1l-1,4h2ZM167,405h-2v1h2v-1ZM201,405c-1.76-.31-3.29,1.36-4,3,1.76.31,3.29-1.36,4-3ZM245,407v-2h-1v2h1ZM485.5,405l-5,3-5.5,4.5,8.5-4.5,2-3ZM159,409c1.9.29,3.29-1.1,3-3l-3,3ZM352,406c-3.05.14-5.07,2.47-7,4.5,1.05.61,2.71-1.01,3.5-1.5,1.32-.82,3.1-1.43,3.5-3ZM429,406l-4,3.5.5.5c1.57-1.4,3.96-1.39,3.5-4ZM537,406c-2.22-.38-3.05,1.93-4.5,3-1.06.78-4.02,2.22-5,3-.52.41-2.88,2.67-2.5,3,1.93-.69,2.67,1.77,3.5,2,1.92.54,2.74-1.29,4.5-1v-2h2.5l1.5-1.5v-6.5ZM124,407h-2v20.5l2,1.5v-22ZM223,412c1.05,1.07,6.06-3.84,5-5-1.83,1.64-5.3,2.15-5,5ZM313,407c-1.9-.29-3.29,1.1-3,3l3-3ZM312,420c.27.25,2.8-1.61,3.5-2,2.84-1.58,7.51-4.1,10-6,1.58-1.2,2.93-3.2,4.5-4.5l-7.5,3.5-6,4-4.5,5ZM397.5,407c-.65,0-.65,1,0,1s.65-1,0-1ZM513.5,407c-3.52,3.14-7.53,4.72-10.5,8.5l5.5-2.5,5-6ZM215,412c2.01-.53,2.24-2.12,2-4-2.01.53-2.24,2.12-2,4ZM266.5,408c-.65,0-.65,1,0,1s.65-1,0-1ZM297.25,407.25l-5.75,5.75,1.5,1.5,5.75-5.75-1.5-1.5ZM319.5,408l-4.5,3.5.5.5c1.51-1.16,3.23-1.72,4.5-3.5l-.5-.5ZM446,417c.68.75,5.45-2.96,6-3.5v-5.5l-5,3-1,6ZM485,424c2.33-1.58,4.35-3.4,6.5-5,1.47-1.09,4.67-2.88,6-4,2.27-1.91,4.25-4.51,6.5-6.5l-5.5,2.5c-3.95,3.43-8.21,6.03-12,9-1.55,1.21-1.74,2.07-1.5,4ZM556,408l-4,6c.85.86,4.3-1.61,2.5-3l1.5-3ZM143,412c1.9.29,3.29-1.1,3-3l-3,1v2ZM188,415c2.14-1.78,6.02-2.67,6-6l-6,6ZM404,409h-2v2l2-2ZM436,414l6-4.5-3.5,1.5-2.5,3ZM180,416c1.5.32,2.06-.44,3-1.5v-4.5c-2.74,1.18-3.42,3.16-3,6ZM203,419l4-9c-1.21.62-3.37,2.44-4,3.5-.13.21.14.69,0,1-.2.43-.91.64-1,1-.18.75-.61,3.85,1,3.5ZM264,412l-.5-2-4.5,4c2.43.4,2.74-2.53,5-2ZM255,411c-1.93-.49-2.34,1.2-3.5,2-.24.16-.79-.15-1,0-1.23.9-2.27,2.5-3.5,3.5l5.5-2.5,2.5-3ZM520.5,411l-1.5,1.5.5.5,1.5-1.5-.5-.5ZM550,411l-3,1.5v4.5l3-1.5v-4.5ZM211,415l1-2.5-.5-.5-2.5,3h2ZM578,417v-5h-1v5h1ZM146,413h-2v1h2v-1ZM177,420l-1-7c-.37,2.09-1.12,3.12-1,5.5.08,1.62.84,2.87,2,1.5ZM389,413c-1.95-.52-2.34,1.26-3.5,2-4.68,2.99-10.87,5.87-15,9-1.54,1.17-3.46,3.33-4.5,5l5.5-2c4.05-4.56,9.77-6.84,14-10,.66-.49,3.86-3.69,3.5-4ZM517.5,413l-5,3-5.5,4.5,8.5-4.5,2-3ZM299,419c.19-.19-.26-1.03,0-1.5.55-.99,3.21-2.11,2.5-3.5-1.56.69-2.85,2.27-4,3-2.32,1.47-8.23,4.6-10,7-.48.66-1.94,3.53-1.5,4,1.93.49,2.34-1.21,3.5-2,2.7-1.85,5.17-3.15,6.5-5.5,1.04-1.84,2.87-1.37,3-1.5ZM396,414l-3,1.5.5.5,2.5-1v-1ZM403,414l-4,3.5,1.5,1.5c1.71-1.57,3.01-2.5,2.5-5ZM431,417c1.9.29,3.29-1.1,3-3l-3,3ZM457.5,414c-.65,0-.65,1,0,1s.65-1,0-1ZM217,415c-2.33-.37-2.33.93-3,2.5-.28.66-1.33,3.14-1,3.5,3.35-.09,4.53-3.1,4-6ZM363,419c2.24.32,3.34-2.13,5-3.5l-.5-.5c-1.48,1.26-3.75,1.7-4.5,4ZM199,419v-3h-1v3h1ZM252.5,416c-.65,0-.65,1,0,1s.65-1,0-1ZM263.5,416c-2.53,2.21-5.37,3.83-7.5,6.5l5.5-3.5,2-3ZM275.5,416l-2.5,2.5.5.5,2.5-2.5-.5-.5ZM441,418l-.5-2c-2.64,1.86-6.97,4.04-6.5,8,3.79.59,5.68-3.18,6-6l3,1-2-1ZM451.5,416c-.65,0-.65,1,0,1s.65-1,0-1ZM241,420c1.9.29,3.29-1.1,3-3l-3,3ZM320,429c.46.47,5.65-4.37,6.5-5,1.1-.81,3.92-2.19,5-3,1.19-.9,2.78-2.31,2.5-4-.23-.24-2.79,1.56-3.5,2-2.04,1.27-5.23,3.47-7,5-.87.75-4.49,4-3.5,5ZM528,418l-6.5-1c-.63.99-3.29,2.77-3.5,3.5-.19.66.24,1.51,0,2-.45.96-1.73,2.32-2,3.5.76.71,4.48-2.4,5.5-3,.5-.29,2.25-.82,3-1l3.5-4ZM553.5,417l-1.5,1.5.5.5,1.5-1.5-.5-.5ZM142,427l3.5-1,1.5-5.5-3.5-2.5-1.5,2.5v6.5ZM181.5,418l-1.5,1.5.5.5,1.5-1.5-.5-.5ZM197,418c-2.94-.18-4.51,3.08-7,3v6c.33.39,5.7-3.41,6-4.5.37-1.32-.45-2.92,1-4.5ZM212,420v-2h-1v2h1ZM544,420v-2h-1v2h1ZM172,424v-5h-1v5h1ZM395,422c.4.5,2.65-1.75,2-3-.4-.5-2.65,1.75-2,3ZM167,420c-2.79-.4-2.66,2.16-4,3.5l-2,8.5,6-3.5v-8.5ZM228,428l3.5-2,5.5-6c-.61-.61-3.19,3.66-4.5,3l-4.5,5ZM423,424c1.64-.71,3.31-2.24,3-4-1.64.71-3.31,2.24-3,4ZM176.5,421c-.65,0-.65,1,0,1s.65-1,0-1ZM198,433l12-8.5-1-3.5c-.46-.56-8.56,6.66-9.5,8-.49.69-1.94,3.49-1.5,4ZM308,421c-1.93-.49-2.34,1.2-3.5,2-.24.16-.8-.15-1,0-1.4,1.03-2.6,2.85-4,4-.19.16-.79-.17-1,0-.52.41-2.88,2.67-2.5,3,2.56.21,3.75-2.71,5.5-4,.61-.45,3.38-1.55,4-2s2.85-2.69,2.5-3ZM407.5,421l-1.5,1.5.5.5,1.5-1.5-.5-.5ZM547.5,421c-.65,0-.65,1,0,1s.65-1,0-1ZM159.5,422l-1.5,1.5.5.5,1.5-1.5-.5-.5ZM243,422h-2v2l2-2ZM389,427l1.5-5-8,5-4.5,5,11-5ZM433,422c-2.17-.38-2.03.21-2.5,2-.37,1.39-.75,2.53-.5,4,2.98-.86,1.34-3.92,3-6ZM475,422c-.97-.86-5.54,3.29-6.5,4-.22.16-.79-.16-1,0-1.58,1.2-2.93,3.2-4.5,4.5l5.5-2.5,6.5-6ZM492.5,422l-6.5,5.5,3.5-1.5,3-4ZM515,422c-2.23-.34-3.06,1.89-4.5,3-.22.17-.8-.16-1,0-6.01,4.81-11.07,11.55-16.5,17,2.28.39,3.04-2,4.5-3,4.77-3.29,12.47-8.67,15.5-13.5.44-.71,2.24-3.27,2-3.5ZM555,426v-4l-3,1v4l3-1ZM441.5,423l-1.5,1.5.5.5,1.5-1.5-.5-.5ZM479,427c1.72.65,4.9-2.95,4-4-1.99,1.02-4.39,1.45-4,4ZM534,428l.5-5c-3.51,2.67-6.67,5.57-10,8-2.25,1.64-5.77,3.18-8,5-.83.68-4.48,4.01-3.5,5,1.25-.43,2.4-1.31,3.5-2,4.94-3.08,9.71-7,15-10,.78-.44.87-1.47,2.5-1ZM413,431c1.93.49,2.34-1.21,3.5-2,.24-.17.8.15,1,0,1.97-1.48,3.73-3.14,1-5l-5.5,7ZM160,425l-3,2.5v5.5l2-3.5,1-4.5ZM185,430l2-1.5v-3.5l-2,1.5v3.5ZM238,425c-3.03-.73-3.68,1.6-5.5,3-.22.17-.81-.16-1,0-1.24,1.01-2.28,2.44-3.5,3.5l5.5-2.5,4.5-4ZM253,425c-1.93-.49-2.34,1.2-3.5,2-.24.17-.8-.15-1,0-.83.63-3.37,3.09-2.5,4,1.53.08,7.58-5.5,7-6ZM268,428c1.9.39,2.67-1.3,4-2.5l-.5-.5c-1.01,1.27-3.13.98-3.5,3ZM360,425c-1.76-.31-3.29,1.36-4,3,1.76.31,3.29-1.36,4-3ZM405,430l6-4.5c-1.05-.64-2.73,1.07-3.5,1.5-1.27.71-2.99.52-2.5,3ZM494.5,425c-3.29,2.36-6.76,4.52-9.5,7.5l3.5-1.5,4-3,2-3ZM245,438c.29.3,4.75-3.47,5.5-4,1.13-.79,3.99-2.2,5-3,1.58-1.26,2.93-3.16,4.5-4.5l-5.5,2.5c-1.91,2.13-5.04,3.52-7,5-.83.63-3.37,3.09-2.5,4ZM304.5,426c-.65,0-.65,1,0,1s.65-1,0-1ZM427,430l2-1.5v-2.5h-1l-1,4ZM526,426l-7.5,4-3.5,3.5c1.05.58,2.7-.96,3.5-1.5,1.03-.7,1.57-2.36,3-2l4.5-4ZM130,433v-6h-1v6h1ZM549,429v-2l-2,1.5v.5h2ZM327.5,428c-.65,0-.65,1,0,1s.65-1,0-1ZM351,428c-1.76-.31-3.29,1.36-4,3,1.76.31,3.29-1.36,4-3ZM396,428c-2.06-.2-4.2,1.94-4,4l4-4ZM422,428l-1,2.5.5.5,1.5-3h-1ZM475,428l-7,5.5c.24.14.44.3.5.5.68,2.12-.52,1.79,0,3l7-6-.5-3ZM554,428h-2v2l2-2ZM319,429l-7.5,4-.5,4c.99,1.07,5.2-3.58,6-4.5.99-1.13,2.39-1.66,2-3.5ZM190.5,430c-.65,0-.65,1,0,1s.65-1,0-1ZM244,432v-2h-1v2h1ZM279,430l-1,2.5.5.5,1.5-3h-1ZM334,430h-2v1h2v-1ZM439,430c-3.05.37-6.62,2.39-6,6,2.36.86,6.35-5.68,6-6ZM147,431l-3,7,3-2.5c-2.25-1.61.29-2.54,0-4.5ZM292,431c-.35-.4-2.45,1.91-3,2.5s-2.4,1.69-1.5,2.5c1.38-2.18,4.88-1.93,4.5-5ZM301,431c-1.93-.49-2.34,1.2-3.5,2-.24.17-.8-.15-1,0-.83.63-3.37,3.09-2.5,4,1.06-.36,7.78-5.32,7-6ZM323.25,430.25l-4.75,4.75,1,1,4.75-4.75-1-1ZM400.5,431l-1.5,1.5.5.5,1.5-1.5-.5-.5ZM407,435c2.02-.37,1.73-2.49,3-3.5l-.5-.5c-1.2,1.33-2.89,2.1-2.5,4ZM187,432l-4,1-1,3c1.13,1.07,5.4-3.67,5-4ZM323,438l5.5-2,2.5-2.5c-2.11-4.16-9.27,3.36-8,4.5ZM417.25,431.25l-4.75,4.75,1.5,1.5,4.75-4.75-1.5-1.5ZM193,433c-1.5-.32-2.06.44-3,1.5v2.5h2l1-4ZM358,436c1.9.29,3.29-1.1,3-3l-3,3ZM367.5,433c-.65,0-.65,1,0,1s.65-1,0-1ZM458,433c-1.25-.65-3.5,1.6-3,2,1.25.65,3.5-1.6,3-2ZM547.5,433c-.65,0-.65,1,0,1s.65-1,0-1ZM160,439c3.05-.14,5.07-2.47,7-4.5l-4.5,1.5-2.5,3ZM223,436v-2h-1v2h1ZM260.5,434c-.65,0-.65,1,0,1s.65-1,0-1ZM345,434c-2.44-.67-2.71.73-4,1.5-1.48.89-2.47-.16-2,2.5l6-4ZM386,434c-1.94-.55-2.34,1.3-3.5,2-.89.54-2.34-.58-1.5,2,1.14,1.05,5.39-3.65,5-4ZM512,435c-2.03.06-3.77,1.94-5.5,3-2.94,1.8-7.27,3.98-10,6-.85.63-4.44,4.02-3.5,5,3.53-1.18,5.82-4.07,8.5-6,1.15-.83,3.88-2.17,5-3,1.8-1.34,3.99-3.31,5.5-5ZM238,436c-1.94-.69-8.34,4.62-7,6,2.53-1.78,5.56-3.07,7-6ZM404,436c-2.37-.47-4.03.82-5,3,2.37.47,4.03-.82,5-3ZM446,440c2.24.32,3.34-2.13,5-3.5l-.5-.5c-1.48,1.26-3.75,1.7-4.5,4ZM461,442c3.35-.09,4.53-3.1,4-6-1.66.48-2.02,2.52-4,2v4ZM480,436c-1.9-.39-2.67,1.3-4,2.5l.5.5,3.5-2v-1ZM574,436h-1v29h1v-29ZM188,437c-1.92-.48-2.34,1.18-3.5,2-.82.58-3.11.42-2.5,3l-2,2c2.63-2.5,7.71-2.8,8-7ZM294,448l4.5-2,5.5-4.5,1-4.5c-3.12,2.49-6.42,4.29-9,7.5-.87,1.09-1.44,2.25-2,3.5ZM306,443c2.74-1.18,3.42-3.16,3-6l-2,2.5-1,3.5ZM407,440c.4.5,2.65-1.75,2-3-.4-.5-2.65,1.75-2,3ZM426,441l2-1.5v-2.5h-1l-1,4ZM492,441l2-3.5-.5-.5c-1.2,1.33-2.89,2.1-2.5,4h1ZM244,448c.52.54,6.1-4.89,6.5-5,1.02-.29,1.99.55,3-1l1.5-4c-1.1.7-2.86,1-3.5,2-2.37,3.7-2.11,2.17-5,4-.85.54-3.32,3.14-2.5,4ZM321.5,438l-1.5,1.5.5.5,1.5-1.5-.5-.5ZM332.5,438c-.65,0-.65,1,0,1s.65-1,0-1ZM350,440v-2l-2,1.5v.5h2ZM410.5,438c-.65,0-.65,1,0,1s.65-1,0-1ZM136,439h-1v13h1v-13ZM140,445v-6h-1v6h1ZM289,441l-.5-2-3.5,2v2l4-2ZM327,442c1.9.29,3.29-1.1,3-3l-3,3ZM529.5,439c-.65,0-.65,1,0,1s.65-1,0-1ZM156.5,440c-.65,0-.65,1,0,1s.65-1,0-1ZM267.5,440l-1.5,1.5.5.5,1.5-1.5-.5-.5ZM458,444c2.01-.53,2.24-2.12,2-4-2.01.53-2.24,2.12-2,4ZM472.25,439.25l-4.5,4.5,1,1,4.5-4.5-1-1ZM527.5,440l-2.5,2.5.5.5,2.5-2.5-.5-.5ZM158,448c1.93-.43,3.15-2.06,4.5-3,.24-.17.8.15,1,0,.83-.62,3.38-3.11,2.5-4-3.38,1.54-8.56,2.01-8,7ZM359,441l-6,2,4,.5,2-2.5ZM371,446l-1-5-6,3.5c1.68,2.42,4.52,1.3,7,1.5ZM379,441h-6l1,5c1.03,1.13,6.13-3.97,5-5ZM422.5,441c-.65,0-.65,1,0,1s.65-1,0-1ZM484,446l3.5-2,1-3c-1.38,2.18-4.88,1.93-4.5,5ZM204,442c-2.28-.39-3.04,2-4.5,3-1.91,1.31-4.25,1.95-6,4-1.22,1.43-1.94,1.7-1.5,4,1.93.49,2.34-1.21,3.5-2,3.01-2.06,4.35-2.46,6.5-5.5.82-1.16,2.48-1.58,2-3.5ZM229,444v-2h-1v2h1ZM238,442h-2v2l2-2ZM385,442c-1.25-.65-3.5,1.6-3,2,1.25.65,3.5-1.6,3-2ZM394,449c.42-2.6,2.42-4.9-.5-7-1.95,1.77-3.62,3.5-4.5,6l5,1ZM444,442h-2v2l2-2ZM456,442c-3.39.36-5.72,3.72-5,7l5-2.5v-4.5ZM533,442c-1.93-.49-2.34,1.2-3.5,2-.24.16-.8-.15-1,0-1.91,1.41-3.59,3.95-5.5,5.5l5.5-2.5,4.5-5ZM549,446v-4h-1v4h1ZM289.5,443c-.65,0-.65,1,0,1s.65-1,0-1ZM403,444l-5-1-1,5c.84.84,6.98-1.44,6-4ZM438,444c-2.58-.08-4.51,2.39-4,5,3.35.32,2.64-2.74,4-5ZM185.5,445l-4.5,3.5.5.5c1.51-1.16,3.23-1.72,4.5-3.5l-.5-.5ZM225,447v-2c-1.99,1.02-4.39,1.45-4,4l4-2ZM234,445c-1.9-.39-2.67,1.3-4,2.5l.5.5c1.01-1.27,3.13-.98,3.5-3ZM413,445l-5,2.5v3.5c3.23.28,5.05.22,7-2.5l-2-3.5ZM503.5,445l-8.5,6.5c2.7,3.69,4.97-1.6,7-3l1.5-3.5ZM522,445l-19.5,12-8.5,7.5,10.5-6.5c1.48-2,4.31-2.84,6-4s3.39-2.87,5-4c.23-.16.78.16,1,0,1.84-1.3,3.94-3.32,5.5-5ZM554.5,445l-1.5,1.5.5.5,1.5-1.5-.5-.5ZM146.5,446c-.65,0-.65,1,0,1s.65-1,0-1ZM156,459l11-6.5v-6.5l-10,6.5c-.87,2.06-1.28,3.96-1,6.5ZM317.5,446l-1.5,1.5.5.5,1.5-1.5-.5-.5ZM463.5,446l-1.5,1.5.5.5,1.5-1.5-.5-.5ZM534,449c1.9.29,3.29-1.1,3-3l-3,3ZM284,450l-.5-3-3.5,6c1.65.14.67-1.97,2.5-3,.47-.26,1.31.19,1.5,0ZM384,447h-4v1h4v-1ZM446,447c-3.1-.21-3.27,2.25-3,5h2l1-5ZM471,457l7-5.5,1-4.5c-2.56,1.63-5.03,3.14-7,5.5l-1,4.5ZM251,448c-1.93-.47-2.34,1.17-3.5,2-1.61,1.15-3.82,1.47-3.5,4,1.53.08,7.58-5.5,7-6ZM326,448h-6v1h6v-1ZM339,448h-4v1h4v-1ZM372,450c-1.45-.14-3.12.22-4.5,0-.38-.06-.64-.96-1-1-4.26-.46-9.15.33-13.5,0l3.5,2c2.89-.88,6.33.81,8,1,1.76.2,4.17.09,6,0,1.63-.08,2.87-.85,1.5-2ZM402.5,449c-.65,0-.65,1,0,1s.65-1,0-1ZM424.5,449l-1.5,1.5.5.5,1.5-1.5-.5-.5ZM533,449c-1.9-.39-2.67,1.3-4,2.5l.5.5c1.01-1.27,3.13-.98,3.5-3ZM548.5,449l-1.5,1.5.5.5,1.5-1.5-.5-.5ZM428,453l1-2.5-.5-.5-1.5,3h1ZM555,452v-2l-2,1.5v.5h2ZM148,451h-2v4c2.01-.53,2.24-2.12,2-4ZM316,451h-3v1h3v-1ZM385,453c-1.18-3.34-5.37-1.63-8-2,1.18,3.34,5.37,1.63,8,2ZM405,453l-1.5-2-1.5,1.5v.5h3ZM448.5,451c-.65,0-.65,1,0,1s.65-1,0-1ZM216,452c-1.76-.31-3.29,1.36-4,3,1.76.31,3.29-1.36,4-3ZM271,455c.4.5,2.65-1.75,2-3-.4-.5-2.65,1.75-2,3ZM397,452h-3v2h3v-2ZM536,453l-1,2.5.5.5,1.5-3h-1ZM547,457c1.37-.31,3.79-3.04,3-4-1.18.31-1.49,1.42-3,1v3ZM178,463c2.18.35,3.07-1.87,4.5-3,.2-.16.78.17,1,0,2.25-1.7,2.92-3.12,2.5-6-3.47,2.88-9.11,3.21-8,9ZM437,461l-1.5-7-1.5,4.5,3,2.5ZM268,455c-1.35-1.19-6.61,2.98-7.5,4l-.5,4c3.33-2.11,6.6-3.88,8-8ZM524.5,455c-3.17,2.38-6.7,4.02-8.5,7.5l3.5-1.5,5-6ZM234,460c2.01-.53,2.24-2.12,2-4-2.01.53-2.24,2.12-2,4ZM249,459l3-2.5-.5-.5c-.71.98-1.29,1.2-2.5,1v2ZM284,456h-2v1h2v-1ZM320,458v-2h-1v2h1ZM422,456c-2.62-.59-2.48,1.77-3,2.5-.75,1.05-2.75,2.89-3,4-.28,1.27.19,3.09,0,4.5h2v3c2.07-.37,3,1.72,4.5,3l.5-7.5-2-4,1-5.5ZM425.26,456.98c0-.68-.55-1.24-1.24-1.24s-1.24.55-1.24,1.24.55,1.24,1.24,1.24,1.24-.55,1.24-1.24ZM468.5,456c-.65,0-.65,1,0,1s.65-1,0-1ZM490,456c-1.5-.32-2.06.44-3,1.5v2.5c1.33-.22,3.83-3.17,3-4ZM514,456l-4.5,2-6.5,5c1.93.69,2.67-1.77,3.5-2,.62-.17,1.38.18,2,0,.18-.05,2.73-1.8,3-2,.61-.44,2.85-2.69,2.5-3ZM278,460c1.9.29,3.29-1.1,3-3l-3,3ZM137,468c-.56-3.04,1.64-8.45-2-10,.1,2.81-.14,5.68,0,8.5.08,1.63.85,2.87,2,1.5ZM148,458l-2.5,2,.5,4,2-6ZM331,458h-3v1h3v-1ZM457,458c-1.76-.31-3.29,1.36-4,3,1.76.31,3.29-1.36,4-3ZM231,472c.97.86,5.54-3.28,6.5-4,2.1-1.57,4.79-3.57,7-5,1.64-1.06,3.82-1.56,3.5-4-3.56,2.08-6.38,4.72-9.5,7-1.07.78-4.01,2.22-5,3-.52.41-2.88,2.67-2.5,3ZM375,459h-2v1h2v-1ZM396,459h-2v1h2v-1ZM399,459h-2v1h2v-1ZM415,459c-1.38-.03-2.63-.37-3.5,1-1.19,1.87.9,2.09.5,4l3-5ZM473,462c1.9.39,2.67-1.3,4-2.5l-.5-.5c-1.01,1.27-3.13.98-3.5,3ZM452,460l-4,1.5v4.5c2.17-1.25,4.58-3.18,4-6ZM360,462l-4.5-1c-2.07.43-6.29-1.51-5.5,2,2.16-.03,4.33.04,6.5,0,1.22-.03,3.73.75,3.5-1ZM480,466l2-1.5v-3.5h-1c.11,1.86-1.54,2.83-1,5ZM518,469c.61.61,3.19-3.66,4.5-3l4.5-5-3.5,2-5.5,6ZM550,461c-1.17-1.35-1.92-.12-2,1.5-.09,1.83.06,3.68,0,5.5l2-7ZM272,469c-.05-1.49-.32-2.64,1-3.5v-3.5l-3,6.5,2,.5ZM296,462c-1.9-.39-2.67,1.3-4,2.5l.5.5,3.5-2v-1ZM513.5,462l-2.5,2.5.5.5,2.5-2.5-.5-.5ZM162,463l-3,1.5.5.5,2.5-1v-1ZM174,466v-3h-.5l-1.5,1.5v1.5h2ZM256,463h-2l-1,4.5.5.5c1.93-1.28,1.22-3.17,2.5-5ZM432,465v-2h-1v2h1ZM221,471l3-7-3,2.5v4.5ZM436,469l2-1.5v-3.5l-2,1.5v3.5ZM474,471c3.26-1.36,3.27-3.8,3-7l-3,1v6ZM501,464c-1.9-.39-2.67,1.3-4,2.5l.5.5,3.5-2v-1ZM533.6,463.34l-4.63,2.78.88,1.47,4.63-2.78-.88-1.47ZM547,470c.11-1.86-1.54-2.83-1-5h-1v5h2ZM157,468l-.5-2c-1.01,1.27-3.13.98-3.5,3l4-1ZM304,469c-1.12-.24-1.69-1.52-3.5-1-.31.09-4.42,4.19-4.5,4.5-.39,1.41.27,3.86,0,5.5,1.48-1.19,4.14-.67,5-2.5,1.18-2.5-2.1-.3-2-1,.97-1.92,2.61-1.14,3.5-1.5.64-.26.85-1.52,2.5-1l-1-3c.87.19,2.03-.11,3,0l-1.5-3-1.5,3ZM318,466c-1.82.03-3.67-.04-5.5,0-2.06.05-2.89-.72-2.5,2l8-2ZM339,466h-20c-.09,2.14-.45,1.9,1.5,2,3.62.18,8.45.31,12,0,.36-.03.63-.95,1-1l5.5-1ZM387,470c-.28-4.81-5.77-4.4-9.5-4-.37.04-.64.97-1,1-6.92.58-14.51-.42-21.5,0l7.5,1c.36.03.64.97,1,1,6.84.49,12.38-.08,19,1,1.37.22,3.06-.15,4.5,0ZM397,467c-1.61.55-2.11-.93-2.5-1-1.93-.34-4.46.23-6.5,0,1.74,3.51,5.32,4.4,9,4v-3ZM195,467c-1.86-.76-7.63,4.45-7,5,1.93.47,2.34-1.18,3.5-2,1.35-.96,3.08-1.32,3.5-3ZM250.5,467c-.65,0-.65,1,0,1s.65-1,0-1ZM261,474l-1,3,3-3.5-1-.5s-.22-.51.5-1c.22-.15,2.16-.26,2.5-1.5.16-.58.37-3.28-.5-3.5l-4.5,4.5,1,2.5ZM473,467l-4,1.5v6.5c2.32.37,2.34-.92,3-2.5.78-1.85,1.29-3.43,1-5.5ZM247,468c-.33-.37-3.48,2.84-4,3.5-1.26,1.59-.97,1.03.5,2.5l3.5-6ZM362,470l-15.5-1c-5.52-1.68-12.95,1.41-19,2l-2.5,2c4.14-.17,8.36.23,12.5,0,6.52-.36,14.24-1.72,21-2,1.24-.05,3.73.76,3.5-1ZM406,471c-1.11-2.62-4.5-3.27-7-3-.07,4.2,4.22,2.86,7,3ZM528,468c-1.93-.49-2.34,1.2-3.5,2-.23.16-.78-.15-1,0-1.84,1.29-3.43,3.39-5.5,4.5l4.5-1.5c1.59-2.14,4.48-2.24,5.5-5ZM535,476c2.38-.5,1.64-2.21,2-3.5.58-2.07,1.97-2.72-.5-4.5l-1.5,8ZM137,471v-2l-2,1.5v.5h2ZM164,472c.4.5,2.65-1.75,2-3-.4-.5-2.65,1.75-2,3ZM456,469h-2v2l2-2ZM124,470h-1v8h1v-8ZM309.5,470c-.65,0-.65,1,0,1s.65-1,0-1ZM172,473v-2l-2,1.5v.5h2ZM219,471h-2v3l2-1.5v-1.5ZM321,474c-.01-4.78-6.06-2.55-9.5-3l-5.5,3.5,15-.5ZM324,473v-2l-2,1.5v.5h2ZM467,477v-6h-1v6h1ZM515.5,471l-2.5,2.5.5.5,2.5-2.5-.5-.5ZM421,475c.65-1.25-1.6-3.5-2-3-.65,1.25,1.6,3.5,2,3ZM449.6,471.16l-2.56,4.26,1.47.88,2.56-4.26-1.47-.88ZM459,472h-2v4c2.01-.53,2.24-2.12,2-4ZM146.5,473c-.65,0-.65,1,0,1s.65-1,0-1ZM160.5,473l-4.5,3.5.5.5,4.5-3.5-.5-.5ZM264.5,473c-.65,0-.65,1,0,1s.65-1,0-1ZM409,473h-7c1.02,1.84,2.73,3.26,3,5.5l3.5,3.5.5-9ZM551,473c-2.67-.48-1.6.53-2.5,2-.6.98-2.01,1.19-1.5,3,2.49-1.12,4.63-1.66,4-5ZM294,474c-2.17-.38-2.03.21-2.5,2-.37,1.39-.75,2.53-.5,4,2.98-.86,1.34-3.92,3-6ZM414,481l-3-7-1,8,2.5-3,1.5,2ZM424.26,474.98c0-.68-.55-1.24-1.24-1.24s-1.24.55-1.24,1.24.55,1.24,1.24,1.24,1.24-.55,1.24-1.24ZM456,474l-9,5.5v9.5c1.93.49,2.34-1.2,3.5-2,.24-.17.8.15,1,0,.5-.38,2.43-2.26,2.5-2.5.18-.63-.19-1.41,0-2,.13-.41.93-.63,1-1,.44-2.45-.83-5.2,1-7.5ZM532.5,474c-.65,0-.65,1,0,1s.65-1,0-1ZM187,477l3-1.5-.5-.5-2.5,1v1ZM516.5,475l-1.5,1.5.5.5,1.5-1.5-.5-.5ZM568,503v-28c-1.75-.23-.98,2.28-1,3.5-.08,4.1.48,9.13,0,13-.05.37-.93.62-1,1-.29,1.6-.3,4.11,1,5l1,5.5ZM248,486l5-3.5v-6.5c-2.3.75-2.74,3.02-4,4.5l-1,5.5ZM275,478v-2l-2,1.5v.5h2ZM481,488c1.1,1.17,4.58-3.25,5.5-4,.2-.17.81.16,1,0,2.62-2.2,4.9-5.21,7.5-7.5l-7.5,3.5c-2.22,2.52-7.07,3.48-6.5,8ZM161,481l1-4c-.27-.32-2.93,1.79-3.5,2s-1.39-.2-2,0c-.83.27-1.93,1.73-4,1-2.13,1.48-1.24,4.11-2.5,6.5l2,1c2.3-1.32,5.57-5.43,7.5-6.5.47-.26,1.31.19,1.5,0ZM238,477c-1.93-.49-2.34,1.2-3.5,2-.24.16-.79-.15-1,0-1.23.9-2.27,2.5-3.5,3.5l3.5-1.5,4.5-4ZM444,477h-2v2l2-2ZM137,480v-2h-1v2h1ZM202,485l4-2.5,1.5-4.5c-2.39,2.27-5.44,3.06-5.5,7ZM531.5,478c-.65,0-.65,1,0,1s.65-1,0-1ZM299,481v-2l-2,1.5v.5h2ZM479.5,479l-1.5,1.5.5.5,1.5-1.5-.5-.5ZM502.5,479l-4.5,3.5.5.5c1.51-1.16,3.23-1.72,4.5-3.5l-.5-.5ZM124,489l1-5.5-2-3.5c.03,1.82-.04,3.67,0,5.5.03,1.22-.75,3.73,1,3.5ZM574,486v-6h-1v6h1ZM170,484c1.9.29,3.29-1.1,3-3l-3,3ZM181.5,481c-.65,0-.65,1,0,1s.65-1,0-1ZM459,483v-2l-3,2.5.5.5,2.5-1ZM517.5,481c-2.53,2.21-5.37,3.83-7.5,6.5,1.31.62,2.55-1.77,3.5-2.5.21-.16.58-.11,1,0l3-4ZM119,530.5v-46l-2-2.5c-.17,3.13.24,6.38,0,9.5-.62,8.18-2.56,17.79-3,26-.53,10.04.39,20.43,0,30.5l2-2.5c.92-3.49.31-8.8,1-12,.07-.34,1.93-2.66,2-3ZM239,482c-.82-.69-5.8,2.36-5,3l5-2v-1ZM288,497.5v22l2,1.5v-24c2.13.56,1.86,1.8,2,3.5.61,7.53.22,17.3,0,25-.41,14.79-1.24,30.07,0,45,.27,3.24-1.44,8.94,2,10.5l1-99c-3.65,1.44-1.38,6.61-2,9.5-.08.36-1.75,2.41-2,3-.23.54.17,1.33,0,1.5-.19.19-1.03-.27-1.5,0-.52.29-.95,1.1-1.5,1.5ZM425,482h-2v5l2-1.5v-3.5ZM280.5,483c-.65,0-.65,1,0,1s.65-1,0-1ZM417,494l-1-7.5-3.5-3.5c-1.52,1.01-1.96,2.88-1.5,4.5.22.77,2.56,1.61,2,3l4,3.5ZM526,483c-.89-.88-3.38,1.67-4,2.5-.47.63-1.51,3.23-2,4-.88,1.4-2.66,2.61-3,4.5,1.14.99,7.67-4.3,8-5.5.45-1.6-.66-3.68,1-5.5ZM132,484h-1v8h1v-8ZM242,488c2.01-.53,2.24-2.12,2-4-2.01.53-2.24,2.12-2,4ZM265,484l-5,2.5v5.5l4-2,1-6ZM291,484l-3,2.5v7.5l3-3.5v-6.5ZM550,485h-2v1h2v-1ZM167,487h-2v2l2-2ZM443,494c-.07-1.82.11-3.68,0-5.5-.07-1.15.46-1.73-1-1.5-.48,2.61-2.61,5.63,1,7ZM500,503c1.84.39,2.37-1.01,3.5-2,2.7-2.37,4.51-5.24,6.5-7.5,1.08-1.23,2.37-2.31,3.5-3.5.66-.69,2.77-2,2-3-1.74,1.46-3.25,3.65-5,5s-5.27,2.69-7,4c-3.04,2.31-2,3.91-3.5,7ZM215,488c-2.99-.11-4.52,2.43-6.5,4-.2.16-.78-.17-1,0-.83.63-3.37,3.09-2.5,4,2.88-.72,4.38-3.26,6.5-5,.19-.16.79.17,1,0,.51-.41,2.88-2.68,2.5-3ZM239,492v-4h-1c.31,1.71-.21,2.62-1,4h2ZM535,488c-1.25-.65-3.5,1.6-3,2,1.25.65,3.5-1.6,3-2ZM274,489c-2.72-.39-1.95.44-2,2.5-.04,1.5.02,3.01,0,4.5l1.5-3,.5-4ZM478,489h-2v4h1l1-4ZM549,491v-2h-1v2h1ZM158,493c1.9.29,3.29-1.1,3-3l-3,3ZM184.5,490c-.65,0-.65,1,0,1s.65-1,0-1ZM144,494v-3h-1v3h1ZM253,497c1.5.32,2.06-.44,3-1.5v-4.5c-2.74,1.18-3.42,3.16-3,6ZM548,495c1.5.32,2.06-.44,3-1.5v-2.5c-1.33.22-3.83,3.17-3,4ZM190,494v-2h-1v2h1ZM417,504c-.19-1.4.28-3.23,0-4.5-.07-.3-2.6-4.45-3-5-.64-.87-1.94-2.17-3-2.5.45,8.33-.61,17.23,0,25.5.36,4.92,2.45,10.58,2,16l1,4.5c1.75.23.98-2.28,1-3.5.11-5.33-.74-10.46-1-15-.3-5.19-.31-10.95,1-15.5h2ZM448.5,492l-1.5,1.5.5.5,1.5-1.5-.5-.5ZM460,492l-3.5,2-2.5,3c.85-.41,6.78-4.31,6-5ZM473,492c-2.21-.98-4.58,4.32-4,5l4-2.5v-2.5ZM530,492h-2v2l2-2ZM169.5,493c-.65,0-.65,1,0,1s.65-1,0-1ZM232.6,492.34l-4.63,2.78,1.24,2.06,4.63-2.78-1.24-2.06ZM179,494l-4,1v3l4-4ZM220.5,494c-.65,0-.65,1,0,1s.65-1,0-1ZM534,500l2-1.5v-4.5h-1c-.21,2.05-1.52,3.52-1,6ZM159.5,495l-4.5,3.5.5.5c1.51-1.16,3.23-1.72,4.5-3.5l-.5-.5ZM495,498l3-1.5-.5-.5-2.5,1v1ZM255,508l7-5.5,1-5.5c-1.88-.35-.3,1.58-1.5,2-3.37,1.18-2.16,2.47-3.5,4.5-.96,1.45-3.41,2.21-3,4.5ZM451,497c-3.75-.5-4.4,1.55-4,5,2.25,1,4.58-4.42,4-5ZM247,501c.4.5,2.65-1.75,2-3-.4-.5-2.65,1.75-2,3ZM426,505l-2-7c.06,1.82-.09,3.67,0,5.5.08,1.62.83,2.85,2,1.5ZM490,498c-1.76-.31-3.29,1.36-4,3,1.76.31,3.29-1.36,4-3ZM181,504l-.5-5c-1.5,1.28-2.43,3.37-4.5,3v4l5-2ZM455,505c3.35-.09,4.53-3.1,4-6-2.17,1.25-4.58,3.18-4,6ZM148,510c1.93.49,2.34-1.2,3.5-2s4.04-2.22,5-3c1.39-1.13,3.65-3,3.5-5-1.62-.09-.7,1.84-2.5,3-1.5.96-4.58,1.94-6,3-.66.49-3.86,3.69-3.5,4ZM170,500c-1.5-.32-2.06.44-3,1.5v2.5c1.33-.22,3.83-3.17,3-4ZM122,516c2.13-.56,1.86-1.8,2-3.5.3-3.72-.22-7.74,0-11.5l-2,2.5v12.5ZM132,501c-1.16-1.36-1.92-.12-2,1.5-.12,2.35.53,4.4-1,6.5l4-3.5-1-4.5ZM210.5,501c-.65,0-.65,1,0,1s.65-1,0-1ZM226,503v-2l-2,1.5v.5h2ZM497,505l-.5-3-4.5,4.5c1.02.72,2.84-1.22,3.5-1.5.54-.22,1.32.17,1.5,0ZM146,503h-2v2l2-2ZM165,503h-2v4h1c-.31-1.71.21-2.62,1-4ZM443.5,503c-.65,0-.65,1,0,1s.65-1,0-1ZM484,503c-1.9-.29-3.29,1.1-3,3l3-1v-2ZM515.5,503l-1.5,1.5.5.5,1.5-1.5-.5-.5ZM536,503c-1.25-.65-3.5,1.6-3,2,1.25.65,3.5-1.6,3-2ZM550.5,503l-1.5,1.5.5.5,1.5-1.5-.5-.5ZM435,511c3.89.22,4.03-5.07,1.5-7l-1.5,7ZM522,504l-1,2.5.5.5,1.5-3h-1ZM216,510l.5-5c-.82,1.11-6.74,5.76-5.5,7,1.97.57,2.38-1.38,3.5-2,.48-.26,1.31.19,1.5,0ZM221.5,505c-.65,0-.65,1,0,1s.65-1,0-1ZM247.5,505c-.65,0-.65,1,0,1s.65-1,0-1ZM160,506c-2.25-.35-3.05,1.93-4.5,3-.21.16-.78-.16-1,0-2.06,1.5-4.42,3.86-6.5,5.5l-1,4.5c3.31-1.89,5.57-4.68,8.5-7,.2-.16.78.17,1,0,2.41-1.82,2.36-3.46,3.5-6ZM449.5,506l-1.5,1.5.5.5,1.5-1.5-.5-.5ZM479,506c-1.09-.89-4.64,2.28-4,4l3-1,1-3ZM575,537v-28.5l-2-2.5c.39,7.36-.53,15.2,0,22.5.03.36.97.64,1,1l1,7.5ZM418,507h-1v10h1v-10ZM530.5,507l-6.5,4.5,3.5-1.5,3-3ZM552,507c-3.1-.21-3.27,2.25-3,5,2.18-.97,3.47-2.63,3-5ZM133,510h-1.5l-1.5,2h3v-2ZM229,510l-1,2.5.5.5,1.5-3h-1ZM545,512v-2h-1v2h1ZM470,516v-5h-1c.11,1.86-1.54,2.83-1,5h2ZM568,514v-3h-1v3h1ZM492,512l-11.5,6-1.5-2-1,5c1.34,1.36,8.27-5.82,10.5-6l3.5-3ZM512,512c-1.93-.49-2.34,1.2-3.5,2-.24.16-.8-.15-1,0-1.57,1.16-2.93,3.22-4.5,4.5l4.5-1.5,4.5-5ZM223,513l-4,1-1,6c1.56-.53,6.57-5.47,5-7ZM236.5,513c-.65,0-.65,1,0,1s.65-1,0-1ZM262,513c-1.82-.5-7.34,3.49-6,5l6-5ZM143.5,514c-.65,0-.65,1,0,1s.65-1,0-1ZM438,519v-5l-2,1.5,1,3.5h1ZM517.5,514c-.65,0-.65,1,0,1s.65-1,0-1ZM545,516v-2h-1v2h1ZM553,514c-3.35.09-4.53,3.1-4,6,3.35-.09,4.53-3.1,4-6ZM157.5,515l-1.5,1.5.5.5,1.5-1.5-.5-.5ZM425,518v-3h-1v3h1ZM133,516h-3v2h3v-2ZM510.5,516l-2.5,2.5.5.5,2.5-2.5-.5-.5ZM144,522v-5h-.5l-1.5,1.5v3.5h2ZM280,530c2.13-.56,1.86-1.8,2-3.5.25-3.11-.18-6.38,0-9.5l-2,3.5v9.5ZM477,517c-1.5-.32-2.06.44-3,1.5v2.5c.62.76,2.83-3.14,3-4ZM568,523v-6h-1v6h1ZM124,528c-.03-2.16.04-4.33,0-6.5-.03-1.22.75-3.73-1-3.5.03,3.14-3.17,8.1,1,10ZM155,518c-1.84-.39-2.38,1.01-3.5,2-.87.77-5.4,5.13-5.5,5.5-.32,1.17.21,3.13,0,4.5,2.5-.12,4.44-1.71,6-3.5l-1-4,4-4.5ZM156.91,517.65l-2.87,4.78,1.62.97,2.87-4.78-1.62-.97ZM203,518c-1.25-.65-3.5,1.6-3,2,1.25.65,3.5-1.6,3-2ZM215.5,518c-.65,0-.65,1,0,1s.65-1,0-1ZM488.5,518c-.65,0-.65,1,0,1s.65-1,0-1ZM257,522c2.4.37,4.24-.48,4-3-.17-.2-4.82,2.34-4,3ZM454,526c3.26-1.36,3.27-3.8,3-7-3.26,1.36-3.27,3.8-3,7ZM506.5,519c-.65,0-.65,1,0,1s.65-1,0-1ZM168,522v-2h-1v2h1ZM206,527c3.86-.28,6.23-3.15,6-7-2.81,1.25-6.54,3.3-6,7ZM235,522v-2h-1v2h1ZM527,520c-1.94-.55-2.34,1.3-3.5,2-.89.54-2.34-.58-1.5,2,.37.36,5.77-3.31,5-4ZM546,523v-3h-.5l-1.5,1.5v1.5h2ZM134,521h-5v11c.5.52,4.75-1.58,5-2.5v-8.5ZM493,525c1.9.29,3.29-1.1,3-3l-3,3ZM532.5,522l-1.5,1.5.5.5,1.5-1.5-.5-.5ZM164,523c-1.9-.29-3.29,1.1-3,3h2l1-3ZM260,523l-4.5,1-.5,3,5-4ZM450,529l-.5-6-2.5,6h3ZM553,523l-4,2.5v6.5l4-1v-8ZM424,529v-5h-1v5h1ZM144,527c-1.07-.32-2.78.67-3,1.5-.59,2.2.95,3.56,1,5.5,1.16,1.36,1.92.12,2-1.5.09-1.83-.06-3.68,0-5.5ZM158,527c-.78-.69-4.64,2.5-5.5,3-1.23.72-4.04.8-4.5,3l6.5-2,3.5-4ZM523.5,527l-1.5,1.5.5.5,1.5-1.5-.5-.5ZM535,529v-2h-1v2h1ZM516,528c-1.9-.39-2.67,1.3-4,2.5l.5.5c1.01-1.27,3.13-.98,3.5-3ZM545,535c3.16-.41,2.25-7,.5-7-2.92,2.1-.92,4.4-.5,7ZM571,528h-1v11h1v-11ZM445,529h-2v3h1c-.42-1.51.69-1.82,1-3ZM519,532c.4.5,2.65-1.75,2-3-.4-.5-2.65,1.75-2,3ZM487,530c-1.9-.39-2.67,1.3-4,2.5l.5.5c1.01-1.27,3.13-.98,3.5-3ZM247.5,531c-.65,0-.65,1,0,1s.65-1,0-1ZM454.5,531c-.65,0-.65,1,0,1s.65-1,0-1ZM205,539c1.93.47,2.34-1.17,3.5-2,1.61-1.15,3.82-1.47,3.5-4-1.06.36-7.78,5.32-7,6ZM236,535v-2l-3,2.5.5.5,2.5-1ZM282,533h-2v3l2-1.5v-1.5ZM450,533c-1.9-.29-3.29,1.1-3,3h2l1-3ZM493,538l7-4.5-4.5,1.5-2.5,3ZM515,533c-1.92-.48-2.34,1.18-3.5,2-.21.15-.74-.16-1,0-1.38.87-1.73,2.68-2.5,4,1,.87,7.68-3.43,7-6ZM123.5,534c-.65,0-.65,1,0,1s.65-1,0-1ZM133,534h-1.5l-1.5,1.5,1.5,1.5,1.5-1.5v-1.5ZM182.5,534c-.65,0-.65,1,0,1s.65-1,0-1ZM537,539v-5h-1v5h1ZM193,535c-1.9-.39-2.67,1.3-4,2.5l.5.5c1.01-1.27,3.13-.98,3.5-3ZM258,537v-2l-3,2.5.5.5,2.5-1ZM151,536c-2.47-.13-6.26,1.03-6,4l3.5-2,2.5-2ZM242,539v-3h-1v3h1ZM445,544l-1-4.5c1.08-.61,2.02-3.58,0-3.5.15,2.01-1.2,1.76-.5,4,.09.3.5.43.5.5-.02.31-3.22,4.03,1,3.5ZM533,538v-2h-1v2h1ZM449,540v-2h-1v2h1ZM124,539h-2v16l2-1.5v-14.5ZM174,543c2.01-.53,2.24-2.12,2-4-2.01.53-2.24,2.12-2,4ZM201,542c1.9.29,3.29-1.1,3-3l-3,3ZM546.5,539l-1.5,1.5.5.5,1.5-1.5-.5-.5ZM142,543c.4.5,2.65-1.75,2-3-.4-.5-2.65,1.75-2,3ZM211,540c-2.22-.33-3.07,1.88-4.5,3-.21.16-.8-.16-1,0-.52.41-2.88,2.67-2.5,3,1.93.49,2.34-1.2,3.5-2,.24-.16.79.15,1,0,.66-.48,3.85-3.68,3.5-4ZM231,547c3.34-1.34,5.77-2.9,5-7-1.56.61-6.5,5.28-5,7ZM255.5,540c-.65,0-.65,1,0,1s.65-1,0-1ZM425,540c-1.15-1.37-1.92-.13-2,1.5-.12,2.49.09,5.02,0,7.5,3.51-1.35,1.53-6.17,2-9ZM131,541h-2v4h1l1-4ZM227,543v-2l-3,2.5.5.5,2.5-1ZM556,543v-2h-1v2h1ZM571,548v-3.5l-1-3.5,1,7ZM485.5,542c-.65,0-.65,1,0,1s.65-1,0-1ZM166,548c3.1.21,3.27-2.25,3-5-2.18.97-3.47,2.63-3,5ZM525,543c-2.55-.39-2.98,2.01-4,4,1.05.9,4.65-2.28,4-4ZM553,547l2-1.5v-1l-1.5-1.5h-.5v4ZM536.5,544c-.65,0-.65,1,0,1s.65-1,0-1ZM564,544c-2.79-.4-2.66,2.16-4,3.5l2,4c-1.07,1.31-2.76,3.16-.5,4.5l2.5-3.5c-2.31-1.67-.14-2.38,0-3,.34-1.54-.23-3.8,0-5.5ZM512.5,545c-.65,0-.65,1,0,1s.65-1,0-1ZM549,550l2-1.5v-3.5l-2,1.5v3.5ZM152,552l8-5.5-3.5,1.5-4.5,4ZM118,550v-2h-1v2h1ZM134,551v-3h-1c.42,1.51-.69,1.82-1,3h2ZM282,548h-1v13h1v-13ZM469.5,548l-1.5,1.5.5.5,1.5-1.5-.5-.5ZM582,587l4-8.5c.07-4.17,1.48-7.53,1-12-.44-4.11-1.67-9.34-2.5-13.5-.34-1.71-.77-3.22-.5-5-1.75-.23-.98,2.28-1,3.5-.16,8.05.94,18.39,0,26-.11.89-1.81,4.98-2,6-.16.87-.62,3.83,1,3.5ZM547,549h-2v3l2-1.5v-1.5ZM526,553c1.9.39,2.67-1.3,4-2.5l-.5-.5c-1.01,1.27-3.13.98-3.5,3ZM221,554c1.9.29,3.29-1.1,3-3l-3,3ZM473.6,550.34l-5.81,3.49.71,1.18,5.81-3.49-.71-1.18ZM490.5,551l-1.5,1.5.5.5,1.5-1.5-.5-.5ZM509,551c-1.93-.49-2.34,1.2-3.5,2-.24.17-.8-.15-1,0-.83.63-3.37,3.09-2.5,4,1.06-.36,7.78-5.32,7-6ZM162,552c-3.03-.2-4.51,2.59-6.5,4s-5.03,2.9-7,5l-6.5,3.5,1,4.5c4.58-2.96,8.16-6.94,12.5-10,.22-.15.77.16,1,0,1.54-1.06,2.33-3.48,4.5-3l1-4ZM255.5,552c-.65,0-.65,1,0,1s.65-1,0-1ZM479.5,552c-.65,0-.65,1,0,1s.65-1,0-1ZM555.5,552c-.65,0-.65,1,0,1s.65-1,0-1ZM143,553h-2v2l2-2ZM176,554c-2.24-.32-3.34,2.13-5,3.5l.5.5c1.48-1.26,3.75-1.7,4.5-4ZM524,554c-2.06-.2-4.2,1.94-4,4l4-4ZM119,586v-25.5c0-.33-1-.67-1-1l1-2-3-2.5-1,10.5c-.76,1.64-1.86,6.43-2,8-.32,3.53.23,7.41,0,11l1.5,1.5h4.5ZM274.5,555c-.65,0-.65,1,0,1s.65-1,0-1ZM511.5,555l-1.5,1.5.5.5,1.5-1.5-.5-.5ZM530,561l8-5.5-4.5,2.5c-1.07-.52-3.86,2.67-3.5,3ZM551,555c-1.72-.65-4.9,2.95-4,4,1.99-1.02,4.39-1.45,4-4ZM255,558v-2h-1v2h1ZM416,563v-5.5l-2-1.5v5.5l2,1.5ZM227.5,557c-.65,0-.65,1,0,1s.65-1,0-1ZM474,557l-4,3.5.5.5c1.57-1.4,3.96-1.39,3.5-4ZM555,560c.4.5,2.65-1.75,2-3-.4-.5-2.65,1.75-2,3ZM570,559v-2h-1v2h1ZM234,562l1-4-2,1.5v2.5h1ZM480.5,558l-1.5,1.5.5.5,1.5-1.5-.5-.5ZM133,565l-.5-6c-1.82,1.25-1.6,2.55-1.5,4.5.09,1.62.84,2.88,2,1.5ZM221.5,559l-1.5,1.5.5.5,1.5-1.5-.5-.5ZM506,559c-2.42-.2-3.87,1.85-5.5,3-.23.16-.79-.15-1,0-2.09,1.55-4.34,4.3-4.5,7,2.83-1.85,4.95-3.88,7.5-6,.16-.13.72.18,1,0,1.38-.87,1.73-2.68,2.5-4ZM516,561v-2h-1v2h1ZM122,560v15c1.75.23.97-2.28,1-3.5.07-3.38.34-4.26,1-7,.42-1.73.09-4-2-4.5ZM165,562v-2h-1v2h1ZM439,561l1,4.5-.5,1.5c2.87-2.01.77-3.5.5-6h-1ZM552,561c-1.76-.31-3.29,1.36-4,3,1.76.31,3.29-1.36,4-3ZM244,562l-4,1-1,3,4-1,1-3ZM464,567c.35.4,2.45-1.91,3-2.5s2.4-1.69,1.5-2.5c-1.71,1.37-4.74,2.11-4.5,5ZM575,567v-5h-1v5h1ZM230,563c-1.93-.49-2.34,1.21-3.5,2-.24.16-.8-.15-1,0-2.37,1.74-4.16,3.85-3.5,7,1.84.39,2.37-1.01,3.5-2,.83-.72,2.51-2.22,3-3,.75-1.2.43-2.65,1.5-4ZM511,563h-2l-1,3h2l1-3ZM564,569l-.5-5c-2.27,2.14-4.23,3.44-3.5,7l4-2ZM157.5,566c-.65,0-.65,1,0,1s.65-1,0-1ZM278,566h-1v11h1v-11ZM416,566c-2.79-.96-2.35,2.78-2,4.5.08.39.95.63,1,1,.34,2.3-.24,5.11,0,7.5,1.75.23.98-2.28,1-3.5.06-3.16-.05-6.35,0-9.5ZM178,567c-1.9-.39-2.67,1.3-4,2.5l.5.5c1.01-1.27,3.13-.98,3.5-3ZM450,567h-2v3l2-1.5v-1.5ZM194.5,569c-.65,0-.65,1,0,1s.65-1,0-1ZM445,569h-2v4h1c-.31-1.71.21-2.62,1-4ZM482,569c-2.66,1.06-5.24,3.24-7,5.5-.61.78-2.03,2.46-1.5,3.5.9-1.47,10.21-7.18,8.5-9ZM489,579c1.38.09,2.82-.81,4-1.5,2.02-1.18,4.32-3.09,6-5,.99-1.13,2.39-1.66,2-3.5-.42-.45-5.74,4.39-6.5,5-.2.16-.8-.16-1,0-1.56,1.26-3.45,3.27-4.5,5ZM551,569h-2v2l2-2ZM231.5,570l-1.5,1.5.5.5,1.5-1.5-.5-.5ZM243.5,570c-.65,0-.65,1,0,1s.65-1,0-1ZM570,574v-4h-1v4h1ZM137,573v-2h-1v2h1ZM143,577c1.64-.29,1.89-1.82,2.5-3,.37-.71,1.58-2.34,1-3l-3.5,2v4ZM442,571c-3.1-.21-3.27,2.25-3,5,3.1.21,3.27-2.25,3-5ZM531,571c-1.76-.31-3.29,1.36-4,3,1.76.31,3.29-1.36,4-3ZM557,571h-2v3l2-1.5v-1.5ZM167,575c1.9.29,3.29-1.1,3-3l-3,3ZM455,575v-3h-1v3h1ZM133,573h-2v2l2-2ZM289,573v34.5c0,.27,1.93,3.03,1,5l2,3.5c-.22-6.47.3-13.03,0-19.5-.2-4.22-.65-10.16-1-15-.03-.36-.97-.64-1-1l-1-7.5ZM174.5,574l-1.5,1.5.5.5,1.5-1.5-.5-.5ZM262,574h-2l-1,3c1.9.29,3.29-1.1,3-3ZM482.5,574c-.65,0-.65,1,0,1s.65-1,0-1ZM509.5,574c-.76,1.26-3.12,1.41-4,2-1.86,1.24-3.61,4.05-5.5,5.5,1.05.58,2.7-.96,3.5-1.5,1.03-.7,1.57-2.36,3-2l3-4ZM565,574c-2.48-.38-2.61,1.49-3.5,3-.75,1.27-2.18,1.56-1.5,4,3.38-.36,5.72-3.72,5-7ZM193.5,575c-4.11,2.68-8.08,4.85-10.5,9.5l3.5-1.5,7-8ZM241.5,575l-1.5,1.5.5.5,1.5-1.5-.5-.5ZM451,575h-2v4h1c-.31-1.71.21-2.62,1-4ZM472,576c-1.84-.39-2.37,1.01-3.5,2s-9.42,9.11-8.5,10c2.23.33,3.06-1.89,4.5-3,2.66-2.06,2.41-1.49,4.5-4.5,1.03-1.48,2.01-3.01,3-4.5ZM469,586c1.93.49,2.34-1.2,3.5-2,2.08-1.43,3.5-2.23,5.5-4.5.99-1.13,2.39-1.66,2-3.5-.84-.89-10.34,8.29-11,10ZM518,579c1.9.39,2.67-1.3,4-2.5l-.5-.5c-1.01,1.27-3.13.98-3.5,3ZM138,580v-3h-1v3h1ZM164,577c-1.9-.29-3.29,1.1-3,3l3-3ZM528.5,577c-3.52,3.14-7.53,4.72-10.5,8.5l3.5-1.5,7-7ZM133,578l-4,1c.21,1.85-.86,10.97,1.5,11,2.38-1.5,1.15-3.53,1.5-5.5.07-.38.95-.63,1-1,.23-1.72-.16-3.72,0-5.5ZM170,578l-7.5,4-5.5,6c2.25.35,3.05-1.93,4.5-3,1.04-.77,4.04-2.23,5-3,.56-.45,3.88-3.67,3.5-4ZM197.5,578l-1.5,1.5.5.5,1.5-1.5-.5-.5ZM210,582c2.01-.53,2.24-2.12,2-4-2.01.53-2.24,2.12-2,4ZM274,583v-5h-1v5h1ZM514,596c6.12-2.93,10.42-7.74,15.5-12,.19-.16.8.16,1,0,1.93-1.61,3.59-3.82,5.5-5.5l-4.5,1.5c-5.1,4.54-11.04,7.44-15.5,12.5-.99,1.13-2.39,1.66-2,3.5ZM575,578l-4,3.5-1,14.5,2-2.5c-.59-2.25,1.81-.99,3-3l-1-5c1.88-1.69.7-4.96,1-7.5ZM261,581v-2h-1v2h1ZM439.5,579c-.65,0-.65,1,0,1s.65-1,0-1ZM444,583v-4h-.5c-1.54,1.1-1.73,2.14-1.5,4h2ZM177,580c-2.61-.37-3.79,3.04-5.5,4-.47.26-1.31-.19-1.5,0-.24.24-2.33,4.52-3,5.5-.8,1.16-2.49,1.57-2,3.5,3.44-1.6,6.6-7.38,9.5-9,.47-.26,1.31.19,1.5,0l1-4ZM204,586c2.41-.44,1.62-2.4,2-3.5.2-.57,1.53-.85,1-2.5-2.74,1.18-3.42,3.16-3,6ZM246,580l-1,2.5.5.5,1.5-3h-1ZM148,589c1.32-.57,7.08-5.83,6-7-2.16.81-3.53,2.29-5.5,3-1.11.4-.26,2.97-.5,4ZM136,586c.4.5,2.65-1.75,2-3-.4-.5-2.65,1.75-2,3ZM220.5,583l-5.5,4.5c1.04.53,2.72-.88,3.5-1.5.61-.48,2.76-2.12,2-3ZM441,585v-2h-1v2h1ZM541,583c-1.25-.65-3.5,1.6-3,2,1.25.65,3.5-1.6,3-2ZM553,583c-1.34-1.19-5.82,4.64-7,5.5l-1.5,3.5,2.5-4c1.78.69,6.3-4.74,6-5ZM199.5,584c-.65,0-.65,1,0,1s.65-1,0-1ZM225,590c.35.43,5.34-3.92,4-6l-3.5,2-.5,4ZM417,588v-4h-1v4h1ZM431,593l3-2.5c-.16-2.36.84-4.89-1.5-6.5-2.41-.47-1.48,1.96-1.5,3.5-.02,1.83.01,3.68,0,5.5ZM562,587l2-2.5c.15-.75-1.07-.69-1.5-.5-1.19.52-3.12,3.6-4.5,4.5-.06.84,1.4.64,2,.5-1.31,1.54-6.72,6.6-2,6,0-2.86,3.42-4.42,5-6.5l-1-1.5ZM238,588c1.9.29,3.29-1.1,3-3l-3,3ZM425,596c.7-3.11,2.8-9.17-1-11,.03,2.49-.05,5,0,7.5.02,1.22-.75,3.73,1,3.5ZM494.5,585l-2.5,2.5.5.5,2.5-2.5-.5-.5ZM186,594c-.19.19.26,1.03,0,1.5l-4.5,5.5c3.88-4.86,9.57-7.03,13.5-11.5.99-1.13,2.39-1.66,2-3.5-1.25.56-2.41,1.13-3.5,2-1.86,1.49-4.32,5.06-6,6-.47.26-1.31-.19-1.5,0ZM481,586c-1.76-.31-3.29,1.36-4,3,1.76.31,3.29-1.36,4-3ZM515.5,586l-3.5,3.5.5.5,3.5-3.5-.5-.5ZM177,587c-1.93-.49-2.34,1.2-3.5,2-.24.16-.8-.15-1,0-2.59,1.91-4.91,5.4-7.5,7.5l5.5-3.5,6.5-6ZM248,590c.4.5,2.65-1.75,2-3-.4-.5-2.65,1.75-2,3ZM503,587c-1.98-.54-2.37,1.34-3.5,2-.2.12-.65-.12-1,0-.7.24-.77,2.09-1.5,3,1.18,1.12,6.35-4.69,6-5ZM183.25,587.25l-4.5,4.5,1,1,4.5-4.5-1-1ZM211,602c2.62-1.12,4.29-3.44,6.5-5,.21-.15.75.16,1,0,1.48-.94,1.28-2.19,1.5-2.5.48-.67,1.88-1.56,2-2,.32-1.17-.21-3.13,0-4.5l-11,8.5v5.5ZM154,589c-2.19.63-2,3.28-4,4.5l.5.5c1.37-1.66,3.82-2.76,3.5-5ZM244.91,588.65l-3.57,5.96,1.62.97,3.57-5.96-1.62-.97ZM265,589l-1,3.5,1.5,1.5,1.5-1.5-1-3.5h-1ZM459,589h-2v2l2-2ZM464.5,589c-2.53,2.21-5.37,3.83-7.5,6.5l3.5-1.5,4-5ZM260,593v-3h-1v3h1ZM488.5,590l-1.5,1.5.5.5,1.5-1.5-.5-.5ZM502,594c2.02-.37,1.73-2.49,3-3.5l-.5-.5c-1.2,1.33-2.89,2.1-2.5,4ZM442,593l-.5-2-2.5,1v2l3-1ZM241,603c1,.93,5.37-3.55,6-4.5.16-.24-.15-.78,0-1,1.1-1.62,2.91-3.55,3-5.5l-7,7.5-2,3.5ZM529.5,592l-3.5,3.5.5.5,3.5-3.5-.5-.5ZM136,605l3-3.5-4.5-8.5-2.5,1c-.62,2.37,1.16,3.7,2,5.5.23.5-.19,1.34,0,2,.23.83,2.69,1.57,2,3.5ZM160,593c-1.95-.52-2.34,1.26-3.5,2l-5.5,3.5,2.5,4.5,3.5-2.5,3-7.5ZM180,606c4.27-.31,6.56-3.61,9.5-6,1.26-1.02,2.81-1.58,4.5-3.5.99-1.13,2.39-1.66,2-3.5l-9.5,6-6.5,7ZM443,599c1.01,1.11,6.31-3.75,5-6l-2,4-2.5-1-.5,3ZM127,611l-4-10.5c-.41-2.24,1.21-5.52-2-6.5l1,8.5,2,6,3,2.5ZM142,598v-4h-.5l-1.5,1.5v1l2,1.5ZM435.26,595.98c0-.68-.55-1.24-1.24-1.24s-1.24.55-1.24,1.24.55,1.24,1.24,1.24,1.24-.55,1.24-1.24ZM508,599c2.02-.37,1.73-2.49,3-3.5l-.5-.5c-1.2,1.33-2.89,2.1-2.5,4ZM544.5,595l-5,6,3.5-2.5,1.5-3.5ZM203.5,596l-1.5,1.5.5.5,1.5-1.5-.5-.5ZM227,596.5l-4.75,4.75,1,1,4.75-4.75-1-1ZM237,599l1-2.5-.5-.5-1.5,3h1ZM490,596c-1.93-.49-2.34,1.21-3.5,2-.24.16-.8-.15-1,0-1.86,1.37-4.12,4.08-5.5,6,3.33.28,4.93.24,7-2.5.17-.22-.16-.8,0-1,1.13-1.43,3.32-2.28,3-4.5ZM556,596l-4,3.5-1.5,3.5c.86-1.19,6.68-5.65,5.5-7ZM130.6,596.7l-1.6.8,3,6,1.6-.8-3-6ZM262,603l-1-4.5-3-1.5c-.3,1.73,1.58,2.66,1,4.5-.27.86-1.64,1.68-1,4,.77,2.79,5.86.32,7.5,2.5,2.73-2.17,1.09-6.36,1.5-9.5l-2-1.5c.04,1.21-.56,2.42-1,3.5-.39.96-.36,2.35-2,2.5ZM233,598c-2.02.37-1.73,2.49-3,3.5l.5.5c1.2-1.33,2.89-2.1,2.5-4ZM414,598h-2v4h2v-4ZM495,598c-1.02-1.07-5.62,3.77-6,5l4-.5,2-4.5ZM167,599c-1.83-.32-9.71,4.22-8,6l3.5-2,4.5-4ZM199.5,599l-1.5,1.5.5.5,1.5-1.5-.5-.5ZM503,605c.19-.2-.26-1.02,0-1.5.76-1.39,2.82-1.73,2-4.5-.35-.39-9.12,4.73-4.5,7,.51-1.28,2.41-.9,2.5-1ZM512,602l3-2.5-.5-.5c-.71.98-1.29,1.2-2.5,1v2ZM236.6,599.16l-2.87,4.78,2.06,1.24,2.87-4.78-2.06-1.24ZM251.19,599.51l-3.26,5.44,1.47.88,3.26-5.44-1.47-.88ZM439.5,600c-.65,0-.65,1,0,1s.65-1,0-1ZM209,601l-3,5,3-1.5v-3.5ZM274,614c-.04-3.15.06-6.34,0-9.5-.02-1.22.75-3.73-1-3.5-.37,3.27-1.49,6.06-1,9.5l2,3.5ZM443.5,601c-.65,0-.65,1,0,1s.65-1,0-1ZM459.5,601c-.65,0-.65,1,0,1s.65-1,0-1ZM144.5,602c-.65,0-.65,1,0,1s.65-1,0-1ZM149.5,602c-.65,0-.65,1,0,1s.65-1,0-1ZM198,608c3.65.61,5.64-2.99,6-6-.31-.36-6.88,3.66-6,6ZM217,602h-2v2l2-2ZM148,605v-2l-1.5,2,3.5,1,2,2-2.5-4-1.5,1ZM174,603h-2c.2,1.21-.02,1.79-1,2.5l.5.5,2.5-3ZM220,607c2.14.08,3.73.41,5-1.5v-2.5c-.21-.25-4.99,2.44-5,4ZM441,605v-2l-2,1.5v.5h2ZM510,603l-4,1v2c.83.83,3.78-1.67,4-3ZM530.5,603l-1.5,1.5.5.5,1.5-1.5-.5-.5ZM457.5,604c-.65,0-.65,1,0,1s.65-1,0-1ZM524,604c-.99-1.08-5.62,3.76-6,5h5.5l.5-5ZM539,604c-1.67-1.69-7.25,4.37-8,6,2.65-.18,5.4.87,7-1.5l1-4.5ZM149,617l1-3.5-7.5-8.5-4.5,2.5c-.39,1.36,4.35,7.17,5.5,7.5.66.19,1.51-.24,2,0,.65.31,3.25,2.29,3.5,2ZM233,605h-4v2l4-1v-1ZM282,626c-.21-4.11.3-8.41,0-12.5-.03-.36-.97-.64-1-1-.12-1.31.12-2.69,0-4s.81-3.71-1-3.5c-.27,4.4.37,9.15,0,13.5-.03.36-.96.63-1,1-.23,2.07.16,4.39,0,6.5h3ZM429,612c1.72-.6,2.2-1.14,1.5-3-.55-1.44-.64-2.51-.5-4-3.66,1.42-1.43,4.46-1,7ZM433,611l2-1.5v-3l-1.5-1.5h-.5v6ZM171,607l-3-.5-1.5.5c-.56,1.26-3.4.49-2.5,2.5,1.48,3.3,7.41,1.06,7-2.5ZM448,606c-1.02-1.11-5.43,3.65-5,4l5,1v-5ZM562,608v-2h-1v2h1ZM463,612v-5l-5,3.5,5,1.5ZM195.5,608c-.65,0-.65,1,0,1s.65-1,0-1ZM426,612v-2.5l-1.5-1.5-1.5,2.5,3,1.5ZM470,608h-4l-1,4h4l1-4ZM569.5,608l-1.5,1.5.5.5,1.5-1.5-.5-.5ZM574,615l4.5-2,5.5-4.5-6.5.5c-1.77,1.54-3.39,3.52-3.5,6ZM156,611v-2h-1v2h1ZM181,609c-2.82-.23-6.58-.05-8,3h5.5l2.5-3ZM258,609h-3v3c1.18-.31,1.49-1.42,3-1v-2ZM452,611v-2h-1v2h1ZM477,609c-1.25-.65-3.5,1.6-3,2,1.25.65,3.5-1.6,3-2ZM497,610l-3.5-1-1.5,3c3.68-.53,6.32,1.53,10,1,.72-3.5-3.31-2.02-5-1v-2ZM211,610h-2v1h2v-1ZM235,610c-2.4.06-4.57-.67-6,1.5,2.02,2.67,6.2,2.05,6-1.5ZM247,610h-4.5c-.92.5-3.09,4.42-2.5,5l4.5-1,2.5-4ZM416,617l-1-7c-.37,2.09-1.12,3.12-1,5.5.08,1.62.84,2.87,2,1.5ZM541,615l7-4.5-3.5,1.5-3.5,3ZM200,611h-7.5l-2.5,3c3.51-.51,9.96,1.88,10-3ZM534,612c-1.85.87-4.7-1.23-5.5-1-3.24.93-4.31.93-8,1-1.22.02-3.73-.75-3.5,1l8.5,2h6l2.5-3ZM558,618c2.7,1.2,9.94-4.8,8-7-2.99,1.94-6.18,3.77-8,7ZM160,614v-2h-1v2h1ZM182,615c1.9.29,3.29-1.1,3-3l-3,3ZM145,627c-2.58-.23-4.67-2.63-6.5-4-4.1-3.07-4.79-4.27-8-8-.96-1.11-1.84-2.32-3.5-2,.56,1.25,1.13,2.41,2,3.5,2.74,3.4,9.38,9.61,13,11,1.05.4,3.07,1.5,3-.5ZM137.5,613l-.5.5,1.5,1.5.5-.5-1.5-1.5ZM264,615v-2h-1v2h1ZM451,614l-4.5-1c-2.07.43-6.29-1.51-5.5,2,2.16-.03,4.33.04,6.5,0,1.22-.03,3.73.75,3.5-1ZM163.5,614c-.65,0-.65,1,0,1s.65-1,0-1ZM179,614c-1.44.15-3.13-.22-4.5,0-.38.06-.62.93-1,1-1.21.23-6.45-.49-5.5,2.5.68,2.13,4.72,1.43,6.5,1.5l4.5-5ZM259,614h-4v2c1.88.24,3.47,0,4-2ZM467,615l-5-.5-8-.5,2.5,2c2.26.2,4.82-.29,7,0,.71.09,2.19,2.59,3.5-1ZM490,614h-5.5l-1.5,2c1.86.41,2.88-.61,4.5-1,1.05-.25,2.77.79,2.5-1ZM153,619c.35.44.66,1.6,1.5,2h.5c.08-.63-.16-1.57,0-2,.05-.12,1.52.09,1-2l-3.5-2-1.5,1.5c1.13.5.82,1.7,1,2,.43.72.97.46,1,.5ZM423,615c-.13,1.48-.24,4.51,1.5,5,4.67,1.31,5.01-6.71-1.5-5ZM474,615h-3v2h1.5l1.5-2ZM528,618l-7.5-2-6.5.5,2.5,3.5,4,1,3.5-2,.5,2,3.5-3ZM197,616c-1.71.19-2.57.83-4.5,1s-4.02-.12-6,0l-2.5,2h7.5l5.5-3ZM512,616h-6v1l2.5,1h2l1.5-2ZM225,617h-2v1h2v-1ZM232,619l-1.5-2h-4.5v2h6ZM431,619v-2h-1v2h1ZM452,619c-1.55-3.64-6.96-1.44-10-2-1.37,1.15-.13,1.92,1.5,2,2.82.14,5.69-.1,8.5,0ZM545,617h-5v2c2.17.54,3.14-1.11,5-1v-1ZM235.5,618c-.65,0-.65,1,0,1s.65-1,0-1ZM270,619l1.5,3,2.5-1.5v-2.5l-4,1ZM455,618h-2v1h2v-1ZM461.5,618c-.65,0-.65,1,0,1s.65-1,0-1ZM490.5,618c-4.29,4.54,3.08,4.26,6,4l4.5-2.5c.08-2.27-8.75-1.35-10.5-1.5ZM553,620v-2l-2,1.5v.5h2ZM163,623l-3.5-3h-3.5l7,3ZM288,629l2-3.5-1-6.5c-1.75-.23-.97,2.28-1,3.5-.04,2.17.03,4.34,0,6.5ZM416,619h-3c.75,1.83-.84,2.91-1,3.5-.22.85.21,2.11,0,3-.11.46-1.55.88-1,2.5h6l-1-9ZM486,619c-1.82.03-3.67-.04-5.5,0-1.22.03-3.73-.75-3.5,1l7.5,1,1.5-2ZM142.5,620l-.5.5,1.5,1.5.5-.5-1.5-1.5ZM531,621h-2v1h2v-1ZM552,623l3-1.5-.5-.5-2.5,1v1ZM505,622h-2v1h2v-1ZM508,622h-2v1h2v-1ZM154,623h-2v1h2v-1ZM275,623l-5,1v2l-2.5-1c-1.31,1.77-1.07.46-2,0-1.51-.74-1.83.78-1.5,2h11v-4ZM425,623h-2v4h2v-4ZM172,626l-1.5-2h-3.5v1c1.86-.11,2.83,1.54,5,1ZM427,627h2.5l1.5-1.5-2.5-1.5-1.5,3ZM450,624l-8,1,4.5,1,3.5-2ZM175.5,625c-.65,0-.65,1,0,1s.65-1,0-1ZM216,625h-18c-.09,1.93,3.14.8,4.5,1,.38.06.64.96,1,1,2.09.23,5.95.26,8,0,.37-.05.61-.93,1-1,1.27-.24,3.7.89,3.5-1ZM243,625c-2.49.03-5-.05-7.5,0-1.22.02-3.73-.75-3.5,1,1.95-.53,2.91.81,4.5,1,1.47.17,3.46.08,5,0,1.63-.08,2.87-.85,1.5-2ZM248.5,625c-.65,0-.65,1,0,1s.65-1,0-1ZM260,627c-1.54-3.95-4.19-.63-7-1-.25,1.66,1.35.95,2.5,1,1.5.06,3.01-.04,4.5,0ZM436,625h-2v1h2v-1ZM549,625l-4,1v1l4-1v-1ZM197,626h-3v1h3v-1ZM471,626h-5v1h5v-1ZM175,627h-2v1h2v-1ZM159.5,628c-.65,0-.65,1,0,1s.65-1,0-1ZM556,635c-.45-2.3.29-2.57,1.5-4,.64-.76,2.78-1.96,2-3l-13,6h-14.5v2c-1.12-.13-2.48.21-3.5,0-.42-.09-3.63-1.93-4-2-2.21-.39-5.16.28-7.5,0l-1.5,3c-1.58-.7-2.7.94-3,1-1.36.25-4.58-.96-4.5,1,5.06-.3,10.49.41,15.5,0,1.77-.14,7.23-1.86,9-2,9.5-.77,19.9.57,29.5,0l-1-4.5-1-1.5-4,4ZM165,629h-4v1h4v-1ZM224,629h-26v1h26v-1ZM426,632h-2v1h2v-1ZM516,634c-1.75-.19-3.84.28-5.5,0-3.44-.57-6.52,1.58-9,1-4.86-1.14-8.6-1.11-14-1-1.22.02-3.73-.75-3.5,1l5.5,2c7.18.07,14.13-.21,21-1,.37-.04.62-.94,1-1,1.36-.2,4.59.93,4.5-1Z"/>
  <path d="M523,302c-.33.04-.68-.06-1,0,.35-.7.06-.59,1-1v1Z"/>
  <path d="M561,588c.05-.05-.13-1.18,1-1,.18,1.13-.94.94-1,1Z"/>
  <path d="M259,163l-1-.5c0-.64.95-.45,1-.5-.16.21.17.83,0,1Z"/>
  <path d="M259,162c.05-.05-.13-1.18,1-1-.63.86-.96.94-1,1Z"/>
  <path d="M456,205l1-1-1,1Z"/>
  <path d="M459,220c.15-.23-.15-1.17,1-1l-1,1Z"/>
  <polygon points="155 619 153 619 153.5 618 154.5 618 155 619"/>
  <path d="M261,474c-.17-1.15.85-.89,1-1l-1,1Z"/>
  <path d="M522,302c-.14.29.16.87,0,1h-2l.5-1c.45-.17,1.03.08,1.5,0Z"/>
  <path d="M560,589c.48-.57.71-.71,1-1-.06.06.34.69-1,1Z"/>
</svg>