<?xml version="1.0" encoding="UTF-8"?>
<svg id="Capa_1" data-name="Capa 1" xmlns="http://www.w3.org/2000/svg" viewBox="0 0 694 694" fill="currentColor">
  <path d="M65,117c-.03-2.47-.11-4.19,1-6.5,1.25-1.4,2.79-2.58,4-4,9.77-11.47,25.93-20.79,38.5-29.5,11.69-8.1,23.49-16.25,36-23,1.9-1.03,7.56-4.69,9-5,.88-.19,3.88-.35,4.5.5-1.23,1.5-2.85,2.56-4.5,3.5-3.22,1.82-7.64,3.36-11,5l-4,4c1.08-1.09,2.55-1.6,4-2,5.33-1.46,10.68-2.51,16-4,22.01-6.16,45.93-15.96,70-10l3.5,3-5-.5c-14.53-3.32-28.63-.06-42.5,2.5l-2.5,2,4.5-1c17.09.28,33.24-2.29,50,0,11.58,1.58,27.37,9.06,38,15,6.78,3.79,14.28,7.11,21,11,.67.39,1.29,1.48,2,2l3-2c2.82.23,4.14,2.57,6,4,5.45,4.19,17.09,14.37,20.5,20.5,1.22,2.19,7.43,9.6,10,13,1.63,2.17,3.15,2.4,5,5,1.46,2.06,3.31,2.23,1,5.5l9-8.5c3.93-9.15,16.89-13.14,20-22.5.17-.17.94.2,1.5,0,.85-.31.69-1.85,2,0,8.49-8.72,19.02-13.88,29-21l16.5-7c.06-2.07-1.99-.8-3-.5-12.22,3.68-26.06,12.72-35.5,20.5-1.03.85-3.35,3.79-4,4-.93.3-3.4.27-2.5-1.5.47-.92,6.26-6.49,7.5-7.5.19-.16.79.17,1,0,11.21-8.88,20.62-14.75,35-19,10.11-2.98,21.43-7.14,32-9,6.33-1.12,12.97-3.45,19-4,13.86-1.26,29.45.94,43.5,0,.19.19-.27,1.03,0,1.5,1.34,2.36,3.49,1.13,5.5,1.5,6.35,1.16,13.44,2.6,20,4,13.87,2.97,26.5,10.66,40,15,.35.11.57.75,1,1h.5c-.28-2.01,1.24-3.32,3-3v2c2.43.1,5.9,3.57,6,6h2c-.26,1.29.39,2.29,1.5,3,9.34,5.97,19.58,13.46,27.5,22.5,9.85,11.25,15.76,24.8,23,38,4.41,8.03,10.91,16.09,14,25v2c-2.6,4.69.81,10.48,2,15,3.32,12.56,5.95,25.96,8,39,.22,1.38-.14,3.05,0,4.5,6.79-5.27,3.51,1.81,0,4.5-.34,5.2.47,10.87,0,16-.14,1.49-.71,4.7-1,7-3.05,24.01-7.43,46.97-18,69l-2,6,2-1,6.5-11.5c2.23-.62,1.75,2.43,1.5,3.5-.29,1.22-2.43,3.06-3,4-3.35,5.55-6.51,11.33-10,17-12.6,20.44-24.03,43.02-38,63-9.52,13.62-20.19,26.34-31,39-5.22,6.11-9.69,12.78-16.5,17.5-1.15.8-3.39,4.14-3.5.5,1.1-.46.82-1.72,1-2,3.32-5.27,14.28-14.51,19-20,4.36-5.07,7.95-11.16,13-16l15-20,1-4.5-4,6.5c-1.24,1.4-2.81,2.58-4,4-10.74,12.8-22.7,26.27-34,39-15.82,17.82-32.6,33.83-49,52-4.14,4.59-11.24,10.95-15.5,14.5-1.41,1.17-2.59,2.88-4,4-1.59,1.26-1.03.97-2.5-.5l5.5-7.5c-3.8,3.5-7.15,7.56-11,11-2.05,1.83-5.9,4.21-8,6-21.7,18.46-43.19,37.54-64,57-6.19,5.79-11.86,12.16-18,18-5.07.52-1.37-2.84.5-4.5-.32-.48-2.37.42-2.5.5-.38.25-1.3,1.14-1.5,1.5-3.74,6.59-22.76,16.21-25,24-.27.94-11.1,8.72-14,12-1.01,1.14-5.26,5.83-6.5,5.5-2.53-2-.84-1.54,0-3,1.53-2.66-3.33-4.88-2.5-1-2.07.37-3-1.72-4.5-3l-1,1c-.32,0-.57-.84-1-1-.56-.2-1.33.17-1.5,0-.19-.19.26-1.03,0-1.5-.62-1.11-2.66-2.31-3.5-3.5l1.5,5c-5.09.44-6.41-5.79-9.5-9l-2.5,1c-.16-1.09.25-2.58,0-3.5-.12-.44-5.53-5.68-6.5-6.5-12.7-10.74-26.51-21.29-39-32l-13-13,1.5,4c3.28.19,3.04,2.63,5.5,4,.48.27,4.28,4.07,4.5,4.5.9,1.77-1.57,1.8-2.5,1.5-.49-.16-1.31-1.53-2-2-1.58-1.08-2.87-1.5-4.5-3.5-2.79-3.41-24.13-27.85-26.5-28.5-1.09-.3-2.91.3-4,0-.94-.26-4.83-4.07-6-5-22.86-18.08-44.8-39.43-66-60-16.58-16.09-32.37-31.92-46.5-49.5-1.72-2.14-5.06-3.79-5-6.5l-2,1v-2h-3c0-2.33-2.64-4.54-4-6.5-13.2-19-26.84-38.31-39-59-2.1-3.57-3.93-7.63-6-11-1.06-1.72-2.94-3.47-3-5.5v3.5c1.55.81.69,2.29,1,3,2.62,6,8.29,16.73,12,22,1.49,2.11,5.71,3.85.5,5.5-1.04-1.48-2.52-3.1-3.5-4.5-6.14-8.83-10.97-20.91-15-31-17.93-44.91-25.81-91.37-28-141l1-4.5,3,4c-.75-1.83.85-2.92,1-3.5,4.49-17,8.37-34.72,16-51,4.42-9.42,7.62-20.29,13-30,.38-.69,1.61-1.31,2-2,.26-.47-.19-1.31,0-1.5.11-.11,2.15-.15,3-1,.6,3.37-1.26,5.5-3,8l7-7c.01.86-.31,3.07,1,1.5,0-1.81,1.96-2.76,3-4,.17-.2-.16-.81,0-1,2.41-2.8,5.52-5.23,8-8l1.5-3.5-13.5,15ZM224,56l-4.5-1h-5.5l2.5,2c1.33.02,2.67-.03,4,0,1.17.02,3.75.71,3.5-1ZM478,55c-3.11.19-6.41-.27-9.5,0-.36.03-.64.96-1,1-2.71.28-6.19-.89-8,1l-5.5,1c3.44-.2,7.08.28,10.5,0,1.98-.16,5.41-.7,8-1,.37-.04.62-.94,1-1,1.36-.2,4.59.93,4.5-1ZM520,57l-14-2c-.39,2.72.44,1.95,2.5,2,2.59.06,4.11.9,5,1,.97.11,2.02-.08,3,0,1.07.09,3.78.67,3.5-1ZM190.5,57c-.65,0-.65,1,0,1s.65-1,0-1ZM189,58c-2.79.16-5.71-.23-8.5,0-5.85.48-12.2,2.17-18,3l-5.5,3,6.5-2c6.91-.79,12.96-1.24,20-2,.36-.04.62-.94,1-1,1.36-.2,4.59.93,4.5-1ZM260,63c-1.65.53-1.91-.79-2.5-1-2.57-.93-6.39-1.09-9-3l-5.5-1,5.5,3,11,4,.5-2ZM523,58h-2v1h2v-1ZM221,63c-1.06-3.49-4.88-.86-6.5-3l-9.5-1,2.5,3c1.08-.57,1.54.9,2,1,3.09.69,8.12-.5,11.5,0ZM236.5,59c-.65,0-.65,1,0,1s.65-1,0-1ZM472,60h-3v1h3v-1ZM508,63c-2.36.6-3.8-.74-5.5-1-1.97-.3-1.59.41-1.5,2h4l1,3,2-4ZM154,63l-4.5,1-11.5,6.5,5.5-1.5,7-3,3.5-3ZM439,63h-2v1h2v-1ZM455,63l-14.5,4c-1.44,2.12-3.73,2.14-6,3l-3.5,3c1.72.4,3.31-1.57,4.5-2,5.14-1.88,10.79-2.49,16-5l3.5-3ZM499,63h-2v1h2v-1ZM539,74c.32-2.44-1.86-2.94-3.5-4-1.33-.86-4.68-3.91-5-4-1.32-.36-3.55.31-5,0-1.21-.26-5.19-2.73-7-3-2.9-.42-6.49.3-9.5,0l3,1-1,4c1.12.13,2.47-.21,3.5,0,.38.08.6.9,1,1,1.82.46,4.39-.1,6,2l3.5-2,1.5,3,3,1,9.5,1ZM566,71l-6.5-3-12.5-3.5,3.5,2.5c4.58.62,8.38,2.95,12.5,4.5,1.05.39,3.07,1.5,3-.5ZM195,65c-1.77.16-3.79-.24-5.5,0-.52.07-2.94,1.9-5,1l-4.5,3,8.5-1c.58-.45,2.71-1.93,3-2,1.25-.29,3.7.92,3.5-1ZM221,68v-2h-1v2h1ZM497,67l-6-1v1l6,1v-1ZM201,67c-1.47-.26-2.61.14-4,.5-1.51.39-3.03.54-4,2,2.16,2.79,5.29,1.3,7.5.5,1.08-.39.32-2.08.5-3ZM209,67h-6v.5l1.5,1.5h3l1.5-2ZM255,70c-1.2.04-2.43-.55-3.5-1-.79-.33-3.54-1.92-4-2-1.64-.29-3.76.2-5.5,0l5.5,3c1.67.23,3.56,1.46,5,2,1.81.68,3.09.02,2.5-2ZM503,68h-4v1h4v-1ZM179,71c-1-3.14-2.34-.69-4.5-1l-2.5,2,7-1ZM234,69l-6,1.5,3.5.5,2.5-2ZM472,70h-5.5l-3,4-5,1-1.5,4c2.44.64,4.21-3.63,5.5-4,2.53-.73,3.65-1.77,6-2l3.5-3ZM492,70c-3.21-.22-6.22-1.73-9.5-1-.37.08-.58.84-1,1-1.38.52-3.08-1.19-2.5,2l9.5,3c1.24-1.57,3.77-2.66,3.5-5ZM162,70c-1.21-.36-8.77,3.36-7,5l4-1.5,3-3.5ZM206,72l1.5,3,4-1,4.5-2.5c-3.21-3.94-6.33.97-10,.5ZM239,70h-3.5l-1.5,2.5,3.5,3.5,3.5,1c-.06-2.66-2.6-4.3-2-7ZM137,71h-2v1h2v-1ZM188,71c-1.9-.29-3.29,1.1-3,3l3-1v-2ZM521,73l-3.5-1-6.5-1,3.5,2,6,2,.5-2ZM133.5,72c-.65,0-.65,1,0,1s.65-1,0-1ZM266.5,72l3,3c4.83,2.57,9.62,4.88,14,8l10.5,4.5-13.5-9.5-14-6ZM498,72c-.7-.62-6.07,1.92-5,4,1.94.55,2.34-1.3,3.5-2,.89-.54,2.34.58,1.5-2ZM569,72h-2v1h2v-1ZM147,73l-5.5,2-29,15-3.5,3c3.04.81,4.74-2.05,6.5-3,5.25-2.84,11.16-4.68,16-7,3.98-1.9,7.88-4.73,12-6l3.5-4ZM182,73l-5.5,1-4.5,3,6.5-1,3.5-3ZM247,78c5.73-1,2.8-6.26-2-5l2,5ZM442,73l-15.5,7-4.5,4,15.5-7,4.5-4ZM550,74l-2.5-1-.5.5,3,1.5v-1ZM420.5,74c-1.14.35-3.64,2.9-4,3-.62.18-1.38-.18-2,0-.52.15-5.33,4.72-6.5,5.5l4.5-1.5,5-3,3-4ZM479,74h-2l1.5,2h.5v-2ZM198,75h-5.5l-2.5,3,5.5-1,2.5-2ZM506,75c-3.01.1-7.09-1.12-7,3l5,1c-.52-1.98,1.52-2.34,2-4ZM545,75h-3v1c1.51-.42,1.82.69,3,1v-2ZM551.5,75c-.65,0-.65,1,0,1s.65-1,0-1ZM566,75l9.5,7c4.34,2.34,8.83,4.88,13,8,1.4,1.05,2.6,2.85,4,4l3.5,1.5-19.5-16.5-10.5-4ZM481,76v2.5l1.5,1.5,2.5-2.5-1.5-1.5h-2.5ZM533,77c-1.86.11-2.83-1.54-5-1,.37,2.02,2.49,1.73,3.5,3l1.5-2ZM553.5,76l-.5.5,1.5,1.5.5-.5-1.5-1.5ZM169,77h-4v2l4-1v-1ZM218,77l-6,1.5,2.5,2.5,3.5-4ZM262,84c-1.45-6.52-6.46-9.98-11-3.5l4.5,2.5,6.5,1ZM478,83l-3.5-6c-.95,1.44-2.66,3.19-3.5,4.5-.15.24.15.76,0,1-.74,1.16-2.52,1.55-2,3.5,3.3-.35,5.83-2.42,9-3ZM184,78c-1.86-.41-2.88.61-4.5,1s-2.98-1.08-2.5,2l4.5-1,2.5-2ZM233,80l-2-2v2h2ZM469,78c-1.01-.95-3.76,2.17-4.5,3-1.44,1.62-2.11,1.22,0,3l4.5-6ZM512,81l-1.5-3-2.5,2,4,1ZM539,80l-1.5-2h-1.5v2h3ZM565,82c.34-2.26-.85-2.37-2.5-3s-2.23-1.35-3.5.5l6,2.5ZM203,79l-4.5,1-4.5,2.5c1.71,2.01,1.52,1.73,3.5.5s4.58-1.97,5.5-4ZM229,83c.31-1.76-1.36-3.29-3-4-.31,1.76,1.36,3.29,3,4ZM451,81l3-1.5-.5-.5-2.5,1v1ZM491,79c-2.37-.47-4.03.82-5,3,1.21.48,5.77-2.38,5-3ZM156,80l-5,1v1l5-1v-1ZM173,80l-5,1v2l5-1v-2ZM225,86l-3.5-6-3.5,1,3,3.5,4,1.5ZM267,81c-1.51.42-1.82-.69-3-1l1,4,2-1.5v-1.5ZM501,81c-2.43.41-4.12-1.66-6.5-1-.96.26-4.14,4.64-5.5,5.5,3.95,4.77,4.28,1.97,7.5-.5.22-.17.8.16,1,0,1.22-.97,2.81-2.59,3.5-4ZM519.5,80c-.56.15-1.73,2.01-2.5,2.5l6.5,3.5,3.5-2.5c-1.71-2.05-4.85-4.23-7.5-3.5ZM550,81l-8-1,2.5,3c2.07-.43,6.29,1.51,5.5-2ZM207,81l-5.5,2-3.5,3.5,2.5,3.5c3.2-2.43,4.18-5.85,6.5-9ZM241,83v-2h-1v2h1ZM447,82c-2.17-.54-3.14,1.11-5,1v2c1.72-1.3,4.33-.47,5-3ZM589,82c-.39,1.84,1.01,2.37,2,3.5,3.25,3.69,7.18,6.86,10.5,10.5.62-1.31-1.77-2.55-2.5-3.5-.17-.22.16-.81,0-1-1.42-1.76-3.5-3.26-5-5-.15-.17.18-.76,0-1-1.29-1.71-3.08-2.69-5-3.5ZM164,83c-2.95-.22-5.06-.02-7.5,1-1.58.66-2.87.68-2.5,3l6.5-1,3.5-3ZM190,83c-2.26-.27-4.5.88-6,2.5l3,1.5v2l5-2-4-.5,2-3.5ZM206,88c2.58.08,4.51-2.39,4-5-1.98.74-2.54,3.29-4,5ZM495,90c-.82.82,2,4.45,3.5,4,.66-1.06,1.58-.86,2.5-1.5,1.23-.86,2.27-2.62,3.5-3.5.06-.05.6.07,1.5-.5,1.51-.95.95-2.56,1-4-2.45-3.1-2.71-.71-4.5.5-.24.16-.8-.15-1,0-2.1,1.54-3.62,5.03-6.5,5ZM560,85c-1.15.53-4.78-2.26-5-2-.46,2.61,1.93,2.6,3.5,4l1.5-2ZM578,89l-2.5-3-7.5-3,.5,3c1.99-.42,2.76.63,4,2l5.5,1ZM111.5,84c-2.76,1.75-5.47,2.77-7.5,5.5l3.5-1.5,4-4ZM237,86c.5-.4-1.75-2.65-3-2-.5.4,1.75,2.65,3,2ZM244.5,84c-4.05,1.16,1.98,6.05,3,7l.5-3.5c-1.09-.87-1.51-4.07-3.5-3.5ZM270.43,83.04l-3.46,2.07,1.24,2.06,3.46-2.07-1.24-2.06ZM304,84l7,6.5,3,2c-2.25-2.06-4.22-4.48-6.5-6.5-1.12-.99-1.66-2.39-3.5-2ZM540,87c-.46-2.43-2.39-1.61-3.5-2-.58-.2-.85-1.53-2.5-1l2.5,2,3.5,1ZM147,86c-1.86-.11-2.83,1.54-5,1l2.5,3c1.2-1.33,2.89-2.1,2.5-4ZM215,86c1.11,3.02,2.94,6.01,6,2.5l-6-2.5ZM233,89l-3-3c-.29,1.9,1.1,3.29,3,3ZM435.5,86c-.65,0-.65,1,0,1s.65-1,0-1ZM454,91l5-5c-3.4-.64-4.82,2.71-7,4.5l2,.5v2l3.5,1,4.5-4.5c-2.58-3.65-4.92,2.03-8,1.5ZM464,86h-2v1h2v-1ZM482,86c-1.93-.49-2.34,1.2-3.5,2-.24.17-.8-.15-1,0-.82.62-3.39,3.13-2.5,4l3.5-2,3.5-4ZM515,86c-2.52-.52-3.48.84-5,2.5l2,6.5c2.33.28,3.42-2.24,5-3.5l-2-5.5ZM179,87c-1.88-.24-3.47,0-4,2h4v-2ZM280.5,87c-.65,0-.65,1,0,1s.65-1,0-1ZM537,89l-5-2c-.77.78,1.76,3.75,2.5,4,1.75.59,3.05.19,2.5-2ZM263,88h-4v.5c1.1,1.54,2.14,1.73,4,1.5v-2ZM474,88h-2v1h2v-1ZM519.5,88c-.65,0-.65,1,0,1s.65-1,0-1ZM553,91l-4.5-2-3.5.5c1.87,1.45,6.68,5.5,8,1.5ZM134,93l4.5,1,2.5-2.5-3.5-2.5-3.5,4ZM162,89h-2v1h2v-1ZM191.5,89c-1.03.28-1.84,1.67-1,3,.57.91,3.96,4.33,5,4l2.5-3.5c-1.29-1.55-4.41-4.08-6.5-3.5ZM205,93c-.37,1.96,1.39,2.74,2.5,4h1c1.05-1.52,2.64-1.91,4-3,3.08-2.46.92-5.88-2-5-1.33.4-3.09,4.66-5.5,4ZM239,89l-2,1.5,5,4.5-3-6ZM405,93c2.24.32,3.34-2.13,5-3.5l-.5-.5c-1.48,1.26-3.75,1.7-4.5,4ZM433,97c-.23-3.54,6.09-3.73,6-8l-6.5,2-4.5,3.5,5,2.5ZM486,89c-.98-1.03-4.8,3.16-5.5,4-.84,1.02-1.91,1.29-1.5,3l3.5,1,4.5-4.5-1-3.5ZM563,93l-1-1.5,1-2.5-3,2.5,3,1.5ZM567,91l-1-2v2.5l2.5,3.5-1.5-4ZM227,93l-2.5-3h-1c-1.19,2.22-4.43,1.14-3.5,4.5.71,2.55,2.12.54,3,0,1.13-.7,2.65-1.58,4-1.5ZM258,93l-3-3v3h3ZM173,98l1-3.5c-2.06-2.99-5.93-5.46-8-1-.85,1.84,3.02,1.83,3.5,3.5l3.5,1ZM184,91h-2v2l2-2ZM506.5,91l-5.5,5.5,3.5,4.5,5.5-4.5c-1.52-1.24-.62-6.37-3.5-5.5ZM523,100c3.06-.15,5.03-2.44,7-4.5l-2.5-4.5c-1.98-.59-5.06,2.52-6.5,3.5l1,1,1,4.5ZM602,91c1.4,2.59,4.16,4.28,6,6.5,7.15,8.64,13.47,18.39,21,27,1.39,1.59,3.08,2.94,4.5,4.5l-2.5-5.5c-4.84-8.27-11.9-19.13-19.5-24.5-1.98-1.4-4.03-4.26-6-6-1.12-.99-1.66-2.39-3.5-2ZM155,92h-4v1h4v-1ZM264,92l3.5,4,.5-.5c-1.4-1.57-1.39-3.96-4-3.5ZM273,95c.65-1.25-1.6-3.5-2-3-.65,1.25,1.6,3.5,2,3ZM279,93l4.5,2,.5-.5-5-2.5v1ZM465.18,92.21l-2.25,3.75,1.62.97,2.25-3.75-1.62-.97ZM576,92h-2v1h2v-1ZM412,95v-2l-2,1.5v.5h2ZM133,97l-3.5-3-3.5,4,7-1ZM159,94l-5,1v1l3.5,1,1.5-3ZM184.79,93.18l-.97,1.62,4.78,2.87.97-1.62-4.78-2.87ZM237,98c.39-1.9-1.3-2.67-2.5-4l-.5.5c1.27,1.01.98,3.13,3,3.5ZM266,99l-4.5-5-3.5,2.5,2.5,4.5,5.5-2ZM305,100c-2.37.05-4.52-2.73-6.5-4-.24-.15-.76.15-1,0-1.16-.74-1.55-2.52-3.5-2-.35.31,1.89,2.56,2.5,3,.69.51,3.17,1.49,4,2,1.42.87,2.93,1.66,4,3l.5-2ZM450,95l2.5,1,.5-.5-3-1.5v1ZM472.5,94c-.65,0-.65,1,0,1s.65-1,0-1ZM578,94l6,6.5,3,2c-2.75-3.24-4.68-7.06-9-8.5ZM121.5,95l-1.5,1.5.5.5,1.5-1.5-.5-.5ZM211,101c.41.37,7.53-2.29,7-4.5l-4.5.5-2.5,4ZM227.5,95l-4.5,3.5,3.5,5.5c1.45-.3,6.5-3.84,6.5-4.5l-3.5-4.5h-2ZM249,97v-2h-1v2h1ZM489.5,95l-5.5,4.5,2.5,3.5c2.82-.5,4.63-2.51,6.5-4.5l-3.5-3.5ZM536,103c2.16-1.54,4.27-2.44,6-4.5l-3.5-3.5-3.5,2.5,1,5.5ZM555.5,95c-.65,0-.65,1,0,1s.65-1,0-1ZM562,96l-4-1,1.5,2h2.5v-1ZM279,105c.64-2.42-1.29-3.87-2-5.5-.32-.73.61-1.96-1-3l-3,.5,1.5,3,4.5,5ZM284,103c.64-3.4-2.71-4.82-4.5-7l1.5,4.5,3,2.5ZM398.5,96c-.65,0-.65,1,0,1s.65-1,0-1ZM423,96c-.71-.63-7.58,3.09-8,4.5-.36,1.2.4,3.15,1.5,3.5,3.12,1,2.06-1.17,3.5-2.5-.2-1.07,3.5-5.05,3-5.5ZM450,97l-3-.5-4,6.5c.56.63,3.23-3.67,4.5-3l2.5-3ZM469.75,95.75l-4.5,4.5,1,1,4.5-4.5-1-1ZM515,106c2.5-.12,4.44-1.71,6-3.5l-2-6.5c-2.74,2.06-5.92,2.42-5,6.5.11.5,1.77,1.69,1,3.5ZM111.5,97c-.65,0-.65,1,0,1s.65-1,0-1ZM170,102l-5.5-5-2.5,2.5,4.5,4.5,3.5-2ZM179.5,97l-2.5,4.5c2.64,3.36,4.36,3.36,7,0l-4.5-4.5ZM476.5,97l-.5.5,2.5,2.5.5-.5-2.5-2.5ZM555,98l-4-1c-.32,1.5.44,2.06,1.5,3h1l1.5-2ZM603,114c.13-2.01.3-2.81-1-4.5-2.2-2.86-6.66-6.32-9.5-8.5-.21-.16-.79.16-1,0-1.41-1.09-2.6-2.82-4-4-.62,1.31,1.76,2.56,2.5,3.5,1.62,2.06,3.16,3.49,4,5,1.31,2.35,6.79,6.41,9,8.5ZM83.5,98l-3.5,3.5.5.5,3.5-3.5-.5-.5ZM109.5,98c-2.35,1.4-4.29,3.42-7,4l-5.5,5.5,7.5-4.5,5-5ZM145,98h-2v1.5l1.5,1.5h.5v-3ZM149,98l.5,5c.86-1.07,4.11-1.55,3.5-3.5-.44-1.39-2.66-1.75-4-1.5ZM201.04,97.76l-.58,3.49,2.59.43.58-3.49-2.59-.43ZM292.5,98l-.5.5,3.5,3.5.5-.5-3.5-3.5ZM429,99l-3-.5-4,6.5c1.16,1.08,6.43-4.69,7-6ZM458,98h-2v1h2v-1ZM572,101v-3h-.5l-1.5,1.5,2,1.5ZM579,105c-1.46-2.29-1.14-7.06-5-7,1.45,1.59.63,3.17,1,4.5.19.67,3.21,3.28,4,2.5ZM117,99c-1.3-1.09-9.75,5.62-11,7.5l8.5-4.5,2.5-3ZM244,99h-2v1h2v-1ZM470,104l6-2.5-2.5-2.5-3.5,5ZM550,102v-1.5l-1.5-1.5-1.5,1.5v1.5h3ZM129,102v-2c-1.18.31-1.49,1.42-3,1v1h3ZM219.5,100c-2.13,2.55-6.52,2.58-3.5,6.5.69.9,1.76,1.62,2.5,2.5l4.5-2.5c.57-1.94-2.41-4.94-3.5-6.5ZM251,100c.37,2.02,2.49,1.73,3.5,3l.5-.5c-1.33-1.2-2.1-2.89-4-2.5ZM270,100c-.85-.84-6.81,3.41-8,4.5l6.5,6.5,4.5-2.5-3-8.5ZM399,100c-2.69-.39-3.27,3.12-5.5,3l-3.5,4,5.5-2,3.5-5ZM532,100c-3.65,1.46-8.66,5.15-4.5,9l5.5-3.5-1-5.5ZM240.26,101.98c0-.68-.55-1.24-1.24-1.24s-1.24.55-1.24,1.24.55,1.24,1.24,1.24,1.24-.55,1.24-1.24ZM390.5,101l-1.5,1.5.5.5,1.5-1.5-.5-.5ZM446,104c-.82.86,2.02,4.45,3.5,4l5.5-5.5-3.5-1.5-5.5,3ZM489,105l4.5,5,5.5-4.5-3.5-4.5-6.5,4ZM563.26,101.98c0-.68-.55-1.24-1.24-1.24s-1.24.55-1.24,1.24.55,1.24,1.24,1.24,1.24-.55,1.24-1.24ZM121,102c-1.04-1.15-7.14,4.94-6,6l3,.5c.72-.78,3.57-5.87,3-6.5ZM136,105v-3h-.5l-1.5,1.5v1.5h2ZM144,103l-5-1-1,4.5c3.11,3.7,5.62.08,6-3.5ZM157,102c-1.9-.39-2.67,1.3-4,2.5l1.5,1.5h1.5l1-4ZM431.25,101.25l-5.75,5.75,1,1,5.75-5.75-1-1ZM463,104v-2h-1v2h1ZM500.5,102c-.65,0-.65,1,0,1s.65-1,0-1ZM513,109l-1-5.5-1.5-1.5-2.5,1c-.72.74,2.5,6.83,5,6ZM544,104v-2l-3,2.5.5.5,2.5-1ZM554,103l2.5,4,1.5-3.5-1.5-1.5-2.5,1ZM208,103c-1.88-.24-3.47,0-4,2,1.88.24,3.47,0,4-2ZM229,109l7-4.5-3.5-.5-2,2-1.5,3ZM586,106c-.22-1.33-3.17-3.83-4-3v2.5l1.5,1.5,2.5-1ZM124,106v-2h-1v2h1ZM248,108c.39-1.9-1.3-2.67-2.5-4l-.5.5c1.27,1.01.98,3.13,3,3.5ZM252,106v-2h-1v2h1ZM408,104l-4,2.5-2,5.5c.92-.18,2.61.58,3-.5.53-1.45,3.46-7,3-7.5ZM482,105l-3.5-1-3.5,2.5,4.5,3.5,2.5-5ZM548,105l2.5,6,2.5-3.5-2.5-3.5-2.5,1ZM162.43,104.04l-4.26,2.56,1.24,2.06,4.26-2.56-1.24-2.06ZM174.9,104.8l-1.1,3.3,3.3,1.1,1.1-3.3-3.3-1.1ZM294.5,105c-.65,0-.65,1,0,1s.65-1,0-1ZM382,110c2.3-.75,2.74-3.02,4-4.5l-.5-.5c-1.37,1.66-3.82,2.76-3.5,5ZM432,111c1.39,1.39,5.55-4.17,5-6-.3-.36-6.15,4.85-5,6ZM460,105l-3,2.5-1.5,2.5c.64-.81,4.98-4.53,4.5-5ZM469,108c.29-1.9-1.1-3.29-3-3v2l3,1ZM566,110l-1-5c-1.46.77-3,1.16-4,2.5v3.5l5-1ZM573,109c-1.02-1.99-1.45-4.39-4-4l1,4h3ZM189,105.5l-3,3,2,2,3-3-2-2ZM215,112c1.02-.91-2.71-4.37-3.5-5-1.28-1.02-2.13-.88-2.5.5-.16,1.85,4.51,5.84,6,4.5ZM244,111c.69-.82-2.36-5.8-3-5l2,5h1ZM287,110c.24-1.88,0-3.47-2-4-.24,1.88,0,3.47,2,4ZM408,115c1.84.39,2.37-1.01,3.5-2,1.05-.92,3.37-3,4-4,1.59-2.52-2.54-4.56-4.5-1.5l-3,7.5ZM134,108l-5.5-1-4.5,4,7.5,3c1.28-.68,1.15-1.66,1.5-2.5.28-.67,1.33-3.16,1-3.5ZM148,107l-1,2.5c1.85,5.6,10.94,3.77,4.5-1.5l-3.5-1ZM505.5,107l-.5.5,3.5,3.5.5-.5-3.5-3.5ZM523,107l-6,3,1,5,6-3.5-1-4.5ZM546,115c-.29-2.76,1.06-6.16-1.5-8l-6.5,2,3.5,8,4.5-2ZM84,108l-5,3.5-2,4.5,7-8ZM93,117c1.93.49,2.34-1.21,3.5-2,1.64-1.13,2.77-1.53,4.5-3.5.99-1.13,2.39-1.66,2-3.5l-6.5,4-3.5,5ZM163,112c1.64-.71,3.31-2.24,3-4-1.64.71-3.31,2.24-3,4ZM232,111l2.5,5,5.5-3.5-2-4.5-6,3ZM255.5,108c-1.87,1.67-1.4.98-.5,2.5.82,1.39,1.46,3.15,2,4,.83,1.32,1.95,1.77,3.5,1.5,1.87-1.67,1.4-.98.5-2.5-.82-1.39-1.46-3.15-2-4-.83-1.32-1.95-1.77-3.5-1.5ZM297,113l3-1.5v-1l-4-2.5,1,5ZM447,112c.7-.59-4.16-4.34-5.5-4l-5.5,5.5,5.5,2.5c1.75-1.36,3-4.2,5.5-4ZM463.5,108c-1.18,1.79-3.23,1.91-4.5,3.5-1.02,1.28-.87,2.14.5,2.5,2.68-.64,7.7-3.26,4-6ZM501.5,108l-5.5,4.5,3.5,3.5c1.8-1.54,4.81-1.18,6.5-3.5l-4.5-4.5ZM591,109l-2.5-1-3.5,1c-.88.88,3.24,6.62,4.5,7,3.08.92,1.99-.92,3.5-2.5l-2-4.5ZM225.25,108.25l-3.25,3.25,1.5,1.5,3.25-3.25-1.5-1.5ZM476,113c.08-2.58-2.39-4.51-5-4,0,1.56,4.79,4.25,5,4ZM485.5,109l-2.5,3.5,2.5,2.5,3.5-3.5-3.5-2.5ZM92.5,110c-.65,0-.65,1,0,1s.65-1,0-1ZM103,117l5.5-1,2.5-4.5c-1.07-1.08-1.33-2.06-3-1-.99.62-5.62,5.97-5,6.5ZM135,114c1.9.39,2.67-1.3,4-2.5l-3-1.5-1,4ZM170,110h-2l-1,4c.62.75,2.79-3.08,3-4ZM313,114c.39-1.9-1.3-2.67-2.5-4l-.5.5,2,3.5h1ZM420,113c.4.5,2.65-1.75,2-3-.4-.5-2.65,1.75-2,3ZM112.5,111c-.65,0-.65,1,0,1s.65-1,0-1ZM183.5,111l-1.5,1.5,1.5,1.5,1.5-1.5-1.5-1.5ZM195,111c-1.25-.65-3.5,1.6-3,2,1.25.65,3.5-1.6,3-2ZM205.75,110.25l-1,1,4.5,4.5,1-1-4.5-4.5ZM280.5,111c-.65,0-.65,1,0,1s.65-1,0-1ZM294,115v-2.5l-2-1,1,3.5h1ZM533.5,111l-4.5,4.5c1.4,1.8.98,3.96,3.5,5.5l4.5-2.5-1-3-2.5-4.5ZM583,117c1.15-1.05-4.95-7.15-6-6v4.5l1.5,1.5h4.5ZM88,116c1.64-.71,3.31-2.24,3-4-1.64.71-3.31,2.24-3,4ZM174,112h-2v3l2-1.5v-1.5ZM250.3,111.6l-1.4.7,3.2,6.4,1.4-.7-3.2-6.4ZM272,113c.17,3.34,3.75,5.69,6,2.5l-2.5-3.5-3.5,1ZM473,116c-.75-2.3-3.02-2.74-4.5-4l-4.5,5,3.5,1,5.5-2ZM574,112l-4,1,2.5,5,2.5-1-1-5ZM197,117c2.17-.71,3.39,2.67,4.5,3,1.19.36,3.18-.41,3.5-1.5.54-1.83-4.18-4.6-5.5-5.5l-2.5,4ZM290,113h-2c-.83.83,1.67,3.78,3,4l-1-4ZM450,113c-2.19.63-2,3.28-4,4.5l.5.5c1.37-1.66,3.82-2.76,3.5-5ZM130,117l-10-3-2,8,6.5,2h1c2.06-1.97,4.35-3.94,4.5-7ZM140.5,114c-.65,0-.65,1,0,1s.65-1,0-1ZM150,117c-.29-1.54-1.78-2.01-3-2.5-1.86-.75-1.78-.32-3,1l3,2,3-.5ZM158,117l2.5,1,1.5-1.5c-.52-3.64-4.05-3.1-4,.5ZM220,114h-3v2h1.5l1.5-2ZM229,114l-3,1.5,3.5,3.5-.5-5ZM250,121c.35-1.22-3.33-8.75-5-7,2.03,2.06,2.33,5.59,5,7ZM308,116c-1.98.52-2.34-1.52-4-2l1,4h1.5l1.5-2ZM320,118c.39-1.9-1.3-2.67-2.5-4l-.5.5c1.27,1.01.98,3.13,3,3.5ZM418,120c2.65.48,2.53-1.79,3.5-3,.63-.79,2.79-1.93,2-3l-5.5,6ZM482,115l-3-1v2l3,1v-2ZM562,119c7.93,1.41,8.3-6.29,0-5v5ZM607,114l-2,.5c.87,4.32,4.53,6.29,8,8.5,1.58-1.69-6.79-6.46-6-9ZM180,115c-1.9-.29-3.29,1.1-3,3,1.9.29,3.29-1.1,3-3ZM273,120c-.2-1.08-4.69-5.37-5-5,.32,2.76,1.65,5.75,5,5ZM402,119l1-2.5-4-1.5-1,4h4ZM415,115h-2v2l2-2ZM432,115c-1.1-1.03-5.62,4.01-6.5,5-1.44,1.62-2.11,1.22,0,3l4.5-4.5,2-3.5ZM514,118c.65-1.25-1.6-3.5-2-3-.65,1.25,1.6,3.5,2,3ZM115,121l1-5c-2.54,1.36-7.03,5.82-1,5ZM190.5,116c-.65,0-.65,1,0,1s.65-1,0-1ZM246,124l-.5-3-4-5-5.5,3.5c1.47,1.83,4.26,3.1,4,5.5l6-1ZM301,116l-2,.5c1.27,1.01.98,3.13,3,3.5l-1-4ZM456,116c-1.05-1.07-6.06,3.84-5,5,2.09-.99,5.14-2.1,5-5ZM490,119l2.5,1,1.5-1.5c-.52-3.64-4.05-3.1-4,.5ZM528,123l-1-4.5-1.5-2.5c-1.42,1.18-2.35,3.34-4.5,3,.14,1.92,5.93,5.07,7,4ZM557,116l-5.5,1c-1.2.15-.95,3.72,2,4,2.13.2,2.65-1.08,4.5-1l-1-4ZM73,131c1.84.39,2.37-1.01,3.5-2,2.71-2.38,4.36-4.91,6.5-7.5l1.5-4.5c-2.66,3.4-7.63,6.63-10,10-.48.68-1.95,3.52-1.5,4ZM165,119v-2h-1v2h1ZM285,120c.65-1.25-1.6-3.5-2-3-.65,1.25,1.6,3.5,2,3ZM364.5,117c-1.14,1.19-2.37,2.3-3.5,3.5-.57.61-2.4,1.69-1.5,2.5.98-1.02,2.02-1.98,3-3,.66-.69,2.76-2,2-3ZM438,118l-3.5-1c-1.71,2.06-3.26,4.38-4.5,7,1.86,1.61,7.19-4.38,8-6ZM506,120h2.5l1.5-1.5-1.5-1.5-2.5,3ZM91,120v-2l-4,3.5.5.5,3.5-2ZM158,120l-1.5-2h-1.5v2h3ZM221,118c-.39,1.9,1.3,2.67,2.5,4l2.5-1.5c-1.57-1.71-2.5-3.01-5-2.5ZM264,118l-3,1.5,2,5.5,3-1.5-2-5.5ZM295.88,117.97l-1.47.88,2.78,4.63,1.47-.88-2.78-4.63ZM371,118c-1.84-.39-2.37,1.01-3.5,2-2.99,2.63-5.55,5.81-8.5,8.5l-1.5,3.5c5.18-2.87,7.84-6.35,11.5-10.5.99-1.12,2.39-1.66,2-3.5ZM598,118h-2c-.37,2.4.48,4.24,3,4l-1-4ZM169,119h-2v2l2-2ZM184,119c-1.25-.65-3.5,1.6-3,2,1.25.65,3.5-1.6,3-2ZM197,121c.5-.4-1.75-2.65-3-2-.5.4,1.75,2.65,3,2ZM411,119h-4v1h4v-1ZM548,119c-.79-.81-6.92,1.35-6,4,2.1.37,3.63-.33,5.5-1,1.08-.38.32-2.08.5-3ZM70.5,120c-.65,0-.65,1,0,1s.65-1,0-1ZM137,127l2-5.5-5-1.5c.55,1.62-.9,2.06-1,2.5-.68,3.08.75,5.04,4,4.5ZM206,123h2.5l1.5-1.5-2.5-1.5-1.5,3ZM280,120h-2l1.5,2h.5v-2ZM293,123l-1.5-3-.5.5,1,2.5h1ZM310,123v-1.5l-1.5-1.5-1.5,1.5v1.5h3ZM376,129c.74.8,3.81-1.82,4-2.5s-.23-1.5,0-2c.61-1.31,2.3-2.74,2-4.5-1.6.85-6.92,8.01-6,9ZM478,120l-7,1.5,2.5,2.5h1l3.5-4ZM574,125c-.11-1.86,1.54-2.83,1-5l-3,1c-.24,1.88,0,3.47,2,4ZM588,120l2.5,6c3.25-2.33.68-5.91-2.5-6ZM189,121c-1.9-.29-3.29,1.1-3,3,1.9.29,3.29-1.1,3-3ZM221,125l-4-4c-.2,2.06,1.94,4.2,4,4ZM232,121c-.39.39,2.37,2.9,3,3.5.69.66,2,2.76,3,2l-6-5.5ZM290,126c-.6-.88-3.38-5.69-4-5-.55,1.94,1.3,2.34,2,3.5.54.89-.58,2.34,2,1.5ZM464,121h-5.5l-3.5,3,5.5,2c1.24-1.57,3.77-2.66,3.5-5ZM585,125l-.5-3-1-1h-4.5l1,5,5-1ZM97,122h-1.5l-1.5,1.5,1.5,1.5,1.5-1.5v-1.5ZM195,125l-1.5-3h-1l-2.5,4,5-1ZM273,126c1.9.39,2.67-1.3,4-2.5l-3.5-1.5-1.5,1.5,1,2.5ZM392,122l-6,5.5-2,3.5c1.84.39,2.37-1.01,3.5-2,2.09-1.84,4.32-4.03,4.5-7ZM495.5,122c-.65,0-.65,1,0,1s.65-1,0-1ZM566,129l4-1.5-2.5-5.5h-4.5l3,7ZM64,130c.32.36,2.61-1.98,3-2.5.15-.2-.16-.76,0-1,.79-1.16,2.49-1.57,2-3.5-.32-.36-2.61,1.98-3,2.5-.15.2.16.76,0,1-.79,1.16-2.49,1.57-2,3.5ZM114,124l-4-1-1,5,2.5,1,2.5-5ZM158,123h-5v.5c1.59,2.23,4.06,2.18,5-.5ZM258,127l-1-4h-1l1,4h1ZM304,125v-2h-1v2h1ZM326.5,123c-.65,0-.65,1,0,1s.65-1,0-1ZM395.5,123l-1.5,1.5.5.5,1.5-1.5-.5-.5ZM405.5,123c-.65,0-.65,1,0,1s.65-1,0-1ZM440,123l-4,3.5.5.5c1.57-1.4,3.96-1.39,3.5-4ZM482.5,123l-2.5,2.5c0,2.48,4.47,4.07,6.5,3.5.56-.16,1.73-2.01,2.5-2.5l-6.5-3.5ZM521,125v-2h-1v2h1ZM538,125l-.5-2-2.5,1v2l3-1ZM559,123l-6,1,1,9,6-1-1-9ZM215,127l-2.5-3-1.5,1.5,1.5,1.5h2.5ZM234,130c.95-.98-2.16-3.79-3-4.5-1.43-1.21-1.7-1.95-4-1.5,1.44,2.93,4.47,4.22,7,6ZM470,125l-3.5-1-2.5,4c2.81.07,6.13.73,6-3ZM516,124c-1.9-.29-3.29,1.1-3,3h4l-1-3ZM91,125c-1.9-.29-3.29,1.1-3,3,1.9.29,3.29-1.1,3-3ZM104,125h-2v1h2v-1ZM116,130c3.23.28,5.05.22,7-2.5l-6-2.5-1,5ZM148,125c-3.29-.39-6.72-.03-7,4h4.5l2.5-4ZM164,125c-1.76-.31-3.29,1.36-4,3,1.76.31,3.29-1.36,4-3ZM252.5,125c-.65,0-.65,1,0,1s.65-1,0-1ZM300,128v-3h-.5l-1.5,1.5v1.5h2ZM347,132c.33.38,2.59-1.98,3-2.5.16-.2-.16-.79,0-1,.74-.94,3.12-2.19,2.5-3.5-.86,1.18-6.69,5.66-5.5,7ZM456,129c-.21-1.6-5.83-4.19-6.5-4l-4.5,5h6.5l4.5-1ZM505,128c-.52-2.94-6.09-4.4-7-1.5-.98,3.13,1.15,2.05,2.5,3.5l1-1,3.5-1ZM528.5,125c-.65,0-.65,1,0,1s.65-1,0-1ZM549,125l-5,1,2,10,5-1-2-10ZM576,127v-2l-2,1.5v.5h2ZM601.5,125c-.65,0-.65,1,0,1s.65-1,0-1ZM179.5,126c-.65,0-.65,1,0,1s.65-1,0-1ZM202,128c-1.44-3.6-4.67-2.02-6,1,2.48.52,3.95-.79,6-1ZM247.5,126l-3.5,3.5,4.5,5.5,4.5-3.5-5.5-5.5ZM279.5,126l-3.5,2.5,2.5,4.5,4.5-2.5-3.5-4.5ZM312,126c-1.42-.39-3.41,1.08-3,2.5l2,5c1.27.57.48,3.39,2.5,2.5s1.43-2.34,1-4c-.26-.99-.32-1.88-.5-2.5-.24-.84-2.68-1.56-2-3.5ZM320,126l2.5,5,1.5-1.5c-1.38-1.47-1.32-3.94-4-3.5ZM414.5,126c-.65,0-.65,1,0,1s.65-1,0-1ZM597,129c-.31-1.18-1.42-1.49-1-3l-2,1.5c.94,1.06,1.5,1.82,3,1.5ZM614.5,126l-.5.5,3.5,4.5.5-.5c-1.16-1.51-1.72-3.23-3.5-4.5ZM185,127h-2l-1,4c1.33-.22,3.83-3.17,3-4ZM253.5,127c-.65,0-.65,1,0,1s.65-1,0-1ZM268.43,126.04l-3.46,2.07,1.24,2.06,3.46-2.07-1.24-2.06ZM423,129l-1.5-2h-1.5v2h3ZM102,128h-2v1h2v-1ZM125.05,127.68l-.69,4.14,2.19.36.69-4.14-2.19-.36ZM177.5,128c-.65,0-.65,1,0,1s.65-1,0-1ZM397.21,127.82l-2.87,4.78,1.32.79,2.87-4.78-1.32-.79ZM405.5,128c-1.04,1.23-2.54,2.27-3.5,3.5-.61.78-2.03,2.46-1.5,3.5l3.5-3.5,1.5-3.5ZM441.5,128c-.65,0-.65,1,0,1s.65-1,0-1ZM542,139c.76-1.82-.86-2.95-1-3.5-.39-1.57-.48-2.37-1-4-.27-.84.23-3-1.5-3.5-1.87-.54-2.68,1.24-4.5,1,1.16,2.67,2.71,5.17,4,7.5.15.28-.14.78,0,1,1,1.58,2.27,1.7,4,1.5ZM588,138c-.2-1.74.29-3.86,0-5.5-.07-.37-.87-.59-1-1-.35-1.11.4-2.47-1.5-3.5l-4.5,1,2,10,5-1ZM589.5,128c-.65,0-.65,1,0,1s.65-1,0-1ZM133,129h-2l-1,2.5.5.5,2.5-1v-2ZM156,129c-.83-.83-3.78,1.67-4,3l4-1v-2ZM188.5,129c-.65,0-.65,1,0,1s.65-1,0-1ZM208,132c-.42-5.3-5.98-2.84-6,1l6-1ZM520,132l-1.5-3-1.5,2,3,1ZM87,130c-3.14-.5-5.5,1.92-5,5,3.14.5,5.5-1.92,5-5ZM218.5,130c-.65,0-.65,1,0,1s.65-1,0-1ZM226,131l2.5,1,.5-.5-3-1.5v1ZM293,130h-2v1h2v-1ZM304,140l3-1.5c-2.12-2.71-2.55-6.28-5.5-8.5l-.5,3.5,3,6.5ZM306.5,130c-.65,0-.65,1,0,1s.65-1,0-1ZM332.5,130l-.5.5,1.5,1.5.5-.5-1.5-1.5ZM409,138l4.5,1c1.79-2.35,5.31-6.64,2-9-2.39,2.52-5.34,4.61-6.5,8ZM577,130c-1.08-.32-2.77.67-3,1.5-.56,2.01.95,2.71,1,3,.29,1.64-.2,3.76,0,5.5,1.83.23,2.9.05,4-1.5l-2-8.5ZM194,131c-2.75-.27-5.21-.1-5,3,2.17.54,3.14-1.11,5-1v-2ZM262,131h-2l1.5,2h.5v-2ZM352,133v-2l-2,1.5v.5h2ZM393,133v-2l-2,1.5v.5h2ZM405,135l2-3.5-.5-.5c-1.2,1.33-2.89,2.1-2.5,4h1ZM530,131l-2,2,4,2-2-4ZM596,137c.07-2.81.73-6.13-3-6l-1,7,4-1ZM603,136l-3-5v6l3-1ZM77,132h-2v2l2-2ZM98.87,130.72l-2.87,4.78,2.79,1.68,2.87-4.78-2.79-1.68ZM135.5,132c-.65,0-.65,1,0,1s.65-1,0-1ZM143,132h-4c-.32,1.5.44,2.06,1.5,3h2.5v-3ZM176,132h-5v2l2.5,1h1l1.5-3ZM271,132h-2.5c-1.95.25.85,5.81,3.5,5l-1-5ZM434,132v2h4v-2h-4ZM459.5,132c-.65,0-.65,1,0,1s.65-1,0-1ZM516,135c.32-1.5-.44-2.06-1.5-3h-2.5c.22,1.33,3.17,3.83,4,3ZM571,138l-1-6h-1l1,6h1ZM108,133c-2.08-.34-3.02,1.37-3.5,3-.37,1.27.23,1.2,1,2l3.5-1-1-4ZM326,133l-3,2.5,4,3.5-1-6ZM497,133l-5,1v1l5-1v-1ZM508,133h-2v1h2v-1ZM625.5,133l-.5.5,2.5,3.5.5-.5-2.5-3.5ZM90.5,134c-.65,0-.65,1,0,1s.65-1,0-1ZM116,134c-1.9-.29-3.29,1.1-3,3l3-3ZM154,135l-4.5-1-1.5,3,5,1,1-3ZM181,134h-2v1h2v-1ZM200,134l-4.5,1-1.5,2,4.5-1,1.5-2ZM215,134h-6v1c2.48-.52,3.95.79,6,1v-2ZM258,134h-3v1h3v-1ZM285.6,133.34l-4.63,2.78.88,1.47,4.63-2.78-.88-1.47ZM428,135l-3.5-1-2.5,5,3.5-1,2.5-3ZM526,137c.65-1.25-1.6-3.5-2-3-.65,1.25,1.6,3.5,2,3ZM566,134l-2,.5c1.72,3.47-.45,8.21,5,7.5l-3-8ZM620,136v-2h-1v2h1ZM68,143c-.99-2.16,7.02-6.08,2.5-8-2.04-.87-1.21,1.92-2.5,2.5l-2,5,2,.5ZM124,135h-5.5l-2.5,3c2.37-.43,4.07,1.64,6.5,1,1.33-.35,1.78-2.7,1.5-4ZM332,137l-2-2v2h2ZM359,137l-.5-2-4.5,6c.4.42,3.8-2.74,3-4h2ZM376.5,135l-1.5,1.5.5.5,1.5-1.5-.5-.5ZM472,137l-3.5-2h-2l-2.5,3h4.5l3.5-1ZM474,137l5,1.5,2-2c-1.11-1.7-1.88-1.32-3.5-1.5-2.08-.23-4.16-.72-3.5,2ZM509.5,135c-.65,0-.65,1,0,1s.65-1,0-1ZM561,135c-1.64-.53-1.93.8-2.5,1-.8.27-3-.24-3.5,1.5-.57,1.99.93,2.67,1,3,.21,1.02-.13,2.38,0,3.5l6-1-1-8ZM163,141l4.5,1c1.8-1.4,3.96-.98,5.5-3.5l-4.5-2.5h-2c-1.24,1.57-3.77,2.66-3.5,5ZM186,136c-1.88-.24-3.47,0-4,2h4v-2ZM294,136l1.5,3,.5-.5-1-2.5h-1ZM338.5,136c-.65,0-.65,1,0,1s.65-1,0-1ZM501,136h-3v1h3v-1ZM523,144c.48-3.59-.17-5.34-3-7.5l-3,.5c-.29,1.8,0,2.2,1,3.5.6.78,4.12,4.52,5,3.5ZM128,140c2.4-.06,4.57.67,6-1.5-2.02-2.67-6.2-2.05-6,1.5ZM236,137h-2v1h2v-1ZM388.5,137c-.65,0-.65,1,0,1s.65-1,0-1ZM80.35,137.45l-1.75,5.25,2.1.7,1.75-5.25-2.1-.7ZM193,139l-2.5-1-.5.5,1,2.5h2v-2ZM238.5,138c-.65,0-.65,1,0,1s.65-1,0-1ZM288,138c-.48-.48-5.59,1.54-5,3.5.77,1.59,2.12,2.75,3,4,.28.4.52,3.09,2.5,2.5l3.5-2.5-4-7.5ZM319,144c.49-1.7-1.57-6.7-3.5-6-1.33.48-1.56,1.57-1,3,.87,2.21,1.69,3.52,4.5,3ZM363,141c.4.5,2.65-1.75,2-3-.4-.5-2.65,1.75-2,3ZM475,138h-2v1h2v-1ZM488,141c-.83-2.22-3.89-3.19-6-3-.48,3.08.82,1.6,2.5,2,1.46.34,2.05,1.18,3.5,1ZM496,141c-1.52.39-6.73-3.28-7-3,.06,3.75,3.79,4.08,6.5,5l.5-2ZM533,140c-2.26.53-2.57-2.4-5-2l4.5,4,.5-2ZM553,145l-1-7-4,1c-.52,2.48.79,3.95,1,6h4ZM249.5,139c-.65,0-.65,1,0,1s.65-1,0-1ZM400,139c-1.9-.29-3.29,1.1-3,3,1.9.29,3.29-1.1,3-3ZM442,139c-2.4.06-4.57-.67-6,1.5l.5.5c1.22-1.68,3.49-.84,5.5-1v-1ZM507,140l-3-1v2l3,1v-2ZM643,160c0-4.27-2.77-7.77-4-11.5-3.01-2.53-3.19-7.03-6.5-9.5l7.5,15.5,1,3,2,2.5ZM150,140c-2.14-.08-3.73-.41-5,1.5,1.97,2.7,5.12,1.76,5-1.5ZM188.5,140c-.65,0-.65,1,0,1s.65-1,0-1ZM296,145c.32-2.24-2.13-3.34-3.5-5l-.5.5,2,4.5h2ZM602,140h-2l1.5,2h.5v-2ZM604,157c3.28.29,2.51-1.95,3-3.5.13-.41.93-.63,1-1,.55-3.07-.69-5.35-1-8l-2.5-4.5c-1.13,1.26-.27,3.84-.5,5.5-.05.37-.93.62-1,1-.51,2.79.89,4.22,1,5,.23,1.72-.16,3.73,0,5.5ZM73.5,141c-.65,0-.65,1,0,1s.65-1,0-1ZM89,143v-2h-1v2h1ZM117.16,139.6l-4.34,2.6,1.5,2.5,4.34-2.6-1.5-2.5ZM140.5,141c-.65,0-.65,1,0,1s.65-1,0-1ZM276,145l3,.5c-2.58-2.51-2.34-5.49-7-4.5l2.5,2h1.5v2ZM336,141c-2.61-.51-5.08,1.42-5,4,2.2-.26,5.35-1.35,5-4ZM362,141c-1.05-1.15-7.15,4.95-6,6h4.5l1.5-1.5v-4.5ZM373,141h-2v2l2-2ZM377,148c1.38,1.34,6.69-5.06,6-7-3.82,1.06-4.42,3.8-6,7ZM410,141c-1.88-.24-3.47,0-4,2h4v-2ZM595.26,141.98c0-.68-.55-1.24-1.24-1.24s-1.24.55-1.24,1.24.55,1.24,1.24,1.24,1.24-.55,1.24-1.24ZM630,158c.92-3.87-1.81-6.18-2-9.5l-4.5-7.5,1.5,4.5c.25,3.51,1.24,6.66,2,10,.41,1.81.99,2.76,3,2.5ZM96,142c-3.26-.3-2.48,1.9-3,3.5-.13.41-.91.62-1,1-.4,1.72-.07,3.43,1.5,4.5,2.72-2.35,2.71-5.68,2.5-9ZM283,147c.47-.41-2-2.36-2.5-3-.88-1.12.11-2.28-1.5-2-.33,1.64,2.46,6.33,4,5ZM345,142c-.83-.83-3.78,1.67-4,3,2.4.37,4.24-.48,4-3ZM515,144l-2-2v2h2ZM529,144l-2-2v2h2ZM544,144l-2-2v2h2ZM588,142h-4l1,6,2-2.5,1-3.5ZM598,156l2-8.5-3-5.5c-.16,1.77.23,3.78,0,5.5-.07.5-1.9,2.95-1,5l2,3.5ZM614.5,142l-.5,4.5,3.5,5.5.5-4.5-3.5-5.5ZM71,148l2-4.5-.5-.5-2.5,5h1ZM123,143h-2v1h2v-1ZM131,143h-4v3c.17.2,4.82-2.34,4-3ZM158,143c-1.76-.31-3.29,1.36-4,3,1.76.31,3.29-1.36,4-3ZM224,143h-9.5l-3.5,2c1.79-.14,3.75.21,5.5,0,.37-.04.63-.96,1-1,.97-.11,2.02.09,3,0,1.27-.12,3.71.81,3.5-1ZM309,143c-1.59.08-3.47-.83-3,1.5l4,4.5-1-6ZM483,145c-.56-2.13-1.8-1.86-3.5-2-2.79-.23-5.71.16-8.5,0l5.5,1c1.44,1.79,4.23.76,6.5,1ZM502,143h-3v1c1.51-.42,1.82.69,3,1v-2ZM537,146c.65-1.25-1.6-3.5-2-3-.65,1.25,1.6,3.5,2,3ZM583,156c.43-4.27-2.68-7.38-2-11.5-.92-1.18-1.93-1.94-3.5-1.5s-1.28,1.69-1,3c.47,2.16,1.26,4.26,1.5,6.5,1.51,2.15,1.64,4.14,5,3.5ZM86,149l-.5-5-3.5,5h4ZM101,144c.43,2.37-1.64,4.08-1,6.5.74,2.77,5.41,1.1,6-1,.35-1.24-.72-2.97,1-4-1.46-2.2-3.7-1.42-6-1.5ZM165,144h-3.5l-1.5,2h3.5l1.5-2ZM263,149c-2.37.73-3.81-1.36-5.5-2-1.31-.5-3.87-.3-5-2l-7.5-1,4.5,3,9,2,4,2,.5-2ZM349.5,144c-.65,0-.65,1,0,1s.65-1,0-1ZM391,147l1-2.5-4,2,3,.5ZM77,145h-2v3l2-1.5v-1.5ZM139,145l-3,1.5v2.5l3-1.5v-2.5ZM179.5,145l-1.5,1.5.5.5,1.5-1.5-.5-.5ZM191.5,145l-6.5,3.5,4-1,2.5-2.5ZM329,147v-2l-2,1.5v.5h2ZM420.5,145c-.65,0-.65,1,0,1s.65-1,0-1ZM571,145c-2.07-.07-3.72-.43-5,1.5,1.5.85.74,2,1,3,.1.4.92.62,1,1,.24,1.16-.16,2.73,0,4l1.5,1.5h5.5c.21-4.09-3.61-7.24-4-11ZM592,156c-.75-1.82,1.29-3.47,1-4.5-.13-.46-1.67-1.33-1-3l-2-3.5-3,9.5,5,1.5ZM146,146c-1.9-.29-3.29,1.1-3,3l3-3ZM433.5,146c-.65,0-.65,1,0,1s.65-1,0-1ZM534,148c-.53-2.01-2.12-2.24-4-2v2h4ZM563,146l-6,1,2,10h3.5l1.5-2.5c-2.11-1.07-.34-7.83-1-8.5ZM120,147h-5c-.33,1.7-2.34,6.09.5,7,3.12,1,2.06-1.17,3.5-2.5l1-4.5ZM302,154c.51-.54-2.56-6.73-3.5-7l-3.5,1c.48,1.26,5.94,7.13,7,6ZM319,150c.4.5,2.65-1.75,2-3-.4-.5-2.65,1.75-2,3ZM338,147h-2v2l2-2ZM643.5,147c-.65,0-.65,1,0,1s.65-1,0-1ZM68,155l1-3.5v-3.5l-2.5,5,1.5,2ZM174,148l-6.5,1-8.5,7.5c1.01.73,2.86-1.25,3.5-1.5.59-.23,1.45.24,2,0,2.44-1.05,4.72-3.28,7-4l2.5-3ZM340,223l1-3.5c-2.04-1.9-3.37-3.87-5-6-9.95-12.98-19.86-20.62-31.5-31.5-6.66-6.22-11.93-15.34-20-19-11.19-5.07-23.7-9.99-35-13-3.56-.95-9.24-2.47-13-2-8.5,1.06-17.73,1.35-26,3-11.03,2.21-21.56,6.88-32,11-2.64,1.04-12.72,4.77-13.5,7.5-.18.62.18,1.38,0,2-.17.58-7.92,8.33-8.5,8.5-.65.19-1.7-.11-2.5,0l-1-2c.39,2.21-1.93,3.04-3,4.5-5.04,6.86-10.01,14.57-14,23-4.27,9.03-5.14,23.55-7,34-3.95,22.25-.35,43.17,5,64,.74,2.88,2.67,6.47,3,8,.48,2.2-.32,5.92,2.5,7.5,3.89,2.18,10.93,16.65,13.5,21.5,8,15.08,12.52,24.87,24,38,22.24,25.43,45.58,49.42,70.5,71.5,8.82,7.82,17.9,17.58,27,25,13.82,11.27,28.36,22.58,42,35,9.53,8.68,18.36,20.37,29.5,25v2c1.9.52,2.27-1.16,3.5-2,8.82-6.01,16.86-16.37,25-24,13.94-13.05,29.52-25.18,44-37,.2-.16.57-.11,1,0l20-23c5.48-.27.88,2.73-.5,4.5-.61.78-2.04,2.46-1.5,3.5,3.39-3.6,7.15-6.87,10.5-10.5,13.55-14.7,27.57-30,42.5-44.5,16.73-16.26,31.41-32.66,44.5-51.5,7.14-10.27,14.19-22.6,17-34,5.15-20.85,9.12-42.1,14-63,.58-2.48-.94-3.6-1-4-.29-2,.2-4.42,0-6.5l3-1.5-2.5-4.5-1.5,4c.27-1.78-.16-3.29-.5-5-1.79-9.01-3.75-17.57-7.5-26.5-4.35-10.35-11.76-20.8-19-29-3.56-4.03-14.66-15.96-18.5-18.5-3.24-2.14-7.6-1.96-11-3-15.32-4.67-30.79-9.81-47-11-4.43-.33-18.33-.79-22,0-.36.08-2.48,1.82-3,2-9.81,3.4-19.39,6.96-28,11-3.67,1.72-6.98,2.83-8.5,5.5-.59,1.04-7.08,5.36-8.5,6.5-5.88,4.74-12.39,8.81-15.5,15.5-1.43,3.07-1.2,1.78-2.5,2.5-3.86,2.15-11.55,13.66-14.5,17.5-2.61,3.39-3.01,4.3-5,8-1.06,1.98-3.97,6.25-4,1.5l-1.5,1-2-4c-2.16,2.01-1.47,6.08-5.5,6ZM369.5,148l-1.5,1.5.5.5,1.5-1.5-.5-.5ZM408,148h-2v1h2v-1ZM486.5,148c-3.91-.85-10.25.61-14.5,0-.09,1.93,3.14.79,4.5,1,.37.06.62.93,1,1,8.69,1.52,17.2,2.46,25,6l6.5,1-6.5-5-8-2-2,2c-.74,0-4.81-3.74-6-4ZM126,150l-1.5,4,2,2c2.04-1.76,3.79-4.07,3.5-7l-4,1ZM151,153c1.64-.71,3.31-2.24,3-4-1.64.71-3.31,2.24-3,4ZM163,149c-3-.11-6.18-.6-6,3l4.5-1,1.5-2ZM306,151v-2h-1v2h1ZM345,149h-2v3l2-1.5v-1.5ZM547,155c.53-1.65-.8-1.93-1-2.5-.38-1.1.41-3.06-2-3.5-.89,1.52,2.3,6.86,3,6ZM334,150h-2v1h2v-1ZM356,150h-3v1h3v-1ZM509,151l3.5,1-1-2h-2.5v1ZM541,156c.57-.66-1.53-4.38-2.5-5-.27-.17-1.51.12-2-1l-4.5,1,2.5,2h2l4.5,3ZM73,151l-2,3.5.5.5c1.2-1.33,2.89-2.1,2.5-4h-1ZM136,151h-2l-1,5c1.61-.08,3.49-4.51,3-5ZM290,151c.37,2.02,2.49,1.73,3.5,3l.5-.5c-1.33-1.2-2.1-2.89-4-2.5ZM380,153v-2l-2,1.5v.5h2ZM383,156l5-5c-.91.73-2.75.8-3,1.5-.61,1.7-1.24,2.1-2,3.5ZM418.5,151l-1.5,1.5.5.5,1.5-1.5-.5-.5ZM321,154v-2h-1v2h1ZM340,152c-1.9-.29-3.29,1.1-3,3h3v-3ZM350.5,152c-.65,0-.65,1,0,1s.65-1,0-1ZM515.5,152c-.65,0-.65,1,0,1s.65-1,0-1ZM531,161l-8.5-8-5.5-1c2.3,3.2,6.47,4.89,10,5-.22,1.99,1.86,4.18,4,4ZM397.5,153c-.65,0-.65,1,0,1s.65-1,0-1ZM416,153l-6.5,3-3.5,2.5,6.5-2.5,3.5-3ZM555,154l-4-1,2.5,4h2.5l-1-3ZM81.5,154c-.65,0-.65,1,0,1s.65-1,0-1ZM366.6,153.3l-3.1,6.2,2.4,1.2,3.1-6.2-2.4-1.2ZM51,164l2-9-2,2.5c.71,1.55-.92,2.63-1,3-.17.78-.61,3.85,1,3.5ZM64,155l.5,8,1.5-5.5-2-2.5ZM90,162c-.21-2.46.93-5.29-1.5-7l-2.5,3.5,1,4.5,3-1ZM143,155h-2v3l2-1.5v-1.5ZM313,155c-.26,1.1,1.75,5,2.5,5l1.5-1.5-4-3.5ZM334.5,155c-.65,0-.65,1,0,1s.65-1,0-1ZM359,160c2.19-.63,2-3.28,4-4.5l-.5-.5c-1.37,1.66-3.82,2.76-3.5,5ZM648.5,155c-.65,0-.65,1,0,1s.65-1,0-1ZM104,161v-5h-.5c-2.23,1.59-2.18,4.06.5,5ZM179,156l-6.5,2-3.5,4c2.35-1.59,4.71-3.27,7.5-4l2.5-2ZM376,159l-.5-3c-1.2,1.33-2.89,2.1-2.5,4l3-1ZM397.6,155.34l-4.63,2.78.88,1.47,4.63-2.78-.88-1.47ZM624,171c.08-1.98,1.54-3.24,1-5.5-.13-.56-1.8-2.02-1-4l-4-5.5,1,10.5,3,4.5ZM72,163l3-6-3,2.5v3.5ZM82,159v-2h-1v2h1ZM108,161v-4h-1c.31,1.71-.21,2.62-1,4h2ZM150.5,157l-1.5,1.5.5.5,1.5-1.5-.5-.5ZM351.5,157c-.65,0-.65,1,0,1s.65-1,0-1ZM649,157c.72,3.14,2.47,6.54,4.5,9l-1.5-5.5-3-3.5ZM111.5,158c-.65,0-.65,1,0,1s.65-1,0-1ZM116,161v-3h-1v3h1ZM118,162c2.01-.53,2.24-2.12,2-4-2.01.53-2.24,2.12-2,4ZM325,158h-2v2l2-2ZM640,172c.41-5.21-1.24-9.98-4.5-14l2.5,11.5,2,2.5ZM101,168c.21-3.32.22-6.65-2.5-9-3.45,2.27-2.45,5.39-2.5,9h5ZM127,161l-1.5-2h-1.5v2h3ZM336,160v2.5l1.5,1.5c1.91-1.27,1.58-2.86,1.5-5l-3,1ZM349.5,159c-.65,0-.65,1,0,1s.65-1,0-1ZM539,168l4,.5-1-4-8-5.5c-.83,4.32,5.12,5.39,5,9ZM570,159v2h6v-2h-6ZM583,161v-2h-1v2h1ZM592,159h-5v.5l1.5,1.5h3.5v-2ZM78,160l-4,5.5.5,4.5c2,.52,3.57-3.49,4.5-4.5l-1-5.5ZM132,162v-2h-1v2h1ZM520.5,160l-.5.5,1.5,1.5.5-.5-1.5-1.5ZM563.5,160c-.65,0-.65,1,0,1s.65-1,0-1ZM633,161c-1.59-.09-2.3-.47-2,1.5.32,2.09,2.07,4.5,2,7l2,3.5-2-12ZM599.67,161.48l-1.32,5.93,2.65.59,1.32-5.93-2.65-.59ZM612,163l-2.5-1c-2.66,2.29-2.73,5.5-2.5,9l3.5,1,2.5-1.5-1-7.5ZM58,173l4-2.5v-1c-1.79-1.44-.76-4.23-1-6.5l-2,3.5-1,6.5ZM110,163h-4l-1,5c4.24.53,5.53-.76,5-5ZM327,163h-2v1.5l1.5,1.5h.5v-3ZM377.5,163c-.65,0-.65,1,0,1s.65-1,0-1ZM390,163c-1.9-.29-3.29,1.1-3,3l3-3ZM561.5,163c-.65,0-.65,1,0,1s.65-1,0-1ZM117,167c.4.5,2.65-1.75,2-3-.4-.5-2.65,1.75-2,3ZM125,164h-3v2h1.5l1.5-2ZM551,175c-1.45-2.52-2.24-5.03-3-7.5l-4-3.5,3,7.5,4,3.5ZM577,164h-6v1c2.37-.46,3.63,1.46,6,1v-2ZM590,166v-2h-1v2h1ZM595,164h-2v4h2v-4ZM50,167v-2h-1v2h1ZM352.5,165c-.65,0-.65,1,0,1s.65-1,0-1ZM580.5,165c-.65,0-.65,1,0,1s.65-1,0-1ZM586,167v-2h-1v2h1ZM526.5,166l15,17-2.5-5.5c-2.73-1.42-6.63-8.93-8.5-9.5-1.5-.46-2.77.14-4-2ZM556.5,166l-.5.5,1.5,1.5.5-.5-1.5-1.5ZM561,166.5l-.39,3.14,4.37.55.39-3.14-4.37-.55ZM69,167h-2v4c2.01-.53,2.24-2.12,2-4ZM91,167h-2v1h2v-1ZM341,171v-3h-1v3h1ZM359,174c1.71-.26,1.8-1.89,2.5-3,.62-.99,2-1.19,1.5-3l-3,2.5-1,3.5ZM368,171c.4.5,2.65-1.75,2-3-.4-.5-2.65,1.75-2,3ZM578,169c-2.3.48-3.61-1.45-6-1l1,5,5,1v-5ZM135,171v-2h-1v2h1ZM331.26,169.98c0-.68-.55-1.24-1.24-1.24s-1.24.55-1.24,1.24.55,1.24,1.24,1.24,1.24-.55,1.24-1.24ZM350.25,168.25l-4.75,4.75,1,1,4.75-4.75-1-1ZM569,171v-2h-1v2h1ZM618,172v-3h-1v3h1ZM146.5,170c-.65,0-.65,1,0,1s.65-1,0-1ZM152.5,170l-3.5,3.5.5.5,3.5-3.5-.5-.5ZM326,175c-.95-2.91-2.81-4.79-6-5l6,5ZM588,177c-.1-3.01,1.12-7.09-3-7-.26,1.66.4,3.03,1,4.5.39.97.36,2.35,2,2.5ZM633,181c-.28-2.71-2.05-4.96-2-7.5l-2-3.5,1,6.5,3,4.5ZM43,182l2-11c-1.92-.2-.72,2.25-1,3.5-.09.39-.91.61-1,1-.22.93-.21,2.13-.5,3.5-.2.91-1.64,3.05.5,3ZM94,174v-3c-1.18.31-1.49,1.42-3,1v2h3ZM100,171h-3v2h1.5l1.5-2ZM299.5,171c-.76,1,1.34,2.31,2,3,3.8,3.97,7.97,8.31,12,12,.18.17.82-.17,1,0,1.91,1.74,3.63,3.71,5.5,5.5.69.66,2,2.76,3,2-4.31-5.31-9.32-10.99-14.5-15.5-.19-.16-.81.17-1,0-1.57-1.35-2.92-3.25-4.5-4.5-.99-.78-2.67-.99-3.5-2.5ZM594,171h-2v3l2-1.5v-1.5ZM82,177l-1.5-5-3.5,4.5,5,.5ZM116.5,172c-.65,0-.65,1,0,1s.65-1,0-1ZM337,176c.24-1.88,0-3.47-2-4-.24,1.88,0,3.47,2,4ZM560,179c.52-.62-1.08-3.14-1.5-4-.6-1.23-.09-2.24-1.5-2-.43,2.83.29,4.86,3,6ZM566,174l-4-1c-.71,1.93.8,2.87,1,3.5.32,1.03.31,2.85,1,4,.46.78,2.04,2.2,3,2.5l-1-9ZM598,180l-1-7c-.45,1.87-.79,4.15-2,5.5l3,1.5ZM627,173h-2v3l2-1.5v-1.5ZM111,174c-1.86-.11-2.83,1.54-5,1v1h5v-2ZM374,177c1.9.29,3.29-1.1,3-3l-3,3ZM608,177l2-1.5-1.5-1.5h-.5v3ZM635.5,174c-.65,0-.65,1,0,1s.65-1,0-1ZM52,178c.4.5,2.65-1.75,2-3-.4-.5-2.65,1.75-2,3ZM69,180c3.1.21,3.27-2.25,3-5-1.61.08-3.49,4.51-3,5ZM351.5,175c-.65,0-.65,1,0,1s.65-1,0-1ZM606,184v-5.5l-2-3.5-1,6.5,3,2.5ZM99.5,176c-.65,0-.65,1,0,1s.65-1,0-1ZM103.5,176c-.65,0-.65,1,0,1s.65-1,0-1ZM126,179c.4.5,2.65-1.75,2-3-.4-.5-2.65,1.75-2,3ZM573,186l-1-7.5-3-2.5,1,7.5,3,2.5ZM616,187c.12-2.04,1.53-3.25,1-5.5-.09-.39-.91-.61-1-1-.47-1.99.78-4.66-3-4.5l-3,8.5c1.77,2.24,3.07,2.93,6,2.5ZM645,192c.59-4.21-1.49-7.33-1-11.5l-3-4.5,1,11.5,3,4.5ZM95,177l-4,1,.56,2.24,4-1-.56-2.24ZM344.5,177c-.65,0-.65,1,0,1s.65-1,0-1ZM579,178l-4-1,1,10c3.32.65,1.52-1.72,2-3.5.11-.4.94-.63,1-1,.22-1.37-.15-3.06,0-4.5ZM59,178h-2v6h1c-.46-2.37,1.46-3.63,1-6ZM63,181c.4.5,2.65-1.75,2-3-.4-.5-2.65,1.75-2,3ZM131,193c3.62-2.32,3.68-7.9,7-10.5l1.5-4.5-4.5,5.5-4,9.5ZM327,178h-2v2l2.5,1,.5-.5-1-2.5ZM351,178c-2.58-.69-6.88,6.05-6,7,1.69.28,3.1-1.31,4-2.5.15-.2-.17-.76,0-1,.8-1.16,2.49-1.57,2-3.5ZM619.5,178c-.65,0-.65,1,0,1s.65-1,0-1ZM119,183l1-4c-1.18.31-1.49,1.42-3,1v3h2ZM332.5,179c-.65,0-.65,1,0,1s.65-1,0-1ZM373,179c-2.07.21-5.07,1.33-5,3.5l-2.5,4.5,7.5-8ZM627,179l-2,.5,2,6,3,4.5c.83-2.31-1.65-4.22-2-5.5-.23-.86.24-2.18,0-3-.15-.52-1.54-.86-1-2.5ZM79,183c1.9.29,3.29-1.1,3-3l-3,1v2ZM547.5,180l-.5.5,1.5,1.5.5-.5-1.5-1.5ZM584,191c-.47-3.54,3.93-10.31-2-11,.6,3.8-1.31,6.43-2,10l4,1ZM338.5,181c-.65,0-.65,1,0,1s.65-1,0-1ZM356.5,181l-3.5,3.5.5.5,3.5-3.5-.5-.5ZM96.6,181.34l-4.26,2.56,1.24,2.06,4.26-2.56-1.24-2.06ZM128,182h-2l-1,4c.62.75,2.79-3.08,3-4ZM587,193l3-5.5-.5-5.5-2,6-.5,5ZM633,187l1-2.5-3-2.5c-.54,2.17,1.11,3.14,1,5h1ZM655,186v-2.5l-2-1,1,3.5h1ZM335.81,182.51l-1.47.88,2.56,4.26,1.47-.88-2.56-4.26ZM549.5,183c-.65,0-.65,1,0,1s.65-1,0-1ZM624,192l-1-6.5-2-2.5v6.5l3,2.5ZM53,186v-2h-1v2h1ZM90,184h-2v3h2v-3ZM114,184h-2v2l2-2ZM596,186v-2h-1v2h1ZM75.5,185c-.65,0-.65,1,0,1s.65-1,0-1ZM106,185l-5,1,1,5c3.35-.09,4.53-3.1,4-6ZM543.5,185c-.65,0-.65,1,0,1s.65-1,0-1ZM67.5,186c-.65,0-.65,1,0,1s.65-1,0-1ZM348.5,186c-.65,0-.65,1,0,1s.65-1,0-1ZM561,189l2-1.5-1.5-1.5h-.5v3ZM601,186c-3.19-.58-1.48,1.12-2,2.5-.16.42-.92.63-1,1-.49,2.19.34,5.59,0,8l4,2.5,2-6.5-3-7.5ZM650,189v-3h-1v3h1ZM77,187l-3,1.5,1,3.5,3-1.5-1-3.5ZM119.5,187c-.65,0-.65,1,0,1s.65-1,0-1ZM657,194l-1-4.5-1-2.5,1,4.5,1,2.5ZM95,191l2-1.5-1.5-1.5h-.5v3ZM342,189h-2l1.5,2h.5v-2ZM568,189h-2v1h2v-1ZM60,190l3.5,8,1-4-4.5-4ZM72,195l-1-5h-1l-1,5h3ZM92,190l-2.22.49,1.32,5.93,2.22-.49-1.32-5.93ZM112,195v-5h-1v5h1ZM120.5,190c-.65,0-.65,1,0,1s.65-1,0-1ZM346,190h-2l1.5,2h.5v-2ZM593,195v-5h-1c.54,2.17-1.11,3.14-1,5h2ZM610,197l-1.5-7-.5,3.5,2,3.5ZM613,192v-2h-1v2h1ZM634,190l-.5,7,2.5-4.5-2-2.5ZM639,192v-2h-1v2h1ZM652,198v-5.5l-2-2.5,2,8ZM43,193v-2h-1v2h1ZM87,192l-3,3.5,4,3.5-1-7ZM98.5,192c-.65,0-.65,1,0,1s.65-1,0-1ZM568,194l-4-2,3,6,1-4ZM619,193c-2.89-.24-3.63,2.79-5,4.5l2,8,2.5,2.5c2.56-2.23,2.76-5.33,2.5-8.5l-2-6.5ZM41.5,194c-.65,0-.65,1,0,1s.65-1,0-1ZM59,194l-2,1.5-1,5.5,4-2.5-1-4.5ZM106,199c-.11-1.86,1.54-2.83,1-5-2.18.97-3.47,2.63-3,5h2ZM131,194l-4,5.5-2.5,8.5c1.03-.94,1.86-2.3,2.5-3.5.74-1.38,1.32-3.51,2-5,.75-1.64,2.62-3.08,2-5.5ZM351,198l1-4c-1.18.31-1.49,1.42-3,1v3h2ZM583,196l-2-2v2h2ZM639,207c3.43-1.26,1.58-5.77,2-8.5l-1-4.5c-1.75-.23-.98,2.28-1,3.5-.06,3.16.04,6.35,0,9.5ZM574,196l-3-1c.16,2.11-.23,4.43,0,6.5.17,1.58,1.54,2.54,1,4.5l2-2.5v-7.5ZM623,195v2.5l1.5,1.5,1.5-1.5-3-2.5ZM80.5,196l-2.5,3.5,2.5,3.5,2.5-2.5-2.5-4.5ZM101,197c-2.21-.26-3.36,1.32-3,3.5l1.5,1.5c1.91-1.27,1.58-2.86,1.5-5ZM647,208c-.18-2.1.26-4.46,0-6.5-.05-.37-.93-.61-1-1-.24-1.27.89-3.7-1-3.5.15,1.78-.22,3.77,0,5.5.05.37.94.62,1,1,.21,1.35-.93,4.59,1,4.5ZM51,205l1-7c-2.17.56-1.83,1.84-2,3.5-.11,1.03-.66,3.79,1,3.5ZM74,198l-3,1.5,2,3.5,2-1.5-1-3.5ZM115,200v-2h-1v2h1ZM608,202c.24-1.88,0-3.47-2-4l-1,2.5,3,1.5ZM591,201v-2h-1v2h1ZM652.5,199c-.65,0-.65,1,0,1s.65-1,0-1ZM109.96,199.93l-5.44,3.26.88,1.47,5.44-3.26-.88-1.47ZM346,206l-2-6c.27,2-1.41,1.85-.5,4,.71,1.7.07,2.4,2.5,2ZM630.5,200c-.65,0-.65,1,0,1s.65-1,0-1ZM69,201c-2.95-.19-3.31,2.06-3,4.5l2.5,3.5,2.5-1-2-7ZM94,203v-2h-1v2h1ZM582,211c-.47-3.72,3.05-7.02-1-9.5-1.33-.82-2.59-.46-4-.5l1,5.5,4,4.5ZM654,224c.18-1.72.84-2.56,1-4.5.43-5.21,0-10.35-1-15-.31-1.45.32-2.97-2-3.5.19,4.13-.27,8.37,0,12.5.09,1.41.94,4.07,1,7,.02,1.22-.75,3.73,1,3.5ZM596,204v-2h-1v2h1ZM629,202h-2l-1,4h2l1-4ZM635,210l.5-4-1.5-4-.5,4,1.5,4ZM28,236c.17-3.13-.24-6.38,0-9.5.22-2.94,1.81-9.09,2-12,.25-3.79-.18-7.71,0-11.5l-2,3.5c-2.26,6.26-3.16,14.61-1,21l1,8.5ZM91,208c.08-2.14.41-3.73-1.5-5l-1.5,1.5,1,3.5h2ZM613,204h-2v1h2v-1ZM59,205h-2v1.5l1.5,1.5h.5v-3ZM85,205c-1.08-.32-2.77.66-3,1.5-.53,1.89,1.24,2.67,1,4.5l4-1.5-2-4.5ZM102,207v-2l-2,1.5v.5h2ZM588.5,205c-.65,0-.65,1,0,1s.65-1,0-1ZM606,209v-2.5l-1.5-1.5c-1.43-.39-2.89,1.57-2.5,3l4,1ZM61,212l5-2.5-3.5-3.5-1.5,6ZM108,212c2.71-1.14,3.43-3.17,3-6-1.66.48-2.02,2.52-4,2l1,4ZM115.5,206c-.65,0-.65,1,0,1s.65-1,0-1ZM41,240c.25-4.76-.35-9.77,0-14.5.16-2.15,1.83-7.83,2-10,.22-2.79-.16-5.71,0-8.5l-2,2.5c-.51,9.04-2.57,17.5-2,27l2,3.5ZM597,208l-5-1c1.39,3.87,5.91,8.6,5,1ZM52,208c-1.08-.32-2.76.66-3,1.5-.54,1.89,1.28,2.74,1,4.5,3.59.81,1.52-3.93,2-6ZM80,213c.69-.82-2.36-5.8-3-5l2,5h1ZM563.5,208c-.65,0-.65,1,0,1s.65-1,0-1ZM586,217l2-9-3,5.5,1,3.5ZM615,210c-2.26.53-2.57-2.4-5-2-.99,5.45,5.13,9,5,2ZM624.5,208c-.65,0-.65,1,0,1s.65-1,0-1ZM96.5,209c-.65,0-.65,1,0,1s.65-1,0-1ZM573,214l-1-5h-1l1,5h1ZM631,209l-4,2.5,5,2.5-1-5ZM642,209c-3.47.59-3.98,10-1.5,10,2.81-2.38,1.04-6.83,1.5-10ZM57,216l.5-3-1.5-3-1,4.5,2,1.5ZM72,211h-2v2l2-2ZM102.5,211c-.65,0-.65,1,0,1s.65-1,0-1ZM577,211c.11,2.48,1.73,4.46,3.5,6,.62-1.05-1.03-2.71-1.5-3.5-.35-.59-.29-2.47-2-2.5ZM600,218c2.38-1.08,4.42-5.12,1.5-7l-1.5,7ZM76,212h-2v5l3-1.5v-1l-1-2.5ZM127,227l1-7.5,2.5-7.5c-1.7,1.31-1.76,3.56-2.5,5.5-.46,1.22-1.21,2.99-2,4l1,5.5ZM564.5,212c-.65,0-.65,1,0,1s.65-1,0-1ZM68,213l-4,1,3.5,8,2.5-2.5c-1.68-1.85-2.32-4.06-2-6.5ZM592,225c.24-2.82,2.61-5.84,2-8.5-.08-.36-.8-.57-1-1-.59-1.28-.52-2.89-3-2.5l-2,7.5,4,4.5ZM88,216v-2l-2,1.5v.5h2ZM99,214h-2v1h2v-1ZM344,217c.65-1.25-1.6-3.5-2-3-.65,1.25,1.6,3.5,2,3ZM105,217v-2h-1v2h1ZM606.5,215l-2.5,4.5v2l2.5,3.5,2.5-4.5-2.5-5.5ZM624,219c2.01-.53,2.24-2.12,2-4-2.01.53-2.24,2.12-2,4ZM95,218v-2h-1v2h1ZM112,216h-2v3h1c-.42-1.51.69-1.82,1-3ZM612,219l-1.5-3-.5.5,1,2.5h1ZM50,223v-4.5l-2-1.5v6h2ZM61,217c-2.33-.28-3.42,2.24-5,3.5l3.5,6.5,4.5-3.5-3-6.5ZM578,229c-.34-2.44.41-4.81,2-6.5l-2-3-2-2.5v9.5l2,2.5ZM631,217c-2.3.75-2.74,3.02-4,4.5l.5.5c1.37-1.66,3.82-2.76,3.5-5ZM76,219l1.5,2c1.06-.94,1.82-1.5,1.5-3-1.18.31-1.49,1.42-3,1ZM101,218h-2c-.54,2.17,1.11,3.14,1,5h1v-5ZM90,221v-2h-1v2h1ZM635,220c-3.09,1.36-3.77,4.5-6,6.5l2.5,3.5,4.5-5.5-1-4.5ZM97,226v-3.5l-2-1.5c-.54,2.17,1.11,3.14,1,5h1ZM585,221h-2l1.5,2h.5v-2ZM597.25,220.75l-2.75,8.25,1.35.45,2.75-8.25-1.35-.45ZM85.5,222c-.65,0-.65,1,0,1s.65-1,0-1ZM114,229l1-7-2,2.5,1,4.5ZM642,227v-5h-1v5h1ZM73,225v-2l-2,1.5v.5h2ZM81,227l2-1.5-1.5-2.5-1.5,1.5,1,2.5ZM658,223c-3.39-.73-1.59,2.47-2,4.5-.08.39-.95.63-1,1-.2,1.39-.08,3.5,0,5,.1,1.92-.48,3.19,1.5,4.5l1.5-4.5v-10.5ZM94,230c.52-.59-1.08-3.15-1.5-4-.6-1.23-.09-2.24-1.5-2l1,4.5,2,1.5ZM616,236c-.44-2.24,2.04-3.04,3-4.5.28-.42.72-2.53,1-3,1.05-1.73,3.69-1.99.5-4.5l-5.5,5.5-2,3v2l3,1.5ZM61,231l3.5-2,2.5-3-3.5,2-2.5,3ZM574,246c-.29-3.36.4-7.22,0-10.5-.06-.45-1.91-2.98-1-5l-3-4.5c-.52,1.95.79,2.9,1,4.5.52,3.96.91,7.94,1,12l2,3.5ZM587.5,226l-.5.5,1.5,1.5.5-.5-1.5-1.5ZM600,237l4-6.5v-2l-2.5-2.5-4.5,7.5c.72,1.88.56,4.24,3,3.5ZM36,244v-17c-1.75-.23-.98,2.28-1,3.5-.05,2.52.34,5.68,0,8-.05.37-.92.61-1,1-.35,1.72-.79,5.46,2,4.5ZM76,227l-4,1,1.5,4,4.5-2.5-4-.5,2-2ZM102.5,227c-.65,0-.65,1,0,1s.65-1,0-1ZM583,229v-2h-1v2h1ZM50,233v-5h-1v5h1ZM648,245c1.07.33,2.78-.68,3-1.5.38-1.41.17-7.14,0-9-.03-.36-.95-.63-1-1-.22-1.74.15-3.72,0-5.5-1.75-.23-.97,2.28-1,3.5-.04,1.97.17,4.08,0,6-.03.36-.96.63-1,1-.24,2.06.16,4.39,0,6.5ZM84,229l3.5,7,.5-3.5-4-3.5ZM100,230h-2v3h2v-3ZM66,236c-.11-1.86,1.54-2.83,1-5l-3,2.5,2,2.5ZM104,234c.4.5,2.65-1.75,2-3-.4-.5-2.65,1.75-2,3ZM587,231l-2,.5,1,7.5,3-3.5v-1l-2-3.5ZM627,235l2-1.5v-1l-1.5-1.5h-.5v4ZM636,233v-2h-1v2h1ZM46,237v-5h-1v5h1ZM79.5,232l-3.5,3.5v1l5.5,5.5,3.5-3.5c-.77-1.59-2.12-2.75-3-4-.28-.4-.53-3.1-2.5-2.5ZM125,235v-3h-1v3h1ZM70,235v-2h-1v2h1ZM581.5,233c-.65,0-.65,1,0,1s.65-1,0-1ZM640,236v-3h-1v3h1ZM621,246l3-5.5v-6.5l-6,6.5,1,3,2,2.5ZM96,235h-2v1h2v-1ZM631,240l1-5c.36,2.26-1.94,3.05-3,4.5-.15.21.16.76,0,1-1.17,1.73-1.99,1.02-2,4,0,1.76-.03,2.39,1.5,3.5,1.41-1.99,4.35-4.63,5.5-6.5.14-.22-.15-.72,0-1,.36-.67,2.16-1.61.5-2.5l-3.5,2ZM99,240l2-1.5v-2.5h-1l-1,4ZM58,240c.4.5,2.65-1.75,2-3-.4-.5-2.65,1.75-2,3ZM74,249l4-3.5-5.5-8.5-3.5,3.5c1.27.81,1.47,3.2,2,4,.97,1.47,3.44,2.26,3,4.5ZM107,239v-2h-1v2h1ZM92,240l-2-2v2h2ZM50,242v-3h-1v3h1ZM590.5,239c-.65,0-.65,1,0,1s.65-1,0-1ZM609.5,239c-1.44,2.44-6.42,6.48-3,9,1-1.23,2.59-2.27,3.5-3.5.15-.2-.16-.76,0-1,1.34-1.95,4.09-3.05-.5-4.5ZM61,244l1-4-3,1.5v2.5h2c-.81,1.57,3.08,4.98,4,4l-1.5-6-2.5,2ZM115,249l1-8-1.5,5,.5,3ZM642,244v-3h-.5l-1.5,1.5,2,1.5ZM655,243v-2h-1v2h1ZM46,246v-4h-1c.31,1.71-.21,2.62-1,4h2ZM83,244l1.5,4,3.5-4.5-5,.5ZM104,250l1-8-2,2.5,1,5.5ZM593,247l2-3.5-2-1.5-1,5h1ZM95,246l-1.5-3-.5.5,1,2.5h1ZM585.5,243c-.65,0-.65,1,0,1s.65-1,0-1ZM611,257l7-7.5-2.5-4.5-5.5,7.5,1,4.5ZM43,263c-.15-1.78.21-3.75,0-5.5-.23-1.87-.68-4.62-1-7-.05-.37-.93-.61-1-1-.24-1.27.89-3.7-1-3.5.17,2.1-.24,4.44,0,6.5.17,1.44.68,4.12,1,6,.06.38.93.62,1,1,.24,1.27-.89,3.7,1,3.5ZM59,250l-1-4h-1v2.5l2,1.5ZM661,267l2-7.5v-13.5c-1.75-.23-.97,2.28-1,3.5-.05,2.41.68,5.5-1,7v10.5ZM36,251v-4h-1v4h1ZM91,247l-4.5,3,.5,3c2.66.47,1.61-.52,2.5-2,.77-1.29,2.17-1.56,1.5-4ZM629,261c1.73.28,3.13-.95,3-2.5l3-11.5-7,8.5,1,5.5ZM69,248l-2,.5c-.37,3.08,0,4.64,2.5,6.5,3.69-2.85-.38-4.1-.5-7ZM582,258l1-4.5-3-5.5.5,5,1.5,5ZM590,252l1-4-2,1.5v2.5h1ZM625,251v-3h-.5l-1.5,1.5,2,1.5ZM80,248.5l-3.5,3.5,2.5,2.5,3.5-3.5-2.5-2.5ZM649,256l1-7-3,6.5,2,.5ZM63,260c-.41-2.43,1.66-4.12,1-6.5-.14-.5-3.06-3.17-4-3.5.41,2.43-1.66,4.12-1,6.5.14.5,3.06,3.17,4,3.5ZM596.5,250c-.65,0-.65,1,0,1s.65-1,0-1ZM656,257v-7h-1v7h1ZM50,261c.16-2.01-.68-4.28,1-5.5v-1l-2-2.5-1,8.5,2,.5ZM592,257c2.02-.37,1.73-2.49,3-3.5l-.5-.5c-1.2,1.33-2.89,2.1-2.5,4ZM615,262c2-1.4,4.52-3.61,6-5.5s1.24-1.94-.5-3.5c-1.84,2.99-5.11,5.3-5.5,9ZM82,260l4-3.5-2.5-2.5-2.5,2.5,1,3.5ZM97,263l2-4.5-3.5-4.5c-1.97,1.66-2.99,2.76-2.5,5.5l4,3.5ZM601,258l1-4-3,2.5,2,1.5ZM75,259v-1.5l-2-1.5v3h2ZM108,258v-2h-1v2h1ZM635.5,256c-.65,0-.65,1,0,1s.65-1,0-1ZM559,306l7-28.5c1.18-3.76,2.6-9.09,3-13,.25-2.4-.17-5.06,0-7.5-1.96-.08-.75,3.14-1,4.5-.07.38-.92.61-1,1-2.27,11.14-4.5,22.09-7,33-.2.89.21,2.13,0,3-.1.39-.9.61-1,1-.22.89-.21,2.14-.5,3.5-.2.91-1.64,3.05.5,3ZM576,261v-4h-1l-1,4h2ZM66,258l-1,2.5.5.5,1.5-3h-1ZM113,262v-4h-1v4h1ZM53,267l-.5-7-1.5,4.5,2,2.5ZM608,264c.67-1.76-3.05-4.91-4-4l-3,5.5,2.5,2.5c.65-.88,2-1.66,2.5-2.5.45-.75-.89-2.04,2-1.5ZM624,260c-3.77,2.98-8.98,6.17-3.5,10l2.5-4.5,1-5.5ZM39,266v-5h-1v5h1ZM68,266l3-2.5v-1l-1.5-1.5c-1.91,1.27-1.58,2.86-1.5,5ZM78,266l3-1.5-2.5-3.5-1.5,1.5,1,3.5ZM107,267v-4.5l-2-1.5c-.52,2.48.79,3.95,1,6h1ZM597.5,261c-.65,0-.65,1,0,1s.65-1,0-1ZM88.5,262l-2.5,2.5,4.5,6.5c3.4-2.56,3.02-4.34.5-7.5-.57-.72-1.45-1.82-2.5-1.5ZM634,268l2-6c-1.52.29-2.03,1.78-2.5,3-.4,1.05-1.5,3.07.5,3ZM583,269l1-5h-1l-1,5h1ZM595.5,264c-.65,0-.65,1,0,1s.65-1,0-1ZM627,266v-2h-1v2h1ZM57,271v-3.5l-2-1.5c.2,1.21-.02,1.79-1,2.5l3,2.5ZM74,266h-2v3.5l1.5,1.5h.5v-5ZM67,269l-2-2v2h2ZM601,269v-2h-1v2h1ZM592.5,268c-.65,0-.65,1,0,1s.65-1,0-1ZM630,268c-2.57-.67-6.87,5.99-6,7,2.81-1.25,6.54-3.3,6-7ZM652,268l-1,6.5c-2.19,1.7.19,5.3-2,7l-.5,6.5,3.5-4.5,2-12-2-3.5ZM51,279c5.59-2.56,2.04-7.55-2-10l2,10ZM83,269c1.48,2.7.82,5.93,3.5,8,1.82-1.42,1.73-1.89,1-4-.63-1.81-2.14-4.19-4.5-4ZM637,272c.4.5,2.65-1.75,2-3-.4-.5-2.65,1.75-2,3ZM72,279v-4.5l-4-3.5c-.4,3.27,1.03,6.6,4,8ZM116,271l-1.48,6.67,1.48.33,1.48-6.67-1.48-.33ZM610,281l6-5.5v-1c-1.18-.87-1.07-2.83-2.5-3.5-1.99-.93-1.34,2.2-2.5,2.5l-1,7.5ZM660,274v-2h-1v2h1ZM595,279l3-3.5-1-2.5-2,1.5v4.5ZM643.5,273c-.65,0-.65,1,0,1s.65-1,0-1ZM84,282l-1-4.5-3-3.5c.17,2.01-1.23,1.77-.5,4,.59,1.8,2.18,4.21,4.5,4ZM633,274c-1.1-1.2-5.07,3.74-6,4.5l2,5.5,3-5.5,1-4.5ZM97,279v-3h-1v3h1ZM57,290l3-7.5c-1.16-1.51-1.72-3.23-3.5-4.5l-3.5,4.5v2l4,5.5ZM66.88,277.97l-1.47.88,2.78,4.63,1.47-.88-2.78-4.63ZM101,278h-2l-1,3.5,2,1.5,1-5ZM619,278l-5.5,5-2,3c2.18-1.27,3.83-2.61,5.5-4.5.99-1.12,2.39-1.66,2-3.5ZM575,285l2-1.5v-4.5h-1c.46,2.37-1.46,3.63-1,6ZM590,289l3-5.5-1-4.5-2,2.5c.56,1.39-1.78,2.23-2,3-.48,1.69,0,4.08,2,4.5ZM644,283v-4h-1v4h1ZM633.5,280c-.65,0-.65,1,0,1s.65-1,0-1ZM77,290l4-3.5v-1l-2.5-3.5-1.5,8ZM94,285v-3h-1v3h1ZM602,292l2-6.5-2.5-3.5-3.5,3.5,1,3,3,3.5ZM86.5,284c-.65,0-.65,1,0,1s.65-1,0-1ZM114,289c.54-2.17-1.11-3.14-1-5h-1v3.5l2,1.5ZM96.5,285c-.65,0-.65,1,0,1s.65-1,0-1ZM618,285l-6,5.5c.53,3.13,4.4,5.29,5,1,.13-.96-.15-2.06,0-3,.24-1.53,1.25-1.96,1-3.5ZM64.5,286c-.65,0-.65,1,0,1s.65-1,0-1ZM124,286c.18,1.76-.26,3.82,0,5.5.06.37.91.6,1,1,.37,1.58-.7,3.2,1.5,4.5l-.5-6.5c-2.05-.88.25-4.41-2-4.5ZM620,291c3.87-.25,5.93-4.75,1-5l-1,5ZM62,295l-1-8c-.45,1.87-.79,4.15-2,5.5l3,2.5ZM640,299l2-5.5,1-6.5-2,2.5-1,4v5.5ZM91,291v-3h-1v3h1ZM105.5,288c-.65,0-.65,1,0,1s.65-1,0-1ZM591,301c1.17,1.27,5.92-4.68,7-5.5v-2l-2-5.5-6,6.5,1,6.5ZM81,296l3-3.5-.5-3.5-2.5,7ZM120,294v-5h-1v5h1ZM102,295v-3.5l-2-1.5v3.5l2,1.5ZM74,294c.29-1.9-1.1-3.29-3-3l3,3ZM584,294c.4.5,2.65-1.75,2-3-.4-.5-2.65,1.75-2,3ZM634,293v-2h-1v2h1ZM656,298l1-7-2,2.5,1,4.5ZM646,307l2-5.5,1-9.5-2,3.5c-.33,2.09.83,4.67-1,6v5.5ZM95,295v-2h-1v2h1ZM625,293c-1.93-.49-2.34,1.21-3.5,2-.24.17-.8-.15-1,0-2.25,1.7-2.92,3.13-2.5,6,1.93.49,2.34-1.21,3.5-2,.24-.17.8.15,1,0,2.25-1.7,2.92-3.13,2.5-6ZM53.5,294c-.65,0-.65,1,0,1s.65-1,0-1ZM87,294c.41,2.43-1.66,4.12-1,6.5.15.56,2.01,1.73,2.5,2.5l2.5-4.5c.73-2.5-3.17-5.42-4-4.5ZM69,295c-2.98-.59-1.92,1.36-2,3.5l4,3.5-2-7ZM111.4,294.16l-2.06,1.24,2.56,4.26,2.06-1.24-2.56-4.26ZM576,295l-1,2.5.5.5,1.5-3h-1ZM606,299v-4h-.5c-1.54,1.1-1.73,2.14-1.5,4h2ZM611,295h-2v3l2-1.5v-1.5ZM120.5,297c-.65,0-.65,1,0,1s.65-1,0-1ZM588,298l-3,1.5v1l2.5,4.5.5-7ZM632,298l-4,3.5-1,6.5,4-5.5,1-4.5ZM55,299l2.5,8,.5-4.5-3-3.5ZM98.5,299c-.65,0-.65,1,0,1s.65-1,0-1ZM654.5,299c-.65,0-.65,1,0,1s.65-1,0-1ZM600,300c-1.04-1.13-7.11,4.89-6,6,1.93.47,2.34-1.18,3.5-2,.2-.14.74.16,1,0,1.59-1,1.7-2.27,1.5-4ZM613,300l-5,2v5c1.95-1.44,3.91-2.2,5.5-4l-.5-3ZM76,306c2.69-.94,2.73-3.41.5-5l-1.5,2.5,1,2.5ZM109,305v-4h-1v4h1ZM122,305v-3h-1v3h1ZM98,310l-1.5-7-1.5,4.5,3,2.5ZM623,303l-3,1.5,1.5,2.5,1.5-1.5v-2.5ZM65.88,303.53l-2.24.56,1.12,4.47,2.24-.56-1.12-4.47ZM88,311l.5-4-4.5-3c-.2,1.54.96,2.61,1.5,4,.78,1.98-.36,3.52,2.5,3ZM92.5,304c-.65,0-.65,1,0,1s.65-1,0-1ZM583,305c-2.56-.73-6.9,6.1-6,7,3.83-.53,6.83-2.82,6-7ZM604,306c-1.5-.32-2.06.44-3,1.5v2.5h2l1-4ZM613,314c.58.51,7-2.73,7-3.5l-3-4.5c-3.39,1.46-2.42,5.37-4,8ZM635,306l-1,2.5.5.5,1.5-3h-1ZM558,309v-2h-1v2h1ZM73,310v-2h-1v2h1ZM596,313c2.01-.53,2.24-2.12,2-4-2.01.53-2.24,2.12-2,4ZM610,314c-.11-1.86,1.54-2.83,1-5l-3,2.5,1,2.5h1ZM62,314v-4h-1v4h1ZM568,310l-3,2.5-3,6-9,18.5,6-7.5c2.31-4.97,3.83-9.57,6-14,.43-.88,3.25-5.24,3-5.5ZM92,313v-2h-1v2h1ZM53,337c.36-1.74-1.5-3.25-2-4.5-.23-.58.24-1.43,0-2-1.36-3.28-3.8-6.98-5-10-.41-1.02-.77-3.72-1-5l-3-3.5,4,13.5c1.58,1.59,2.09,4.32,3,6,.37.68,1.58,1.29,2,2,.52.86.54,3.74,2,3.5ZM71,321l.5-4c-.68-2.15-1.01-4.13-3.5-5v5.5l3,3.5ZM84,320c.13-2.01.3-2.81-1-4.5-.6-.79-4.11-4.52-5-3.5-1.34,2.35,4.69,9.51,6,8ZM106,315v-3h-1v3h1ZM113,312c-.52.62,1.77,5,2.5,5l-1.5-5h-1ZM594,315l-1-3c-2.01.53-2.24,2.12-2,4l3-1ZM641,312c-3.05-.16-3.65,2.91-5,4.5l-2,7.5,6-7.5,1-4.5ZM96,313c-2.43-.4-1.79.3-2.5,2-.91,2.15.77,2,.5,4l2-2.5v-3.5ZM624.5,313c-.65,0-.65,1,0,1s.65-1,0-1ZM601,321l1-7-3,6.5,2,.5ZM110,319c.24-1.88,0-3.47-2-4v4h2ZM612,322c.91,1,3.85-2.24,4.5-3,1.21-1.43,1.95-1.7,1.5-4-2.52,1.97-6.68,2.94-6,7ZM623.5,315c-.65,0-.65,1,0,1s.65-1,0-1ZM633.5,315l-2.5,3.5.5.5,2.5-3.5-.5-.5ZM588.5,316c-.65,0-.65,1,0,1s.65-1,0-1ZM606.5,316c-.65,0-.65,1,0,1s.65-1,0-1ZM99,321l1-4h-1c.36,1.76-1.36,2.24-1,4h1ZM130,319v-2h-1v2h1ZM577.5,318c-.65,0-.65,1,0,1s.65-1,0-1ZM582.5,319c-.65,0-.65,1,0,1s.65-1,0-1ZM596,319l-5,1v6c3.38-1.37,5.76-2.91,5-7ZM65,338l-1-6.5c-1.98-2.51-2.3-5.65-4-8-.44-.61-2.7-2.86-3-2.5l5,13.5,3,3.5ZM608,325l-.5-4-3.5,5,4-1ZM629.5,321c-.65,0-.65,1,0,1s.65-1,0-1ZM79.5,322l-.5.5,1.5,1.5.5-.5-1.5-1.5ZM94,325c.65-1.25-1.6-3.5-2-3-.65,1.25,1.6,3.5,2,3ZM620,328l1-6h-1l-1,6h1ZM77,336l1-4.5-1-3-3-5.5c-.42,2.25-1.46,3.99-1,6.5.06.3,1.7,1.42,1,3l3,3.5ZM103,326v-3h-1v3h1ZM589,325v-2h-1v2h1ZM627,324l-2,4.5.5.5,2.5-5h-1ZM97,328v-3h-1v3h1ZM116,327v-2h-1v2h1ZM87,326h-2c.31,1.18,1.42,1.49,1,3h1v-3ZM109.5,326c-.71,1.03,1.2,2.81,1.5,3.5.36.83-.42,2.55,1.5,3.5l-.5-4.5-2.5-2.5ZM582,326c-1.11-1.11-7.81,4.72-9,5.5l-2,6.5,10-5,1-7ZM613.5,326c-.65,0-.65,1,0,1s.65-1,0-1ZM633.4,325.7l-5,10,1.6.8,5-10-1.6-.8ZM638.5,326c-.65,0-.65,1,0,1s.65-1,0-1ZM134.5,328l-.5.5,3.5,5.5.5-.5-3.5-5.5ZM599,328h-2v2l2-2ZM610,328l-6.5,3-.5,4c1.38-.92,7.96-3.44,8-4.5l-1-2.5ZM636,334l2-6c-2.45.44-1.61,2.49-2,3.5-.26.68-2.66,2.1,0,2.5ZM104,334c.51-2.5-.79-3.43-2.5-5l-1.5,1.5c-.42,1.53,3.18,4.32,4,3.5ZM594,329l-3,1.5v2.5l3-1.5v-2.5ZM90,333v-3h-1v3h1ZM624.5,330c-.65,0-.65,1,0,1s.65-1,0-1ZM83,331l1.5,3,.5-.5-1-2.5h-1ZM566,335l1-2.5-.5-.5-2.5,3h2ZM617.5,332c-.65,0-.65,1,0,1s.65-1,0-1ZM623.5,332c-.65,0-.65,1,0,1s.65-1,0-1ZM117.5,333c-.65,0-.65,1,0,1s.65-1,0-1ZM588,336v-2h-1v2h1ZM598,337v-3h-1c.42,1.51-.69,1.82-1,3h2ZM93.5,335c-.65,0-.65,1,0,1s.65-1,0-1ZM104,346v-6.5l-4.5-4.5-.5,3.5,5,7.5ZM130,335l-1,4.5,5.5,6.5-2.5-7.5-2-3.5ZM81,336l-2,2.5v2l2.5,3.5c3.55-2.57-.48-5.11-.5-8ZM602,341c.86.73,6.86-2.6,6-5-2.01,1.42-6.2,1.68-6,5ZM633,336l-2,6.5-5,7-4.5,9.5,5.5-7.5c.3-4.05,6.34-9.13,7-12,.18-.77.61-3.85-1-3.5ZM88,339v-2h-1v2h1ZM571,344c1.99-.08,3.82-1.92,5.5-3,.23-.15.76.15,1,0,.85-.54,3.32-3.13,2.5-4l-5.5,3-3.5,4ZM593,337h-2v2l2-2ZM114,341c.65-1.25-1.6-3.5-2-3-.65,1.25,1.6,3.5,2,3ZM566,342l2-1.5v-2.5h-1l-1,4ZM66,339l.5,5,4,5c.73-1.01-1.25-2.86-1.5-3.5-.23-.58.23-1.43,0-2l-3-4.5ZM589,339c-1.9-.29-3.29,1.1-3,3l3-1v-2ZM616,339h-2c.11,1.86-1.54,2.83-1,5h1l2-5ZM70.5,340c-.65,0-.65,1,0,1s.65-1,0-1ZM91.5,340c-.65,0-.65,1,0,1s.65-1,0-1ZM142,350l-2-6.5-3-3.5c-.15,2.74,1.48,5.2,2,7.5l3,2.5ZM558.5,340c-.65,0-.65,1,0,1s.65-1,0-1ZM109,353c-.16-2.79.23-5.71,0-8.5-.14-1.7.13-2.94-2-3.5.12,3.48-.17,7.02,0,10.5.08,1.63.85,2.87,2,1.5ZM598,341c-1.9-.29-3.29,1.1-3,3l3-3ZM98,343h-2c-.32,2.24,2.13,3.34,3.5,5l.5-.5c-1.64-1.34-2.39-2.29-2-4.5ZM119.5,344c-.65,0-.65,1,0,1s.65-1,0-1ZM579,346l-.5-2c-2.76,2.29-6.99,2.52-8.5,6,.84.74,4.41-2.44,5.5-3,.25-.13.71.13,1,0,.69-.32.85-1.5,2.5-1ZM73.5,345l-.5.5,1.5,1.5.5-.5-1.5-1.5ZM91,345h-2v3l2-1.5v-1.5ZM119,361c-.2-1.74.29-3.86,0-5.5-.07-.38-.9-.6-1-1-.31-1.27-.58-3.95-1-5-.26-.65-1.44-2.3-2-3-.84-1.05-1.53-1.79-3-1.5l2,13,5,3ZM567.5,345l-1.5,1.5.5.5,1.5-1.5-.5-.5ZM590,345c-1.69-.3-3,.46-4.5,1-1.08.39-.32,2.08-.5,3,.11.13,2.35-1.18,3-1.5,1.63-.79,2.43.03,2-2.5ZM602,353c2.48-.11,4.46-1.73,6-3.5l1-4.5c-1.59.27-7.67,7.41-7,8ZM618,348c.4.5,2.65-1.75,2-3-.4-.5-2.65,1.75-2,3ZM84.5,346c-.65,0-.65,1,0,1s.65-1,0-1ZM543,358l6-12c-2.86,1.85-3.63,5.99-6,8.5v3.5ZM133.25,347.75l-1,1,5.5,5.5,1-1-5.5-5.5ZM552.5,348c-.65,0-.65,1,0,1s.65-1,0-1ZM596,348l-3,2.5v6.5l3-3.5v-5.5ZM97,357l-1-5.5-2-2.5-1,4.5,4,3.5ZM562,351v-2l-2,1.5v.5h2ZM619.5,349l-2.5,2.5.5.5,2.5-2.5-.5-.5ZM578,350c-2.24-.51-2.65,2.23-4.5,2l-4.5,4c2.72-.45,4.93-2.09,7.5-3,.7-.25.77-2.09,1.5-3ZM141.5,351c-.65,0-.65,1,0,1s.65-1,0-1ZM552,351c-.32-.38-2.59,1.99-3,2.5-.83,1.04-1.94,2.65-3,4-.61.78-2.03,2.46-1.5,3.5,3.51-2.6,6.68-5.45,7.5-10ZM567,351l-3,1.5.5.5,2.5-1v-1ZM584,357l4.5-2,.5-4c-2.63,1.15-5.62,2.46-5,6ZM103,359c.69-3.39-1.25-5.48-4-7-.44.53,2.27,6.81,4,7ZM130.5,352l-.5.5,1.5,1.5.5-.5-1.5-1.5ZM87.5,354c-.65,0-.65,1,0,1s.65-1,0-1ZM613,358c2.02-.37,1.73-2.49,3-3.5l-.5-.5c-1.2,1.33-2.89,2.1-2.5,4ZM628.5,354c-.65,0-.65,1,0,1s.65-1,0-1ZM580.5,355c-.65,0-.65,1,0,1s.65-1,0-1ZM608,355l-7,3c.55,1.61-.93,2.11-1,2.5-.29,1.64.2,3.76,0,5.5,4.35-2.44,5.91-6.77,8-11ZM125,356c-1.93-.06-2.04-.5-2,1.5.04,2.34.88,2.5,1,3,.44,1.88-1.08,4.65,2,5.5l-1-10ZM147,356l1,7.5,4.5,4.5c.73-1.01-1.25-2.86-1.5-3.5-.23-.59.24-1.45,0-2l-4-6.5ZM564,359c.4.5,2.65-1.75,2-3-.4-.5-2.65,1.75-2,3ZM627.5,356c-.65,0-.65,1,0,1s.65-1,0-1ZM108,361v-2.5l-2-1.5,1,4h1ZM577,357l-8,3v6l7-4.5,1-4.5ZM132,358c.16,1.78-.23,3.78,0,5.5.05.37.94.62,1,1,.24,1.54-.32,3.59,0,5,.1.46,1.57.92,1,2l9.5,6.5-1.5-6.5c-2.33-2.64-2.25-8.44-5.5-10.5-.28-.18-.84.13-1,0-1.15-.95-2.04-2.57-3.5-3ZM611,384c-.37-2.27,1.97-3.05,3-4.5,2.68-3.77,4.57-8.48,8-12l4.5-9.5-5.5,8.5c-1.7,2.63-3.41,5.58-5,8-1.14,1.74-3.74,4.02-5,6v3.5ZM90,359l1,5.5,4.5,3.5c.73-1.01-1.25-2.86-1.5-3.5-.23-.59.24-1.45,0-2l-4-3.5ZM560,361v-2h-1v2h1ZM100,366l-1-4.5-3-1.5c-.48,1.92,1.19,2.34,2,3.5.3.42.3,2.52,2,2.5ZM587,362v-2l-2,1.5v.5h2ZM563.67,361.48l-1.39,6.25,2.65.59,1.39-6.25-2.65-.59ZM111.5,363c-.65,0-.65,1,0,1s.65-1,0-1ZM121,369c1-.91-2.24-3.85-3-4.5-1.43-1.21-1.7-1.95-4-1.5,1.07,3.14,3.53,5.77,7,6ZM611,364l-5,5.5-1.5,4.5c2.39-2.99,5.88-6.13,6.5-10ZM560,371l-.5-6-2.5,7,3-1ZM103.5,366c-.65,0-.65,1,0,1s.65-1,0-1ZM554,367l-3,3.5-1,6.5,2-2.5,2-7.5ZM584,373l1-6c-2.28,1.03-2.96,2.19-3,4.5-.04,2,.07,1.56,2,1.5ZM590.5,368c-.65,0-.65,1,0,1s.65-1,0-1ZM100.5,369c-.65,0-.65,1,0,1s.65-1,0-1ZM103.5,369c-.65,0-.65,1,0,1s.65-1,0-1ZM587.5,369c-.65,0-.65,1,0,1s.65-1,0-1ZM87,370c-4.49-.07-.74,2.2,0,3.5,1.31,2.29,2.62,5.87,4,8,.68,1.04,2.26,1.94,3,3,.16.23-.15.78,0,1,1.03,1.44,2.43,3.01,3.5,4.5l-4.5-10.5c-1.78-1.06-2.26-2.86-3-4-1.08-1.67-2.92-3.51-3-5.5ZM114,376l-1-4.5-2-1.5c-.33,1.72.5,2.97,1,4.5.43,1.33-.79,1.82,2,1.5ZM577,376l2-1.5v-4.5h-1c-.21,2.05-1.52,3.52-1,6ZM546,371c-.95-1.05-5.35,3.65-6,4.5-.16.21.16.78,0,1-1,1.34-6.02,7.32-5,8.5l10-6.5,1-7.5ZM118,372h-2c.21,2.05,1.52,3.52,1,6h1v-6ZM567,381c4.37-1.77,7.64-3.51,7-9l-7,4.5v4.5ZM102,380c-1.07-1.35-.75-2.8-1.5-4-.39-.62-3.21-3.33-3.5-3-.51,2.24,2.23,2.65,2,4.5l3,2.5ZM597,373h-2l-1,3.5.5.5,2.5-4ZM152.5,374l-.5.5c1.16,1.51,1.72,3.23,3.5,4.5l.5-.5-3.5-4.5ZM123,375c-3.59-.81-1.52,3.93-2,6l3,1-1-7ZM521.5,375l-4.5,4.5-1.5,3.5,4.5-4.5,1.5-3.5ZM590.5,375c-.65,0-.65,1,0,1s.65-1,0-1ZM168,382c-.14-2.2-2.24-4.29-3.5-6-.62,1.05,1.03,2.71,1.5,3.5.35.59.29,2.47,2,2.5ZM528,386l4-4.5c-.12-2.23,3.39-2.81,3-5.5l-5,4.5-2,5.5ZM588,376l-3.5,4-1.5,4,4-1.5,1-1v-5.5ZM96,396c-.73-4.04-4.37-7.45-7-10.5l-5.5-8.5,2.5,5.5,10,13.5ZM590.5,377c-.65,0-.65,1,0,1s.65-1,0-1ZM562,383l2-1.5v-3.5l-2,1.5v3.5ZM559,385l-.5-5-3.5,2-1,4,5-1ZM147,393c.79-3.39-2.01-6.1-4.5-8-.61-.46-3.25-1.52-4-2-.58-.37-2.09-2.51-2.5-2l2,8,3.5,2,5.5,2ZM155,381h-2l1,3.5,8,6.5c1.62-1.73-7.95-7.57-7-10ZM578,381l-3,2.5v5.5c3.62-1.31.86-5.49,3-8ZM176,401c.2-3.03-2.59-4.51-4-6.5-2.13-3.01-4.72-7.13-7-10-.71-.89-1.9-2.16-3-2.5l2,5.5,3,3c1.57,4.71,4.51,8.16,9,10.5ZM572,383c-.7-.71-5.68,2.35-6,3.5-.23.83.2,2.09,0,3-.32,1.48-1.19,2.03-1,3.5,2.5-.12,4.44-1.71,6-3.5l1-6.5ZM113,386v-2h-1v2h1ZM125,391l-5-5v4l5,1ZM549,390v-4h-1c.31,1.71-.21,2.62-1,4h2ZM579,394c1.28,1.21,5.83-4.63,7-5.5-.99-.76-2.94,1.32-3.5,1.5-.62.21-1.7-.12-2.5,0l-1,4ZM117,397c-1.61-3.02-2.87-7.51-7-8,1.07,1.35.75,2.8,1.5,4,.56.9,4.53,4.91,5.5,4ZM552,399l4.5-1c2.32-1.42,1.17-3.37,1.5-5.5.24-1.54,1.25-1.95,1-3.5l-5,2-2,8ZM542,391l-9.5,4-2.5,4c3.63-3.28,9.47-3.69,12-8ZM585,406l8.5-11,1.5-4c-.28-.33-2.63,1.9-3,2.5-.28.45-.73,2.6-1,3-2.06,3.06-5.54,5.65-6,9.5ZM153,396l-1-4h-1l1,4h1ZM518,392c-1.66-.32-2.54.89-3.5,2-1.69,1.97-7.63,10.12-9,11-3.89,2.48-8.76,7.18-12,11-1.21,1.43-1.95,1.7-1.5,4,3.67-2.59,6.88-5.06,10-8.5,3.32-3.66,6.75-8.56,11-12l5-7.5ZM127,402c-1.81-2.01-.48-4.61-1-6.5-.55-2-4.29-1.06-6-2.5l2,6.5,5,2.5ZM576,393c-1.9-.29-3.29,1.1-3,3l3-3ZM106.68,394.29l-1.47.88,4.99,8.31,1.47-.88-4.99-8.31ZM136.5,394c-.65,0-.65,1,0,1s.65-1,0-1ZM165,402c-.22-4.38-4.14-6.17-8-7-.52,2.54.86,3.49,2.5,5l5.5,2ZM546,403l1-8-2,3.5,1,4.5ZM586.5,395l-1.5,1.5.5.5,1.5-1.5-.5-.5ZM148,399l-7-3,2.5,3h4.5ZM570,396c-2.85-.22-5.84,1.43-7,4,2.85.22,5.84-1.43,7-4ZM221,433c-.76-1.84-2.76-3-4-4.5-7.92-9.55-18.69-20.89-28.5-28.5-.95-.73-2.19-3.12-3.5-2.5.84,1.06,2.27,1.95,3,3,6.3,9.03,10.24,10.75,17.5,17.5,4.37,4.06,7.69,8.91,12,13l3.5,2ZM531,406c.15-.34-.21-1,0-1.5.41-.99,2.84-2.05,3-3.5l-7,3.5-1,6.5,4-4c-.17.42-.32,2.1.5,2,1.68-1.98,7.92-2.48,8.5-4.5.18-.63-.19-1.41,0-2,.13-.41.92-.62,1-1,.15-.69.38-3.25-.5-3.5l-8.5,8ZM572,404c2.18-.97,3.47-2.63,3-5-2.18.97-3.47,2.63-3,5ZM578,409l2-4.5,3.5-5.5-5.5,6.5v3.5ZM139,406l-3-6c-1.06,5.52,2.19,6.55,6,9v-4l-3,1ZM181,405c.2-2.08-1.96-4.21-4-4l5,5.5-1-1.5ZM557,404l-.5-3c-2.2,1.84-5.36,2.01-6.5,5,2.81.56,4.59-2.06,7-2ZM116.5,402l-.5.5,1.5,1.5.5-.5-1.5-1.5ZM140.5,403c-.65,0-.65,1,0,1s.65-1,0-1ZM150,405c-.73.35-7.59-3.84-6-.5.76,1.59,2.5,2.99,2,5l5,2.5-1-7ZM521,403l-3,1.5.5.5,2.5-1v-1ZM569,403c-4.26-.47-7.65,1.64-8,6,1.76-.26,7.77-2.11,8-3.5v-2.5ZM492.5,406l-37.75,37.75,1.5,1.5,37.75-37.75-1.5-1.5ZM120,414c-.99-2.97-3.36-4.87-5.5-7-.61,1.05,1,2.71,1.5,3.5,1.02,1.64,1.59,3.82,4,3.5ZM156,407c-3.93-.4-1.16,1.73-1,2.5.4,1.95-1.04,4.64,2,5.5l-1-8ZM543,410c.4.5,2.65-1.75,2-3-.4-.5-2.65,1.75-2,3ZM104.5,408c-.53,1.04.89,2.72,1.5,3.5,1.1,1.42,2.89,2.58,4,4,.96,1.22,2.52,3.76,3,5l10.5,11.5-4.5-7.5c-3.51-2.8-5.15-6.61-8-10-1.92-2.27-4.51-4.25-6.5-6.5ZM129,417c.43-3.68-.57-7.35-4-9l1,4.5,3,4.5ZM557,408c-3.9.17-7.89,2.16-9,6,.69.58,6.38-2.72,8-2l1-4ZM513,417c1.71-.64,2.17-2.62,4.5-2,1.58-1.46,2.76-3.67,2.5-6-3.21,2.05-6.7,3.69-7,8ZM170,420l-1-5.5-7-4.5,1,6.5,7,3.5ZM537,410l-11.5,5c-1.58,1.46-2.76,3.67-2.5,6,.3.35,4.82-3.61,5.5-4,1.86-1.08,5.27-1.89,7-3,1.59-1.01,1.7-2.26,1.5-4ZM559,418c1.32-.57,7.08-5.83,6-7-2.52,1.97-6.68,2.94-6,7ZM146,414l-6-2,2.5,2h3.5ZM542,417l2-1.5v-2.5h-1l-1,4ZM571.21,413.82l-2.87,4.78,1.32.79,2.87-4.78-1.32-.79ZM154,430c-.13-1.12.21-2.48,0-3.5-.08-.38-.91-.61-1-1-.21-.89.23-2.16,0-3-.56-2.02-3.34-1.18-4.5-1.5-.35-.1-4.22-2.27-6-3-.61-.25-3.24-2.31-3.5-2l1,9.5,1.5,1.5,12.5,3ZM152,418c.5-.4-1.75-2.65-3-2-.5.4,1.75,2.65,3,2ZM176,422c-.86-1.24-.96-2.64-1.5-4-.47-1.19-.17-2.24-1.5-2l1,4.5,2,1.5ZM185,426c.64-5.49-2.63-7.23-7-9-1.18,1.39,1.77,7.49,3.5,8,1.03.31,2.21-.14,3.5,1ZM209,425c-2.69-.14-4.89-3.48-7-5.5-.69-.66-2-2.76-3-2,2.2,4.59,6.3,6.19,9.5,9.5l.5-2ZM556,417c-.98-.87-6.98,4.03-9,3l-2,11c2.12-.47,1.83-2.94,3.5-4,1.24-.79,6.1-4.06,6.5-5.5.37-1.32-.45-2.92,1-4.5ZM558,426c1.83-1.45,3.37-3.66,5-5.5.99-1.12,2.39-1.66,2-3.5l-5,5.5-2,3.5ZM137,425l-1-4.5-1-2.5c.06,1.82-.09,3.67,0,5.5.08,1.62.84,2.86,2,1.5ZM503,418h-2v1h2v-1ZM535,418l-10.5,6-3.5,3,6.5-3c2.45-1.71,7.25-1.62,7.5-6ZM158,421v-2h-1v2h1ZM500,419c-2.56,1.63-5.03,3.14-7,5.5l4.5-1.5,2.5-4ZM171,426c.37-2.33-.93-2.33-2.5-3-1.06-.45-2.31-1.04-3.5-1,.13,1.69,5.16,4.71,6,4ZM192,429l-1-4.5-3-2.5,1,4.5,3,2.5ZM504,430l3-2.5,1-5.5-3,2.5-1,5.5ZM516,423c-.6-.52-3.15,1.08-4,1.5-1.62.8-2.43-.04-2,2.5.6.52,3.15-1.08,4-1.5,1.62-.8,2.43.04,2-2.5ZM539,433l3-4.5,1-5.5-3,2.5-1,7.5ZM160,427v-2h-1v2h1ZM178,429c.29-1.9-1.1-3.29-3-3-.29,1.9,1.1,3.29,3,3ZM198,431l-3.5-5-.5.5c1.08,1.27,2.04,2.93,2,4.5h2ZM553.5,427c-.65,0-.65,1,0,1s.65-1,0-1ZM560,432c.37.39,2.45-1.91,3-2.5s2.4-1.69,1.5-2.5c-1.05.78-1.99,2.38-3,3-.88.54-2.35-.58-1.5,2ZM136.5,428c-.65,0-.65,1,0,1s.65-1,0-1ZM174,438c.19-1.47-.68-2.02-1-3.5-.38-1.74.73-3.07-1.5-4.5-.22-.14-.72.15-1,0-.69-.38-3.27-2.27-3.5-2l2,9,5,1ZM188,433l-2.5-3-3.5-2,1.5,4,4.5,1ZM497.5,429l-1.5,1.5.5.5,1.5-1.5-.5-.5ZM517,443c3.02.09,4.5-2.42,6.5-4,2.1-1.67,3.91-3.67,6-5,.97-.62,3.07-4.34,2.5-5l-12.5,7c-1.95,1.76-2.85,4.26-2.5,7ZM512.5,430c-.65,0-.65,1,0,1s.65-1,0-1ZM522.5,430l-3.5,2.5.5.5c.98-1.21,2.55-.98,3.5-2.5l-.5-.5ZM145,432l-3-1v2l3,1v-2ZM488,437c1.96.66,8.31-4.56,7-6l-7,6ZM510.5,431c-.65,0-.65,1,0,1s.65-1,0-1ZM132,435c.65-1.25-1.6-3.5-2-3-.65,1.25,1.6,3.5,2,3ZM155,438c.8-4.15-3.44-4.41-6-6-.86,2.36,5.69,6.35,6,6ZM194,435l-3-3c-.29,1.9,1.1,3.29,3,3ZM118.5,433c-.65,0-.65,1,0,1s.65-1,0-1ZM182,442c.76-1.82-.87-2.95-1-3.5-.22-.88.23-2.16,0-3-.18-.68-3.29-3.31-4-2.5-.58,4.95.19,7.31,5,9ZM551,433c-4.35-.21-7.52,3.24-9,7l3.5-2,5.5-5ZM120.5,435l4.5,6.5,12.5,12.5-4.5-6.5-12.5-12.5ZM199,435h-2c.31,1.18,1.42,1.49,1,3h1v-3ZM461,451c1.95.52,2.34-1.26,3.5-2,4.13-2.64,10.38-5.3,13.5-9.5.15-.2-.16-.76,0-1,.8-1.16,2.49-1.57,2-3.5-1.86.71-2.98,2.83-4.5,4-3.34,2.56-7.69,5.22-11,8-.56.47-3.89,3.66-3.5,4ZM512.5,434l-6,3,.8,1.6,6-3-.8-1.6ZM142,448l-3-8.5c.55-1.28-3.19-4.42-4-3.5l1,6.5c2.23,1.58,2.46,5.58,6,5.5ZM160,440l-1-4h-1l1,4h1ZM190,438l-6-1.5,2,6,5,2.5-1-7ZM204,438c.75,2.3,3.02,2.74,4.5,4l.5-.5c-1.66-1.37-2.76-3.82-5-3.5ZM503,441v-3h-.5l-1.5,1.5v1.5h2ZM198,448c-.91-2.06-1.93-4.34-2-6.5l-3-2.5c.49,2.17,1.14,4.45,2,6.5.66,1.58.68,2.87,3,2.5ZM531,444c1.5.32,2.06-.44,3-1.5v-2.5c-1.33.22-3.83,3.17-3,4ZM175,442l-5-1c.32,1.9,5.22,4.67,6,4l-1-3ZM511,441c-.51-.52-4.74,1.59-5,2.5-.37,1.32.45,2.92-1,4.5,3.85-.28,6.23-3.15,6-7ZM552,441c-1.93-.49-2.34,1.2-3.5,2-3.3,2.27-6.6,5.21-9.5,8.5-.99,1.13-2.39,1.66-2,3.5,1.84.39,2.37-1.01,3.5-2,4.08-3.59,7.95-7.89,11.5-12ZM204,451c.25-.29-1.54-5.41-2-6.5-.66-1.58-.68-2.87-3-2.5.91,2.06,1.93,4.34,2,6.5l3,2.5ZM528,442c-1.03-1.11-7.09,4.84-6,6,2.56-1.59,6.8-1.85,6-6ZM480,451c2.67-1.16,5.17-2.71,7.5-4,.28-.15.78.14,1,0,1.58-1,1.7-2.27,1.5-4-.27-.31-2.89,1.75-3.5,2-.73.3-2.93.32-4,1-.98.62-3.08,4.35-2.5,5ZM158,451c-.23-3.47-2.86-5.93-6-7-.49,1.93,1.2,2.34,2,3.5.17.24-.15.8,0,1,.9,1.19,2.31,2.78,4,2.5ZM161,446v-2h-1v2h1ZM153,453l-2.5-1-6.5-7,1,5.5c2.49,2.09,6.88,9.21,8,2.5ZM185,448c-.83-2.22-3.89-3.19-6-3l2.5,2,3.5,1ZM214,455l-2-5.5-5-4.5c.33,3.27,2.49,6.01,3,9l4,1ZM503,445c-3.83-.46-5.61,2.51-5,6,3.71,0,3.8-3.53,5-6ZM516,449c.4.5,2.65-1.75,2-3-.4-.5-2.65,1.75-2,3ZM193,452c.94-2.28-4.37-4.56-5-4l1.5,3,3.5,1ZM492,454c2.43-.46,1.61-2.39,2-3.5.2-.58,1.53-.85,1-2.5l-2,2.5-1,3.5ZM178,450c-1.64.5-1.8-.67-2.5-1-2.67-1.26-.81,2.9,0,4s1.95,2.3,3.5,2l-1-5ZM225,460l-2-7.5-7-3.5,3,9,6,2ZM475,450c-1.72-1.5-6.39,3.44-7,5l4.5-1,2.5-4ZM525,452l-.5-2-4.5,4.5c1.39.71,2.51-1.95,3.5-2.5.47-.26,1.31.19,1.5,0ZM187,458c.23-3.85-2.15-6.72-6-7-.72.75,1.05,4.9,2,5.5,1.19.75,2.66.43,4,1.5ZM229.5,451l-.5.5,3.5,3.5.5-.5-3.5-3.5ZM509,451c-2.14-.08-3.73-.41-5,1.5v2.5c2.2-.26,5.35-1.35,5-4ZM164,458c.53-1.65-.8-1.93-1-2.5-.38-1.1.41-3.06-2-3.5-.53,1.65.8,1.93,1,2.5.38,1.1-.41,3.06,2,3.5ZM199,455c.65-1.25-1.6-3.5-2-3-.65,1.25,1.6,3.5,2,3ZM487,452l-9,3-1,6c3.11-1.3,5.97-3.57,9-4l1-5ZM525,477l4-1.5,21-22c-1-.76-2.31,1.34-3,2-4.59,4.39-8.85,9.17-13.5,13.5-.18.17-.82-.17-1,0-2.64,2.44-5.37,5.1-7.5,8ZM452,461c2.22.32,3.07-1.87,4.5-3,.2-.16.78.17,1,0,1.19-.9,2.78-2.31,2.5-4-.37-.39-8.76,6.31-8,7ZM501,454c-.64-.58-5.98,1.78-5,4l4-1,1-3ZM171,462c.55-.49-4.44-6.86-6-7-.23,3.85,2.14,6.72,6,7ZM196,461c-.18-3.37-2.65-5.83-6-6l2,4.5,4,1.5ZM206,457l-2-2v2h2ZM248.5,455c-.76,1,1.34,2.31,2,3,1.63,1.7,3.36,3.31,5,5,.76-1-1.34-2.31-2-3-1.63-1.7-3.36-3.31-5-5ZM464.5,455c-.65,0-.65,1,0,1s.65-1,0-1ZM492,461l1-4-4,3.5v.5h3ZM180,462c.31-1.76-1.36-3.29-3-4-.31,1.76,1.36,3.29,3,4ZM231,463c.32-2.24-2.13-3.34-3.5-5l-.5.5c1.26,1.48,1.7,3.75,4,4.5ZM252,470c.99-1-2.63-4.25-3.5-5-1-.87-3.91-2-5-4l-5.5-2.5,10.5,9.5,3.5,2ZM524,458h-2v1h2v-1ZM155,458.5l-1,1,4.75,4.75,1-1-4.75-4.75ZM203,464c-1.36-2.26-.65-5.32-4-5-.51,2.61,1.42,5.08,4,5ZM216,462c.29-1.9-1.1-3.29-3-3l3,3ZM468,465c-.51-1.44,2.8-5.09,2-6-3.49,1.41-5.74,2.97-5,7l3-1ZM505.5,459l-1.5,1.5.5.5,1.5-1.5-.5-.5ZM532,459l-4.5,4-2,3c3-1.7,5.33-3.67,6.5-7ZM190,468c.14-3.38-2.06-7.6-6-7,.04,1.41-.32,2.67.5,4,1.36,2.23,3.44,1.76,5.5,3ZM460.5,461c-.65,0-.65,1,0,1s.65-1,0-1ZM208,466l-1-4h-1v2.5l2,1.5ZM226,464l-5-2,3.5,4,1.5-2ZM475,467c.45.38,7.91-2.31,7-5-.3-.29-2.84,1.7-3.5,2-1.21.54-3.92-.37-3.5,3ZM493,469c3.86-.28,6.23-3.15,6-7-3.14,1.07-5.77,3.53-6,7ZM197,465l-4-1c-.54,2.17,1.11,3.14,1,5l4,1-1-5ZM213,467l-1.5-3-.5.5,1,2.5h1ZM505,464h-2c.2,1.21-.02,1.79-1,2.5l.5.5,2.5-3ZM520,464l-5.5,2c-3.69,4.32-9.01,8.15-12.5,12.5-.87,1.09-1.44,2.25-2,3.5,1.67,1.57,6.7-6.98,9-6v-2c.19-.19,1.03.26,1.5,0,2.62-1.46,7.12-7.59,9.5-10ZM237.5,465c-.65,0-.65,1,0,1s.65-1,0-1ZM458,468c1.9.29,3.29-1.1,3-3l-3,3ZM217.4,465.16l-1.47.88,3.26,5.44,1.47-.88-3.26-5.44ZM229.5,466l-.5.5c.95,1.52,2.52,1.29,3.5,2.5l.5-.5-3.5-2.5ZM442.5,466c-5.83,4.78-11.36,8.93-16.5,14.5,1.04.53,2.72-.89,3.5-1.5,1.08-.84,1.93-2.12,3-3,.2-.17.81.16,1,0,2.32-1.96,4.85-4.76,7-7,.66-.69,2.76-2,2-3ZM454,466c-1.12-1.07-6.07,3.91-5,5,2.95.11,4.01-2.93,5-5ZM490,471l1-5c-2.66.59-1.37,3.22-3,4.5l2,.5ZM177,467c-.39,4.84,3.4,6.37,6.5,9l-2.5-6.5-4-2.5ZM204,468l-3-1v1.5l4,3.5-1-4ZM228,474c-1.39-2.78-.79-5.69-5-5,.99,2.07,2.05,5.11,5,5ZM238,471v-2h-1v2h1ZM466,471v-2l-3,2.5.5.5,2.5-1ZM208.81,469.51l-1.47.88,2.56,4.26,1.47-.88-2.56-4.26ZM481,474c1.64-.71,3.31-2.24,3-4-1.64.71-3.31,2.24-3,4ZM195,483c-1.98-2.71-1.61-8.94-4-10.5-1.08-.7-2.69-1.57-4-1.5-.31.27,1.75,2.88,2,3.5.6,1.45.94,4.33,2,6,.54.84,3.15,3.33,4,2.5ZM447,471h-2l-1,4c.62.75,2.79-3.08,3-4ZM461,473l-.5-2-6.5,4c2.53-.27,4.72-1.81,7-2ZM235,477c.51-2.61-1.42-5.08-4-5-.61,3.28,1.38,3.83,4,5ZM253.5,472l-.5.5,1.5,1.5.5-.5-1.5-1.5ZM497.5,472c-.65,0-.65,1,0,1s.65-1,0-1ZM477,473c-2.76.32-5.75,1.65-5,5,1.83-1.64,5.3-2.15,5-5ZM203,485c-2.08-3.68-1.78-10.36-7-11-.08,3.68,2.57,6.41,2,10l5,1ZM493.5,474l-1.5,1.5.5.5,1.5-1.5-.5-.5ZM175.5,475l-.5.5,2.5,2.5.5-.5-2.5-2.5ZM220.5,475c-.65,0-.65,1,0,1s.65-1,0-1ZM241,479c.31-1.76-1.36-3.29-3-4-.31,1.76,1.36,3.29,3,4ZM489,475h-2v4c2.01-.53,2.24-2.12,2-4ZM209,487c.58-.67-1.63-6.62-2-7.5-.66-1.58-.68-2.87-3-2.5l2,9,3,1ZM250,483l-6-6c-.2,1.73-.09,3,1.5,4,.26.16.8-.14,1,0,1.16.82,1.57,2.47,3.5,2ZM458,479l-.5-2c-2.89,2.18-8.25,1.21-8.5,6,2.8-2.21,5.83-3.46,9-4ZM468,479v-2h-1v2h1ZM483,478c-3.6-.22-5.95,1.69-7,5l5.5-1,1.5-4ZM521,481c1.9.29,3.29-1.1,3-3l-3,3ZM215,488l-1-5.5-3-3.5,1,5.5,3,3.5ZM257,485c.62-1.61-3.4-6.71-4-6-.62,1.61,3.4,6.71,4,6ZM183,501c.39-1.84-1.01-2.38-2-3.5-3.25-3.67-7.83-8.23-11.5-11.5-.18-.16-.81.17-1,0-1.23-1.08-2.31-2.37-3.5-3.5-.69-.66-2-2.76-3-2l21,20.5ZM237,483c-.22-1.33-3.17-3.83-4-3-.32,1.5.44,2.06,1.5,3h2.5ZM460.5,480c-.65,0-.65,1,0,1s.65-1,0-1ZM220,482l-3-1,2.5,8,3.5,2c.42-3.46-2.85-5.9-3-9ZM473,482c-.96-.79-3.69,1.63-4,3h3c-.42-1.51.69-1.82,1-3ZM243,485c.5-.4-1.75-2.65-3-2-.5.4,1.75,2.65,3,2ZM267.5,483c-.65,0-.65,1,0,1s.65-1,0-1ZM413.5,483l-4.5,4.5.5.5,4.5-4.5-.5-.5ZM265,490c-.39-.85-4.34-6.79-5-6-.52,1.82,3.55,7.36,5,6ZM454.7,483.4l-8.8,4.4.8,1.6,8.8-4.4-.8-1.6ZM486,490c.3.35,6.12-4.8,5-6-2.91.95-4.79,2.81-5,6ZM517.5,484l-1.5,1.5.5.5,1.5-1.5-.5-.5ZM232,493c.27-.26-2.26-3.48-2-4.5l-4-3.5c-.32,1.83,4.22,9.71,6,8ZM252,490c.01-3.67-3.5-3.8-6-5l2.5,3,3.5,2ZM466,485c-1.9-.29-3.29,1.1-3,3l3-3ZM240,496l-2-7.5-4-2.5c.45,3.72,1.55,9.54,6,10ZM479,486c-.62-.52-5,1.77-5,2.5l5-1.5v-1ZM456,490c1.9.29,3.29-1.1,3-3l-3,3ZM259,492c-.71-1.64-2.24-3.31-4-3,.71,1.64,2.24,3.31,4,3ZM428,491l3-1.5-.5-.5-2.5,1v1ZM468.5,489c-.65,0-.65,1,0,1s.65-1,0-1ZM247,498c-1.02-1.71-1.23-3.69-2-5.5-.67-1.58-.68-2.87-3-2.5l1,5.5,4,2.5ZM437,493c1.9.29,3.29-1.1,3-3l-3,3ZM211,491h-3v.5l1.5,1.5h1.5v-2ZM451.5,491c-.65,0-.65,1,0,1s.65-1,0-1ZM461,493l3-1.5-.5-.5-2.5,1v1ZM497.5,491c-.65,0-.65,1,0,1s.65-1,0-1ZM217,495c.29-1.9-1.1-3.29-3-3v2l3,1ZM255,501l-1-5.5-5-3.5,1,6.5,5,2.5ZM448.5,492l-1.5,1.5.5.5,1.5-1.5-.5-.5ZM475,492l-3,1.5.5.5,2.5-1v-1ZM226,497l-2.5-3-3.5.5,6,2.5ZM268,495l-5-2v2c1.86-.11,2.83,1.54,5,1v-1ZM455.5,494l-1.5,1.5.5.5,1.5-1.5-.5-.5ZM206,495h-3v.5c1.4,1.57,1.39,3.96,4,3.5l-1-4ZM422,495l-6,3.5,1.5,2.5c1.98-1.64,3.03-3.91,4.5-6ZM421,502c.55.63,5.76-5.14,5-7l-3,3.5-2,3.5ZM466.5,495c-.65,0-.65,1,0,1s.65-1,0-1ZM485,501c1.94.69,8.34-4.62,7-6-2.53,1.78-5.56,3.07-7,6ZM263,503l-1-4.5-5-2.5,1,4.5c1.51,1.64,2.48,3.02,5,2.5ZM281.5,496c-.76,1,1.34,2.31,2,3,2.06,2.16,4.65,4.27,6.5,6.5.13.16-.18.72,0,1,.94,1.49,2.49,1.3,3.5,2.5l-1.5-3.5-10.5-9.5ZM450,496c-1.71-.43-3.36,1.61-4.5,2-.95.32-2.78-.84-2.5,1,2.48.27,5.87-.37,7-3ZM463,496l-4,1c-.17.18.22.96,0,1.5-.28.66-2.22,2.48-1.5,3.5l4.5-1,1-5ZM213,502c.27-2.75.1-5.21-3-5-.47,2.37.82,4.03,3,5ZM220,504c-1.19-2.35-1.08-4.99-4-6-.85,1.04,1.5,6.93,4,6ZM410,498h-2v1h2v-1ZM239.5,499c-.65,0-.65,1,0,1s.65-1,0-1ZM271,506c.89-.89-3.4-7.7-6-7l1,4.5,1,1,4,1.5ZM229,506l-1-3.5c-1.46-1.58-3.67-2.76-6-2.5l1,4.5,1.5,1.5h4.5ZM406.5,500c-.65,0-.65,1,0,1s.65-1,0-1ZM454,500h-2c.2,1.21-.02,1.79-1,2.5l.5.5,2.5-3ZM246.5,501c-.65,0-.65,1,0,1s.65-1,0-1ZM435.5,501l-1.5,1.5.5.5,1.5-1.5-.5-.5ZM440,508l5.5-1,1.5-1.5,1-4.5c-.26-.3-2.87,1.72-3.5,2-.51.23-1.34-.19-2,0-1.6.46-1.39,3.55-2.5,5ZM476,501c-1.68-.29-3.01.45-4.5,1-2.21.82-5.64,1.95-5.5,5h-2l-3,6,5.5-2,9.5-10ZM231,544c-1.05-1.8-2.92-3.63-4.5-5-.19-.17-.81.16-1,0-6.6-5.8-12.41-13.17-19-19-2.16-1.91-4.89-4.51-7-6-4.12-2.91-7.04-8.33-11.5-11l1,4.5,38.5,34.5,3.5,2ZM234,508l-1.5-3-.5.5,1,2.5h1ZM455,508c1.9.29,3.29-1.1,3-3l-3,3ZM213.5,506c-.65,0-.65,1,0,1s.65-1,0-1ZM251,513c-1.46-2.65-.5-5.17-3.5-7l-.5,5.5,4,1.5ZM281,509v-1.5l-2-1.5v3h2ZM406,510c1.9.29,3.29-1.1,3-3l-3,3ZM431.91,506.65l-3.57,5.96,1.62.97,3.57-5.96-1.62-.97ZM259,516l-1-5.5-5-2.5,1,5.5,5,2.5ZM219.5,509l-.5.5,1.5,1.5.5-.5-1.5-1.5ZM292,514c-.29-2.01-2.64-1.74-3.5-3-.81-1.18.06-2.27-1.5-2,.32,2.76,1.65,5.75,5,5ZM480.5,509l-4,2-9.5,7.5,7.5-3.5,6-6ZM267,519l-1-6.5-1-1-4-1.5c.93,3.99,1.62,7.79,6,9ZM393.5,510c-1.97,2.03-4.05,3.96-6,6-.66.69-2.76,2-2,3,1.97-2.03,4.05-3.96,6-6,.66-.69,2.76-2,2-3ZM416,510h-2v1h2v-1ZM229,514c.82-.66-4.29-3.71-5-3-.21,3.1,2.25,3.27,5,3ZM405.5,511l-4.5,3.5.5.5,4.5-3.5-.5-.5ZM444,511l-4.5,1-1.5,1.5-2,7.5,3-2.5,5-7.5ZM235,512c-.39,1.9,1.3,2.67,2.5,4l.5-.5c-1.27-1.01-.98-3.13-3-3.5ZM422.75,511.75l-4.5,4.5,1,1,4.5-4.5-1-1ZM278,522c-.34-1.82-1.94-7.54-3.5-8l-5.5-1c1.37,1.87,1.76,7.49,3.5,8l5.5,1ZM397,517c.4.5,2.65-1.75,2-3-.4-.5-2.65,1.75-2,3ZM485.5,514l-5.5,4.5c1.04.53,2.72-.88,3.5-1.5.61-.48,2.76-2.12,2-3ZM210.5,515c-.76,1,1.34,2.31,2,3,1.3,1.36,2.69,2.65,4,4,.76-1-1.34-2.31-2-3-1.3-1.36-2.69-2.65-4-4ZM308,521l-3.5-4-3.5-1.5c1.19.86,5.65,6.68,7,5.5ZM413,515l-4,1.5-4,5.5c3.86-.83,7.78-2.62,8-7ZM429,525c2.3-.75,2.74-3.02,4-4.5l1-5.5-3,4.5-2,5.5ZM233,523c-.39-1.27-7.65-6.36-8-6l3.5,5,4.5,1ZM253,521c.65-1.72-2.95-4.9-4-4,1.02,1.99,1.45,4.39,4,4ZM286,518l-3-1c.13,1.12-.21,2.48,0,3.5.08.37.87.59,1,1,.19.59-.18,1.37,0,2,.19.68,3.28,3.31,4,2.5l-2-8ZM423,527l3-3.5c-.44-2.41,2.05-4.01,2-6.5l-3,4.5-2,5.5ZM446,526c1.84.39,2.37-1.01,3.5-2,1.82-1.6,3.44-3.16,5.5-4.5-1.98-2.48-1.49-.93-3,0-2.66,1.64-6.67,2.18-6,6.5ZM261,523c1-2.25-4.42-4.58-5-4-.32,3.35,2.74,2.64,5,4ZM301,529c.26-2.33-.92-4.54-2.5-6-2.88-.86-4.6-4.65-8.5-4l1,4c3.75-.5,4.4,1.55,4,5l6,1ZM395,524c3.42.66,4.35-2.02,6-4.5-1.37-.82-2.66,2.26-3.5,2.5-1.28.36-2.24-.45-3.5,1.5l-1.5,4.5,2.5-4ZM233.5,520c-.65,0-.65,1,0,1s.65-1,0-1ZM242,526c1.21-2.65-4.3-7.48-6-6,1.09,3.1,2.91,4.91,6,6ZM419,523l1-2.5-.5-.5-1.5,3h1ZM269,525c.21-3.1-2.25-3.27-5-3,.08,1.61,4.51,3.49,5,3ZM409,535l3-5.5,2.5-6.5c-1.58,1.22-2.46,2.86-3.5,4.5-.71,1.11-2,3.19-2.5,4.5-.4,1.05-1.5,3.07.5,3ZM459,529c1.93.47,2.34-1.17,3.5-2,1.61-1.15,3.82-1.47,3.5-4-1.01.78-7.74,5.35-7,6ZM280,528c-1.12-2.86-4.76-2.62-7-4-.37,2.32.92,2.34,2.5,3,1.45.61,2.86,1.25,4.5,1ZM254,525h-2c-.83.83,1.67,3.78,3,4l-1-4ZM402,531c.35.37,2.58-1.98,3-2.5.62-.78,2.03-2.46,1.5-3.5l-4.5,6ZM263,527l-4.5-1c-.86,0-.65,1.96-.5,2.5.48,1.73,3.52,1.63,5,1.5v-3ZM385.5,526c-.65,0-.65,1,0,1s.65-1,0-1ZM253,553c-1.51-1.73-3.69-3.6-5.5-5-6.28-4.85-12.82-10.72-19-16-1.98-1.69-3.69-4.9-6.5-5,1.05,1.8,2.92,3.63,4.5,5,.19.17.81-.16,1,0,4.21,3.7,7.8,8.28,12,12,2.09,1.86,5.67,4.36,8,6,1.63,1.15,3.08,3.2,5.5,3ZM366,536c1.75-1.55,4.97-2.17,5-4.5l3.5-4.5-8.5,9ZM441,529v-2h-1v2h1ZM234.5,528c-.65,0-.65,1,0,1s.65-1,0-1ZM271,529l-5-1,3.5,4,1.5-3ZM429.25,527.25l-4.75,4.75,1.5,1.5,4.75-4.75-1.5-1.5ZM251,537c.87-.91-1.67-3.37-2.5-4-.22-.17-.8.16-1,0-1.78-1.41-3.07-3.45-5.5-4l5.5,6,3.5,2ZM388,546c.57.65,6.4-4.5,7-5.5.13-.22-.14-.69,0-1,.19-.41.84-.61,1-1l3-9.5c-3.81,2.4-5.83,6.7-8,10.5-.14.25.14.74,0,1-.48.87-4.06,4.3-3,5.5ZM281,533l-6-3,.5,3h5.5ZM327,538c.87-.91-1.67-3.37-2.5-4-.22-.17-.8.16-1,0-1.43-1.13-2.28-3.32-4.5-3,1.82,3.23,5.01,5.06,8,7ZM391.5,531c-.65,0-.65,1,0,1s.65-1,0-1ZM414.5,531c-.65,0-.65,1,0,1s.65-1,0-1ZM457,531h-2v1h2v-1ZM303,533l-6-1,5.5,3,.5-2ZM422.5,532c-.65,0-.65,1,0,1s.65-1,0-1ZM439,532c-1.17-1.08-6.43,4.68-7,6,3.47-.23,5.93-2.86,7-6ZM442.5,532c-.65,0-.65,1,0,1s.65-1,0-1ZM255.5,533c-.65,0-.65,1,0,1s.65-1,0-1ZM265,538c.61-3.28-1.38-3.83-4-5-.51,2.61,1.42,5.08,4,5ZM378,533l-4,2.5-3,7.5c1.66-1.55,3.72-3.66,5-5.5.15-.22-.16-.77,0-1,.79-1.16,2.49-1.57,2-3.5ZM290,534h-2v1h2v-1ZM383,538c2.02-.37,1.73-2.49,3-3.5l-.5-.5c-1.2,1.33-2.89,2.1-2.5,4ZM403,534l-2.5,6,2.5-3.5v-2.5ZM273,536l-5-1c-.18.15,1.75,3.78,2.5,4,.52.15,2.5.35,2.5-.5v-2.5ZM360,535c-2.59.2-4.66,2.69-6.5,4-.2.14-.74-.16-1,0-1.58,1-1.7,2.27-1.5,4,.4.46,8.66-6.25,9-8ZM454,535l-5.5,2c-2.76,1.18-4.38,7.24-6,8-2.2,1.03-1.12-2.44-2-2-2.31,1.26-3.49,5.04-5,6-1.2.77-4,2.19-5,3-2.28,1.84-4.24,4.55-6.5,6.5l5.5-4.5c2.2-.05,3.47-1.99,5-3,3.85-2.53,8.42-4.9,12-8,2.62-2.27,5.39-5.24,7.5-8ZM282,537l-6-1c-.52.52,1.59,4.74,2.5,5,1.24.35,2.97-.72,4,1l-.5-5ZM307.5,536c-.65,0-.65,1,0,1s.65-1,0-1ZM293,544c.89-1.52-2.3-6.86-3-6-.89,1.52,2.3,6.86,3,6ZM259,543c.31-1.76-1.36-3.29-3-4-.31,1.76,1.36,3.29,3,4ZM323,543c.83-.83-1.67-3.78-3-4-.37,2.4.48,4.24,3,4ZM380,547l2-8c-1.37.69-3.1,2.3-4,3.5-.15.2.16.77,0,1-.88,1.25-2.24,2.41-3,4-.54,1.14.36,2.04,1.5,1.5.65-.3,1.3-1.61,2-2,.47-.26,1.31.19,1.5,0ZM407,545c.12-.8-.21-1.88,0-2.5.18-.56,2.26-2.51,1.5-3.5l-4.5,5.5,3,.5ZM419,541v-2h-1v2h1ZM256,550l-8.5-8-3.5-1.5c.97,1.35,2.27,1.43,3.5,2.5,1.77,1.53,3.24,3.45,5,5,1.12.99,1.66,2.39,3.5,2ZM305,546l-4-6c-.67,2.44.73,2.71,1.5,4,.89,1.48-.16,2.47,2.5,2ZM412,543v-3h-1c.42,1.51-.69,1.82-1,3h2ZM335,546c1.11-1.02-3.75-6.31-6-5l2,2v2l4,1ZM355,547c2.56-1.63,5.03-3.14,7-5.5l-3.5,1.5-3.5,4ZM426,550c2.14-1.4,4.3-3.58,6-5.5.99-1.12,2.39-1.66,2-3.5-2.36,1.13-2.94,3.77-6,3l-2,6ZM276,549l-1-4.5-1-1-4-.5c1.78,2.14,2.67,6.03,6,6ZM286,557c-.15-1.44.22-3.13,0-4.5-.07-.41-.76-3.12-1-4-.11-.38-2.02-3.37-2.5-3.5h-4.5c1.81,2,.47,4.59,1,6.5.29,1.04,6.56,6.02,7,5.5ZM357,559c-.48-1.92,1.18-2.34,2-3.5.95-1.34,2.1-3.61,3-5,1.08-1.68,2.92-3.51,3-5.5l-12,11.5,4,2.5ZM399,545c-1.9-.29-3.29,1.1-3,3,1.9.29,3.29-1.1,3-3ZM344.5,546c-.65,0-.65,1,0,1s.65-1,0-1ZM424,546c-3.05-.16-3.65,2.91-5,4.5l-1,6.5,3-3.5,3-7.5ZM266,547h-2l1.5,2h.5v-2ZM299,550c.65-1.25-1.6-3.5-2-3-.65,1.25,1.6,3.5,2,3ZM330,551c.2-2.06-1.94-4.2-4-4l4,4ZM289,550v-2h-1v2h1ZM338.5,548l-2,2,3,3,2-2-3-3ZM404.6,548.34l-4.63,2.78.88,1.47,4.63-2.78-.88-1.47ZM313.5,550c-.65,0-.65,1,0,1s.65-1,0-1ZM324,555c4.93-.25,2.87-4.75-1-5l1,5ZM352,550h-3v1.5l1.5,1.5,1.5-1.5v-1.5ZM290,554v-3h-1v3h1ZM304,551l1.5,3,.5-.5-1-2.5h-1ZM373,556c1.64-.71,3.31-2.24,3-4-1.64.71-3.31,2.24-3,4ZM380.5,552c-.65,0-.65,1,0,1s.65-1,0-1ZM274.5,553c-.65,0-.65,1,0,1s.65-1,0-1ZM336,557c.31-1.76-1.36-3.29-3-4-.31,1.76,1.36,3.29,3,4ZM396,553h-2v2l2-2ZM306,560c1.01-1.01-4.41-7.21-7-6l2,10c1.64-.71,3.31-2.24,3-4h2ZM390,558l-.5-4-4.5,5,5-1ZM292,558c-.31-1.18-1.42-1.49-1-3h-1v3h2ZM317,555l2.5,5,1.5-1.5c-1.38-1.47-1.32-3.94-4-3.5ZM368,555l-4,3.5-3,7.5c2.97.24,4.01-3.47,4-5.5l3-5.5ZM407,555h-2v1h2v-1ZM263.5,556c-.65,0-.65,1,0,1s.65-1,0-1ZM281,560c.2-2.06-1.94-4.2-4-4l4,4ZM328,559h1.5l1.5-1.5-1.5-1.5-1.5,1.5v1.5ZM346,558v-2l-2,1.5v.5h2ZM406,569l8-7.5,1-5.5-5,4.5c-.43,3.09-3.88,5.13-4,8.5ZM378.5,558l-1.5,1.5.5.5,1.5-1.5-.5-.5ZM285,563c.65-1.25-1.6-3.5-2-3-.65,1.25,1.6,3.5,2,3ZM293,563c.65-1.25-1.6-3.5-2-3-.65,1.25,1.6,3.5,2,3ZM334,560c-1.25-.65-3.5,1.6-3,2,1.25.65,3.5-1.6,3-2ZM275,563v-2h-1v2h1ZM340.5,561c-.65,0-.65,1,0,1s.65-1,0-1ZM349,564h1.5l1.5-1.5-1.5-1.5h-1.5v3ZM373,561c-1.9-.29-3.29,1.1-3,3h2l1-3ZM388,561c-2.93.8-7.78,1.92-7,6,1.07,1.13,6.52-4.74,7-6ZM313,567v-2.5l-2-1.5,1,4h1ZM431.5,563c-3.68,3.82-7.97,6.29-11.5,10.5,1.04.53,2.72-.89,3.5-1.5,1.92-1.5,4.23-4.15,6-6,.66-.69,2.76-2,2-3ZM289,564l-3,1.5,4,3.5c.54-2.17-1.11-3.14-1-5ZM308,564l-4,4.5,2.5,4.5c.49-.77,2.35-1.94,2.5-2.5.66-2.38-1.41-4.07-1-6.5ZM323,564h-2v2l2-2ZM334,569c1.37-.31,3.79-3.05,3-4h-1v2h-2v2ZM347,566h-2l1.5,2h.5v-2ZM375,574l2-3.5,1-4.5c-2.84,1.29-2.95,5.41-5,7.5l2,.5ZM294.18,566.79l-2.06,1.24,2.78,4.63,2.06-1.24-2.78-4.63ZM371,567c-2.2-.32-2.93,1.37-3.5,3-.74,2.11-.82,2.58,1,4l2.5-7ZM396,569v-2l-3,2.5.5.5,2.5-1ZM316,577c2.72-.81,1.98-3.33,2-5.5l-3-2.5v3.5l1,4.5ZM400,572c.4.5,2.65-1.75,2-3-.4-.5-2.65,1.75-2,3ZM271.5,570l-.5.5,3.5,3.5.5-.5-3.5-3.5ZM332,572l-2-2v2h2ZM342,569.5l-3,3,2.5,2.5,3-3-2.5-2.5ZM358.5,571c-.65,0-.65,1,0,1s.65-1,0-1ZM391.5,572c-.65,0-.65,1,0,1s.65-1,0-1ZM385,573c-1.84-.39-2.38,1.01-3.5,2s-2.48,2.34-3.5,3.5-2.39,1.66-2,3.5c.97,1.01,4.27-2.65,5-3.5.16-.19-.17-.81,0-1,1.28-1.48,3.22-2.67,4-4.5ZM395.5,574l-1.5,1.5.5.5,1.5-1.5-.5-.5ZM299,577l-2-2v2h2ZM310.5,575l-1.5,1.5.5.5,1.5-1.5-.5-.5ZM339,578l-1.5-3-.5.5,1,2.5h1ZM344,579c1.5.32,2.06-.44,3-1.5v-2.5c-1.33.22-3.83,3.17-3,4ZM355,577l-2-2v2h2ZM336,582c.08-2.14.41-3.73-1.5-5l-1.5,1.5c1.27,1.01.98,3.13,3,3.5ZM395,580l-.5-2-3,2-4.5,6c1.1.99,6.72-4.36,6-6h2ZM286.5,579c-.76.88,1.39,2.52,2,3,.78.62,2.46,2.03,3.5,1.5l-5.5-4.5ZM309,585c.77-.76-1.22-5.93-3-6l-1,5,4,1ZM322.5,579l-2.5,2.5,2,2,2.5-2.5-2-2ZM351,585l1-2.5-1.5-2.5-2.5,3.5,3,1.5ZM343,581h-2v3h2v-3ZM373,583c-2.06-.2-4.2,1.94-4,4l4-4ZM310.5,584c-.65,0-.65,1,0,1s.65-1,0-1ZM320,588c.83-.83-1.67-3.78-3-4l1,4h2ZM361.45,583.82l-.64,3.81,2.19.36.64-3.81-2.19-.36ZM354,585l-2,3.5,1.5,1.5,2.5-3.5-2-1.5ZM340,589c.29-1.9-1.1-3.29-3-3l1,3h2ZM374,586h-2v2l2-2ZM328,592c.51-2.5-.79-3.43-2.5-5l-1.5,1.5c-.42,1.53,3.18,4.32,4,3.5ZM347,587h-2l-1,2.5,3,1.5v-4ZM313.5,590l-.5.5,1.5,1.5.5-.5-1.5-1.5ZM349.5,591c-.65,0-.65,1,0,1s.65-1,0-1ZM319,592l3.5,6c3.49-2.64.24-6.51-3.5-6ZM360,596l1-4-2,1.5v2.5h1ZM333.5,594l-.5.5,1.5,1.5.5-.5-1.5-1.5ZM374,594c-1.9-.29-3.29,1.1-3,3l3-3ZM330.18,594.79l-1.47.88,2.78,4.63,1.47-.88-2.78-4.63ZM349,600c2.18-.97,3.47-2.63,3-5h-1c.47,2.33-2.47,2.67-2,5ZM363.5,596l-1.5,1.5.5.5,1.5-1.5-.5-.5ZM373.5,597c-.65,0-.65,1,0,1s.65-1,0-1ZM298,599l11.5,10c.42-.11.79-.16,1,0,.95.73,2.19,3.12,3.5,2.5l-10.5-9.5-5.5-3ZM326,599.5l-1,1,4.75,4.75,1-1-4.75-4.75ZM340,600c-3.05-.24-4.14,3.69-4,6,2.17-1.25,4.58-3.18,4-6ZM361,602v-2h-1v2h1ZM334,603v-2h-1v2h1ZM369.5,601l-4.75,4.75,1,1,4.75-4.75-1-1ZM356,603l-2.5,5,4-3-1.5-2ZM323,611c.38-.34-2.94-3.55-3.5-4-.19-.16-.78.17-1,0-.95-.73-2.19-3.12-3.5-2.5,1.31.93,6.6,7.72,8,6.5ZM344,606l-3,2.5v4.5l3-7ZM363,608v-2h-1v2h1ZM345,619c2.54.52,3.49-.86,5-2.5l.5-4.5c-.8,1.06-6.76,5.81-5.5,7ZM325.5,613l-.5.5,1.5,1.5.5-.5-1.5-1.5ZM354.5,615l-1.5,1.5.5.5,1.5-1.5-.5-.5ZM349,626l3,.5,9-9-6.5,4.5c-2.26.54-4.56,1.74-5.5,4ZM338,620c.5-.4-1.75-2.65-3-2-.5.4,1.75,2.65,3,2ZM336.5,622c-.65,0-.65,1,0,1s.65-1,0-1ZM344,624h-1.5l-1.5,1.5,1.5,1.5,1.5-1.5v-1.5ZM349,630v-1.5l-2-1.5-1,4c1.18-.31,1.49-1.42,3-1Z"/>
  <path d="M530,407l1-1c-.59,1.35-.97.93-1,1Z"/>
</svg>