<?xml version="1.0" encoding="UTF-8"?>
<svg id="Capa_1" data-name="Capa 1" xmlns="http://www.w3.org/2000/svg" viewBox="0 0 694 694" fill="currentColor">
  <path d="M360,51c1.37,1.15.13,1.92-1.5,2s-3.46-.2-5,0c-7.19.95-14.66,3.22-22,4l-3.5,2c1.78-.14,3.75.21,5.5,0,14.8-1.76,31.79-1.1,45,4,3.22,1.24,6.74,2.91,10,4,.62.21,1.44-.22,2,0,.81.32,4.39,2.55,5,3,.76.57,3.09,2.81,3.5,3.5.68,1.14.68,2.88,1,4,1.85,6.47,4.61,13.06,6,20,.69,3.48.66,5.31,1,9,.49,5.34,1.29,10.94,1,17-.02.35-.99.65-1,1-.41,9.8.3,19.7,0,29.5l1-5.5c1.93-2.38.73-6.69,1-10,1.06-12.86,4.44-29.56,3-43-.17-1.58-1.54-2.54-1-4.5l3,2.5c-.22,5.98.3,12.03,0,18-.92,18.47-3.6,37.2-5,56-1.87,25.23-2.88,52.65-1,78,.74,10,.84,18.72,3,28,.52,2.24-.43,3.69,2.5,5.5.85-1.52,2.06-.72,3-1,1.76-.52,5.68-7.21,8-9,1.3-1,1.7-1.29,3.5-1-1.17,2.62-2.29,5.15-2,8h-2l-2,4c3.93.4,8.71-.55,12.5,0,.79.12,3.3,2.56,5,0l5,4c7.29-.64,15.9.88,23,0,.86-.11,5.04-1.84,6-2,34.87-5.86,83.32-15.07,118-4,16.13,5.15,27.08,13.61,34.5,29.5l2,8.5,1-2.5,3-2.5-.5,5c-.24,1.54-1.72,6.77-1.5,7.5,1.72,5.65,2.68,13.96,3,20,.57,10.67-.42,21.79,0,32.5-3.15.74-1.89-2.37-2-4.5-.06-1.25.77-3.72-1-3.5l-1,6.5c-2.99,6.58-7.27,15.83-13.5,20.5-1.64,1.23-8.69,5.15-11,6-3.8,1.4-7.93,1.39-12,2-10.17,1.53-20.37,2.02-31,3-6.55.61-14.47,2.56-21,3-3.95.27-8.03-.19-12,0l-1.5,2c3.11.19,6.41-.27,9.5,0,9.14.78,19.8,3.1,29,4,2.23.22,4.7-.11,7,0,1.63.08,2.87.85,1.5,2-3.46-.18-7.05.25-10.5,0-12.64-.9-26.46-3.96-39-5-31.88-2.64-64.84,1.28-97-1-3.45-.25-7.04.17-10.5,0-.13,1.12.21,2.47,0,3.5-.08.39-.95.63-1,1-.19,1.5-.29,5.7,0,7,.08.36.8.57,1,1,.14.31-.13.78,0,1,1.02,1.71,4.42,4.18,6,6,.16.19-.17.8,0,1,1.95,2.28,5.57,4.01,5,7.5l-5.5-2c-1.15-.84-6.31-7.3-7.5-6-.2,8.48.27,17.02,0,25.5-.01.34-.99.66-1,1-1.19,34.93-2.35,72.26,0,107,.23,3.44-.53,7.84,0,11,.06.38,1,.67,1,1l-1.5,1.5h-2.5v4l3-1,1,13c-3.45-1.26-1.55-5.76-2-8.5l-2-2.5c-.24,2.39.34,5.2,0,7.5-.93,6.34-4.72,12.72-8,19-2.01,3.85-2.49,6-2,11l-5.5,5.5-5.5,1v2c-.17.17-.94-.2-1.5,0-1.57.56-1.98.35-4,1-4.02,1.29-5.93.59-10,0-4.97,3.72-10.65,4.96-16,8l-7.5,1c-.23,1.75,2.28.98,3.5,1,5.47.11,9.83-.62,15-1l8.5-2-3.5,3c-3.29.83-6.53.56-10,1-7.96,1.01-14.79.86-23,0-5.93-.62-13.18-1.63-19-3-1.06-.25-3.86-1.66-5-2-19.18-5.68-34.15-17.67-36.5-38.5l-2-1.5c-.09,2.48.12,5.01,0,7.5-.08,1.63-.85,2.87-2,1.5.17-2.78-.24-5.73,0-8.5,1.13-12.89,2.06-27.34,3-40,2.2-29.58,2.44-57.41,0-87-1-12.12-3.37-25.7-4-38-.26-5.14.19-10.36,0-15.5-3.81.06-4.74,5.88-9,5,.56-1.25,1.13-2.41,2-3.5.77-.96,5.17-4.38,4-5.5l-6.5-2c-4.23-1.32-8.56-1.33-13-2-.38-.06-.63-.94-1-1-2.56-.38-5.72.35-8,1-.89.25-1.95,3.05-4.5,2v-2c-6.81.18-13.69-.25-20.5,0-15.65.57-31.76,2.07-47,4-25.42,3.23-50.62,4.26-75-2-14.41-3.7-24.14-10.4-31.5-23.5-.39-.69-1.85-1.49-2-2-.8-2.76-2.29-5.5-3-8-.23-.81.18-2.07,0-3-.08-.39-.95-.63-1-1-.61-4.16-.53-16.72,0-21,.11-.92,1.78-4.91,2-6,2.12-10.35-.94-21.96,4-31l2-5c2.91-2.29,5.62-6.46,8.5-8.5,4.43-3.13,7.28-8.72,13-13,1.42-1.06,3.61-3.21,5-4,4.94-2.81,7.77-1.52,13-2,1.5-.14,4.7-.71,7-1,32.17-4.08,64.01-4.73,97-2,5.56.46,12.52,2.55,18,3,11.97.97,24.98-1.26,36-3,1.38-.22,3.05.14,4.5,0,1.05-2.53-1.76-3.64-2-4.5-.37-1.33.08-4.08,1.5-4.5,1.97-.58,2.71.95,3,1,3.51.61,6.37-.75,9.5-1-.49-6.59.67-14.02,0-20.5s-3.13-13.66-4-20c-4.1-29.91-3.07-60.35,1-90,.05-.37.95-.63,1-1,1.8-13.1,2.03-25.35,5-38,.49-2.08-.09-5.41,3-6.5v6l3-12.5c2.33-3.17,1.6-9.79,7-10.5v4c.02-2.88,3.43-4.43,5-6.5h-3c1.27-.83,1.46-3.16,2-4,1.5-2.34,4.53-3.18,6.5-4.5,1.37-.92,3.04-2.5,4.5-3.5-.68-.88-3.45-.65-4.5-.5-1.61.23-2.59,1.51-4.5,1-.04-4.3,3.74-2.59,6.5-3,14.77-2.18,28.81-6.96,44-9,1.72-.23,3.73.16,5.5,0ZM351,60c-4.76.25-9.77-.35-14.5,0-4.13.3-7.98,1.9-12,1-2.9-.65-4.84,1.17-7.5,1,.41,2.97-4.2,3.8-4,7l9.5-3c8.15-.65,15.04-2.6,23-4,.38-.07.63-.94,1-1,1.36-.21,4.59.93,4.5-1ZM371,63l-7-1,2.5,2,4.5-1ZM340,66h18.5c.62,0,1.92-2.06,1.5-3-3.99.35-8.61-.48-12.5,0-.45.06-2.98,1.91-5,1l-2.5,2ZM364.5,65c-.65,0-.65,1,0,1s.65-1,0-1ZM366.5,65c-.65,0-.65,1,0,1s.65-1,0-1ZM375,66h-3v1h3v-1ZM383,70l-6-4c-.43,2.54.38,1.7,2,2.5,1.29.64,2.54,1.64,4,1.5ZM309.5,68c-.65,0-.65,1,0,1s.65-1,0-1ZM384,69l2.5,3,2.5,1.5c-.81-.64-4.53-4.98-5-4.5ZM399,81c-.74-4.55-3.17-7.94-6.5-11l-4.5-1,4,3.5,1,3,6,5.5ZM305.5,72l-1.5,1.5.5.5,1.5-1.5-.5-.5ZM340,72h-11.5l-3,2-2.5,3c4.62-1.2,8.59-2.51,13.5-2l3.5-3ZM384,80c-2.22.38-3.05-1.94-4.5-3-.41-.3-2.36-.53-3-2l-5.5-1,3,6,7.5,2,2.5-2ZM347,75c-1.88-.24-3.47,0-4,2,1.88.24,3.47,0,4-2ZM315,77l-5.5,2-4.5,4.5,3.5-1.5,6.5-5ZM314,86c.35.4,2.45-1.91,3-2.5s2.4-1.69,1.5-2.5c-1.71,1.37-4.74,2.11-4.5,5ZM341,81h-2v1h2v-1ZM352,81l-4.5,1-1.5,2c.39.33,2.81-.72,3.5-1,.96-.39,2.35-.36,2.5-2ZM385.5,82c-.65,0-.65,1,0,1s.65-1,0-1ZM301,96c1.68-1.04,3.83-2.96,5-4.5.47-.62,1.52-3.24,2-4,.74-1.16,2.52-1.55,2-3.5-3.35,2.17-5.84,4.43-8,7.5l-1,4.5ZM387,84h-2l1.5,2h.5v-2ZM337,85h-4v2c1.88.24,3.47,0,4-2ZM344,86c-1.25-.65-3.5,1.6-3,2,1.25.65,3.5-1.6,3-2ZM358,86h-2v1h2v-1ZM371.5,87c-.65,0-.65,1,0,1s.65-1,0-1ZM375.5,87c-.65,0-.65,1,0,1s.65-1,0-1ZM396,99l-1-6.5-4.5-5.5c-.73,1.01,1.25,2.86,1.5,3.5.23.59-.24,1.45,0,2l4,6.5ZM354,88c-1.25-.65-3.5,1.6-3,2,1.25.65,3.5-1.6,3-2ZM369,89l-5,.5c-.69.89-4.05-.2-3,2,.86,1.79,2.92,1.61,4.5,1.5l3.5-4ZM314,94l-.5,3,4-2,1.5-4c-1.5.26-2.38,2.37-3.5,3-.47.26-1.31-.19-1.5,0ZM374,94v-2l-2,1.5v.5h2ZM379,92h-3v2h1.5l1.5-2ZM299,94l-3,3.5-1.5,8.5,2.5-3.5,2-8.5ZM361,96l-3.5-1-19.5,16.5,10.5-6.5,12.5-9ZM378.5,95c-.65,0-.65,1,0,1s.65-1,0-1ZM329,111l3.5-2,14.5-12.5c-1.04-.53-2.72.89-3.5,1.5-1.08.84-1.93,2.12-3,3-.2.17-.81-.16-1,0-3.59,3.02-7.31,6.65-10.5,10ZM325.25,98.25l-5.5,5.5,1,1,5.5-5.5-1-1ZM334.5,99c-3.49,2.75-7.7,3.95-10.5,7.5l8.5-4.5,2-3ZM367,99l-4.5,1-19,13-4.5,4c2.62-.07,4.55-2.83,6.5-4,.48-.29,2.52-.71,3-1,4.7-2.87,11.98-7.04,16-10,.87-.64,2.17-1.94,2.5-3ZM377,100h-3v2h1.5l1.5-2ZM312.5,101c-.65,0-.65,1,0,1s.65-1,0-1ZM383,103v-2l-2,1.5v.5h2ZM390,101c-3.94-.4-1.15,1.75-1,2.5.43,2.18.5,4.69,1,7,.31,1.45-.32,2.96,2,3.5l-2-13ZM401,132v-28.5l-2-1.5c-.2,2.08.29,4.5,0,6.5-.59,4.05-.56,12.86,0,18,.04.36.94.62,1,1,.2,1.36-.93,4.59,1,4.5ZM371,103c-.54-.5-3.32,1.1-4,1.5-3.63,2.11-6.7,5.81-10.5,7.5l-4.5,4,5.5-2c2.98-3.34,7.88-4.65,11-7,1.19-.9,2.78-2.31,2.5-4ZM380,105v-2l-3,2.5.5.5,2.5-1ZM284,114.5c-.42,4.65.31,9.79,0,14.5l2-2.5c.17-2.62-.24-5.43,0-8,.03-.36.97-.64,1-1,.3-4.09-.22-8.39,0-12.5l-2,2.5c.94,2.48-.9,5.94-1,7ZM313.5,106l-1.5,1.5.5.5,1.5-1.5-.5-.5ZM323,107l-3.5,2-2.5,3c.85-.41,6.78-4.31,6-5ZM304,114c2.17-1.25,4.58-3.18,4-6-2.17,1.25-4.58,3.18-4,6ZM373,110l-.5-2-11,7-4.5,4c2.03-.06,3.77-1.94,5.5-3,2.78-1.7,6.3-4.5,9-6,.47-.26,1.31.19,1.5,0ZM384,112v-4l-3,1c-.29,1.9,1.1,3.29,3,3ZM328,114l-.5-2c-1.4,1.17-2.59,2.93-4,4-.99.75-4.07,2.25-5,3-1.56,1.25-3.45,3.27-4.5,5,3,.13,4.51-2.46,6.5-4,1.81-1.4,5.68-2.9,5.5-6h2ZM379,119l4-3.5-5-2.5,1,6ZM298,114h-2v2l2-2ZM304,125c3.93-1.97,4.35-5.9,4-10l-4,2.5v7.5ZM376,121v-6l-3,2.5c1.27,1.01.98,3.13,3,3.5ZM297,124v-4l-2,1.5,1,2.5h1ZM354.5,120l-1.5,1.5.5.5,1.5-1.5-.5-.5ZM373,122l-3-.5-2.5,2.5c-1.25-2.8-6.09,1.02-6.5,2.5s.27,3.86,0,5.5c.26.32,5.61-4.42,6.5-5,.42-.28,2.56-.72,3-1,.83-.53,3.37-3.23,2.5-4ZM380,130l4-6c-1.38.77-1.84,1.37-3.5,2-1.12.42-.26,2.96-.5,4ZM394,125h-2v7h2v-7ZM305.5,128c-.65,0-.65,1,0,1s.65-1,0-1ZM332,133c2.24.32,3.34-2.13,5-3.5l-.5-.5c-1.48,1.26-3.75,1.7-4.5,4ZM356,129c-1.99.08-3.82,1.92-5.5,3-4.25,2.74-10.15,5.94-14,9-.89.71-2.16,1.9-2.5,3l5.5-2,11-8,5.5-5ZM373,133c1.9.29,3.29-1.1,3-3l-3,3ZM294,131h-1v8h1v-8ZM300,135v-3h-1c.42,1.51-.69,1.82-1,3h2ZM358,132c-1.72-.65-4.9,2.95-4,4,1.99-1.02,4.39-1.45,4-4ZM327,137c.4.5,2.65-1.75,2-3-.4-.5-2.65,1.75-2,3ZM382,136v-2l-2,1.5v.5h2ZM284,243c-.18-12.48.24-25.01,0-37.5-.35-17.98-1.24-36.89,0-55,.21-3.05.36-8.08,0-11-.05-.37-.93-.61-1-1-.24-1.27.89-3.7-1-3.5l-.5,5c-5.31,31.04-5.26,64.22-.5,95.5.06.38.95.63,1,1,.2,1.54-.08,3.37,0,5s.85,2.87,2,1.5ZM395,136h-3l1,5h1c-.11-1.86,1.54-2.83,1-5ZM401,139v-3h-1v3h1ZM324,138l-5.5,2-1.5,4c.49.55,6.86-4.44,7-6ZM350,138c-2.33-.47-2.67,2.47-5,2v1c2.37.47,4.03-.82,5-3ZM287,141v-2h-1v2h1ZM373,143c1.9.29,3.29-1.1,3-3l-3,3ZM381,142v-2h-1v2h1ZM287,146v-3h-1v3h1ZM311,144h-2v2l2-2ZM343,144c-2.14-1.05-8.49,3.44-7,5l3.5-2,3.5-3ZM357,144c-1.25-.65-3.5,1.6-3,2,1.25.65,3.5-1.6,3-2ZM331,146l-3.5,2-2.5,3c.85-.41,6.78-4.31,6-5ZM368,146c-1.9-.29-3.29,1.1-3,3l3-3ZM375,146c-1.33-1.19-5.82,4.64-7,5.5,1.05.61,2.71-1,3.5-1.5,1.64-1.02,3.82-1.59,3.5-4ZM394,158l-.5-12c-1.98,1.31-1.4,2.58-1.5,4.5-.13,2.4-.88,6.61,2,7.5ZM286.5,147c-.65,0-.65,1,0,1s.65-1,0-1ZM344,153c.35.4,2.45-1.91,3-2.5s2.4-1.69,1.5-2.5c-1.38,2.18-4.88,1.93-4.5,5ZM310,149c-2.21-.26-3.36,1.32-3,3.5l1.5,1.5c1.91-1.27,1.58-2.86,1.5-5ZM301,150c-3.34-.67-1.5,1.77-2,3.5-.12.42-1,.68-1,1s.94.62,1,1c.32,1.95-.22,4.44,0,6.5,1.89.2.76-2.23,1-3.5.07-.39.95-.63,1-1,.29-2.35-.2-5.08,0-7.5ZM333,150c-2.48.34-4.79,2.47-6.5,4l-1.5,3,3.5-2,4.5-5ZM360.5,151l-1.5,1.5.5.5,1.5-1.5-.5-.5ZM381,152h-2v4h2v-4ZM341,155v-2h-1v2h1ZM358,159c1.83-1.64,5.3-2.15,5-5-.4-.46-2.38,1.98-3,2.5-1.18.99-2.57-.31-2,2.5ZM335,157l-.5-2c-3.23,2.32-7.56,3.51-9.5,7,4.25.48,6.57-4.7,10-5ZM340,158l-.5-2c-1.4,1.14-2.6,2.97-4,4-1.8,1.32-5.24,2.67-7,4-1.19.9-2.78,2.31-2.5,4,1.19,1.17,5.46-4.13,6.5-5,.19-.16.8.17,1,0,2.13-1.75,3.81-5.05,6.5-5ZM375,156c-1.78-.47-1.99.8-3,1.5-2.76,1.91-8.61,5.81-10.5,8.5-.48.69-1.95,3.49-1.5,4l11.5-8c.24-.17.8.15,1,0,2.25-1.7,2.92-3.12,2.5-6ZM287,157c-1.17-1.35-1.92-.12-2,1.5-.52,10.52-.52,23.48,0,34,.02.35.98.65,1,1,.24,4.14-.17,8.36,0,12.5l1-6.5c.04-.37.97-.64,1-1,.7-8.75,1.18-29.79,0-38-.05-.32-1.78-1.75-1-3.5ZM322,160v-3c-3.02,1.61-7.51,2.87-8,7l8-4ZM353.5,158l-1.5,1.5.5.5,1.5-1.5-.5-.5ZM379.5,160c-.65,0-.65,1,0,1s.65-1,0-1ZM401,165v-4h-1v4h1ZM339,168c1.93.49,2.34-1.2,3.5-2,.24-.16.79.15,1,0,1.23-.9,2.27-2.5,3.5-3.5l-3.5,1.5-4.5,4ZM352.5,162l-1.5,1.5.5.5,1.5-1.5-.5-.5ZM323,163c-.71-.69-4.54,2.38-5.5,3-.23.15-.76-.15-1,0-.84.53-3.36,3.21-2.5,4,2.43.21,3.87-1.86,5.5-3,.24-.17.8.15,1,0,.82-.62,3.39-3.14,2.5-4ZM394,163h-2v12h2v-12ZM314,177c2.2.36,3.06-1.9,4.5-3,.22-.17.8.16,1,0,.92-.73,5.49-4.95,4.5-6l-10,5v4ZM343.5,168c-.65,0-.65,1,0,1s.65-1,0-1ZM357.75,168.75l-4.5,4.5,1,1,4.5-4.5-1-1ZM379.5,171c-.65,0-.65,1,0,1s.65-1,0-1ZM400.5,171c-.65,0-.65,1,0,1s.65-1,0-1ZM306,175v-2h-1v2h1ZM333,177c2.24.32,3.34-2.13,5-3.5l-.5-.5c-1.22,2-3.87,1.81-4.5,4ZM350,177v-2l-2,1.5v.5h2ZM379,175c-1.9-.29-3.29,1.1-3,3,1.9.29,3.29-1.1,3-3ZM326.5,176l-6.5,5.5,4.5-2.5,2-3ZM314,184c.36.41,2.92-2.39,3.5-3,.66-.69,2.76-2,2-3-2.07,1.5-5.49,2.91-5.5,6ZM346,178c-1.9-.29-3.29,1.1-3,3l3-3ZM394,189l-.5-11c-2.33,2.01-1.64,6.64-1.5,9.5.08,1.63.85,2.87,2,1.5ZM305,184c4.14.06,4.14-5.06,0-5v5ZM373,179c-2.25-.35-3.05,1.93-4.5,3-1.05.78-4.02,2.22-5,3-.89.7-2.16,1.9-2.5,3,1.01.9,5.53-3.36,6.5-4,.42-.28,2.56-.72,3-1,.84-.53,3.33-3.16,2.5-4ZM303,190v-5.5l-2-2.5v5.5l2,2.5ZM309,186c-1.9-.29-3.29,1.1-3,3,1.9.29,3.29-1.1,3-3ZM335,186c-1.9-.29-3.29,1.1-3,3l3-3ZM319,187c-.7-.62-6.07,1.92-5,4,1.94.55,2.34-1.3,3.5-2,.89-.54,2.34.58,1.5-2ZM373,187c-1.93-.49-2.34,1.2-3.5,2-1.05.72-3.83,2.06-5,3-.57.45-3.88,3.66-3.5,4,2.25.35,3.05-1.93,4.5-3,1.05-.78,4.02-2.22,5-3,.52-.41,2.88-2.67,2.5-3ZM379,189h-2v2l2-2ZM384.5,191c-.65,0-.65,1,0,1s.65-1,0-1ZM309,196v-4l-2,1.5,1,2.5h1ZM368,196c1.65.32,6.32-2.45,5-4l-5,4ZM394,195v-3h-1v3h1ZM304,193h-2v1.5l1.5,1.5h.5v-3ZM324.5,193l-1.5,1.5.5.5,1.5-1.5-.5-.5ZM378,195h-2l-1,2.5v1l3,1.5v-5ZM385,199v-3h-1v3h1ZM305,200v-3h-.5l-1.5,1.5v1.5h2ZM319.82,201.21l-5.66,3.4.88,1.47,5.66-3.4-.88-1.47ZM371,201l-3.5,2-4.5,5c3.02-1.61,7.51-2.87,8-7ZM349,206c2.2-.14,4.29-2.24,6-3.5-1.05-.62-2.71,1.03-3.5,1.5-.59.35-2.47.29-2.5,2ZM325,207c2.24.32,3.34-2.13,5-3.5l-.5-.5c-1.48,1.26-3.75,1.7-4.5,4ZM385,208v-4h-1v4h1ZM304,213c6.15-2.06,4.94-6.1-1-7l1,7ZM355,207l-7,4.5c1.05.61,2.71-1.01,3.5-1.5,1.33-.82,3.1-1.43,3.5-3ZM287,216c0-1.49,0-3,0-4.5,0-1.2.73-3.74-1-3.5l-1,7.5,2,.5ZM357,211c1.9.29,3.29-1.1,3-3l-3,3ZM378,208c-1.9-.29-3.29,1.1-3,3,1.9.29,3.29-1.1,3-3ZM323,209c-2.98.17-5.27,2.95-8,3v4l3-1.5,5-5.5ZM297,217c3.53-1.34,1.36-3.48,1-6h-1v6ZM372,212c-1.76-.31-3.29,1.36-4,3,1.76.31,3.29-1.36,4-3ZM385,216v-4h-1c.2,1.21-.02,1.79-1,2.5l2,1.5ZM308,215c-1.05-.9-4.65,2.28-4,4,2.55.39,2.98-2.01,4-4ZM367,217v-2l-3,2.5.5.5,2.5-1ZM333,221l7-4.5-3.5,1.5-3.5,3ZM374,220c1.64-.71,3.31-2.24,3-4-1.64.71-3.31,2.24-3,4ZM315.5,218c-.65,0-.65,1,0,1s.65-1,0-1ZM328,218c-2.05.04-3.75,1.96-5.5,3s-3.77,2.22-6,3c-.7.25-.77,2.09-1.5,3l4-1.5,9-7.5ZM384.5,219c-.65,0-.65,1,0,1s.65-1,0-1ZM299,220c-2.96-.82-2.13,2.47-2,4.5.13,1.91-.5,3.19,1.5,4.5l.5-9ZM308,220l-4,2.5v3.5c3.31-.08,4.53-3.04,4-6ZM371.26,221.98c0-.68-.55-1.24-1.24-1.24s-1.24.55-1.24,1.24.55,1.24,1.24,1.24,1.24-.55,1.24-1.24ZM328,224c-1.12-.98-5.96,4.17-7.5,4l-4.5,4c3.1-.18,5.31-2.47,7.5-4,.24-.16.8.15,1,0,.66-.49,3.86-3.69,3.5-4ZM386,224h-2v1h2v-1ZM364.5,225c-4.27,2.9-8.01,5.62-11.5,9.5l3.5-1.5,4-3,4-5ZM376,225c-1.9-.29-3.29,1.1-3,3,1.9.29,3.29-1.1,3-3ZM400,226h-1v13h1v-13ZM386,228c-1.07-.33-2.78.68-3,1.5-.3,1.14-.23,7.6,0,9,.06.38,1,.66,1,1-2.3,2.38-2.15,5.37-2,8.5l5-2.5c-.16-1.95.24-4.11,0-6-.17-1.38-2.61-5.05,0-7l-1-4.5ZM307,235v-6h-.5l-1.5,1.5v4.5h2ZM368,233v-2h-1v2h1ZM297,236c.4.5,2.65-1.75,2-3-.4-.5-2.65,1.75-2,3ZM364.5,233c-.65,0-.65,1,0,1s.65-1,0-1ZM362.5,234c-3.43,2.47-6.67,4.45-9.5,7.5l5.5-2.5,4-5ZM289,236h-1v18h1v-18ZM319,249l5.5-3,9.5-7.5-5.5,1.5-7.5,4c.64,2.57-1.08,3.16-2,5ZM367,245l6.5-4-1-3c-1.56.56-1.38,2.89-1.5,3-.08.08-.94-.24-2,.5s-2.29,1.95-2,3.5ZM306.5,239c-.65,0-.65,1,0,1s.65-1,0-1ZM367.5,239c-.65,0-.65,1,0,1s.65-1,0-1ZM318,240h-2v2l2-2ZM301.5,242c-.65,0-.65,1,0,1s.65-1,0-1ZM364,242c-2.22-.32-3.07,1.87-4.5,3-.2.16-.78-.17-1,0-1.19.9-2.78,2.31-2.5,4,.37.39,8.76-6.31,8-7ZM300.5,244c-.65,0-.65,1,0,1s.65-1,0-1ZM285,245h-1v11h1v-11ZM306,247v-2h-1v2h1ZM330,246c-2.9.18-5.01,3.55-7.5,4l-4.5,5,5.5-3,6.5-6ZM302.26,247.98c0-.68-.55-1.24-1.24-1.24s-1.24.55-1.24,1.24.55,1.24,1.24,1.24,1.24-.55,1.24-1.24ZM362.5,247l-1.5,1.5.5.5,1.5-1.5-.5-.5ZM297,249h-1v18h1v-18ZM317,249h-2v3h1c-.42-1.51.69-1.82,1-3ZM374.25,248.25l-4.5,4.5,1,1,4.5-4.5-1-1ZM332,267c3.09-.19,5.28-2.44,7.5-4,4.09-2.88,4.55-3.91,7.5-7.5,1.4-1.7,4.15-3,4-5.5-1.86.71-2.98,2.83-4.5,4-3.84,2.95-9.04,5.73-12.5,9.5-1.02,1.11-2.38,1.68-2,3.5ZM387,263l-.5-13-5.5,5.5c-.31,5.67-.67,8.38,6,7.5ZM305.5,251c-.65,0-.65,1,0,1s.65-1,0-1ZM397,267c2.13-.56,1.86-1.8,2-3.5s.19-4.29,0-6c-.04-.36-.94-.62-1-1-.2-1.36.93-4.59-1-4.5v15ZM300,264c3-1.27,3.35-3.46,3-6.5l-1-4.5c-3.76,1.76-1.36,7.73-2,11ZM353.5,253l-2.5,2.5.5.5,2.5-2.5-.5-.5ZM284.5,257c-.65,0-.65,1,0,1s.65-1,0-1ZM371,260c1.9.39,2.67-1.3,4-2.5l-.5-.5c-1.01,1.27-3.13.98-3.5,3ZM306,261v-2h-1v2h1ZM376,264v-3h-1c.42,1.51-.69,1.82-1,3h2ZM307,264v-2h-1v2h1ZM284,269l2-1.5c-1.54-1.03-.93-2.75-1-4.5h-1v6ZM376.6,264.34l-8.09,4.85.88,1.47,8.09-4.85-.88-1.47ZM387,265c-1.69-.3-3,.46-4.5,1-1.08.39-.32,2.08-.5,3l5-4ZM303,266c-1.9-.29-3.29,1.1-3,3l3-3ZM358.5,266l-1.5,1.5.5.5,1.5-1.5-.5-.5ZM377,271l-.5-3c-1.83,2.68-5.2,3.06-6.5,6,2.94.18,4.53-3.09,7-3ZM408,272v-4h-1v4h1ZM328,269c-.53-.5-3.32,1.11-4,1.5-1.38.8-4.63,3.11-5.5,4.5-.75,1.2-.43,2.65-1.5,4,1.17,1.13,4.54-3.21,5.5-4,.21-.17.81.16,1,0,.91-.77,5.56-5,4.5-6ZM298,270h-2v3l2-1.5v-1.5ZM362,275l6-4.5-3.5,1.5-2.5,3ZM388.26,271.98c0-.68-.55-1.24-1.24-1.24s-1.24.55-1.24,1.24.55,1.24,1.24,1.24,1.24-.55,1.24-1.24ZM285,275v-3h-1v3h1ZM349,272c-1.76-.31-3.29,1.36-4,3,1.76.31,3.29-1.36,4-3ZM283,273l-7,2.5c1.82,2.63,4.33,1.31,6.5.5,1.08-.4.32-2.07.5-3ZM272.5,274c-.65,0-.65,1,0,1s.65-1,0-1ZM296.5,274c-.65,0-.65,1,0,1s.65-1,0-1ZM338,274c-1.25-.65-3.5,1.6-3,2,1.25.65,3.5-1.6,3-2ZM376.5,274l-4.5,3.5.5.5,4.5-3.5-.5-.5ZM367,275c-.82-.69-5.8,2.36-5,3l5-2v-1ZM476,285c12.61.62,25.98-.84,38.5,0,11.15.75,28.3,4.38,39,2,5.22-1.16,7-1,12,0,8.77,1.75,18.93-.29,27,3,5.77-2.27,12.59,5.14,19,6l9.5,7.5c-1.26-.84-1.39-2.95-2-4-5.39-9.28-19.42-17.4-29.5-20.5-7.32-2.26-14.07-2.27-22-3-26.34-2.43-51.62,2.04-77,5-3.46.4-7.87,2.63-12,2l-2.5,2ZM274.5,276c-.65,0-.65,1,0,1s.65-1,0-1ZM299,282c3.18-.09,5.75-3.67,2.5-6l-2.5,6ZM359,276h-2v1h2v-1ZM305.5,277c-.65,0-.65,1,0,1s.65-1,0-1ZM317,286c2.42.2,3.87-1.85,5.5-3,.23-.16.79.15,1,0,1.94-1.44,3.21-3.52,4.5-5.5l-5,2.5v2c-2.91-.5-5.85.58-6,4ZM275,279l3.5,4,3.5-5-3,4-4-3ZM298,278h-3l1,7c3.14-1.03,1.76-4.56,2-7ZM331.5,278l-1.5,1.5.5.5,1.5-1.5-.5-.5ZM412,286l-2-5.5-2-2.5c-.24,2.83,0,7.88,4,8ZM211,281c-2.79-.16-5.72.23-8.5,0-.36-.03-.65-.98-1-1-6.73-.45-14.87-.79-21-1-8.15-.28-16.36.2-24.5,0-.09,1.93,3.14.8,4.5,1,.38.06.64.96,1,1,4.83.52,11.66.81,16,1,9.66.42,20.28.2,30,0,1.22-.02,3.73.75,3.5-1ZM284,284l1-5h-1l-2,5h2ZM276,285l-4.5-5c-1.33,1.82-3.9.69-6,1s-6.96,1.81-9,2c-2.75.26-5.73-.18-8.5,0-.2,1.89,2.23.76,3.5,1,.39.07.63.95,1,1,2.52.31,6.06.84,8,1,3.25.26,8.84.37,12,0,1.55-.18,1.92-1.28,3.5-1ZM384,280l-3,1.5.5.5,2.5-1v-1ZM140,282c-1.61.55-2.11-.93-2.5-1-8.51-1.5-18.22,1.58-26,2-1.16.06-2.75-.67-2.5,1,2.16-.72,3.44,2.71,4.5,3,.93.26,11.07.26,12,0,.55-.15,1.44-1.84,2-2,.98-.28,2.18.5,3-1l1.5,3c3.04.22,5.61,1.55,9,1l-1-6ZM254,287c-1.7-.2-2.59-.82-4.5-1-9.38-.89-18.09-2.53-28-2-22.35,1.21-44.9-.36-67-2-3.19-.24-6.99.44-10,0-.32-.05-1.75-1.78-3.5-1l2,7c.87.87,20.71-.63,24.5,0,.38.06.67,1,1,1,26.48-2.23,54.8-.46,82-1,1.22-.02,3.73.75,3.5-1ZM388,283v-2h-1v2h1ZM416,281h-3v.5l1.5,1.5h1.5v-2ZM308,282h-2v3h2v-3ZM435,283c-1.72-.18-2.56-.84-4.5-1-2.05-.17-8.46-.41-10,0-1.33.36-1.78,2.69-1.5,4h12.5l3.5-3ZM320,291c2.5-.19,4.64-2.59,6.5-4,.21-.16.78.16,1,0,1.23-.9,2.27-2.5,3.5-3.5l-5.5,2.5-5.5,5ZM400,283c-3.1-.21-3.27,2.25-3,5,2.18-.97,3.47-2.63,3-5ZM111,288c-1.06-2.98-4.82-2.37-6.5-4-2.48-.58-3.31.84-4,1-.89.21-2.16-.23-3,0-1.64.45-5.47,3.85-7,5-.21.16-.58.11-1,0l-6.5,7c2.44-.04,4.59-2.08,6.5-3,.49-.24,1.34.19,2,0,.86-.25,6-4.26,8-5,.84-.31,2.2.53,3-1h8.5ZM303,284c-4.03.28-4.39,3.71-4,7l4-1v-6ZM378,297l10-7.5v-5.5c-2.54,2.36-5.76,1.98-8,4.5.11,3.04-2.82,5.06-2,8.5ZM357.5,285c-.65,0-.65,1,0,1s.65-1,0-1ZM130,286h-2v2l2-2ZM280,288v-2l-2,1.5v.5h2ZM297,286h-2v5h2v-5ZM521,288c-2.79-.16-5.72.23-8.5,0-.36-.03-.65-.98-1-1-12.71-.84-35.55,2.26-46-1-1.79-.56-3.42,1.66-5.5,1-.23,1.76,2.26.95,3.5,1,2.16.09,4.71-.66,6,1,15.99-.24,32.01.32,48,0,1.22-.02,3.73.75,3.5-1ZM408,290v-1.5l-2-1.5v3h2ZM453,288c-3.46.66-6.21-1.58-9.5-1l-3.5,2c3.15-.04,6.34.06,9.5,0,1.22-.02,3.73.75,3.5-1ZM342,296l4-1.5,8-6-5.5,2.5-6.5,5ZM413.5,288c-.65,0-.65,1,0,1s.65-1,0-1ZM372,293c1.72.65,4.9-2.95,4-4-1.99,1.02-4.39,1.45-4,4ZM308,291c-3.8-.12-3.04,3.35-3,6l2-2.5,1-3.5ZM389,292l-11.5,9-.5,4c1.69-.98,12-6.72,12-7.5-1.78-1.42-1.17-3.65,0-5.5ZM129,294h-6v1h6v-1ZM200,294h-16.5l-3.5,2,7.5-1c1.67,2.31,2.38.14,3,0,1.49-.33,4.2.04,6,0,1.22-.03,3.73.75,3.5-1ZM287,301c3.1-.29,6.94-2.51,4-5.5l-2.5-1.5-2.5,1.5,1,5.5ZM295.5,294c-.65,0-.65,1,0,1s.65-1,0-1ZM303,296v-2h-1v2h1ZM369.26,294.98c0-.68-.55-1.24-1.24-1.24s-1.24.55-1.24,1.24.55,1.24,1.24,1.24,1.24-.55,1.24-1.24ZM402,294c-3.76-.41-2.34.01-3,1.5-.18.41-.84.6-1,1-.76,1.86-1.3,3.41-1,5.5l4-4.5,1-3.5ZM525,294h-6v1h6v-1ZM562,295l-7.5-1-1.5,2c1.82-.03,3.67.04,5.5,0,1.22-.03,3.73.75,3.5-1ZM565,296h16c.23-1.76-2.26-.95-3.5-1-1.64-.07-3.41.17-5,0-.36-.04-.63-.95-1-1-1.44-.19-3.48-.07-5,0-1.63.08-2.87.85-1.5,2ZM154,296l-10.5-1-2.5,2c1.72.18,2.57.84,4.5,1,2.44.21,7.58.9,8.5-2ZM179,296l-5-.5-10-.5,3.5,2c2.67-.04,5.34.05,8,0,1.22-.02,3.73.75,3.5-1ZM422,295h-13.5l-6.5,7,8.5-3,2,2c1.12-1.79,3.29-.63,5-1,.25-.05,2.45-1.56,3-2,1.05-.84,1.79-1.53,1.5-3ZM449,295h-17v5c1.64-.27,4.09.39,5.5,0,.77-.21,2.92-3.32,4-4l4,4,3.5-5ZM470,297c-1.75.78-3.18-.95-3.5-1-4.23-.61-9.89.7-14,0-.39-.07-.9-1.55-2.5-1v5c3.76-.08,7.59.79,10.5-2h2c2.54,2.29,7.36,3.6,7.5-1ZM156,299c2.4-.06,4.57.67,6-1.5-2.02-2.67-6.2-2.05-6,1.5ZM430,296c-1.76-.31-3.29,1.36-4,3,1.76.31,3.29-1.36,4-3ZM117,297l-6.5,1-1.5,3-2,2,6.5-2,3.5-4ZM363,297c-3.06-.22-4.61,2.73-6.5,4-2.88,1.94-7.23,3.96-10,6-.87.64-2.17,1.94-2.5,3l5.5-2c2.96-3.23,7.65-4.85,11-7,1.38-.88,1.73-2.67,2.5-4ZM477,297c-2.81-.07-6.13-.73-6,3l4.5,1,1.5-4ZM277,300l-.5-2c-1.02,1.51-2.48.94-4,1-2.49.11-5.02-.07-7.5,0-.2,1.93,2.26.7,3.5,1,.39.09.6.89,1,1,1.32.36,1.6-.91,2-1,1.54-.34,3.81.23,5.5,0ZM300,298l-4,1v2h-1.5l-3.5,4,9-2v-5ZM339,300v-2l-2,1.5v.5h2ZM373.5,298c-.65,0-.65,1,0,1s.65-1,0-1ZM480,301c2.48-.09,5.01.13,7.5,0,1.92-.1,3.19.48,4.5-1.5-1.31-1.98-2.58-1.4-4.5-1.5-2.49-.13-5.02.09-7.5,0v3ZM496,298h-2v3h2v-3ZM595.5,298l3,3,6.5,2.5c-1.23-1.38-2.84-2.72-4.5-3.5s-3.79-.72-5-2ZM104.5,299c-.65,0-.65,1,0,1s.65-1,0-1ZM252,299c-4.8.18-9.69-.25-14.5,0s-10.45.95-16,1c-1.54.02-3.97-.91-3.5,1.5,1.31,1.98,2.58,1.4,4.5,1.5,5.68.29,11.15-.73,16-1,4.47-.25,9.03.18,13.5,0v-3ZM261,299h-4.5l-1.5,2h4.5l1.5-2ZM498,299v2h6v-2h-6ZM516,301c-1.35-3.51-6.17-1.53-9-2-1.37,1.15-.13,1.92,1.5,2,2.49.12,5.02-.09,7.5,0ZM76,314c-.27-3.93,2.91-6.51,5-9.5.16-.22-.16-.77,0-1,.68-.98,3.15-2.16,2.5-3.5-1.41.92-6.13,4.22-6.5,5.5-.39,1.38-.47,1.7-1,3-.68,1.66-.78,3.77-2,5l2,.5ZM217,300h-5.5l-1.5,2h5.5l1.5-2ZM280,300c-2.02.37-1.73,2.49-3,3.5l.5.5c1.2-1.33,2.89-2.1,2.5-4ZM283,302v-2h-1v2h1ZM591,302l-1.5-2h-3.5v1c2.17-.54,3.14,1.11,5,1ZM625,328c2.64-.61,2.37-5.39,2-7.5-.07-.38-.9-.6-1-1-1.52-6.15-2.45-7.25-6-12-.16-.22.16-.79,0-1-2.06-2.7-5.02-4.26-7.5-6.5l8.5,13.5c2.37,2.26,1.4,6.32,2,9,.25,1.13,2.88,3.26,2,5.5ZM187,302h-8v1h8v-1ZM189.5,302c-.65,0-.65,1,0,1s.65-1,0-1ZM275,302c-1.95-.51-2.9.78-4.5,1-2.17.3-6.31-1.39-5.5,2h7.5l2.5-3ZM336,308l8-5.5-4.5,1.5-3.5,4ZM367.5,302l-1.5,1.5.5.5,1.5-1.5-.5-.5ZM410.5,302c-.65,0-.65,1,0,1s.65-1,0-1ZM131,303h-4v5l4-5ZM138,307l-.5-4c-2.71-.73-5.2,2.72-4.5,5l5-1ZM331.5,303l-6.5,5.5,3.5-1.5,3-4ZM409,303h-2v2l2-2ZM569,306v-3h-.5l-1.5,1.5v1.5h2ZM575,303h-3v3c1.18-.31,1.49-1.42,3-1v-2ZM605,309l-4.5-4-4.5-1.5c1.22,1.54,2.86,2.51,4.5,3.5.24.14.74-.15,1,0,1.12.64,1.52,2.55,3.5,2ZM123,307v-3h-1v3h1ZM251,304l-8,2c1.82-.03,3.67.04,5.5,0,2.06-.05,2.89.72,2.5-2ZM258,304h-3v2h1.5l1.5-2ZM390,308l.5-4-6.5,6.5,4.5-2.5h1.5ZM467,306c-1.35-3.51-6.17-1.53-9-2-1.37,1.15-.13,1.92,1.5,2,2.49.12,5.02-.09,7.5,0ZM473.26,304.98c0-.68-.55-1.24-1.24-1.24s-1.24.55-1.24,1.24.55,1.24,1.24,1.24,1.24-.55,1.24-1.24ZM587,305l-4.5-1-2.5,2.5c3.27,4.37,7.52,5.5,7-1.5ZM145.5,305c-.65,0-.65,1,0,1s.65-1,0-1ZM158,307c-.99-3.01-6.32-2.75-8-.5l8,.5ZM374,305h-2v4h1l1-4ZM430.5,305c-.65,0-.65,1,0,1s.65-1,0-1ZM479,305h-3v1h3v-1ZM489,305h-7v1h7v-1ZM97,306c-.86-.77-3.66,1.65-4.5,2-.54.22-1.33-.17-1.5,0-.19.19.26,1.03,0,1.5-.63,1.14-2.76,2.31-3.5,3.5s-.43,2.65-1.5,4c1.84.39,2.37-1.01,3.5-2,1.05-.93,8.4-8.19,7.5-9ZM163.09,305.69l-.09,1.31,7,.5.09-1.31-7-.5ZM422,306h-4v1h4v-1ZM436.5,306c-.65,0-.65,1,0,1s.65-1,0-1ZM442,306h-2v1h2v-1ZM521,306h-5v1l2.5,1,2.5-2ZM529,306v2h4v-2h-4ZM600,314l-1.5-3c-.87-1.11-7.63-5.87-8.5-5l-1,3.5c2.35,2.24,5.89,1.77,8,5l3-.5ZM74,307l-5,4.5-3,8-1,8.5,3-5.5c1.25-3.88,2.45-8.26,4-12,.26-.64,2.29-3.19,2-3.5ZM361.5,307c-.65,0-.65,1,0,1s.65-1,0-1ZM208,308h-2v1h2v-1ZM214,308h-3v1h3v-1ZM222,308h-3v2l1.5-1,1.5,1v-2ZM237,309c-1.77-.16-3.79.24-5.5,0-.37-.05-.61-.92-1-1-1.72-.35-5.46-.79-4.5,2,2.49-.03,5,.05,7.5,0,1.22-.02,3.73.75,3.5-1ZM304,312c1.64-.71,3.31-2.24,3-4-1.64.71-3.31,2.24-3,4ZM358.5,308l-1.5,1.5.5.5,1.5-1.5-.5-.5ZM368,312l-.5-4c-1.71,1.57-3.01,2.5-2.5,5l3-1ZM542,308c-1.25-.65-3.5,1.6-3,2,1.25.65,3.5-1.6,3-2ZM555,308c-5.49-.57-10.16,1.85-9,8,2.45.2,3.87-1.86,5.5-3,.24-.17.8.15,1,0,1.71-1.29,2.97-2.7,2.5-5ZM116,313l1-3.5-2,1v2.5h1ZM284,314l4.5-2-1-3-3.5,5ZM461,309h-7.5c-1.95,1.76-2.85,4.26-2.5,7,.26.33,5.28-4.2,6.5-4l3.5-3ZM564,309h-4v3c.83.83,3.78-1.67,4-3ZM566.5,309c-.65,0-.65,1,0,1s.65-1,0-1ZM132,315c1.55.3,2.67-.88,3.5-2,.38-.52,1.54-2.38,1-3-.92,1.44-2.18.68-3.5,1.5s-1.03,2.13-1,3.5ZM152,310h-4.5c-.92.51-3.09,4.4-2.5,5l5.5-2,1.5-3ZM427,310c-1.6-.22-3.09.37-4.5,1-1.95.88-3.39,3.14-5.5,3l-1,5,6.5-4,4.5-5ZM449,310c-3.08-.48-1.6.82-2,2.5s-1.41,2.64-1,4.5l3-7ZM467,310c-4.13-.64-5.87,3.03-8.5,5-1,.75-4.09,2.25-5,3-2.13,1.74-4.3,4.11-4.5,7,.49.56,6.86-4.56,7.5-5,1.91-1.32,4.99-3.88,7-5,.47-.26,1.31.19,1.5,0,.17-.17-.23-.96,0-1.5.26-.62,2.31-3.24,2-3.5ZM483,310h-3v3l3-3ZM608,312c.91,3.66,3.18,7.47,5,10.5.73,1.21,1.41,2.55,2.5,3.5l.5-3.5c-1.69-.92-.63-2.66-1-4-.1-.37-.81-.57-1-1-.14-.31.13-.78,0-1-1.65-2.77-5.64-3.83-7.5-6.5l-.5,2h2ZM107,320l4-3.5,1-5.5-4,2.5-1,6.5ZM123,311c-1.9-.29-3.29,1.1-3,3l3-3ZM169,317l.5-4c.99-.5-.74-1.93-1-2-1.43-.38-3.85.26-5.5,0,.55,1.61-.93,2.11-1,2.5-.34,1.93.23,4.46,0,6.5l7-3ZM180,313v-2h-1v2h1ZM330.25,310.25l-5.5,5.5,1,1,5.5-5.5-1-1ZM401,311c-1.76-.31-3.29,1.36-4,3,1.76.31,3.29-1.36,4-3ZM415,311l-5.5,2-6.5,7c1.93.49,2.34-1.2,3.5-2s4-2.2,5-3c1.22-.98,2.81-2.58,3.5-4ZM437,311h-2v1h2v-1ZM444,311l-4,2.5v6.5c4.03.07,2.62-3.01,3-5.5.24-1.54,1.25-1.95,1-3.5ZM476,315l1-4-2,1.5v2.5h1ZM512,311c-1.9-.29-3.29,1.1-3,3h2l1-3ZM572.5,311c-.65,0-.65,1,0,1s.65-1,0-1ZM579,313v-2h-1v2h1ZM177,312c-1.9-.29-3.29,1.1-3,3l3-3ZM186,315v-3h-1v3h1ZM265.5,312c-.65,0-.65,1,0,1s.65-1,0-1ZM281,312l-3,2.5v1l1.5,1.5c1.91-1.27,1.58-2.86,1.5-5ZM319.5,312l-2.5,2.5.5.5,2.5-2.5-.5-.5ZM363,312h-2v3l2-1.5v-1.5ZM522,312c-4.44-.71-9.1.69-9,6,3.13-1.91,7.36-2.58,9-6ZM535,312c-1.9-.29-3.29,1.1-3,3l3-3ZM199,313l-4.5,1-3.5,4,4-1.5,4-3.5ZM206,313c-1.25-.65-3.5,1.6-3,2,1.25.65,3.5-1.6,3-2ZM210,318c1.72.28,3.05-1.3,4-2.5,1-1.27.95-2.01-.5-2.5-3.17-1.07-4.04,2.8-3.5,5ZM300,313c-1.92-.48-2.34,1.18-3.5,2-.21.15-.74-.16-1,0-1.49.95-1.3,2.49-2.5,3.5l3.5-1.5,3.5-4ZM505,313c-1.71-.41-1.98.65-3,1.5-1.66,1.38-3.21,2.77-5,4-.21,1.41-.06,4.06,1.5,4.5,1.38.39,2.1-1.38,3-2,.24-.17.8.15,1,0,.89-.68,1.62-1.76,2.5-2.5v-5.5ZM543,318l-.5-5c-1.71,1.87-4.14,3-3.5,6l4-1ZM129,314h-2v5l2-1.5v-3.5ZM181,316v-2h-1v2h1ZM222,314l-4,1.5v6.5c3.45-1.85,4.61-4.13,4-8ZM229,314h-4v3c.17.2,4.82-2.34,4-3ZM259,317v-3h-1v3h1ZM336.5,314c-.65,0-.65,1,0,1s.65-1,0-1ZM585,317c.29-1.9-1.1-3.29-3-3-.29,1.9,1.1,3.29,3,3ZM605,328c-.5-3.07,1.67-5.38,1-8.5l-3.5-5.5-4.5,5.5,2,10,1.5,1.5,1.5-3h2ZM67,334c-.07-1.33.8-2.9,1.5-4,.94-1.49,4.24-5.28,4.5-6.5.51-2.35-.36-5.94,0-8.5l-2,2.5c-.91,4.91-3.12,8.95-4.5,13.5-.31,1.01-1.56,3.06.5,3ZM154.5,315l-4.5,3.5.5.5,4.5-3.5-.5-.5ZM241,325c.69.72,4.53-2.41,5.5-3s3.08-1.42,4-2c1.95-1.23,1.55-2.97,1.5-5-3.51,1.14-5.8,4.09-8.5,6-.2.14-.74-.16-1,0-1.58,1-1.7,2.27-1.5,4ZM428,315c-.89-.94-5.62,3.39-6.5,4-.23.16-.77-.16-1,0-1.54,1.06-2.33,3.48-4.5,3l-1,6c3.65-1.22,5.75-4.56,8.5-7,.17-.15.78.18,1,0,1.82-1.48,4.06-3.37,3.5-6ZM437,323l1-8-3,2.5v2l2,3.5ZM178,318l-.5-2-2.5,1v2l3-1ZM245,316h-2v1h2v-1ZM327,323c1.32-.65,8.49-5.37,7-7-1.32.65-8.49,5.37-7,7ZM348,318v-2c-.46-.54-6.73,4.33-6,5,2.87.31,3.37-3.52,6-3ZM468.77,315.79l-1.36,4.75,1.58.45,1.36-4.75-1.58-.45ZM527,316h-2v3h1c-.42-1.51.69-1.82,1-3ZM546,322c1.83.32,9.71-4.22,8-6-1.54.56-2.96,1.87-4.5,2l-3.5,4ZM568,316h-2l-1,3h2l1-3ZM574,326l5.5-2c2.72-1.05,3.72-7.26,1-8-3.95-1.07-4.44,1.84-5.5,4.5-.17.43-.92.63-1,1-.28,1.27.19,3.09,0,4.5ZM135,317h-2v2l2-2ZM200,319v-2c-1.32.32-8.87,5.23-8,6,3.17-.22,5.15-3.99,8-4ZM230.6,316.34l-5.81,3.49.71,1.18,5.81-3.49-.71-1.18ZM356,317c-2.53.09-4.41,1.76-6,3.5-1.02,1.11-2.38,1.68-2,3.5,3.6-1.66,6.7-2.8,8-7ZM413,322l-.5-5c-1.06.87-1.94,2.22-3,3-1.2.89-3.67,2.16-5,3-1.22.77-1.89,2.05-1.5,3.5s1.22,1.52,2.5.5c2.3-1.83,4.58-4.76,7.5-5ZM561,321l1-4-2,1.5v2.5h1ZM592.88,316.53l-1.88.47,1,4,1.88-.47-1-4ZM124,318c-1.04-1.1-6.3,3.76-5,6,2.63-1.15,5.62-2.47,5-6ZM242,318c-1.25-.65-3.5,1.6-3,2,1.25.65,3.5-1.6,3-2ZM258.5,318c-.65,0-.65,1,0,1s.65-1,0-1ZM277,320l-2.5-2-3.5,5,6-3ZM311,327c.49.48,2.78-2.5,3.5-3,.67-.47,3.4-1.55,4-2,.83-.63,3.37-3.09,2.5-4l-3.5,2-6.5,7ZM511.5,318c-.65,0-.65,1,0,1s.65-1,0-1ZM520.5,318c-.65,0-.65,1,0,1s.65-1,0-1ZM81,327l2-8-3,3.5c.45,2.21-3.07,4.98,1,4.5ZM95,321v-2l-2,1.5v.5h2ZM156,324l-.5-5c-2.12,3.05-7.06,3.75-7.5,8l8-3ZM180.5,319c-.65,0-.65,1,0,1s.65-1,0-1ZM207,319h-2.5l-1.5,1.5v2.5c.93.93,4.7-2.27,4-4ZM291,319h-2v2l2-2ZM386.5,319c-.76,1.26-3.12,1.41-4,2-2.23,1.5-6.07,4.46-8,6-1.58,1.26-2.93,3.16-4.5,4.5l5.5-2.5,7-5,4-5ZM433,319l-3,2.5v4.5c1.15,1.38,1.92.12,2-1.5.11-2.2.45-3.46,1-5.5ZM489,319l-4,1v2c1.66-.48,2.02-2.52,4-2v-1ZM522,320l-4-.5,1,1c0,.78-6.87,3.6-6,6.5,1.93.49,2.34-1.21,3.5-2,.24-.16.8.15,1,0,1.52-1.12,3.47-3.36,4.5-5ZM163,325c2.09-.99,5.14-2.1,5-5-.4-.46-2.38,1.98-3,2.5-1.18.99-2.57-.31-2,2.5ZM186.5,320l-1.5,1.5.5.5,1.5-1.5-.5-.5ZM214,322v-2h-1v2h1ZM399,323c.4.5,2.65-1.75,2-3-.4-.5-2.65,1.75-2,3ZM448,332c1.38.09,2.82-.81,4-1.5,2.61-1.52,5.18-4.09,7.5-5.5.47-.29,2.56-.72,3-1,1.59-1.01,1.7-2.26,1.5-4-.49-.56-6.86,4.55-7.5,5-1.11.78-4.01,2.21-5,3-1.22.98-2.81,2.58-3.5,4ZM558.5,320c-.65,0-.65,1,0,1s.65-1,0-1ZM178,323v-2l-3,2.5.5.5,2.5-1ZM236,321c-1.9-.39-2.67,1.3-4,2.5l.5.5c1.01-1.27,3.13-.98,3.5-3ZM286.5,321c-.65,0-.65,1,0,1s.65-1,0-1ZM531,324h1.5l1.5-1.5-1.5-1.5-1.5,1.5v1.5ZM539,327c2.58.08,4.51-2.39,4-5-1.42.44-4.95,4.05-4,5ZM200,323l-7.5,4-.5,4c3.17-.22,5.15-3.99,8-4v-4ZM212,323h-2v3l2-1.5v-1.5ZM220,325v-2h-1v2h1ZM243,328l7-4.5c-1.05-.61-2.71,1.01-3.5,1.5-1.33.82-3.1,1.43-3.5,3ZM427,323c-1.71-.41-1.98.66-3,1.5-3.03,2.52-6.27,6.68-10,7.5l-1,4c1.95.52,2.34-1.26,3.5-2,2.39-1.52,5.76-3.32,8-5,.89-.67,1.62-1.77,2.5-2.5-1.9-1.4-.68-2.02,0-3.5ZM494,323h-2v4c2.01-.53,2.24-2.12,2-4ZM546,331c4.6.23,6.79-3.93,6-8-2.1,1.22-4.45,1.74-6,3.5v4.5ZM567.5,323l-1.5,1.5.5.5,1.5-1.5-.5-.5ZM127.5,324c-.65,0-.65,1,0,1s.65-1,0-1ZM224,330c1.93.47,2.34-1.17,3.5-2,1.62-1.15,3.82-1.47,3.5-4-2.61,1.56-6.88,2.23-7,6ZM333,327c1.9.29,3.29-1.1,3-3l-3,3ZM480,324c-1.25-.65-3.5,1.6-3,2,1.25.65,3.5-1.6,3-2ZM180,327l-.5-2-4.5,4c2.43.4,2.74-2.53,5-2ZM264,328c1.9.29,3.29-1.1,3-3l-3,3ZM313,332c2.53-.09,4.41-1.76,6-3.5,1.02-1.11,2.38-1.68,2-3.5-3.12,2.52-6.87,2.72-8,7ZM92,333l1-7-3,4.5c-.16,2.21-.44,2.89,2,2.5ZM207,326l-3,1.5,1.5,2.5,1.5-1.5v-2.5ZM237,326c-1.01-1.11-5.43,3.65-5,4,1.69.3,3-.46,4.5-1,1.08-.39.32-2.08.5-3ZM341.5,326l-4.34,2.6.97,1.62,4.34-2.6-.97-1.62ZM410,331l2-1.5v-3.5h-1c.11,1.86-1.54,2.83-1,5ZM156,329l-.5-2-4,2-2.5,3c2.94.18,4.53-3.09,7-3ZM167,327c-1.25-.65-3.5,1.6-3,2,1.25.65,3.5-1.6,3-2ZM400,331v-4c-2.56.54-3.76,2.77-5.5,4-.2.14-.74-.16-1,0-1.58,1-1.7,2.27-1.5,4,3.17-.22,5.15-3.99,8-4ZM488,330v-3h-.5l-3.5,4,4-1ZM568,331l-.5-4c-1.71,1.57-3.01,2.5-2.5,5l3-1ZM614.5,327c-.65,0-.65,1,0,1s.65-1,0-1ZM123,328c-2.33-.47-2.67,2.47-5,2v1c2.37.47,4.03-.82,5-3ZM145,330v-2l-2,1.5v.5h2ZM72,362l1-33c-.98.31-2.49,1.69-3,2.5-.71,1.14-1.31,3.73-2,5-.37.69-1.86,1.49-2,2-.3,1.08-.2,6.61,0,8,.05.37.92.61,1,1,.84,4.21,1.29,8.17,3,12l2,2.5ZM280,329c-2.22-.33-3.07,1.88-4.5,3-.21.16-.8-.16-1,0-.52.41-2.88,2.67-2.5,3,1.93.49,2.34-1.2,3.5-2,.24-.16.79.15,1,0,.66-.48,3.85-3.68,3.5-4ZM329.5,329l-3.5,2.5.5.5c.98-1.21,2.55-.98,3.5-2.5l-.5-.5ZM366,329c-.99-.88-5.53,3.32-6.5,4-.24.17-.8-.15-1,0-1.19.9-2.78,2.31-2.5,4,.44.46,5.73-4.4,6.5-5,.21-.16.8.16,1,0,.52-.41,2.88-2.67,2.5-3ZM441.5,329c-.65,0-.65,1,0,1s.65-1,0-1ZM507,332c.4.5,2.65-1.75,2-3-.4-.5-2.65,1.75-2,3ZM534,329h-3v3l3-3ZM539,337c4.57-.39,4.22-4.42,4-8-3.4,1.79-4.63,4.15-4,8ZM559,333v-4h-1v4h1ZM573,335l4-1.5,4-4.5c-1.42.36-8.88,5.27-8,6ZM194,337l6.5-4-.5-3c-2.52,1.97-6.68,2.94-6,7ZM478,334l1-4c-1.33.22-3.83,3.17-3,4h2ZM514,335c3.05-.14,5.07-2.47,7-4.5-1.05-.61-2.71,1.01-3.5,1.5-1.32.82-3.1,1.43-3.5,3ZM625,342c.35-2.82-.95-6.54,1-8.5l-2-3.5c.04,2.82-.06,5.67,0,8.5.02,1.22-.75,3.73,1,3.5ZM224,337c1.19-.71,7.48-4.4,6-6-1.19.71-7.48,4.4-6,6ZM257.5,331c-.65,0-.65,1,0,1s.65-1,0-1ZM406,333v-2h-1v2h1ZM614,342c.18-1.72.83-2.57,1-4.5.11-1.32-.08-2.68,0-4l-2-2.5c.03,2.49-.05,5,0,7.5.02,1.22-.75,3.73,1,3.5ZM629,334v-3h-1v3h1ZM85,343l-1-4.5,1-1c-1.69-1.08-.69-1.62-.5-2.5s1.64-3.05-.5-3l-2,8.5,3,2.5ZM188,332h-2v3h2v-3ZM237,332c-1.76-.31-3.29,1.36-4,3,1.76.31,3.29-1.36,4-3ZM311,334v-2h-1v2h1ZM588,335c.4.5,2.65-1.75,2-3-.4-.5-2.65,1.75-2,3ZM594,338l1-6c-2.11.61-5.18,6.83-1,6ZM145.25,332.25l-3.75,3.75,1.5,1.5,3.75-3.75-1.5-1.5ZM153.82,333.21l-4.49,2.69.88,1.47,4.49-2.69-.88-1.47ZM220,333h-2v2l2-2ZM527.5,333c-.65,0-.65,1,0,1s.65-1,0-1ZM552,333l-1,2.5.5.5,1.5-3h-1ZM255.5,334c-.65,0-.65,1,0,1s.65-1,0-1ZM460,334c-.76-.67-4.63,2.44-5.5,3-1.22.79-3.96,2.17-5,3-.89.7-2.16,1.9-2.5,3,1.01.89,5.53-3.35,6.5-4,.73-.49,3.34-1.52,4-2,.61-.44,2.85-2.69,2.5-3ZM503,334c-1.9-.39-2.67,1.3-4,2.5l.5.5c1.01-1.27,3.13-.98,3.5-3ZM523.5,334l-1.5,1.5.5.5,1.5-1.5-.5-.5ZM547,339l2-1.5v-3.5l-2,1.5v3.5ZM610,337v-3h-1v3h1ZM176,342c2.79-1.24,6.53-3.27,6-7l-5.5,3-.5,4ZM317.25,334.25l-5.5,5.5,1,1,5.5-5.5-1-1ZM364,337l-.5-2-7.5,6c3.57.17,5.06-3.97,8-4ZM393,344c3.5-2.17,7.28-4.09,7-9-3.15,1.41-5.79,2.73-8,5.5l1,3.5ZM442,335h-2v1h2v-1ZM533,337v-2h-1v2h1ZM620,379c.21,2.8-3.55,4.31-5,6.5-.96,1.45-2.02,4.45-3,6-.73,1.15-2.31,2.44-3,4l5.5-2.5c13.54-12.8,17.26-33.1,15.5-51.5-.03-.36-.95-.63-1-1-.22-1.73.15-3.72,0-5.5-3.01.86-1.63,3.5-2,5.5-.07.38-.94.62-1,1-2.04,12.11,1.07,25.13-5,36l1,1.5h-2ZM122,336c-1.9-.29-3.29,1.1-3,3l3-3ZM224,341l3.5-2,2.5-3c-.85.41-6.78,4.31-6,5ZM234,341c1.72.65,4.9-2.95,4-4-1.99,1.02-4.39,1.45-4,4ZM251,337c-1.9-.29-3.29,1.1-3,3l3-3ZM384,341l1-4c-1.44.5-4.91,3.94-4,5l3-1ZM467,340c.4.5,2.65-1.75,2-3-.4-.5-2.65,1.75-2,3ZM487,337h-2v1h2v-1ZM589,340c.4.5,2.65-1.75,2-3-.4-.5-2.65,1.75-2,3ZM189.25,337.25l-3.75,3.75,1.5,1.5,3.75-3.75-1.5-1.5ZM354,338c-2.25-.35-3.05,1.93-4.5,3-.21.16-.78-.16-1,0-1.06.78-1.93,2.17-3,3-.21.16-.8-.16-1,0-.52.41-2.87,2.66-2.5,3,2.25.35,3.05-1.93,4.5-3,.21-.16.78.16,1,0,1.06-.78,1.93-2.17,3-3,.21-.16.8.16,1,0,.52-.41,2.87-2.66,2.5-3ZM437,338h-2v3l2-1.5v-1.5ZM510,338l-3,1.5.5.5,2.5-1v-1ZM519.6,337.34l-5.44,3.26,1.24,2.06,5.44-3.26-1.24-2.06ZM527,341c.4.5,2.65-1.75,2-3-.4-.5-2.65,1.75-2,3ZM287,339c-1.25-.65-3.5,1.6-3,2,1.25.65,3.5-1.6,3-2ZM543,339c-3.1-.21-3.27,2.25-3,5l3-1v-4ZM137,342v-2h-1v2h1ZM145.6,339.34l-5.44,3.26,1.24,2.06,5.44-3.26-1.24-2.06ZM156.5,340c-.65,0-.65,1,0,1s.65-1,0-1ZM304.5,340c-.65,0-.65,1,0,1s.65-1,0-1ZM578.25,339.25l-6.5,6.5,1,1,6.5-6.5-1-1ZM292,343v-2h-1v2h1ZM463.5,341l-1.5,1.5.5.5,1.5-1.5-.5-.5ZM492.5,341l-1.5,1.5.5.5,1.5-1.5-.5-.5ZM206,345v-3h-1v3h1ZM231,342c-1.93-.49-2.34,1.2-3.5,2-.24.17-.8-.15-1,0-1.19.9-2.78,2.31-2.5,4,3.47-.23,5.93-2.86,7-6ZM429,342c-1.93-.49-2.34,1.21-3.5,2-.24.16-.79-.15-1,0-1.23.9-2.27,2.5-3.5,3.5l4.5-.5,3.5-5ZM596,346l-.5-4c-1.71,1.57-3.01,2.5-2.5,5l3-1ZM182,343c-1.93-.47-2.34,1.18-3.5,2-.2.14-.74-.16-1,0-1.58,1-1.7,2.27-1.5,4,3.05-.37,6.62-2.39,6-6ZM220,345v-2h-1v2h1ZM280,343c-3.47.23-5.93,2.86-7,6,1.17,1.08,6.43-4.68,7-6ZM387,348l3-2.5-1-2.5h-1c.11,1.86-1.54,2.83-1,5ZM530,343c-1.5-.32-2.06.44-3,1.5v4.5c2.74-1.18,3.42-3.16,3-6ZM287.5,344l-4.34,2.6.97,1.62,4.34-2.6-.97-1.62ZM468,344h-2v1h2v-1ZM510,344c-1.5-.32-2.06.44-3,1.5v2.5c1.33-.22,3.83-3.17,3-4ZM520,344c-2.24-.32-3.34,2.13-5,3.5l.5.5c1.48-1.26,3.75-1.7,4.5-4ZM99.5,345c-.65,0-.65,1,0,1s.65-1,0-1ZM136,349c2.01-.53,2.24-2.12,2-4-2.01.53-2.24,2.12-2,4ZM202,345l-5.5,3,1,3,3.5-2,1-4ZM368,351c1.04,1.1,6.3-3.76,5-6-2.63,1.15-5.62,2.47-5,6ZM393,348c1.9.39,2.67-1.3,4-2.5l-.5-.5c-1.01,1.27-3.13.98-3.5,3ZM456,348c.4.5,2.65-1.75,2-3-.4-.5-2.65,1.75-2,3ZM107,346h-2v4h1c-.31-1.71.21-2.62,1-4ZM143,349l3-2.5-.5-.5c-.71.98-1.29,1.2-2.5,1v2ZM164,350l3-2.5-1.5-1.5h-1.5v4ZM373,357c3.02.73,3.67-1.6,5.5-3,.22-.17.81.15,1,0,2.96-2.42,4.11-3.99,3.5-8-2.55,1.18-5.42,4.84-7.5,6-.47.26-1.31-.19-1.5,0l-1,5ZM602,352v-6h-1c-.07,1.75.54,3.47-1,4.5l2,1.5ZM85,402c.64-5.12-2.42-9.16-4-13.5-5.88-3.82-5.8-6-7-12s-2.97-12.31-7-18l-3-11.5c-1.89-.2-.76,2.23-1,3.5-.07.39-.95.63-1,1-.51,4.09-.58,16.02,0,20,.05.37.92.61,1,1,.61,3.04,1.16,5.8,2,9,7.54,14.62,20.8,23.65,35.5,27.5,18.68,4.89,47.69,3.49,68,2,.36-.03.64-.97,1-1,2.77-.24,5.71.17,8.5,0l-2.5-2c-3.66-1.26-11.91,1.57-14,1-.55-.15-1.44-1.84-2-2-4.55-1.31-18-5.73-22-5-9.03,1.65-33.28,2.17-42,0-.4-.1-.62-.93-1-1-1.64-.29-3.76.2-5.5,0v-2.5l-2.5-1.5-1.5,5ZM93.5,347c-.65,0-.65,1,0,1s.65-1,0-1ZM125.26,347.98c0-.68-.55-1.24-1.24-1.24s-1.24.55-1.24,1.24.55,1.24,1.24,1.24,1.24-.55,1.24-1.24ZM266,351l4-3.5-.5-.5c-1.57,1.4-3.96,1.39-3.5,4ZM299,350c1.9.29,3.29-1.1,3-3l-3,3ZM440.5,347c-.65,0-.65,1,0,1s.65-1,0-1ZM462.5,347c-.65,0-.65,1,0,1s.65-1,0-1ZM578,347c-1.17-1.08-6.43,4.68-7,6,3.47-.23,5.93-2.86,7-6ZM589.5,347c-.65,0-.65,1,0,1s.65-1,0-1ZM427.5,348l-1.5,1.5.5.5,1.5-1.5-.5-.5ZM493.5,348l-1.5,1.5.5.5,1.5-1.5-.5-.5ZM499,353c2.58.08,4.51-2.39,4-5-1.42.44-4.95,4.05-4,5ZM221,349h-2v3h2v-3ZM520,349c-4.03.28-4.39,3.71-4,7l4-1v-6ZM550.5,349c-.65,0-.65,1,0,1s.65-1,0-1ZM568,349h-2v2l2-2ZM596,349l-2.5,2,.5,3c4.3.47-.37-2.72,2-5ZM100,350l-2,1.5-1,5.5c3.26-1.36,3.27-3.8,3-7ZM102.5,350c-.65,0-.65,1,0,1s.65-1,0-1ZM161,350h-2v1.5l1.5,1.5h.5v-3ZM390,350c-1.76-.31-3.29,1.36-4,3,1.76.31,3.29-1.36,4-3ZM412,355l6-4.5-3.5,1.5-2.5,3ZM455,353l3-2.5-.5-.5c-.71.98-1.29,1.2-2.5,1v2ZM484,350h-2v1h2v-1ZM511,350l-4,1v2c.83.83,3.78-1.67,4-3ZM119,353v-2h-1v2h1ZM140,351c-1.9-.39-2.67,1.3-4,2.5l.5.5,3.5-2v-1ZM424.5,351l-1.5,1.5.5.5,1.5-1.5-.5-.5ZM434.5,351c-.65,0-.65,1,0,1s.65-1,0-1ZM450.5,351l-3.5,2.5.5.5c.98-1.21,2.55-.98,3.5-2.5l-.5-.5ZM193,352c-2.44-.67-2.71.72-4,1.5-1.91,1.16-2.48-.19-2,3.5l3.5-2,2.5-3ZM202,352l-4,1v2c.83.83,3.78-1.67,4-3ZM270,352c-.95-.95-4.56,2.58-5,4,2.2-.26,5.35-1.35,5-4ZM281,352c-1.25-.65-3.5,1.6-3,2,1.25.65,3.5-1.6,3-2ZM285,357c1.44-.73,2.94-1.17,4-2.5s.93-2.03-.5-2.5l-3.5,5ZM153,357c2.01-.53,2.24-2.12,2-4-2.01.53-2.24,2.12-2,4ZM167,357l1-2.5-3-1.5v4h2ZM276.5,353l-2.5,2.5.5.5,2.5-2.5-.5-.5ZM364.5,353c-.65,0-.65,1,0,1s.65-1,0-1ZM123,354l-1,4,2.24.56,1-4-2.24-.56ZM495,354l-6,3-1,4c2.27.37,3.05-1.97,4.5-3,.21-.15.74.16,1,0,1.58-1,1.7-2.27,1.5-4ZM544,354h-2v1h2v-1ZM589,356v-2h-1v2h1ZM602,354h-2v4h1c-.31-1.71.21-2.62,1-4ZM608,357v-3h-1v3h1ZM94,359v-4h-1l-1,4h2ZM357,359c1.5.32,2.06-.44,3-1.5v-2.5c-1.33.22-3.83,3.17-3,4ZM373,362l4-1.5,5-5.5-9,7ZM419,355l-4,1.5-3,3.5,3.5-2,3.5-3ZM427.5,355c-.65,0-.65,1,0,1s.65-1,0-1ZM446,359c2.24.32,3.34-2.13,5-3.5l-.5-.5c-1.48,1.26-3.75,1.7-4.5,4ZM503,357v-2c-1.99,1.02-4.39,1.45-4,4l4-2ZM511,355c-4.57.39-4.22,4.42-4,8,4.57-.39,4.22-4.42,4-8ZM528.5,355l-1.5,1.5.5.5,1.5-1.5-.5-.5ZM83,371c.88-4.82-2.01-8.07-2-12.5l-2-2.5c.27,5.6-1.63,12.08,4,15ZM107,356h-2v4h1c-.31-1.71.21-2.62,1-4ZM162,356h-2v5h1c-.11-1.86,1.54-2.83,1-5ZM426,358v-2l-3,2.5.5.5,2.5-1ZM555,358v-2h-1v2h1ZM571,362c2.4.87,5.74-5.16,5-6-2.3,1.86-5.77,2.28-5,6ZM194,357c-1.93-.49-2.34,1.21-3.5,2-.24.16-.8-.15-1,0-.61.45-2.86,2.7-2.5,3l4-1.5,3-3.5ZM277,362c2.58.08,4.51-2.39,4-5l-4,2.5v2.5ZM363,364c.76.73,5.37-2.93,6-3.5l-1-3.5c-1.11.47-2.91,2.06-3.5,3-.75,1.2-.43,2.65-1.5,4ZM86,361c.65-1.25-1.6-3.5-2-3-.65,1.25,1.6,3.5,2,3ZM183,358c-.58-.58-6,1.75-5,4,2.61.51,5.08-1.42,5-4ZM270,358c-2.2.26-5.35,1.35-5,4,.95.95,4.56-2.58,5-4ZM551,361v-3h-1v3h1ZM594,363c-2.08-.25-1.91-.32-2,1.5-.11,2.16.07,4.35,0,6.5l2-2.5c.06-1.83-.09-3.68,0-5.5,2.35.28-.28,3.16,2,3l1-8c-3.63-.08-2.88,2.53-3,5ZM101,359c-1.72-.65-4.9,2.95-4,4,1.99-1.02,4.39-1.45,4-4ZM119,361v-2h-1v2h1ZM147,361v-2h-1v2h1ZM167.5,359l-1.5,1.5.5.5,1.5-1.5-.5-.5ZM289,359h-2v1h2v-1ZM472,359h-2v4h1c-.31-1.71.21-2.62,1-4ZM554.5,359c-.65,0-.65,1,0,1s.65-1,0-1ZM617,367l-1-8c-.49,2.56-2.73,6.51,1,8ZM138,366c2.56-1.59,6.8-1.85,6-6-.48-.56-3.88,2.63-4.5,3-1,.6-2.06-1.01-1.5,3ZM455.5,360l-1.5,1.5.5.5,1.5-1.5-.5-.5ZM504,360c-4.1.61-5.69,4.25-5,8l5-2.5v-5.5ZM521.6,359.34l-4.63,2.78.88,1.47,4.63-2.78-.88-1.47ZM123.5,361c-.65,0-.65,1,0,1s.65-1,0-1ZM154,365v-4h-1v4h1ZM249.5,361c-.65,0-.65,1,0,1s.65-1,0-1ZM351.75,360.75l-4.5,4.5,1,1,4.5-4.5-1-1ZM387.5,361l-1.5,1.5.5.5,1.5-1.5-.5-.5ZM482,366c.64.8,3.69-4.16,3-5l-3,1v4ZM488,368c.94,1.04,4.28-2.68,5-3.5.99-1.13,2.39-1.66,2-3.5-1.93.44-3.14,2.03-4.5,3-.2.14-.74-.16-1,0-1.59,1-1.7,2.27-1.5,4ZM532,363l-.5-2-4.5,5c.59.59,3.36-3.96,5-3ZM95,362h-2v3l2-1.5v-1.5ZM228.5,362l-1.5,1.5.5.5,1.5-1.5-.5-.5ZM462,368c3.05.24,4.14-3.69,4-6-2.17,1.25-4.58,3.18-4,6ZM546,362l-5,1-1,4,5-1,1-4ZM103,363c-2.42-.2-3.87,1.84-5.5,3-.2.14-.74-.16-1,0-1.58,1-1.7,2.27-1.5,4,1.93.49,2.34-1.21,3.5-2,.24-.16.8.15,1,0,.8-.59,4.5-4.1,3.5-5ZM113,370l1-4.5-2-2.5c.3,1.77-.2,3.31-.5,5s-1.55,2.26,1.5,2ZM238,363c-1.9-.29-3.29,1.1-3,3l3-3ZM266,370c2.52-1.97,6.68-2.94,6-7-2.52,1.97-6.68,2.94-6,7ZM574.5,363c-.65,0-.65,1,0,1s.65-1,0-1ZM608,363h-2v2l2-2ZM183,364c-1.72-.65-4.9,2.95-4,4,1.99-1.02,4.39-1.45,4-4ZM245,367l1-2.5-.5-.5-1.5,3h1ZM397,364c-1.9-.29-3.29,1.1-3,3l3-3ZM403.5,364c-.65,0-.65,1,0,1s.65-1,0-1ZM438,366v-2h-1v2h1ZM565,372l3-3.5-1-4.5-2,2.5v5.5ZM572.5,364c-.65,0-.65,1,0,1s.65-1,0-1ZM148,365c-.8-.84-8.78,4.21-10,5.5l1,5.5c1.69-1.54,8.56-4.91,9-6.5.32-1.17-.21-3.13,0-4.5ZM201.5,365c-.65,0-.65,1,0,1s.65-1,0-1ZM250,369l1-4c-1.33.22-3.83,3.17-3,4h2ZM369,365l-4,1v1h2.5l1.5-2ZM448.5,365l-1.5,1.5.5.5,1.5-1.5-.5-.5ZM169,366c-1.98-.55-2.38,1.36-3.5,2-1.51.86-4.87.86-4.5,4,2.63-2.34,6.45-2.69,8-6ZM373,371c3.05-.14,5.07-2.47,7-4.5l-3.5,1.5-3.5,3ZM434.5,366c-.65,0-.65,1,0,1s.65-1,0-1ZM479,368v-2h-1v2h1ZM507,372c3.35-.09,4.53-3.1,4-6-1.66.48-2.02,2.52-4,2v4ZM131,370c1.9.29,3.29-1.1,3-3l-3,3ZM281,367l-4.5,2-7.5,6.5,2.5.5,9.5-9ZM328.5,367c-.65,0-.65,1,0,1s.65-1,0-1ZM344,367h-2v2l2-2ZM423.5,367c-.65,0-.65,1,0,1s.65-1,0-1ZM496,367c-1.93-.49-2.34,1.21-3.5,2-.24.16-.8-.15-1,0-1.57,1.15-2.93,3.22-4.5,4.5,1.51,2.42,3.05.38,4.5-.5.26-.15.78.15,1,0,2.43-1.57,2.34-3.66,3.5-6ZM559,376l2-3.5,1-5.5c-3.45,1.74-3.11,5.76-3,9ZM103.5,368c-.65,0-.65,1,0,1s.65-1,0-1ZM190,375c.96,1.03,4.27-2.67,5-3.5.99-1.13,2.39-1.66,2-3.5-2.22.82-3.97,2.2-5.5,4l-1.5,3ZM229,368c-2.58-.08-4.51,2.39-4,5,1.42-.44,4.95-4.05,4-5ZM363,370v-2h-1v2h1ZM391,368c-1.93-.49-2.34,1.2-3.5,2-.24.16-.79-.15-1,0-.66.48-3.85,3.69-3.5,4,1.93.49,2.34-1.2,3.5-2,.24-.16.79.15,1,0,.66-.48,3.85-3.69,3.5-4ZM454.5,368c-.65,0-.65,1,0,1s.65-1,0-1ZM484,372v-4h-.5c-1.54,1.1-1.73,2.14-1.5,4h2ZM535,379c-.15-1.44.22-3.13,0-4.5-.06-.38-.93-.62-1-1-.37-1.99.86-4.07-1.5-5.5l-6.5,5.5c-1.1,7.14,3.62,5.42,9,5.5ZM546,368c-4.57.66-6.85,3.29-6,8,2.05-.03,1.86-2.88,2-3,.21-.18,1.03.26,1.5,0,1.64-.91,2.97-3.03,2.5-5ZM616,368l-4,3.5.5,5.5,2.5-3.5,1-5.5ZM304.5,369c-.65,0-.65,1,0,1s.65-1,0-1ZM396.5,369l-1.5,1.5.5.5,1.5-1.5-.5-.5ZM421,369l-3.5,2-2.5,3c1.22,1.11,6.35-4.69,6-5ZM129.5,370c-.65,0-.65,1,0,1s.65-1,0-1ZM164,375l5.5-1,.5-4c-.34-.4-5.96,3.44-6,5ZM239,370h-2v4c2.01-.53,2.24-2.12,2-4ZM243.5,370c-.65,0-.65,1,0,1s.65-1,0-1ZM259.5,370c-.65,0-.65,1,0,1s.65-1,0-1ZM346,376l3-2.5.5-3.5-2.5,2.5-1,3.5ZM412.5,370c-.65,0-.65,1,0,1s.65-1,0-1ZM450,370l-4,1v3h2.5l1.5-1.5v-2.5ZM470,373c.4.5,2.65-1.75,2-3-.4-.5-2.65,1.75-2,3ZM585,370c-.93-.99-5.43,3.19-5,4.5l-2,6.5c2.7-1.48,5.93-.82,8-3.5l-1-7.5ZM103,378l1-4.5c-1.95-2.72-3.77-2.78-7-2.5.32,3.59,2.74,5.82,6,7ZM251,371c-2.58-.08-4.51,2.39-4,5,1.42-.44,4.95-4.05,4-5ZM384,378c.75.66,4.65-2.43,5.5-3,.23-.16.78.15,1,0,1.21-.83,2.27-2.54,3.5-3.5l-6.5,3.5-3.5,3ZM408,374l3-2.5-.5-.5c-.71.98-1.29,1.2-2.5,1v2ZM428,371l-4,3.5.5.5c1.57-1.4,3.96-1.39,3.5-4ZM456.5,371l-1.5,1.5.5.5,1.5-1.5-.5-.5ZM477,375h2.5l1.5-1.5-1.5-2.5c-1.2,1.33-2.89,2.1-2.5,4ZM504,371l-4.5,2-.5,4,4.5-2,.5-4ZM135,372l-1,2-4.5,2,1,2,5.5-1-1-5ZM211,372c-1.61-.62-6.71,3.4-6,4,1.61.62,6.71-3.4,6-4ZM236,378c.34-1.44.16-6.89-2.5-6-2.05.68-2.54,4.23-3.5,6h6ZM261,375l-1.5-3c-1.71,1.57-3.01,2.5-2.5,5l4-2ZM283,374v-2c-.46-.54-6.73,4.33-6,5,2.87.31,3.37-3.52,6-3ZM338,372c-1.76-.31-3.29,1.36-4,3,1.76.31,3.29-1.36,4-3ZM358,372h-2v1h2v-1ZM436,375c1.9.29,3.29-1.1,3-3l-3,3ZM608,377c-.11-1.86,1.54-2.83,1-5-2.18.97-3.47,2.63-3,5h2ZM126,373h-2l1,4h1v-4ZM105,377h1.5l1.5-1.5-1.5-1.5-1.5,1.5v1.5ZM220,378v-2.5l-1.5-1.5-1.5,1.5v2.5h3ZM296.5,374l-1.5,1.5.5.5,1.5-1.5-.5-.5ZM419.5,374c-.65,0-.65,1,0,1s.65-1,0-1ZM94.25,374.75l-1,1,5.5,5.5,1-1-5.5-5.5ZM212,377v-2l-2,1.5v.5h2ZM245,375h-2v4h1l1-4ZM366.5,375c-.65,0-.65,1,0,1s.65-1,0-1ZM413,375h-2v2l2-2ZM446,375h-2l1.5,2h.5v-2ZM496,375h-2v1h2v-1ZM523,375h-2v3h2v-3ZM86.18,375.79l-1.47.88,3.49,5.81,1.47-.88-3.49-5.81ZM228,376c-1.9-.29-3.29,1.1-3,3l3-3ZM239,379v-3h-1v3h1ZM312.5,376c-.65,0-.65,1,0,1s.65-1,0-1ZM364.5,376c-.65,0-.65,1,0,1s.65-1,0-1ZM373,382c.33.36,6.87-3.66,6-6-.33-.36-6.87,3.66-6,6ZM442.5,376c-.65,0-.65,1,0,1s.65-1,0-1ZM452,378l-1.5-2-1.5,1.5v.5h3ZM510.5,376c-.65,0-.65,1,0,1s.65-1,0-1ZM548,379l-.5-3-3.5,2v2l4-1ZM553,380v-4h-1v4h1ZM569,376c-2.43-.4-2.74,2.53-5,2v3h5v-5ZM276,379v-2l-3,2.5.5.5,2.5-1ZM292,377c-1.25-.65-3.5,1.6-3,2,1.25.65,3.5-1.6,3-2ZM333,384c1.56-.61,6.5-5.28,5-7-3.34,1.34-5.77,2.9-5,7ZM348,377h-2c.2,1.21-.02,1.79-1,2.5l.5.5,2.5-3ZM454.5,377c-.65,0-.65,1,0,1s.65-1,0-1ZM575,377l-3,2.5,1.5,1.5,1.5-1.5v-2.5ZM107,382c2.33.49,5.06,1.65,7.5,1,1.06-.28,1.86-2.31,1.5-3.5l-5.5-.5-3.5,3ZM259,378h-2v1h2v-1ZM264,380v-2l-2,1.5v.5h2ZM309,380v-2l-2,1.5v.5h2ZM409,378c-2.4-.37-4.24.48-4,3,2.4.37,4.24-.48,4-3ZM410.5,378c-.65,0-.65,1,0,1s.65-1,0-1ZM418,378c-1.25-.65-3.5,1.6-3,2,1.25.65,3.5-1.6,3-2ZM465,378h-3v1h3v-1ZM472,378h-2v2l2-2ZM496,378h-6.5l-2.5,3h9v-3ZM518.5,378c-.65,0-.65,1,0,1s.65-1,0-1ZM557.26,378.98c0-.68-.55-1.24-1.24-1.24s-1.24.55-1.24,1.24.55,1.24,1.24,1.24,1.24-.55,1.24-1.24ZM598,386c2.04-1.73,8.26-5.4,4.5-8l-3.5,3.5-1,4.5ZM79,383l-1-4h-1l1,4h1ZM158,379c-2.17-.54-3.14,1.11-5,1v2h5v-3ZM320,379c-.82-.69-5.8,2.36-5,3l5-2v-1ZM562.5,379c-.65,0-.65,1,0,1s.65-1,0-1ZM587.5,379l-1.5,1.5.5.5,1.5-1.5-.5-.5ZM125,381c-1.71.31-2.62-.21-4-1v3h4v-2ZM186,383l-1.5-3-3.5,1v2h5ZM193.25,379.25l-3.25,3.25,1.5,1.5,3.25-3.25-1.5-1.5ZM221,381l-2.5,1-4-2-1.5,4h4v-2h1v2h3v-3ZM304,384l.5-4-4.5,2,4,2ZM592,380h-2v1h2v-1ZM111,392c-1.93.69-2.67-1.77-3.5-2-4.38-1.24-9.43-3.54-13-6-1.46-1-2.22-3.39-4.5-3,2.53,5.4,6.99,9.01,12.5,11,1.82.66,2.32.6,4,1,.57.14,2.02,1.79,4,1l.5-2ZM168,381l-6,.5,4.5,1.5,1.5-2ZM176,383l-1.5-2h-1.5v2h3ZM210,381h-8l-1,3h9v-3ZM222,384c2.4-.06,4.57.67,6-1.5-2.02-2.67-6.2-2.05-6,1.5ZM236,381l-7,2c1.82-.06,3.67.09,5.5,0,1.62-.08,2.85-.83,1.5-2ZM429,381c-.83-.83-3.78,1.67-4,3,2.4.37,4.24-.48,4-3ZM512,384l-1.5-3-2.5,1.5,1.5,1.5h2.5ZM523,382c-2.46.73-4.34-1.25-6.5-1l-1.5,2.5,8,2.5v-4ZM609,381h-2c.37,1.72-.87,2.36-2,3.5l.5.5,3.5-4ZM241,382h-3v1h3v-1ZM297.5,382c-.65,0-.65,1,0,1s.65-1,0-1ZM396,382c-.9-.75-6.91,2.69-6,5,.85-.39,6.79-4.34,6-5ZM440,382h-4v2c1.88.24,3.47,0,4-2ZM453,383c-2.01-.16-4.28.68-5.5-1l-2.5,3c2.15-.07,4.34.11,6.5,0,1.63-.08,2.87-.85,1.5-2ZM504,382h-3v1h3v-1ZM530,382h-4v3c.17.2,4.82-2.34,4-3ZM318,388c-4.64-.29-3.49,6.2.5,5,1.87-.56,1.02-3.57,2.5-4.5-2.23-1.55.62-2.96,0-5.5l-4,2.5,1,2.5ZM366,386c1.9.29,3.29-1.1,3-3l-3,3ZM435,383h-2v1h2v-1ZM542,383h-2v1h2v-1ZM551,383c-3.32-.21-6.65-.22-9,2.5l3.5,4.5,9,1c.92-1.47,3.97-.65,4.5-2.5.28-.98-.5-2.18,1-3l-1.5-2.5c-1.3,0-2.29-.25-3.5.5-1.9,1.17,0,5.76-2.5,4.5-1.92-.97-1.55-3.2-1.5-5ZM571,384c-4.88.17-10.02-1.73-9,5,.24.25,5.42-1.54,6.5-2,1.58-.66,2.87-.68,2.5-3ZM576,384h-2v1h2v-1ZM590,384h-8.5l-3.5,1.5c2.23,2.56,5.33,2.76,8.5,2.5l3.5-4ZM304,387c-1.78-.15-3.77.22-5.5,0-3.21-.42-7.79-1.41-11-2-2.51-.46-4.25.58-6.5,1-.23,1.76,2.26.95,3.5,1,1.17.04,2.34-.03,3.5,0v2c1.61-.55,2.11.93,2.5,1,3.72.65,6.4-1.4,10-1l3.5-2ZM596.5,385l-1.5,1.5.5.5,1.5-1.5-.5-.5ZM134,386c-2.09.18-4.47-.26-6.5,0-.48.06-2.97,1.9-5,1l-2.5,2,8.5,1,5.5-4ZM131,391h17.5c.31,0,4.48-4.1,3.5-5h-11v3l-5.5-1-4.5,3ZM402,388v-2h-1v2h1ZM541,390l-3.5-4c-3.46-.75-3.59,1.8-6.5,2l10,2ZM575,388l-1.5-2c-.71.98-1.29,1.2-2.5,1v1h4ZM275,387c-3.04.56-8.45-1.64-10,2,2.81-.1,5.68.14,8.5,0,1.63-.08,2.87-.85,1.5-2ZM415,388l-2.5-1-4.5,1c-.55,1.54.99,2.25,1,2.5,0,.17-1.55,1.02-1,2.5l-3,.5c1.3,1.96,2.56,1.43,4.5,1.5,6.17.21,5.72-1.01,5.5-7ZM494,388l-9-1,3.5,2,5.5-1ZM506,388l-8-1,2.5,2,5.5-1ZM521,387h-4v1c1.21-.2,1.79.02,2.5,1l1.5-2ZM157,388c-.83-.83-3.78,1.67-4,3l4-1v-2ZM169,388c-2.63.37-6.82-1.34-8,2,2.15-.07,4.34.11,6.5,0,1.63-.08,2.87-.85,1.5-2ZM182,388l-9,.5,5.5.5,3.5-1ZM279.5,388c-.65,0-.65,1,0,1s.65-1,0-1ZM390,392c2.06.2,4.2-1.94,4-4l-4,4ZM603,388l-5,2v1c1.21.48,5.77-2.38,5-3ZM98,399c-.38-1.5-2.21-2.26-3.5-3-1.71-.98-4.52-1.9-6-3s-2.63-3.31-4.5-4c-.06,1.27.79,2.99,1.5,4,1.16,1.65,5.68,4.88,7.5,5.5s3.2.6,5,.5ZM401,389h-2l-1,4c1.33-.22,3.83-3.17,3-4ZM379,393l3-2.5-.5-.5c-.71.98-1.29,1.2-2.5,1v2ZM432,390c-2.34.28-5.29-.39-7.5,0-.37.07-.59.87-1,1-1.73.53-4.71-.87-4.5,3l11.5-1,1.5-3ZM444,391l-3.5-1-2.5,2h6v-1ZM475.5,390h-14.5c-.23,1.76,2.26.95,3.5,1,1.65.07,3.36-.14,5,0,.36.03.64.97,1,1,2.79.23,5.71-.16,8.5,0l-3.5-2ZM585,391l-8-1,7.5,3,.5-2ZM576,391h-9v2h9v-2ZM355,392c-1.76-.31-3.29,1.36-4,3,1.76.31,3.29-1.36,4-3ZM124,396l-3.5-2-5.5-1c.04,4.76,5.95,2.56,9,3ZM387,400l5.5-3,1.5-4c-2.6,2.56-7.78,2.49-7,7ZM404,393c-1.13-1.1-6.46,4.7-7,6,2.3.45,2.57-.29,4-1.5.78-.66,3.98-3.56,3-4.5ZM135,394c-2.83.47-7.65-1.51-9,2,2.83-.47,7.65,1.51,9-2ZM301,394l-4.5,1c-6.96-.14-18.04-.14-25,0-9.99.15-20.01-.2-30,0-1.22.02-3.73-.75-3.5,1,1.78.15,3.76-.22,5.5,0,.37.05.64.97,1,1,12.43,1.19,26.9-1.37,38,0,4.94.61,8.56-1.32,13,0l5.5-3ZM376,394c-1.93-.49-2.34,1.21-3.5,2-.24.16-.8-.15-1,0-1.52,1.12-3.47,3.36-4.5,5,2.43.21,3.87-1.86,5.5-3,.24-.17.8.15,1,0,.82-.62,3.39-3.13,2.5-4ZM308.5,395c-.65,0-.65,1,0,1s.65-1,0-1ZM607,395l-4.5,1-6.5,4,6.5-1,4.5-4ZM159,396h-6.5l-2.5,2,5-.5,4-1.5ZM187,396h-14c-.21,1.81,2.23.88,3.5,1,.98.09,2.03-.11,3,0,.37.04.63.95,1,1,1.44.19,3.48.07,5,0,1.63-.08,2.87-.85,1.5-2ZM198,396c-2.63.37-6.82-1.34-8,2,2.15-.07,4.34.11,6.5,0,1.63-.08,2.87-.85,1.5-2ZM326,396h-2v2l2-2ZM479,396h-4v1h4v-1ZM496,398h14c.2-1.89-2.23-.76-3.5-1-.39-.07-.63-.95-1-1-2.25-.28-5.63-.12-8,0-1.63.08-2.87.85-1.5,2ZM567,396h-6v1h6v-1ZM205,397h-4v1h4v-1ZM218,397h-10v1h10v-1ZM358.5,397c-.65,0-.65,1,0,1s.65-1,0-1ZM490,397h-2v1h2v-1ZM515,397v1h15v-1h-15ZM303,398l-10,1,1,5c3.27.77,5.16-1.73,8-2l1-4ZM309,400l-2-2v2h2ZM379,400v-2h-1v2h1ZM104,400c-1.86.11-2.83-1.54-5-1v2h5v-1ZM319,402l-.5-3-4.5,5c2.43.4,2.74-2.53,5-2ZM342.5,400c-.65,0-.65,1,0,1s.65-1,0-1ZM354.5,400l-6.5,4.5,4.5-1.5,2-3ZM376,402l-.5-2-5.5,5c2.87.31,3.37-3.52,6-3ZM410,402v-2l-2,1.5v.5h2ZM285,403v-2h-1v2h1ZM288,401h-2v3h2v-3ZM392,405l1-4c-1.18.31-1.49,1.42-3,1v3h2ZM226,402l-73,.5c1.3,2.2,2.92,1.13,4.5,1.5,3.64.84,5.23.65,9,1,12.84,1.19,24.8,2.68,38,1,5.45-.69,11.2-1.28,17-2,.37-.05.61-.93,1-1,1.27-.24,3.7.89,3.5-1ZM366,402c-2.38-.54-2.6.45-4,1.5-3.28,2.44-7.85,5.46-11.5,6.5-.61.17-4,3.58-3.5,5,.48.48,5.67-4.43,6.5-5,2.66-1.84,5.96-3.27,9-5,1.29-.73,3.12-1.5,3.5-3ZM486,408h-9.5c-1.22-1.64-3.24-.9-5-1-12.18-.7-31.91-5.8-42-4-1.84.33-10.09-.41-10.5,0l-1,6c2.78.17,5.73-.24,8.5,0,15.71,1.35,32.32.99,48,0,2.64-.17,5.35.05,8,0,1.22-.02,3.73.75,3.5-1ZM482,406l-2.5-4c-1.84.26-4.33-.37-6,0-2.18.49-5.29.67-8,1-2.36.29-5.08-.2-7.5,0-.23,1.75,2.28.97,3.5,1,2.41.05,5.5-.68,7,1l13.5,1ZM487,402h-3v3c1.9.29,3.29-1.1,3-3ZM542,403l-51.5-1-2.5,5c3.44.2,7.08-.28,10.5,0,3.81.31,9.88,2.61,14,2,4.33-.64,10.69-1.71,15-2,3.5-.24,7.71.48,11,0,.32-.05,1.75-1.78,3.5-1v-3ZM560,403c-2.54-.3-5.81.88-7.5-1l-4.5,3h8.5l3.5-2ZM307,408c3.1.21,3.27-2.25,3-5-2.18.97-3.47,2.63-3,5ZM397.5,403c-.65,0-.65,1,0,1s.65-1,0-1ZM241,404h-7v1h7v-1ZM267.5,404c-4.17-.9-10.97.66-15.5,0l2.5,2c6.5-.71,11.6,2.19,17,4,.93.31,2.23-.15,3.5,1v-4c-1.65.53-1.91-.79-2.5-1-1.08-.39-4.68-1.93-5-2ZM276.5,404l2,6c.65-.92,2.92-2.1,2.5-3.5-.56-1.86-3.56-1.02-4.5-2.5ZM376,405c-1.9-.29-3.29,1.1-3,3l3-3ZM403,422v-17l-2,3.5c-2.19,7.28-3.55,12.98-3,21,.43,6.3,1.52,14.7,2,21,.24,3.12-.17,6.37,0,9.5,1.75.23.97-2.28,1-3.5.04-1.98-.15-4.04,0-6,.32-4.27,1.64-10.73,2-15,.17-2.08.38-7.24,0-9-.15-.69-2.85-3.65-2-4.5h2ZM294.5,406c-.65,0-.65,1,0,1s.65-1,0-1ZM319,406c-.61-.52-5,1.77-5,2.5l2.5,1.5,2.5-4ZM368,406l-5.5,2-12,8-3.5,4,3.5-2c4.57-2.06,8.43-5.94,13-8l4.5-4ZM387,411v-5h-1v5h1ZM302,407c-.62-.63-7.61,3.07-8,4.5v6l4,3h-3v9.5c.94-.33,3.86-3,4-3.5.37-1.35-.69-3.08,1-4-1.93-1.28-.11-1.34,0-2,.55-3.33.5-6.62,1-10,.05-.33,1.78-1.75,1-3.5ZM391,409v-2h-1v2h1ZM414.5,407c-.65,0-.65,1,0,1s.65-1,0-1ZM288.26,409.98c0-.68-.55-1.24-1.24-1.24s-1.24.55-1.24,1.24.55,1.24,1.24,1.24,1.24-.55,1.24-1.24ZM370,411l-.5-2-9,7-1.5,3c.42.48,2.84-2.48,3.5-3,.21-.17.81.16,1,0,2.14-1.73,3.8-5.06,6.5-5ZM380,410h-2v3h2v-3ZM283,411l-4,2.5v1c2.94,2.05,2.74,6.71,6,8.5v-5.5l-2-6.5ZM310,412h-3l-1,4h2.5l1.5-1.5v-2.5ZM414,421c-.03-1.82.04-3.67,0-5.5-.03-1.22.75-3.73-1-3.5-.15,2.77-2.77,4.62-2,7.5.22.82,1.93,1.83,3,1.5ZM361,422c2.58-.22,4.66-2.65,6.5-4,.22-.16.79.16,1,0,.84-.62,4.45-4.04,3.5-5l-11,9ZM377.5,415c-.65,0-.65,1,0,1s.65-1,0-1ZM386.5,415c-.65,0-.65,1,0,1s.65-1,0-1ZM343.26,416.98c0-.68-.55-1.24-1.24-1.24s-1.24.55-1.24,1.24.55,1.24,1.24,1.24,1.24-.55,1.24-1.24ZM285,500c.22-3.42-.31-7.12,0-10.5.13-1.42,1.87-6.58,2-8,1.31-14.33-.97-30.46,0-45-4.42-3.67-4.34-9.97-6-15l-3-4.5c.17,4.47-.23,9.02,0,13.5.65,12.41,2.87,25.78,4,38,.77,8.31.26,16.55,1,25,.03.36.95.63,1,1l1,5.5ZM310,419c-1.9-.29-3.29,1.1-3,3l3-3ZM358,419l-4,1v3l4-4ZM337,420c-1.13-1.06-5.39,3.64-5,4,1.94.55,2.34-1.3,3.5-2,.89-.54,2.34.58,1.5-2ZM363,427c1.74.28,3.03-1.3,4-2.5.62-.77,2.02-2.46,1.5-3.5l-5.5,6ZM389,421h-2v4l2-1.5-1-1,1-1.5ZM350,424l-4,2.5,2.5,3.5,1.5-6ZM410,443l2-8.5c-.79-3.64,3.1-7.42-.5-10.5-2.57-.44-1.26,1.93-1.5,3.5-.64,4.22-1.1,7.18-1,12,.02,1.22-.75,3.73,1,3.5ZM338,425l-5,2v1c1.21.48,5.77-2.38,5-3ZM322,428v-2l-2,1.5v.5h2ZM287,432c.11-1.86-1.54-2.83-1-5h-1v3.5l2,1.5ZM330,431v-2h-1v2h1ZM346,433c-2.34-3.52-4.2-5.85-7.5-2-2.51,2.94-2.01,4.94,2,5l5.5-3ZM353,435c1.74.28,3.03-1.3,4-2.5.62-.77,2.02-2.46,1.5-3.5-2.07,1.5-5.49,2.91-5.5,6ZM378,431v-2h-1v2h1ZM372,435l1-5c-1.04.88-4.67,4.75-5,5.5-.19.43-.25,1.65.5,1.5.57-1.73,3.36-1.85,3.5-2ZM314.5,432c-.65,0-.65,1,0,1s.65-1,0-1ZM315,436v-2h-1v2h1ZM358,439c.35.4,2.45-1.91,3-2.5s2.4-1.69,1.5-2.5c-1.71,1.37-4.74,2.11-4.5,5ZM307,438v-3h-.5l-1.5,1.5v1.5h2ZM332.5,435l-1.5,1.5,2.5,3.5,2.5-1.5-3.5-3.5ZM376.5,436c-.65,0-.65,1,0,1s.65-1,0-1ZM299,440v-3h-1v3h1ZM349,437c-1.13-1.06-5.39,3.64-5,4,1.94.55,2.34-1.3,3.5-2,.89-.54,2.34.58,1.5-2ZM308,439h-3v3c1.9.29,3.29-1.1,3-3ZM331,441l-5-2-1,6c.83.84,6.98-1.44,6-4ZM389,439c-2.72-.39-1.95.44-2,2.5-.04,1.83.03,3.68,0,5.5,2.6.49,2.74-1.04,1-2.5l1-5.5ZM412,481c.22-7.8-.3-15.69,0-23.5.01-.35.98-.65,1-1,.24-5.48-.17-11.03,0-16.5-1.93-.09-.8,3.14-1,4.5-.06.38-.95.63-1,1-.3,2.4.86,5.44-1,7,.32,8.97-.44,18.04,0,27,.08,1.63.85,2.87,2,1.5ZM342.5,441c-.65,0-.65,1,0,1s.65-1,0-1ZM345,446c2.24.32,3.34-2.13,5-3.5l-.5-.5-4.5,2v2ZM338,444c-1.25-.65-3.5,1.6-3,2,1.25.65,3.5-1.6,3-2ZM319,447v-2h-1v2h1ZM380,445c-1.04-1.1-6.3,3.76-5,6,2.3-1.86,5.77-2.28,5-6ZM307,450v-4h-1c.2,1.21-.02,1.79-1,2.5l2,1.5ZM299,454v-7h-1v7h1ZM321,450c.4.5,2.65-1.75,2-3-.4-.5-2.65,1.75-2,3ZM341,448c-.83-.83-3.78,1.67-4,3l4-1v-2ZM354,448l-4,1v1l4-1v-1ZM294,449h-1v11h1v-11ZM383,451v-2h-1v2h1ZM388.5,449c-.65,0-.65,1,0,1s.65-1,0-1ZM330,450l-5.5,2c-1.84,1.06-4.54,4.19-6,5-.47.26-1.31-.19-1.5,0l-1,3.5c2.23,1.55-.2,2.4,0,4.5l3-1.5-1-3c1.28-.51.89-2.39,1-2.5.19-.19,1.03.26,1.5,0,1.59-.89,5.53-3.84,7-5,.89-.71,2.16-1.9,2.5-3ZM371,451l-4,3.5.5.5c1.57-1.4,3.96-1.39,3.5-4ZM307,458v-6h-1l-1,2.5,1,3.5h1ZM334,455v-3c-2.99,1.2-5.06,3.17-7.5,5-.21.16-.79-.16-1,0-1.2.89-2.82,2.63-3.5,4,4.58-.56,7.6-5.55,12-6ZM380,452c-2.65-1.21-7.48,4.3-6,6l4-2.5,2-3.5ZM389,454h-2c-.23,1.86-.04,2.9,1.5,4h.5v-4ZM368,460c1.9.29,3.29-1.1,3-3l-3,3ZM352.5,459l-2.5,2.5.5.5,2.5-2.5-.5-.5ZM396,459v37c2.14.09,1.9.45,2-1.5.4-8.11.58-18.97,0-27-.03-.36-.97-.64-1-1l-1-7.5ZM344.5,460l-1.5,1.5.5.5,1.5-1.5-.5-.5ZM376,463c1.9.29,3.29-1.1,3-3l-3,3ZM381.5,460c-.65,0-.65,1,0,1s.65-1,0-1ZM330,466l6-4.5-3.5,1.5-2.5,3ZM389,464v-3h-1v3h1ZM345,466l-.5-2c-1.2,1.33-2.89,2.1-2.5,4h1v-2h2ZM294,471v-6h-1v6h1ZM336.5,466c-.65,0-.65,1,0,1s.65-1,0-1ZM379,471l-.5-5-2.5,6,3-1ZM401,470.5v25.5l1-8.5c.03-.36.98-.65,1-1,.42-6.36-.31-13.1,0-19.5l-2,3.5ZM330,471c1.9.39,2.67-1.3,4-2.5l-.5-.5c-1.01,1.27-3.13.98-3.5,3ZM367.5,468c-.65,0-.65,1,0,1s.65-1,0-1ZM337,472v-2c-1.99,1.02-4.39,1.45-4,4l4-2ZM316,476l5-5-4,1-1,4ZM362,471l-4,1.5-5,4.5,5.5-2,3.5-4ZM372,475v-4l-3,1-1,5,4-2ZM325.5,473l-1.5,1.5.5.5,1.5-1.5-.5-.5ZM293,476.5v20.5c1.75.23.98-2.28,1-3.5.07-3.29-.23-6.76,0-10,.02-.36.97-.64,1-1,.22-2.79-.16-5.71,0-8.5l-2,2.5ZM330.5,474l-6,3,1,2,6-3-1-2ZM310,477v-2h-1v2h1ZM365,475l-3.5,3-1,4c1.79-2.18,5.14-3.6,4.5-7ZM317,485c2.38-.92,4.39-2.48,6-4.5,1.03-1.29.86-2.16-.5-2.5l-6.5,2,1,5ZM328.5,483l-6,3-4.5,3.5,4.5-.5,6-6ZM411,483h-1v9h1v-9ZM346,486v-2h-1v2h1ZM350,488v-2l-2,1.5v.5h2ZM380.5,486c-.65,0-.65,1,0,1s.65-1,0-1ZM343,492c2.02-.37,1.73-2.49,3-3.5l-.5-.5c-1.2,1.33-2.89,2.1-2.5,4ZM317,491h-2v1.5l1.5,1.5h.5v-3ZM341,491h-2l-1,3h2l1-3ZM351,491l-4,1.5-4,4.5,3.5-2,4.5-4ZM371,494l-6,4.5,4-1,2-3.5ZM335,495c-3.35.09-4.53,3.1-4,6,1.73-.14,4.71-5.23,4-6ZM318,498v-2l-2,1.5v.5h2ZM339,500v-2l-2,1.5v.5h2ZM410,498v29c1.75.23.98-2.28,1-3.5.07-3.32-.18-6.69,0-10,.02-.35.98-.65,1-1,.22-4.06.2-8.93,0-13-.08-1.63-.85-2.87-2-1.5ZM328,499c-3.87.25-5.93,4.75-1,5l1-5ZM398,499h-2l1.5,2h.5v-2ZM297,507v-6h-1v6h1ZM370.25,500.25l-4.5,4.5,1,1,4.5-4.5-1-1ZM383,507l-.5-6c-1.43,1.44-2.99,2.28-2.5,4.5l3,1.5ZM317,502h-2v2l2-2ZM331.5,503c-.65,0-.65,1,0,1s.65-1,0-1ZM315,516l9-6.5v-2l-2.5-3.5-6.5,4.5v7.5ZM380,508l-2.5-3-1.5,2c1.76-.36,2.24,1.36,4,1ZM353,506c-2.03.06-3.77,1.94-5.5,3-.25.15-.77-.15-1,0-2.41,1.53-4.88,4.78-7.5,5l-1,4c1.1,1.2,4.58-3.3,5.5-4,.99-.76,4.06-2.25,5-3,1.56-1.25,3.45-3.27,4.5-5ZM310,507h-1v14h1v-14ZM368,516c3.65-.64,6.65-2.77,9-5.5l-3.5-2.5-6,5,.5,3ZM404,529v-21c-1.81-.21-.89,2.23-1,3.5s.12,2.69,0,4c-.03.36-.97.64-1,1-.25,3.35-.17,7.61,0,11,.08,1.63.85,2.87,2,1.5ZM358.5,509c-.65,0-.65,1,0,1s.65-1,0-1ZM398,514l1-4-2,1.5v2.5h1ZM303,526c4.07.21,3.31-5.64,3-8.5-.04-.36-.95-.63-1-1-.22-1.74.15-3.72,0-5.5-1.93-.09-.8,3.14-1,4.5-.06.38-.96.64-1,1-.33,3.01.23,6.43,0,9.5ZM327,513l-5,2v1c1.21.48,5.77-2.38,5-3ZM336,526c4.08-.54,6.56-3.72,9.5-6,.22-.17.81.16,1,0,1.39-1.13,3.65-3,3.5-5-.3-.31-4.74,3.49-5.5,4-.69.47-3.4,1.55-4,2-1.54,1.17-3.46,3.33-4.5,5ZM399,521v-3h-1v3h1ZM317,519h-1.5l-1.5,2h3v-2ZM334,519h-2l-1,3h2l1-3ZM387.5,520c-.65,0-.65,1,0,1s.65-1,0-1ZM330,521l-16,9.5v9.5c1.16,1.27,5.93-4.69,7-5.5-.94-1.74-2.04.37-2.5.5-4.29,1.22-2.16-2.37,0-4,2.98-2.24,6.65-3.4,9.5-6.5,1.02-1.11,2.38-1.68,2-3.5ZM384,522l-5,2c-.17,3.24,2.42,3.24,5,3v-5ZM292,606l-3-5.5c.15-5.59-3.72-12.43-2-17-.27-18.32.37-36.68,0-55-.02-1.22.75-3.73-1-3.5-.15,1.78.22,3.76,0,5.5-.05.37-.96.64-1,1-.81,8.08-1.61,17.22-2,25-.24,4.81.18,9.69,0,14.5l-2-4,.5,5c.49,11.21-.79,19.82,2.5,30.5,1.53,4.99,4.87,12.11,8,16,6.26,7.78,18.12,12.73,27.5,15.5,2.9.86,6.2,1.85,9,3l5.5-.5c-3.06-2.7-5.35-6.6-9.5-7.5-3.75-1.69-10.12-4.46-14-2l-3-1-2,1c-.64-1.47-2.59-1.7-3-2-7.33-5.37-8.46-13.82-15-18-1.24-.79-2.43-2.91-1-4l5.5,3ZM361,527l3-1.5-.5-.5-2.5,1v1ZM331,529c1.9.29,3.29-1.1,3-3l-3,3ZM388,528v-2h-1v2h1ZM384,530c-3.56.24-5.81-3.02-9.5-2-1.1,1.74-7.15,6.27-7.5,7.5-.18.62.18,1.38,0,2-.27.93-3.28,2.44-2,5.5.68.75,4.64-2.51,5.5-3,3.65-2.07,8.26-4.63,12-7,1.06-.67,1.77-1.67,1.5-3ZM306,529h-2.5l-1.5,1.5v17.5l4-2.5v-16.5ZM388,542c-.04-2.82.06-5.67,0-8.5-.02-1.22.75-3.73-1-3.5l-1,4.5c1.49,1.1,1.49,2.9,0,4l2,3.5ZM328,531c-1.9-.29-3.29,1.1-3,3l3-3ZM404,533v-2h-1v2h1ZM348,538l1-2.5-.5-.5-2.5,3h2ZM404,552.5v-16c0-1.13-2.57-1.9-3,0-.37,1.65-.31,10.16,0,12,.06.38,1,.67,1,1s-.94.62-1,1c-.28,1.66.19,3.75,0,5.5l3-3.5ZM384,536c-1.09-1.17-4.58,3.25-5.5,4-.21.17-.81-.16-1,0-1.6,1.36-2.93,3.1-4.5,4.5,1.05.58,2.7-.96,3.5-1.5.71-.48,1.28-1.47,2-2,.87-.64,3.08-1.25,4-3l1,1,.5-3ZM368,556c.29.31,4.75-3.48,5.5-4,2.35-1.64,5.88-3.4,8-5,1.71-1.29,2.96-2.69,2.5-5-4.29,1.82-7.04,5.16-10.5,8-.21.17-.81-.16-1,0-.96.82-5.5,4.93-4.5,6ZM393,551c1.83.23,2.9.05,4-1.5-2.24-1.82.43-5.57-2.5-7.5-2.71,2.14-1.11,6.08-1.5,9ZM315,548c2.24.32,3.34-2.13,5-3.5l-.5-.5c-1.48,1.26-3.75,1.7-4.5,4ZM315,554l10-7.5-5.5,2.5c-1.59,1.35-4.66,1.95-4.5,5ZM388,551v-4h-1v4h1ZM385,550c-1.93-.49-2.34,1.2-3.5,2-.24.16-.8-.15-1,0-1.91,1.41-3.59,3.95-5.5,5.5,1.05.58,2.7-.96,3.5-1.5,1.11-.75,2.04-1.38,3-2,1.64-1.05,3.82-1.57,3.5-4ZM306,551h-5c.42,3.42-1.04,7.96,1,10.5l1,9.5c3.65-.17,4.55-3.44,4-6.5-.07-.4-1.55-.89-1-2.5h-3c-.28-2.01,1.24-3.32,3-3v-8ZM397,554c-4.52-.29-5.31,2.68-5,6.5.14,1.66-.16,2.38,1.5,3.5l3.5-2.5v-7.5ZM325,557v-2l-2,1.5v.5h2ZM322,557c-2.31.26-4.72,1.75-6.5,3l-.5,4,7-7ZM405,569c-.16-1.77.23-3.78,0-5.5-.05-.37-.94-.62-1-1-.21-1.35.93-4.59-1-4.5v8.5l2,2.5ZM373.5,559c-.65,0-.65,1,0,1s.65-1,0-1ZM388,561v-2h-1v2h1ZM385,561c-.84-.74-6.87,2.6-6,5l4-1.5,2-3.5ZM388,565v-2h-1v2h1ZM311.5,564c-.65,0-.65,1,0,1s.65-1,0-1ZM340,564l-4,3.5.5.5c1.57-1.4,3.96-1.39,3.5-4ZM333,565c-3.4.38-5.9,3.07-8.5,5-.22.16-.79-.16-1,0-1.58,1.2-2.93,3.2-4.5,4.5l6.5-3.5,7.5-6ZM352,565h-2v2l2-2ZM396,566h-2.5l-1.5,2,4-1v-1ZM343,572c1.72.65,4.9-2.95,4-4-1.99,1.02-4.39,1.45-4,4ZM377,568c-1.76-.31-3.29,1.36-4,3,1.76.31,3.29-1.36,4-3ZM333,569c-2.69-.39-3.27,3.12-5.5,3l-5.5,4.5,5.5-2.5,5.5-5ZM295,586v-4.5l1-1-1.5-9.5c-1.98,1.31-1.4,2.58-1.5,4.5-.14,2.65.1,5.34,0,8l2,2.5ZM405,585.5c.56-4.5-.4-9.88,0-14.5l-1,6.5c-1.31,3.24-4.69,9.03-4,12,.16.69,1.56,1.5,1,4-2.63,4-3.06,7.33-5.5,11.5-.69,1.18-1.59,2.62-1.5,4,.3.36,2.55-1.89,3-2.5,3.32-4.52,3.65-8.04,5-13,.12-.44,1.92-2.62,2-3,.25-1.16-.21-2.77,0-4,.07-.38.95-.63,1-1ZM340.5,572c-.65,0-.65,1,0,1s.65-1,0-1ZM354,573l-3.5,2-2.5,3c1.24.08,6.65-4.42,6-5ZM398,573l-5,2.5,1,4.5,3-1,1-6ZM330,580l3.5-2,2.5-3c-1.24-.08-6.65,4.42-6,5ZM386.5,575l-4.75,4.75,1,1,4.75-4.75-1-1ZM318,580c-1.69-.3-3,.46-4.5,1-1.08.39-.32,2.08-.5,3,1.59-1.37,4.22-1.99,5-4ZM327,581l-4,1.5-5,5.5c3.36-1.83,7.07-3.6,9-7ZM304,584v-2h-1v2h1ZM346,584c-2.24-.32-3.34,2.13-5,3.5l.5.5c1.5-1.28,2.43-3.37,4.5-3v-1ZM360,592c1.01,1.07,5.21-3.6,6-4.5.99-1.13,2.39-1.66,2-3.5-2.85,2.62-8.62,3.04-8,8ZM388,584h-2v2l2-2ZM336,585c-4.47.11-5.08,4.16-8,6.5,1.05.58,2.7-.96,3.5-1.5,1.27-.85,1.09-1.33,3-2,.7-.24.77-2.09,1.5-3ZM392,590c2.58.08,4.51-2.39,4-5-1.56,0-4.25,4.79-4,5ZM307,586c-5.5-1.85-4.58,8.1-2.5,8,3.12-2.1,2.61-4.61,2.5-8ZM355.5,586c-.65,0-.65,1,0,1s.65-1,0-1ZM354,587c-2.28-.39-3.04,2-4.5,3-2.71,1.86-6.39,3.81-9,6-1.92,1.61-4.09,3.91-5.5,6,1.93.49,2.34-1.2,3.5-2,3.89-2.68,8.06-5.69,12-9,.56-.47,3.88-3.65,3.5-4ZM320,596c.9.99,4.4-2.69,5-3.5.15-.2-.16-.76,0-1,.79-1.16,2.49-1.57,2-3.5l-7,4v4ZM300,594l-1-4h-1l1,4h1ZM355,596l2-1.5v-2.5h-1l-1,4ZM387.25,591.25l-5.5,5.5,1,1,5.5-5.5-1-1ZM318,593h-2c-.29,1.9,1.1,3.29,3,3l-1-3ZM330.5,594c-.65,0-.65,1,0,1s.65-1,0-1ZM353,594l-5.5,5c-.69.09,1.49-3.2-1-2-.96.47-2.85,3.01-4,4-.06.05-.6-.16-1.5.5-1.12.82-2.3,1.95-2,3.5,1.35-1.07,2.8-.75,4-1.5,1.76-1.09,3.79-2.37,5.5-3.5,1.11-.73,5-5.46,4.5-6ZM328,597l-.5-2c-1.01,1.27-3.13.98-3.5,3l4-1ZM370,595l-7.5,3-6,4-3.5,4c4.97.78,7.71-3.71,11.5-5l5.5-6ZM393,598l1-2.5-.5-.5-2.5,3h2ZM302,606l-4-7.5-2-2.5c-.57,3.03,1.62,4.57,3,6.5.16.22-.16.79,0,1,.45.61,2.69,2.85,3,2.5ZM310,600v-2.5l-1.5-1.5-2.5,1,1.5,3h2.5ZM334,597l-3.5,2-2.5,3c1.22,1.11,6.35-4.69,6-5ZM318,601l-2.5-1-.5.5,3,1.5v-1ZM368,605c2.68.44,2.62-2.03,4-3.5l-.5-.5-3.5,4ZM320,611l-6.5-6c-1.3-1.07-3.16-2.76-4.5-.5l3.5,4.5,7.5,2ZM324,605c-2.26.53-2.57-2.4-5-2l3.5,5,1.5-3ZM365,604c-2.06-.2-4.2,1.94-4,4l4-4ZM303,607h-2v1h2v-1ZM334,609l-5-2v4l5-2ZM351,607l-4,1,.47,1.88,4-1-.47-1.88ZM309,624l-5.5-4-10.5-10.5c1.32,1.51,2.87,3.38,4,5,.77,1.1,2.23,4.05,3,5,1.02,1.24,2.43,2.27,3.5,3.5l5.5,1ZM389,611c-3.62-1.42-7.11,4.6-8.5,5-.66.19-1.49-.23-2,0l-3.5,3c1.6.52,3.63-1.81,4.5-2,1.44-.31,3.68.36,5,0,1.08-.3,4.89-5.67,4.5-6ZM306.5,612l-1,1,4.75,4.75,1-1-4.75-4.75ZM329,618l-3.5-2-11.5-3c1.7,3.87,5.99,4.19,8.5,7,1.69-.66,2.5.85,3,1,1.87.57,3.83-.83,3.5-3ZM367,615h-2v1h2v-1ZM392,624c4.62-.76,8-4.09,7-9-1.1.34-2.29,1.61-3,2.5-.16.2.16.79,0,1-1.39,1.78-3.46,3.07-4,5.5ZM363.5,616c-.65,0-.65,1,0,1s.65-1,0-1ZM363,619h-12.5l-2.5,4c4.21.59,7.33-1.49,11.5-1l3.5-3ZM334,623l4.5-1c.8,1.75,8.5,1.37,8.5-.5-1.33-1.97-4.44-1.81-6.5-1.5-.37.06-.62.93-1,1-1.99.37-6.27-1.49-5.5,2ZM390,623c-1.9-.29-3.29,1.1-3,3l3-3ZM386.26,625.98c0-.68-.55-1.24-1.24-1.24s-1.24.55-1.24,1.24.55,1.24,1.24,1.24,1.24-.55,1.24-1.24ZM371,629c-1.96-.56-2.94.86-4.5,1-9.54.85-17.44-1.53-25,0l-10.5.5c2.73,3.06,5.74,5.01,9.5,6.5.43.17.63.92,1,1,1.32.29,5.48.19,7,0,.37-.05.62-.93,1-1,6.89-1.22,12.43-2.66,19-6l2.5-2Z"/>
</svg>