<?xml version="1.0" encoding="UTF-8"?>
<svg id="Capa_1" data-name="Capa 1" xmlns="http://www.w3.org/2000/svg" viewBox="0 0 694 694" fill="currentColor">
  <path d="M442,566c-.34-.11-.88.14-1,0-3.03-7.04-4.91-15.28-8-22.5-4.45-10.42-10.8-19.22-17-29-16.04-25.3-29.77-53.7-46-79l-7.5-8.5c-1.81,1.08.39,3.09.5,3.5,5.93,21.47,17.95,42.93,29,63,9.62,17.49,18.72,35.01,29,52,3.13,5.17,7.42,9.49,9,15,.37,1.27,2.93,1.32,3,5,.04,2-.07,1.56-2,1.5l-2-6.5c-.51-.71-1.64-1.34-2-2-13.49-24.62-28.46-48.62-42-74-8.69-16.29-18.17-35.47-23-53-.15-.55-1.85-1.45-2-2-.23-.85.24-2.17,0-3-.84-2.85-1.59-1.99-2.5-2.5-1.27-.71-2.65-3.1-4-4-6.77-4.49-14.96-8.09-21-13-1.62-1.32-8.42-8.12-6.5-10h3l-1,3.5,12.5,10.5h3l5.5-5.5-6-9c-1.04-2.94-4.3-5.67-4-9.5,2.41-.43,2.3,1.08,3,2.5.87,1.75,1.97,4.16,3,6,.68,1.21,1.44,2.55,2.5,3.5l.5-9c-3.54.73-4.97-3.1-7.5-5-.66-.5-3.16-1.5-4-2-3.62-2.13-7.44-3.79-11-6-.69.52-2.43,1.8-3,2-9.64,3.44-19.29,5.11-30,4-1.33-.14-5.43-1.61-7-2-15.86-3.95-34.72-.8-51-4-6.34-1.25-13.89-4.17-20-7s-13.13-6.83-19-11c-7.22-5.12-13.58-12.56-21-17-4.11-2.46-8.25-4.03-12-6-22.36-11.73-42.23-26.46-52.5-50.5.1-2.29-1.55-5.11-2-7-5.6-23.63.13-47.49,11-68,.46-4.02-.64-9.18,0-13,1.12-6.74,3.14-13.75,6-21,4.38-11.1,4.61-20.61,7-32,5.03-24.04,18.8-43.89,39.5-58.5,18.16-12.82,40.04-19.84,61-23,6.32-.95,9.82-1.76,16-1,12.84,1.58,15.81-3.13,26-7,15.59-5.92,34.13-4.85,50,0,5.97,4.59,13.4,3.29,20,5,20.46,5.3,42.91,15.55,56.5,33.5,1.79,2.36,12.98,7.36,16.5,9.5,11.47,6.97,22.11,16.2,28.5,27.5,1.26,2.23,4.59,8.11,5,10,.25,1.16-.21,2.77,0,4,.07.38.95.63,1,1,.32,2.63.32,8.37,0,11-.12.99-1.69,4.78-2,6-.82,3.2-1.39,5.96-2,9-.08.39-.94.63-1,1-.41,2.78.21,4.75,1,7,1.89,5.4,3.7,11.4,5,17,4.45,19.16.9,40.92-9,58-5.95,7.96-3.74,19.16-7,28-3.64,9.89-13.04,17.56-16,28s-5.27,19.78-9,30c-2.88,7.91-6.05,15.41-10,23v2.5h2.5c3.56-2.11,8.66-4.72,9.5-9,1.99-.02,5.53-3.05,5,1l-3.5,1c-3.05,4.1-8.37,8.67-13,10-.81.23-3.19,3.19-2.5,4l5.5-2,1,1c2.51-2.8,5.12-5.16,8-7,1.69-1.08.64-1.68,3-3,.58-.32,9.17-7.95,9.5-8.5.68-1.14.68-2.88,1-4s5.29-4.21,6-3.5c1.29,3.44-4.51,5.79-5,7.5-1.41,4.93-4.5,4.92-8.5,7.5-1.56,1.01-1.71,2.22-1.5,4-2.13-.34-4.94,1.76-6.5,3-.64.51-4.87,4.67-4.5,5,2.26.36,3.05-1.94,4.5-3,.82-.6,5.29-2.87,6-3,1.34-.25,3.07.16,4.5,0l-1,1.5,2.5-.5,3.5,2.5-1,5c.36,1.31,2.41,3.02,3,4,5.13,8.48,9.4,18.44,14,28,2.72,5.66,5.63,9.82,7,16.5-.34-.11-.88.14-1,0-4.97-9.02-8.48-21.8-14-30.5-.54-.86-1.83-1.62-2.5-2.5l-3.5,3.5c.13,3.18,2.44,6.15,4,9,4.72,8.6,10.43,17.31,16,25,.84,1.16,2.46,1.58,2,3.5v-4.5c-1.57-.91-.74-2.21-1-3.5.34.11.88-.14,1,0,1.75,11.14,9.46,18.02,16,26.5s11.04,17.98,17,26c4.45,5.99,12.91,15.07,15,21.5-4.51-3.52-7.65-10-11-14.5-.72-.96-4.76-5.8-5-5.5-.71,1.93.8,2.87,1,3.5,1.45,4.66,1.42,9.91,6,12v1c-.11.4-.91.61-1,1-.84,3.66,2.51,6.39,4,9,3.62,6.36,6.41,13.55,11,19,2.71,3.22,5.49,5.62,8,9,3.93,5.3,6.71,13.85,14.5,14.5l4,3c.87.04.56-1.31.5-2,2.63,1.81,2.32,3.8,4.5,6l5.5-5.5,5-4.5-8,16.5,3.5,5.5c.33,0,.59-.89,1-1,4.37-1.17,7.61-1.38,12,0,2.25-1.57,4.87-2.93,7.5-3.5,1.77-.38,1.7-.65,3,1,.42,1.55-2.31,3.91-3,5-1.55,2.44-3.18,5.71-5,8s-7.27,5.11-3.5,7.5c1.2.76,3.05,1.96,4.5,2v2h2.5l7.5-4-4.5,5-2.5,1.5c0,.33.94.62,1,1,.69,4.12-.23,9.31-1,13l-6,7,7,10,2,5.5-4-3.5-5.5-10.5c-1.56.69-2.85,2.27-4,3-3.05,1.94-5.88,3.88-9,6-5.29,3.6-10.33,7.08-16.5,8,.5,1.65-.68,1.81-1,2.5-2.47,5.3-2.47,6.51-7,10.5.97-3.53,3.57-5.31,5-8.5.63-1.41,1.22-2.9,1-4.5-3.83.89-7.85,2.21-10.5,5l-14.5,7.5,6.5,6.5c1.59-.18,3.5.26,5,0,.36-.06.57-.83,1-1,.54-.21,1.26.16,1.5,0-.1.07-.57,1.45-1.5,2-.22.13-.69-.14-1,0-1.2.53-1.72,1.53-4,1-.36-.08-.57-.8-1-1-.31-.14-.78.13-1,0-1.47-.87-6.37-6.99-7-7l-11,6-4.5,1,5.5-6c2.03-.03,6.97-5.85,6.5-7.5l-3.5-4.5c-1.27,1.33-6.09,1.43-8,1-.36-.08-.57-.8-1-1-.31-.14-.78.13-1,0-1.01-.6-5.64-5.36-6.5-6.5-.15-.2.16-.77,0-1-2.24-3.19-4.29-8.27-6.5-9.5-5.56-3.1-10.87-14.49-13.5-19.5-4.85-9.22-10.02-18.88-12-28.5.34.11.88-.14,1,0,5.53,13.09,11.03,30.32,20,41.5.98,1.22,2.58,2.81,4,3.5.34-1.73-.52-2.96-1-4.5-1.21-3.85-2.67-8.9-3-13-.51-6.29,1.25-11.31-2-17-2.54-4.46-6.94-8.73-10-13-5.83-8.13-11.22-16.55-17-25-.79-1.16-2.49-1.57-2-3.5v3.5c1.2,1.23,1.34,3.34,2,5,2.88,7.28,6.44,14.93,8,22.5ZM323,56l-7.5-2c-2.02.91-4.55-.94-5-1-9.42-1.16-20.74-.12-29,2-5.59,1.44-10.67,3.28-16,6l-2.5,2,6.5,1c2.65,1.1,7.92,2.55,11,2,.38-.07.6-.9,1-1,5.41-1.34,10.21-3.58,15-5,7.5-2.23,15.84-2.34,23-3,1.27-.12,3.71.81,3.5-1ZM336,62c-.36-.13-.97.16-1.5,0-1.35-.41-4.55-2.74-6-3-9.59-1.71-21.91,1.52-31,2l-5.5,2c-.21,1.81,2.23.89,3.5,1,13.42,1.2,22.46,5.96,35,11,1.27.51,3.64.06,4.5,2-16.67-3.43-29.25-13.77-48.5-11-.32.05-1.75,1.78-3.5,1l3.5,3c12.58,4.24,25.66,4.5,38,8,2.31.65,4.69,1.34,7,2,.35.1,2.89,2.76,4,3,3.14.68,8.09-.49,11.5,0,.26-1.8-1.19-.18-2-2,3.11.64,6.72,1.19,9.5,3l9.5.5c-3.78-2.81-6.78-6.53-10.5-9.5-4.77-3.81-10.11-6.81-15-11-.25-.21-1.91.12-2.5-2,7.35,2.65,14.32,8.96,20.5,14,3.05,2.49,6.77,5.76,10,8,.71.49,1.39,1.71,2,2,1.14.54,2.04-.36,1.5-1.5-1.31-2.75-5.81-5.96-1-8.5l2,7.5c-.34.88,1.92,3.33,2.5,3.5.63.18,1.41-.19,2,0,.41.13.63.92,1,1,1.19.25,2.84-.26,4,0,4.7,1.05,10.45,2.4,15,4,.59.21,2.5,2.25,3.5,1.5-1.51-.83-1.72-2.51-2.5-3.5-5.05-6.38-16.19-13.26-23-17-10.22-5.62-22.62-9.87-33-12-1.37-.28-2.97.67-4-1-.83-.07-.65,1.45-.5,2ZM246,71c1.54-2.5,4.04-4.01,6.5-5l2.5-3c-5.06.3-10.49-.41-15.5,0-10.4.85-22.08,4.27-32,7-1.92.53-5.36,2.81-6,3-11.83,3.49-40.54,18.8-46.5,29.5-1.32,2.36-1.92,1.31-3,3-2.56,4.01-5.66,7.87-8,12-6.51,11.47-15.33,33.9-12,46,.12.43-1.28,4.31-2,5,.24,6.64-.33,13.36,0,20,.08,1.63.85,2.87,2,1.5.28-4.73-.38-9.81,0-14.5.16-1.97,1.66-6.88,2-9,.27-1.69-.76-3.75,1-5l-3,1.5c-.58-1.95,1.33-2.32,2-3.5,5.17-9.1,7.26-20.37,13-29,4.78-7.18,11.62-12.36,17-19,4.78-5.9,16.44-19.38,23-21.5-4.6,5.35-11.16,9.74-16,15.5l-4.5,6.5,5-3,9-2,9-9c5.03-3.02,8.25-6.35,14-8,1.86-.53,3.84-6.35,5.5-8-1.4.19-3.23-.28-4.5,0-.38.08-.59.87-1,1-5.59,1.81-10.83,5.16-16.5,7,4.34-5.05,13.6-8.13,19.5-10,1.74-.55,4.44-.58,6-1,2.14-.58,7.04-4.57,9-5,1.67-.36,4.14.23,6,0,.37-.05.64-.97,1-1,3.85-.35,11,.83,14,0,.47-.13,1.15-1.36,3.5-2-.28.45-1.17,1.86-1,2,3.72-.27,7.84.38,11.5,0s8.04-2.41,12-3l5.5-3-5.5-2c-3.48.49-6.45-1.78-10-1-.37.08-.57.83-1,1-1.45.58-3.76,1.28-5,2-2.45,1.42-3.34,3.13-6.5,4ZM290,72c-2.95-.92-6.15-.85-8.5-3-2.57-.21-6.65.76-6.5,4l10.5,1c.88-2.05,4.41.25,4.5-2ZM268,73h-2v2l2-2ZM274,74l-4,1v1h4v-2ZM236,75h-10.5l-5.5,3,8.5-1c.97-1.54,2.4-.85,4-1,1.27-.12,3.71.81,3.5-1ZM287,75h-6v1l3.5,1,2.5-1v-1ZM247,79l3-3c-1.12.13-2.48-.21-3.5,0-1.38.29-4.59,1.67-6,2-.89.21-2.16-.23-3,0-1.27.35-6.58,4.35-7.5,5.5-.63.78-2.03,1.7-.5,2.5,1.25-1.8,3.36-.67,5-1,2.98-.59,6.39-2.52,9.5-4-.14.54.07,1.35,0,2l7-4.5-4,.5ZM263,77h-4.5l-1.5,2c2.48.52,3.95-.79,6-1v-1ZM307,78c-1.21.2-1.79-.02-2.5-1l-1.5,2h4v-1ZM232,78l-5,.5c-2.45.07-5.64,1.22-7.5,1.5-1.55.23-3.59-.31-5,0-.36.08-.57.8-1,1-.31.14-.78-.13-1,0-.92.55-5.42,5.03-4.5,6l10.5-5c3.05-.91,6.24-1.31,9-2,.39-.1.61-.91,1-1,1.25-.28,3.7.92,3.5-1ZM322,79h-2v1h2v-1ZM257,80l-5.5,1-3.5,3,5.5-1,3.5-3ZM229,81c-2.39-.73-4,1.46-5.5,2-3.43,1.24-7.34,2-11,3-.85.23-2.77,2.29-4,2l-2.5,3.5,1,5.5c4.29-.77,7.36-3.64,10.5-6,2.79-2.1,6.27-4.83,9-7,.89-.71,2.16-1.9,2.5-3ZM281,84h-4v2c1.38-.79,2.29-1.31,4-1v-1ZM324,85h-6.5l-4.5-1,4.5,3h4l2.5-2ZM224,88c1.9.29,3.29-1.1,3-3l-3,3ZM327,90l1-2.5-2.5-1.5-1.5,3,3,1ZM352,86h-6v2c2.48.52,3.95-.79,6-1v-1ZM225,93c2.97-.99,4.87-3.36,7-5.5l-3.5,1.5-3.5,4ZM362,87h-2v1h2v-1ZM375,95l-5.5-6-6.5-2,2.5,3c2.14.66,4.34,1.94,6,3,1.16.74,1.55,2.52,3.5,2ZM306,90l-6.5-2h-9.5c-.81,3.47,3.36,1.61,5.5,2,2.62.48,4.39.44,7,1,.8.17,3.84.61,3.5-1ZM320,92l-4.5-3-5.5-1,2.5,3,7.5,1ZM386,115l-4-11.5c-5.92-6.16-14.48-11.63-22.5-14.5-.42-.15-.63-.92-1-1-1.08-.24-3.72-.12-5,0-1.91.18-2.79.81-4.5,1l6.5,4,7,1,1.5,1.5c-1.01.65-1.33,1.84-1,3,.58,2.03,3.32,1.18,4.5,1.5.81.22,11.01,8.78,13,10l3.5,1-2,1.5,4,2.5ZM222.5,89c-.65,0-.65,1,0,1s.65-1,0-1ZM336,92c.29-1.9-1.1-3.29-3-3-.29,1.9,1.1,3.29,3,3ZM251,92l3-1.5-.5-.5-2.5,1v1ZM204,100c.16-1.77-.23-3.78,0-5.5.09-.65,2.41-1.57-.5-3.5-.84.71-2.04,1.47-3,2-3.99,2.2-8.62,5.16-12,8-1.23,1.03-2.81,2.55-3.5,4,2.85-.4,6.88.56,9.5,0,.61-.13,5.23-3.18,7-4,.69-.32.85-1.5,2.5-1ZM224,91c-1.93-.48-2.34,1.19-3.5,2-.42.3-2.52.3-2.5,2,1.61.61,6.7-3.37,6-4ZM247,91h-2v1.5l1.5,1.5h.5v-3ZM417,131l-5-17.5c-7.08-10.63-18.22-15.93-29.5-21.5l-7.5-1c.94,2.83,4.69,3.16,6,5.5,1.06,1.9,4.3,4.68,6.5,6.5,4.18,3.47,7.85,8.38,12,12v-6l2.5,4.5c-.06,4.43,6.35,10.13,9.5,12.5,2.31,1.74,2.42,5.03,5.5,5ZM406,104c.49-1.93-1.2-2.34-2-3.5-.16-.24.15-.8,0-1-1.51-2.04-4-3.99-6.5-4.5l-1-1-12.5-3,2.5,2c3.18.13,6.15,2.44,9,4,1.38.76,1.87,1.29,3,2,.43.27,2.29.83,3,1l4.5,4ZM240.5,92c-.65,0-.65,1,0,1s.65-1,0-1ZM290,92h-7v1h7v-1ZM323.5,92c-.65,0-.65,1,0,1s.65-1,0-1ZM269,93c-1.76.18-3.82-.26-5.5,0-2.73.42-8.01,3-11,4-6.26,2.1-12.15,3.9-18,7l-2.5,2,15.5-3c6.08-1.79,12.96-4.78,19-7l2.5-3ZM278,93l-5.5,1-2.5,2,5.5-1,2.5-2ZM338,93l1.5,3,.5-.5-1-2.5h-1ZM307,97c-3.36-.69-7.12-2.58-9.5-3-3.14-.56-5.53.86-8.5,1-.2,1.89,2.23.76,3.5,1,5.29,1,10.82,2.76,16,4,.9.21,2.81.51,2.5-1l-4-1c-.14-.12.11-.66,0-1,4.87,1,9.81,2.83,14.5,5l2.5-1c1.04,3.05,4.26,2.48,6.5,3,.4.09.92,1.52,3,1l.5-1h4c-1.94.52-2.34-1.26-3.5-2-2.87-1.84-2.88-2.33-5.5-1-.25.12-3.64-.81-4-1-1.06-.54-4.01-3.68-5.5-4-2.61-.56-6.3-.52-9-1-.38-.07-.63-.95-1-1-2.03-.26-4.41.18-6.5,0l2.5,2h1.5c.14.12-.11.66,0,1ZM345.26,94.98c0-.68-.55-1.24-1.24-1.24s-1.24.55-1.24,1.24.55,1.24,1.24,1.24,1.24-.55,1.24-1.24ZM360,95h-2l1.5,2h.5v-2ZM268.5,96c-.65,0-.65,1,0,1s.65-1,0-1ZM218,131l2.5-3c1.73.13,2.65-1.95,4-3,8.74-6.77,18.92-12.37,28-19l10.5-5.5c-1.11-1.51-3.58,1.13-4.5,1.5-.58.23-1.44-.24-2,0-6.63,2.85-12.7,7.49-19,11-11.02,6.14-20.92,9.08-28.5,20.5-.15.23-.46,1.83-1,2.5.66-.02,1.35.05,2,0-1.73,2.21-2.02,1.88-3.5,3-2.96,2.24-7.34,11.57-9.5,15.5-.65,1.18-.9,3.69-2.5,4.5-1.78.9-1.78-1.57-1.5-2.5.12-.4.89-.61,1-1,.49-1.79.57-4.43,1-6,.27-1,2.48-2.84,2-4.5-2.7,2.11-5.81,4.89-8,7.5-1.07,1.27-3.28,4.44-4,6-.19.41-.84.61-1,1-.19,2.23-2.2,8.71-4,9.5.12-.79-.08-1.68,0-2.5l2-5.5c-1.48.41-2.34,2.09-3.5,3-.2.16-.78-.17-1,0-3.52,2.67-5.44,8.95-6,13l-.5,5,2-2.5c1.25-2.14,3.86-7.56,6-8.5-1.5,5.51-4.92,10.23-9,14.5.17,2.28-.24,4.77,0,7,1.89,17.6,2.95,35.81,6,53,.46,2.6,1.05,3.96,1,7.5-.34-.11-.88.14-1,0-.98-3.07-.55-6.22-1-9.5-.05-.37-.93-.62-1-1-2.63-14.79-2.77-29.53-4-45-.03-.36-.96-.63-1-1l-1-6.5c.47,3.83-.65,8.88,0,12.5.6,3.36.38,7.27-1,11-.2.55-1.92,2.64-2,3-.71,3.3.73,8.74,0,12-.09.4-1.36.68-1,2,1.19,4.3,1.44,8.61,2,12,.3,1.79.36,4.96-1,6l3.5,4.5c2.93-.36,5.58,1.37,8,3,.98-.2.49-2.07.5-3,.34.11.88-.14,1,0,.49,1.85.83,4.94,2.5,6,2.53,1.61,7.71,5.79,9.5,8.5.27.42.73,2.33,1,3,.17.43.92.63,1,1,.43,1.94-.3,4.87,0,7l-3,4c4.39,4.74,8.83,7.53,13,12.5-2.02-.62-4.88-2.64-6.5-4s-4.81-5.48-6-6c-.43-.19-1.65-.25-1.5.5,1.26.76,1.41,3.12,2,4,5.3,7.92,16.83,14.03,21,22.5l4,1c-1.69,2.72,6.74,12.49,8.5,13,.66.19,1.5-.23,2,0,.62.29,2.64,1.92,3,2,2.11.46,3.54-.09,6,1,2.06.91,4.07,2.21,6,3h9.5c-.68-1.37-2.3-3.1-3.5-4-4.21-3.15-11.34-5.39-14.5-10,6.7,2.17,11.47,7.57,17.5,11,1.1.63,3.2.77,4,2,1.96.59,2.72-.95,3-1,2.24-.4,5.05-.71,7-1,13.73-2.07,27.52-3.3,41-6,4.88-.98,10.24-2.62,15-4,.83-.24,2.15.23,3,0,2.2-.6,9.74-7.18,12-9,16.59-13.39,33.62-26.55,46.5-43.5,1.92-2.52,8.1-13.59,10-14.5-10.35,24.55-33.19,40.02-52.5,56-2.88,2.38-5.35,5.31-8.5,7.5l4.5-.5c7.39-2.41,15.82-6.6,23.5-9-2.82,4.11-21.94,10.07-27.5,12-.6.21-1.42-.21-2,0-4.74,1.75-14.89,12.14-17.5,16.5-.6,1-1.22,2.12-2,3,2.26,3.19,4.19.07,7,.5v1h-2v1h5v-2h-3v-1c2.65-.18,5.4.87,7-1.5l-1-3.5,2,2c1.09-.16,2.57.25,3.5,0,1.56-.43,5.87-5.34,8-6,.52-.16,1.13.13,1.5,0-1.92,2.23-3.16,4.52-6.5,5l-3.5,3,4.5-1c2.01-2.72,3.81-3.13,6.5-4l-4,3.5c-.61,2.23,2.38,1.74,3.5,1.5,2.14-.46,7.23-3,10-4,.59-.21.85-1.53,2.5-1-.52-5.2,2.47-3.37,5.5-4,2.49-.52,6.72-3.39,9-5,.82-.58,4.42-3.23,4.5-3.5.29-1.06-.21-2.78,0-4,.07-.39,1.55-.9,1-2.5l2,1c.18-.22-.26-1.03,0-1.5,1.46-2.62,6.61-5.36,8-8.5-2.38-.54-2.6.46-4,1.5-5.81,4.31-11.71,8.28-17.5,12.5s-13.44,11.71-20.5,14l2.5-3c6.3-3.59,12.64-7.7,18-13l14.5-10.5c-1.05-.58-2.7.96-3.5,1.5-1.59,1.08-3.5,2.71-5,4l-26,18c-.52.16-1.13-.13-1.5,0,5.94-6.87,29.21-22.35,37.5-27,.53-.3,2.55-.71,3-1,.86-.55,1.62-1.83,2.5-2.5v-2l-2.5-2.5c-4.21,3.68-8.32,7.23-13,10-2.24,1.33-3.99,2.22-6.5,3,2.24-3.26,11.83-8,15.5-11,2.7-2.21,4.17-3.82,3.5-7.5-.05-.29-1.59-1.05-1-3,.12-.41.91-.62,1-1,.41-1.75.47-4.15,1-6,.16-.56,1.84-1.44,2-2,.18-.62-.18-1.38,0-2,.75-2.63,12.2-10.76,14.5-12.5s4.46-3.25,6.5-5.5l-5-9.5c-.65-.73-4.71,4.62-4,6-.13.16-.71-.14-1,0l3-9.5c-.59-.83-1.91-4.39-2-5-.18-1.26-.25-4.88,0-6,.08-.36.8-.57,1-1,.14-.31-.13-.78,0-1,1.66-2.79,4.27-1.94,6-4v-29c-16.12-26.93-36.72-51.44-50-80-.32-.69-1.5-.85-1-2.5-5.67.42-10.51-2.47-15.5-5-2.64-1.34-5.32-2.76-8-4-5.9-2.74-13.37-2.71-20-4-3.66-.71-8.37-1.93-12-3-.52-.15-2.5-.35-2.5.5l5,4,.5,4.5c-2.09-2.5-5.27-7.38-8-9-.22-.13-.69.14-1,0-.43-.2-.64-.92-1-1-1.43-.32-6.34-.21-8,0-1.01.12-4.73,1.64-6,2-11.8,3.35-27.07,14.09-37,21-5.19,3.61-10.59,8.86-16.5,11ZM351,97h-2v1h2v-1ZM231,99c-2.48.11-4.46,1.73-6,3.5,1.05.62,2.71-1.03,3.5-1.5.59-.35,2.47-.29,2.5-2ZM446,172c-.32-1.72.49-2.97,1-4.5.66-2,2.72-6.44,3-8,.46-2.6-1.01-6.2,1-8-1.48-4.33-1.42-9.72-3-14-5.53-15.02-19.15-24.96-31.5-33.5-2-.06-9.34-6.09-10.5-5-.52,1.95,1.26,2.34,2,3.5,2.09,3.28,3.39,5.6,6,9,5.99,7.8,11.66,14.62,15,24,1.83,5.15,2.82,10,4,15,.39,1.64.63,3.65,1,5,.68,2.47,8.66,10.82,10,15,.43,1.34-.79,1.82,2,1.5ZM362,109c1.14-1.24-3.7-4.97-4.5-6l-4.5-1.5c1.18,1.47,1.8,3.42,3.5,4.5.24.15.77-.15,1,0,1.52.98,2.99,2.05,4.5,3ZM342,104c.37,2.02,2.49,1.73,3.5,3l.5-.5c-1.33-1.2-2.1-2.89-4-2.5ZM220,120c.84.73,4.41-2.44,5.5-3,5.06-2.6,10.83-4.75,16-8,1.3-.82,3.07-2.56,4.5-3.5l-16.5,2.5-9.5,12ZM393,113c-1.4-2-3.61-4.52-5.5-6-.78-.61-2.46-2.03-3.5-1.5l2,5,3.5,4.5,3.5-2ZM192,106c-4.17-.74-7.31,2.02-11,2-.19.19.26,1.03,0,1.5-.66,1.19-4.66,4.82-5,6-.19.66.24,1.51,0,2-.46.96-1.72,2.32-2,3.5.73.68,4.64-2.45,5.5-3,3.81-2.46,5.22-5.89,9-9,.19-.16.79.17,1,0,.89-.71,2.16-1.9,2.5-3ZM336.5,108l3.5,2.5,4,1-7.5-3.5ZM358,113l-2.5-3-5.5-2c.15.81,2.08,2.88,2.5,3,.62.18,1.38-.17,2,0,.83.23,1.57,2.69,3.5,2ZM370,113l-2.5-3-3.5-2c1.15,2.63,2.47,5.62,6,5ZM178,109c-4.17.78-7.88,2.78-11.5,5-.25.16-.78-.15-1,0-2.15,1.42-3.3,3.79-4.5,5.5-.5.71-1.43,1.29-2,2l-5,11.5c4.38-4.02,9.52-5.94,14.5-9,1.37-.84,3.4-1.65,4.5-3.5,1.23-2.07,1.19-5.14,3-8,.73-1.16,2.52-1.55,2-3.5ZM215,109c-1.9-.39-2.67,1.3-4,2.5l.5.5c1.01-1.27,3.13-.98,3.5-3ZM225,110c-1.84-.39-2.37,1.01-3.5,2-2.73,2.4-3.87,5.11-6.5,7.5l-1.5,4.5c4.49-4.37,8.71-8.47,11.5-14ZM190.5,111c-.65,0-.65,1,0,1s.65-1,0-1ZM204,115c1.9.29,3.29-1.1,3-3l-3,1v2ZM372.5,113c-.65,0-.65,1,0,1s.65-1,0-1ZM395,116v-2h-1v2h1ZM399,193c-.2-3.78.28-7.74,0-11.5-.03-.36-.97-.64-1-1-.33-3.61-.42-5.69-1-9-.62-3.55.14-3.38-2-7-3.07-5.2-8.89-10.12-13-15-1.02-1.22-2.98-4.81-4-6-7.24-8.41-16.43-16.3-23-25-1.28-1.69-3.09-2.71-5-3.5l8,16.5c12.5,19.29,26.28,38.93,38,58l3,3.5ZM363,117c.5-.4-1.75-2.65-3-2-.5.4,1.75,2.65,3,2ZM191.5,116l-1.5,1.5.5.5,1.5-1.5-.5-.5ZM207,126c.11-.34-.14-.88,0-1,4.51-.33,7.06-4.52,8-9-1.84-.39-2.37,1.01-3.5,2-2.57,2.26-5.26,4.87-6.5,8,.66.01,1.34-.03,2,0-.11.34.14.88,0,1l-5,2.5-6,14.5c1.73-1.05,3.74-2.94,5-4.5.16-.2-.16-.8,0-1,3.27-4.08,7.06-7.44,9-12.5-.99-.02-2.01.04-3,0ZM376,116h-2v1h2v-1ZM431,148l-2-8.5c-2.17-4.48-4.91-9.39-6-14l-8-9.5,1,6.5c1.98,4.32,1.48,9.57,4,14l11,11.5ZM388,119v-2h-1v2h1ZM389.5,117c-.65,0-.65,1,0,1s.65-1,0-1ZM385,147c-.66-3.75-5.51-6.35-8-9.5-.64-2.72-1.06-7.94-3.5-9.5-3.36-2.15-6.86-4.32-10-7l-5.5-2,36.5,42-.5-6.5-3-3,2-1-5.5-4.5-2.5,1ZM407,134l-2-6.5-7.5-7.5-5.5-1c2.96,4.05,5.6,8.87,9.5,12,.2.16.78-.17,1,0,1.44,1.11,2.27,3.34,4.5,3ZM366.5,120l-.5.5,2.5,2.5.5-.5-2.5-2.5ZM388.5,120c-.65,0-.65,1,0,1s.65-1,0-1ZM146,144v1.5h1c.36-1.66-2.08-1.36,0-4,3.77-4.79,6.37-10.22,8-16,.16-.56,3.31-2.79,2.5-4.5l-6.5,6.5c-4.67,6-6.23,11.01-9,18-.49,1.23-2.37,2.76-2,4.5l6-6ZM169,133c1.5-.38,2.27-2.21,3-3.5.29-.51.72-2.58,1-3,.97-1.45,3.4-2.21,3-4.5l-5,3.5c.35,2.7-2.55,4.51-2,7.5ZM393.5,124c-.65,0-.65,1,0,1s.65-1,0-1ZM163,142l-1-2.5,1.5-1.5,1,1,1.5-1.5,3-11.5c-2.66,1.21-5.19,2.64-7.5,4-3.84,2.26-7.41,4.03-9.5,8.5-.19.41-.84.61-1,1l-1,5.5c1.31-1.13,2.41-.7,3.5-1,.97-.26,4.19-1.85,5-2,1.34-.24,3.07.16,4.5,0ZM418,139c-.75-2.87-3.22-4.4-5-6.5-.17-.2.16-.81,0-1-.7-.81-4.09-4.55-5-3.5l1,5.5,3.5,4.5,5.5,1ZM392,134c.31-1.76-1.36-3.29-3-4-.31,1.76,1.36,3.29,3,4ZM398,135c.2-.17-2.34-4.82-3-4-.37,2.4.48,4.24,3,4ZM189,148l6-5.5c.67-1.13.69-3.24,1-4,.63-1.57,2.68-3.09,2-5.5-1.42.69-3.02,2.28-4,3.5-.83,1.04-2.25,3.73-3,5-1.26,2.13-2.58,3.54-2,6.5ZM387,144c.39-1.84-1.01-2.37-2-3.5-2.01-2.29-4.44-4.25-6.5-6.5l1.5,4.5c2.13,2.14,4.03,4.51,7,5.5ZM179,143c.15-.14.27-2.93,2-3.5-2.73-3.58-5.78.92-5,4.5.85-.84,2.88-.89,3-1ZM202.5,139c-.65,0-.65,1,0,1s.65-1,0-1ZM406,150v-6.5c-.92-1.66-7.75-5.57-9-4.5l2,4.5,7,6.5ZM187,144c2.02-.37,1.73-2.49,3-3.5l-.5-.5c-1.2,1.33-2.89,2.1-2.5,4ZM418,141c-2.59.55-4.05-2.43-6,.5l3,6,4,3.5-1-10ZM201,143c-1.64.29-1.89,1.82-2.5,3-.37.71-1.58,2.34-1,3l2.5-2.5,1-3.5ZM434,167c-.16-1.77.23-3.78,0-5.5-.05-.37-.93-.62-1-1-.52-2.91-.19-5.16-2-8-3.6-3.35-5.54-8.95-11-9.5l1,10.5,13,13.5ZM162,144l-13,3-1,2.5-1,12.5c3.98,1,3.51-2.73,5.5-4,3.96-2.53,4.94-6.73,8.5-10.5l1-3.5ZM187,151l-.5-5c-.72.89-1.86,1.62-2.5,2.5-.15.21.16.76,0,1-.78,1.16-2.5,1.57-2,3.5l5-2ZM414,155l-1-5.5-4-3.5v7c2.26-.53,2.57,2.4,5,2ZM137,166c.5-.46,4.87-1.68,5.5-2,.77-.39,3.34-1.92,3.5-2.5.26-3.23-.37-6.86,0-10,.18-1.55,1.28-1.92,1-3.5-3.8,1.37-6.1,4.85-9,7.5.66,1.68-.86,2.53-1,3-.52,1.78-.54,5.11-1,7-.09.35-2.32,2.43-.5,3.5,1.56-.56,1.38-2.89,1.5-3ZM174,150v-2h-1v2h1ZM166,159l2-9-4,6.5c-.16,2.21-.44,2.89,2,2.5ZM196.5,150c-.65,0-.65,1,0,1s.65-1,0-1ZM169,155l2-1.5v-2.5h-1l-1,4ZM418,156v-4h-1v4h1ZM161,160l2-7-2.5,4,.5,3ZM177,162c2.57.67,6.87-5.99,6-7-3.14,1.07-5.77,3.53-6,7ZM408.4,155.16l-2.06,1.24,2.56,4.26,2.06-1.24-2.56-4.26ZM398,160v-3h-1v3h1ZM421,157h-2c.31,1.18,1.42,1.49,1,3h1v-3ZM433,202l4-9.5c-.48-4.7.66-10.48,0-15-.05-.37-.92-.61-1-1-.38-1.9-.5-4.07-1-6l-12-11.5c-.24,1.63.39,3.06,1,4.5.69,1.63,2.74,4.53,3,6,.73,4.08-.85,10.43-2,14,1.67,2.85,1.2,7.11,2,10,.08.3,2.43,3.78,3,5,.6,1.3,1.03,2.96,3,3.5ZM404,173c.68.14,2.88.38,3-.5l-6.5-12.5c-2.22-.4-1.47.97-1.5,2.5-.02,1.24-.2,2.9,0,4,.07.39,1.55.89,1,2.5h2c.08.64-.15,1.52,0,2-1.94,0-.75,2.97-.5,4,.4,1.69,1.38,3.25,1.5,5l3-3.5v-1c-.96-.64-1.39-1.62-2-2.5ZM440,176c-.45-.28-1.86-1.17-2-1l1,10,3-4.5c-1.43-1.15-1.56-3.14-2-4.5.96.59,1.81,1.05,2.5,2,3.3-2.69.81-4.98-.5-7.5-1.01-1.95-2.76-5.32-4-7-.64-.87-1.94-2.17-3-2.5-.48,1.86.71,2.89,1,4.5.37,2.1-.26,3.88,1,6,1.14,1.91,1.99,1.39,3,4.5ZM161,164v-2h-1v2h1ZM423,176l-1-11.5-2-2.5c.16,1.77-.23,3.78,0,5.5.07.5,1.9,2.96,1,5l2,3.5ZM135,184c.98-.31,2.5-1.7,3-2.5.28-.45.73-2.6,1-3,2.24-3.32,4.54-5.03,6-9,.15-.42.91-.63,1-1,.4-1.72.07-3.43-1.5-4.5-2.4,1.72-5.89,2.79-7.5,5.5-.13.22.14.69,0,1-.19.41-.84.61-1,1-.32.79.53,2.21-1,3v9.5ZM153,165c-3.76-.41-2.34.01-3,1.5-.18.41-.84.6-1,1-.76,1.86-1.3,3.41-1,5.5,1.68-.52,5.7-7.31,5-8ZM122,206c.06-2.02,1.93-3.79,3-5.5s2.04-4.46,4-6c-.18-3.31.25-6.7,0-10-.03-.36-.97-.64-1-1-.24-3.12.17-6.37,0-9.5l-3,5.5c-3.4,7.28-3.24,15.47-5,23l2,3.5ZM144,177l-1,2.5.5.5,1.5-3h-1ZM410,183l-2-6-3,4.5c-.86,3.97,1.61,7.18,2,11l2.5,4.5.5-11.5-3-3,3,.5ZM446,178c-4.11,2.02-.94,2.83,0,4.5.69,1.23.82,3.47,2.5,4.5l-2.5-9ZM142,196c-.53-1.65.79-1.91,1-2.5.42-1.17.59-3.81,1-5,.18-.52,1.92-2.64,2-3,.34-1.56-.23-3.8,0-5.5l-6,7.5c-.77,2.72-2.65,4.44-2,7.5l4,1ZM402,187v-7h-1v7h1ZM140.5,182c-.65,0-.65,1,0,1s.65-1,0-1ZM437,234c.04-2.06,1.97-3.73,3-5.5,3.72-6.38,7.56-16,9-23,.24-1.18-.22-2.78,0-4,.07-.38.91-.61,1-1,.59-2.54-1.77-5.06-1-8l-5-10.5c-1.83-.28-.7,1.52-1,2.5s-3.83,4.77-4,7c1.65,2.72.23,2.96,0,4-2.1,9.49.74,24.11-2,35-.12.46-2.74,3.24,0,3.5ZM136,189c.4.5,2.65-1.75,2-3-.4-.5-2.65,1.75-2,3ZM152,190v-3h-1v3h1ZM409,209c.52-1.95-.79-2.9-1-4.5-.52-3.92-.6-7.02-2-11l-3-5.5c.52,1.95-.8,2.91-1,4.5-.4,3.18.59,5.27,1,8l6,8.5ZM147,190l-3,2.5-1,4.5,3-2.5,1-4.5ZM155,190l-3,1.5,2,2.5,1-4ZM411,191v19.5l2,2.5c.3-2.66-.42-5.97,0-8.5.06-.38,1-.67,1-1s-.94-.62-1-1c-.45-2.68.32-6.18,0-9l-2-2.5ZM160,196v-4h-1v4h1ZM163,215c.15-1.78-.22-3.77,0-5.5.5-3.82,2.72-9.75,1.5-13.5l.5-4-2,2.5c-.19,3.73-3.73,9.88-3,13,.09.39.93.62,1,1,.41,2.24-1.21,5.52,2,6.5ZM132,196v-2h-1v2h1ZM135,217l3-10.5c-1.78-1.12-.65-3.27-1-5l-3-4.5c-.18,1.72-.84,2.56-1,4.5-.38,4.62.62,7.93,1,12,.12,1.27-.81,3.71,1,3.5ZM158.5,197c-.65,0-.65,1,0,1s.65-1,0-1ZM123,226c-.46-1.89.69-2.88,1-4.5,1.07-5.6,1.53-11.01,4-16l1-7.5-8,11.5c-.18,1.59.27,3.51,0,5-.07.37-.87.59-1,1-.43,1.43,1.97,5.43,1,8l2,2.5ZM140,204c-.28-1.76,1.54-2.61,1-4.5-.24-.84-1.92-1.82-3-1.5-.27,1.47.15,2.62.5,4,.26,1.02.29,2.28,1.5,2ZM431,210v-6.5l-2-2.5c-.63,2.49,1.24,4.11.5,6s-.2,2.41,1.5,3ZM439,256c1.55,1.39,2.87.27,4-1.5.7-1.1,1.38-3.65,2-5,5.99-13.05,9.63-28.63,8-44-.17-1.58-1.54-2.54-1-4.5-1.96-.08-.75,3.14-1,4.5-1.23,6.73-6.44,18.23-10,25-.75,1.42-3.75,4.85-4,6-.22,1.01-.17,3.88,0,5,.13.88,1.9,5.17,2,6,.29,2.36-.2,5.08,0,7.5l-1-5.5-2-9.5-2,3.5c-.26,3.61-.47,7.47-1,11-.05.37-.91.6-1,1-.67,2.86,1.08,3.95,2,6,.36.8-.43,2.56,1.5,3.5.49-.78,2.34-1.93,2.5-2.5.57-2,1.11-4.29,1-6.5ZM145,216c-.46-1.89.69-2.88,1-4.5.38-1.97.58-3.24,1-5s.07-3.44-1.5-4.5c-2.38,1.5-1.15,3.53-1.5,5.5-.07.38-.94.63-1,1-.23,1.54.16,3.39,0,5l2,2.5ZM437,215l1-13-3,5.5c-.56,2.51.89,3.42,1,4,.25,1.27-.9,3.7,1,3.5ZM132,222v-19c-2.13.56-1.86,1.8-2,3.5-.24,2.95-.36,8.15,0,11,.05.37.93.61,1,1,.24,1.27-.89,3.7,1,3.5ZM410,234v-17.5c0-.33-.91-.6-1-1-.35-1.61.02-3.28-1-5-.6-1.01-2.3-1.95-3-3-.27-.41-.72-2.53-1-3-.26-.43-1.72-1.85-2-1.5.15,1.44-.22,3.13,0,4.5.64,3.92,1.86,6.14,1,10-.72,3.21.6,5.82,1,8,.22,1.2-.15,2.72,0,4l6,4.5ZM420.5,203c-.65,0-.65,1,0,1s.65-1,0-1ZM142,207v-3h-1v3h1ZM167,209v-3h-1v3h1ZM421.5,206c-.65,0-.65,1,0,1s.65-1,0-1ZM131,254c-.65-.35-1.27-.85-2-1-.76.9,1.6,3.53,2,4.5.31.75.38,1.61,1,3,1.3,2.91,2.27,6.13,4.5,8.5l-1.5-8.5c-1.94-1.89-3.36-4.16-4-6.5.43.23,1.85,1.18,2,1l-1-4.5c.44-10.68-.05-20.75-3-30l-.5-9.5c-2.22,1.29-1.11,2.98-1.5,4.5-1.26,4.96-1.42,6.48-2,12-.04.36-.96.64-1,1-.21,1.91-.21,5.09,0,7,.04.36.95.63,1,1,.23,1.86-.36,4.33,0,6,.63,2.88,5.07,8.1,6,11.5ZM137,240c.2-3.09-.29-6.45,0-9.5.38-4.02.36-8.39,1-12l1-7.5-2,2.5c-1.1,5.55-1,11.4-2,17-.09.51-1.57,1.49-1,4l3,5.5ZM428,213v-2h-1v2h1ZM436,221l-1-6.5-2-2.5-.5,4,.5,1.5,3,3.5ZM154,217l-1-4-2,4h3ZM138,295c-.02-.05-.83.18-1-.5-.7-2.87.75-8.27,0-11-.2-.73-4.96-4.61-6-7-6.58-15.07-6.8-26.29-9-42-.49-3.48-2.6-8.77-3-12-.29-2.36.2-5.08,0-7.5l-2,2.5c-1.89,6.36-5.31,13.47-7,20-1.41,5.45-1.4,10.25-2,16-.04.36-.97.64-1,1-.25,3.12-.28,7.9,0,11,.03.36.95.63,1,1,.73,5.78,1.06,11.76,3,17,5.81,15.64,16.04,26.7,29.5,36.5,7.16,5.21,18.62,13.61,27,16,.36.1,2.86,2.65,4,3,.87.04.56-1.31.5-2,1.29.92,6.1,4.88,6.5,5,1.83.54,4.35.61,6,1,.4.09,1.61,2.23,2.5.5l-3-5.5c2,1.37,6.77,8.5,8.5,9,.66.19,1.5-.23,2,0,.65.3,2.54,1.88,3,2,6.4,1.75,13.86,2.76,20.5,4,.14.12-.11.66,0,1-4.94-.25-9.49-.59-13.5-3l-9.5-.5c1.23,1,2.27,2.6,3.5,3.5s9.51,5.59,11,6c.84.23,2.11-.21,3,0,.39.09.61.91,1,1,1.14.26,2.78-.22,4,0,.39.07.67,1,1,1h24.5l-5.5-4h-1.5v1.5l-3,.5.5-2-15.5-3c-.14-.12.11-.66,0-1,4.23.22,6.85,1.26,10.5,2,1.37.28,2.97-.66,4,1l1-2-6-4c-5.18,2.39-11.77-2.74-17-4l-9-4,.5,3c-1.3.27-2.38-.46-3-1.5-.37-.62.73-1.82-1-1.5l-2,3,1-4.5c-2.05-1.07-3.66-3.26-5.5-4.5-.23-.15-.77.15-1,0-2.48-1.67-3.83-3.82-7.5-3l1,4c-2.63-1.81-1.8-2.69-3-4.5-3.55-5.35-13.91-6.8-18.5-11.5-.58,1.05.96,2.7,1.5,3.5,2.43,3.57,7.65,7.55,8,11.5-6.06-4.34-9.67-12.68-14-18.5-2.8-3.77-7.31-5.02-10.5-7.5-3.45-2.68-6.87-6.9-7.5-11,2.28,1,2.81,3.9,4,5.5,2.1,2.84,5.87,4.8,9,6.5.75-.82-2.45-4.42-3-5.5-2.01-3.93-3.52-10.27-6-14-1.58-2.38-3.04-1.98-4-5.5.8.11,2.97,2.27,2-.5-.66-1.89-2.29-3.96-2-6l-2-2.5c.27,1.64-.39,4.09,0,5.5.13.47,1.36,1.15,2,3.5-.64-.09-1.35.04-2,0l1,6.5-1,1.5ZM161.5,218c-.65,0-.65,1,0,1s.65-1,0-1ZM420,219h-2l-1,5c3.1.21,3.27-2.25,3-5ZM429,225v-6h-1c.46,2.37-1.46,3.63-1,6h2ZM154,220c-3.48-.55-2.43.23-4,2.5,1.68,1.22.84,3.49,1,5.5h2l.5,4,.5-12ZM431,224l2-1.5v-1l-1.5-1.5h-.5v4ZM133,223h-2v1.5l1.5,1.5h.5v-3ZM142,224h-2v3.5l1.5,1.5h.5v-5ZM436,225h-2v4h1l1-4ZM421,226c-1.9-.29-3.29,1.1-3,3l3-3ZM428,238c-.17-3.58,2.92-7.07,2-10.5l-3-1.5c-.37.4.27,5.93,0,7.5-.06.37-.87.58-1,1-.48,1.47.39,3.16,2,3.5ZM150,230v-2h-1v2h1ZM140,255c.31-1.91-.45-4.85,0-6.5.15-.55,1.85-1.45,2-2,.75-2.72-.74-6.48-1-8s-.25-3.17,1-4v-1l-3-4.5-1,18.5,1,1,1,6.5ZM397,229l-3,2.5v5.5l2-1.5,1-6.5ZM401,250l-2-8.5c1.28-2.29,2.24-6.12,2-9-.14-1.69.14-2.94-2-3.5l-3,14.5,2,4,3,2.5ZM154,233h-3v.5l1.5,1.5,1.5-2ZM404,233c-1.17-1.35-1.92-.12-2,1.5-.09,1.83.06,3.68,0,5.5h3c.42-2.55-.44-4.62-1-7ZM429,245l4-4.5v-7.5l-4,6.5v5.5ZM409,241l1-4.5-4-2.5,3,7ZM420,234c-2.11,1.42-1.27.56-2.5,0-2.03-.93-1.58,1.93-1.5,3l1.5-2,1,2,1.5-3ZM155,238h-2v1h2v-1ZM144.5,241c-.65,0-.65,1,0,1s.65-1,0-1ZM154,244c.65-1.25-1.6-3.5-2-3-.65,1.25,1.6,3.5,2,3ZM415,252c.18-1.72.84-2.57,1-4.5.18-2.13-.12-4.36,0-6.5l-1,5.5c-.05.37-.94.62-1,1-.13.89-.69,4.76,1,4.5ZM404,252l4-6.5.5-3.5h-6.5v10h2v2c1.9.29,3.29-1.1,3-3l-3,1ZM134,243c.26,3.05-.37,6.53,0,9.5.05.37.93.62,1,1,.22,1.22-.29,2.94,0,4,.19.71,2.88,2.52,3.5,3.5l-2.5-7.5c-.18-1.59.26-3.5,0-5-.07-.38-.94-.63-1-1-.21-1.35.93-4.59-1-4.5ZM145,247v-3h-1v3h1ZM152,249v-3.5l-2-1.5v3.5l2,1.5ZM431,255l1-4.5v-5.5l-3,3.5v3l2,3.5ZM419,251v-2h-1v2h1ZM144.5,251c-.65,0-.65,1,0,1s.65-1,0-1ZM137,280v-6.5l-10-18-1-3.5,1,9.5c1.97,5.26,4.67,10.77,7,16l3,2.5ZM143,254v-2h-1v2h1ZM428,253h-2v4h3c-.79-1.38-1.31-2.29-1-4ZM182,278c.69.06,2.04.37,2-.5l-2-6c-2.96-3.21-2.13-8.85-4-12-.29-.49-1.99-2.17-2.5-2.5-.45-.29-2.39-.7-3-1-1.67-.82-3.09-2.58-5.5-2,.18,4.66,2.8,8.55,5,12.5.5.9,1.81,4.31,2,4.5s1.03-.26,1.5,0c2,1.12,5,5.09,6.5,7-2.38-.21-2.81-1.32-4.5-3-1.89,1.53,1.86,2.74,1.5,4.5,1.65.74,2.43,5.09,4.5,4.5,3.41-.98-.52-4.75-1.5-6ZM142,255l1.5,3,.5-.5-1-2.5h-1ZM404,258h-2v3h1c-.42-1.51.69-1.82,1-3ZM430,260l-5-2,.5,10c4.63.33,3.02-2.84,3.5-5.5.07-.4,1.55-.89,1-2.5ZM380,290c.32.71-.27,2.53,0,3.5.5,1.8,3.02,1.94,4,0,.37-2.47-.26-4.88-3-4.5l2.5-5,3.5-1c-.13.41.2,1.04,0,1.5-.56,1.27-1.84,2.35-2,4-.17,1.74.14,2.99,2,3.5l3-9.5c.06-.83-1.42-.64-2-.5.78-1.8,3.48-3.6,4-5.5.42-1.55.07-1.92,1-4,.3-.66.17-1.85,1.5-2.5,2.49-1.2.31,2.09,1,2l1.5-1.5,3-11.5c-1.25.56-2.41,1.13-3.5,2-6.49,5.23-12.62,10.37-17.5,17.5l-1,10c.24.88,1.95,1.39,2,1.5ZM146,260c-1.59-.09-2.3-.47-2,1.5.23,1.53.67,1.34,1,2,.15.29-.13.78,0,1,.48.79,2.03,2.2,3,2.5l-2-7ZM158,260c-7.97-.62-2.41,3.06,1,5l-1-5ZM180,262c1.13,1.31.7,2.41,1,3.5,1.07,3.91,3.54,7.87,4,12l2.5,3.5,3.5-4.5-2-8c-2.78-2.52-4.96-6.18-9-6.5ZM401.5,262c-.65,0-.65,1,0,1s.65-1,0-1ZM139,268v-3.5l-2-1.5c-.54,2.17,1.11,3.14,1,5h1ZM429,274c2.96-1.09,3.24-4.44,5-6.5l-2.5-4.5-1.5,3.5-1,7.5ZM160,275c-.27-1.64.39-4.09,0-5.5-.33-1.21-6.89-6.5-8-5.5,1.47,3.34,2.2,7.04,5,9.5,1.01.88,1.31,1.89,3,1.5ZM143,265c-.39,1.9,1.3,2.67,2.5,4l.5-.5c-1.27-1.01-.98-3.13-3-3.5ZM437,276c-.53-1.95.81-2.91,1-4.5.21-1.75-.14-3.72,0-5.5-2.86.88-2.01,4.17-2,6.5,0,1.2-.73,3.74,1,3.5ZM147,279c-.34-.11-.88.14-1,0l-2-7.5-3-3.5c-.54,2.41-1.57,4.94-1,7.5.08.36.8.57,1,1,.14.31-.13.78,0,1,1.22,2.05,4.96,4.36,6.5,6.5l-.5-5c.3.1.68-.07,1,0,.17.2-.22.96,0,1.5,1.93,4.73,3.25,7.76,7.5,11.5,1.13.99,1.66,2.39,3.5,2,.55-.5-2.61-3.86-3-4.5-.44-.72-2.93-4.69-3-5-.43-1.98.29-3.84-1-6-.56-.93-5.03-5.42-6-4.5l1,5ZM149,273c.24-1.88,0-3.47-2-4-.24,1.88,0,3.47,2,4ZM428,269c-2.33-.26-4.54.92-6,2.5v11.5l3-3.5c1.53-2.49,1.43-4.71,2-7,.14-.55,1.76-1.68,1-3.5ZM408,276l-.5-5-3.5,5h4ZM420,271l-3,2.5-1,4.5,4-1v-6ZM426,297c-.69-1.93,1.77-2.67,2-3.5,1.5-5.32,5.3-11.23,6-16,.29-2-.2-4.42,0-6.5l-4,4.5c-3.18,5.22-4.51,11.98-5,18-.09,1.07-.67,3.78,1,3.5ZM176,282l-4-8,1,5.5,3,2.5ZM399.5,275c-.65,0-.65,1,0,1s.65-1,0-1ZM407,278c-2.75-.27-5.21-.1-5,3l5-1v-2ZM161,279h-3l2.5,3h.5v-3ZM419,285l1-6c-2.28,1.03-2.96,2.19-3,4.5-.04,2,.07,1.56,2,1.5ZM143,282l4,9.5c3.07,3.39,4.62,7.44,8.5,10.5l-3.5-10.5-9-9.5ZM404,319c1.49-.99,3.02-1.98,4.5-3,.22-.15.76.16,1,0,4.01-2.66,8.41-9.12,11.5-12.5l1-2,4-19.5c-.99.31-2.49,1.69-3,2.5-2.82,4.5-5.25,10.39-8,15l-4,3,1,2-7,9-1,5.5ZM405,283h-4v2c1.88.24,3.47,0,4-2ZM188,288c-.77-1.46-1.16-3-2.5-4l-1.5,1.5c1.33,1.2,2.1,2.89,4,2.5ZM179,288c.65-1.25-1.6-3.5-2-3-.65,1.25,1.6,3.5,2,3ZM400,288v-2h-1v2h1ZM189,292c-.75-2.3-3.02-2.74-4.5-4l-.5.5c1.66,1.37,2.76,3.82,5,3.5ZM397.5,288c-.65,0-.65,1,0,1s.65-1,0-1ZM416,288h-2v1h2v-1ZM174,294l-1-5-2,1.5,3,3.5ZM164,297c.56-3.21-2.74-5.43-5-7,.27,3.02,2.42,5.58,5,7ZM196,304c.38-.35-3.88-5.08-4-5.5-.18-.62.18-1.38,0-2-.35-1.24-6.51-3.68-7.5-5.5-.58,1.05.96,2.7,1.5,3.5,1.73,2.54,4.04,5.34,6.5,7.5,1.13.99,1.66,2.39,3.5,2ZM416,292h-2v1h2v-1ZM171,297l-4-4c-.2,2.06,1.94,4.2,4,4ZM167,306c-.24-.11-.83.18-1-.5-.12-3.08-5.15-6.64-8-9-1.16-.96-2.29-1.64-3.5-2.5l5.5,11.5,9.5,9.5c1.57-1.07-1.31-3.81-1.5-4.5s.12-1.7,0-2.5c2.55,1.12,2,7.98,7.5,8,1.76,0,2.39.03,3.5-1.5l-11.5-10.5c-.88-.04-.55,1.3-.5,2ZM383,297c1.9.29,3.29-1.1,3-3l-3,3ZM405,297v-3h-.5l-1.5,1.5v1.5h2ZM414,296l-1.5-2-1.5,1.5v.5h3ZM147,295l1.5,3,.5-.5-1-2.5h-1ZM399,296l-4,3.5c.62,2.33-1.36,2.79-2,4.5l4-3.5,2-4.5ZM382,300v-2l-2,1.5v.5h2ZM412,298h-2v1h2v-1ZM151,299l-2,1.5,6,12c.99.63,2.78,3.29,3.5,3.5.63.18,1.41-.19,2,0,.8.26,1.94,1.74,4,1l4,2-1.5-3.5c-3.94-4.03-7.78-7.28-11.5-10.5-1.67-1.44-4.49-3.74-4.5-6ZM167,299l1.5,3,.5-.5-1-2.5h-1ZM175.5,299c-.65,0-.65,1,0,1s.65-1,0-1ZM187,305c.25-.21-2.44-4.99-4-5-.51,2.61,1.42,5.08,4,5ZM403,300l-4,2.5-1.5,3.5,4-3,1.5-3ZM410,301h-3v4c1.33-.22,3.83-3.17,3-4ZM198,302.5l-1,1,7.75,7.75,1-1-7.75-7.75ZM400,313l2-7c-1.83.78-3.01,2.72-4.5,4-.17.15-.76-.18-1,0-1.03.77-4.29,4.84-5,6-.93,1.53-.37,3.33-.5,5,1.06-.33,2.36-1.63,3-2.5,1.59-2.16,2.5-5.62,4-8,.33-.53,1.08-.95,1.5-1.5h.5v4ZM407,309l1-2.5-.5-.5-1.5,3h1ZM189,308h-2v1h2v-1ZM384.21,308.82l-2.87,4.78,1.62.97,2.87-4.78-1.62-.97ZM190.5,311c-.65,0-.65,1,0,1s.65-1,0-1ZM200,314c.29-1.9-1.1-3.29-3-3l3,3ZM398,366c2.01.26,2.59-.69,3-2.5,1.4-6.15,5.74-13.16,8-19,1.37-3.53,2.18-7.82,4-11l6-22.5c-2.9,2.13-5.55,4.86-8,7.5s-10.87,11.61-12,14c-.4.84-.16,2.16,1,1,1.42-1.42,2.31.99,4,.5,1.54,3.6-2.65,5.23-3,6.5-.68,2.46-.02,6.58-1,10-.14.49-1.58,1.34-2,2l1,3.5-4-1c-.31,3.71.36,8.66,5,8l-2,3ZM399,321c-.09-2.47,3.18-4.06,3-7l-5.5,6h-1.5v2l4-1ZM206,318l-1.5-2h-1.5v2h3ZM183,324v-5.5l-1.5-1.5h-7.5c1.58,2.07,2.39,4.4,4.5,6,.82.62,3.1,1.25,4,3l1-1c1.74,2.25,3.94,5.14,6,6,1.6.67,4.51,2.2,6,3,.69.37,1.48,1.85,2,2,1.3.37,4.05-.05,4.5-1.5.59-1.91-4.78-3.65-5.5-5.5-3.13-.7-4.81-3.18-7-5-1.21-1.01-2.95-3.47-4-4-2.74-1.39-.33,4.39-2.5,4ZM177,328l-5.5-7-9.5-2.5c1.23,1,2.27,2.6,3.5,3.5.68.5,3.2,1.5,4,2,1.3.82,6.55,4.84,7.5,4ZM401,319l-1,2.5.5.5,1.5-3h-1ZM195,324c.44-2.68-2.03-2.62-3.5-4l-.5.5,4,3.5ZM379,331c.59.63,6.63-5.39,7.5-6,.21-.15.74.16,1,0,1.95-1.23,1.55-2.97,1.5-5-2.24.94-3.63,3.68-5.5,5-.21.15-.75-.16-1,0-1.48.94-1.28,2.19-1.5,2.5-.82,1.16-2.48,1.58-2,3.5ZM403,325c2.19-.63,2-3.28,4-4.5l-.5-.5c-1.37,1.66-3.82,2.76-3.5,5ZM321,321c-1.82-.76-2.94.86-3.5,1-17.1,4.31-39.29,7.33-57,10-1.36.2-4.59-.93-4.5,1,1.94.21,3.69,1.28,5.5,2,.43.17.63.92,1,1,1.18.26,4.65.17,6,0,11.42-1.42,23.97-1.55,35,1,.38.09.59.88,1,1h2c1.1-1.5,2.42-3.03,3.5-4.5.16-.22-.16-.8,0-1,3.13-4.09,8.18-7.06,11-11.5ZM395.5,323l-4.8,2.4.7,1.4,4.8-2.4-.7-1.4ZM402,324l-3,2.5-1,4.5,2-2.5c-.26-1.04,2.27-4.22,2-4.5ZM199,328c.29-1.9-1.1-3.29-3-3l3,3ZM178.5,326c-.53,1.04.88,2.72,1.5,3.5,1.14,1.44,2.38,1.35,3.5,2.5l-5-6ZM366,330l1-4-5,3.5,4,.5ZM394,329v-2c-.38-.45-7.73,4.53-7,7,2.74-1.14,4.03-5.16,7-5ZM218,339l2-1.5c-1.89-1.3-.22-1.22,0-2,.41-1.43-.29-2.72-1.5-3.5-.44-.29-2.45-.7-3-1-.69-.37-1.49-1.86-2-2-.58-.16-3.28-.37-3.5.5,2.34,2.26,4.42,5.29,8,5.5h-4c-.8,2.93,1.6,1.28,2,3l-1,.5c0,.63.95.45,1,.5.04.04-.21.57.5,1,.29.18,1.5-.13,2,1l-.5-2ZM396,330l-11,8.5c1.88,2.97,5.41-.24,7.5-1.5.25-.15.77.15,1,0,1.4-.9,2.37-2.53,3-4l-.5-3ZM225,334c-.37-2.02-2.49-1.73-3.5-3l-.5.5c1.33,1.2,2.1,2.89,4,2.5ZM234.5,331c-.65,0-.65,1,0,1s.65-1,0-1ZM358.5,331c-.65,0-.65,1,0,1s.65-1,0-1ZM384,337l2-6-5,3,3,3ZM259,335l-6.5-3c-1.44,1.79-4.23.76-6.5,1l2.5,2c1.57-.56,5.56,2,6,2,.33,0,.61-.93,1-1,1.27-.23,3.7.88,3.5-1ZM355,333c-1.04-1.1-6.3,3.76-5,6,1.04,1.1,6.3-3.76,5-6ZM362.5,333c-.65,0-.65,1,0,1s.65-1,0-1ZM203,336l3,3.5h3l-6-3.5ZM235,338l-8-2,2.5,2h5.5ZM355,339c.4.5,2.65-1.75,2-3-.4-.5-2.65,1.75-2,3ZM382,339l-1.5-3-.5.5,1,2.5h1ZM402.26,336.98c0-.68-.55-1.24-1.24-1.24s-1.24.55-1.24,1.24.55,1.24,1.24,1.24,1.24-.55,1.24-1.24ZM227,340l-3.5-3-3.5,2.5,7,.5ZM295.5,337c-7.56-.93-16.75.69-24.5,0-.09,2.14-.45,1.9,1.5,2,2.49.12,5.02-.09,7.5,0l-1,3c3.53-.43,8.16.6,11.5,0,.35-.06,3.65-1.94,4-2,2.49-.44,5.86.31,8.5,0l-2.5-2c-2.02.91-4.55-.94-5-1ZM393,344c.33.35,8.97-4.46,4.5-7l-4.5,7ZM196.5,338c-.65,0-.65,1,0,1s.65-1,0-1ZM278,341l-4.5-1c-2.65-.13-5.36.18-8,0-1.97-.14-2.76-.84-4.5-1l5.5,3c2.67-.04,5.34.05,8,0,1.22-.02,3.73.75,3.5-1ZM221,348c-1.61-3.42-6.11-2.55-8.5-5l-11.5-3,2.5,2c2.37-.35,3.91,1.92,6,3,2.14-.24,4.28,1.39,6,2,1.87.66,3.4,1.37,5.5,1ZM323.5,340c-.65,0-.65,1,0,1s.65-1,0-1ZM383,340v1.5l1.5,1.5,1.5-1.5-1.5-1.5h-1.5ZM393,340l-4.5,2,.5,3c2.53.43,1.71-.37,2.5-2,.32-.65,1.62-2.89,1.5-3ZM270,345l-9.5-2c-1.41-1.25-3.42-2.29-5.5-2l4.5,3c3.37-.04,5.53,2.94,9,3,2,.03,1.57-.06,1.5-2ZM306,341h-6v.5l1.5,1.5h3l1.5-2ZM310,341h-2v1h2v-1ZM238,347l-6.5-5-1,1c-1.55-2.23-2.4.2-4.5,0l2.5,3c2.9,1.42,6.03.98,9.5,1ZM343,342c-2.68-.44-2.62,2.03-4,3.5l.5.5,3.5-4ZM344,342v2h4v-2h-4ZM399,343c-1.1-1.2-5.05,3.72-6,4.5,1.14.76,2.49,3.02,3.5,3.5,1.99.94,1.35-2.21,2.5-2.5v-5.5ZM272,376l-5.5-2c-5.44-5.17-12.75-7.94-20-10-2.4-.68-3.75-1.41-7-1-4.22.53-9.97.32-13,1-3.25.73-6.03-.75-8-1-3.12-.4-5.95.12-9-1-1.55-.57-6.6-3.17-8-4-2.74-1.63-11.2-10.78-12-11-1.35-.37-3.08.69-4-1l-4.5-1.5c2.25,1.99,4.23,4.59,6.5,6.5,6.25,5.26,20.2,14.76,28,17,.56.16,1.44,1.83,2,2,7.64,2.26,14.55,4.58,22,6,4.66.89,11.43,1.73,16,2,4.31.25,8.69-.18,13,0l3.5-2ZM248,345l2.5,1,.5-.5-3-1.5v1ZM280,346c-.91-3.03-1.69-1.1-2.5-1-2.1.26-4.64-.93-5.5,2l8-1ZM336.5,344c-.65,0-.65,1,0,1s.65-1,0-1ZM388,347c.65-1.25-1.6-3.5-2-3-.65,1.25,1.6,3.5,2,3ZM293,345h-5.5l-3.5,2c1.99.67,3.4-1.67,4.5,0,.87-2.05,4.41.25,4.5-2ZM316,345h-3.5l-1.5,2h3.5l1.5-2ZM342,347c-1.25-.65-3.5,1.6-3,2,1.25.65,3.5-1.6,3-2ZM375.26,348.98c0-.68-.55-1.24-1.24-1.24s-1.24.55-1.24,1.24.55,1.24,1.24,1.24,1.24-.55,1.24-1.24ZM240.5,349c-.65,0-.65,1,0,1s.65-1,0-1ZM253,352c-3.54-.42-6.14-3.8-10-3-.4,3.74,0,2.34,1.5,3,.43.19.64.92,1,1,2.05.44,2.57.08,5,1,1.8.68,3.09.02,2.5-2ZM291,350h-2v1h2v-1ZM326,352l-.5-2-2.5,1v2l3-1ZM331,350h-2l1.5,2h.5v-2ZM384.5,351c-.65,0-.65,1,0,1s.65-1,0-1ZM268,353c-1.62.55-2.05-.9-2.5-1-1.64-.38-5.49-.76-4.5,2l7,2v-3ZM305,359h6.5c.71-.97,3.77-4.56,3.5-5.5-.54-1.83-4.92-1.78-6.5-1.5-.4.07-.89,1.55-2.5,1l-1,6ZM371,352c-1.86-.11-2.83,1.54-5,1l1.5,3,3.5-4ZM274,353l1.5,4,5.5-1.5-7-2.5ZM295,354l-4.5,1-1.5,2c2.83.43,4.86-.29,6-3ZM301,358c2.01-.53,2.24-2.12,2-4-2.01.53-2.24,2.12-2,4ZM242,355h-2v1h2v-1ZM270.5,355c-.65,0-.65,1,0,1s.65-1,0-1ZM299,356l-3.5,1-1.5,3h4l1-4ZM329.7,355.4l-6,3,.8,1.6,6-3-.8-1.6ZM255.5,357c-.65,0-.65,1,0,1s.65-1,0-1ZM341.5,358c-.65,0-.65,1,0,1s.65-1,0-1ZM278,359h-2v1h2v-1ZM332.5,359c-.65,0-.65,1,0,1s.65-1,0-1ZM359,359h-4v4c.93.93,4.7-2.27,4-4ZM322,360c-3.06.05-5.65-.8-7.5,2-1.39-1.95-3.56,1.63-6,1l-2.5,2h7.5l1.5-3,3.5,1,3.5-3ZM339,360h-1.5l-1.5,2h3v-2ZM272,363c-4.79-1.93-8.84-2.11-14.5-2-1.22.02-3.73-.75-3.5,1l8.5,3c8.59.4,16.86,2.98,26,2,1.58-.17,2.54-1.54,4.5-1l-3.5-2c-5.98.26-12.2-.78-17.5,1v-2ZM329,361h-2v1h2v-1ZM332.5,361c-.65,0-.65,1,0,1s.65-1,0-1ZM361.5,362c-.65,0-.65,1,0,1s.65-1,0-1ZM333,363c-1.12.13-2.48-.21-3.5,0-.39.08-.63.94-1,1-1.52.23-3.72-.35-5,0-.44.12-1.33,1.52-2,2-.39.28-3.1.52-2.5,2.5l7.5,6.5c.82-1.5,2.02-.72,3-1,.24-.07,3.43-3.26,3.5-3.5.66-2.41-.99-3.78-1-4-.01-.18,1.78-1.75,1-3.5ZM339,369c.99-1.66,2.37-3.11,3-5-3.26.42-6.64,2.53-6,6,1.15-.86,1.92-.72,3-1-.57.96-1.96,2.35-2,2.5-1.08,3.94,2.59,6.96,3,10.5,1.12.13,2.47-.21,3.5,0,.38.08.61.91,1,1,2.25.53,3.46-.88,5.5-1l-1.5-4-1,2-1.5-1.5,1-5-2-4.5c-1.81.76-3.3-1-3.5-1-.15,0-1.13.65-2.5,1ZM377.5,364c-.65,0-.65,1,0,1s.65-1,0-1ZM335.5,365l-1.5,1.5.5.5,1.5-1.5-.5-.5ZM308,366c-2.1.17-4.44-.24-6.5,0-.8.09-3.74,1.92-6,1l-2.5,2,10.5-1c.88-2.05,4.41.25,4.5-2ZM282,379l8.5,2c7.32-.12,13.81,1.05,21,0,1.09-.16,7.52-2.35,9-3,.64-.28,3.5-2.11,3.5-2.5l-7.5-7.5c-.73.55-2.33,1.73-3,2-7.94,3.17-19.71,5.95-28,7-1.63.21-2.94-.2-3.5,2ZM348,371v-3h-1v3h1ZM308,369l-5,.5c-10.46.47-22.16,3.16-32.5.5l-6.5-.5c1.42.93,3.22,2.71,4.5,3.5.47.29,2.47.7,3,1,.69.39,1.49,1.85,2,2,.63.18,1.41-.19,2,0,.41.13.63.93,1,1,.91.17,3.09.17,4,0,.38-.07.62-.93,1-1,7.96-1.48,15-2.59,23-5l3.5-2ZM395,369c-1.93-.69-2.67,1.77-3.5,2-.62.17-1.38-.18-2,0-.86.25-3.31,3.75-4.5,4.5,1.47,1.47.91,1.76,2.5.5,1.09-.87,1.92-2.11,3-3,.2-.17.81.16,1,0,.56-.47,3.89-3.66,3.5-4ZM419,372l2.5,6,3.5-3.5-4.5-4.5c-2-.57-2.62.91-3,1-.9.21-2.17-.23-3,0-.44.12-1.33,1.52-2,2-.8.57-3.11.42-2.5,3,2.86-.73,1.46,1.71,3.5,3h4l1.5-2.5c.03-1.27-2.64-4.25,0-4.5ZM364,374v-3h-.5l-1.5,1.5,2,1.5ZM426,371h-2l1.5,2h.5v-2ZM395,372c-1.72.86-3.17,2.61-4.5,4-.66.69-2.76,2-2,3,2-2.36,6.37-3.27,6.5-7ZM392,379c3.37-.18,5.83-2.65,6-6l-6,6ZM336,380c.75-.74-1.31-5.65-2.5-6-2.62-.77-3.11,2.41-5.5,2,.29,1.9,7.18,4.81,8,4ZM354,387c-1.52,2.64-1.61,1.46-3.5,2s-1.79,5.54-1.5,7.5c.04.26.77,3.15,1,4,.12.45,1.69,1.4,1,3,0,.85,1.99.65,2.5.5,1.16-.35,2.4-3.79,4.5-3v-3c2.64.34,5.15-.47,7-2.5l-4-4.5c2.76-.51,4.39,1.87,6.5,3l5.5-3.5,2-5.5c-1.62,1.42-6.46,4.22-6,0,2.7.51,5.12-1.54,5-4,1.9,1.41,7.16-3.83,6-5-1.25.43-2.4,1.31-3.5,2-1.24.77-3.98,2.18-5,3-2.45,1.97-4.57,4.92-7,7l1.5-6-2.5,2-2.5-1,2,7c-2.95.73-2.99-3.59-4.5-4h-1c-.91,1.58-2.25.71-3.5,1,.55-.96,1.25-1.76,1-3-3.47-.41-5.51.28-5,4l4-1ZM406,379v-2h-1v2h1ZM422,381c-.97-.42-1.55-1.28-2.5-1l-4.5,3.5c1.31,1.51,2.88,3.39,4,5,.83,1.2,2.15,3.88,3,5,.63.83,2.4,2.82,3.5,2.5,1.65-1.3,1.38-1.23,1-3-.18-.82-.39-2.23-.5-2.5-1.26-3.12-2.41-3.49-3-7.5.72.32,1.37.26,1,1.5l4.5,8.5,4.5-4.5-6-11.5c-2.77-.46-4.97,1.4-5,4ZM384,378l-5,3.5-1.5,3.5,6.5-7ZM391,380c-1.9-.39-2.67,1.3-4,2.5l.5.5c1.01-1.27,3.13-.98,3.5-3ZM409,385l-1-4-2,1.5,1,2.5h2ZM349,384l-6,1.5,4.5,2.5,1.5-4ZM403,385h-2v3l2-1.5v-1.5ZM397,390c2.02-.37,1.73-2.49,3-3.5l-.5-.5c-1.2,1.33-2.89,2.1-2.5,4ZM414,394l-3.5-8-2.5,2.5c1.32,2.89,3.43,3.85,6,5.5ZM406,395l.5-5-3.5,3,3,2ZM414,401l-1-3.5-3-3.5,1,4.5-1,1,4,1.5ZM429,396l-3,2.5,7.5,8.5-4.5-11ZM371.5,397c-.65,0-.65,1,0,1s.65-1,0-1ZM417,400c.29-1.9-1.1-3.29-3-3-.29,1.9,1.1,3.29,3,3ZM368,399c-1.9-.39-2.67,1.3-4,2.5l1.5,2.5,2.5-1.5v-3.5ZM418,403v-2l-2,1.5v.5h2ZM356,414c4.43-.44,6.84-4.75,10-7.5l-4.5-4.5c-.89.56-2.35,2.81-3,3-.62.18-1.38-.17-2,0-.83.23-1.57,2.69-3.5,2l3,7ZM397.25,401.25l-3.75,3.75,1.5,1.5,3.75-3.75-1.5-1.5ZM409.5,403c-.65,0-.65,1,0,1s.65-1,0-1ZM385,410c1.71-.26,1.8-1.89,2.5-3,.63-.99,2-1.19,1.5-3-1.71.26-1.8,1.89-2.5,3-.63.99-2,1.19-1.5,3ZM421,406v-2l-2,1.5v.5h2ZM417.5,407l-3.5,3.5,2,2,3.5-3.5-2-2ZM369,408l-6,4.5,3.5-1.5,2.5-3ZM382.5,408c-.65,0-.65,1,0,1s.65-1,0-1ZM357,421c.68-1.94-1.75-2.66-2-3.5-.54-1.85-.93-4.32-2-6-.54-.86-1.83-1.62-2.5-2.5-1.79,1.4-4.28,1.12-5.5,3.5-1.07,2.1,1.84,1.29,2.5,1.5.35.11,5.04,3.36,6,4,.69.46,3.05,3.52,3.5,3ZM397,411v-2l-2,1.5v.5h2ZM433.5,409c-.65,0-.65,1,0,1s.65-1,0-1ZM377,431c-3.58.38-9.1-3.51-8-7.5l4-5v-3l-3.5-4.5-10.5,6c3.89,5.89,7.45,11.5,13,16.5-1.44,1.48,1.76,6.01,3,8,1.01,1.63,1.95,3.29,3.5,4.5l-.5-5.5-6-6c.98-1.63,2.21.31,3,1,.88.77,1.63,1.71,2.5,2.5l-.5-7ZM391,413h-2v2l2-2ZM426,421c.94-2.3-2.17-8.67-4.5-8-1.53,1.03-1.95,2.86-1.5,4.5.62,2.24,2.53.43,4,.5l2,3ZM436,416l-1.5-3-.5.5,1,2.5h1ZM438.5,414c-.65,0-.65,1,0,1s.65-1,0-1ZM388,415h-3v1h3v-1ZM432.5,415c-.65,0-.65,1,0,1s.65-1,0-1ZM384,417l3.5,5,2.5-2.5-6-2.5ZM411,421c1.46-.77,3-1.16,4-2.5l-1.5-1.5c-1.2,1.33-2.89,2.1-2.5,4ZM440.5,417c-.65,0-.65,1,0,1s.65-1,0-1ZM434.5,418c-.65,0-.65,1,0,1s.65-1,0-1ZM441,422l-3.5-4-.5.5c1.4,1.57,1.39,3.96,4,3.5ZM441.5,419c-.65,0-.65,1,0,1s.65-1,0-1ZM376,420l-3.5,1-2.5,4.5c1.05.79,1.98,2.36,3,3,1.32.82,2.58.06,3.5,1.5l.5-6.5-1-3.5ZM435.5,420c-.65,0-.65,1,0,1s.65-1,0-1ZM395.5,421c-.65,0-.65,1,0,1s.65-1,0-1ZM403,422c-2.84,1.44-5.82,5.51-5,8.5.05.17,2.3,2.43,2.5,2.5,2.75.92,2.23-3.57,2.5-4.5.12-.42,1-.67,1-1s-.94-.62-1-1c-.23-1.37.15-3.06,0-4.5ZM415,425l-.5-3c-1.2,1.33-2.89,2.1-2.5,4l3-1ZM430,423h-2v3h2v-3ZM444,426l-1.5-2h-1.5v2h3ZM438.5,425c-.65,0-.65,1,0,1s.65-1,0-1ZM391.5,426l-1.5,1.5.5.5,1.5-1.5-.5-.5ZM410,427h-2v3h2v-3ZM445,430l-2-1.5,2,4,4,2.5-4-5ZM395,433v-4h-.5l-1.5,1.5v1l2,1.5ZM428.5,430c-.65,0-.65,1,0,1s.65-1,0-1ZM382,432c-3.51-.65-3.63,5.21-3,7.5.19.71,2.88,2.52,3.5,3.5,1.7.09,1.85-6.2,1.5-7.5-.22-.82-2.69-1.57-2-3.5ZM432,433l-6,3c1.64-.26,2.76-.77,4.5-1,1.35-.18,3.08-.55,1.5-2ZM400,437h-3v.5l1.5,1.5h1.5v-2ZM432,437l-3,1.5.5.5,2.5-1v-1ZM452,443c.23-3.51.48-6.57-4-6l1.5,3,2.5,3ZM409.5,438c-.65,0-.65,1,0,1s.65-1,0-1ZM397,460l-2-5.5-8.5-15.5c-2.24,1.67-2.1,5.9-.5,7.5l11,13.5ZM403,442v-2l-2,1.5v.5h2ZM447.5,440c-.65,0-.65,1,0,1s.65-1,0-1ZM456.5,440l1.5,3.5,3.5,4.5-1.5-4.5-3.5-3.5ZM410.5,441c-.65,0-.65,1,0,1s.65-1,0-1ZM428,444l3-1.5-.5-.5-2.5,1v1ZM448.5,442c-.65,0-.65,1,0,1s.65-1,0-1ZM461,455c-.24-2.05-2.68-6.19-4-8.5-.74-1.29-1.5-3.12-3-3.5.23,1.7-.34,3.96,0,5.5.03.12.88,1.8,1,2,.91,1.53,3.55,2.29,3,4.5.99.03,2.01-.05,3,0,.46,3.87-.06,4.06,2,7.5,2.19,3.67,4.85,7.5,8,10.5l-8-18c-.66-.02-1.34.03-2,0ZM383,451c-.1-3.01,1.12-7.09-3-7,1.93,2.35-.33,5.94,3,7ZM402,452c3.9.84,3.59-2.59,6-4.5,1.36-4.56-7.28-4.45-8-2-.63,2.16,2.23,4.3,2,6.5ZM440,444h-2v2l2-2ZM400,469c-.51-2.07-5.63-5.2-6-6.5-.84-2.94-.96-4.82-4-7l-1-3-4-3.5c-.75,6.33,2.57,12.04,7.5,16,.2.16.78-.17,1,0,1.99,1.54,3.5,4.13,6.5,4ZM412,451v-2h-1v2h1ZM464.5,449c-.65,0-.65,1,0,1s.65-1,0-1ZM442,453c-.95-.95-4.56,2.58-5,4,2.14.08,3.73.41,5-1.5v-2.5ZM408.5,454c-.65,0-.65,1,0,1s.65-1,0-1ZM435.5,454c-.65,0-.65,1,0,1s.65-1,0-1ZM468,456l6,12.5c-.19,2.47,2.07,4.48,3.5,6.5,1.58-1.08,1.9-2.76,1.5-4.5-.26-1.13-2.9-3.65-3-4-.76-2.65-2.24-4.91-4-7-1.03-1.23-2.55-2.81-4-3.5ZM411,457h-3v1h3v-1ZM429,460v-2h-1v2h1ZM445,460l-1.5-2c-1.06.94-1.82,1.5-1.5,3,1.18-.31,1.49-1.42,3-1ZM448.5,458c-.65,0-.65,1,0,1s.65-1,0-1ZM436,462c1.9.29,3.29-1.1,3-3l-3,3ZM417,461c-1.15-1.37-1.92-.13-2,1.5-.11,2.16.07,4.35,0,6.5l2-3.5v-4.5ZM397.5,462l-.5.5,3.5,3.5.5-.5-3.5-3.5ZM413,468l-.5-6c-2.87,2.01-.77,3.5-.5,6h1ZM449,462h-2v1h2v-1ZM420,467v-2h-1v2h1ZM443,469c1.9.39,2.67-1.3,4-2.5l-1.5-1.5h-1.5l-1,4ZM410,472l-4.5-6c-.64,1.05,1.07,2.73,1.5,3.5.71,1.27.52,2.99,3,2.5ZM393,468c-.24.21,2.53,4.64,3,5.5,7.48,13.75,15.87,27.45,24,41l6,10,17.5,25.5-4.5-8.5-11-24c-4.77-12.34-11.27-23.55-17-35-1.66-3.32-4.55-6.7-7.5-9.5-1.97-.03-9.28-6.07-10.5-5ZM445,474c3.14.5,5.5-1.92,5-5-1.08.2-5.37,4.69-5,5ZM462,480c.3-3.54-2.26-6.05-4-8.5-.52-.73-.38-3.09-3-2.5v7.5l7,3.5ZM412,474h-2l1.5,2h.5v-2ZM481,475c-1.71.6-2.21,1.14-1.5,3,.46,1.2.31,1.86.5,2.5.21.73,2.81,2.3,3,3,.37,1.33-.37,3.66,0,5,.09.33,2.98,3.58,3.5,4.5l-2.5-10.5-3-7.5ZM420,479v-3h-1v3h1ZM451.5,478c-.65,0-.65,1,0,1s.65-1,0-1ZM416,479l-3,1.5,5,5.5-2-7ZM425,484l1-2.5-2-2.5v5h1ZM432,479h-2v4c2.01-.53,2.24-2.12,2-4ZM463,482h-4v.5l1.5,1.5h1l1.5-2ZM429,491l-1.5-8-1.5,4.5,3,3.5ZM446,483c-2.58-.08-4.51,2.39-4,5,1.56,0,4.25-4.79,4-5ZM459,484h-2v1h2v-1ZM465.26,486.98c0-.68-.55-1.24-1.24-1.24s-1.24.55-1.24,1.24.55,1.24,1.24,1.24,1.24-.55,1.24-1.24ZM438,490v-2h-1v2h1ZM436,495l1-3.5-4-2.5v6h3ZM457,491v-2h-1v2h1ZM475.5,489l-.5.5,2.5,2.5.5-.5-2.5-2.5ZM473,494c-.18-.18.23-.96,0-1.5l-2-2.5,2,4.5v1c-1.68,1.22-.84,3.49-1,5.5l4.5,1c3.18-1.84.19-6.78-2-8-.47-.26-1.31.19-1.5,0ZM451.5,491c-.65,0-.65,1,0,1s.65-1,0-1ZM441.5,493c-.65,0-.65,1,0,1s.65-1,0-1ZM453,502l2-6-4,4.5,2,1.5ZM446,503c-.07-1.99,1.08-1.75.5-4-.17-.65-.41-2.02-1-2-2.78,1.95-.81,2.34-.5,3.5.27,1.03-.81,2.77,1,2.5ZM460.5,497c-.65,0-.65,1,0,1s.65-1,0-1ZM435,503l1-3.5-3-1.5,1,5h1ZM456,501l-4,3.5-2,3.5,5-2c-2.06-2.66-.2-2.74,1-5ZM428,512l-1-5.5-4-4.5c-.05,2.49,2.44,4.09,2,6.5l3,3.5ZM441,510l-1-5.5-2-2.5c-.08,1.98-1.54,3.24-1,5.5.09.38.88.6,1,1,.18.63-.21,1.43,0,2s1.53.85,1,2.5l2.5,1c1.54-1.09,1.73-2.16,1.5-4h-2ZM442,508l2-1.5c-1.84-1.19.35-1.5,0-3.5h-1l-1,5ZM479,504c-1.9-.39-2.67,1.3-4,2.5l2.5,1.5,1.5-1.5v-2.5ZM469,505h-2v2l2-2ZM484,509c.2-.17-2.34-4.82-3-4,.42,1.51-.69,1.82-1,3l4,1ZM455,508c-1.25-.65-3.5,1.6-3,2,1.25.65,3.5-1.6,3-2ZM469.5,509c-.65,0-.65,1,0,1s.65-1,0-1ZM483,511l-3.5-2-1.5,3,4.5,1,.5-2ZM447,550c-.45-3.13.62-7.63,0-10.5-.29-1.31-3.99-7.24-5-9-2.77-4.8-6.71-11.54-10-16-.64-.87-1.94-2.17-3-2.5l1,7.5c5.03,8.54,8.5,17.39,13,26l4,4.5ZM452,512h-2v3l2-1.5v-1.5ZM484.87,515.77c0-1.16-.94-2.1-2.1-2.1s-2.1.94-2.1,2.1.94,2.1,2.1,2.1,2.1-.94,2.1-2.1ZM474,515h-3l1,6,2-6ZM443.5,516c-.65,0-.65,1,0,1s.65-1,0-1ZM491,522l-1-5-2,1.5,3,3.5ZM477.26,518.98c0-.68-.55-1.24-1.24-1.24s-1.24.55-1.24,1.24.55,1.24,1.24,1.24,1.24-.55,1.24-1.24ZM486,522v-3h-1c.42,1.51-.69,1.82-1,3h2ZM466.5,520c-.65,0-.65,1,0,1s.65-1,0-1ZM471,524v-4h-1v4h1ZM456,521l-3,1.5v2.5l3-1.5v-2.5ZM490,524l-3-3-1,4,4-1ZM449,525v-3h-.5l-1.5,1.5,2,1.5ZM464.5,523c-.65,0-.65,1,0,1s.65-1,0-1ZM483,523h-2v2l2-2ZM497,530c.69-2.44-.76-2.74-1.5-4-.67-1.14-.82-2.73-2.5-3l1,4.5,3,2.5ZM489,530c-1.03-.58-1.77-1.26-3-1-.94,3.5,1.78,4.29,2,7-.49-.23-1.16-.32-1.5-1h-1.5l-1,3h4c-.02-.66.05-1.34,0-2,.93.44,1.59,1.27,2.5,1l2.5-2.5c-.99-.62-1.42-1.73-2-2.5,2.09.37,2.7,1.47,4-.5-2.22-1.15-1.56-2.91-2-4-.26-.64-1.52-.85-1-2.5-1.96-.37-2.74,1.39-4,2.5,1.3.75.8,1.55,1,2.5ZM477,528l-3,1.5,1.5,2.5,1.5-1.5v-2.5ZM455,537l-1-5.5-3.5-2.5,1.5,5.5,3,2.5ZM472,530l-1.5,4-3,4c.97-1.66,5.06-2.92,5.5-4.5.19-.66.6-3.87-1-3.5ZM499,531h-2c-.29,1.9,1.1,3.29,3,3l-1-3ZM466,542c1.33,1.19,5.82-4.64,7-5.5l-3.5,1.5-3.5,4ZM500.5,538c-.65,0-.65,1,0,1s.65-1,0-1ZM457,541v-2h-1v2h1ZM488,539l-3,1.5.5.5,2.5-1v-1ZM496,542l-2-2v2h2ZM505,542v-2h-1v2h1ZM516,540l-2,.5,4,4.5c.4-2.43-2.53-2.74-2-5ZM450.6,541.7l-1.6.8,3,6,1.6-.8-3-6ZM497.5,542c-.65,0-.65,1,0,1s.65-1,0-1ZM487,547c2.61.51,5.08-1.42,5-4-.9.6-5.72,3.42-5,4ZM468,544c-1.25-.65-3.5,1.6-3,2,1.25.65,3.5-1.6,3-2ZM499.25,544.25l-3.75,3.75,1.5,1.5,3.75-3.75-1.5-1.5ZM450,549v-3h-1v3h1ZM470.25,546.25l-4.5,4.5,1,1,4.5-4.5-1-1ZM476,547h-2v3l2-1.5v-1.5ZM523,551l-3.5-4-.5.5c1.4,1.57,1.39,3.96,4,3.5ZM529,549c-2.31-.07-3.15-2.23-5,.5l3,5,3,2.5-1-8ZM470.77,549.79l-1.36,4.75,1.58.45,1.36-4.75-1.58-.45ZM457,564c-1.01-1.71-1.25-3.68-2-5.5-.29-.7-1.66-2.26-2-3-.31-.68.32-1.28-1-3-1.19-1.56-2.09-1.73-4-1.5l4,8.5,5,4.5ZM454.5,551c-.65,0-.65,1,0,1s.65-1,0-1ZM518,568c-.46-4.53-4.78-8.7-6-13.5l-3.5-3.5-2.5,3.5,5,5c1,2.9,1.5,6.06,4,8l-2,5.5c1.37-.21,3.33.32,4.5,0,1.44-.4,3.78-4.67,2-5h-1.5ZM532,551l-1,4.5.5,4.5,3.5-3.5c-.92-1.93-.62-4.86-3-5.5ZM529,563l-3-8.5-4-2.5c1.32,2.95,3.18,5.71,4,8.5l3,2.5ZM455.88,552.97l-2.06,1.24,2.07,3.46,2.06-1.24-2.07-3.46ZM468,558l1-3.5c-1.57-2.01-2.43-2.01-4,0l3,3.5ZM538,558c2.66-.59,1.37-3.22,3-4.5l-.5-.5c-1.71,1.57-3.01,2.5-2.5,5ZM489,556c-2.22-.32-3.07,1.87-4.5,3-.2.16-.78-.17-1,0-1.71,1.29-2.69,3.08-3.5,5,1.93.49,2.34-1.21,3.5-2,.24-.16.8.15,1,0,1.99-1.47,3.59-3.73,4.5-6ZM511,566c-.92-4.5-2.22-8.51-7-10-1.05,2.55,1.78,3.67,2,4.5.41,1.54-.44,7.01,0,7.5,1.33.27,2.33-.44,3-1.5.59-.93-1.11-2.46,2-.5ZM522,566c.66-.74-2.35-4.55-3-5.5-.16-.23.15-.78,0-1-.83-1.21-2.54-2.27-3.5-3.5l2.5,6.5,4,3.5ZM537,558c-.79-.92-4.81,2.86-5,3.5-.54,1.83,1.65,3.4,1,5.5,3.43-1.65,4.43-5.32,4-9ZM460,559c-4.44-.54.01,3.59,0,5.5l3,2.5c.72-3.36-2.73-5.03-3-8ZM502,565c-3.33-.64-4.04,4.25-1.5,5,1.41.42,2.57-1.84,3.5-2.5v-6.5l-1,6-1-2ZM564,563l-4.5,1c-1.28,2.16-2.51,1.57-4,2-1.01.29-5.74,9.91-7.5,11.5-.23,1.19-1.58,2.95.5,3.5,2.33.62,5.23-3.01,6.5-4.5,2.31-2.71,4.96-7.02,7-10,.79-1.16,2.49-1.57,2-3.5ZM531,564l-2,1.5,2.5,4.5c1.82-1.24,1.17-1.84.5-3.5-.26-.64-1.52-.85-1-2.5ZM540,567v-1.5l-1.5-1.5c-1.2,1.33-2.89,2.1-2.5,4l4-1ZM542,576l3.5,1c1-1.23,2.61-2.27,3.5-3.5.19-.26,1.95-2.82,2-3,.28-.94-.52-2.15,1-3l-1.5-2.5-7.5,2-1,9ZM467,574c-.26-2.2-1.35-5.35-4-5-.95.95,2.58,4.56,4,5ZM511,569c-1.25-.65-3.5,1.6-3,2,1.25.65,3.5-1.6,3-2ZM541,569l-5,1.5,2.5,4.5c3.36-.3,2.47-3.58,2.5-6ZM484,573l1-2.5-.5-.5-2.5,1v2h2ZM496.25,569.25l-3.75,3.75,1.5,1.5,3.75-3.75-1.5-1.5ZM525,570h-2v1h2v-1ZM537,577c.48-1.21-2.38-5.77-3-5-.47,2.37.82,4.03,3,5ZM522,575v-2h-1v2h1ZM465,576v-2h-1v2h1ZM534,579c-1.64-1.83-2.15-5.3-5-5,1.64,1.83,2.15,5.3,5,5ZM478,575c-.51,2.5.79,3.44,2.5,5l1.5-1.5-1.5-3.5h-2.5ZM483,585c1.79.28,2.2,0,3.5-1,2.29-1.78,1.05-2.67,1.5-4.5.14-.55,1.76-1.68,1-3.5-.28-.32-6.5,3.87-7,4.5l1,4.5ZM524,580l1-3c-3.04-.34-4.71,2.95-6.5,4-.2.12-.65-.12-1,0-.7.24-.77,2.09-1.5,3l8-4c.36.32-3.56,4.85-5,4v1c1.32.03,2.68-.05,4,0,0,1.56.2,1.98,1.5,3h1l1.5-3c-1.32-.03-2.68.05-4,0,0-.33,0-.67,0-1,1.9.39,2.67-1.3,4-2.5l-3-1.5ZM494.5,578c-.65,0-.65,1,0,1s.65-1,0-1ZM500.5,578c-.65,0-.65,1,0,1s.65-1,0-1ZM542.26,578.98c0-.68-.55-1.24-1.24-1.24s-1.24.55-1.24,1.24.55,1.24,1.24,1.24,1.24-.55,1.24-1.24ZM470,579l4.5,7-1.5-4.5-3-2.5ZM491,582l1.5,3c2.58-1.41,4.5-3.37,6.5-5.5l-8,2.5ZM491,596c4.98-2.49,8.25-7.25,12.5-11,.17-.15.78.18,1,0,.79-.64,2.53-2.26,3-3,1.76-2.79-4.3-5.03-3.5-1-1.73.22-4.13,1.97-5.5,3-2.08,1.56-4.41,3.82-6.5,5.5l3,2.5h-5l1,4ZM545,579h-2v1h2v-1ZM467.5,580c-.65,0-.65,1,0,1s.65-1,0-1ZM532,583c-.71-1.64-2.24-3.31-4-3,.71,1.64,2.24,3.31,4,3ZM549,582l-2.5-1-1.5,3,4-1v-1ZM536,582c-.51.64,1.78,5,2.5,5l.5-.5c-1.63-1.28-.34-3.91-3-4.5ZM544,582h-1.5l-1.5,1.5,1.5,1.5,1.5-1.5v-1.5ZM547,589l3,1.5-2,3c2.74,3.3,3.53.84,5.5-.5.24-.16.79.15,1,0,1.57-1.14,2.93-3.23,4.5-4.5-2.28-2.23-4.2-4.91-7.5-5.5l-4.5,3.5v2.5ZM469.5,584c-.65,0-.65,1,0,1s.65-1,0-1ZM527,595c.67.71,4.56-2.39,5.5-3,.23-.15.76.15,1,0,2.77-1.78,3.85-5.58,1-8-1.82,1.96-4.14,3.05-3.5,6-2.08-1.1-4.62,4.34-4,5ZM482,616l-9-17.5-5-10-3-3.5c.2,3.44-.28,7.08,0,10.5.03.36.96.64,1,1,.52,4.97.22,8.38,2,13,.5,1.29,2.42,2.83,2,4.5,1.65-.53,1.91.79,2.5,1,.55.2,1.34-.17,2,0,.4.1.63.93,1,1,1.92.34,4.46-.24,6.5,0ZM475,593l-4.5-7c-.61,1.05,1.01,2.71,1.5,3.5.82,1.33,1.43,3.1,3,3.5ZM545.5,586c-.65,0-.65,1,0,1s.65-1,0-1ZM514,594l4.5-1,4.5-4.5c-4.44-4.25-9.22.4-9,5.5ZM487,588c-2.44-.39-2.16.29-2,2.5l3,3.5-1-6ZM483,592v-2h-1v2h1ZM538,592v-2l-2,1.5v.5h2ZM512.5,591l-1.5,1.5.5.5,1.5-1.5-.5-.5ZM550,602l5.5,7,5.5-6.5c-.13-3.54,3.55-10.28-1.5-11.5-2.51,1.03-3.95,4-6.5,4l1,2.5c-.97,1.56-3.14,1.47-4,3-.26.47.19,1.31,0,1.5-.14.14-2.75.55-3.5,1-1.03.63-2.01,2.45-3,3-.47.26-1.31-.19-1.5,0-.11.11.28,1.99-1,2.5l2,3-5,5.5,3-6.5c.15-.75-1.07-.69-1.5-.5-1.31.58-2.92,4.84-3.5,6.5l-5,6.5c2.42.6,3.85-1.23,5.5-2,4.11-1.92,10.27-4.22,14-7,1.23-.92,2.27-2.49,3.5-3.5l-4-8.5ZM545,596l-1.5-1-1.5,1.5v2.5l3-1v-2h2l-1.5-3-.5,3ZM488,616c1.76-1.7-5.04-7.92-5-9.5l-10-12.5c.49,3.17,2.55,5.79,4,8.5,1.83,3.41,3.82,7.28,6,11,.47.81.42,2,2,3l3-.5ZM537,594l-3,1.5.5.5,2.5-1v-1ZM476,595l5.5,7-1.5-4.5-4-2.5ZM502,602l3-2.5,1-4.5-2.5,3-1.5,4ZM509,597v-2h-1v2h1ZM502,598c-1.52-.5-6.69,1.48-6,3.5,1.38,4.07,5.86-1.56,6-3.5ZM529,599c-.36-.41-2.92,2.39-3.5,3-.66.69-2.76,2-2,3,2.07-1.5,5.49-2.91,5.5-6ZM517,600c-1.9-.39-2.67,1.3-4,2.5l.5.5c1.01-1.27,3.13-.98,3.5-3ZM535.5,602c-.65,0-.65,1,0,1s.65-1,0-1ZM482.5,603l-.5.5,1.5,1.5.5-.5-1.5-1.5ZM491,607l-1-4h-1v4h2ZM501,606c-2.55.42-4.62-.44-7-1,.12,2.5,1.71,4.44,3.5,6l3.5-5ZM508,610l1-2.5c-1.27-1.91-2.86-1.58-5-1.5-.93.93,2.27,4.7,4,4ZM514,606c-1.88-.24-3.47,0-4,2,1.88.24,3.47,0,4-2ZM521.5,606c-.65,0-.65,1,0,1s.65-1,0-1ZM536.5,606l-2.5,2.5.5.5,2.5-2.5-.5-.5ZM494,609h-2v4h3l-1-4ZM501,610l-2,5.5,3.5,1.5,3.5-2.5c-2.19-1.37-1.88-4.84-5-4.5ZM511.5,611c-.65,0-.65,1,0,1s.65-1,0-1ZM529.5,611l-5.5,4.5,3.5-1.5,2-3ZM522,625c3.38.28,4.93.24,7-2.5,1.38-1.82,2.69-4.41,5-6l2-5.5-5,3.5c.95,5.14-3.47,4.56-6.5,6.5l-1-1-3,3c-1.03-2.15-5.75-.1-6.5,1.5-.93,1.99,2.2,1.34,2.5,2.5l5.5,1v-3ZM499,621l-1,3.5c1.49.83.72,2,1,3,.74,2.7,6.4,1.5,4.5-1.5-.34-.54-1.13-.95-1.5-1.5-1.52-2.24-2.24-3.37-3-6-.27-.95-2.43-2.34-3.5-2.5-3.76-.55,1.14,4.83,2,6l1.5-1ZM525,619c1.9.39,2.67-1.3,4-2.5l-.5-.5c-1.01,1.27-3.13.98-3.5,3ZM490,630c-1.54-2.28-5.05-11.6-6.5-12l-11.5-1,1,3.5c2.87,2.37,4.36,6.42,7.5,8.5.42.28,2.33.73,3,1,.42.17.62.88,1,1l5.5-1ZM486,618l2,5.5,4.5,4.5,2.5-3.5-4.5-7.5-4.5,1ZM522,617h-2v2l2-2ZM507,621l-4-1,2,6,4-2.5-3-.5,1-2ZM498,630l-1-4-4,3.5,5,.5ZM518,628l-7.5-2c-.51,1.28-2.39.89-2.5,1-.13.13.09,2.38-1.5,3h-2.5c.53,2.65-3.81,3.43-3,6.5.55,2.08,2.31.73,3.5.5l11-6,2.5-3ZM499,631l-6,1.5c2.5,3.71,5.27,2.77,6-1.5ZM497,636v2.5l1.5,1.5c1.91-1.27,1.58-2.86,1.5-5l-3,1ZM491,644l6-3.5c-1.92-4.04-6.95,2.51-6,3.5Z"/>
  <path d="M403,172c-.07-.07-.57.35-1-1,1.27,0,.91.9,1,1Z"/>
  <path d="M208,300c-3.19-.87-2.97-1.58-5-4,3.3,1,2.87,1.57,5,4Z"/>
  <path d="M140,300c-2.22-.97-1.49-3.92-2-5,2.82.77,1.69,2.96,2,5Z"/>
  <path d="M203,296c-1.34-.41-.86-.84-1-1,1.34.41.86.84,1,1Z"/>
  <path d="M214,305c-3.61-1.66-3.34-1.98-6-5,3.52.96,3.69,2.44,6,5Z"/>
  <path d="M330,102l-1-1c1.09-.15.82.58,1,1Z"/>
  <path d="M518,525l-2-1.5c-2.82-5.98-7.9-10.63-10-16.5l3,2.5c2.78,5.48,6.91,9.67,9,15.5Z"/>
  <path d="M387,283c.25-.8.02-.76,1-1l-1,1Z"/>
  <path d="M332,103c-.32-.15-.98.19-1.5,0-.68-.19-.38-.73-.5-1,2.07-.52,1.88.94,2,1Z"/>
  <path d="M218,339h-2c-.05-.32.07-.69,0-1l2,1Z"/>
  <path d="M334,104c-2.07.52-1.88-.95-2-1,.32.15.98-.2,1.5,0l.5,1Z"/>
  <path d="M324,101l1-1-1,1Z"/>
  <path d="M345,81c-2.47-.51-9.21-2.21-10-4,2.46.51,8.99,1.71,10,4Z"/>
  <path d="M532,548c-2.29-1.58-12.82-19.71-14-23,3.69,2.52,11.07,15.84,13,20.5.32.78.83.51,1,2.5Z"/>
  <path d="M491,532c-.6-.11-1.34.05-2,0-.06-.65.12-1.42,0-2,1.41.79,1.24.98,2,2Z"/>
  <path d="M247,79c-.25,2.14-2.27,1.66-3,2,.38-1.48,1.56-2.29,3-2Z"/>
  <path d="M179,171c.12-.43-.18-1.02,0-1.5.19-.68.73-.38,1-.5-.07.48.08,1,0,1.5-.25.68-.77.4-1,.5Z"/>
  <path d="M423,383c-.23-.1-.74.18-1-.5,0-.5,0-1.01,0-1.5.27.12.81-.18,1,.5.16.43-.07,1.01,0,1.5Z"/>
  <path d="M404,173c-1.34-.27-.93-.93-1-1,.09.1.36.07,1,1Z"/>
  <path d="M506,507c-2.95-2.33-4.89-5.58-6-9,3.6,2.81,4.6,5.09,6,9Z"/>
  <path d="M215,306c-1.32-.63-.94-.97-1-1,.16.18.54.48,1,1Z"/>
  <path d="M168,308c-.23-.1-.74.18-1-.5-.04-.5.04-1.01,0-1.5.23.1.74-.18,1,.5.08.5-.07,1.02,0,1.5Z"/>
  <path d="M223,312c-4.05-1.31-5.15-2.77-8-6,2.99,1.42,5.92,2.96,8,6Z"/>
  <path d="M218,131c-1.48,2.16-5.48,4.79-8,5,2.81-3.59,4.07-3.58,8-5Z"/>
  <path d="M513,647c.62-.42,3.61-3.77,5-5-.62,2.25-1.39,3.41-3.5,5-.38.29-1.23-.19-1.5,0Z"/>
  <path d="M380,290l1-1-1,1Z"/>
  <path d="M232,318c-2.74-.89-7.38-3.64-9-6,3.63,1.18,6.73,2.69,9,6Z"/>
  <polygon points="455 413 455 415 452 415 453.5 413 455 413"/>
</svg>