<?xml version="1.0" encoding="UTF-8"?>
<svg id="Capa_1" data-name="Capa 1" xmlns="http://www.w3.org/2000/svg" viewBox="0 0 694 694" fill="currentColor">
  <path d="M370,495.5l2-1.5c-.2,8.14.28,16.35,0,24.5-.22,6.41-1.05,15.61-2,22-.18,1.23-.18,3.77,0,5,2.87,19.33,5.62,39.23,10,58,.6,2.58-1.51,4.32-1,6,2.06,6.78,2.79,13.87,4,21,.32,1.89-.57,3.63,1,5.5l-4-3v3h-2v2h-1v-2c-1.82-.76-3.2.96-3.5,1-1.94.29-4.86.88-6,1-2.71.29-5.74-.2-8.5,0-1.37,1.15-.13,1.92,1.5,2,2.27.11,4.83-.27,7,0,.37.05.62.93,1,1,2,.37,4.64-1.01,5.5,2-1.96.54-2.92-.83-4.5-1-3.56-.38-7.58-.26-11-1-.34-.07-2.66-1.93-3-2-3.89-.84-10.22,2.22-15,1l-6.5,2,2-3-3.5,1-6.5-3,3-1,1-13-2,2.5-1,6.5c-2.02.59-2.68-.69-2-2.5.78-2.06,1.31-3.72,2-6,7.59-24.98,8.97-47.71,11-75,.03-.36.98-.65,1-1,.28-4.47-.2-9.03,0-13.5-1.89-.2-.76,2.23-1,3.5-.07.39-.95.63-1,1-.34,2.75-.71,5.71-1,8-1.52,11.98-2.67,23.6-3,36l-2,3.5c.16-2.79-.22-5.71,0-8.5,1.25-15.52,4.38-31.59,6-47,1.04-9.89,3.26-19.9,4-29,.6-7.33,1.3-34.99,0-41-.08-.38-1.88-2.56-2-3-.23-.85.24-2.17,0-3-.65-2.22-7.45-12.36-9.5-13.5-1.57-.87-.8.5-2.5-2.5-3.06-5.41-8.45-10.69-12-16-.69-1.03-1.32-3.83-2-5s-2.63-3.12-3.5-4.5c-.57,0-6.48,6.89-8,8-3.75,2.73-7.85,2.86-12,4-.6.16-2.09,2.39-3,3-.46.31-7.56,3.88-8,4-5.84,1.59-15.84,1.97-21-1-7.63,3.8-19.71,6.65-29,5-.38-.07-.6-.9-1-1-2.74-.68-6.75-1.5-9-3-.84-.56-5.3-4.19-5.5-4.5-1.52-2.37-3.86-5.22-5-8-.23-.56.22-1.4,0-2s-1.53-.85-1-2.5h-11.5c-.38-.07-.6-.9-1-1-3.22-.8-9.19-2.14-12-4-1.35-.9-2.73-3.29-4-4-.47-.26-1.31.19-1.5,0s.26-1.03,0-1.5c-.66-1.19-4.66-4.83-5-6-.18-.63.2-1.42,0-2-.24-.71-1.69-1.56-1-3.5h-13.5c-.37-.07-.59-.88-1-1-2.42-.69-5.6-1.57-8-3-5.8-3.46-9.06-9.21-12.5-14.5-1.15-4.3-2.18-9.01-4-13-1.37-3.01-4.39-5.18-6-8-2.19-3.84-2.88-8.47-4-12.5-1.65.5-1.81-.68-2.5-1-7.26-3.38-11.29-5.66-15.5-12.5-.62-1-2.86-4.34-3-5-.31-1.42.23-3.45,0-5-.05-.37-.91-.6-1-1-.58-2.48.94-3.6,1-4,.23-1.56-.27-3.5,0-5,.03-.17.82-2.51,1-3,.87-2.35,2.83-5.93,4-8,2.57-4.55,6.26-9.12,10-13-1.41-2.2-1.43-8.06-1-11,.27-1.81,2.74-5.79,3-7,.37-1.71-.32-4.2,0-6,.03-.17.71-1.98,1-3,.13-.47,1.54-1.32,2-2,.16-.24-.15-.79,0-1,2.46-3.38,7.45-5.37,10.5-8.5l16.5-7.5-1-3.5c-1.65.5-1.81-.68-2.5-1-.63-.29-2.55-.71-3-1-3.71-2.37-6.41-10.08-7.5-14.5-.1-.4-.93-.62-1-1-.53-3.01-.31-11.68,0-15,.86-9.23-1.25-11.8-2-20-.9-9.83,1.8-19.28,6-28,.95-1.34,3.3-2.74,4-4,.26-.47-.19-1.31,0-1.5s1.03.26,1.5,0c1.27-.71,2.65-3.1,4-4,4.52-3,11.9-4.98,17-6,.39-.08.63-.95,1-1,3.48-.51,6.07,1.3,8.5-2.5.15-.23-.15-.75,0-1,3.44-5.7,5.97-12.07,10-17,1.53-1.88,7.63-6.76,9.5-7.5.54-.22,1.35.18,2,0,.41-.12.63-.93,1-1,1.61-.29,6.32-.25,8,0,.37.05.61.91,1,1,.91.2,2.17-.23,3,0,.22.06,3.65,1.77,4,2,1.05.7,1.98,2.38,3,3,.29.18,1.5-.13,2,1,1.56.45,3.95-2.4,5-3,.24-.14.73.14,1,0,2.82-1.47,5.3-3.14,8.5-3-.53-1.65.79-1.91,1-2.5,3.68-10.14,6.93-17.68,15-25,.24-1.3.59-3.98,1-5,3.39-8.4,13.55-20.81,21.5-24.5,1.06-.49,5.3-2.85,6-3,1.16-.25,2.77.21,4,0,.38-.07.63-.95,1-1,2.42-.3,7.58-.3,10,0,.37.05.62.93,1,1,1.23.21,2.84-.25,4,0,.36.08,2.42,1.77,3,2,2.2.88,5.53,1.53,8,3,4.54,2.7,8.07,7.76,13,10,4.51,2.05,11.67.7,16,4l8.5,4c.18-.22-.26-1.03,0-1.5,1.59-2.84,11.73-11.56,14.5-13.5,2.54-1.78,6.49-4.91,9-6,2.3-1,9.89-3.69,12-4,1.86-.27,4.11.24,6,0,.37-.05.64-.97,1-1,2.22-.21,5.79-.23,8,0,.36.04.62.94,1,1,1.55.23,3.49-.27,5,0,1.28.23,5.47,2.31,7,3,4.65,2.1,8.83,4.72,11.5,8.5,5.7,8.07,15.55,13.81,18,23.5l9.5,4,9-9c3.7-1.85,5.85-2.97,10-4,.4-.1.62-.93,1-1,1.8-.32,4.31.38,6,0,.4-.09.68-1.36,2-1,.4.11.62.91,1,1,1.42.32,3.49-.27,5,0,.38.07.6.9,1,1,4.05,1,7.84,2.54,11,5,7.04,5.48,10.07,12.23,12.5,20.5,1.84,6.27,3.13,12.87,3,20,10.3,6.75,11.9,19.18,11,31,2.37,1.82,4.95,3.43,7,6,.16.2-.17.79,0,1,1.19,1.54,3.41,2.37,3,4.5.44.44,10.33-.32,12.5,0,.37.05.61.91,1,1,.91.2,2.17-.23,3,0,1.73.47,4.46,2.92,6,4,.23.16.8-.15,1,0,1.16.88,4.76,4.39,5.5,5.5.23.35,1.74,3.35,2,4,1.7,4.21,1.12,8.81,2,12,.18.66,7.45,7.47,9,10,.62,1,2.86,4.34,3,5,.71,3.26-.51,8.44,0,12l-8,16c.55.41.97,1.17,1.5,1.5,3.29,2.07,6.87,4.64,10,7,1.36,1.03,6,7.26,6.5,8.5.22.54-.18,1.35,0,2,.12.41.93.63,1,1,.26,1.47.3,7.64,0,9-.08.36-.83.57-1,1-3.18,7.98-7.69,13.22-14,19-.35,6.9-3.9,13.06-7,19-2.01,3.84-3.74,9.6-6,13s-6.02,3.42-5,9c.05.29,1.59,1.05,1,3-.52,1.72-2.88,5.57-3,6-1.36,4.94.14,18.12-1,25-.51,3.1-2.93,7.41-3,11l-5,9c-2.37,5.02-7.61,10.49-12.5,13.5-1.85,1.14-7.39,4.56-9,5-.83.23-2.09-.2-3,0-.39.09-.63.94-1,1-1.53.25-3.45-.24-5,0-.38.06-.63.94-1,1-5.58.83-9.1-2.71-15-1s-12.45,2.44-19.5,2c-.19.19.26,1.03,0,1.5-.56,1.01-7.25,7.56-8.5,8.5-.92.69-7.85,4.69-9,5-1.27.35-2.94.76-4,1-4.03.92-10.97.17-14,1-.39.11-4.2,3.94-6,5-.64.38-2.67,1.93-3,2-1.01.22-4.99.22-6,0-.36-.08-2.41-1.75-3-2-.54-.23-1.33.17-1.5,0-.19-.19.26-1.03,0-1.5-.81-1.45-3.65-3.61-4.5-5.5-1.61-.16-3.46.23-5,0-.38-.06-.63-.96-1-1-2.06-.24-4.39.16-6.5,0,.34,1.69-1.35,3.12-2,4.5-1.77,3.76-3.68,9.16-5,12-2.16,4.64-4.62,8.73-7,13-6.21,11.17-12.59,22.15-19,33v16.5l-2-3c.17,3.8-.23,7.69,0,11.5.02.35.98.65,1,1,.35,6.9-.14,14.05,0,21,.02,1.22-.75,3.73,1,3.5v-27.5ZM346,74l3.5,1c4.43-4.45,8.77-11.07,14-15,3.79-2.85,9.19-4.81,14-6,.4-.1.62-.93,1-1,2.57-.46,12.31-.39,15,0,.37.05.61.91,1,1,5.18,1.13,8.66,2.56,13,6l12.5,2.5-5.5-6.5c-8.19-5.64-18.47-9.09-29-8-.36.04-.62.94-1,1-2.79.42-6.29.23-9,1-7.62,2.17-22.62,11.81-27.5,18.5l-2,5.5ZM314,65c.39-1.84-1.01-2.37-2-3.5-2.48-2.83-8.27-7.09-11.5-8.5-.55-.24-1.42.23-2,0s-2.64-1.92-3-2c-1.16-.25-2.77.21-4,0-.38-.07-.63-.95-1-1-2.33-.29-8.83-.38-11,0-.38.07-.6.9-1,1-3.09.77-6.36,1.5-9,3-1.17.67-3.13,2.65-4.5,3.5l4.5-.5c3.94-2.12,9.99-1,14,0,8.67,2.16,18.06,1.07,26,7l4.5,1ZM404,59l-8.5-4c-4.33-.51-9.24-1.7-14-1-.37.05-.61.92-1,1-12.76,2.55-19.6,8.28-27.5,18.5-.89,1.16-2.44,1.59-2,3.5l3-3c6.36.28,11.65-4.39,17.5-7,3-1.34,15.98-4.68,19-4,4.64,1.04,5.01-1.06,9-2,1.97-.46,5.24,1.43,4.5-2ZM263,70c4.66-5.27,9.23-8.95,16.5-10l2.5-2h-12.5c-.79,1.53-2.21.68-3,1-2.73,1.09-8.63,6-10.5,8.5-1.43,1.9-3.01,5.42-4,8l-2,6.5c1.38.03,2.63.37,3.5-1,1.99-3.15,2.55-4.45,5.5-7-.12.43.19,1.03,0,1.5s-3.6,4-3,4.5c1.12-.13,2.48.21,3.5,0,3.22-.67,8.99-5.41,13-7,6.21-2.46,15.64-4,22-5,1.38-.22,3.05.14,4.5,0-.34-1.1-1.61-2.29-2.5-3-1.06-.84-3.71-2.24-5-3-.64-.38-2.67-1.93-3-2-1.08-.23-4.84-.21-6,0-.38.07-.6.9-1,1-3.63.9-7.76,2.07-11,4-2.8,1.67-4.25,4.11-7.5,5ZM307,64l-4.5-2-9.5-2c.69,1.41,2.28,3.03,3.5,4,.2.16.78-.17,1,0,2.13,1.64,2.47,3.81,6,3,.37-.08.58-.84,1-1,1.38-.52,3.08,1.19,2.5-2ZM414,70c-2.18-3.3-4.22-5.7-7.5-8l-10.5,2c-.08,1.96,3.15.75,4.5,1,1.27.24,4.07,2.47,6,2l7.5,3ZM426,74c.5-.5-3.52-8.72-4.5-9-1.49-.43-3.7-.32-5-2l-6.5-1,7.5,9,8.5,3ZM390,65c-2.09.18-4.47-.26-6.5,0-.37.05-.62.93-1,1-4.06.72-7.18.77-11,3l-2.5,3c2.41-1.97,3.82.64,6.5,0,3.57-.85,7.4-3.13,11-4l3.5-3ZM319,70c-.09-3.35-3.1-4.53-6-4-.89,2.64,5.12,4.81,6,4ZM320,66c.8,1.71,1.83,4.01,3.5,5s4.96,1.65,7,2l7,4h2l2.5-3.5c-.88-.65-1.66-2-2.5-2.5-.22-.13-.69.14-1,0-3.48-1.61-9.55-4.46-13-5-1.68-.26-3.74.18-5.5,0ZM404,70l-4.5-3c-2.73-.09-5.94-2.73-8.5.5l5.5.5,7.5,2ZM313,70c-.14-.8-2.09-2.89-2.5-3-2.4-.66-4.86,1.72-7.5,1,1.19,2.87,3.57,3.52,6.5,3,.39-.07,1.73-1.78,3.5-1ZM392,70h-4.5l-1.5,2c2.37.46,3.63-1.46,6-1v-1ZM434,80l-2-5.5-5-4.5,2,6.5,5,3.5ZM302,71h-2l1.5,2h.5v-2ZM315,71h-2.5l-4.5,2.5,11,5.5c.27-.24-1.63-2.82-2-3.5-.14-.27.14-.76,0-1-.67-1.18-2.58-1.55-2-3.5ZM324,81c-.48-4.03-1.77-10.47-7-10-.55.48,2.61,3.87,3,4.5.29.47.71,2.54,1,3,.5.8,2.02,2.19,3,2.5ZM284,75c.52-1,1.27-1.73,1-3-4.37-.55-7.55,2.63-11.5,3l-5.5,3.5,6.5.5c1.11-1.8,3.3-.62,5-1,.38-.09.6-.89,1-1,.55-.15,1.17.14,1.5,0-.26.43-1.17,1.86-1,2,1.65.51,1.83-.7,2.5-1,1.51-.67,3.59-1.26,5-2,1.83-.96,3.39-3.01,5.5-3l-5.5-1c-.96.63-2.19,2.67-3,3-.51.21-1.19-.15-1.5,0ZM421,85c.12-3.84-3.04-7.27-5.5-10l-3-1-9.5-2,3.5,4,6,2,8.5,7ZM299,75v-2c-3.14-.42-5.61,2.41-8.5,3l-3.5,3,4.5-1c2.18-1.45,4.76-3.22,7.5-3l-3,3h10c-1.36-3.26-3.8-3.27-7-3ZM338,79c-3.01.02-5.01-2.91-7.5-4-.56-.24-1.43.24-2,0-.68-.28-3.71-2.79-4.5-2l3,9h6.5l4.5-3ZM404,77l-5.5-4-6.5,1c2.39,4.31,7.82,2.76,12,3ZM449,87c1.83-.75,2.91.84,3.5,1,1.82.48,8.93,2.25,10,2,.4-.09.63-.95,1-1,2.63-.38,10.37-.38,13,0,.37.05.61.91,1,1,.91.2,2.17-.23,3,0,1.26.34,5.5,3.08,7,4,4.93,3.03,9.24,7.91,11.5,13.5.41,1.02.59,3.97,1,5,.16.39.81.59,1,1,.78,1.67.52,2.25,3,3,.5.99,1.93-.74,2-1,.19-.7.15-3.18,0-4-.81-4.4-1.77-8.8-3-13-1.59-5.42-1.8-6.45-5-11-4.79-6.82-8.32-10.17-16.5-12.5-.4-.12-.62-.92-1-1-1.18-.24-2.79.23-4,0-.38-.07-.62-.93-1-1-.91-.17-3.09-.17-4,0-.38.07-.62.93-1,1-1.21.23-2.82-.24-4,0-.38.08-.6.89-1,1-3.65,1.03-5.89,2.1-9,4l-7.5,8ZM366.5,74c-.38.07-.61.91-1,1-2.39.53-4.68.52-7,2-.81.51-2.82,2.48-2.5,3.5,2.09,2.08,3.23,4.2,6.5,3.5l9.5-8.5c-1.19-1.82-3.66-1.84-5.5-1.5ZM430,95c-.26-3.05.37-6.53,0-9.5-.05-.37-.93-.62-1-1-.22-1.2.15-2.72,0-4-2.74-3.04-5.78-5.82-10-6.5-.2.18,2.55,3.67,3,4.5,1.89,3.53,4.13,8.37,5,12l3,4.5ZM346,76h-3v2h3v-2ZM379,76c-2.85.54-6.28,2.23-8,4.5-.15.2.17.76,0,1-.8,1.16-2.49,1.57-2,3.5l4.5-1c1.01-1.23,2.59-2.27,3.5-3.5.15-.2-.16-.76,0-1,.79-1.16,2.49-1.57,2-3.5ZM386,79l-3.5-3-3.5,4,7-1ZM392,77l-6-1,4.5,3,1.5-2ZM305,80c-1.72-.19-2.57-.83-4.5-1-2.31-.2-6.67-.82-7.5,2l7.5,2,4.5-3ZM345,82v-3c-1.38.79-2.29,1.31-4,1v1l4,1ZM350.26,79.98c0-.68-.55-1.24-1.24-1.24s-1.24.55-1.24,1.24.55,1.24,1.24,1.24,1.24-.55,1.24-1.24ZM409,85c-.12-2.5-1.71-4.44-3.5-6h-6.5l3.5,4,6.5,2ZM385,80v2h4v-2h-4ZM417,83l-7-3,1,4.5,8,3.5-2-5ZM254,85l6-3.5-4,1-2,2.5ZM260,87c-.09-.89.35-2.91-1.5-2-.77.38-1.65,1.91-2.5,2.5l1,2.5c-1.9-.39-2.67,1.3-4,2.5l-3,7.5c.59.59,4.37-1.52,5-2.5.26-.41,2.91-5.67,3-6,.68-2.48-1.05-2.41,2-4.5.1.94-.4,2.86,1.5,2,2.51-1.13.23-2.79.5-3,2.92.68,5-1.32,7.5-2l3.5-3c-2.43.41-6.39-.58-8.5,0-.71.19-2.52,2.88-3.5,3.5l1,1c-.46.84-1.42,1.1-2,1.5ZM288,82c-2.17.54-3.14-1.11-5-1v2h5v-1ZM308,81c-.49-.51-5.01,1.47-5,3l6,1-1-4ZM318,82l-6-1,1.5,3h1l3.5-2ZM384,81h-4.5l-2.5,2c1.82-.06,3.67.09,5.5,0,1.63-.08,2.87-.85,1.5-2ZM397,81h-3v1c1.51-.42,1.82.69,3,1v-2ZM437,92c.6-5.26-.78-9.18-6-11l1,13,5-2ZM347.5,82c-.65,0-.65,1,0,1s.65-1,0-1ZM290.5,83c-.65,0-.65,1,0,1s.65-1,0-1ZM335,83h-4v2l3,1,1-3ZM342,84c-.13-.13-2.76-.58-3.5-1l-2.5,4.5c1.6,2.77,7.77,1.7,7-1-1.28-.52-.9-2.4-1-2.5ZM356,84l-3-.5-3,3.5c1.64-.26,2.76-.77,4.5-1,1.34-.18,3.15-.6,1.5-2ZM252,84h-2.5l-1.5,1.5v2.5c.93.93,4.7-2.27,4-4ZM295,84h-2v1h2v-1ZM389,84l6,6.5,3,2c-2.77-3.62-2.94-9.6-9-8.5ZM408,96l-3-6.5c-2.58-2.54-4.92-5.86-9-5.5-.69.68,3.22,7.22,4,8.5.16.25-.15.78,0,1,.8,1.2,2.56,2.28,3.5,3.5l4.5-1ZM270.5,85c-.65,0-.65,1,0,1s.65-1,0-1ZM319.5,85c-.65,0-.65,1,0,1s.65-1,0-1ZM385,85h-9.5c-1.13.31-4.34,7.18-3.5,8,4.56.28,8.15.25,11-3.5.15-.2-.17-.76,0-1,.8-1.16,2.49-1.57,2-3.5ZM411,91l-2-4.5-4-1,6,5.5ZM444,87l-6-2,1,6,2.5-1,2.5-3ZM268.5,86c-.65,0-.65,1,0,1s.65-1,0-1ZM315.5,86c-.65,0-.65,1,0,1s.65-1,0-1ZM363.5,86c-.65,0-.65,1,0,1s.65-1,0-1ZM372,86c-2.48.11-4.46,1.73-6,3.5l2.5,2.5,3.5-6ZM245,87l-4,3.5-1.5,4.5c1.94-2.51,6.07-4.25,5.5-8ZM287,88l-5.5-1c-1.58,1.46-2.76,3.67-2.5,6l5.5-2,2.5-3ZM313.5,87c-.65,0-.65,1,0,1s.65-1,0-1ZM349,89c-.24,2.89,2.79,3.63,4.5,5,3.38-.79,7.87-3.8,4-7l-8.5,2ZM395,94c-.93-1.34-5.6-6.73-6.5-7-3.16-.95-2.12.87-2.5,1.5-.42.71-1.68,1.35-2,2-1.13,2.28,3.04.98,3.5,2.5l7.5,1ZM421,96c1.24-6.42-3.66-7.81-9-9l2,7,7,2ZM255,88h-2c.2,1.21-.02,1.79-1,2.5l.5.5,2.5-3ZM274,88c-.74-.79-3.79,1.79-4,2.5-.55,1.89,1.28,2.75,1,4.5l3-7ZM320,92c-1.18-2.74-3.16-3.42-6-3,.44,2.41,2.4,1.62,3.5,2,.57.2.85,1.53,2.5,1ZM326,89h-2c-.29,1.9,1.1,3.29,3,3l-1-3ZM448.5,89c-.65,0-.65,1,0,1s.65-1,0-1ZM248,95c-.47-2.33,2.47-2.67,2-5l-3,1v4h1ZM260.5,90l-1.5,1.5.5.5,1.5-1.5-.5-.5ZM269,90c-2.25,1.61-4.54,2.25-5.5,5-.53,1.53-.8,3.46,1,4,1.97.59,2.42-2.64,3.5-3.5l1-5.5ZM276,92v-2h-1v2h1ZM306,94c1-2.25-4.42-4.58-5-4-.08,2.58,2.39,4.51,5,4ZM331.5,90c-.65,0-.65,1,0,1s.65-1,0-1ZM343,90h-2v1h2v-1ZM455,90h-4v1h4v-1ZM498,114l-2-9.5c-3.74-5.53-7.38-8.75-13.5-11.5-5.21-2.34-6.28-1.6-12-2-1.97-.14-2.76-.84-4.5-1-.4,2.8.48,1.87,2.5,2,2.55.16,8.39,1.29,11,2,2.18.59,6.15,3.7,8,5,.23.16.79-.15,1,0,2.88,2.13,4.31,5.21,5.5,8.5.33.92,1.69,1.9,1,4l3,2.5ZM300,92l-2.5-1-1.5,1.5c.52,3.64,4.05,3.1,4-.5ZM309,93v-2l-2,1.5v.5h2ZM294.5,92c-.65,0-.65,1,0,1s.65-1,0-1ZM341,92h-2v1h2v-1ZM348,92c-1.9-.29-3.29,1.1-3,3h3v-3ZM365,92v1.5l1.5,1.5,1.5-1.5-1.5-1.5h-1.5ZM454,93l-8.5-1-5.5,2-2,5,9.5-1,6.5-5ZM236,108c5.39,1.12,6.43-4.4,9-7.5v-7.5c-4.04.98-5.09,5.05-8,7.5l-1,7.5ZM286,93c-3.87.34-6.18,3.38-8,6.5l4.5-1.5,3.5-5ZM465,94l-6-1v1l6,1v-1ZM260,94h-2l-1,4c.62.75,2.79-3.08,3-4ZM294,97l-2.5-3-2.5,1.5-2,3.5,7-2ZM326.5,94c-.65,0-.65,1,0,1s.65-1,0-1ZM361.6,93.34l-4.26,2.56,1.06,1.76,4.26-2.56-1.06-1.76ZM426,97l-3-3c-.29,1.9,1.1,3.29,3,3ZM494,114l-3-9.5-4.5-4.5-5-2-12.5-4c.42,2.21,3.36,2.28,4.5,3,5.27,3.33,7.15,6.88,10.5,11.5,1.13,1.55,3.44,2.34,3,4.5l7,1ZM437,95c-.51-.51-4.73,1.56-5,2.5l1,3.5c.59.72,4.62-4.39,4-6ZM460,95h-5.5l-2.5,3,4.5-1,3.5-2ZM269.5,96c-.65,0-.65,1,0,1s.65-1,0-1ZM249,97h-2v5h1c-.15-2.02-.14-3.35,1-5ZM262,100v-3h-.5l-1.5,1.5v1.5h2ZM311,97h-3v1h3v-1ZM420,98l-5-1v2l5,1v-2ZM473,104c-.74-5.18-4.57-7.42-9.5-7-1.93.17-2.78.82-4.5,1-.2,1.92,2.25.71,3.5,1,.39.09,2.42,1.77,3,2l7.5,3ZM279,102c1.9.39,2.67-1.3,4-2.5l-.5-.5c-1.01,1.27-3.13.98-3.5,3ZM425.26,99.98c0-.68-.55-1.24-1.24-1.24s-1.24.55-1.24,1.24.55,1.24,1.24,1.24,1.24-.55,1.24-1.24ZM449,102c1.79-.23,3.26.09,5,.5,3.89.92,8.07,2.86,11.5,4.5,1.42.68,2.86,1.85,4.5,2.5,3.14,1.25,4.26-2.75,1.5-4.5-1.32-.84-3.59-1.71-5-3l-12-3-5.5,3ZM397,100c-3.49.05-7-.07-10.5,0-.84.02-3.5-.45-2.5,1.5.19.38,2.07,2.24,2.5,2.5.22.13.69-.14,1,0,.43.2.64.92,1,1,1.67.37,4.16-.26,6,0l2.5-5ZM404,105c-.28-1.24-4.06-4.98-5-4l-1,4h6ZM442,101h-3.5l-1.5,2c1.86.11,2.83-1.54,5-1v-1ZM483,114l1.5-2c-.99-1.23-2.61-2.27-3.5-3.5-.45-.62-1.55-3.39-2-4-.62-.83-4.05-4.46-5-3.5,1.07,1.35.75,2.8,1.5,4,1.07,1.72,3.98,2.64,3.5,5h3l1,4ZM265,102h-6.5c-1.95,1.76-2.85,4.26-2.5,7,3.15.29,5.64-1.77,7.5-4,.84-1.02,1.91-1.29,1.5-3ZM271.5,102c-.65,0-.65,1,0,1s.65-1,0-1ZM307.5,102c-.65,0-.65,1,0,1s.65-1,0-1ZM317,102h-2v1h2v-1ZM338,102h-2l1.5,2h.5v-2ZM350,104v-2l-2,1.5v.5h2ZM252,103h-3v6l3-2.5v-3.5ZM313,103h-3v.5l1.5,1.5h1.5v-2ZM467,115l2-3.5c-.65-1.35-1.99-1.22-2.5-1.5-6.25-3.45-8.46-4.44-15-6-.39-.09-.61-.91-1-1-2.79-.65-4.88,1.35-6.5,3.5-.15.2.17.76,0,1-.5.71-1.69,1.37-2,2-1.13,2.28,3.04.98,3.5,2.5,6.12.5,12.23,1.82,18,3,1.02.21,2.38-.13,3.5,0ZM246,104h-2c.11,1.86-1.54,2.83-1,5,3.1.21,3.27-2.25,3-5ZM380.5,104c-.65,0-.65,1,0,1s.65-1,0-1ZM442,104c-1.94-.69-7.6,2.39-7,4.5,2.1,2.86,3.3.87,5-1,1.01-1.11,2.38-1.68,2-3.5ZM301,105l-2,2c-1.37-.8-2.83-1.46-4.5-1-2.11.58-1.25,3.87-1.5,5.5-.23,1.54-1.25,1.95-1,3.5,2.04-1.4,4.47-3.59,6-5.5.13-.16-.18-.72,0-1,1.27-2.01,3.68-.61,3-3.5ZM321,107v-2h-1v2h1ZM369,108c1.72-.37,2.36.87,3.5,2l2.5-3.5-6-1.5v3ZM423,105h-2v1h2v-1ZM266.5,106c-.65,0-.65,1,0,1s.65-1,0-1ZM319,108v-2h-1v2h1ZM405,107l-5,.5-4,2c2.71,3.37,7.51.54,9-2.5ZM415.5,107c-.65,0-.65,1,0,1s.65-1,0-1ZM336,108c-1.61-.83-6.83,2.25-6,3,1.94.68,2.64-1.74,3.5-2,.99-.3,2.78.82,2.5-1ZM358,108l-2,1.5-3,1,4.5.5.5-3ZM380,111l-2.5-3-2.5,2.5v.5h5ZM392.5,108c-.65,0-.65,1,0,1s.65-1,0-1ZM239,112l-.5-3-2,2-1.5-1c-.4,3.95,1.62,6.94,1,11,2.79.96,2.35-2.78,2-4.5-.08-.39-.93-.62-1-1-.21-1.2.14-2.72,0-4l2,.5ZM285.5,109c-.65,0-.65,1,0,1s.65-1,0-1ZM290,116l-.5-7-3.5,3.5,4,3.5ZM320,109h-2v1h2v-1ZM362,112v-3h-1c.42,1.51-.69,1.82-1,3h2ZM365,113c2.14.08,3.73.41,5-1.5-1.28-1.93-3.17-1.22-5-2.5v4ZM419.5,109c-.65,0-.65,1,0,1s.65-1,0-1ZM476,109h-2l1.5,2h.5v-2ZM174,136c1.41-.04,2.67.32,4-.5,3.34-2.04,6.97-7.77,11.5-8.5,5.47-3.04,10.89-3.05,17-2,.38.07.67,1,1,1l7.5-9.5c-1.37-.85-3.33-2.84-4.5-3.5-1.96-1.11-4.08-1.45-6-2-.41-.12-.63-.93-1-1-1.38-.25-6.71-.28-8,0-.35.08-2.36,1.67-3,2-8.4,4.36-11.31,10.56-15.5,18.5-.45.85-3.24,5.29-3,5.5ZM230,127c1.28,1.4,7.84-5.37,4-7.5l-1-9.5-2,2.5c.93,2.22-.92,5.28-1,6-.29,2.71.2,5.74,0,8.5ZM243,110l-3,1.5v4.5c2.02-.37,1.73-2.49,3-3.5v-2.5ZM326,112v-2h-1v2h1ZM407,110l-4,1,.47,1.88,4-1-.47-1.88ZM229,129v-14.5c0-.18,1.78-1.78,1-3.5-.81.11-1.83-.19-2.5,0-1.51.42-4.49,2.1-6,3-1.21.72-2.55,1.41-3.5,2.5l11,12.5ZM271.5,111c-.65,0-.65,1,0,1s.65-1,0-1ZM305.5,111l-3.25,3.25,1.5,1.5,3.25-3.25-1.5-1.5ZM388,111h-3c1.13,2.69,3.18,3.44,6,3l-3-1v-2ZM245.5,112c-.65,0-.65,1,0,1s.65-1,0-1ZM254,112h-2v3l2-1.5v-1.5ZM311,112h-2v1h2v-1ZM339,114l-1.5-2c-1.01,1.27-3.13.98-3.5,3,2.17.54,3.14-1.11,5-1ZM434,114v-2h-1v2h1ZM268,113l-3.5,2-2.5,3c.85-.41,6.78-4.31,6-5ZM283,113h-2.5c-1.9.24.74,5.5,3,5l-.5-5ZM421,115v-2l-2,1.5v.5h2ZM479,116l-5-3,1,4,4-1ZM482,113h-2l1.5,2h.5v-2ZM299.5,114l-5.75,5.75,1,1,5.75-5.75-1-1ZM314.5,114l-1.5,1.5v3l1.5,1.5,2.5-3.5-2.5-2.5ZM321,116l-2-2v2h2ZM332.5,114c-.65,0-.65,1,0,1s.65-1,0-1ZM440,114c-1.5-.32-2.06.44-3,1.5v2.5h3v-4ZM451,117c-3.26-.23-5.62-3.45-9-3v4c1.82-.03,3.67.04,5.5,0,1.22-.03,3.73.75,3.5-1ZM473,117c.32-1.5-.44-2.06-1.5-3h-2.5v2l4,1ZM247,121l2-1.5v-4.5l-2,1.5v4.5ZM309,115c-.78-.78-5.69,1.37-6,2.5-.61,2.18.96,3.57,1,5.5,3,.64,4.13-1.79,6-3.5l-1-4.5ZM310.5,115c-.65,0-.65,1,0,1s.65-1,0-1ZM435,116h-2v1h2v-1ZM462,118l-1.5-2h-3.5v1c1.86-.11,2.83,1.54,5,1ZM499,116h-3l2.5,3h.5v-3ZM269,117c-.38-.38-7.91,2.27-7,5,3.35.27,7.72-.83,7-5ZM322.5,117c-.65,0-.65,1,0,1s.65-1,0-1ZM340,117h-3.5c-1.35,1.45-3.48.37-2.5,3.5,1.04,3.31,7.95,1.43,6-3.5ZM485,117c-7.35-.91-3.43,3.55,1,4l-1-4ZM490,117l-2,1.5,3,4.5-1-6ZM505,128l1-8.5-5-2.5c.23,1.7-.34,3.94,0,5.5.08.36,1.8,2.46,2,3,.52,1.41-1.18,3.07,2,2.5ZM227,133c.43-3-2.32-5.24-4-7.5-.17-.22.16-.8,0-1-1.76-2.27-4.61-4.24-6.5-6.5-1.4,1.72-8.37,7.04-6.5,9,4.99.8,8.29,5.36,13,6-.39,1.9,1.3,2.67,2.5,4l1.5-3-3-1h3ZM302,118c-1.93-.49-2.34,1.21-3.5,2-.24.17-.8-.15-1,0-1.19.9-2.78,2.31-2.5,4,.62.55,5.73-2.28,7-2v-4ZM346.5,118c-.65,0-.65,1,0,1s.65-1,0-1ZM426.5,118c-.65,0-.65,1,0,1s.65-1,0-1ZM499,132v-8.5c-2.9-1.83-2.88-6.32-7-5.5.23,1.7-.34,3.94,0,5.5.16.72,2.33,2.82,2,4l5,4.5ZM245,122v-3h-1v3h1ZM465,121h-3v2l2.5,1,1.5-1.5-1-1.5h3v-2h-3v2ZM250,123v-2h-1v2h1ZM311,124v-3h-1v3h1ZM316.5,121c-.65,0-.65,1,0,1s.65-1,0-1ZM352,122l-2.5-1-2.5,1.5,1,3.5h4v-4ZM453,121h-6v1h6v-1ZM480,129c.07-2.81.92-9.28-3.5-8-1.88.54-1.57,3.91-1.5,5.5,1.51,1.64,2.48,3.02,5,2.5ZM517,148c-.28-1.58.82-1.95,1-3.5.16-1.36.17-3.65,0-5-.05-.37-.93-.62-1-1-.22-1.22.24-2.82,0-4-.18-.89-3.29-7.93-4-9-.61-.92-5.09-5.49-6-4.5-.17,2.79.24,5.73,0,8.5-.03.36-.98.65-1,1-.25,3.62.18,7.36,0,11l11,6.5ZM364,122h-2v2l2-2ZM381,122c-1.63-.54-2,.87-2.5,1-.95.26-1.55-.75-3-1-.89-.15-3.82-.63-3.5,1l4.5,2,2-1,2.5,2v-4ZM443.5,122c-.65,0-.65,1,0,1s.65-1,0-1ZM474,122h-2.5l-1.5,1.5c1,1.34,2.54,1.73,4,2.5v-4ZM240,125v-2h-1v2h1ZM322,123c-2.46-.85-5.73,5.22-5,6,2.23.56,6.36-4.56,5-6ZM358.26,123.98c0-.68-.55-1.24-1.24-1.24s-1.24.55-1.24,1.24.55,1.24,1.24,1.24,1.24-.55,1.24-1.24ZM391.5,123c-.65,0-.65,1,0,1s.65-1,0-1ZM435,123h-4v1h4v-1ZM456,125v-2h-1v2h1ZM488,133v-7.5c-1.46-1.58-3.67-2.76-6-2.5v6.5c1.56,1.79,3.5,3.38,6,3.5ZM296,125l1.5,2h3l1.5-1.5c-2.01-2.87-3.5-.77-6-.5ZM447,126c.5-.4-1.75-2.65-3-2-.5.4,1.75,2.65,3,2ZM329,131c2.21.36,2.87-1.41,3.5-3,.55-1.41.3-2.59-1-3-3.13-.98-2.05,1.15-3.5,2.5l1,3.5ZM336,127v-2h-1v2h1ZM379,128l-8-3c-.34,3.53,2.17,5.84,4.5,8,2.42-.33,4.01-2.71,3.5-5ZM386,125h-3v.5l1.5,1.5,1.5-2ZM207,127c-1.6.55-2.11-.93-2.5-1-1.66-.28-6.29-.25-8,0-.37.05-.61.91-1,1-.91.2-2.17-.23-3,0-.78.21-6.29,3.47-7,4-1.2.89-2.82,2.63-3.5,4l5.5-3c3.38-.06,6.3-1.66,10-1,.37.07,3.58,1.91,4,2,1.02.21,2.38-.13,3.5,0l2-6ZM271,127l-3.5-1-1.5,3,5-1v-1ZM404.5,126l-.5.5,1.5,1.5.5-.5-1.5-1.5ZM437,126c-1.72-.33-2.97.5-4.5,1-1.33.43-1.82-.79-1.5,2,2.81.07,6.13.73,6-3ZM443.26,126.98c0-.68-.55-1.24-1.24-1.24s-1.24.55-1.24,1.24.55,1.24,1.24,1.24,1.24-.55,1.24-1.24ZM234,134c.14.12.72,1.73,1.5,2l1.5-1.5-2-1.5,1-2.5-1.5-3.5-3.5,3.5c-.49,1.62,2.18,2.77,3,3.5ZM246,132l2-1.5v-3.5l-2,1.5v3.5ZM342,130c.65-1.25-1.6-3.5-2-3-.65,1.25,1.6,3.5,2,3ZM371,135v-3.5l-2.5-4.5c-1.75,1.23-1.59,3.06-2,5-.17.79-.87,1.79-.5,3h5ZM418.5,127c-.65,0-.65,1,0,1s.65-1,0-1ZM471.5,127c-.65,0-.65,1,0,1s.65-1,0-1ZM502,127c-1.17-1.35-1.92-.12-2,1.5-.11,2.27-.45,8.3,0,10,.22.82,1.93,1.83,3,1.5-.66-2.08,1.56-3.71,1-5.5-.5-1.59-.61-2.53-1-4-.16-.59-1.75-1.67-1-3.5ZM216,133c1.78-1.65-6.1-5.75-8-5l-2,7,10-2ZM278.5,128c-.65,0-.65,1,0,1s.65-1,0-1ZM306,128l-2,.5v3.5l2-1,2,2-2-5ZM387.25,127.25l-3.75,3.75,1.5,1.5,3.75-3.75-1.5-1.5ZM459,128h-4v1h4v-1ZM492,135l-1-4.5-1-2.5c.06,1.82-.09,3.67,0,5.5.08,1.62.84,2.86,2,1.5ZM295,129h-4l1,6h4l1-2.5-2-3.5ZM303,131l-2-2v2h2ZM311,129h-2v3l2-1.5v-1.5ZM324,132v-3h-.5l-1.5,1.5v1.5h2ZM360,133c.36-1.76-1.36-2.24-1-4l-2,1.5,3,2.5ZM400,134c.3-2-.14-3.92-2.5-4-.85,1.52-2.06.72-3,1-.54.16-3.14,3.05-3.5,4,1.93.04,3.32,1.61,5.5,1,.86-.24,1.61-2.74,3.5-2ZM403,132l-2-2v2h2ZM451,130h-2v1h2v-1ZM339,131c1.21,1.43.59,3.6,2,4.5,1.67,1.06,1.93.08,3-1l-5-3.5ZM464,133v-2h-1v2h1ZM468,131h-2v1h2v-1ZM479.26,131.98c0-.68-.55-1.24-1.24-1.24s-1.24.55-1.24,1.24.55,1.24,1.24,1.24,1.24-.55,1.24-1.24ZM497,138l-1-3.5-3-3.5v7h4ZM265,135v-3h-1c.42,1.51-.69,1.82-1,3h2ZM288,134v-2h-1v2h1ZM321,132h-1.5l-1.5,2h3v-2ZM331,132h-2v1h2v-1ZM434,133c1.71-.41,1.99.65,3,1.5.91.76,3.19,3.99,4,1,.43-1.59-.31-2.57-1.5-3.5l-5.5,1ZM461,134l-1.5-2h-3.5l2.5,3c.71-.98,1.29-1.2,2.5-1ZM476,134l-2-2v2h2ZM204,135l-5.5-2h-9l-4.5,3c4.24.43,9.41-.59,13.5,0,.37.05.6.9,1,1,1.73.42,4,.09,4.5-2ZM272,133c-2.75-.27-5.21-.1-5,3,2.75.27,5.21.1,5-3ZM338,136v-1.5l-1.5-1.5-2.5,2.5v.5h4ZM375,136c.65-1.25-1.6-3.5-2-3-.65,1.25,1.6,3.5,2,3ZM386,136c.4.5,2.65-1.75,2-3-.4-.5-2.65,1.75-2,3ZM482,139c8.81.91,6.79-4.74,0-6l-1,3.5,1,2.5ZM223,136c-1.93.69-2.68-1.78-3.5-2-1.06-.29-2.77.19-4,0l-4.5,3,11.5,1,.5-2ZM243.26,134.98c0-.68-.55-1.24-1.24-1.24s-1.24.55-1.24,1.24.55,1.24,1.24,1.24,1.24-.55,1.24-1.24ZM300,136v-2h-1v2h1ZM326.26,134.98c0-.68-.55-1.24-1.24-1.24s-1.24.55-1.24,1.24.55,1.24,1.24,1.24,1.24-.55,1.24-1.24ZM252.5,135c-.65,0-.65,1,0,1s.65-1,0-1ZM318,137v-2h-1v2h1ZM362,136l-4-1c.12,2.5,1.71,4.44,3.5,6l.5-5ZM425,135h-4c.31,2.68-1.09,6.08,1.5,8l2.5-8ZM435,138c.82-.66-3.83-3.2-4-3-.32,1.5.44,2.06,1.5,3h2.5ZM231.26,136.98c0-.68-.55-1.24-1.24-1.24s-1.24.55-1.24,1.24.55,1.24,1.24,1.24,1.24-.55,1.24-1.24ZM368,147c.84-4.2,5-10.28-2-10l-1,6.5,3,3.5ZM410,139v-2h-1v2h1ZM420,143l-1-6-2,1.5c-.34,2.6.19,4.73,3,4.5ZM465,137l-5,1.5,4,2.5,1-4ZM167,151c-.53-1.65.79-1.91,1-2.5.6-1.66.58-4.46,1-6,.18-.68,3.08-3.44,1.5-4.5-1.49,1.86-4.06.68-6,1-1.82.3-7.96,2.23-10,3-6.59,2.5-12.36,8.16-16.5,13.5-3.64,8.25-5.85,16.65-5,26,.03.36.95.63,1,1l1,10.5,5-5.5c-.64-3.24-1.65-7.34-1-11,.07-.38.9-.6,1-1,.31-1.26.58-3.96,1-5,.26-.65,1.77-3.65,2-4,1.6-2.41,6.21-5.87,8.5-7.5,3.13-2.23,8.12-5.37,12-7,.86-.36,1.53-1.63,3.5-1ZM176,138l-3,.5-3,8.5c3.01-2.13,4.34-5.92,6-9ZM195,138h-14.5c-.86,0-3.93,4.63-4.5,5.5v2.5c2.37.72,3.79-1.33,5.5-2,3.43-1.35,8.33-3.51,12-4,1.34-.18,3.16-.61,1.5-2ZM210,138h-3v1h3v-1ZM251.5,138c-.65,0-.65,1,0,1s.65-1,0-1ZM261,140l-2-2v2h2ZM283,138h-3v4h3v-4ZM296,138h-4c-.29,1.9,1.1,3.29,3,3l1-3ZM302.26,138.98c0-.68-.55-1.24-1.24-1.24s-1.24.55-1.24,1.24.55,1.24,1.24,1.24,1.24-.55,1.24-1.24ZM359,145c.69-1.94-2.39-7.6-4.5-7-1.61,1.29-1.43,1.2-1,3,.72,3.03,1.09,1.49,2,2,1.12.62,1.53,2.57,3.5,2ZM467,143c2.21.26,3.36-1.32,3-3.5l-1.5-1.5c-1.91,1.27-1.58,2.86-1.5,5ZM224,139h-7v1h7v-1ZM244,139h-2v5h2c.55-1.52-1-2.29-1-2.5s1.55-.98,1-2.5ZM299,141v-2h-1v2h1ZM326,143v-2.5l-1.5-1.5h-2.5l4,4ZM332,144c1.57-.16,7.94-2.23,8-3.5-1.25-1.82-2.54-1.59-4.5-1.5-3.66.17-3.75,1.33-3.5,5ZM392,141l-2-2v2h2ZM404.5,139c-.65,0-.65,1,0,1s.65-1,0-1ZM427,139h-2v3h2v-3ZM450,142c.32-1.5-.44-2.06-1.5-3h-2.5c.22,1.33,3.17,3.83,4,3ZM452.5,139c-.65,0-.65,1,0,1s.65-1,0-1ZM234,144c.27-1.31-.15-3.62-1.5-4-1.91-.53-2.74,1.28-4.5,1l6,3ZM412,140c-1.04-1.14-7.14,4.93-6,6l6-1v-5ZM199,141l-7.5,1-4.5,3h9v-2l3-2ZM206,141c.55,1.62-.9,2.06-1,2.5-.59,2.68.6,3.88,2.5,5.5l5,1c.99-1.74,4.8-.24,5.5-2.5.63-2.04-3.78-2.87-4.5-4.5l-7.5-2ZM384,142l-5.5-1c-2.11,2.43-3.89,5.62-3.5,9l9-4.5v-3.5ZM204,142c-.99-1.08-5.62,3.76-6,5,4.47.41,6.67.06,6-5ZM224,143l-5-1c-.82.73,1.68,3.61,2.5,4,1.78.85,1.78-2.18,2.5-3ZM306.5,142c-.65,0-.65,1,0,1s.65-1,0-1ZM399,146c1.37-.31,3.79-3.04,3-4-1.18.31-1.49,1.42-3,1v3ZM436,145h1.5l1.5-1.5-1.5-1.5-1.5,1.5v1.5ZM459.5,142c-.65,0-.65,1,0,1s.65-1,0-1ZM492,142h-3l1,6,2-6ZM494,144v-2h-1v2h1ZM503,143l-6-1c.24,2.36-.91,8.28,1.5,9,1.03.31,2.21-.14,3.5,1,.21-3.1-.74-6.39,1-9ZM323,146l-1.5-3-2.5,1.5,1.5,1.5h2.5ZM346,143h-2v5l2-1.5v-3.5ZM231,147c.82-.66-4.29-3.71-5-3v3h5ZM262,144h-3v3h4c-.31-1.18-1.42-1.49-1-3ZM279.26,144.98c0-.68-.55-1.24-1.24-1.24s-1.24.55-1.24,1.24.55,1.24,1.24,1.24,1.24-.55,1.24-1.24ZM301,144h-3v1h3v-1ZM396,147v-3h-.5l-1.5,1.5v1.5h2ZM429,144c-2.4-.37-4.24.48-4,3l4,1v-4ZM435,147v-3h-.5l-1.5,1.5v1.5h2ZM352,145c-.14,4.19-.87,7.74,4.5,7,4.62-2.28-4.16-7.4-4.5-7ZM442,148l2-1.5-1.5-1.5h-.5v3ZM447,145v2.5l1.5,1.5,1.5-2.5-3-1.5ZM484,147v-2h-1v2h1ZM505,145v6.5c.55,2,5.95,1.2,7.5,3.5,3.87.58,2.86-2.44,4.5-4.5l-5.5-3.5-6.5-2ZM337,146l-5,1.5,4,2.5,1-4ZM361,146h-2v1h2v-1ZM421,148v-2h-1v2h1ZM495,148v-2h-1v2h1ZM190,147c-5.8-.72-10.33,1.13-14,5.5,2.22,2.75,6.42,1.08,9.5,1.5l4.5-7ZM192,157l2-5.5-.5-4.5-3.5,3.5-2,5,4,1.5ZM366,151l-1-4h-1v2.5l2,1.5ZM391,149v-2l-2,1.5v.5h2ZM439.5,147c-.65,0-.65,1,0,1s.65-1,0-1ZM202,149l-6-1-1,6c.4.42,8.06-2.42,7-5ZM293,151c-.03-3.97-3.97-3.97-4,0h4ZM321,148h-2v1h2v-1ZM341,148l-.54,4.31,2.4.3.54-4.31-2.4-.3ZM350,150v-2h-1v2h1ZM380,150l3-1.5-.5-.5-2.5,1v1ZM412,148h-3.5l-1.5,2h5v-2ZM440,151v-2h-1v2h1ZM461,149h-2v1h2v-1ZM176,150h-2v2l2-2ZM237,152c-1.93.69-2.68-1.78-3.5-2-1.67-.45-4.58.31-6.5,0-.4,3.74,0,2.34,1.5,3,.43.19.64.92,1,1,2.12.46,6.62.7,7.5-2ZM276,150h-2v1h2v-1ZM283,151l-2.5-1-1.5,1.5,4,2.5v-3ZM331,150v2.5l1.5,1.5,2.5-1.5-4-2.5ZM449.5,150c-.65,0-.65,1,0,1s.65-1,0-1ZM391,153l-.5-2-5.5,3.5c1.65,2.47,3.13.79,3-1.5h3ZM394,151h-2v1h2v-1ZM425.26,151.98c0-.68-.55-1.24-1.24-1.24s-1.24.55-1.24,1.24.55,1.24,1.24,1.24,1.24-.55,1.24-1.24ZM204,154l-.5-2c-2.67,1.96-7.15,2.93-7.5,7,1.59,1.52,5.85-6,8-5ZM323,152h-2.5l-1.5,1.5,2.5,3.5c1.91-1.27,1.58-2.86,1.5-5ZM527,162c.49-1.93-1.21-2.34-2-3.5-1.24-1.82-1.86-3.22-4-5-1.02-.85-1.29-1.91-3-1.5l-1,4.5c1.47,1.83,4.26,3.1,4,5.5h6ZM173,153l-5,4.5c.65,3.11-.88,5.43-1,8-.09,1.96-.32,3.25,1.5,4.5.73-.72,1.22-2.47,1.5-3.5.62-2.27.56-5.15,2-7l1-6.5ZM216,153h-2v1h2v-1ZM381.5,153c-.65,0-.65,1,0,1s.65-1,0-1ZM410.5,153c-.65,0-.65,1,0,1s.65-1,0-1ZM447,153h-2.5l-1.5,1.5c1.27,1.91,2.86,1.58,5,1.5l-1-3ZM501,154c-1.86.11-2.83-1.54-5-1v2h5v-1ZM148,182c.66-.66.7-4.54,1-5.5,2.42-7.69,8.55-13.28,14.5-19.5.66-.69,2.77-2,2-3l-6,3c-5.4,4.53-8.41,9.56-10.5,15.5-1.58,1.13-.46,3.54-2.5,4.5-2.24,1.06-1.15-1.23-1-2,.17-.86.88-2.1.5-3.5l7-11-5.5,3.5c-2.5,2.84-4.11,6.02-5.5,9.5-.17.43-.92.63-1,1-.69,3.11.49,8.1,0,11.5,1.94-.78,3.96-3.14,5.5-4,.47-.26,1.31.19,1.5,0ZM270,154h-3v2c1.18-.31,1.49-1.42,3-1v-1ZM315,166c1.47.29,2.16-.45,3-1.5.44-.56,1.94-2.74,2-3,.67-3.03-1.79-4.66-2-7.5l-3,4.5v7.5ZM325,162c.81.91,4.82-2.87,5-3.5.6-2.11-1.15-3.12-2.5-4.5l-2.5,8ZM346,159l4.5-2c1.28-.89-.21-2.72-1-3-3.12-1.11-4.06,2.82-3.5,5ZM355,154h-2v1h2v-1ZM463.5,154c-.65,0-.65,1,0,1s.65-1,0-1ZM508,161c.15.15,2.83.2,3.5,2l2.5-5.5c-.14-.47-3.08-2.39-3.5-2.5-.84-.23-2.12.22-3,0-.55-.14-1.68-1.76-3.5-1-.38,2.6,3.04,3.78,4,5.5.26.47-.19,1.31,0,1.5ZM178,155h-3v2h1.5l1.5-2ZM306,164l1-4.5-3-4.5.5,4c-.67,1.53-1.72,5.88,1.5,5ZM342,157c-.03-.66.02-1.34,0-2h-2v3c.15.18,1.57-.77,2-1,.05.99-.03,2.01,0,3h2v-4c-.15-.18-1.57.77-2,1ZM476.5,155l-1.5,1.5v3l1.5,1.5,2.5-4.5-2.5-1.5ZM175,165c.35.42,5.55-3.57,6.5-4,.51-.23,1.34.18,2,0,2.71-.75,1.63-6.15-2-5l-5.5,4.5-1,4.5ZM207.6,155.34l-5.44,3.26,1.24,2.06,5.44-3.26-1.24-2.06ZM217,156h-2v1h2v-1ZM310,160v-4h-1v4h1ZM359.5,156c-.65,0-.65,1,0,1s.65-1,0-1ZM414,159h1.5l1.5-1.5-1.5-1.5-1.5,1.5v1.5ZM466.5,156c-2.14.71-2.23,4.04-3.5,5.5l3.5,2.5c2.46-1.46.63-4.07,2.5-5.5.38-1.13-1.37-2.88-2.5-2.5ZM297.5,157c-.26.07-1.99,1.5-1,2,.66,3.33,1.18,5.84,4,8l2.5-3.5c-1.84-1.12-.57-3.38-1-5-.38-1.42-3.17-1.86-4.5-1.5ZM386.5,157c-.65,0-.65,1,0,1s.65-1,0-1ZM460,160c.4.5,2.65-1.75,2-3-.4-.5-2.65,1.75-2,3ZM487.5,157c-.65,0-.65,1,0,1s.65-1,0-1ZM150,180l9.5-2c2.36-1.42,1.12-3.43,1.5-5.5.13-.71,1.87-2.86,1-5l3-9.5c-6.34,4.66-10.19,11.11-14,17.5l-1,4.5ZM189.26,158.98c0-.68-.55-1.24-1.24-1.24s-1.24.55-1.24,1.24.55,1.24,1.24,1.24,1.24-.55,1.24-1.24ZM212,158c-1.9-.39-2.67,1.3-4,2.5l.5.5c1.01-1.27,3.13-.98,3.5-3ZM252.26,158.98c0-.68-.55-1.24-1.24-1.24s-1.24.55-1.24,1.24.55,1.24,1.24,1.24,1.24-.55,1.24-1.24ZM259,158h-2v1h2v-1ZM495,164c-.06-2.4.67-4.57-1.5-6-2.87,2.01-.77,3.5-.5,6h2ZM497,158l2.5,7,1.5-5.5-4-1.5ZM515,163h2.5l1.5-1.5-3-3.5c.11,1.86-1.54,2.83-1,5ZM234,159v2h4v-2h-4ZM291,159h-2v1.5l1.5,1.5h.5v-3ZM295,159l-2,.5,4,6.5c-.27-2.53-1.81-4.72-2-7ZM402.4,158.16l-2.79,1.68,3.31,5.51,2.79-1.68-3.31-5.51ZM437,159h-3c.42,1.51-.69,1.82-1,3,.96.79,3.69-1.63,4-3ZM482,159c-2.67-.48-1.6.53-2.5,2-.6.98-2.01,1.19-1.5,3,.34.39,5.04-3.84,4-5ZM194,162v-2h-1v2h1ZM214,160h-1.5l-1.5,2h3v-2ZM232,167c.28-3.23.22-5.05-2.5-7-1.59-.07-4.97-.37-5.5,1.5s1.28,2.74,1,4.5l4.5,2,2.5-1ZM375,162v-2h-1v2h1ZM376.5,160c-.65,0-.65,1,0,1s.65-1,0-1ZM508,165l-5-5-1,3.5,1.5,2.5,4.5-1ZM223,164c-.31-1.18-1.42-1.49-1-3l-2,1.5c.94,1.06,1.5,1.82,3,1.5ZM420,163v-2h-1v2h1ZM447.5,161c-.65,0-.65,1,0,1s.65-1,0-1ZM187,171l3-9-3,2.5c.69,1.6-.93,2.65-1,3-.17.8-.61,3.84,1,3.5ZM199.5,162c-.65,0-.65,1,0,1s.65-1,0-1ZM278,162h-2v2l2-2ZM281,162h-2v1h2v-1ZM560,187c.65-5.74-1.07-9.74-4-14.5-.16-.25.15-.78,0-1-2.5-3.77-6.97-5.24-10.5-7.5-2.37.05-6.1-1.75-8-2-2.04-.26-4.4.18-6.5,0-.32,1.66.89,2.54,2,3.5,4.77,4.1,9.49,7.51,13,13,1.63,2.55,8.76,4.94,11.5,6.5.81.46,1.37,1.98,2.5,2ZM166,165v-2h-1v2h1ZM181,167c.97-1.17,1.7-2.58,3-3.5l-1.5-.5-6.5,5c2,.33,3.08-.75,5-1-.88,1.05-.94,2.51-3,2-.76,2.34.94,2.83,1,3,.16.46-.08,1.37,0,2h3l1-3h-3c.63-.47.78-1.59,3-1l1-3c-.98.07-2.03-.13-3,0ZM233.5,163c-.65,0-.65,1,0,1s.65-1,0-1ZM286,170c.35-2.74-.55-5.24-2.5-7l-3.5,1c-.62,3.58,2.87,5.61,6,6ZM294,166c.82-.66-3.83-3.2-4-3v3h4ZM329.5,163c-.65,0-.65,1,0,1s.65-1,0-1ZM439,163h-2l-1,4h1c-.52-1.98,1.52-2.34,2-4ZM446,163l-4,.5c-1.25,1.41-2.29,3.42-2,5.5.3.36,6.9-3.67,6-6ZM202,171c2.75.76,6.05-5.75,5-7l-4,2.5-1,4.5ZM272,164h-2v1h2v-1ZM523,169c-.78-1.95-1.82-3.67-3.5-5l-4.5,1,3.5,3,4.5,1ZM530,171c-.04-1.41.32-2.67-.5-4-1.68-2.75-4.05-1.4-6.5-3-.24,4.29,2.71,7.24,7,7ZM212,165l-4,2.5-1,4.5c1.5-.53,6.54-5.34,5-7ZM275,167l-2-2v2h2ZM322,165h-2v2l2-2ZM366,165l-5,1.5,4.5,2.5.5-4ZM463,165h-3v.5l1.5,1.5h1.5v-2ZM478,170c3.82.51,4.39-1.67,4-5-.42-.52-1.92,1.65-2.5,2-.99.6-2.06-1.01-1.5,3ZM186,174l4-2.5,2-5.5c-2.79,1.91-3.93,5.47-6,8ZM225,168l-4.5-2-.5.5c1.66,1.37,2.76,3.82,5,3.5v-2ZM166,167c-3.19-.58-1.48,1.12-2,2.5-.16.42-.92.63-1,1-.4,1.81.28,4.52,0,6.5l4-3.5c-1.79-1.44-.76-4.23-1-6.5ZM238,167h-2v3l2-1.5v-1.5ZM421,167c-4.29-.87-6,1.94-6,6,2.33.26,4.54-.92,6-2.5v-3.5ZM492,167h-3v3h3v-3ZM199,168h-4v.5c1.1,1.54,2.14,1.73,4,1.5v-2ZM241,168h-2v3l2-1.5v-1.5ZM247,170v-2l-2,1.5v.5h2ZM297,169l-7-1c.14.8,2.09,2.89,2.5,3,1.51.42,5.54.73,4.5-2ZM355,168h-3v2h3v-2ZM497,168h-2v1h2v-1ZM541,175c-1.91-3.33-5.02-5.05-8-7l.5,4,1,1,6.5,2ZM213,174v-5h-.5l-3.5,3.5,1.5,1.5h2.5ZM221,173l-1-4h-1v4h2ZM432.26,169.98c0-.68-.55-1.24-1.24-1.24s-1.24.55-1.24,1.24.55,1.24,1.24,1.24,1.24-.55,1.24-1.24ZM451,174l1-5-1.5,2h-1l-1.5,2.5,3,.5ZM233,171l-4-1v2c1.21-.2,1.79.02,2.5,1l1.5-2ZM253,172c.5-.4-1.75-2.65-3-2-.5.4,1.75,2.65,3,2ZM260,173v-3h-1c.42,1.51-.69,1.82-1,3h2ZM310,173v-3h-1c.42,1.51-.69,1.82-1,3h2ZM227,173l-1.5-2-1.5,1.5v.5h3ZM249,172l-5-1v2l5,1v-2ZM317,173v-2h-1v2h1ZM330,176c.19-.19-.26-1.03,0-1.5.62-1.12,2.56-1.53,2-3.5-1.44,1.1-4.56.91-5,2.5-.25.92.16,2.41,0,3.5.85-.85,2.89-.89,3-1ZM343.5,171c-.65,0-.65,1,0,1s.65-1,0-1ZM518.62,170.47l-.79,1.32,4.78,2.87.79-1.32-4.78-2.87ZM531.5,171c-.65,0-.65,1,0,1s.65-1,0-1ZM171,177h2.5l1.5-1.5-2.5-3.5c-1.91,1.27-1.58,2.86-1.5,5ZM204,175c-.35-5.3-5.47-2.51-5,2h4v-2l3,1-1-1.5-1,.5ZM273,174c.5-.4-1.75-2.65-3-2-.5.4,1.75,2.65,3,2ZM341,172l-3,1.5v2.5l3-1.5v-2.5ZM346,178c3.18-.09,5.75-3.67,2.5-6l-2.5,6ZM193,175v-2l-2,1.5v.5h2ZM235.5,173c-.65,0-.65,1,0,1s.65-1,0-1ZM266,173h-2v1h2v-1ZM302.5,173c-.65,0-.65,1,0,1s.65-1,0-1ZM400,175l-.5-2-2.5,1v2l3-1ZM507,176c.65-1.25-1.6-3.5-2-3-.65,1.25,1.6,3.5,2,3ZM299,174h-5v.5l1.5,1.5h3.5v-2ZM513,177l-2.5-3-1.5,1.5v1.5h4ZM531,177c.32-1.5-.44-2.06-1.5-3h-2.5c.22,1.33,3.17,3.83,4,3ZM231,176l-6-1,2.5,5,3.5-4ZM237,177l-2-2v2h2ZM265,175h-2v1h2v-1ZM318,179c1.64-.71,3.31-2.24,3-4-1.64.71-3.31,2.24-3,4ZM332,180l2-1.5v-3.5l-2,1.5v3.5ZM417.5,175c-.65,0-.65,1,0,1s.65-1,0-1ZM501,175v2.5l1.5,1.5,2.5-1.5c-1.33-1.2-2.1-2.89-4-2.5ZM522,178c-.37-2.02-2.49-1.73-3.5-3h-2.5l1.5,3h4.5ZM549,188l-3.5-7c-2.75-.39-4.62-2.89-7-4-1.77-.83-3.81-.94-5.5-2l2.5,5,13.5,8ZM181,176c-1.9-.39-2.67,1.3-4,2.5l2,1.5v-3h2v-1ZM185.5,176c-.65,0-.65,1,0,1s.65-1,0-1ZM208.5,176c-.65,0-.65,1,0,1s.65-1,0-1ZM223,176l-4,.5,5,3.5-1-4ZM252,178c-1.55-3.64-6.96-1.44-10-2,1.55,3.64,6.96,1.44,10,2ZM317,188c1.04,1.04,6.62-2.12,7-3.5.29-1.06-.21-2.78,0-4,.28-1.61,1.48-2.64,1-4.5l-5,4.5c-.64,2.46-3.61,4.26-3,7.5ZM404,176l-3,2.5,2.5,1.5,1.5-1.5-1-2.5ZM464.5,177c-.65,0-.65,1,0,1s.65-1,0-1ZM496,180v-3h-.5l-1.5,1.5,2,1.5ZM194,178c-2.4-.37-4.24.48-4,3,2.4.37,4.24-.48,4-3ZM233.5,178l-3.5,3.5,2.5,1.5c1.52-.95,1.29-2.52,2.5-3.5l-1.5-1.5ZM281,183l1-2.5c-.83-4.48-3.96-1.36-7-1.5.38,1.52,2.2,2.24,3.5,3,.79.46.88,1.46,2.5,1ZM161,179l-8.5,2-3.5,2.5c-.57,1.99.95,2.71,1,3,.37,2.08-.31,4.84,0,7,.05.32,1.78,1.75,1,3.5l4-3.5,4-8,2-6.5ZM164,181v-2h-1v2h1ZM168,179l-3,2.5c.9,2.23-1.77,3.15-2,4-.4,1.47-.23,6.01,1.5,6.5l3.5-1-.5-8,.5-4ZM214,182c.29-1.9-1.1-3.29-3-3v3h3ZM326,184l2-1.5v-3.5h-1c.11,1.86-1.54,2.83-1,5ZM245,181c-.18.15,1.77,3.8,2.5,4,5.32,1.44,9.03-4.51,4-5-2.17-.21-4.01,1.69-6.5,1ZM266.26,180.98c0-.68-.55-1.24-1.24-1.24s-1.24.55-1.24,1.24.55,1.24,1.24,1.24,1.24-.55,1.24-1.24ZM286,180l-3,2.5v1l1.5,1.5c1.91-1.27,1.58-2.86,1.5-5ZM299,180h-2v2l2-2ZM308,185c.08-2.14.41-3.73-1.5-5-1.91,1.27-1.58,2.86-1.5,5h3ZM343,180h-2v1h2v-1ZM513,181l-4-1v2h4v-1ZM179,183v-2h-1v2h1ZM276,185c-.49-2.4-2.28-1.63-3.5-2-.55-.17-1.97-2.54-2.5-2-.37,2.33.93,2.33,2.5,3,1.06.45,2.31,1.04,3.5,1ZM294,184l2-1.5-1.5-1.5h-.5v3ZM314,188v-7h-1v7h1ZM388,181h-2v2l2-2ZM434,182c-.58,2.74-2.49,6.58.5,9,.85-1.52,2.06-.72,3-1,2.47-.74,2.25-9.93-1-9l-2.5,1ZM445,182l-4-1v4c2.4.37,4.24-.48,4-3ZM175,182h-4v7l5-1c.52-2.36-.72-3.84-1-6ZM288,186l3-1.5-1-2.5c-2.01.53-2.24,2.12-2,4ZM343,182h-2l-1,3c1.9.29,3.29-1.1,3-3ZM350,185c.4.5,2.65-1.75,2-3-.4-.5-2.65,1.75-2,3ZM373,182h-3v5c3.1.21,3.27-2.25,3-5ZM486,182c-3.24-.17-3.24,2.42-3,5l-2,2c2.36-1.13,2.94-3.77,6-3l-1-4ZM507.26,182.98c0-.68-.55-1.24-1.24-1.24s-1.24.55-1.24,1.24.55,1.24,1.24,1.24,1.24-.55,1.24-1.24ZM525,185c-.67-2.53-3.28-1.7-5-3v2c1.86-.11,2.83,1.54,5,1ZM530.5,182c-.65,0-.65,1,0,1s.65-1,0-1ZM542,189c-1.47.17-2.34-.7-2,1.5l5,6.5-1-5.5c-.96-.65-1.39-1.61-2-2.5.65-.07,1.34.03,2,0,.34-3.12-3.13-2.81-4.5-5l-4.5-1.5c1.97,2.77,5.36,4.11,7,6.5ZM240.5,183c-.65,0-.65,1,0,1s.65-1,0-1ZM359,188c2.21.98,4.58-4.32,4-5l-4,2.5v2.5ZM467,183c-1.25-.65-3.5,1.6-3,2,1.25.65,3.5-1.6,3-2ZM494,183h-2v2l2-2ZM537,188c.4-.35-1.91-2.45-2.5-3s-1.69-2.4-2.5-1.5c1.37,1.71,2.11,4.74,5,4.5ZM148,184c-1.1-1.2-5.05,3.72-6,4.5l2,5,6,5.5-2-7.5v-7.5ZM244,186l-2-2v2h2ZM531,188c.9-1.05-2.28-4.65-4-4-.39,2.55,2.01,2.98,4,4ZM560,189l-3.5-2-7.5-3c2.55,5.4,4.94,10.07,9.5,14l1.5-2.5v-6.5ZM301,187v-2h-1v2h1ZM392,189l1-2.5-2.5-1.5-1.5,3,3,1ZM478,185c-3.1-.21-3.27,2.25-3,5h2c-.11-1.86,1.54-2.83,1-5ZM523,193c.78-3.08-1.72-3.68-3-5.5-.15-.21.16-.74,0-1-1-1.58-2.27-1.7-4-1.5l2,2c-1.46,1.91,3.93,7.19,5,6ZM215,190c1.47.29,2.16-.45,3-1.5,1.02-1.28.88-2.13-.5-2.5-1.59-.43-2.57.31-3.5,1.5l1,2-1,2.5,2-.5-1-1.5ZM234,186h-3v2h3v-2ZM345,189c.4.5,2.65-1.75,2-3-.4-.5-2.65,1.75-2,3ZM367,186h-2l-1,4h2.5l1.5-1.5-1-2.5ZM381,191l1-2.5-2-2.5v5h1ZM404,188v-2h-1v2h1ZM441.5,186c-.65,0-.65,1,0,1s.65-1,0-1ZM472,190v-4h-.5l-1.5,1.5v1l2,1.5ZM524,189c.29-1.9-1.1-3.29-3-3l3,3ZM253,187h-2v2l2-2ZM308,187h-4v.5l1.5,1.5h1l1.5-2ZM334,190c.4.5,2.65-1.75,2-3-.4-.5-2.65,1.75-2,3ZM357,191v-4h-1v4h1ZM457.5,187c-.65,0-.65,1,0,1s.65-1,0-1ZM517,192c.27-2.34-2.26-3.43-3.5-5h-2l-3.5,2.5,4.5,2.5h4.5ZM225,189l-6,1.5c2.22,2.97,4.74,1.21,6-1.5ZM238,188c-1.25-.65-3.5,1.6-3,2,1.25.65,3.5-1.6,3-2ZM268,190v-2l-2,1.5v.5h2ZM353,188l-3,2.5,1.5,1.5,1.5-1.5v-2.5ZM377,188h-2v5l2-1.5v-3.5ZM549,189l-3-1,2,3h-3l2,9c3.49-1.06.85-4.88,3-6.5l-2-2,1-2.5ZM161,189h-2l-1,2.5,3,1.5v-4ZM248,193l-3.5-4-4.5,1.5,8,2.5ZM327,193v-4h-.5l-1.5,1.5v1l2,1.5ZM401,191v-2h-1v2h1ZM533,196c.22-3.89-2.17-6.72-6-7l.5,4,5.5,3ZM144,211l3-11.5-6.5-9.5-4.5,6.5,4,9,4,5.5ZM263.5,190c-.65,0-.65,1,0,1s.65-1,0-1ZM347.5,190c-.65,0-.65,1,0,1s.65-1,0-1ZM387,190v3.5l2.5,1.5,1.5-1.5c.42-1.53-3.18-4.32-4-3.5ZM538.18,189.79l-1.47.88,3.49,5.81,1.47-.88-3.49-5.81ZM192.26,191.98c0-.68-.55-1.24-1.24-1.24s-1.24.55-1.24,1.24.55,1.24,1.24,1.24,1.24-.55,1.24-1.24ZM284,192l-5-1c.19,2.53-.9,5.35,1.5,7l3.5-1v-5ZM488,194l3-2.5-.5-.5c-.71.98-1.29,1.2-2.5,1v2ZM567,194c-.19-.19-1.03.26-1.5,0-1.12-.63-2-2.74-3.5-3l-2,11.5c2.21,4.84,4.43,12.73,2,18l2,2c-2.17,1.67-3.1,3.51-.5,5.5l.5-5,4,1c-.42-1.67,1.5-3.21,2-4.5.36-.93,1.92-5.56,2-6,.3-1.69.34-9.43,0-11-.07-.33-1.62-2.36-2-3-.16-.27.14-.79,0-1-.7-1.04-2.46-2.02-3-3-.26-.47.19-1.31,0-1.5ZM223,195l2.5,1,2.5-2.5-1.5-1.5-3.5,2v1ZM275.5,192c-.65,0-.65,1,0,1s.65-1,0-1ZM315,192h-2v1h2v-1ZM321,192h-2v1h2v-1ZM403,192h-2v1.5l1.5,1.5h.5v-3ZM451.5,192c-.65,0-.65,1,0,1s.65-1,0-1ZM202,193h-2v2l2-2ZM263,196l2-1.5-1.5-1.5h-.5v3ZM268,196v-3h-1v3h1ZM346,193h-2v2l2-2ZM499,193c-2.84-.42-4.82.26-6,3,3,.11,6.18.6,6-3ZM520,199c.44-3.21-.49-3.07-2.5-4-.41-.19-.61-.85-1-1-.54-.22-1.35.18-2,0-.41-.12-.63-.93-1-1-1.34-.25-3.07.16-4.5,0l1,3c1.65-.53,1.91.79,2.5,1s1.42-.22,2,0c1.54.59,3.09,2.71,5.5,2ZM235,194h-2v1h2v-1ZM258.5,194c-.65,0-.65,1,0,1s.65-1,0-1ZM293.41,193.35l-5.93,1.32.59,2.65,5.93-1.32-.59-2.65ZM368,194l-3,1.5c.01,1.78-.54,4.6,1.5,5.5s1.23-1.94,2.5-2.5l-1-4.5ZM455.5,194c-.65,0-.65,1,0,1s.65-1,0-1ZM162,195l-5,1v2l-2.5-1-2.5,3.5,3,1.5v-3l2.5,1,4.5-5ZM272,195h-2v1h2v-1ZM352,198c.4.5,2.65-1.75,2-3-.4-.5-2.65,1.75-2,3ZM363,201l-3-6c.4,1.91-1.68,2.12-.5,4,.69,1.1,2.01,2.28,3.5,2ZM538.26,195.98c0-.68-.55-1.24-1.24-1.24s-1.24.55-1.24,1.24.55,1.24,1.24,1.24,1.24-.55,1.24-1.24ZM173,196h-2v3h2v-3ZM192,201c-1.3-1.91-3.42-4.97-6-5l2,2-2,2,6,1ZM198.5,196c-.65,0-.65,1,0,1s.65-1,0-1ZM276,196h-2v1h2v-1ZM316,197l-3.5-1-2.5,2.5c1.85,3.14,2.96,5.24,7,4.5l-1-6ZM326,197l-4-1,1.5,2h2.5v-1ZM346,196h-2l1.5,2h.5v-2ZM409,198v-2h-1v2h1ZM553,211l1-7.5-2.5-7.5-2.5,4.5,1,6,3,4.5ZM557,206l1-4.5-4-5.5c-.51,1.95.78,2.9,1,4.5.3,2.17-1.39,6.31,2,5.5ZM250,200v-1.5l-1.5-1.5-1.5,1.5,1.5,1.5h1.5ZM338,200h2.5l1.5-1.5-2.5-1.5-1.5,3ZM452,199v-2h-1v2h1ZM523.5,197c-.65,0-.65,1,0,1s.65-1,0-1ZM533,198l-5-1c-1.35,4.84-2.93,11.11,4,10-.34-3.26,1.61-5.6,1-9ZM181,198h-2v3h1c-.42-1.51.69-1.82,1-3ZM203,198l-5,1.5,2.5,3.5,2.5-5ZM320,200l-2-2v2h2ZM436.5,198c-.65,0-.65,1,0,1s.65-1,0-1ZM450,198h-2v1h2v-1ZM543,209l1-4.5c-.31-.93-5.51-7.87-7-6.5,0,1.52,2.85,3.97,3,4.5.41,1.42.8,3.49,1,5,.18,1.35.6,3.14,2,1.5ZM169,204c2.68-.94,2.73-3.41.5-5h-.5v5ZM323,201v-2h-1v2h1ZM419,201v-2h-1v2h1ZM458.26,199.98c0-.68-.55-1.24-1.24-1.24s-1.24.55-1.24,1.24.55,1.24,1.24,1.24,1.24-.55,1.24-1.24ZM524.5,199c-.65,0-.65,1,0,1s.65-1,0-1ZM163,207l-.5-7-1.5,4-2,1,4,2ZM220.26,200.98c0-.68-.55-1.24-1.24-1.24s-1.24.55-1.24,1.24.55,1.24,1.24,1.24,1.24-.55,1.24-1.24ZM223.5,200l-2.5,3.5.5.5,2.5-3.5-.5-.5ZM507,204v-4l-2,1.5,1,2.5h1ZM534,207l5-.5-2-3-1-3.5-2,2.5v4.5ZM141,230c.17.17.96-.22,1.5,0,1.04.43,2.57,2.11,4,2,1.89-.53,1.91-7,1.5-8.5-.15-.55-1.83-1.44-2-2-.4-1.35-.6-3.64-1-5-.52-1.78-8.2-9.06-8-13l-2-2.5c.54,1.96-.83,2.92-1,4.5-.2,1.87-.23,5.16,0,7,.05.37.93.62,1,1,.91,5.1,1.33,8.18,4,13,.38.69,1.61,1.31,2,2,.26.47-.19,1.31,0,1.5ZM235,204c.4.5,2.65-1.75,2-3-.4-.5-2.65,1.75-2,3ZM295,203v-2h-1v2h1ZM310,204c-.31-1.18-1.42-1.49-1-3h-1v3h2ZM327,203v-2h-1v2h1ZM356.5,201c-.65,0-.65,1,0,1s.65-1,0-1ZM470,205l3-1.5-1.5-2.5-1.5,1.5v2.5ZM149,216l3-10.5-2-3.5c-4.52,2.28-4.19,6.87-4,11.5l3,2.5ZM176,205v-3h-1v3h1ZM212,205v-3h-1v3h1ZM522,205l-1.5-3-1.5,2,3,1ZM180,206v-3h-1v3h1ZM191,203h-4c.13,1.46-.19,3.09,0,4.5.21,1.55,1.27,1.93,1,3.5l3-2.5v-5.5ZM228,205v-2h-1v2h1ZM345,203c-1.72-.41-1.98.66-3,1.5-1.77,1.46-3.53,2.96-3,5.5l4-.5c1.59-1.69,2.34-4.06,2-6.5ZM380.5,203c-2.91.84-.39,4.76-.5,6.5l2.5,3.5c1.96-1.3,1.43-2.57,1.5-4.5.09-2.43.24-6.58-3.5-5.5ZM294.5,204c-.65,0-.65,1,0,1s.65-1,0-1ZM313,204h-2v2l2-2ZM317,204h-2v1h2v-1ZM323.5,204l-1.5,1.5.5.5,1.5-1.5-.5-.5ZM362,206c-2.48.25-2.98-2.83-6-2l-1,2.5,1,4.5c1.75-.28,2.61,1.55,4.5,1,1.99-.58,1.51-4.28,1.5-6ZM413,206l-2-2v2h2ZM487.5,204c-.65,0-.65,1,0,1s.65-1,0-1ZM512.5,204c-.65,0-.65,1,0,1s.65-1,0-1ZM167,209v-4h-1v4h1ZM197,205l-3,2.5v4.5l4-1c.52-2.35-.74-3.88-1-6ZM403,209c1.48-4.37-5.2-5.34-6-2.5-.15.54-.36,2.5.5,2.5h5.5ZM451,205h-2v2l2-2ZM453,211c.24.28,6.46-4.06,2.5-6l-2.5,6ZM485,208v-3h-1v3h1ZM560,205c-2.8-.32-1.57.17-2,1.5-.72,2.2-1.4,3.93-2,6-.23.79-1.64,1.66-1,4,.17.6,5.12,5.46,6,4.5l-1-16ZM163,211c-.2-1.08-4.69-5.37-5-5-.5,3.14,1.92,5.5,5,5ZM378,213c.34-2.66-.49-5.17-2.5-7l-2.5,2.5c1.64,2.24.65,5.2,5,4.5ZM177,207h-2v2l2-2ZM264,208c-2.16.53-7.54-3.45-7,1l7-1ZM280,210v-1.5l-2-1.5v3h2ZM315,207h-3v1h3v-1ZM440.5,207c-.65,0-.65,1,0,1s.65-1,0-1ZM519,207h-3v1h3v-1ZM547,207c-1.9-.29-3.29,1.1-3,3l4,1-1-4ZM206,212v-4h-.5c-1.54,1.1-1.73,2.14-1.5,4h2ZM249,208c-1.25-.65-3.5,1.6-3,2,1.25.65,3.5-1.6,3-2ZM276,208h-2v1h2v-1ZM346.5,208c-.65,0-.65,1,0,1s.65-1,0-1ZM162,221c1.1-1.17-5-6.46-4-8.5l-3-3.5c-.81,5.73,1.56,9.85,7,12ZM219,211v-2h-1v2h1ZM227,209l-3,1.5v2.5l3-1v-3ZM239,209h-1.5l-1.5,2h3v-2ZM244.5,209c-.65,0-.65,1,0,1s.65-1,0-1ZM305,211v-2h-1v2h1ZM314,212h2.5l1.5-1.5-2.5-1.5-1.5,3ZM440,213h3.5c2.85-2.03,1.14-4.29-2-4l-1.5,1.5v2.5ZM276,210l-3,3-2,1h4.5l.5-4ZM287.5,210c-.65,0-.65,1,0,1s.65-1,0-1ZM301.5,210c-.65,0-.65,1,0,1s.65-1,0-1ZM367,212v-2h-1v2h1ZM405,210h-2v1h2v-1ZM416.5,210l-1.5,1.5.5.5,1.5-1.5-.5-.5ZM462.5,210c-.65,0-.65,1,0,1s.65-1,0-1ZM539,210h-5v2l4,1,1-3ZM151,217l2-1.5v-4.5l-2,1.5v4.5ZM342,213c-.53-2.01-2.12-2.24-4-2v2h4ZM437.5,211c-.65,0-.65,1,0,1s.65-1,0-1ZM513.5,211c-.65,0-.65,1,0,1s.65-1,0-1ZM542,211h-2v2l2-2ZM161,212c-2.05-.25-2.27-.14-2,2h2l2,3-2-5ZM175.26,212.98c0-.68-.55-1.24-1.24-1.24s-1.24.55-1.24,1.24.55,1.24,1.24,1.24,1.24-.55,1.24-1.24ZM210,212h-2c-.54,2.17,1.11,3.14,1,5h1v-5ZM239,212c-4.81-.76-5.75,4.74-1,5l1-5ZM264,212l-6,.5c1.58,1.26,2.67,3.78,5,3.5l1-4ZM311,216l2-1.5c-.98-.71-1.2-1.29-1-2.5h-1v4ZM417.5,212c-.65,0-.65,1,0,1s.65-1,0-1ZM500,212h-3.5l-1.5,2,3.5,1,1.5-3ZM542,215l6-.5-3.5-2.5-2.5,3ZM199,216v-3c-1.18.31-1.49,1.42-3,1v2h3ZM219.26,213.98c0-.68-.55-1.24-1.24-1.24s-1.24.55-1.24,1.24.55,1.24,1.24,1.24,1.24-.55,1.24-1.24ZM253,218v-5h-.5c-2.23,1.59-2.18,4.06.5,5ZM398,215l-1.5-2c-.71.98-1.29,1.2-2.5,1v1h4ZM402,213h-2v1h2v-1ZM529,213h-2v4h2v-4ZM229,218l1-4h-1l-2,3.5,2,.5ZM247,217l1-2.5-.5-.5-2.5,1v2h2ZM293.5,214c-.65,0-.65,1,0,1s.65-1,0-1ZM322.11,216.34c0-1.36-1.1-2.46-2.46-2.46s-2.46,1.1-2.46,2.46,1.1,2.46,2.46,2.46,2.46-1.1,2.46-2.46ZM372,214l-.5,3c1.69,4.34,4.79,5.65,6.5.5-1.87-1.71-3-4.14-6-3.5ZM404,216v-2h-1v2h1ZM457,215l1.5,2,2.5-1.5-1.5-1.5-2.5,1ZM523.5,214c-.65,0-.65,1,0,1s.65-1,0-1ZM536,217c-.22-1.33-3.17-3.83-4-3-.32,1.5.44,2.06,1.5,3h2.5ZM258,215l-2,.5-1,7.5,5-2-2-6ZM290,215h-2.5l-1.5,1.5v2.5h2.5l1.5-1.5v-2.5ZM406,217v-2h-1v2h1ZM414.5,215l-1.5,1.5,1.5,1.5,1.5-1.5-1.5-1.5ZM465,217v-2h-1v2h1ZM508,218c.4.5,2.65-1.75,2-3-.4-.5-2.65,1.75-2,3ZM307,218v-2h-1v2h1ZM155,217h-2v1h2v-1ZM185,220c.29-1.9-1.1-3.29-3-3l1,3h2ZM500,217h-2.5l-1.5,1.5,2.5,2.5,1.5-1.5v-2.5ZM519,220c.65-1.25-1.6-3.5-2-3-.65,1.25,1.6,3.5,2,3ZM147.5,218l-.5.5,1.5,1.5.5-.5-1.5-1.5ZM201,218h-4.5l-1.5,2h6v-2ZM242,224c2.66-.59,1.37-3.22,3-4.5l-1.5-1.5c-2.17,1.43-1.44,3.6-1.5,6ZM252,219l-4-1-2,4.5-1,6.5,4.5-1c2.66-2.29,2.73-5.5,2.5-9ZM316,218h-4v1l4,1v-2ZM340,218h-2v1.5l1.5,1.5h.5v-3ZM461,218h-2v1h2v-1ZM531.5,218l-1.5,1.5v3l1.5,1.5,2.5-3.5-2.5-2.5ZM540,221c2.4-.06,4.57.67,6-1.5-2.02-2.67-6.2-2.05-6,1.5ZM402,221v-2h-1v2h1ZM162,232l1-5.5c-1.82-2.02-7.96-7.24-10.5-6.5-4.75,2.19,2.94,11.43,5,12,1.17.32,3.13-.21,4.5,0ZM178,223v-3h-1v3h1ZM233,223c.4.5,2.65-1.75,2-3-.4-.5-2.65,1.75-2,3ZM399,220h-8.5c-1.91.53-2.99,7.44,1,8,.95.13,2.02-.09,3,0,2.33-2.16,4.84-4.47,4.5-8ZM175,223v-2h-1v2h1ZM190,223v-2h-1v2h1ZM231.5,221c-.65,0-.65,1,0,1s.65-1,0-1ZM299.5,221c-.65,0-.65,1,0,1s.65-1,0-1ZM362,221h-1.5l-1.5,2h3v-2ZM182.5,222c-.65,0-.65,1,0,1s.65-1,0-1ZM225,222h-1.5l-1.5,1.5,1.5,1.5h1.5v-3ZM241,229c-.11-1.13.17-2.42,0-3.5-.16-1.02-.83-2.72-1.5-3.5-2.03,1.85-2.84,4.36-2.5,7h4ZM441,222h-2v1h2v-1ZM459,223l-4.5-1-.5,5,3.5-1,1.5-3ZM473.26,222.98c0-.68-.55-1.24-1.24-1.24s-1.24.55-1.24,1.24.55,1.24,1.24,1.24,1.24-.55,1.24-1.24ZM550,224v-2h-1v2h1ZM175,226l-3-3v3h3ZM231,223h-2l1.5,2h.5v-2ZM272.5,223c-.65,0-.65,1,0,1s.65-1,0-1ZM367.26,223.98c0-.68-.55-1.24-1.24-1.24s-1.24.55-1.24,1.24.55,1.24,1.24,1.24,1.24-.55,1.24-1.24ZM519,224l-6-1-1,3.5,3.5,2.5c2.19-1.52,4.14-1.67,3.5-5ZM540,223c-1.25-.65-3.5,1.6-3,2,1.25.65,3.5-1.6,3-2ZM264,228l3-1.5-2-2.5-1,4ZM385.5,224c-.65,0-.65,1,0,1s.65-1,0-1ZM482,224l-3,1.5v1l1,2.5h2v-5ZM487.5,224c-.65,0-.65,1,0,1s.65-1,0-1ZM533.5,224c-.65,0-.65,1,0,1s.65-1,0-1ZM541,229l3-4.5c0-.85-1.99-.65-2.5-.5-.38.11-4.96,3.79-5.5,4.5-.15.2.17.76,0,1-.79,1.16-2.49,1.57-2,3.5l7-4c-.49,2.6,1.04,2.74,2.5,1l2,2,3.5-1,1-5c-2.54-.51-5.06,1.35-5,4l-1-2-3,1ZM557,226l-2-2v2h2ZM193,225l2.5,3,1.5-1.5-1.5-1.5h-2.5ZM209,225l-4.5,1-2.5,4c1.66,1.54,6.47-3.5,7-5ZM290.5,225c-.65,0-.65,1,0,1s.65-1,0-1ZM339,225c-2.71-.44-4.71.5-7,1v5c2.52.53,4.01-1.2,5.5-3,.84-1.02,1.91-1.29,1.5-3ZM347,225h-2v2l2-2ZM409,225h-2v2l2-2ZM438,225h-2v1h2v-1ZM460,229l3-1.5-2-2.5-1,4ZM190.5,226c-.65,0-.65,1,0,1s.65-1,0-1ZM255,232c4.26.66,6.66-1.74,6-6-.48-.56-3.89,2.63-4.5,3-1,.6-2.06-1.01-1.5,3ZM286,228l-2-2v2h2ZM406.26,226.98c0-.68-.55-1.24-1.24-1.24s-1.24.55-1.24,1.24.55,1.24,1.24,1.24,1.24-.55,1.24-1.24ZM487,230v-4h-1v4h1ZM496,236l1-8.5c-1.27-1.91-2.86-1.58-5-1.5l-1,4.5c1.88,1.84,1.64,5.81,5,5.5ZM423,227l-4,1v2c.83.83,3.78-1.67,4-3ZM529,229l3-1.5-.5-.5-2.5,1v1ZM154,234c-1.5-2.21-1.74-6.23-5-6v5l5,1ZM290.26,228.98c0-.68-.55-1.24-1.24-1.24s-1.24.55-1.24,1.24.55,1.24,1.24,1.24,1.24-.55,1.24-1.24ZM348.5,228c-.65,0-.65,1,0,1s.65-1,0-1ZM499.5,228c-.65,0-.65,1,0,1s.65-1,0-1ZM217.5,229c-.65,0-.65,1,0,1s.65-1,0-1ZM275,229h-4v1h4v-1ZM342,229h-3v2h1.5l1.5-2ZM553,235c-.2-1.21.02-1.79,1-2.5l-2-3.5-1,6h2ZM200.5,230c-.65,0-.65,1,0,1s.65-1,0-1ZM315,233c.4.5,2.65-1.75,2-3-.4-.5-2.65,1.75-2,3ZM360,230l-3,1.5.5.5,2.5-1v-1ZM553,247c3.08-2.33,4.62-6.04,6-9.5.17-.43.92-.63,1-1,.36-1.63.35-5.67-1.5-6.5-2.01-.9-1.24,1.94-2.5,2.5.2,2.98.16,5.75-2,8l-1,6.5ZM267,231l-4,1v1h4v-2ZM157,234l-2-2v2h2ZM341,232h-3.5l-1.5,2h3.5l1.5-2ZM381,232h-3v1c1.51-.42,1.82.69,3,1v-2ZM430,232h-2v1h2v-1ZM510.12,231.77l-.64,3.81,2.51.42.64-3.81-2.51-.42ZM540.5,232l-7.5,4.5c-.48,1.61,5.42,5.93,6.5,7.5l3.5-10.5-2.5-1.5ZM187.5,233c-.65,0-.65,1,0,1s.65-1,0-1ZM270.5,233c-.65,0-.65,1,0,1s.65-1,0-1ZM276,233h-3v2h1.5l1.5-2ZM295.5,233c-.65,0-.65,1,0,1s.65-1,0-1ZM314,236v-3h-.5l-1.5,1.5v1.5h2ZM404.5,233c-.65,0-.65,1,0,1s.65-1,0-1ZM420,234c-.05,2.9,2.17,4.15,4,1.5l-1.5-2.5-2.5,1ZM490,233h-2v2l2.5,1,.5-.5-1-2.5ZM547,236v-3h-3l-2,9c2.31-.73,1.56-2.92,4-4l-1,7,4-7.5v-2.5l-2,1ZM323,234h-2v5l2-1.5-1-1,1-2.5ZM358.5,234l-1.5,1.5.5.5,1.5-1.5-.5-.5ZM571,273c-.78-1.75.95-3.18,1-3.5.38-2.64,1.31-9.92,1-12-.06-.38-.95-.63-1-1-.23-1.89.32-4.22,0-6-.41-2.3-3.24-6.06-3-9-1.25-1.2-2.13-3.81-3-5-.64-.87-1.94-2.17-3-2.5-.69,2.7,1.6,4.98,1,7.5-.78,3.27-.54,4.87-1,8-.05.36-1.66,1.62-1,4l6,6c1.01,2.53.52,5.32,1,8,.07.37.87.59,1,1,.64,2.12-3.21,5.02,1,4.5ZM152,237l-1.5-2h-1.5v2h3ZM287.5,235c-.65,0-.65,1,0,1s.65-1,0-1ZM337,235h-4c.03,3.97,3.97,3.97,4,0ZM387,238l2-1.5c-.94-1.06-1.5-1.82-3-1.5.31,1.18,1.42,1.49,1,3ZM503,235h-2v6l2-1.5v-4.5ZM574,274c.19-.19-.26-1.03,0-1.5,1.03-1.85,4.7-5.05,6-7,.64-.97,1.48-3.7,2-5,.17-.43.92-.63,1-1,.27-1.24.27-7.75,0-9-.08-.35-1.67-2.36-2-3-1.41-2.71-2.82-5.31-5.5-7.5-.2-.17-.81.16-1,0-2.31-1.93-4.02-4.97-7.5-5l3,6.5c3.96,6.96,5.26,18.36,4,27-.05.37-.92.61-1,1-.32,1.5.41,2.88-1,4.5h2ZM161.5,236c-.65,0-.65,1,0,1s.65-1,0-1ZM292,238v-2h-1v2h1ZM349,236h-3v.5l1.5,1.5h1.5v-2ZM452,236h-3v2h3v-2ZM509.5,236c-.65,0-.65,1,0,1s.65-1,0-1ZM179,237h-2v1.5l1.5,1.5h.5v-3ZM237,239v-2h-1v2h1ZM260.5,237c-.65,0-.65,1,0,1s.65-1,0-1ZM329,239v-2h-1v2h1ZM553,237l-3,2.5c-.04,1.65-6.14,8.24-5,9.5l4-1.5,4-10.5ZM304,240v-2h-1v2h1ZM155.16,237.6l-4.34,2.6,1.5,2.5,4.34-2.6-1.5-2.5ZM176,241v-2h-1v2h1ZM208.5,239c-.65,0-.65,1,0,1s.65-1,0-1ZM231,242v-3h-1v3h1ZM249,239l-3,1.5v2.5l3-1.5v-2.5ZM309,241v-2h-1v2h1ZM342,239h-2v2l2-2ZM407,239c-2.61-.51-5.08,1.42-5,4,3.28.61,3.83-1.38,5-4ZM530,239h-2v3h2v-3ZM555,253c2.89.45,4.27-.28,6-2.5l-1-3c1.95-1.96.65-5.68,1-8.5l-5,6.5c-.4,1.77-4.27,7.05.5,5.5.73-.24,2.17-3.38,3.5-1.5l-5,3.5ZM149,240c-.38-.35-2.84.75-3.5,1-4.3,1.67-10.97,4.32-15,7-3.13,2.07-6.31,7.08-9.5,9.5l-1,4.5c2.24-1,3.62-3.59,5.5-5,3.05-2.29,11.49-5.28,15-6,1.19-.25,2.93.29,4,0,1.92-.53,4.37-6.33,6.5-7.5l-2-3.5ZM186,240h-3v3c1.9.29,3.29-1.1,3-3ZM196,240l1.5,3,2.5-1.5-1.5-1.5h-2.5ZM370.5,240l-.5.5,1.5,1.5.5-.5-1.5-1.5ZM416,242v-2l-2,1.5v.5h2ZM489,241l-3-1c-.29,1.9,1.1,3.29,3,3v-2ZM159,241h-2c.2,1.21-.02,1.79-1,2.5l.5.5,2.5-3ZM192.5,241c-.65,0-.65,1,0,1s.65-1,0-1ZM222,243l-2-2v2h2ZM238,241h-2l1.5,2h.5v-2ZM274,241c-2.4-.37-4.24.48-4,3l2.5,1,1.5-1.5v-2.5ZM324,241c-2.61-.46-2.6,1.93-4,3.5l1.5,1.5h2.5v-5ZM364,248c6.56.89,7.77-2.39,3.5-7-2.37,2.22-4.21,3.45-3.5,7ZM380.5,241c-.65,0-.65,1,0,1s.65-1,0-1ZM215.5,242c-.65,0-.65,1,0,1s.65-1,0-1ZM218.5,242c-.65,0-.65,1,0,1s.65-1,0-1ZM352,242h-4v2c1.88.24,3.47,0,4-2ZM470,242c-.36,5.04,3.38,5.17,6,1.5l-6-1.5ZM536,246h-2l2,2v-2l3-.5-6-3.5,3,4ZM169,247v-4h-1v4h1ZM254,243h-2l-1,3c1.9.29,3.29-1.1,3-3ZM438.5,243l-2.5,2.5,2.5,2.5,1.5-1.5v-2l-1.5-1.5ZM444.5,243c-.65,0-.65,1,0,1s.65-1,0-1ZM530.26,243.98c0-.68-.55-1.24-1.24-1.24s-1.24.55-1.24,1.24.55,1.24,1.24,1.24,1.24-.55,1.24-1.24ZM166,249c.53-.53-1.75-5-2.5-5-1.91,1.27-1.58,2.86-1.5,5h4ZM347,247v-3h-.5l-1.5,1.5v1.5h2ZM160.26,245.98c0-.68-.55-1.24-1.24-1.24s-1.24.55-1.24,1.24.55,1.24,1.24,1.24,1.24-.55,1.24-1.24ZM281.5,245c-.65,0-.65,1,0,1s.65-1,0-1ZM292.5,245c-.65,0-.65,1,0,1s.65-1,0-1ZM349.5,245c-.65,0-.65,1,0,1s.65-1,0-1ZM487,248v-1.5l-2-1.5-1,3.5.5.5,2.5-1ZM494.45,244.82l-.68,4.05,2.19.36.68-4.05-2.19-.36ZM519,245h-2v2l2-2ZM154,246c-2.59-.51-5.08,1.41-5,4,.27.3,2.86-1.72,3.5-2,1.09-.48,1.94.83,1.5-2ZM289.5,246c-.65,0-.65,1,0,1s.65-1,0-1ZM451,250v-2.5l-1.5-1.5-2.5,1v3h4ZM522,248v-2l-2,1.5v.5h2ZM531.5,246c-.65,0-.65,1,0,1s.65-1,0-1ZM296.5,247c-.65,0-.65,1,0,1s.65-1,0-1ZM390,250c.4.5,2.65-1.75,2-3-.4-.5-2.65,1.75-2,3ZM477,247h-2v1h2v-1ZM174,251l2-1.5-1.5-1.5h-.5v3ZM408,250v-2h-1v2h1ZM420,250v-2h-1v2h1ZM537.5,248c-.65,0-.65,1,0,1s.65-1,0-1ZM160,252l-3.5-3h-1c-1.5,1.77-5.73,1.51-5.5,5l10-2ZM191,252c.32-1.5-.44-2.06-1.5-3h-2.5v2l4,1ZM196,249h-3c-.29,1.9,1.1,3.29,3,3v-3ZM361.5,249c-.65,0-.65,1,0,1s.65-1,0-1ZM397,249c-3.1-.21-3.27,2.25-3,5h1c-.47-2.33,2.47-2.67,2-5ZM412,253l6-2.5-3.5-.5-2.5,3ZM166,250h-3v2h3v-2ZM212,252c-.53-2.01-2.12-2.24-4-2v2h4ZM357,250h-1.5l-1.5,2h3v-2ZM431,252v-2h-1v2h1ZM181,253h-3v3h2.5l1.5-1.5-1-1.5h2v-2h-3l1,2ZM201,251v2h4v-2h-4ZM218.5,251c-.65,0-.65,1,0,1s.65-1,0-1ZM466,255c.36-1.76-1.36-2.24-1-4h-.5c-1.54,1.1-1.73,2.14-1.5,4h3ZM531,251h-2v1h2v-1ZM550,253v-2h-1v2h1ZM177,255v-1.5l-2-1.5v3h2ZM144,253l-7.5,1c-3.27,2.24-7.02,2.77-10,5-1.92,1.43-3.59,3.93-5.5,5.5l3,4c-.7.68-2.17-.76-3-1-1.27-.37-1.2.23-2,1l-1,12.5,5-3.5c3.93-8.95,9.63-15.38,17.5-21.5.21-.16.8.16,1,0,.89-.71,2.16-1.9,2.5-3ZM437.5,253c-.65,0-.65,1,0,1s.65-1,0-1ZM516,256c.29-1.9-1.1-3.29-3-3v3l1.5-1,1.5,1ZM160,254l-11,1-1,6c3.95-.4,6.94,1.62,11,1l1-8ZM165,254c-4.48-.57-4.23,2.49-4,6l3-2.5,1-3.5ZM190,254h-2l1.5,2h.5v-2ZM205,256l-1.5-2h-1l-1.5,1.5v.5h4ZM235,254h-2v2l2-2ZM243,260c.07-1.75-.54-3.47,1-4.5l-2-1.5v6h1ZM257,256v-2h-1v2h1ZM293,254h-2v2l2-2ZM423.5,254c-.65,0-.65,1,0,1s.65-1,0-1ZM312,255h-2l1.5,2h.5v-2ZM417,257l-1.5-2-2.5,1.5,1.5,1.5,2.5-1ZM537,257v-2h-1v2h1ZM544.5,255c-.65,0-.65,1,0,1s.65-1,0-1ZM548,260l2-3.5-2.5-1.5-2.5,2.5,3,2.5ZM556,255h-4l1,3h2l1-3ZM168,256l-3,2.5-1,3.5,5-1-1-5ZM275.5,256c-.65,0-.65,1,0,1s.65-1,0-1ZM281,258v-2h-1v2h1ZM321.5,256c-.65,0-.65,1,0,1s.65-1,0-1ZM337,256h-2v1h2v-1ZM420,258v-2h-1v2h1ZM561,256l-3.5,1-1.5,4.5,2.5,3.5,2.5-9ZM144,261c2.01-.53,2.24-2.12,2-4-2.01.53-2.24,2.12-2,4ZM407,260v-3h-.5l-1.5,1.5v1.5h2ZM452,257c-2.4-.37-4.24.48-4,3,.83.83,3.78-1.67,4-3ZM518.5,257l-4.5,3.5,3.5,2.5c.93-1.48,3.95-.65,4.5-2.5.46-1.55-.33-2.59-1.5-3.5h-2ZM566,282c-.28-1.58.82-1.95,1-3.5.26-2.22.87-4.75,1-6,.19-1.8.25-5.27,0-7-.05-.37-.91-.61-1-1-.35-1.61.02-3.28-1-5-.5-.84-3.25-3.35-4-2.5l-2,10.5-1,1,4,11,3,2.5ZM172,260v-2h-1v2h1ZM257,258c-1.6,0-5.46-.49-6,1.5s1.27,2.73,1,4.5c2.68-1.21,3.3-3.87,5-6ZM357,258h-3v2h1.5l1.5-2ZM552,258l-3,1.5,2.5,4.5.5-6ZM324,264v-5l-3,2.5,1,2.5h2ZM376,261v-2h-1v2h1ZM390,260l-4-1-1,3.5c.8.77.73,1.37,2,1,1.63-.48,3.34-1.42,3-3.5ZM456,259c-.83-.83-3.78,1.67-4,3,2.4.37,4.24-.48,4-3ZM138.5,260l-7.5,7.5-3.5,6.5c3.8-3.24,6.28-7.03,9.5-10.5l1.5-3.5ZM194.26,260.98c0-.68-.55-1.24-1.24-1.24s-1.24.55-1.24,1.24.55,1.24,1.24,1.24,1.24-.55,1.24-1.24ZM275.5,260c-.65,0-.65,1,0,1s.65-1,0-1ZM311,260h-2l-1,3.5,3,1.5v-5ZM543,262v-2l-2,1.5v.5h2ZM137,269l4-3.5,1-4.5c-2.43,1.81-4.49,5.04-5,8ZM221,261h-1.5l-1.5,2h3v-2ZM231.5,261c-.65,0-.65,1,0,1s.65-1,0-1ZM334,264v-1.5l-2-1.5v3h2ZM341,261h-2v1h2v-1ZM379,261l-3,1.5c-.49,2.22,1.07,3.06,2.5,4.5l.5-6ZM504,261h-2.5l-1.5,1.5,1.5,1.5h2.5v-3ZM178,262h-2v1h2v-1ZM419,262l-5,1.5,3.5,4.5,1.5-6ZM489,266v-2.5l-1.5-1.5-3.5,2.5c1.27,1.91,2.86,1.58,5,1.5ZM146,263c-2.67-.48-1.6.53-2.5,2-.6.98-2.01,1.19-1.5,3,1.26.07,2.33-.58,3.5-1s.26-2.97.5-4ZM156,265c-1.35-3.51-6.17-1.53-9-2l1.5,4,7.5-2ZM169,263l-6,2.5c2.74,4.19,6.08,2.16,6-2.5ZM205,266v-1.5l-2-1.5v3h2ZM211,263h-1.5l-1.5,2h3v-2ZM228,265v-2h-2v3l2-1v2h2v-3l-2,1ZM267.87,265.23c0-1.16-.94-2.1-2.1-2.1s-2.1.94-2.1,2.1.94,2.1,2.1,2.1,2.1-.94,2.1-2.1ZM272,265v-2h-1v2h1ZM557,268l-2-5-2,2.5c1.33,1.2,2.1,2.89,4,2.5ZM343,264h-2v1.5l1.5,1.5h.5v-3ZM412,269v-3.5l-2-1.5-1,2.5v1l3,1.5ZM546,267l2-1.5-1.5-1.5h-.5v3ZM235,265h-2v1h2v-1ZM539,267l.5-2-1.5,1.5c1.5.82.72,2.02,1,3,.25.86,3.75,3.31,4.5,4.5,2.94-2.22,1.05-5.26.5-8l-5,1ZM287,266v2h4v-2h-4ZM339,267l-3.5-1-2.5,3,6,1v-3ZM370,269v-3h-.5l-1.5,1.5v1.5h2ZM456,271l-1-5-3,1c.55,1.26,1.39,1.89,1,3.5l3,.5ZM373,267l-1,4,1.88.47,1-4-1.88-.47ZM550,267h-2l-1,4c1.5.32,2.06-.44,3-1.5v-2.5ZM152,268c-1.46.77-3,1.16-4,2.5l1.5,1.5c1.2-1.33,2.89-2.1,2.5-4ZM160,270c.09-1.02.23-2.84-1.5-2-1.19.58-4.74,4.62-3.5,6,2.04-.9,2.96-3.02,5-4-.15,1.81-1.07,2.36-1,4l5-3-2.5-3-.5,2c-.14.16-.71-.14-1,0ZM197.26,268.98c0-.68-.55-1.24-1.24-1.24s-1.24.55-1.24,1.24.55,1.24,1.24,1.24,1.24-.55,1.24-1.24ZM218,268h-5v4c.55.57,5.98-1.72,5-4ZM388,272l1-4-2,1.5v2.5h1ZM395,268c-2.58-.08-4.51,2.39-4,5,3.35.32,2.64-2.74,4-5ZM438.5,268c-.65,0-.65,1,0,1s.65-1,0-1ZM145.5,269c-.65,0-.65,1,0,1s.65-1,0-1ZM188,269l-6,1.5,5.5,3.5.5-5ZM211,272c.29-1.9-1.1-3.29-3-3l3,3ZM264,269h-2v2l2-2ZM464,269h-2v1h2v-1ZM546,279c4.86.94,7.75-2.04,9-6.5l-3.5-3.5-4.5,5.5-1,4.5ZM144,270h-3v1h3v-1ZM260.5,270c-.65,0-.65,1,0,1s.65-1,0-1ZM288,272v-2h-1v2h1ZM398,272v-2h-1v2h1ZM518.5,270c-.41.11-.96,1.16-1.5,1.5,1.65,2.24,5.35,2.24,7,0-.99-1.64-3.72-1.99-5.5-1.5ZM135,274c.4.5,2.65-1.75,2-3-.4-.5-2.65,1.75-2,3ZM193,271h-2c.31,1.18,1.42,1.49,1,3h1v-3ZM245,273v-2h-1v2h1ZM283,271h-2v2l2-2ZM300,271l-4,2.5,2.5,1.5,1.5-1.5v-2.5ZM360,271h-2v4h1l1-4ZM424.5,271c-.65,0-.65,1,0,1s.65-1,0-1ZM442.5,271c-.65,0-.65,1,0,1s.65-1,0-1ZM129,278c1.47-1.85,3.83-3.65,4-6l-6,5.5c-.03.92,1.28.48,2,.5-1.6,2.02-2.79,3.53-4,5.5-1.02,1.66-1.85,3.42-3,5v2c.12.38.83.58,1,1,1.28,3.18,1.91,4.14,4.5,6.5.79.72,1.76,2.36,3,2,1.66-1.12,1.37-1.83,1.5-3.5.16-2.08.18-4.93,0-7-.19-2.28-1.63-5.32-1-9,.07-.39,1.55-.9,1-2.5-.99-.02-2.01.03-3,0ZM145,272c-6.36-1.03-6.26,4.93-6,10l6-6.5v-3.5ZM179,277c.24-2.58.24-5.17-3-5l-1,6,4-1ZM268,273c-.51,6.97,8.25,3.83,3.5-1l-3.5,1ZM335,275c.31-3.17-3.38-4.27-5-1.5v.5l5,1ZM480,274v-2h-1v2h1ZM533,272l2.5,7,.5-4.5-3-2.5ZM152,276v-3h-1c.42,1.51-.69,1.82-1,3h2ZM172,278l2-1.5v-3.5l-2,1.5v3.5ZM208,275l-1.5-2-1.5,1.5v.5h3ZM438,273h-2c.42,1.51-.69,1.82-1,3h3v-3ZM501,273c-1.25-.65-3.5,1.6-3,2,1.25.65,3.5-1.6,3-2ZM510,273v1.5l1.5,1.5,1.5-1.5-1.5-1.5h-1.5ZM227.26,274.98c0-.68-.55-1.24-1.24-1.24s-1.24.55-1.24,1.24.55,1.24,1.24,1.24,1.24-.55,1.24-1.24ZM376,274l-1,2.5.5.5,1.5-3h-1ZM392,274l-3,1.5v2.5l3-1.5v-2.5ZM442,274h-2l-1,3c1.9.29,3.29-1.1,3-3ZM474.5,274c-.65,0-.65,1,0,1s.65-1,0-1ZM136,286c3.76-1.76,1.36-7.73,2-11l-4,1c.55,1.61-.93,2.11-1,2.5-.69,3.91.5,9.37,0,13.5l3-3.5c-1.53-3.17-.91-6.74-1-10.5l1,8ZM185,275h-2v1h2v-1ZM290,278h1.5l1.5-1.5-1.5-1.5h-1.5v3ZM421.5,275l-1.5,1.5,1.5,1.5,1.5-1.5-1.5-1.5ZM452.26,275.98c0-.68-.55-1.24-1.24-1.24s-1.24.55-1.24,1.24.55,1.24,1.24,1.24,1.24-.55,1.24-1.24ZM149,276c-1.9-.29-3.29,1.1-3,3h3v-3ZM161,276c-1.06-.91-4.5,2.56-5,4,3.28.61,3.83-1.38,5-4ZM167,282l-.5-6-2.5,4.5,3,1.5ZM381,280l-1-4-2,1.5v3.5l3-1ZM462.5,276c-.65,0-.65,1,0,1s.65-1,0-1ZM465.5,276c-.65,0-.65,1,0,1s.65-1,0-1ZM500.26,276.98c0-.68-.55-1.24-1.24-1.24s-1.24.55-1.24,1.24.55,1.24,1.24,1.24,1.24-.55,1.24-1.24ZM557.25,275.25l-3.75,3.75,1.5,1.5,3.75-3.75-1.5-1.5ZM124.5,277c-.65,0-.65,1,0,1s.65-1,0-1ZM219,279v-2l-2,1.5v.5h2ZM409.5,277l-1.5,1.5,1.5,1.5,1.5-1.5-1.5-1.5ZM528.5,277c-.65,0-.65,1,0,1s.65-1,0-1ZM190,278c-1.25-.65-3.5,1.6-3,2,1.25.65,3.5-1.6,3-2ZM500,282c1.5.32,2.06-.44,3-1.5v-2.5c-1.33.22-3.83,3.17-3,4ZM510,279c-1.51.42-1.82-.69-3-1v3h1.5l1.5-2ZM179,279h-3v2h1.5l1.5-2ZM494.5,279c-.65,0-.65,1,0,1s.65-1,0-1ZM161.5,280c-.65,0-.65,1,0,1s.65-1,0-1ZM209.26,280.98c0-.68-.55-1.24-1.24-1.24s-1.24.55-1.24,1.24.55,1.24,1.24,1.24,1.24-.55,1.24-1.24ZM220,280h-2v1h2v-1ZM120,288l1-7-3,3.5v1l2,2.5ZM151,281h-4v4l4-4ZM360.26,281.98c0-.68-.55-1.24-1.24-1.24s-1.24.55-1.24,1.24.55,1.24,1.24,1.24,1.24-.55,1.24-1.24ZM514.5,281c-.65,0-.65,1,0,1s.65-1,0-1ZM551,281l-4,1v2c.83.83,3.78-1.67,4-3ZM559,281l-11,4,2,9c3.3.82,4.36-2.49,6.5-4,.32-.22,1.56-.03,2.5-1.5.13-.2-.15-.68,0-1,.2-.43.92-.64,1-1,.52-2.26-.88-3.46-1-5.5ZM139,293c3.09-2.63,10.03-6.9,5.5-11-4.81,1.77-6.07,6.33-5.5,11ZM181,284l-1.5-2-1.5,1.5v.5h3ZM186.5,282c-.65,0-.65,1,0,1s.65-1,0-1ZM352,282h-3v2h3v-2ZM417,282c-2.36-.85-6.35,5.67-6,6,2.43.4,2.74-2.53,5-2l1-4ZM245,289c.5-1.81-.87-2.01-1.5-3-.92-1.45-.97-3.4-3.5-3-.06,2.68-.55,4.88,2,6.5,1.07.68,1.4-.98,3-.5ZM279.26,283.98c0-.68-.55-1.24-1.24-1.24s-1.24.55-1.24,1.24.55,1.24,1.24,1.24,1.24-.55,1.24-1.24ZM280.5,283c-.65,0-.65,1,0,1s.65-1,0-1ZM342,283h-4l-1,5c2.76-.32,5.75-1.65,5-5ZM476,283v2.5l3.5,1.5,1.5-1.5c-1.56-1.71-2.5-3.01-5-2.5ZM513,284l-2.5-1-2.5,1c-.27,2.24.87,4.49,2.5,6,3.36-.3,2.47-3.58,2.5-6ZM335,287v-3h-.5l-1.5,1.5v1.5h2ZM393.5,284l-1.5,1.5.5.5,1.5-1.5-.5-.5ZM430,284l-6,1-1,5c1.05,1.13,6.49-4.71,7-6ZM521,284l-4,1v3c1.73.7,4.92-3.05,4-4ZM562,294c2.09-.74,3.08-3.64,3-5.5l1.5-4.5-3.5,4.5-1,5.5ZM272,289v-3h-.5l-1.5,1.5,2,1.5ZM503.26,286.98c0-.68-.55-1.24-1.24-1.24s-1.24.55-1.24,1.24.55,1.24,1.24,1.24,1.24-.55,1.24-1.24ZM505.5,286l-1.5,1.5v1l2.5,2.5,1.5-1.5-2.5-3.5ZM532,286h-2v1h2v-1ZM122,339c-.5-4.12.7-9.6,0-13.5-.07-.38-.9-.6-1-1-2.53-10.17-3.63-16.03-2-27,.23-1.54-.16-3.39,0-5l-3.5-5.5c-1.01,1.23-2.59,2.27-3.5,3.5-3.2,4.32-6.54,10.87-8,16-.12.4-.92.62-1,1-.24,1.18.22,2.78,0,4-.07.38-.94.63-1,1-.18,1.23-.18,3.77,0,5,.06.37.92.61,1,1,.38,1.89.49,4.08,1,6,.33.83,4.92,7.13,5.5,7.5,1.67,1.07,3.61,2.01,5,4l7.5,3ZM146,295c.51-1.38,5.39-6.52,4-8-1.84-.39-2.37,1.01-3.5,2-1.53,1.34-3.73,3.07-3.5,5h-2l1.5,3c.72-1.34,1.72-.76,2.5-1-.24.76.34,1.78-1,2.5l3,3.5-.5-3,1.5-4h-2ZM283,289v-2h-1v2h1ZM293.5,287c-.65,0-.65,1,0,1s.65-1,0-1ZM298,287h-2v3h2v-3ZM309,292l-.5-5c-2.99,2.22-3.65,4.65.5,5ZM401,287l-3,1.5v2.5l3-1v-3ZM523.5,287c-.65,0-.65,1,0,1s.65-1,0-1ZM546,287l-4,1c.16,1.43-.25,3.16,0,4.5.07.37.87.59,1,1,.19.59-.18,1.37,0,2,.14.49,2.46,2.77,3.5,2.5l2.5-1c.81-3.82-2.54-6.37-3-10ZM163,288c-3.08-.08-6.74,1.27-6,5,.74.74,6.86-2.53,6-5ZM535,289l-4-1c-.32,1.5.44,2.06,1.5,3h1l1.5-2ZM180.5,289c-.65,0-.65,1,0,1s.65-1,0-1ZM194,292v-3c-1.18.31-1.49,1.42-3,1l1.5,2h1.5ZM276,294c1.9.39,2.67-1.3,4-2.5l-1.5-2.5h-2.5v5ZM354,293l1-4-2,1.5v2.5h1ZM436,289l-4,3.5-1,4.5,4-2.5,1-5.5ZM291,290v3.5l1.5,2.5c3.02-2.26,1.11-4.81-1.5-6ZM350,290h-2v2l2-2ZM450,292v-2c-1.18.31-1.49,1.42-3,1v1h3ZM528,290c-2.4-.37-4.24.48-4,3l4-1v-2ZM222,295v-4h-.5l-1.5,1.5v1l2,1.5ZM359,294c.4.5,2.65-1.75,2-3-.4-.5-2.65,1.75-2,3ZM482,291h-3v1h3v-1ZM501,294c.29-1.9-1.1-3.29-3-3-.29,1.9,1.1,3.29,3,3ZM137,298v-6h-.5l-1.5,1.5v4.5h2ZM151,298l-.5-6-2.5,6h3ZM173,292h-2v4c2.01-.53,2.24-2.12,2-4ZM250,293l-3.5-1-1.5,3,2.5,1,2.5-3ZM290,296l-1-4-2,1.5,1,2.5h2ZM304,295v-3h-1v3h1ZM442,294v-2h-1v2h1ZM537,292h-3c-.29,1.9,1.1,3.29,3,3v-3ZM188,295l-1.5-2h-1.5v2h3ZM319,296v-3h-1v3h1ZM428,293h-2v1h2v-1ZM527,297c.03.66-.02,1.34,0,2h8c.24-2.91-4.36-8.48-6.5-5l-.5,3c-.12.14-.66-.11-1,0-.05-.99.03-2.01,0-3h-2.5c-1.57,1.4-3.96,1.39-3.5,4l-1.5-1-1.5,2h8v-2c.12-.14.66.11,1,0ZM559,293c-1.93-.49-2.34,1.21-3.5,2-.24.16-.8-.15-1,0-.57.42-3.43,3.26-3.5,3.5-.45,1.65.31,4.59,0,6.5l5-4.5c.64-2.46,3.61-4.26,3-7.5ZM161.5,294c-.65,0-.65,1,0,1s.65-1,0-1ZM418,294h-2v3l2-1.5v-1.5ZM404,299v-4h-.5c-1.34,1-1.73,2.54-2.5,4h3ZM414.5,295l-1.5,1.5.5.5,1.5-1.5-.5-.5ZM446,295h-2v3l2-1.5v-1.5ZM122,296c.95,4.1,2.35,8.25,5.5,11,4.53-4.1-2.41-8.37-5.5-11ZM160,296c-3.75-.5-4.4,1.55-4,5,1.56,0,4.25-4.79,4-5ZM182,296l-.56,2.24,4.35,1.09.56-2.24-4.35-1.09ZM377,299c.65-1.25-1.6-3.5-2-3-.65,1.25,1.6,3.5,2,3ZM381,298l-2-2v2h2ZM244,297h-2v1h2v-1ZM140,306c-.3,2,.14,3.92,2.5,4,2.3-2.22,4.21-6.33,0-7l-2.5,3c-.75-1.82,1.29-3.47,1-4.5-.11-.38-.84-.59-1-1-.52-1.38,1.19-3.08-2-2.5l-.5,3-.5,3.5,3,1.5ZM164.5,298c-.65,0-.65,1,0,1s.65-1,0-1ZM495,302v-2.5l-1.5-1.5-1.5,2.5,3,1.5ZM125,318c.19-1.72.5-3.94,1-5.5.13-.41.89-.61,1-1l-5-10-2-2.5v15.5c0,.22.77,3.13,1,4,.16.59,1.75,1.67,1,3.5,1.23,1.42,1.89.07,2-1.5s-.8-2.27,1-2.5c-.16,1.44.22,3.13,0,4.5-.07.46-1.56,1.49-1,4,1.08,1.58,2.07,3.33,3,5,.25.44-.16,1.16,0,1.5-.54-.6-2.63-.84-2-3l-2,1.5c.22,1.9-.31,4.22,0,6,.07.39,1.55.89,1,2.5l8,2c.49-1.93-1.21-2.34-2-3.5-.65-.96-2.77-5.25-3-5.5.07.15,2.54,2.17,3,1.5l-2-4c.9-2.02-.94-4.54-1-5-.23-1.86.1-4.05,0-6-.09-1.81.07-1.77-2-1.5ZM134,302v-2l-2,1.5v.5h2ZM152,300c-3.08-.44-4.44.98-4,4l4,1v-5ZM180.5,300c-.65,0-.65,1,0,1s.65-1,0-1ZM549,300c-2.71-.39-4.91,3.57-1,3l-1,5c1.81.25,2.82-.7,3-2.5.21-2.19-1.47-3.27-1-5.5ZM166,303v-2h-1v2h1ZM172,301h-2v1h2v-1ZM264,307c.08-3.08-1.27-6.74-5-6,1.2,2.5,1.33,6.01,5,6ZM281,304c1.9.29,3.29-1.1,3-3l-3,1v2ZM553,312c.98-.31,2.5-1.7,3-2.5.3-.47.7-2.39,1-3,.82-1.67,2.58-3.08,2-5.5l-4,4.5-2,6.5ZM427,307l2-1.5v-3.5h-1c.54,2.17-1.11,3.14-1,5ZM467,302h-2v1h2v-1ZM478.5,302c-.65,0-.65,1,0,1s.65-1,0-1ZM524,302h-3v3c1.9.29,3.29-1.1,3-3ZM535,302l-10,1-1,3.5,6.5,4.5c.67-1.8,3.35-1.85,3.5-2,.17-.17-.22-.96,0-1.5.18-.43.94-.65,1-1,.25-1.34-.16-3.07,0-4.5ZM542,302l-2,.5-1.5,4.5,4.5-2-1-3ZM176,306v-3h-.5l-1.5,1.5,2,1.5ZM182.26,303.98c0-.68-.55-1.24-1.24-1.24s-1.24.55-1.24,1.24.55,1.24,1.24,1.24,1.24-.55,1.24-1.24ZM185.5,303c-.65,0-.65,1,0,1s.65-1,0-1ZM212,306h1.5l1.5-1.5-1.5-1.5h-1.5v3ZM409.5,303c-.65,0-.65,1,0,1s.65-1,0-1ZM445,304l1.5,3,1.5-1.5v-2.5l-3,1ZM253,307c.4.5,2.65-1.75,2-3-.4-.5-2.65,1.75-2,3ZM293,307c.29-1.9-1.1-3.29-3-3l1,2.5-1,1,3-.5ZM366,304c-2.1-.37-3.63.33-5.5,1-1.08.38-.32,2.08-.5,3,.79.81,6.92-1.35,6-4ZM247,308v-3h-1v3h1ZM341,305l-3,1.5,1,3.5,2-1.5v-3.5ZM384,305h-3v.5l1.5,1.5h1.5v-2ZM466,305h-1.5l-1.5,1.5,1.5,1.5,1.5-1.5v-1.5ZM131,309v-3h-1v3h1ZM148,306h-2l-1,3c1.9.29,3.29-1.1,3-3ZM168,311l-1-5-3,1v3l4,1ZM260,309l-3-3c-.29,1.9,1.1,3.29,3,3ZM287,306h-3v2h1.5l1.5-2ZM422,309c.4.5,2.65-1.75,2-3-.4-.5-2.65,1.75-2,3ZM438,306h-2l-1,4c1.33-.22,3.83-3.17,3-4ZM483,308v-2h-1v2h1ZM505,309c.29-1.9-1.1-3.29-3-3l3,3ZM175.5,307c-.65,0-.65,1,0,1s.65-1,0-1ZM272.5,307c-.65,0-.65,1,0,1s.65-1,0-1ZM458.5,307c-.65,0-.65,1,0,1s.65-1,0-1ZM478.5,307c-.65,0-.65,1,0,1s.65-1,0-1ZM504,313c.48-1.92-1.19-2.34-2-3.5-.3-.42-.3-2.52-2-2.5-.13,2.47,1.03,6.26,4,6ZM544,310l-1.5-3-5.5,3v4l5-2v-2h2ZM136,314c.53-2.9-.65-5.91-4-6l-.5,3c1.41,1.16,2.34,3.33,4.5,3ZM172,310v-2l-2,1.5v.5h2ZM184.26,308.98c0-.68-.55-1.24-1.24-1.24s-1.24.55-1.24,1.24.55,1.24,1.24,1.24,1.24-.55,1.24-1.24ZM231,310v-2h-1v2h1ZM345,310v-2h-1v2h1ZM529,313c-1.07-2.55-3.93-3.37-6-5-.46,3.83,2.51,5.61,6,5ZM162,309c-1.5-.32-2.06.44-3,1.5v2.5h2l1-4ZM441,312c.4.5,2.65-1.75,2-3-.4-.5-2.65,1.75-2,3ZM468,309h-2v3h2v-3ZM335.5,310c-.65,0-.65,1,0,1s.65-1,0-1ZM431,310l-1,2.5.5.5,1.5-3h-1ZM499,314c.31-1.76-1.36-3.29-3-4-.31,1.76,1.36,3.29,3,4ZM520,310h-2v4c2.01-.53,2.24-2.12,2-4ZM549.5,310c-.65,0-.65,1,0,1s.65-1,0-1ZM155,311h-2c-.54,2.17,1.11,3.14,1,5h1v-5ZM218,313v-2h-1v2h1ZM510,311h-2c-.27,2.75-.1,5.21,3,5,.54-2.17-1.11-3.14-1-5ZM545,314v-3l-3,2.5v.5h3ZM166,312h-3v2h3v-2ZM228.5,312l-1.5,1.5.5.5,1.5-1.5-.5-.5ZM525,316c-.48-1.66-2.52-2.02-2-4h-1v4h3ZM533,315c.4.5,2.65-1.75,2-3-.4-.5-2.65,1.75-2,3ZM149,322v-4.5l1-4.5-5,4.5v1l4,3.5ZM199,313h-2v2l2-2ZM310.91,312.65l-3.57,5.96,2.79,1.68,3.57-5.96-2.79-1.68ZM374,313c-1.72-.64-4.89,2.91-4,4l4-1v-3ZM423,313c-.92.18-2.61-.58-3,.5-.54,1.5-1.3,2.81-1,4.5,3.82.51,4.39-1.67,4-5ZM132,334c-.14-2.95,2.55-6.16,0-8.5,2.6-1.53,1.55-3.1,2-5,.15-.64,1.65-1.63,1-4l-5-2.5,2,9.5-3-1.5,1,9.5,2,2.5ZM159,316v-2h-1v2h1ZM538,317c1.9.29,3.29-1.1,3-3l-3,3ZM549.5,314c-.65,0-.65,1,0,1s.65-1,0-1ZM163,315c-.64,3,1.79,4.13,3.5,6l2.5-4.5-6-1.5ZM178.5,315c-.65,0-.65,1,0,1s.65-1,0-1ZM204,317v-2h-1v2h1ZM234.5,315c-1.87,1.05-1.16,2.27-1.5,3.5-.57,2.08-1.97,2.72.5,4.5l3-6-2-2ZM458,315h-3v3l3-3ZM515.26,315.98c0-.68-.55-1.24-1.24-1.24s-1.24.55-1.24,1.24.55,1.24,1.24,1.24,1.24-.55,1.24-1.24ZM534,316c-2,.27-1.85-1.41-4-.5-1.7.71-2.4.07-2,2.5l6-2ZM153,316c-1.17-1.35-1.92-.12-2,1.5-.1,1.99.07,4.01,0,6l3,3.5c-.19-2.43.28-5.13,0-7.5-.18-1.55-1.28-1.92-1-3.5ZM175,323c-.03-1.98,1.02-1.76.5-4-.21-.92-.29-2.54-1-3-2.3,1.69-2.38,6.1.5,7ZM185,316h-2v2l2-2ZM230,320v-4h-1v4h1ZM261,316h-1.5l-1.5,1.5,1.5,1.5,1.5-1.5v-1.5ZM139,317h-2c-.52,2.48.79,3.95,1,6h1v-6ZM180,321l2-1.5v-2.5h-1l-1,4ZM199,317h-2v1h2v-1ZM466,319v-2h-1v2h1ZM544,321c2.01-.53,2.24-2.12,2-4-2.01.53-2.24,2.12-2,4ZM160,318l-.5,3c.8,1.11,1.95,5.68,4,5l2.5-3.5c-.95-.78-4.89-5.7-6-4.5ZM542,323l-.5-5-5,2-3.5,5,6.5-1,2.5-1ZM170,325l1-6-4,5.5,3,.5ZM398,319h-1.5l-1.5,1.5,1.5,1.5h1.5v-3ZM496.5,319c-.65,0-.65,1,0,1s.65-1,0-1ZM551,327l-.5-8c-2.25,1.68-2.51,7.01.5,8ZM143,320c-4.72-.46.16,4.23,2,5l-2-5ZM260,320h-2v1h2v-1ZM508,320h-3v.5l1.5,1.5h1.5v-2ZM188,321h-2v2l2-2ZM355.5,321c-.65,0-.65,1,0,1s.65-1,0-1ZM458,323v-2h-1v2h1ZM523,321h-3v.5l1.5,1.5h1.5v-2ZM533,321l-4,1c-.29,1.9,1.1,3.29,3,3l1-4ZM298,322h-2v1h2v-1ZM528,322h-3v.5l1.5,1.5h1.5v-2ZM547,330l-.5-8c-3.45,2.59-3.38,6.64-5.5,10,.92.79,4.58-2.52,6-2ZM183,325v-2h-1v2h1ZM473,323c-1.9-.29-3.29,1.1-3,3l3-3ZM148,335c-1.15-3.01-3.28-5.1-5-7.5-.16-.22.16-.79,0-1-.64-.87-1.94-2.17-3-2.5-.82,5.4,2.71,10.17,8,11ZM146.5,324c-.65,0-.65,1,0,1s.65-1,0-1ZM160,329c.54-2.17-1.11-3.14-1-5h-1v3.5l2,1.5ZM217,324h-2v2l2-2ZM311,326v-2h-1v2h1ZM362.5,324c-.65,0-.65,1,0,1s.65-1,0-1ZM394,324h-2l1.5,2h.5v-2ZM440,324c-1.9-.29-3.29,1.1-3,3h2l1-3ZM136.5,325c-.65,0-.65,1,0,1s.65-1,0-1ZM269,327v-2l-2,1.5v.5h2ZM367,325h-3v2h1.5l1.5-2ZM378,325c-1.9-.29-3.29,1.1-3,3l3-3ZM456,327v-2h-1v2h1ZM501,327v-2l-2,1.5v.5h2ZM508,329c.5-3.75-1.55-4.4-5-4-.08,2.58,2.39,4.51,5,4ZM541,325l-6.5,2c-1.94-.57-5.25,5.27-4.5,6h7.5c1.13-.31,4.34-7.17,3.5-8ZM358.5,326c-.65,0-.65,1,0,1s.65-1,0-1ZM490,330v-2.5l-1.5-1.5-1.5,1.5,3,2.5ZM136,341h-2l1.5,2,1.5-1,3,.5-2-4-2-11.5-2,3.5c-.25,4.21-.24,6.93,2,10.5ZM148,327h-2l1.5,2h.5v-2ZM296,327h-2v1h2v-1ZM308,330v-3h-.5l-1.5,1.5v1.5h2ZM512,327h-2v3h2v-3ZM521.96,326.76l-3.32.55.81,4.86,3.32-.55-.81-4.86ZM529,327h-4l1.5,6c1.63-1.51,2.77-3.76,2.5-6ZM170,328h-2v1h2v-1ZM195,330v-2l-2,1.5v.5h2ZM154,334c.58-.58-1.75-6-4-5-.51,2.61,1.42,5.08,4,5ZM184,329h-2v3h2v-3ZM188,329h-2v3h2v-3ZM335.5,329c-.65,0-.65,1,0,1s.65-1,0-1ZM435,331l-1.5-2-1.5,1.5v.5h3ZM484.5,329c-2.19.65-4.61,9.58,0,10,3.62.33,5.34-4.44,4.5-7.5-.3-1.1-2.98-2.95-4.5-2.5ZM247,330h-3v2c1.51-.42,1.82.69,3,1v-3ZM407,332v-2h-1v2h1ZM504,330h-3c.39,2.92-1.21,6.86,1.5,9,2.25-1.66,3.14-3.65,2.5-6.5-.1-.44-1.55-.88-1-2.5ZM155.5,331c-.65,0-.65,1,0,1s.65-1,0-1ZM178,337v3h2v-3h-2l1-2.5c-1.55-.5-.18-4.58-2.5-3.5-1.71.8-1.9,4.02-1.5,5.5.65,2.37,2.89.37,3,.5ZM192.5,331c-.65,0-.65,1,0,1s.65-1,0-1ZM212,335l2-1.5v-1l-1.5-1.5h-.5v4ZM507,333v-2h-1v2h1ZM548,346.5c.41-5.01-.3-10.44,0-15.5l-7.5,3c-3.79,5.28-7.85,9.01-13.5,12.5.94,8.97-4.37,15.94-11.5,20.5-.53.34-.95,1.08-1.5,1.5-.76,5.07-2.11,9.3-5,14-.16.25.15.78,0,1-2.08,3.13-6.64,5.6-9,8.5,3.13-.42,5.37,1.58,8.5,1,.39-.07.63-.95,1-1,2.98-.37,4.11-.29,7-1,17.69-4.38,26.2-19.01,29.5-35.5.44-2.21,1.84-6.97,2-9ZM162,337l1-3.5-1.5-1.5-2.5,1c-.37,2.4.48,4.24,3,4ZM206.5,332c-.65,0-.65,1,0,1s.65-1,0-1ZM442,332h-2v2l2-2ZM479,334v-2h-1v2h1ZM152,343c-.57-.95-.92-2.22-1.5-3-1.93-2.6-4.67-3.52-7-5-1.16-.73-1.55-2.52-3.5-2,.23,1.7-.34,3.94,0,5.5.2.93,2.57,2.97,2,4.5h10ZM168,334l-2.5-1-1.5,3,4-1v-1ZM253,333h-2v1h2v-1ZM310.5,333c-.65,0-.65,1,0,1s.65-1,0-1ZM511,341c2.75-1.37,4.45-5.88,1.5-8l-1.5,8ZM156.5,334c-.65,0-.65,1,0,1s.65-1,0-1ZM243,337h1.5l1.5-1.5-1.5-1.5h-1.5v3ZM279.5,334c-.65,0-.65,1,0,1s.65-1,0-1ZM499,340v-6h-.5l-1.5,1.5v4.5h2ZM509,341l1-7c-2.35.52-1.67,2.11-2,3.5-.45,1.86-1.72,2.5,1,3.5ZM520,334h-2v4h3l-1-4ZM526,343c1.31,1.35,7.36-4.64,8.5-6,.85-1.02,1.91-1.29,1.5-3l-7.5,1c-2.39,2.11-2.8,5-2.5,8ZM184,335h-3v3h2c-.42-1.51.69-1.82,1-3ZM168.5,336c-.65,0-.65,1,0,1s.65-1,0-1ZM167.26,338.98c0-.68-.55-1.24-1.24-1.24s-1.24.55-1.24,1.24.55,1.24,1.24,1.24,1.24-.55,1.24-1.24ZM264.5,338c-.65,0-.65,1,0,1s.65-1,0-1ZM269,338h-3v1h3v-1ZM190.5,339c-.65,0-.65,1,0,1s.65-1,0-1ZM207.5,339c-.65,0-.65,1,0,1s.65-1,0-1ZM250,339h-2v1h2v-1ZM357.19,339.36l-.36,2.19,3.81.64.36-2.19-3.81-.64ZM506,341v-2h-1v2h1ZM156,343c.29-1.9-1.1-3.29-3-3l1,3h2ZM232,340h-2v1h2v-1ZM427.5,340c-.65,0-.65,1,0,1s.65-1,0-1ZM458.5,340c-.65,0-.65,1,0,1s.65-1,0-1ZM476.26,340.98c0-.68-.55-1.24-1.24-1.24s-1.24.55-1.24,1.24.55,1.24,1.24,1.24,1.24-.55,1.24-1.24ZM516,343v-3h-1c.42,1.51-.69,1.82-1,3h2ZM520,340h-2v2l2-2ZM174,341h-3v2c1.18-.31,1.49-1.42,3-1v-1ZM194.6,340.16l-3.4,5.66,2.06,1.24,3.4-5.66-2.06-1.24ZM202,346l2-3.5c-.7-1.56-2.63-1.64-3,0-.29,1.27-.27,3.11,1,4l-5,4.5c2.25.37,6.09-1.64,7-3.5.74-1.51-.78-1.83-2-1.5ZM216,341c-1.73.44-2.3,1.83-2,3.5l1.5,1.5,1.5-2.5-1-2.5ZM349.5,341l-1.5,1.5,3.5,1.5,1.5-1.5-3.5-1.5ZM427,343c.5-.4-1.75-2.65-3-2-.5.4,1.75,2.65,3,2ZM365,342c-1.25-.65-3.5,1.6-3,2,1.25.65,3.5-1.6,3-2ZM519,345c1.9.29,3.29-1.1,3-3l-3,1v2ZM132,344c-1.85.76-3.11-.92-3.5-1-1.14-.22-5.51-.65-4.5,1.5,1.63,3.45,3.34,8.34,5,11,.5.8,2.02,2.19,3,2.5v-14ZM161.26,343.98c0-.68-.55-1.24-1.24-1.24s-1.24.55-1.24,1.24.55,1.24,1.24,1.24,1.24-.55,1.24-1.24ZM235,345v-2l-2,1.5v.5h2ZM266,343h-2v1h2v-1ZM382,346h1.5l1.5-1.5-1.5-1.5h-1.5v3ZM523.5,343c-.65,0-.65,1,0,1s.65-1,0-1ZM164.5,344c-.65,0-.65,1,0,1s.65-1,0-1ZM216,350l5-2.5-2.5-3.5-1.5,2.5-1,3.5ZM346.5,344c-.65,0-.65,1,0,1s.65-1,0-1ZM160,367c.41-1.71-.66-1.98-1.5-3-1.09-1.31-7.42-8.83-8-9-6-1.72-9.19-5.29-14-9-1.3-1-1.7-1.29-3.5-1,.43,3.53-.6,8.16,0,11.5.07.37.87.59,1,1,.19.59-.18,1.37,0,2,.4,1.39,4.42,3.64,5.5,4.5,3.22.04,7.17,2.59,10,3,3.19.47,7.19-.33,10.5,0ZM156,352l-1-4.5-2.5-2.5-6.5,1c1.98,3.84,5.98,5.19,10,6ZM430.5,345c-.65,0-.65,1,0,1s.65-1,0-1ZM507,345c-2.75-.27-5.21-.1-5,3,2.37.47,4.03-.82,5-3ZM513,348c1.9.29,3.29-1.1,3-3l-3,3ZM144,348v-2h-1v2h1ZM176,348l-2.5-2-3.5,1c-.04.66.08,1.35,0,2-.45-.28-1.86-1.17-2-1v3h2c.04-.66-.08-1.35,0-2,3.1,1.92,4.31,3.8,7,0,.03-.05.74.2,1-.5v-1.5l-2,1ZM374.5,346c-.65,0-.65,1,0,1s.65-1,0-1ZM161.26,347.98c0-.68-.55-1.24-1.24-1.24s-1.24.55-1.24,1.24.55,1.24,1.24,1.24,1.24-.55,1.24-1.24ZM166,351l1-2.5-1.5-1.5c-3.64.52-3.1,4.05.5,4ZM213,347h-2l1,4h1v-4ZM394,350v-2h-1v2h1ZM420,348h-3v3h3v-3ZM424,350l-2-2v2h2ZM525,348c-1.92-.48-2.34,1.18-3.5,2-.21.15-.74-.16-1,0-1.49.95-1.3,2.49-2.5,3.5-.31,1.15,2.23,2.95.5,4.5l-.5,5c1.35-.68,3.14-2.32,4-3.5.2-.27,1.95-2.82,2-3,.29-1.02.97-2.83,1-3,.29-1.64-.2-3.76,0-5.5ZM328,352v-1.5l-1.5-1.5-1.5,1.5v1.5h3ZM381,349h-5l1.5,3h1l2.5-1v-2ZM186.5,350c-.65,0-.65,1,0,1s.65-1,0-1ZM203,353l3.5,1,1.5-1.5-1.5-2.5-3.5,3ZM305,352c.5-.4-1.75-2.65-3-2-.5.4,1.75,2.65,3,2ZM362,352v-2h-1v2h1ZM161.26,351.98c0-.68-.55-1.24-1.24-1.24s-1.24.55-1.24,1.24.55,1.24,1.24,1.24,1.24-.55,1.24-1.24ZM298,351h-2l1.5,2h.5v-2ZM482,351h-3v1.5l1.5,1.5,1.5-1.5v-1.5ZM517,351l-4,1v4c1.21-.25,4.99-4.07,4-5ZM165,354l-2-2v2h2ZM171,353l-4-1v2h4v-1ZM244.5,352c-.65,0-.65,1,0,1s.65-1,0-1ZM503,352h-3v4c.62.76,2.83-3.14,3-4ZM345,353h-2v1h2v-1ZM367,353h-1.5l-1.5,2h3v-2ZM464.5,353c-.65,0-.65,1,0,1s.65-1,0-1ZM473.5,353c-.65,0-.65,1,0,1s.65-1,0-1ZM486,355c-.08.16-1.1.72-2,2.5-.37.73-1.49.86-1,2.5.93.93,4.7-2.27,4-4h2c.3-3.26.26-3.3-3-3-.09.62.17,1.66,0,2ZM497,354l-4-1c.6,2.66-1.23,4.4-1,7l5-1v-5ZM512,353l-6,1c-.15,3.1-3.42,5.54-3,9l9-5.5v-4.5ZM189,354h-2v1h2v-1ZM219,356v-2l-2,1.5v.5h2ZM331,353.5l-2.5,2.5,2,2,2.5-2.5-2-2ZM424,360l1-3.5-2.5-1.5c-2.7,1.97-1.76,5.12,1.5,5ZM431,355h-2v3l2-1.5v-1.5ZM436,357v-2l-2,1.5v.5h2ZM450.5,355c-.65,0-.65,1,0,1s.65-1,0-1ZM208,358v-2l-2,1.5v.5h2ZM277,358v-2h-1v2h1ZM398.5,356c-.65,0-.65,1,0,1s.65-1,0-1ZM459,360l3-1.5-2-2.5-1,4ZM482,358v-2l-2,1.5v.5h2ZM517,356c-4.76.04-2.56,5.95-3,9,1.96-.47,2.11-2.37,2.5-4,.41-1.74.73-3.21.5-5ZM190,357h-2v1h2v-1ZM259.5,357c-.65,0-.65,1,0,1s.65-1,0-1ZM343,359v-2h-1v2h1ZM475,359v-2h-1v2h1ZM502,361l1-4-2,1.5v2.5h1ZM161,363c.36-.37-3.3-5.77-4-5-.55,1.94,1.3,2.34,2,3.5.54.89-.58,2.34,2,1.5ZM193.5,358c-.65,0-.65,1,0,1s.65-1,0-1ZM292,360v-2h-1v2h1ZM354.5,358c-.65,0-.65,1,0,1s.65-1,0-1ZM394,358c-2.21-.26-3.36,1.32-3,3.5l1.5,1.5c1.91-1.27,1.58-2.86,1.5-5ZM420,358h-2l1.5,2h.5v-2ZM176,359h-3v1c1.51-.42,1.82.69,3,1v-2ZM232,359h-2v1h2v-1ZM338.5,359c-.65,0-.65,1,0,1s.65-1,0-1ZM444.26,359.98c0-.68-.55-1.24-1.24-1.24s-1.24.55-1.24,1.24.55,1.24,1.24,1.24,1.24-.55,1.24-1.24ZM453,361v-2l-2,1.5v.5h2ZM478.26,359.98c0-.68-.55-1.24-1.24-1.24s-1.24.55-1.24,1.24.55,1.24,1.24,1.24,1.24-.55,1.24-1.24ZM201,360h-2v1h2v-1ZM489,363l-.5-3c-1.57,1.4-3.96,1.39-3.5,4l4-1ZM512,360c-.5-.57-3.89,2.66-4.5,3-1.22.67-3.95,1.31-5,2-1.45.96-4.01,3.54-3.5,5.5l5.5.5c.92-1.69,2.66-.63,4-1,.37-.1.57-.81,1-1,.31-.14.78.13,1,0,.84-.5,1.62-1.85,2.5-2.5l-1-6.5ZM169,367c-.27-1.77,1.53-2.58,1-4.5-.47-1.73-3.53-1.63-5-1.5l1,4.5,3,1.5ZM186,361h-3v.5l1.5,1.5h1.5v-2ZM239.26,361.98c0-.68-.55-1.24-1.24-1.24s-1.24.55-1.24,1.24.55,1.24,1.24,1.24,1.24-.55,1.24-1.24ZM264.26,361.98c0-.68-.55-1.24-1.24-1.24s-1.24.55-1.24,1.24.55,1.24,1.24,1.24,1.24-.55,1.24-1.24ZM278,361h-5l-1,3,3,.5c1.65-.74,3.34-1.2,3-3.5ZM313,364v-3h-1v3h1ZM371,364c.32-1.08-.66-2.76-1.5-3-1.85-.53-3.39,1.64-5.5,1-1.36,1.16-.12,1.92,1.5,2,1.83.09,3.68-.06,5.5,0ZM376,361h-2l1.5,2h.5v-2ZM382,361h-2v1h2v-1ZM388,364v-3h-.5l-1.5,1.5v1.5h2ZM195,366c.5-3.75-1.55-4.4-5-4-1,2.25,4.42,4.58,5,4ZM207,362h-1.5l-1.5,2h3v-2ZM501,364v-2h-1v2h1ZM134,363l3,9.5c3.89,7.72,7.6,12.95,15.5,16.5,3.59,1.62,4.28,1.34,8,2,.38.07.63.95,1,1,1.87.23,7.93.52,8.5-1.5.1-1.32-.85-1.48-1-3-.42-4.12.95-9.73-1-13-.57-.96-2.19-1.98-3-3-.16-.2.17-.78,0-1-.68-.89-1.76-1.62-2.5-2.5h-16l-12.5-5ZM176,363c-4.12-.74-7.03,1.79-3.5,5l3.5-5ZM496,363h-2v2l2-2ZM180,369c.08-2.14.41-3.73-1.5-5l-2.5,4,4,1ZM195,369c-1.43-3.37-5.74-2.18-7.5-5h-4.5l2.5,5h9.5ZM200,367c.65-1.25-1.6-3.5-2-3-.65,1.25,1.6,3.5,2,3ZM307.5,364c-1.21.39-1.74,2.81-2,4-.39,1.77-.65,1.7,1,3,.64-1.01,3.26-2.73,3.5-3.5.5-1.58-.93-4-2.5-3.5ZM474,364h-2v1h2v-1ZM237.5,365c-.65,0-.65,1,0,1s.65-1,0-1ZM252,366l-2.5-1-1.5,3h4v-2ZM263,367v-2l-2,1.5v.5h2ZM343,365h-4v2.5l1.5,1.5h2.5v-4ZM406,367v-2h-1v2h1ZM470.5,365c-.65,0-.65,1,0,1s.65-1,0-1ZM486,370c4.12.74,7.03-1.79,3.5-5l-3.5,5ZM213.5,366c-.65,0-.65,1,0,1s.65-1,0-1ZM218,368v-2h-1v2h1ZM237,369c.29-1.9-1.1-3.29-3-3-.29,1.9,1.1,3.29,3,3ZM289,366h-2v1.5l1.5,1.5h.5v-3ZM413,366h-3v.5l1.5,1.5h1.5v-2ZM227.5,367c-.65,0-.65,1,0,1s.65-1,0-1ZM332,368l-4-1,1,4c1.9.29,3.29-1.1,3-3ZM400,367h-2c-.37,2.4.48,4.24,3,4l-1-4ZM403.5,367c-.65,0-.65,1,0,1s.65-1,0-1ZM481,367l-4,2.5,2,2.5-4,2,6-2.5-2-1,2-3.5ZM169,370l-2-2v2h2ZM277,368c-2.17-.54-3.14,1.11-5,1v2h4l1-3ZM363.5,368c-3.7,2.76,1.37,5.38,4,6l1.5-2.5-5.5-3.5ZM470,373l3-2.5v-1l-1.5-1.5c-1.91,1.27-1.58,2.86-1.5,5ZM214,371l-1.5-2c-.71.98-1.29,1.2-2.5,1v2l4-1ZM336,369c-2.42-.44-2.29,1.09-3,2.5-.93,1.86-1.77,1.69.5,3.5l2.5-6ZM373.5,369c-.65,0-.65,1,0,1s.65-1,0-1ZM380.26,369.98c0-.68-.55-1.24-1.24-1.24s-1.24.55-1.24,1.24.55,1.24,1.24,1.24,1.24-.55,1.24-1.24ZM392,369c-1.88-.24-3.47,0-4,2h4v-2ZM396,371l-2-2v2h2ZM497,371v-2l-2,1.5v.5h2ZM172,373l1-3h-3v3h2v2c1.65-.53,1.91.79,2.5,1,.56.2,1.34-.17,2,0,.4.1.62.93,1,1,2.51.46,4.23-.57,6.5-1,.89-.84-2.87-4.83-3.5-5-1.6-.44-3.88.85-5-1l-3.5,3ZM252,370h-3.5l-1.5,2c2.17.54,3.14-1.11,5-1v-1ZM310,370l-3,3.5.5,3.5,2.5-7ZM325,378c4.67-2.43,4.03-6.52-1-8,.13,1.46-.19,3.09,0,4.5.21,1.54,1.27,1.94,1,3.5ZM343,370h-3c-.39,1.9,1.3,2.67,2.5,4h.5v-4ZM358,370h-2v2l2-2ZM465,372v-2h-1v2h1ZM469,370h-1.5l-1.5,1.5,1.5,1.5,1.5-1.5v-1.5ZM484,372v-2h-1v2h1ZM512,370l-5.5,2-7.5,1c.7,1.94-.77,2.82-1,3.5-.21.62.22,1.44,0,2-.16.39-.81.59-1,1-.24.5-.32,2.17-1.5,2.5-2.39.66-7.01-1-5.5,4.5.05.18,2.08,2.23,2.5,2.5.45.29,2.37.71,3,1,.44.21.7,1,1,1,.89-1.26,3.04-1.45,4-2,4.07-2.31,7.83-7.69,9.5-12.5l2-6.5ZM192,372c-2.05-.21-3.52-1.52-6-1v2h6v-1ZM209,371h-3.5l-1.5,2h3.5l1.5-2ZM224,371h-3l-1,3.5c.61,1.46,4.78,3.84,5,2l-1-5.5ZM228,374v-3h-1v3h1ZM283.26,371.98c0-.68-.55-1.24-1.24-1.24s-1.24.55-1.24,1.24.55,1.24,1.24,1.24,1.24-.55,1.24-1.24ZM411.5,371c-.65,0-.65,1,0,1s.65-1,0-1ZM273.26,372.98c0-.68-.55-1.24-1.24-1.24s-1.24.55-1.24,1.24.55,1.24,1.24,1.24,1.24-.55,1.24-1.24ZM460,381c2.72-.81,1.98-3.32,2-5.5l-4-3.5,2,9ZM322,382c.36-2.18,1.49-3.87,1-6.5l-2-2.5-1,7-1-2h-2c-.19.19.26,1.03,0,1.5-.49.87-2.74,2.81-3,4-.28,1.29.18,3.09,0,4.5l3.5-2c1.16,1.66,1.44.54,2.5-.5l-2-.5v-3l2.5-1,1.5,1ZM340,373h-2l1,4,4,1c.74-2.92-1.88-1.48-3-3.5-.26-.47.19-1.31,0-1.5ZM375,373h-3v2h3v-2ZM394,373h-8.5c-.57,1.27-3.39.48-2.5,2.5.94,2.14,2.48,1.26,4,1,1.29-.22,2.84-.85,4.5-.5l2.5-3ZM405,373h-2v1h2v-1ZM422,375v-2l-2,1.5v.5h2ZM435,373c-2.44-.74-2.28,1.62-3,3.5,2.11,3.11,4.51,2.61,8,2.5-1.04-2.56-5.36-2.57-5-6ZM446,373c-1.82.06-3.67-.09-5.5,0-1.61.08-2.84.82-1.5,2l5.5,2,1.5-4ZM497,373h-4v7l3-1.5,1-5.5ZM212,380l1-4.5-2.5-1.5c-2.69,1.88-6.98,4.09-6.5,8l8-2ZM231,377v-1.5l-2-1.5v3h2ZM252,374h-3v2h1.5l1.5-2ZM260,382c.64-4-.57-5.56-3.5-8-.51,1.28-2.41.9-2.5,1-.15.16-.21,2.83-2,3.5l5,4,3-.5ZM288,378l2-1.5-1.5-2.5-1.5,1.5,1,2.5ZM338,377v-1.5l-1.5-1.5-1.5,1.5,1.5,1.5h1.5ZM398,380c3.28.28,5.74-4.66,2.5-6-2.5-1.04-2.92,4.58-2.5,6ZM451,374h-2v2l2-2ZM469,376l-2-2v2h2ZM491,374l-5,1,2.5,6,2.5-7ZM205,375h-5l1.5,6,3.5-6ZM276,380c1.1-.34,2.29-1.61,3-2.5,1.02-1.28.88-2.13-.5-2.5-1.13-.18-2.48,1.17-3,2-.67,1.07.97,1.4.5,3ZM332,375h-2v1.5l1.5,1.5h.5v-3ZM353,375c-1.9-.29-3.29,1.1-3,3,1.9.29,3.29-1.1,3-3ZM365,375h-2l1.5,2h.5v-2ZM369.5,375c-.65,0-.65,1,0,1s.65-1,0-1ZM378,377l-2-2v2h2ZM425,375h-1.5l-1.5,2h3v-2ZM458,382l-1.5-7-1.5,7h3ZM464,379l2-1.5-2.5-2.5-.5.5c1.32.86,1.05,2.01,1,3.5ZM196,376h-4.5l-3.5,1.5c2.63,3.46,4.66,3.99,9,3.5l-1-5ZM238.5,376c-.65,0-.65,1,0,1s.65-1,0-1ZM395,376c-1.62-.55-2.06.9-2.5,1-1.99.44-5.24-1.42-4.5,2l7,1v-4ZM410.5,376c-.65,0-.65,1,0,1s.65-1,0-1ZM418.26,376.98c0-.68-.55-1.24-1.24-1.24s-1.24.55-1.24,1.24.55,1.24,1.24,1.24,1.24-.55,1.24-1.24ZM477,378l-2-2v2h2ZM329,377c-1.41.57-3.1,2.08-3,3.5l-2.5,4.5c3.09-1.95,6.37-3.67,5.5-8ZM454,379l-2-2v2h2ZM185,383l-4.5-1c-1.41-1.04-8.48-5.02-9.5-4-.91,3.64,2.87,5.48,4,7.5.26.47-.19,1.31,0,1.5.11.11,1.99-.28,2.5,1l4-1,3.5-4ZM188,382c.79-.71-1.78-3.79-2.5-4-1.89-.55-2.75,1.28-4.5,1l2.5,2,4.5,1ZM340,428c.55.15,2.07.33,2-.5.16-2.29-.22-4.76,0-7,.04-.36.97-.64,1-1,.99-12.75-.73-26.63,0-39.5l-4-1-1,2-.5-2-4-1c-.62.98-3.31,2.79-3.5,3.5-.55,2,.41,5.69,0,8-.07.37-.88.59-1,1-.18.65.22,1.46,0,2-.16.39-.81.59-1,1-.14.31.13.78,0,1-.68,1.15-2.62,2.3-3.5,3.5l-5.5,2c2.67,3.75,5.33,6.94,8,10.5,2.5,3.33,5.4,8.42,8,11.5l-1,.5c-.4,1.64.94,1.42,1,1.5.5.65.56.62,1,1,.15.34-.21,1,0,1.5.55,1.34,3.71,2.33,3,4.5h2v-1.5c-.66-.38-.77-.92-1-1.5ZM362,408v21.5c0,.33.94.62,1,1,.4,2.66-.3,3.14,1,6,.14.31-.13.78,0,1,.5.84,1.85,1.62,2.5,2.5.51-1.28,2.41-.9,2.5-1,.19-.2-.26-1.03,0-1.5,2.76-4.95,9.78-10.15,13-15,1.27-1.91,7.65-13.5,8-15,.23-.98-.15-2.39,0-3.5h-2c-.4-2.63-3.13-5.88-4-8.5-.21-.62.12-1.7,0-2.5h-10.5l-5-2-3.5-3.5c1.05-1.7,2.19.42,3,1s2.67,2.27,3.5,2.5,2.09-.2,3,0c.39.09.63.95,1,1,2.3.34,5.11-.24,7.5,0,.61-.59-1.55-4.39-2.5-5-1.05-.68-3.98-1.32-5-2-2.61-1.74-3.61-5.05-6-7l-6.5,1c-.09,2.81-.51,4.81,2,6.5v1c-2.67,2.58-.17,7.8,0,10,.52,6.97-.38,14.47,0,21.5-2.95-.92-1.9-4.14-2-6.5-.05-1.24.77-3.73-1-3.5ZM380,385l-1-4.5-1.5-1.5-5.5-1c.26,1.5,2.37,2.38,3,3.5.26.47-.19,1.31,0,1.5s1.02-.26,1.5,0c1.12.62,1.53,2.57,3.5,2ZM484,378l-5.5,2c-1.54,1.03-2.32,3.49-4.5,3-.22,3.04-1.55,5.61-1,9,5.8-.12,9.27-4.82,13-8.5l-2-5.5ZM219,379l-2,.5-1,9.5c1.1,1.2,5.05-3.72,6-4.5l-3-5.5ZM221,379l-.56,2.24,4,1,.56-2.24-4-1ZM233,379c-1.25-.65-3.5,1.6-3,2,1.25.65,3.5-1.6,3-2ZM429,379h-2c-.37,2.4.48,4.24,3,4l-1-4ZM239.5,380c-.65,0-.65,1,0,1s.65-1,0-1ZM267,385l-1-5-2,1.5,1,3.5h2ZM270,380v3.5l2.5,1.5,1.5-1.5c.42-1.53-3.18-4.32-4-3.5ZM283,380c-.08,2.14-.41,3.73,1.5,5l1.5-1.5v-1l-3-2.5ZM390,384l-8-4,1,4.5,2,3.5c2.5.51,5.04-1.29,5-4ZM410,380h-2l-1,3c1.9.29,3.29-1.1,3-3ZM250.5,381c-.65,0-.65,1,0,1s.65-1,0-1ZM293,381h-2v2l2-2ZM403,381c-1.9-.39-2.67,1.3-4,2.5l.5.5,3.5-1v-2ZM469,383v-2l-2,1.5v.5h2ZM212,382l-8,2.5c1.01.82,4.85,5.68,6,4.5l2-7ZM227.5,382c-.65,0-.65,1,0,1s.65-1,0-1ZM300.5,382c-.65,0-.65,1,0,1s.65-1,0-1ZM414,387l4-2.5v-1l-3-1.5-1,5ZM432.5,382c-.65,0-.65,1,0,1s.65-1,0-1ZM443,382h-4c-.32,1.5.44,2.06,1.5,3h2.5v-3ZM263,383h-2l1.5,2h.5v-2ZM350,388c1.05,1.07,6.06-3.84,5-5-1.83,1.64-5.3,2.15-5,5ZM464,383h-2v1h2v-1ZM201,394c-1.71.4-1.99-.64-3-1.5-2.97-2.51-5.56-5.89-8.5-8.5l-9.5,5,.5,2,5,2c1.73,1.74,4.76,1.55,7,2,.39.08.63.94,1,1,2.21.33,6.83.68,7.5-2ZM199,384h-5v2h5v-2ZM209,391c-4.27-.21-4.62-5.57-8-7-.23,3.61,2.57,6.27,4.5,9h3l.5-2ZM251.5,384c-.65,0-.65,1,0,1s.65-1,0-1ZM329,384c-.7-.75-4.62,2.51-5.5,3-.28.15-.78-.14-1,0-.66.42-2.37,3.03-2.5,3.5-.37,1.35-.66,2.75-1,4-.3,1.09.13,2.19-1,3.5,1.41-.04,2.67.32,4-.5.67-.41,4.61-4.34,5-5,1.03-1.73.62-3.49,1-5,.14-.56,1.76-1.68,1-3.5ZM437,387c-.22-1.33-3.17-3.83-4-3v3h4ZM447,384h-2v2l2-2ZM472,387v-3h-1v3h1ZM171,391l4-1.5-3.5-4.5-.5,6ZM295,388v-3h-.5l-1.5,1.5v1.5h2ZM312.5,385c-.65,0-.65,1,0,1s.65-1,0-1ZM388,390l7-3.5-4.5.5-2.5,3ZM408,385h-1.5l-1.5,2h3v-2ZM469,385c-2.26-.22-3.98,2.23-4.5,4-.37,1.27.23,1.2,1,2,1.4.21,4.07.05,4.5-1.5.53-1.91-1.27-2.74-1-4.5ZM231,386h-3l2.5,3h.5v-3ZM253.5,386c-.65,0-.65,1,0,1s.65-1,0-1ZM422,392l-3.5-6-3.5,2.5c-.22,1.97,1.3,2,2.5,2.5,1.45.61,2.86,1.25,4.5,1ZM423,386h-2v1h2v-1ZM431,393c.25-1.64-.39-3.05-1-4.5-.66-1.58-.68-2.87-3-2.5-.25,1.64.39,3.05,1,4.5.66,1.58.68,2.87,3,2.5ZM203,394l-3-6.5-4-.5c-.79,2.38,6.59,7.46,7,7ZM262,388c-2.05-.21-3.52-1.52-6-1v2h6v-1ZM278,389l-1.5-2-1.5,1.5v.5h3ZM443,389c-.53-2.01-2.12-2.24-4-2,.53,2.01,2.12,2.24,4,2ZM459,387h-2v1h2v-1ZM479,393c4.33.87,6.05-2.41,8-5.5l-4.5,2.5c-1.42-.1-2.93,1.59-3.5,3ZM239,391v-1.5l-2-1.5v3h2ZM399,388l-3,2.5-1,5.5,2-2.5,2-5.5ZM226,389h-3v4c1.5.32,2.06-.44,3-1.5v-2.5ZM315,391l-2-2v2h2ZM315,395c3.05.24,4.14-3.69,4-6-2.17,1.25-4.58,3.18-4,6ZM405,391v-2h-1v2h1ZM425,389l-2,.5,1,2.5h2l-1-3ZM439,397c.19-.2-.26-1.03,0-1.5.4-.73,2.99-3.22,3-4l-4.5-2.5h-4.5c-.49,4.34.04,6.37,3.5,9,.51-1.28,2.41-.9,2.5-1ZM448,391v-2h-1v2h1ZM459,394c.56-3.55-1.3-3.8-4-4.5-1.51-.39-3.37-.94-4,1s2.68,2.66,4,3c1.39.36,2.53.76,4,.5ZM485,394c1.47.26,2.61-.14,4-.5,1.51-.39,3.03-.54,4-2l-4.5-2.5c-1.24,1.57-3.77,2.66-3.5,5ZM233,390h-2v1h2v-1ZM172,392c-.23,1.22.11,1.95.5,3,2.84,7.58,9.3,13.21,17,16,1.81.66,2.2.61,4,1,.39.09.63.95,1,1,1.69.25,9.71.36,11,0,.41-.11.96-1.16,1.5-1.5l-1-1,2-11-2.5-2.5h-15c-2.95-1.75-6.95-2.36-10-4-.69-.37-1.49-1.86-2-2-2.38-.66-4.07,1.41-6.5,1ZM221,391c-1.88-.24-3.47,0-4,2,1.71-.31,2.62.21,4,1v-3ZM227,399c3.46.62,6.39-2.91,4.5-6-.92-1.5-4.3-3.14-4.5-1.5v2l-4.5,2.5c-.82-1.5-2.02-.72-3-1-.41-.12-.63-.93-1-1-1.64-.29-3.76.2-5.5,0-.92,4.62,1.48,6.12,4.5,9h7.5l-.5-6,.5.5,1-2.5,1,4ZM242,391h-2v4c2.01-.53,2.24-2.12,2-4ZM245,391h-2v2l2-2ZM266,399l-1-5.5c-2.07-3.07-4.97-2.78-8.5-2.5-1.67.13-2.38-.16-3.5,1.5,3.9,3.18,8.1,5.56,13,6.5ZM306.5,391c-.65,0-.65,1,0,1s.65-1,0-1ZM394,391c-1.61-.55-2.1.92-2.5,1-1.05.2-5.7-.85-4.5,1.5,1.56,1.79,3.5,3.38,6,3.5l1-6ZM415,407c-1.57-1.87-.68-3.61-1-5.5-.06-.38-.95-.63-1-1-.43-3.46,1.74-9.51-3-9.5.29,1.68-.45,3.01-1,4.5-.34.93-1.74,3.14-2,4-.29.94.51,2.18-1,3,.86,1.62,7.77,5.58,9,4.5ZM270,398l-2-6,1,7,4-4-3,3ZM273,392h-3v.5l1.5,1.5,1.5-2ZM277,392h-3v2h1.5l1.5-2ZM358,392l-5,3.5-1.5,3.5c1.32-.55,7.84-5.6,6.5-7ZM427,405c.85-3.3-2.08-5.45-2-8.5l-2.5-2.5-8.5-2,2,15c4.19.64,7.15-1.08,11-2ZM235,396v-3l-2,1.5,2,2-1,3.5,4-1v-3h-3ZM281,393c-3.54-.6-2.51.44-4,2.5-.84,1.16-2.46,1.58-2,3.5,1.08,1.1,7.1-4.88,6-6ZM295,395l-2.5-1-1,1-2.5-1-1,7c4,.64,5.56-.57,8-3.5l-1-2.5h2v-2h-2v2ZM352,393h-2v2l2-2ZM448,393l-4,.5c-1.44,1.56-2.72,3.32-4,5-.66.87-1.38.96-1,2.5l6,1,3-9ZM467,394l-4-1-1,5c1.81.51,2.02-.9,3-1.5,1.47-.9,2.48.17,2-2.5ZM250,402c.93-2.27-3.54-8.57-5.5-8-1.08,1.07-2.06,1.33-1,3,.61.96,5.97,5.63,6.5,5ZM278,402h6.5c1.75-1.58,2.83-3.98,2.5-6.5-.74-.67-1.32-1.86-2.5-1.5-.34.1-4.35,4.22-5,5-.84,1.02-1.91,1.29-1.5,3ZM300,396v-2h-1v2h1ZM456,395c-1.93-.04-3.32-1.61-5.5-1-1.78.49-1.23,2.91-1.5,3.5-.32.71-2.78,3.72-2,4.5,3.73-.94,9.54-1.96,9-7ZM210,395h-3v1h3v-1ZM266,402l-4.5-3c-2.13.08-5.14-1.14-7-2-.88-.41-3.63-2.74-4.5-2,1.09,2.96,4.44,3.24,6.5,5l9.5,2ZM310,395c-1.25-.65-3.5,1.6-3,2,1.25.65,3.5-1.6,3-2ZM386,395c-.39.45,2.38,7.61,4.5,7,1.67-.48,1.73-1.93.5-3.5-1.11-1.42-3.51-2.24-5-3.5ZM447,409v1l-5,1c2.09-.18,4.47.27,6.5,0,.37-.05.62-.93,1-1,2.19-.39,4.81-.2,7-1,4.82-1.77,11.05-6.57,14.5-10.5.99-1.13,2.39-1.66,2-3.5-2.01-.13-2.81-.3-4.5,1-3.05,2.34-4.8,3.5-8,5-2.63,1.24-1.82,1.79-4,3-2.82,1.57-4.63,6.4-9.5,5v-1c.8-.11,1.85.19,2.5,0,.44-.13,5.63-5.51,6.5-6.5.99-1.12,2.39-1.66,2-3.5-2.26.82-3.62,3.88-5.5,5-2.2,1.31-4.24.52-6,1-1.01.28-3.75,4.79-3.5,5h4ZM429,402c6.03-.98,1.38-4.89-2-6l2,6ZM212,397h-2l1.5,2h.5v-2ZM240,398l4,9.5c3.2,3.87,4.73,7.76,10.5,7.5,1.71-.08,2.39.11,3.5-1.5-.84-1.06-2.27-1.95-3-3-4.66-6.68-4.52-6.06-11.5-10.5-1.16-.74-1.55-2.52-3.5-2ZM230,402c.4.5,2.65-1.75,2-3-.4-.5-2.65,1.75-2,3ZM263,403l-12-3.5c1.2,1.01,1.01,2.55,2.5,3.5.2.13.68-.15,1,0,.43.2.63.9,1,1,.84.23,2.12-.22,3,0,.54.13.66.96,3,1,2,.04,1.56-.07,1.5-2ZM358,399c-1.17-1.1-4.54,3.18-5.5,4-.17.15-.77-.18-1,0-.83.63-3.36,3.09-2.5,4l8-5-3,4.5c.79,1.44,3.7.09,4-1,.73-2.64-2.03-4.13,0-6.5ZM239,400c-3.29.43-5.85,1.88-5,5.5.09.38.87.59,1,1,.19.59-.18,1.37,0,2,.39,1.37,5.29,4.68,6.5,5.5l6.5,1-6-7.5-3-7.5ZM304,400c-3.4-.29-2.65,2.83-4,5l4.5-2-.5-3ZM401.5,400c-.65,0-.65,1,0,1s.65-1,0-1ZM209,401c-.17,1.77.25,3.8,0,5.5-.07.45-1.63,1.64-1,4,.89,3.33,4.95.36,6.5-.5.77-.43,2.78-.37,2.5-2.5-1.84-3.14-4.13-6.15-8-6.5ZM293,408c1.93.47,2.34-1.18,3.5-2,.2-.14.74.16,1,0,1.59-1,1.7-2.27,1.5-4l-6,6ZM313,402h-2v1h2v-1ZM434,402c-1.25-.65-3.5,1.6-3,2,1.25.65,3.5-1.6,3-2ZM443,404l-7-2c.37,2.07-1.72,3-3,4.5,2.11,2.39,5,2.8,8,2.5l2-5ZM233,403h-1.5l-1.5,1.5,2.5,2.5h.5v-4ZM222,404h-4c.03,3.97,3.97,3.97,4,0ZM266,404h-2v1h2v-1ZM283,406l-1.5-2h-4.5l1.5,2h4.5ZM290,404c-1.88-.24-3.47,0-4,2,1.88.24,3.47,0,4-2ZM313,407c.4.5,2.65-1.75,2-3-.4-.5-2.65,1.75-2,3ZM241,421c-.46-1.94-2-3.12-3-4.5-.16-.23.15-.8,0-1-.96-1.27-9.79-10.3-10.5-10.5-1.92-.55-2.25.65-3,1-.31.14-.78-.13-1,0-.84.5-1.62,1.85-2.5,2.5,1.57,1.31,2.92,3.3,4.5,4.5,3.05,2.33,7.47,4.38,11,6,.87.4,3.65,2.75,4.5,2ZM293,423c3.09-.19,5.28-2.44,7.5-4,.23-.16.8.15,1,0,1.75-1.32,8.03-7.68,7.5-9.5l-3.5-4.5-5.5,2c.39,1.68-1.44,3.17-2,4.5-.66,1.58-1,4.15-2,6-.55,1.01-3.76,4.78-3,5.5ZM396,410c.98-1.17,2.19-2.5,2-4l3-1c-3.4-.64-4.82,2.71-7,4.5-.04.88,1.3.56,2,.5-1.39,1.67-1.27,1.39-3,2.5-1,.64-1.3,2.4-2,3.5,1.61,1.51,5.83-6,8-5v-2c-1.22.67-1.51.88-3,1ZM410,409c-.26-1.7-1.88-1.81-3-2.5-1.51-.93-1.02-2.47-3,0l6,2.5ZM430,405l-4,1v2c1.38-.79,2.29-1.31,4-1v-2ZM266,407l-11-1c-1.26,1.19,4.67,5.9,5.5,7,2.08-1.51,5.5-2.93,5.5-6ZM321.5,406l-.5.5,2.5,3.5.5-.5-2.5-3.5ZM281,408l-8-1,5.5,4h1l1.5-3ZM315,411l3-1.5-1.5-2.5-1.5,1.5v2.5ZM289,408c-2.75-.27-5.21-.1-5,3,1.21.48,5.77-2.38,5-3ZM298,408l-7.5,3c-1.37,1.36-4.21,3.36-6,4-1.64.59-2.1-.46-.5-1.5l-2-.5,1,2.5-8,7.5,13.5,1,4.5-4.5,5-11.5ZM278,412l-8.5-3-6.5,5.5,4.5,2.5,6-1,4.5-4ZM358,412l-.5-3c-1.2,1.33-2.89,2.1-2.5,4l3-1ZM418,410c.22,3.57,3.2,5.62,5.5,8,6.28.78,9.63-.7,13.5-5.5l-4.5-3.5c-2.61.17-5.43-.25-8,0-.36.03-.63.95-1,1-1.73.23-3.72-.15-5.5,0ZM254,431l-8.5-6c-6.87-.99-13.27-4.97-19-9-.23-.16-.8.15-1,0-2.28-1.71-5.22-6.8-8-6-.56.16-1.44,1.84-2,2-.66.19-1.49-.23-2,0-1.22.55-2.73,2.31-4.5,2,.86,9.02,7.28,15.2,15.5,18,5.47,3.47,13.23,1.51,20,2l9.5-3ZM320,412.5l-2.5,2.5,2,2,2.5-2.5-2-2ZM351.25,413.25l-3.75,3.75,1.5,1.5,3.75-3.75-1.5-1.5ZM269,421c-3.62-.37-8.01.51-11.5,0-3.07-.45-9.79-2.84-13-4-1.86-.67-3.52-1.82-5.5-2-.34.3,4.37,6.33,5.5,7,.22.13.69-.14,1,0,.43.2.64.92,1,1,2.23.5,5.77-.5,8,0,.38.09.6.89,1,1,1.32.36,1.6-.91,2-1,2.45-.55,6.31.39,9,0l2.5-2ZM359,415l-11.5,11-1.5,4,5.5-5c2.85-.93,5.6-2.2,7.5-4.5v-5.5ZM265,417c-2.27-.43-3.99-1.46-6.5-1-.38.07-.62.93-1,1-1.27.24-3.7-.89-3.5,1,1.71.19,2.58.83,4.5,1,1.54.14,3.43.08,5,0s2.85-.83,1.5-2ZM273,419h2.5l1-2-3.5,1v1ZM392,421c2.68.44,2.62-2.03,4-3.5l-.5-.5-3.5,4ZM326,422l-2-3.5-2,1,1,2,3,.5ZM332.5,420c-.65,0-.65,1,0,1s.65-1,0-1ZM350,422l-.5-2-2.5,1v2l3-1ZM329,423c-1.88-.24-3.47,0-4,2,1.88.24,3.47,0,4-2ZM285,426l-9.5-1c-.85-1.27-3.48-1.33-5-1-1.2.26-3.15,2.54-4,3-.58.31-2.46.69-3,1-1.29.74-3.12,1.5-3.5,3l9.5,1c3.57-1.69,8.32-1.23,12-3l3.5-3ZM264,425c-1.77.16-3.78-.23-5.5,0-.49.07-1.87.8-4,1-1.27.12-3.71-.81-3.5,1,3.13.51,5.06,2.8,8.5,2l4.5-4ZM356,431l2.5-4-3.5,3.5,1,1-9.5,6.5c-.84,2.01-7.97,5.87-7.5,7.5s1.93,1.73,3.5.5c1.74-1.36,3.28-3.49,5-5,2.74-2.4,7.1-4.61,8.5-8.5.35-.98,1.23-.45,2-.5l-2-1ZM388,427c-1.9-.39-2.67,1.3-4,2.5l.5.5c1.01-1.27,3.13-.98,3.5-3ZM331,432v2c1.9.29,3.29-1.1,3-3h-2c.12-3.26-3.03-4.2-5-1.5,1.33,1.2,2.1,2.89,4,2.5ZM391,435c-.2-1.21.02-1.79,1-2.5l1.5-4.5-4.5,6.5,2,.5ZM348.25,431.25l-4.75,4.75,1,1,4.75-4.75-1-1ZM330,437c.29-1.9-1.1-3.29-3-3l3,3ZM373,439l1-4c-1.33.22-3.83,3.17-3,4h2ZM339,436h-2v1h2v-1ZM381,436c-1.95-.52-2.34,1.26-3.5,2-6.97,4.45-13.59,9.07-20,14-.22.17-.8-.16-1,0-.92.73-5.49,4.95-4.5,6,3.08-1.27,5.02-4.13,7.5-6,5.35-4.03,12.54-7.42,18-12,.56-.47,3.89-3.66,3.5-4ZM341.78,436.63l-5.44,3.26,1.06,1.76,5.44-3.26-1.06-1.76ZM359,437c-1.35-1.18-5.81,4.64-7,5.5l3.5-1.5,3.5-4ZM382.5,438l-6.75,6.75,1,1,6.75-6.75-1-1ZM361.5,443l-3.5,3.5.5.5,3.5-3.5-.5-.5ZM337.5,446c-.65,0-.65,1,0,1s.65-1,0-1ZM348,447c-1.94-.55-2.34,1.3-3.5,2-.89.54-2.34-.58-1.5,2,1.14,1.05,5.39-3.65,5-4ZM340.5,451l-.5.5,1.5,1.5.5-.5-1.5-1.5ZM368,459l5-4.5,2-3.5c-1.82,1.05-3.61,2.92-5,4.5-.99,1.12-2.39,1.66-2,3.5ZM348,453h-2v2l2-2ZM343,458v-2h-1v2h1ZM346,464l4-6c-1.38.77-1.84,1.37-3.5,2-1.12.42-.26,2.96-.5,4ZM353,471c2.78-1.73,5.02-4.04,7.5-6,.21-.16.8.16,1,0,2.22-1.77,4.02-4.09,5.5-6.5l-5.5,2.5c-2.84,3.8-8.09,4.65-8.5,10ZM373.9,458.7l-4.7,9.4,1.2.6,4.7-9.4-1.2-.6ZM344,461c-3.05-.26-1.81.27-1.5,2s.8,3.23.5,5l1-7ZM366,467c.4.5,2.65-1.75,2-3-.4-.5-2.65,1.75-2,3ZM347,485c.62.73,9.4-7.13,10.5-8,.21-.16.8.16,1,0,3.14-2.52,5.33-4.78,4.5-9-1.88,1.07-9.49,6.78-10,8.5-.19.65.11,1.7,0,2.5l-1.5-1c-3.06,1.81-5.26,2.93-4.5,7ZM347,475c2.3-1.86,5.77-2.28,5-6-2.63,1.15-5.62,2.47-5,6ZM369,471l-3,3.5c-.9,2.05.93,4.49,1,5,.24,1.72-.16,3.73,0,5.5l1-3.5,1-10.5ZM350,488l.5-3-3.5,3.5v3.5l5-3.5-2-.5ZM362,487v-2l-2,1.5v.5h2ZM359,487c-2.23-.34-3.06,1.89-4.5,3-1.64,1.26-4.22,2.88-6,4-1.58,1-1.7,2.27-1.5,4,1.12,1.19,5.51-4.15,6.5-5,.36-.31,2.86-.95,3.5-2.5l2-3.5ZM344,502l1-8-2,2.5,1,5.5ZM356,497c-2.09-.51-10.72,5.31-9,7,2.23.34,3.06-1.89,4.5-3,.22-.17.81.16,1,0,1.22-.99,2.81-2.58,3.5-4ZM347,520l15-11.5v-4.5c-3.64,1.61-4.81,5.96-7.5,8-1.06.8-3.94,2.2-5,3-1.71,1.29-2.96,2.69-2.5,5ZM350.5,511l-3.5,3.5.5.5,3.5-3.5-.5-.5ZM360,515c-1.97-.57-2.38,1.38-3.5,2-.48.26-1.31-.19-1.5,0s.26,1.03,0,1.5c-1.3,2.33-5.82,4.68-7,7.5,1.48.32,3.41-1.44,4-2.5.26-.47-.19-1.31,0-1.5.24-.24,4.54-2.28,5.5-3,.82-.62,3.39-3.13,2.5-4ZM345,522v-4h-.5c-1.54,1.1-1.73,2.14-1.5,4h2ZM357,522h-2c.37,1.72-.87,2.36-2,3.5l.5.5,3.5-4ZM363,537c-.36-3.27.51-7.38,0-10.5-.06-.38-.96-.64-1-1-.02-.18,2.33-2.37.5-3.5l-2.5,5.5v2l2,2-4,6c2.07,3.03,2.46-1,5-.5ZM347,535c1.84.39,2.37-1.01,3.5-2,1.47-1.3,3.2-3.03,4.5-4.5.99-1.12,2.39-1.66,2-3.5l-4.5,5c-2.71.07-6.23,1.33-5.5,5ZM369,540v-6.5l-2-2.5c.47,2.83-1.51,7.65,2,9ZM346,542c1.84.39,2.37-1.01,3.5-2s2.48-2.34,3.5-3.5,2.39-1.66,2-3.5c-.32-.36-6.35,5.76-8,5l-1,4ZM358,539c-3.62-.55-5.24,2.21-7.5,4-.2.16-.78-.17-1,0-2.41,1.82-2.36,3.46-3.5,6,3.47-.04,5.2-3.05,7.5-5,.2-.17.81.16,1,0,.81-.7,4.55-4.09,3.5-5ZM344,546v-4h-1v4h1ZM362.5,542l-2.5,2.5.5.5,2.5-2.5-.5-.5ZM363.75,546.75l-4.5,4.5,1,1,4.5-4.5-1-1ZM344,552v-4h-1l-1,4h2ZM346,556c1.84.39,2.37-1.01,3.5-2,1.94-1.7,3.59-3.76,5.5-5.5l-4.5,1.5-3.5,2-1,4ZM345,564c3.63-1.76,6.47-5.86,9.5-8,.21-.15.75.16,1,0,.98-.62,3.08-4.35,2.5-5-2.88.72-4.38,3.26-6.5,5-.2.17-.81-.16-1,0-2.38,2.03-5.24,4.75-5.5,8ZM343,557h-2v4h1c-.31-1.71.21-2.62,1-4ZM358,558c-1.93-.49-2.34,1.2-3.5,2-2.46,1.69-5.29,3.09-7.5,5.5-1.02,1.11-2.38,1.68-2,3.5,4.7-3.32,9.69-6.12,13-11ZM368.5,558c-.65,0-.65,1,0,1s.65-1,0-1ZM361,569l3-1.5v-4.5c-2.98.86-1.33,3.89-3,6ZM377,601l-.5-5c-1.39-9.55-2.96-19.02-4.5-28.5l-2-3.5c-.66,2.54-1.41,4.76-1,7.5.06.38.95.63,1,1,1.13,9.17,2.42,17.01,5,26l2,2.5ZM343,578l14-12.5-7.5,3.5c-2.74,2.76-7.51,3.78-6.5,9ZM344,582s-1-.14-1,.5l1,.5-2,4,6.5-5h-2.5l8.5-6c2.26-2.34,5.29-4.42,5.5-8l-10.5,10c-2.07.66-4.16,2.19-5.5,4ZM340.5,570c-.65,0-.65,1,0,1s.65-1,0-1ZM365,575c.11-.11-.28-1.99,1-2.5l-1.5-1.5c-1.71,1.57-3.01,2.5-2.5,5,.95-.9,2.88-.88,3-1ZM359,576c-2.06,1.21-3.84,3.27-5.5,5-.66.69-2.76,2-2,3,1.52-1.34,3.37-2.84,5-4,.2-.14.74.16,1,0,1.59-1,1.7-2.27,1.5-4ZM364,581s-1-.14-1,.5l1,.5-3,4.5c1.32,1.8,2.63-1.02,3.5-1.5.48-.26,1.31.19,1.5,0,.11-.11-.28-1.99,1-2.5l-1-3.5c-1.22-.06-1.54,1.38-2,2ZM357,584c-1.25-.65-3.5,1.6-3,2,1.25.65,3.5-1.6,3-2ZM339,591c-.52-2.48.79-3.95,1-6l-2,1.5v4.5h1ZM342,603c1.91.44,2.34-1.11,3.5-2,3.26-2.51,6.89-5.46,10-8,2.13-1.73,4.3-4.11,4.5-7l-3.5,2c-3.68,4.57-8.89,7.01-12.5,11.5-.87,1.09-1.44,2.25-2,3.5ZM342,598c3.01-2.69,6.4-4.54,9-7.5.99-1.13,2.39-1.66,2-3.5-.5-.54-3.85,2.6-4.5,3-.46.28-2.58.72-3,1-2.34,1.54-4.16,4.05-3.5,7ZM341,611l3.5-1c3.26-2,14.06-13.44,16-14,.62-.18,1.38.18,2,0,.39-.11,3.55-2.97,4.5-3.5v-4.5c-2.07.51-5.2,5.63-6.5,6-3.62,1.04-10.61,5.74-14,8-1.54,1.03-2.32,3.5-4.5,3l-1,6ZM368,598l-5.5,3-1.5,4c2.6-2.56,7.78-2.49,7-7ZM339,601v-2l-2,1.5v.5h2ZM334,626c5.17-2.15,8.3-6.47,12.5-10,2.13-1.79,5.94-4.17,8-6,2.37-2.12,5.24-4.67,5.5-8-.24-.27-2.81,1.62-3.5,2-3.84,2.12-8.78,5.37-12,8-2.92,2.38-4.13,4-3.5,8-2.17.39.24-5.39-2.5-4-1.06.54-2.34,2.71-3.5,3.5l-1,6.5ZM369,604c-2.23-.34-3.06,1.89-4.5,3s-4.71,2.9-6,4c-2.27,1.92-4.74,4.59-6.5,7,1.93.49,2.34-1.2,3.5-2,3.31-2.28,6.61-4.64,10-7,.24-.17.8.15,1,0,1.71-1.29,2.96-2.69,2.5-5ZM340,609c-3.71,0-3.8,3.53-5,6,.54.48,4.06-1.29,4.5-2l.5-4ZM371,611c-4.85.61-7.5,5.55-11,8.5l5.5-2.5c1.61-2.28,5.49-2.35,5.5-6ZM377.5,614c-.65,0-.65,1,0,1s.65-1,0-1ZM360,626c2.28.39,3.04-2,4.5-3,.69-.48,3.36-1.53,4-2,1.8-1.33,4.06-3.51,3.5-6-2.74,1.14-4.03,5.16-7,5v2c-1.44-.85-5.36,3.68-5,4ZM378.5,619c-.65,0-.65,1,0,1s.65-1,0-1ZM363,629c3.93-2.15,6.9-5.29,10-8.5-1.31-.62-2.55,1.77-3.5,2.5-.21.16-.58.11-1,0l-5.5,6ZM339,632c3.52.5,5.69-3.43,8.5-4l4.5-5.5-8.5,4.5-4.5,5ZM380,631l-2-8,.5,5,1.5,3ZM376,624c-1.06-1.16-8,4.74-3.5,7l3.5-1v-6ZM355,628v-2c-.57-.66-7.67,5.34-8,7,3.99.32,7.5-1.82,10-4.5l-2-.5ZM332,633c1.05,1.07,6.06-3.84,5-5-2.09.99-5.14,2.1-5,5ZM370,632v-2h-1v2h1ZM359,631h-2v1h2v-1ZM362,634c1.9.29,3.29-1.1,3-3l-3,1v2ZM336,636h-4.5l-1.5,2c2.37.46,3.63-1.46,6-1v-1ZM347,637h-4v1h4v-1Z"/>
  <path d="M137,342c-1.15.17-.85-.77-1-1l1,1Z"/>
  <polygon points="346 582 344 583 344 582 346 582"/>
  <polygon points="364 582 364 581 365 581.5 364 582"/>
  <path d="M331,432l1-1-1,1Z"/>
  <path d="M487,356l-1-1,1,1Z"/>
  <path d="M546,238l1-2v1.5c-.25.68-.77.4-1,.5Z"/>
  <path d="M340,428c-.85-.24-3.08-2.21-4-3-.59-1.35-.97-.93-1-1-.16-.41.09-1.37,0-2,2.22,2.63,3.36,1.88,5,6Z"/>
  <path d="M145,296c.18-.57-.02-1.13,1-1,.13,1.01-.42.82-1,1Z"/>
  <path d="M263,70c-1.42,1.61-2.37,2.59-4,4,.83-3.02.98-3.17,4-4Z"/>
  <path d="M282,77c.66-1.12.85-.85,1-1-.08.08.32.45-1,1Z"/>
  <path d="M283,76c.1-.1-.26-.38,1-1-.64,1.22-.88.88-1,1Z"/>
  <path d="M234,134l1-1-1,1Z"/>
  <path d="M179,172c-.17-1.15.84-.88,1-1l-1,1Z"/>
  <path d="M177,349l-1-1,1,1Z"/>
</svg>