<?xml version="1.0" encoding="UTF-8"?>
<svg id="Capa_1" data-name="Capa 1" xmlns="http://www.w3.org/2000/svg" viewBox="0 0 694 694" fill="currentColor">
  <path d="M673,340l-2-3-2,1.5c0,.33.94.62,1,1,.64,3.85-.54,5.21-2,8-5.69,10.88-11.34,21.79-18,32-4.23,6.48-9.24,13.03-14,19-15.76,19.76-28.2,40.01-48.5,56.5-5.17,4.2-5.46,5.2-12,7-.7.19-5.61,5.81-7,7-19.62,16.8-41.89,29.18-62,46l-3.5-.5,5.5-3.5,3-4c-1.49.57-2.82,2.35-4,3-15.7,8.68-29.08,17.28-46,23-5.26,1.78-10.65,3.74-16,5-10.7,2.51-21.47,8.84-32,11-1.02.21-2.38-.13-3.5,0l-.5-3c-1.14,1.75-3.21.69-5,1-9.57,1.64-19.69,3.6-29,6h-1c-1.44-2.09-3.5-2.46-6-2-14.49,2.65-31.81-.31-46,3-2.2.51-19.45-1.67-23-2-3.87-.36-7.4.36-11-1l-2.5-3c1.87,1.59,3.66.65,5.5,1,6.44,1.23,14.17,2.62,21,3,4.06.22,8.93.2,13,0,1.63-.08,2.87-.85,1.5-2-4.47-.2-9.03.28-13.5,0-12.31-.77-25.21-3.64-37-6-8.82-1.76-18.53-4.29-27-7-36.09-11.54-71.59-22.56-102-49-3.5-3.05-5.02-5.85-9-9-14.1-11.15-27.9-23.03-42-34-8.63-6.71-15.08-16.88-21.5-25.5-12.91-17.32-24.86-34.32-37-52-6.29-9.16-13.09-19.12-17-29-.66-1.66-.8-3.77-2-5,1.9-1.61,3.55,1.38,3,3l3,2.5c-1.26-1.64-.87-2.71-1-4.5-.37-4.97-1.32-9.3-1-14.5h2c.17-.17-.22-.96,0-1.5,11.82-28.38,35.69-56.17,55-80,1.06-1.31,2.93-4.74,4-6,9.65-11.39,20.48-21.25,31.5-31.5,22.39-20.84,43.34-38.91,71-52,7.43-3.52,17.03-5.61,25-9,19.93-8.47,35.68-14.64,56-19,12.26-2.63,27.9-7.75,40-9,7.76-.8,13.68-.07,21-1,20.9-2.65,42.16-5.18,63,0,2.23.56,4.4.56,6,1,2.02.56,3.85,2.13,8,3,14.88,3.11,29.67,6.61,44,11,8.95,2.74,17.5,6.43,26,10,26.04,10.94,48.05,21.1,70,39,16.31,13.29,32.67,27.27,49,41,9.32,7.83,17.58,14.75,25.5,24.5,11.73,14.45,19.51,32.28,31,47,4.59,5.88,8.89,11.29,12,18,1.08,2.33,7.01,9.98,7,11,0,.33-.88.58-1,1-.54,1.87,1.24,2.68,1,4.5l3-1v19ZM385,111l-5-.5c-10.85-1.3-22.27-1.72-33.5-.5-.36.04-.62.94-1,1-1.36.2-4.59-.93-4.5,1h34.5l1-1c1.88.89,3.04.85,5,1,1.08.08,3.77.67,3.5-1ZM306,115l-7.5,1-13.5,3.5,8.5.5,8-2,4.5-3ZM353,115h-2v1h2v-1ZM362,115c-1.8-.2-3.25.06-5,.5s-2.38.35-2,2.5l7-3ZM394,116l-8-1v2c2.31.61,3.75,1.13,6.5,1,1.62-.08,2.86-.85,1.5-2ZM340,116c-1.82.06-3.67-.09-5.5,0-1.62.08-2.86.84-1.5,2l4.5-1,2.5-1ZM349,116l-7,3c1.8.2,3.25-.06,5-.5s2.38-.35,2-2.5ZM377,118c-1.55-3.64-6.96-1.44-10-2l4.5,3,5.5-1ZM370,121l-5.5-4h-1l-3.5,2.5,4.5,3.5,5.5-2ZM405,121c.21-4.15-3.68-2.1-5.5-4h-2l-2.5,2.5,3.5,4.5,6.5-3ZM323,118h-3v.5l1.5,1.5,1.5-2ZM333,119l-5.5-1-3.5,3,6.5,1,2.5-3ZM348,119l1.5,3h2l3.5-2.5-7-.5ZM386,121l-3.5-3c-2.57-.21-6.65.76-6.5,4,1.98.09,3.23,1.53,5.5,1,.84-.2,2.86-2.49,4.5-2ZM314,119c-1.88-.24-3.47,0-4,2h4v-2ZM341,119h-3v.5l1.5,1.5h1.5v-2ZM408,119h-2v1h2v-1ZM283,120l-5.5,1-4.5,3,6.5-1,3.5-3ZM315,123c1.9.29,3.29-1.1,3-3l-3,1v2ZM415,122l-1.5-2h-4.5v2h6ZM428,124l-3.5-2-8.5-2,2.5,3c1.57-.7,2.71.95,3,1,1.92.34,4.46-.24,6.5,0ZM301,121l-4.5,1-3.5,3,5.5-1,2.5-3ZM310,122l-4.5-1-2,1-4.5,4c1.93.04,3.32,1.61,5.5,1,.77-.21,1.62-2.57,3-2l2.5-3ZM339,122l-4-.5-4,2,5.5,1.5,2.5-3ZM363,123l-6.5-2-2.5,3,5.5,2c1.29-1.93,4.23.38,3.5-3ZM291,122h-1.5l-1.5,2h3v-2ZM326,123c-2.61-.48-5.63-2.61-7,1,2.61.48,5.63,2.61,7-1ZM347.26,122.98c0-.68-.55-1.24-1.24-1.24s-1.24.55-1.24,1.24.55,1.24,1.24,1.24,1.24-.55,1.24-1.24ZM369,125c2.69.53,5.77,2.45,8-.5-2.42-2.64-7.8-4.37-8,.5ZM394,126l-4.5-4h-2l-4.5,2.5c1.27,1.78,2.99,2.34,4.5,3.5l6.5-2ZM413,127c-2.35-.11-4.28-2.41-6-3.5-1.87-1.19-2.09.9-4,.5l3.5,4c1.99-.42,2.76.63,4,2l2.5-3ZM444,126l-7.5-2-7.5-1,4.5,3c2.48.49,5.61.53,8,1,.75.15,2.9,2.94,2.5-1ZM313.43,123.04l-6.91,4.15,1.06,1.76,6.91-4.15-1.06-1.76ZM344,124c-2.84-.42-4.82.26-6,3,3,.11,6.18.6,6-3ZM419,125c-2.17.54-3.14-1.11-5-1,.97,2.18,2.63,3.47,5,3v-2ZM276,125h-3v2h1.5l1.5-2ZM287,125h-5.5l-2.5,3,4,.5,4-3.5ZM320,126c-2.01.17-1.77-1.23-4-.5-1.65.54-3.35,1.77-4,3.5h4.5l3.5-3ZM332,126l-5-1v2l5,1v-2ZM356,126l-6-1,4.5,3,1.5-2ZM364.5,125l-1,2c1.47,2.47,5.43,3.1,7.5.5l-6.5-2.5ZM385,130c.29-2.8-1.93-2.95-4-3.5s-2.52-.98-4,1l8,2.5ZM433,130c-1.33-2.82-5.3-3.23-8-4-.21,2.32,2.2,3.91,4,4.5,2.23.73,1.99-.67,4-.5ZM272,128l-5.5-1-3.5,4,5.5,1,3.5-4ZM292,127c-1.52-.89-6.86,2.3-6,3,2.84.42,4.82-.26,6-3ZM352,128c-2.69-.53-5.77-2.45-8,.5l4.5,2.5c2.06.36,3.74-.67,3.5-3ZM454,129l-9-2,4.5,3,4.5-1ZM261,128h-1.5l-1.5,2h3v-2ZM292,132l7-2.5-4-1-3,3.5ZM327,128l-8,2.5,4.5,1.5,3.5-4ZM337,128h-3v.5l1.5,1.5h1.5v-2ZM364,129l-6-1c.61,2.11,6.83,5.18,6,1ZM404,131c-3.72-.24-4.57-3.57-8.5-3-1.54.22-1.95,1.26-3.5,1l3.5,4,3,2,3-1,2.5-3ZM420.62,127.47l-.97,1.62,4.78,2.87.97-1.62-4.78-2.87ZM248,129l-4.5,1-3.5,2,5-.5,3-2.5ZM378,130l-7-1c-.25,1.88.68,2.73,2.5,3s5.39.85,4.5-2ZM279,130l-7,3,4,.5,3-3.5ZM304,130c-1.94-.55-2.34,1.3-3.5,2-.89.54-2.34-.58-1.5,2,2.54.51,5.06-1.35,5-4ZM326,134l7-2.5-4.5-.5-2.5,3ZM346,131l-6-1,4.5,3,1.5-2ZM419,133c-.97-2.18-2.63-3.47-5-3-.21,3.1,2.25,3.27,5,3ZM447,133c-.48-2-2.35-2.07-4-2.5-1.39-.36-2.53-.76-4-.5-.81.71,1.82,3.81,2.5,4,2.19.6,3.56-.96,5.5-1ZM257,131c-4.44-.55-8.76,1.71-11.5,5-.84,1.02-1.91,1.29-1.5,3,2.29-2.15,3.43.61,5.5,0l7.5-8ZM309,131l-6,3.5,3.5.5,2.5-4ZM353,133l7-.5c-1.39-2.02-3.39-1.61-5.5-1.5-1.62.08-2.87.85-1.5,2ZM372,135c.32-3.35-2.74-2.64-5-4-1,2.25,4.42,4.58,5,4ZM395,134c-3.26-.22-5.53-3.41-9-3-.37,2.32.93,2.33,2.5,3,1.44.61,3.06,1.65,4,2,1.81.68,3.09.02,2.5-2ZM439,136c.94-.83-2.25-4.02-3-4.5-1.87-1.19-2.09.9-4,.5l2.5,3,4.5,1ZM283.6,131.34l-4.63,2.78,1.06,1.76,4.63-2.78-1.06-1.76ZM335.5,132l-2,2c-.99.5.74,1.93,1,2,1.26.34,2.96-.71,4,1l3.5-2.5-4.5-2.5h-2ZM409.62,131.47l-.79,1.32,4.78,2.87.79-1.32-4.78-2.87ZM265,133h-5.5l-5.5,6,4.5,1,6.5-7ZM292,134l-4.5-1-2.5,3,4.5,1,2.5-3ZM318,133c-4.25-.47-6.96,0-9,4h5.5l3.5-4ZM391,137l-6.5-3-4.5.5c.89,1.25,3.46,1.1,4.5,1.5.56.21,2.61,1.91,3,2,.76.18,3.85.61,3.5-1ZM432,136c.81-.67-3.83-3.2-4-3v2l4,1ZM461,136c-3.34-.28-3.89-4.22-8-3,.34.95,2.99,3.86,3.5,4,.57.16,4.84.66,4.5-1ZM366,136l-1.5-2h-3.5v2h5ZM410,135l-5.5-1c-.57,1.27-3.39.48-2.5,2.5s2.34,1.43,4,1c2.33-.61,4.66.35,4-2.5ZM453,139l-3.5-5-4.5,1c.12,4.01,5.17,4.24,8,4ZM242.7,134.4l-6,3,.8,1.6,6-3-.8-1.6ZM272,135l-5.5,1-3.5,5,4.5-1,4.5-5ZM325,135l-4.5,1-2.5,3,4.5-1,2.5-3ZM350,136l-4.5-1-1.5,3c2.07-.48,6.81,1.59,6-2ZM427,137c-2.45.27-2.94-2.82-6-2l2.5,3,3.5,1v-2ZM231,136h-2v1h2v-1ZM278,136l-4,1.5-4,3,3.5.5,4.5-5ZM297,136h-2.5l-1.5,2,4-1v-1ZM382,137l-7-1,6.5,3,.5-2ZM421,140c.32-3.35-2.74-2.64-5-4-1,2.25,4.42,4.58,5,4ZM444,140l-3.5-4-1.5,1.5c1.57,1.71,2.5,3.01,5,2.5ZM301,137h-3v2h3v-2ZM337,138l-9.5-1-2.5,3c2.27-.32,5.44.46,7.5,0,.38-.09.6-.89,1-1,1.26-.35,3.99,3.15,3.5-1ZM401,139l-1.5-2h-1.5v2h3ZM467,139v-2h-1v2h1ZM286,138c-4.13-.56-8.17.21-9,5,3.91.52,7.17-1.74,9-5ZM309,139l-4.5-1-1.5,3c2.07-.48,6.81,1.59,6-2ZM375,138h-4v.5c1.1,1.54,2.14,1.73,4,1.5v-2ZM416,141c-.14-4.84-5.75-2.86-9-2l2.5,3,6.5-1ZM291,139c-1.92-.48-2.34,1.19-3.5,2-.42.3-2.52.3-2.5,2,2.47.13,6.26-1.03,6-4ZM363,140c-2.69.08-4.59-1.54-7.5-1-.37.07-.6.89-1,1-1.79.48-4.15-1.32-3.5,2h9.5l2.5-2ZM460,139v2h4v-2h-4ZM201,152c2.09-.01,3.7-2,5.5-3,3.11-1.72,2.61-4.23,6-4l4.5-5c-.2-.19-3.63,2.61-4.5,3-.8.36-2.35-.53-3.5,1.5-1.41,2.48-1.17,1.08-3.5,2.5-1.37.83-3.55,3.54-4.5,5ZM222,140c-1.11-1.07-5.41,3.66-5,4l4-1,1-3ZM236,140c-1.67.13-3.47-.43-5,.5s-3.88,3.92-5,5.5l5-.5,5-5.5ZM315,140h-4v3c1.38-.79,2.29-1.31,4-1v-2ZM384.5,140c-.65,0-.65,1,0,1s.65-1,0-1ZM387.5,140c-.65,0-.65,1,0,1s.65-1,0-1ZM433,143c.32-1.5-.44-2.06-1.5-3h-2.5c-.76.62,3.14,2.83,4,3ZM457,140c-2.48-.52-3.95.79-6,1v1h6v-2ZM245,142l-4.5-1c-.75.92-5.71,4.92-4.5,6,4.42.88,6.79-1.54,9-5ZM397,141h-5v2h5v-2ZM405,141h-2v1h2v-1ZM427,143c-.53-2.01-2.12-2.24-4-2v2h4ZM480,150c.39-1.84-1.01-2.37-2-3.5-2.09-2.38-4.69-5.24-8-5.5-.32.27,1.92,2.68,2.5,3,.47.26,1.31-.19,1.5,0s-.26,1.03,0,1.5c.49.88,5.07,5.43,6,4.5ZM478.62,140.47l-.79,1.32,4.78,2.87.79-1.32-4.78-2.87ZM254,143l-4.5-1-4.5,5,5-.5,4-3.5ZM305,144c-1.1-3.25-4.96-1.69-7.5-2l-3.5,3c1.75-.19,3.84.28,5.5,0,.46-.08.16-.92,1.5-.5,2.24.7,1.99-.65,4-.5ZM422,143c-2.81.37-5.46-2.95-7,1,2.16-.53,7.54,3.45,7-1ZM446.5,142c-.65,0-.65,1,0,1s.65-1,0-1ZM472,150c.39-1.84-1.01-2.37-2-3.5s-2.39-2.61-3.5-3.5c-1.28-1.02-2.12-.88-2.5.5-.06,1.36,1.52,2.76,2.5,3.5.2.15.76-.17,1,0,1.35.94,2.57,2.57,4.5,3ZM254,147c2.96.53,5.92-.69,6-4-2.35,1.19-4.99,1.08-6,4ZM266.6,143.34l-4.26,2.56,1.24,2.06,4.26-2.56-1.24-2.06ZM335,144c-2.79.16-5.71-.23-8.5,0-7.64.63-16.7,2.19-24,4-12.88,3.19-24.75,7.83-37,11-8.44,2.19-17.53,2.9-26,5-11.2,2.77-22.39,7.12-32,13-26.15,16.01-53.22,31.34-76,51-4.11,3.54-12.25,9.52-15.5,13.5-15.84,19.39-32.23,37.36-46,58-4.97,7.45-6.65,13.62-10,22-.69,1.72-3.71,4.64-4,6-.23,1.08-.21,4.85,0,6,.07.37.87.59,1,1,.73,2.28,1.86,3.52,2,4,1.72,5.83,3.51,10.99,6,16.5h2c5.17,9.56,23.32,42.57,31.5,46,1.5.63,2.95,2.5,4.5,4.5,8.63,11.17,21.76,23.56,32.5,33.5,12.95,11.99,26.84,21.7,42,31,21.41,13.13,41.67,21.01,65,27,19.58,5.03,37.82,10.88,57,17,1.18.38,3.93,1.75,5,2,7.29,1.69,15.15.69,23,1,13.92.55,31.34,2.26,44,0,3.14-.56,7.58.31,11,0,8.86-.81,18.43-4.5,27-7,13.21-3.85,26.77-6.97,39-9,6.39-1.06,8.25-1.84,14-4,9.96-3.74,19.51-8.06,29-13,22.21-11.56,42.55-25.51,62-40,9.44-7.03,15.2-16.05,22.5-24.5,9.15-10.59,20.77-21.43,29-31s13.42-18.3,20-29c3.2-5.2,10.96-17.17,12-22,.37-1.71.69-3.53,1-5s-.66-3.02,1-4l-6-12c-19.36-22.13-30.44-52.89-53.5-73.5-10.39-9.28-21.96-19.89-33-28-8.37-6.15-17.72-11.69-26-18-5.92-4.51-9.51-9.28-17-12-5.41-1.96-10.51-4.36-16-7-15.74-7.55-33.03-13.89-50-20-20.8-7.49-38.37-10.62-61-13-15.8-1.66-30.89-.69-46,2-1.62.29-2.6,1.48-4.5,1-.72-3.45,2.64-1.55,4.5-2,.39-.09.62-.92,1-1,1.27-.25,3.7.9,3.5-1ZM464,150c.12-5.26-4.51-6.72-9-6-.93.79,2.88,4.83,3.5,5,1.61.44,3.68-.66,5.5,1ZM223,145h-2v2l2-2ZM277,145c-1.82.06-3.67-.09-5.5,0-1.62.08-2.85.83-1.5,2l7-2ZM446,147l-5-2c.06,1.55,4.41,3.49,5,3v-1ZM455,149l-5-4c-.35,2.65,2.8,3.74,5,4ZM282.26,146.98c0-.68-.55-1.24-1.24-1.24s-1.24.55-1.24,1.24.55,1.24,1.24,1.24,1.24-.55,1.24-1.24ZM441,148c.5-.4-1.75-2.65-3-2-.5.4,1.75,2.65,3,2ZM484,149c-.71-1.64-2.24-3.31-4-3,.71,1.64,2.24,3.31,4,3ZM508,153c-2.33.44-3.95-2.16-5.5-3-1.36-.74-3.53-1.33-5-2-1.64-.75-3.08-2.62-5.5-2l2.5,2,13,7,.5-2ZM435.5,147c-.65,0-.65,1,0,1s.65-1,0-1ZM220,148l-3.5,2-3-1-3.5,2.5c2.64,3.53,3.69-.63,6-1.5l.5,2,3.5-4ZM220,153c3.08.08,6.74-1.27,6-5-2.5,1.2-6.01,1.33-6,5ZM427,150c-1.03-3.14-4.56-1.76-7-2l2.5,2h4.5ZM237,149c-3.58-.22-7.61-.57-8,4,3.27.4,6.6-1.03,8-4ZM246,149c-3.27-.4-6.76.01-7,4l4-1.5,3-2.5ZM254,149l-7,3c1.86.41,2.88-.61,4.5-1s2.98,1.08,2.5-2ZM257.5,149c-.65,0-.65,1,0,1s.65-1,0-1ZM289,149l-7.5,1c-8.15,3.51-16.9,4.56-26,7l-4.5,3,10.5-2c8.27-2.46,16.25-4.5,25-7l2.5-2ZM449,150c-1.51.42-1.82-.69-3-1v2h3v-1ZM437,153c-.83-2.22-3.89-3.19-6-3-.51,3.12.91,1.56,2.5,2,.61.17,1.66,1.75,3.5,1ZM495,155c.11-2.95-2.93-4.01-5-5-.69,4.21,2.22,3.61,5,5ZM188.5,151c-.65,0-.65,1,0,1s.65-1,0-1ZM468,151h-5v2h5v-2ZM489,154c-.71-1.64-2.24-3.31-4-3,.71,1.64,2.24,3.31,4,3ZM186,152l-7.5,3c-12.16,8.2-24.71,14.95-36,24-1.61,1.29-4.48,3.8-4.5,6,1.88.35.3-1.57,1.5-2,2.4-.86,2.43-1.87,4-3,.69-.5,3.26-1.5,4-2,11.88-8.04,23.79-15.34,36-23,.6-.38,2.83-2.72,2.5-3ZM197.6,151.34l-5.81,3.49.88,1.47,5.81-3.49-.88-1.47ZM457,154l-6-2c-.25,1.88.68,2.73,2.5,3,.93.14,3.81.63,3.5-1ZM476,152h-3v.5l1.5,1.5h1.5v-2ZM481.5,152c-.65,0-.65,1,0,1s.65-1,0-1ZM446,153h-3v.5l1.5,1.5h1.5v-2ZM211,154h-4.5l-1.5,2h6v-2ZM220,156l-.5-2-2.5,1v2l3-1ZM230,154l-6,3h3.5l2.5-3ZM233,157c2.93.43,4.23-.26,6-2.5l-.5-.5-4,1-1.5,2ZM255,154c-1.72-.33-2.97.5-4.5,1-1.33.43-1.82-.79-1.5,2,.39.33,2.81-.72,3.5-1,.96-.39,2.35-.36,2.5-2ZM203,155h-3v2h1.5l1.5-2ZM473,157l-1.5-2h-4.5v2h6ZM481,156l-5-1v2l5,1v-2ZM541,173c-2.96-.12-5.14-3.34-7.5-5-4.59-3.23-10.27-6.02-15-10l-6.5-2.5c1.22,1.57,2.86,2.47,4.5,3.5,7.18,4.54,14.55,10,22,15,.22.15,1.83.46,2.5,1v-2ZM470,163c-.18-.17-.96.23-1.5,0-1.26-.53-3.94-2.71-5-3-2.02-.55-5.38-.18-7-2l-6.5-2,2.5,3,11,3,6,3,.5-2ZM492,158l-2-2v2h2ZM499,158c-.53-2.01-2.12-2.24-4-2v2h4ZM505,159c.42,2.04,1.14,3.76,3.5,4l3.5,2c.87-.98-4.15-8.03-5.5-9l.5,3c-.66-.02-1.34.05-2,0-.12-.58.06-1.35,0-2l-3-1,1.5,3c.5.04,1.01-.04,1.5,0ZM245,157l-6,2.5c1.98,2.47,1.49.93,3,0,1.12-.69,2.74-.8,3-2.5ZM460.5,157c-.65,0-.65,1,0,1s.65-1,0-1ZM193,163c3.28.72,6.64-1.62,7-5-1.59,1.45-3.17.63-4.5,1-.68.19-3.31,3.28-2.5,4ZM208,158c-4.57-.71-6.44.85-8,5,3.75.69,7.39-.9,8-5ZM218,158h-6c-.19.19.26,1.03,0,1.5-1.12,2.02-3.74.58-3,3.5l4.5-1,4.5-4ZM226,158c-2.96-.53-5.92.69-6,4l3.5-2,2.5-2ZM477,163c1.02-2.16-4.32-4.6-5-4-.43,2.53.37,1.71,2,2.5.66.32,2.88,1.62,3,1.5ZM488,166c.95-.99-2.66-4.35-3.5-5-1.69-1.3-2.49-1.13-4.5-1,.12,1.56,7.64,6.37,8,6ZM499,167c1.02-.97-2.66-4.26-3.5-5-1.13-.99-1.66-2.39-3.5-2,.12,1.71,5.66,8.28,7,7ZM190,161c-2.24-.51-2.65,2.23-4.5,2l-2.5,3c1.86.76,7.63-4.45,7-5ZM234,161c-3.99,1.05-8.95,2.26-11,6l8.5-3,2.5-3ZM509,169c-2.46-3.5-4.78-8.9-10-8-1.27,1.16,4.72,5.96,5.5,7l4.5,1ZM180,162l-5.5,1c-1.37,1.66-3.82,2.76-3.5,5-1.75-.33-4.25,1.05-5.5,2-.83.63-3.37,3.09-2.5,4l6.5-5,1,1,9.5-8ZM523,173c.69-3.15-4.61-4.14-5-5.5-.18-.62.18-1.38,0-2s-4.08-4.35-5-3.5l4,4.5c-1.17.42-.56,2.11,0,3,.76,1.2,5.13,4.32,6,3.5ZM518.5,163l-.5.5,1.5,1.5.5-.5-1.5-1.5ZM461.5,164c-.65,0-.65,1,0,1s.65-1,0-1ZM464,166v-2h-1v2h1ZM516,171l-3.5-5-4.5-1.5c1.47,1.83,4.26,3.1,4,5.5l4,1ZM210,165c-3-.11-6.18-.6-6,3,1.52.89,6.86-2.3,6-3ZM194,166l-5.5,1c-.57.63-4.23,5.24-3.5,6,1.58-1.45,3.18-.63,4.5-1,.61-.17,5.45-5.11,4.5-6ZM201,166c-3.28-.72-6.64,1.62-7,5l4-1.5,3-3.5ZM471,167l-5-1c.08,1.61,4.51,3.49,5,3v-2ZM482,168l-1.5-2h-1.5v2h3ZM496,173l-3.5-4-5.5-2,2.5,4,6.5,2ZM185,168c-1.45-1.26-8.57,3.11-8,6,1.45,1.26,8.57-3.11,8-6ZM194,179c2.09.69,4.63-2.75,5.5-3,2.38-.68,5.89-1.66,8-3,.85-.54,3.32-3.13,2.5-4l-12.5,6-3.5,4ZM475.5,170c-.65,0-.65,1,0,1s.65-1,0-1ZM508,177c-1.05-1.82-2.92-3.61-4.5-5-1.12-.99-1.66-2.39-3.5-2l4.5,5,3.5,2ZM176,171c-2.06-.2-4.2,1.94-4,4l4-4ZM479,171h-2v1h2v-1ZM530,173l-4-1,1.5,2h2.5v-1ZM511,172.5l-1.5,1.5,6.75,6.75,1.5-1.5-6.75-6.75ZM527,177l-1.5-2h-3.5v1c1.86-.11,2.83,1.54,5,1ZM178,176h-2.5l-1.5,2,4-1v-1ZM499,179c-.59-2.66-3.22-1.37-4.5-3l-.5.5,5,2.5ZM158,182c2.5-1.2,6.01-1.33,6-5l-3.5,2-2.5,3ZM171.6,176.34l-4.26,2.56.88,1.47,4.26-2.56-.88-1.47ZM192,177c-2.14-1.05-8.49,3.44-7,5,2.57-1.46,5.77-2.08,7-5ZM523,182c1.06-1.13-3.64-5.39-4-5-.55,1.94,1.3,2.34,2,3.5.54.89-.58,2.34,2,1.5ZM533,178l-4-1c.22,1.33,3.17,3.83,4,3v-2ZM153,180v-2l-4,3.5.5.5,3.5-2ZM182,183l.5-4-4.5,2-1,4c.23.26,3.85-2.53,5-2ZM530,185c-.18-3.37-2.65-5.83-6-6-.86,2.36,5.68,6.35,6,6ZM542,183c-1.25-2.17-3.18-4.58-6-4,1.25,2.17,3.18,4.58,6,4ZM176,181c-3.59.76-6.94,2.28-8,6l4.5-1,3.5-5ZM553,191c.39-1.84-1.01-2.37-2-3.5-2.23-2.54-4.84-5.24-8-6.5l3,3,1,5,6,2ZM515,185c-.71-1.64-2.24-3.31-4-3,.71,1.64,2.24,3.31,4,3ZM163,188c2.28.94,4.56-4.37,4-5-.91.73-2.76.8-3,1.5-.41,1.19-1.08,2.22-1,3.5ZM537,186l-1.5-3h-2.5l1.5,3h2.5ZM159,185l-4.5,1c-1.61,2.28-5.49,2.35-5.5,6l7.5-2,2.5-5ZM519.5,185c-.65,0-.65,1,0,1s.65-1,0-1ZM528,186l-4-1c.22,1.33,3.17,3.83,4,3v-2ZM544,186l-4-1v2l4,1v-2ZM529.62,186.47l-.97,1.62,4.78,2.87.97-1.62-4.78-2.87ZM529,197l-7.5-7-5.5-2c.33,1.06,1.63,2.36,2.5,3,1.82,1.34,5.06,2.76,7,4,1.16.74,1.55,2.52,3.5,2ZM144,189l-7.5,3-5.5,6c1.84.39,2.38-1.01,3.5-2,2.28-2.02,2.78-3.75,6.5-3v-2l3-2ZM170,189c-1.69-.3-3,.46-4.5,1-1.08.39-.32,2.08-.5,3,1.59-1.37,4.22-1.99,5-4ZM542,194c1.12-1.12-3.93-6.35-6-5l2.5,3,3.5,2ZM560,193c-.44-1.42-4.05-4.95-5-4-.08,2.58,2.39,4.51,5,4ZM143,193c1.9.29,3.29-1.1,3-3l-3,3ZM163,191c-1.9-.29-3.29,1.1-3,3l3-3ZM548,193l-4-2,4.5,6-.5-4ZM155,193l-6.5,1-3.5,5c.82.76,3.64-1.6,4.5-2,.5-.23,1.34.19,2,0,.53-.15,3.15-3.05,3.5-4ZM171,193c-1.76-.31-3.29,1.36-4,3,1.76.31,3.29-1.36,4-3ZM559,200l-3.5-6-5.5-1,3.5,6,5.5,1ZM138.5,194c-.65,0-.65,1,0,1s.65-1,0-1ZM166,194c-1.76-.31-3.29,1.36-4,3,1.76.31,3.29-1.36,4-3ZM143,196l-4.5,1-4.5,5,5.5-1,3.5-5ZM564,198c-.19-.19-1.02.26-1.5,0-.87-.48-2.18-3.3-3.5-1.5,2.04,2.64,2.51,7.19,7,6.5.31-.27-1.74-2.88-2-3.5-.23-.54.17-1.33,0-1.5ZM159,197c-2.24-.32-3.34,2.13-5,3.5l.5.5c1.48-1.26,3.75-1.7,4.5-4ZM546,199c-.53-2.01-2.12-2.24-4-2,.53,2.01,2.12,2.24,4,2ZM119,207c1.84.39,2.37-1.01,3.5-2,.95-.84,5.51-4.92,4.5-6-3.38,2.12-6.66,3.97-8,8ZM549,199l3.5,4,.5-.5c-1.4-1.57-1.39-3.96-4-3.5ZM572,206c1.5-1.72-3.44-6.39-5-7-.22,3.6,1.69,5.95,5,7ZM150,200l-8,2c.52,2.63-3.31,3.13-3,6,4.49-1.85,9.4-2.76,11-8ZM561,206c.2-3.32-3.99-3.58-6-5-.86,2.4,5.14,5.73,6,5ZM132,202h-3v2h1.5l1.5-2ZM543,202h-2l1.5,2h.5v-2ZM139,204l-6,1c.53,1.15-2.26,4.78-2,5l4.5-1,3.5-5ZM540,205l4.5,5,3.5,1.5c-2.34-2.66-4.97-4.71-8-6.5ZM569,209c-.14-1.73-5.23-4.71-6-4,.09,3.35,3.1,4.53,6,4ZM130,206c-3.77.36-6.64,3.23-7,7l6-2,1-5ZM561,220c.54-.5-2.57-3.82-3-4.5-1.69-2.65-1.41-3.79-4.5-5.5-1.02-.57-4.75-3.74-5.5-3-.39,1.84,1.01,2.38,2,3.5,2.84,3.22,4.28,4.66,7.5,7.5,1.12.99,1.66,2.39,3.5,2ZM116,208c-2.93-.79-2.83,2.87-3,3-.24.18-1.04-.26-1.5,0-1.91,1.08-3.64,4.02-4.5,6,1.04.92,7.41-3.53,7-5.5l2-3.5ZM576,213c1.04-1.17-3.66-5.39-4-5l1.5,3,2.5,2ZM583,214c1.1-1.24-4.7-6.34-5-6l1.5,3,3.5,3ZM122,209c-2.37-.86-6.35,5.7-6,6l4-1c-.53-2.26,2.4-2.57,2-5ZM145,209l-5.5,3c-2.03,0-5.74,1.03-5.5,4l6.5-3,4.5-4ZM561.5,209c-.65,0-.65,1,0,1s.65-1,0-1ZM572,215l-6-4c-.43,2.54.38,1.7,2,2.5,1.29.64,2.54,1.64,4,1.5ZM141,216l-.5-2-7,4-4.5,6c1.93.49,2.34-1.21,3.5-2,.24-.16.8.15,1,0,2.51-1.85,4.4-5.91,7.5-6ZM578,218c.39-2.55-2.01-2.98-4-4-.9,1.05,2.28,4.65,4,4ZM570,226c-1.81-2.88-1.7-5.88-4.5-8-.22-.17-.8.16-1,0-.67-.53-3.07-3.47-3.5-3l3,5.5,6,5.5ZM130.25,215.25l-4.5,4.5,1,1,4.5-4.5-1-1ZM118,217h-2v1h2v-1ZM588,222c.36-.3-1.89-2.55-2.5-3-.2-.15-.76.16-1,0-1.16-.79-1.57-2.49-3.5-2-.91,2.68,6.54,5.39,7,5ZM112,218c-1.76-.31-3.29,1.36-4,3,1.76.31,3.29-1.36,4-3ZM125,218c-.87-.77-3.65,1.65-4.5,2-.54.22-1.33-.17-1.5,0-.19.19.26,1.02,0,1.5-.62,1.12-2.57,1.53-2,3.5,3.6-1.66,6.7-2.8,8-7ZM577.5,220c-.65,0-.65,1,0,1s.65-1,0-1ZM103,221h-2v1h2v-1ZM114,227l2-6c-.98.4-3.79,2.88-4,3.5-.57,1.68-.22,3.06,2,2.5ZM598,227c1.09-1.07-4.84-7.08-6-6,.04,1.39,4.63,7.35,6,6ZM101,223c-2.31-.49-3.09,2.22-4.5,3-.47.26-1.31-.19-1.5,0-.17.17.23.96,0,1.5-.36.87-1.78,2.36-2,3.5.99.97,4.33-2.66,5-3.5.13-.17-.18-.72,0-1,1.27-2.01,3.68-.61,3-3.5ZM126,225v-2l-2,1.5v.5h2ZM581,233l-3-5.5-5-4.5c-.65,3.22,2.27,4.47,4,6.5.15.17-.18.77,0,1,.63.83,3.08,3.36,4,2.5ZM590,225l-6-2,2.5,3c1.95-.14,2.31,2.54,4.5,2l-1-3ZM109,224l-6,1c.55,1.63-.89,2.04-1,2.5-.51,2.11.25,3.4-2,5.5,5.05-.61,7.2-4.89,9-9ZM114,231c1.93.49,2.34-1.2,3.5-2,.24-.17.8.15,1,0,.83-.63,3.37-3.09,2.5-4-3.2,1.58-5.94,2.18-7,6ZM587,236c-2.09-2.98-2.36-8.77-7-8l3,4.5,4,3.5ZM607,235c-.44-1.46-2.04-2.36-3-3.5-.05-.06.16-.6-.5-1.5-.82-1.12-1.95-2.3-3.5-2l7,7ZM100,229c-1.84-.39-2.37,1.01-3.5,2-2.09,1.84-4.32,4.03-4.5,7l5-3.5,3-5.5ZM595.25,228.75l-1,1,4.5,4.5,1-1-4.5-4.5ZM112,231h-2v2l2-2ZM593,234l-6-3c-.62.74,3.28,7.86,4.5,8,1.42-2.08,1.95.79,3.5,1l-2-6ZM108,234v-2h-1v2h1ZM80,244c-.61.72-2.69.89-2,3l2-1,1.5,1,1.5-3h2c-.49-2.18,1.97-2.96,3-4.5l2-5.5-10,10ZM104,234c-.78-.73-6.85,2.54-6,5,.78.73,6.85-2.54,6-5ZM611.5,234l-.5.5,4.5,4.5.5-.5-4.5-4.5ZM116,236c-2.93-.29-5.24,1.46-7,3.5l-1,4.5,8-8ZM609,240c.35-2.65-2.8-3.74-5-4,.44,1.42,4.05,4.95,5,4ZM585.5,237c-.65,0-.65,1,0,1s.65-1,0-1ZM604,245l-.5-4-6.5-3,1,4c2.2-.13,3.63,2.41,6,3ZM95,239c-2.76.32-5.75,1.65-5,5,1.83-1.64,5.3-2.15,5-5ZM626,260l-5-8.5c-2.79-2.15-4.07-5.59-6-8-.98-1.22-2.58-2.81-4-3.5l1,4h2l-1,2.5c2.58,2.55,5.58,4,8,7,.16.2-.16.79,0,1,1.45,1.82,3.24,3.98,5,5.5ZM101,241c-1.61-.62-6.71,3.4-6,4,1.61.62,6.71-3.4,6-4ZM617.5,241l-.5.5,1.5,1.5.5-.5-1.5-1.5ZM586.5,242c-.65,0-.65,1,0,1s.65-1,0-1ZM599,250c-1.61-3.02-2.87-7.51-7-8l1,5.5,1.5,1.5,4.5,1ZM610,244l-3-1c.17,2.3,1.6,4.95,4,6l-1-5ZM93,245c-2.76.32-5.75,1.65-5,5,1.03,1.11,6.11-3.93,5-5ZM105,245h-2l-1,4c.62.75,2.79-3.08,3-4ZM100,246c-1.13-1.06-5.39,3.64-5,4,1.94.55,2.34-1.3,3.5-2,.89-.54,2.34.58,1.5-2ZM603,252l-1-4.5-3-1.5c1.19,2.35,1.08,4.99,4,6ZM607,249l-4-.5,2,5,3,2.5-1-7ZM75.5,249c-.65,0-.65,1,0,1s.65-1,0-1ZM78,257l4-3.5,1-4.5-3.5,4-1.5,4ZM98.25,250.25l-4.5,4.5,1,1,4.5-4.5-1-1ZM614,259l-1-6.5-4-1.5c1.4,2.92,1.63,6.6,5,8ZM600,256c.89-1.09-2.28-4.64-4-4l1,3,3,1ZM100,255v-2l-2,1.5v.5h2ZM619,261c.25-1.64-.39-3.05-1-4.5-.66-1.58-.68-2.87-3-2.5.79,1.25,1.06,2.62,1.5,4,.63,2-.24,3.52,2.5,3ZM89,256c-1.9-.29-3.29,1.1-3,3l3-3ZM625,264l-1.5-4-3.5-4,1,4.5,4,3.5ZM91,260s-1-.14-1,.5l1,.5v1.5l-3,3c.89,1.62,3.2-.94,4-2,.15-.2-.17-.76,0-1,.94-1.34,4.05-3.94,2.5-5.5-1.74,1.11-2.23,1.29-3.5,3ZM610,259l-3.5-2c-1.66.87.15,1.83.5,2.5.15.28-.14.78,0,1,.66,1.08,2.78,2.87,4,3.5l-1-5ZM70.5,258c-.65,0-.65,1,0,1s.65-1,0-1ZM78,259h-2v2l2-2ZM70,262v-2l-2,1.5v.5h2ZM84,265c1.64-.71,3.31-2.24,3-4-1.64.71-3.31,2.24-3,4ZM616,268c.27-2.57-.5-7.09-4-7,1.52,2.76.43,5.72,4,7ZM75,269c-.42-2.97,4.19-3.78,4-7-1.62.19-6.55,6.53-6,7h2ZM622,271l-1-5.5-3-2.5c-.24,2.83,0,7.88,4,8ZM629.81,262.51l-1.47.88,2.56,4.26,1.47-.88-2.56-4.26ZM67.5,264c-.65,0-.65,1,0,1s.65-1,0-1ZM626,266l-3-1c-.4,3.68.49,7.26,4,9l-1-8ZM64.5,266l-2.5,2.5.5.5,2.5-2.5-.5-.5ZM84,271l1-4c-1.33.22-3.83,3.17-3,4h2ZM69,268h-2l-1,5c1.61-.08,3.49-4.51,3-5ZM630,269h-2l1,4.5,3,3.5-2-8ZM635,269h-2l2.5,3,.5-.5-1-2.5ZM73,273c1.9.29,3.29-1.1,3-3l-3,1v2ZM611,274c.31-1.76-1.36-3.29-3-4-.31,1.76,1.36,3.29,3,4ZM617,274v-2.5l-2-1.5,1,4h1ZM71,273l-4,3.5-2,3.5c2.81,0,4.5-2.6,4-5l2-2ZM624,279l-4-6c.24,1.04-.62,3.58.5,4,1.66.63,2.12,1.23,3.5,2ZM77.5,274c-.65,0-.65,1,0,1s.65-1,0-1ZM635,275l-2,.5,1,3.5h2l-1-4ZM60,276c-2.67-.48-1.6.53-2.5,2-.6.98-2.01,1.19-1.5,3,.34.39,5.04-3.84,4-5ZM75,276h-2l-1,4c1.33-.22,3.83-3.17,3-4ZM81.5,277l-1.5,1.5.5.5,1.5-1.5-.5-.5ZM610,277h-2c.54.67.85,2.27,1,2.5,2.7,4.05,5.5,8.31,8,12,1.04,1.54,3.53,4.18,5,5.5.82-3.1-1.79-3.69-3-5.5-1.96-2.92-4-7.11-6-10-1.06-1.54-3.47-2.33-3-4.5ZM628,281c.24-1.88,0-3.47-2-4-.24,1.88,0,3.47,2,4ZM62,282c.4.5,2.65-1.75,2-3-.4-.5-2.65,1.75-2,3ZM51.5,280l-1.5,1.5.5.5,1.5-1.5-.5-.5ZM633,284c.24-1.88,0-3.47-2-4v4h2ZM60,281h-2v3l2-1.5v-1.5ZM638,281l-3,1.5c1.89,1.69-.19,5.7,4,5.5l-1-7ZM55,284v-2l-2,1.5v.5h2ZM625,285c.29-1.9-1.1-3.29-3-3l3,3ZM50,283l-4,3.5c-1.35,3.17-3.22,6.42-5,9-1,1.46-3.39,2.22-3,4.5.33.36,2.61-1.98,3-2.5.16-.21-.16-.77,0-1,1.11-1.56,2.96-3.44,4-5,.55-.83,1.45-3.14,2-4,.45-.71,3.52-3.96,3-4.5ZM67,286l-.5-3c-2.33,2.5-5.39,3.95-4.5,8,3.28.16,3.23-2.5,3-5h2ZM76.5,283c-.65,0-.65,1,0,1s.65-1,0-1ZM630,287c.5-.4-1.75-2.65-3-2-.5.4,1.75,2.65,3,2ZM642,291l2-1.5c-1.63-1.28-.34-3.91-3-4.5-.52,2.48.79,3.95,1,6ZM627,293c.45-2.3-.29-2.57-1.5-4-.71-.84-3.52-3.95-4.5-3,2.24,2.04,2.37,6.96,6,7ZM71,294c-.42-2.97,4.19-3.78,4-7-1.62.19-6.55,6.53-6,7h2ZM58,288h-2c.2,1.21-.02,1.79-1,2.5l.5.5,2.5-3ZM634,288l-2,.5,1,2.5h2l-1-3ZM49,292c.4.5,2.65-1.75,2-3-.4-.5-2.65,1.75-2,3ZM61,290c-3.8-.12-3.04,3.35-3,6l2-2.5,1-3.5ZM639,291l-2,.5,1,2.5h2l-1-3ZM51.5,293l-1.5,1.5.5.5,1.5-1.5-.5-.5ZM632,296v-1.5l-2-1.5v3h2ZM647,301c.67-3.31-1.63-5.6-3.5-8l-.5,6h2l2,2ZM56,294h-2v4c2.01-.53,2.24-2.12,2-4ZM52,302v-5h-.5l-1.5,1.5v3.5h2ZM624,298h-2v1h2v-1ZM58,306l2-7-4,5.5,2,1.5ZM640,299c-3.93-.4-1.15,1.74-1,2.5.4,1.98-1.51,6.27,2,5.5l-1-8ZM44,308c2.34.27,3.43-2.26,5-3.5l-1-4.5-4,2v6ZM624.5,300l-.5.5,1.5,1.5.5-.5-1.5-1.5ZM646,302l-3-1,1,8c3.14-1.03,1.76-4.56,2-7ZM42,304c-2.95-.19-3.31,2.06-3,4.5l2.5,4.5,1.5-3.5-1-5.5ZM55,306v-2l-2,1.5v.5h2ZM633,308v-2.5l-2-1.5,1,4h1ZM59.5,306c-.65,0-.65,1,0,1s.65-1,0-1ZM636.48,307.17l-2.33.52,1.52,6.83,2.33-.52-1.52-6.83ZM649.5,307c-.65,0-.65,1,0,1s.65-1,0-1ZM659,313c1.06-1.13-3.64-5.39-4-5-.55,1.94,1.3,2.34,2,3.5.54.89-.58,2.34,2,1.5ZM38,309l-3,2.5,1,5.5,3-1.5c.48-2.49-.58-4.24-1-6.5ZM50,309c-2.55-.39-2.98,2.01-4,4,1.05.9,4.65-2.28,4-4ZM58,311v-2l-2,1.5v.5h2ZM648,314v-3h-1c.42,1.51-.69,1.82-1,3h2ZM656,312h-2l1,5h2l-1-5ZM45,314l-3,2.5,1.5,1.5,1.5-1.5v-2.5ZM51,314h-2l-1,4h2l1-4ZM664,315c-4.32-.1-1,2.05,0,3.5.17.24-.15.8,0,1,.39.52,2.69,2.87,3,2.5l-3-7ZM34,322l1-3.5-3-2.5-1,4.5,3,1.5ZM646,318v-2h-1v2h1ZM654,324l1-3.5c-1.61-1.53-.43-4.82-4-4.5,1.53,2.1.88,4.15,1,6.5.08,1.62.83,2.85,2,1.5ZM39,318l-1,3.5,2.5,1.5c2.7-1.97,1.76-5.12-1.5-5ZM661.18,317.79l-1.76,1.06,3.49,5.81,1.76-1.06-3.49-5.81ZM47,319h-2l-1,2.5,3,1.5v-4ZM28,328c2.02-.37,1.73-2.49,3-3.5l-1.5-2.5c-2.17,1.43-1.44,3.6-1.5,6ZM37,322c-1.54.29-2.01,1.78-2.5,3-.75,1.86-.32,1.78,1,3l2.5-2.5-1-3.5ZM661,328c.11-3,.6-6.18-3-6-.53,1.65.8,1.93,1,2.5.38,1.1-.41,3.06,2,3.5ZM44,330c-.06-2.4.67-4.57-1.5-6-2.89,2.13-1.38,4.63,1.5,6ZM48,329v-3h-.5l-1.5,1.5,2,1.5ZM667,328v-2l-2,1.5v.5h2ZM33,327l-2,.5v3l3,3.5c-.4-1.91,1.68-2.12.5-4-.62-.99-2-1.19-1.5-3ZM651,327l-3,.5,4,4.5-1-5ZM658,327l-3,2.5,1,1,1,4.5,2-2.5-1-5.5ZM41,336c-.26-2.01,1.39-1.84.5-4-.66-1.61-1.23-3.32-3.5-3v3.5l3,3.5ZM671,334v-5h-1v5h1ZM46,334v-3h-.5l-1.5,1.5v1.5h2ZM665,331c-3.1-.21-3.27,2.25-3,5h2c-.11-1.86,1.54-2.83,1-5ZM30,343v-5.5l-1.5-4.5c-1.73,1.08-1.96,3.88-1.5,5.5.11.4,1.15.94,1.5,1.5.95,1.51-.29,3.22,1.5,3ZM656,341l-1.5-7-1.5,4.5,3,2.5ZM37,335l-2,.5c.02,2.92-.93,6.61,3,6.5l1-3.5-2-3.5ZM44,336c-3.1-.21-3.27,2.25-3,5h3v-5ZM49,339v-3h-.5l-1.5,1.5v1.5h2ZM662,337h-3l1,6,2-2.5v-3.5ZM667,338h-2v4c2.01-.53,2.24-2.12,2-4ZM645,339c-3.94-.4-1.15,1.75-1,2.5.48,2.42-.34,5.9,0,8.5,4.44-2.18.48-7.53,1-11ZM41,347l1-3.5-2.5-1.5c-2.7,1.97-1.76,5.12,1.5,5ZM55,346v-4h-1v4h1ZM35,348v-3.5l-1.5-1.5-2.5,1.5,2,3.5h2ZM45.5,343c-.65,0-.65,1,0,1s.65-1,0-1ZM658,349c-.54-1.64.84-1.97,1-2.5.6-1.98-.97-3.86-3-3.5v4.5l2,1.5ZM653.26,344.98c0-.68-.55-1.24-1.24-1.24s-1.24.55-1.24,1.24.55,1.24,1.24,1.24,1.24-.55,1.24-1.24ZM663.5,345c-.65,0-.65,1,0,1s.65-1,0-1ZM44,347l-3,2.5v1l1.5,1.5c1.91-1.27,1.58-2.86,1.5-5ZM48,349v-2l-2,1.5v.5h2ZM662.26,347.98c0-.68-.55-1.24-1.24-1.24s-1.24.55-1.24,1.24.55,1.24,1.24,1.24,1.24-.55,1.24-1.24ZM38,352c-.14-.14.06-2.95-2-3v3h2c-.27,2.75-.1,5.21,3,5,.06-2.01.41-3.91-1.5-5-.47-.27-1.31.19-1.5,0ZM640,356c3-1.26,4.49-4.58,1.5-7l-1.5,7ZM649,351v-2h-1v2h1ZM656,349h-2v3h2v-3ZM33,352l-2-2v2h2ZM58,350h-2c-.36,1.76,1.36,2.24,1,4h2l-1-4ZM659,353c.4.5,2.65-1.75,2-3-.4-.5-2.65,1.75-2,3ZM47,352h-2v6h2v-6ZM54,352h-2v3h2v-3ZM646.5,352c-.65,0-.65,1,0,1s.65-1,0-1ZM652.26,353.98c0-.68-.55-1.24-1.24-1.24s-1.24.55-1.24,1.24.55,1.24,1.24,1.24,1.24-.55,1.24-1.24ZM635,363c-.54-2.07,1.71-2.7,2.5-4,.93-1.53.37-3.33.5-5l-3,3.5c.01,1.91-4.44,6.04,0,5.5ZM658,356v-2l-2,1.5v.5h2ZM59.5,355c-.65,0-.65,1,0,1s.65-1,0-1ZM648.26,356.98c0-.68-.55-1.24-1.24-1.24s-1.24.55-1.24,1.24.55,1.24,1.24,1.24,1.24-.55,1.24-1.24ZM50,362c2.68-.94,2.73-3.41.5-5h-.5v5ZM617,379l12-11.5-1-3,3-7.5c-2.18.49-2.29,3.19-3,4.5-1.59,2.95-3.53,7.78-5,10-1.6,2.42-5.84,4.19-6,7.5ZM60,361v-3h-1v3h1ZM655.26,358.98c0-.68-.55-1.24-1.24-1.24s-1.24.55-1.24,1.24.55,1.24,1.24,1.24,1.24-.55,1.24-1.24ZM643,361v-2h-1v2h1ZM42,360l-3,.5,2,3,4,3.5c.18-2.94-3.09-4.53-3-7ZM44.5,360c-.65,0-.65,1,0,1s.65-1,0-1ZM55,368v-5.5l-2-2.5c-.21,2.06-1.35,3.12-1,5.5.27,1.82,1.12,2.75,3,2.5ZM66,364c-.31-1.18-1.42-1.49-1-3h-1v3h2ZM650,361h-2v2l2-2ZM655.26,362.98c0-.68-.55-1.24-1.24-1.24s-1.24.55-1.24,1.24.55,1.24,1.24,1.24,1.24-.55,1.24-1.24ZM51.26,363.98c0-.68-.55-1.24-1.24-1.24s-1.24.55-1.24,1.24.55,1.24,1.24,1.24,1.24-.55,1.24-1.24ZM638,368c1.9.29,3.29-1.1,3-3l-3,1v2ZM652,365l-4,1.5c-1.21,1.35-1.55,3.63-2,5.5.89,1.01,3.86-2.24,4.5-3,1.21-1.43,1.95-1.7,1.5-4ZM634,366h-2v2l2-2ZM61,367c-4.07-.48-.55,2.29-1,4.5l3,2.5-2-7ZM56,376c.99-4.78-2.87-5.79-6-8-.13,2.01-.3,2.81,1,4.5.6.79,4.11,4.52,5,3.5ZM73,370l-2,.5,1,3,10,13.5c.69-1.93-1.77-2.67-2-3.5-.17-.62.18-1.38,0-2-.31-1.1-5.01-6.41-6-8l-1-3.5ZM629,374c1.65.32,6.32-2.45,5-4l-5,4ZM636,378l4-2.5,1-4.5c-1.5.53-6.54,5.34-5,7ZM644,372h-2v2l2-2ZM66,376v-2h-1v2h1ZM55,377l-4-2,4.5,6-.5-4ZM64,382c.69-3.39-1.25-5.48-4-7-.69,3.39,1.25,5.48,4,7ZM634,376c-1.93-.49-2.34,1.21-3.5,2-.24.17-.8-.15-1,0-1.19.9-2.78,2.31-2.5,4,3.06.82,3.55-2.27,6-2l1-4ZM71,380c.65-1.25-1.6-3.5-2-3-.65,1.25,1.6,3.5,2,3ZM640,379l-3.5,2-2.5,3c1.22,1.11,6.35-4.69,6-5ZM60,385v-3.5l-2-1.5v5h2ZM68,380h-2c-.23,1.86-.04,2.9,1.5,4h.5v-4ZM626,382h-2v2l2-2ZM65,390c.4-3.27-.01-6.76-4-7-1.05,1.15,2.04,6.79,4,7ZM74,388c.58-.58-1.75-6-4-5-.51,2.61,1.42,5.08,4,5ZM632,383l-3.5,2-2.5,3c2.07,1.35,7.12-3.88,6-5ZM622,384h-2l-2,4c1.73.7,4.93-3.07,4-4ZM69,387h-2c-.23,1.86-.04,2.9,1.5,4h.5v-4ZM632,391c2.01-.53,2.24-2.12,2-4-2.01.53-2.24,2.12-2,4ZM638.5,387l-1.5,1.5.5.5,1.5-1.5-.5-.5ZM77.5,388l-.5.5,4.5,4.5.5-.5-4.5-4.5ZM612,388l-3,2.5-2,3.5,3-2.5,2-3.5ZM61,391l-2-2v2h2ZM75,391l-3.5-2c-1.45,1.12,1.31,2.98.5,5l4,2-1-5ZM624,389h-2v2l2-2ZM614,390h-2v1h2v-1ZM620,393l-.5-3-4.5,6c2.03-.67,2.69-3.48,5-3ZM630,390l-5,2.5v4.5l3-1c.31-1.96,1.06-4,2-6ZM66,395l-3-4,.5,4-.5,1.5,5,5.5-4-6.5,2-.5ZM84,393c-.44,2.68,2.03,2.62,3.5,4l.5-.5-4-3.5ZM71,399c.48-1.21-2.38-5.77-3-5-.47,2.37.82,4.03,3,5ZM84,400c.4-.38-3.45-5.95-5-6-.75.9,2.69,6.91,5,6ZM621.12,394.53l-1.12,4.47,2.24.56,1.12-4.47-2.24-.56ZM609,400l2-1.5v-2.5h-1l-1,4ZM78,402c-.99-2.09-2.1-5.14-5-5-.73,3.4,2.27,4.68,5,5ZM619,397c-1.24-1.41-6.77,5.09-6,7,.23.26,3.84-2.53,5-2l1-5ZM86,398c-.25,3.52,1.58,5.53,4.5,7l-1.5-3.5-3-3.5ZM624,402c.4.5,2.65-1.75,2-3-.4-.5-2.65,1.75-2,3ZM74,406c-.39-.85-4.34-6.79-5-6-1.33,2.06,3.82,7.11,5,6ZM578,424c.19-.19-.26-1.03,0-1.5,1.55-2.79,9.45-10.03,12-13,1.52-1.77,3.43-3.26,5-5l1.5-3.5-18.5,19.5-2,3.5h2ZM598,408c.55.63,5.76-5.14,5-7-1.68.42-2.04,2.15-3,3.5-.82,1.16-2.47,1.57-2,3.5ZM92,402c-.49,1.93,1.21,2.34,2,3.5.89,1.3,1.58,3.3,3.5,4.5l4.5,1.5c-2.57-2.33-3.83-5.15-6.5-7.5-1.13-.99-1.66-2.39-3.5-2ZM605,408c1.39,1.39,5.55-4.17,5-6-.3-.36-6.15,4.85-5,6ZM622,407l-.5-5-2.5,6,3-1ZM87,408c.95-.95-2.58-4.56-4-5-.51,2.61,1.42,5.08,4,5ZM80,411c1.06-1.19-2.25-7.79-5-7-1.06,1.19,2.25,7.79,5,7ZM612,411c2.09-.99,5.14-2.1,5-5-1.83,1.64-5.3,2.15-5,5ZM94,411c-.44-1.42-4.05-4.95-5-4-.08,2.58,2.39,4.51,5,4ZM76,415c.08-2.72-3.06-4.1-4.5-6-.8,1.09,1.39,2.19,2,3,.74.98.73,2.78,2.5,3ZM90,417c1.29-2.35-4.57-9.46-6-8,1.45,1.59.63,3.17,1,4.5.3,1.07,4.8,3.73,5,3.5ZM602.26,409.98c0-.68-.55-1.24-1.24-1.24s-1.24.55-1.24,1.24.55,1.24,1.24,1.24,1.24-.55,1.24-1.24ZM607.5,410l-4.34,2.6.97,1.62,4.34-2.6-.97-1.62ZM611,420c-.51-1.89,1.14-2.27,2-3.5.16-.22-.16-.77,0-1,1.01-1.46,3.38-2.23,3-4.5l-4,1.5-1.5,4.5-3.5,1c-.67,3.15,1.91,1.82,4,2ZM98,421l-2-4.5-4-3.5,1,5.5,5,2.5ZM594,416c1.9.29,3.29-1.1,3-3l-3,3ZM80,414c-.44,2.68,2.03,2.62,3.5,4l.5-.5-4-3.5ZM593,414h-2v1h2v-1ZM99,440c.06-1.27-.79-2.99-1.5-4-2.99-4.26-10.07-9.79-14-14-2.24-2.4-3.57-5.39-6.5-7-.33,2.23,1.89,3.06,3,4.5,3.38,4.38,8.57,8.74,11,13.5h2c.15,2.75,3.69,5.27,6,7ZM606,417l-.5-2-2.5,1v2l3-1ZM616.5,416c-.65,0-.65,1,0,1s.65-1,0-1ZM94,426c-1.66-3.6-2.8-6.7-7-8l2,6,5,2ZM100.18,417.79l-1.76,1.06,3.49,5.81,1.76-1.06-3.49-5.81ZM598.5,419c-.65,0-.65,1,0,1s.65-1,0-1ZM599,429c4.51.69,4.97-3.89,7-6.5l-1.5-3.5-3.5,2.5-2,7.5ZM111,429c.49-1.93-1.21-2.34-2-3.5-.16-.24.15-.8,0-1-.61-.83-4.06-4.46-5-3.5l1,4h2v2l4,2ZM587,421h-2v2l2-2ZM611,424c.4.5,2.65-1.75,2-3-.4-.5-2.65,1.75-2,3ZM594,422h-2v1h2v-1ZM101,429c-.18-3.37-2.65-5.83-6-6,.18,3.37,2.65,5.83,6,6ZM599,423c-2.16-1.02-4.6,4.32-4,5,2.53.43,1.71-.37,2.5-2,.32-.66,1.62-2.88,1.5-3ZM577,428c2.06.2,4.2-1.94,4-4l-4,4ZM594,425l-4.5,1c-2.29,1.47-.88,3.83-2.5,6,.99,1.01,4.25-2.65,5-3.5.99-1.13,2.39-1.66,2-3.5ZM112.5,426l-1,1,5.75,5.75,1-1-5.75-5.75ZM107,432c-.99-2.09-2.1-5.14-5-5,.99,2.09,2.1,5.14,5,5ZM578,436c2.57.67,6.87-5.99,6-7-2.76,1.73-5.92,3.22-6,7ZM112,431l-4-.5,5,4.5-1-4ZM104,437c.75-.9-2.69-6.91-5-6l2,2c-.82,1.27,2.64,4.43,3,4ZM595,434v-2h-1v2h1ZM599.5,432c-.65,0-.65,1,0,1s.65-1,0-1ZM110,440c-1.42-2.01-1.68-6.2-5-6l2,3.5,3,2.5ZM122,437l-6-3c-.3,1.55.88,2.67,2,3.5,1.53,1.13,4.77,2.95,4-.5ZM590.5,434l-1.5,1.5.5.5,1.5-1.5-.5-.5ZM575,435c-1.04-1.1-6.3,3.76-5,6,2.63-1.15,5.62-2.47,5-6ZM588,437v-2h-1v2h1ZM117,443c-.31-3.56-2.71-5.82-6-7l1,5c1.16-.53,4.77,2.26,5,2ZM590,438c-.68-.75-5.45,2.96-6,3.5l-2,6.5c1.29-1.14,2.47-.69,3.5-1,.74-.22,2.5-2.87,3.5-3.5l1-5.5ZM586,454c4.43-3.65,8.54-7.85,12.5-12,.66-.69,2.76-2,2-3-4.41,3.12-8.91,7.43-12.5,11.5-.99,1.12-2.39,1.66-2,3.5ZM120,445l6,1.5c-1.25-1.76-2.62-4.35-4.5-5.5-.22-.14-.72.15-1,0-.67-.36-1.61-2.16-2.5-.5l2,4.5ZM127,442v-2h-1v2h1ZM566,440l-3.5,2-2.5,2.5c1.04.53,2.72-.88,3.5-1.5.52-.41,2.88-2.67,2.5-3ZM580,443c-2.11-.46-3.93.81-5,2.5-.15.24.15.77,0,1-.62.96-3.7,4.8-3,5.5,1.84.39,2.37-1.01,3.5-2,.83-.73,2.51-2.22,3-3,.75-1.2.43-2.65,1.5-4ZM116,446l-2-2v2h2ZM101,445h-2v1h2v-1ZM104.5,445l-.5.5,1.5,1.5.5-.5-1.5-1.5ZM132,449c-1.02-1.99-1.45-4.39-4-4-.65,1.72,2.95,4.9,4,4ZM112,448v-2h-1v2h1ZM572,446c-2.5.12-4.44,1.71-6,3.5l-1,4.5,4-1c-.52-1.65.74-1.86,1-2.5.22-.54-.19-1.35,0-2,.14-.51,2.57-2.03,2-2.5ZM126,448h-2v1h2v-1ZM141,450c-2.57.64-3.16-1.08-5-2l3.5,5,1.5-3ZM120,450c-.87.04-5.29-2.23-4,.5.39.82,5.08,5.42,6,4.5l-2-5ZM551,450c-1.25-.65-3.5,1.6-3,2,1.25.65,3.5-1.6,3-2ZM565,450c-2.33-.37-2.33.93-3,2.5-.45,1.06-1.04,2.31-1,3.5,2.94-1.04,2.79-3.61,4-6ZM134,453l-2-2v2h2ZM553,459c.96.95,4.38-2.66,5-3.5.15-.2-.16-.76,0-1,.79-1.16,2.49-1.57,2-3.5-3.7,1.81-5.63,4.19-7,8ZM130,459c.28-1.69-1.31-3.1-2.5-4-.23-.17-.82.15-1,0-1.14-.95-2.04-2.57-3.5-3l3.5,7h3.5ZM571,456c2.59.51,5.08-1.41,5-4-.27-.3-2.86,1.72-3.5,2-1.09.48-1.94-.83-1.5,2ZM147,458l-3-3c-.29,1.9,1.1,3.29,3,3ZM553,456c-2.31-.91-5.75,5.1-5,6,2.55-1.07,3.37-3.93,5-6ZM568,456l-5,1-1,4c1.81.5,2.01-.87,3-1.5,1.45-.92,3.4-.97,3-3.5ZM138,461c.31-1.76-1.36-3.29-3-4-.31,1.76,1.36,3.29,3,4ZM129,463c-.79-.29-2.7-.51-3.5-1-1.63-1-3.65-5.26-5.5-3.5l8.5,6.5,5.5,6c1.5.33,1.24-1.69,1-2.5-.12-.41-2.02-3.36-2.5-3.5-.63-.18-1.41.19-2,0-.69-.23-.46-.97-.5-1,.25.11,1.26.1,1.5,0,.42-.18.63-.9,1-1l3.5,2c.52-2.26-4.52-6.56-4-2-2.04.28.21-2.59-2.5-2-.87.19-.66,1.35-.5,2ZM150,460l-2-2v2h2ZM557,463c1.64-.71,3.31-2.24,3-4-1.64.71-3.31,2.24-3,4ZM539,466c1.96.53,6.95-4.97,6-6-1.97,1.01-4.4,1.45-4,4l-2,2ZM146.26,461.98c0-.68-.55-1.24-1.24-1.24s-1.24.55-1.24,1.24.55,1.24,1.24,1.24,1.24-.55,1.24-1.24ZM153,465c.81-.67-3.83-3.2-4-3v2l4,1ZM555,462c-2.37-.47-4.03.82-5,3,2.37.47,4.03-.82,5-3ZM142,467c.2-2.08-1.96-4.21-4-4l2,2,2,2ZM563,466l3-2.5-.5-.5c-.71.98-1.29,1.2-2.5,1v2ZM160,468c.29-1.9-1.1-3.29-3-3l3,3ZM524,474c1.84.39,2.37-1.01,3.5-2,2.09-1.84,4.32-4.03,4.5-7-2.14,1.4-4.31,3.58-6,5.5-.99,1.13-2.39,1.66-2,3.5ZM547,465c-1.9-.29-3.29,1.1-3,3l3-3ZM555,469c1.72.65,4.9-2.95,4-4-1.99,1.02-4.39,1.45-4,4ZM150,469c-.71-1.64-2.24-3.31-4-3,.71,1.64,2.24,3.31,4,3ZM157,469l-5-2,3.5,4,1.5-2ZM166,470c.29-1.9-1.1-3.29-3-3l3,3ZM546,472c2.06,1.33,7.11-3.82,6-5-2.01,1.42-6.2,1.68-6,5ZM142,475c.49-1.93-1.21-2.34-2-3.5-.17-.24.15-.8,0-1-.67-.89-1.77-1.62-2.5-2.5l-.5,4,5,3ZM541,468h-2v2l2-2ZM170,471l-2-2v2h2ZM559.5,469c-.65,0-.65,1,0,1s.65-1,0-1ZM146,474c.93-.93-2.27-4.7-4-4l2,4h2ZM164,473c-.71-1.64-2.24-3.31-4-3,.71,1.64,2.24,3.31,4,3ZM512,478l5.5-2,5.5-6c-.49-.46-5.98,4.28-7.5,4l-3.5,4ZM541,474c1.64-.71,3.31-2.24,3-4-1.64.71-3.31,2.24-3,4ZM154,475c.78-.67-4.61-4.37-5-4-.48,2.67.53,1.6,2,2.5.98.6,1.19,2.01,3,1.5ZM539,472c-2.85-.22-5.84,1.43-7,4,2.85.22,5.84-1.43,7-4ZM555,472c-1.55-.3-2.67.88-3.5,2-.38.52-1.54,2.38-1,3,1.71-1.37,4.74-2.11,4.5-5ZM161,476c.82-.66-4.29-3.71-5-3-.21,3.1,2.25,3.27,5,3ZM171,475c-.53-2.01-2.12-2.24-4-2,.53,2.01,2.12,2.24,4,2ZM177,475l-4-1c.22,1.33,3.17,3.83,4,3v-2ZM547,478l1-4c-.21-.24-4.7,2.47-5,3.5-.18.62.18,1.38,0,2-.19.65-2.44,2.11-3,3,1.96,2.64,1.93.55,3.5-.5.25-.17.8.15,1,0,1.55-1.15,2.35-3.43,4.5-3v-1.5l-2,.5ZM168,478c.82-.66-3.83-3.2-4-3-.32,1.5.44,2.06,1.5,3h2.5ZM523,479l-.5-3-4.5,5c2.43.4,2.74-2.53,5-2ZM158,480c-.98-.74-4.15-3.79-5-3,.73,1.56,1.94,4.24,3.5,5,1.87.91,1.4-1.12,1.5-2,2.39,1.8,3.58,3.72,7,3,1.59-1.45-5.08-6.19-7-5-.04.66.08,1.35,0,2ZM173,479c.5-.4-1.75-2.65-3-2-.5.4,1.75,2.65,3,2ZM541,477c-.87-.89-3.38,1.68-4,2.5-.15.2.17.76,0,1-.8,1.16-2.49,1.57-2,3.5.87.89,3.38-1.68,4-2.5.15-.2-.17-.76,0-1,.8-1.16,2.49-1.57,2-3.5ZM515,479l-8.5,3-5.5,5.5,4.5-1.5c1.43-1.89,2.61-2.33,5-2l4.5-5ZM526,486c1.97.25,5.01-.95,6-2.5.16-.25-.15-.79,0-1,.82-1.16,2.48-1.58,2-3.5l-6.5,3-1.5,4ZM171,484c.9-1.05-2.28-4.65-4-4-.39,2.55,2.01,2.98,4,4ZM179,480h-2v1h2v-1ZM185.5,480c-.65,0-.65,1,0,1s.65-1,0-1ZM202,489c.34-.3-1.07-1.74-1.5-2-2.75-1.66-5.52-3.29-8-5-1.16-.8-1.57-2.49-3.5-2,2.88,3.63,6.35,8.25,11,8l-1,2.5,5,2.5-4-3,2-1ZM177,485c.32-1.5-.44-2.06-1.5-3h-2.5c-.76.62,3.14,2.83,4,3ZM526,482c-2.68-.44-2.62,2.03-4,3.5l.5.5,3.5-4ZM182,484h-2v1h2v-1ZM170,490l-2.5-4-4.5-1c-.91,2.72,6.59,5.38,7,5ZM517,485c-.9-.75-6.91,2.69-6,5,1.15,1.15,6.36-4.7,6-5ZM535.26,485.98c0-.68-.55-1.24-1.24-1.24s-1.24.55-1.24,1.24.55,1.24,1.24,1.24,1.24-.55,1.24-1.24ZM157.62,485.47l-.79,1.32,4.78,2.87.79-1.32-4.78-2.87ZM170,486l3,4.5,3-1-6-3.5ZM495,488l-.5-2-10,5c-1.92,3.43-7.52,3.23-7.5,7l-2,2c2.33.72,5.64-5,6.5-5l1,1c1.45-2.57,4.17-2.83,6-4,1.98-1.27,4.13-4.05,6.5-4ZM151.5,487l-.5.5,1.5,1.5.5-.5-1.5-1.5ZM182,492c-.32-2.76-1.65-5.75-5-5-.11,2.95,2.93,4.01,5,5ZM187,492c.31-1.76-1.36-3.29-3-4-.31,1.76,1.36,3.29,3,4ZM529,488c-3.22-.43-6.13,1.04-8,3.5-.15.2.17.76,0,1-.8,1.16-2.49,1.57-2,3.5l4.5-2,5.5-6ZM191,492c.65-1.25-1.6-3.5-2-3-.65,1.25,1.6,3.5,2,3ZM197,493c1.32-1.55-3.35-4.32-5-4l5,4ZM504,489l-6.5,2-6.5,4c3.51.81,5.5-2.13,8.5-2l4.5-4ZM159,492c-1.02-.31-2.26-2.01-3-.5,1.23,1.05,2.27,2.52,3.5,3.5,12.43,9.83,25.9,15.75,40,23l5.5,1-2.5-2c-14.02-6-27.74-13.78-41-23-.48-.33-1.92.09-2.5-2l6,1.5-5.5-3.5c-.83-.07-.65,1.45-.5,2ZM518,495c.19-.19-.26-1.03,0-1.5.62-1.12,2.56-1.53,2-3.5-1.51.67-5.98,4.86-5,6,.85-.85,2.89-.89,3-1ZM511,496c1.64-.71,3.31-2.24,3-4-1.64.71-3.31,2.24-3,4ZM173,498l-2.5-3-3.5-2,2.5,3,3.5,2ZM180,497l-2-3.5-4-.5c.26,1.71,1.89,1.8,3,2.5.99.62,1.19,2,3,1.5ZM188,500c-.35-3.75-3.25-6.65-7-7-1.01,1.01,3.97,8.56,7,7ZM510,493c-2.4-.37-4.24.48-4,3,.83.83,3.78-1.67,4-3ZM190,494c-4.2-.31-1.06,2.58.5,4,1.11,1.02,1.68,2.38,3.5,2,.41-3.54-4.57-2.58-4-6ZM193,493.5l-1,1,4.75,4.75,1-1-4.75-4.75ZM204,500c.68-2.58-6.04-6.88-7-6-.68,2.58,6.04,6.88,7,6ZM505,494c-1.25-.65-3.5,1.6-3,2,1.25.65,3.5-1.6,3-2ZM212,499c-1.35-2.45-5.31-4.02-8-4,.81,1.38,2.75,3.7,4,4.5,1.87,1.19,2.09-.9,4-.5ZM227,499l-3.5-2-5.5-1,3.5,4,5,1,.5-2ZM287,513l-5.5-3c-12.94-3.05-24.43-7.88-37-10l-11.5-4,2.5,3c14.62,5.62,29,9.85,44,13l7.5,1ZM216.5,497l-.5.5,1.5,1.5.5-.5-1.5-1.5ZM516,497c-.93-.93-4.7,2.27-4,4l4-2v-2ZM472,499c-.05-.02.19-.82-.5-1h-2c-1.83,1.06-4.54,4.19-6,5-.47.26-1.31-.19-1.5,0v2c1.29-1.14,2.47-.69,3.5-1,1.31-.39,3.07-4.65,5.5-4l.5,2,2.5-3c-.64-.08-1.54.16-2,0ZM492,498c-3.91-.52-7.17,1.74-9,5,4.42.88,6.79-1.54,9-5ZM501,498c-3.28-.61-3.83,1.38-5,4,3.28.61,3.83-1.38,5-4ZM505,498h-2l-1,4c1.33-.22,3.83-3.17,3-4ZM511,498c-1.76-.31-3.29,1.36-4,3,1.76.31,3.29-1.36,4-3ZM515,503l3.5-2,2.5-3c-1.24-.08-6.65,4.42-6,5ZM202.25,500.64l-.64,2.25,5.15,1.47.64-2.25-5.15-1.47ZM214,503c-.53-2.01-2.12-2.24-4-2v2h4ZM247,507c-3.95,1.03-4.3-1.54-6.5-3-.21-.14-.73.16-1,0-.78-.45-5.27-3.22-5.5-3l3.5,4,4.5,1v2c1.99.02,5.53,3.05,5-1ZM474.5,501c-.65,0-.65,1,0,1s.65-1,0-1ZM198,505c-.71-1.64-2.24-3.31-4-3,.71,1.64,2.24,3.31,4,3ZM201,505c.65-1.25-1.6-3.5-2-3-.65,1.25,1.6,3.5,2,3ZM459,502l-4.5,1-3.5,3c3.27.4,6.6-1.03,8-4ZM446,503l-26.5,6-4,1-3.5,2c1.76-.18,3.82.26,5.5,0,7.01-1.1,15.6-5.05,23-6l5.5-3ZM226,506l-5-2c-.79.73,1.75,3.75,2.5,4,1.75.59,3.05.19,2.5-2ZM493,511l4-5.5-3.5-.5c-.87,1.17-6.71,5.72-5.5,7,1.87-1.17,4.08-1.77,5.5,0l10-4,3.5-4-3,1.5-4,1.5,2-3h-3l-1,5-5,2ZM213,509c-.72-2.56-5.95-6.07-7-2.5-.42,1.41,1.84,2.57,2.5,3.5l4.5-1ZM220,508l-7-3,3,3.5,4-.5ZM201,510l-9-4,2.5,3c2.16-.61,2.38.81,3.5,1.5.97.59,3.14,1.36,3-.5ZM205,510c.31-1.76-1.36-3.29-3-4-.31,1.76,1.36,3.29,3,4ZM483,506l-4.5,1-.5,3,5-4ZM484,510c2.06.2,4.2-1.94,4-4l-4,4ZM474.5,507c-.65,0-.65,1,0,1s.65-1,0-1ZM237.26,508.98c0-.68-.55-1.24-1.24-1.24s-1.24.55-1.24,1.24.55,1.24,1.24,1.24,1.24-.55,1.24-1.24ZM258,512c-1.04-2.94-3.61-2.79-6-4,.09,3.35,3.1,4.53,6,4ZM452,508h-5.5l-4.5,3,6.5-1,3.5-2ZM460,508l-4.5,1-1.5,3c2.08,1.34,6.43-3.65,6-4ZM467,508c-.83-.83-3.78,1.67-4,3l4-1v-2ZM225,509v2h4v-2h-4ZM223,512l-1.5-2h-3.5l1.5,3h1l2.5-1ZM244.25,509.64l-.45,1.58,4.75,1.36.45-1.58-4.75-1.36ZM434,510l-4.5,1-3.5,5c1.25,1.08,7.49-4.13,8-6ZM216,513l-1.5-2h-1.5v2h3ZM242,513c-.53-2.01-2.12-2.24-4-2v2h4ZM463,518c2.53-.09,4.41-1.76,6-3.5,1.02-1.11,2.38-1.68,2-3.5l-3.5,2-4.5,5ZM479,513c-1.85-3.84-3.96-1.72-6,.5-1.02,1.11-2.38,1.68-2,3.5l8-4ZM275,514l-1.5-2h-1.5v2h3ZM415,516c2.83.24,7.88,0,8-4-1.24.84-2.63.99-4,1.5-1.65.61-3.48.34-4,2.5ZM447,512h-6.5l-2.5,3h6.5l2.5-3ZM482.5,512c-.65,0-.65,1,0,1s.65-1,0-1ZM233,515l-1.5-2h-3.5l1.5,2h3.5ZM253,515l-1.5-2h-1.5v2h3ZM285,516c-1.31-3.62-5.49-.86-8-3l3,2.5,5,.5ZM462,513l-4.5,1-2.5,4c1.25,1.05,7.76-2.25,7-5ZM211,516c-2.26.53-2.57-2.4-5-2l4.5,4,.5-2ZM218,516l-2-2v2h2ZM227,516l-1.5-2h-4.5c-.32,1.02.62,2.75,1.5,3,1.91.55,2.74-1.29,4.5-1ZM436,514h-3.5l-1.5,2h3.5l1.5-2ZM453,514c-1.46-.14-2.71.86-4,1.5-1.62.8-2.43-.04-2,2.5l6-4ZM484,515l-4.5,2v-3l-5,5c-1.44-1.79-4.23-.76-6.5-1l3,3c-3.87-.61-6.15.55-8,4l4.5-1c4.62-2.98,9.49-4.01,14-6l2.5-3ZM247,515h-5v2h5v-2ZM266,516l-7-1c-.25,1.88.68,2.73,2.5,3s5.39.85,4.5-2ZM288,515h-2v1h2v-1ZM232,517v2h4v-2h-4ZM258,519c-.53-2.01-2.12-2.24-4-2,.53,2.01,2.12,2.24,4,2ZM286,518l-6-1v2c2.32.23,4.57,2.65,6-1ZM302,519v-2h-1v2h1ZM442,517h-5v2h3.5l1.5-2ZM230,518h-4v.5c1.1,1.54,2.14,1.73,4,1.5v-2ZM253,519l-5.5-1-2.5,3,4.5,1c1.29-1.93,4.23.38,3.5-3ZM416,518h-5v2h3.5l1.5-2ZM432,518c-1.88-.24-3.47,0-4,2h4v-2ZM274,522c-.14-.8-2.09-2.89-2.5-3-2.68-.74-4.94,1.22-7.5,1l2.5,3c2.71.37,4.98-.31,7.5-1ZM379,522c2.4.37,4.24-.48,4-3l-4,1v2ZM409,519h-4v2c1.88.24,3.47,0,4-2ZM222,522c.5-.4-1.75-2.65-3-2-.5.4,1.75,2.65,3,2ZM244,523c.65-1.25-1.6-3.5-2-3-.65,1.25,1.6,3.5,2,3ZM386,520h-2v2l2-2ZM437,522l-1.5-2-1.5,1.5v.5h3ZM241,524c.21-3.1-2.25-3.27-5-3l1,3h4ZM259.62,520.47l-.97,1.62,4.78,2.87.97-1.62-4.78-2.87ZM292,521h-4v2c1.38-.79,2.29-1.31,4-1v-1ZM301,522l-5-1v2c1.86-.11,2.83,1.54,5,1v-2ZM368,521c-1.74.2-3.86-.29-5.5,0-3.94.7-6.58-.89-10,1l-5.5,1c2.25.42,3.99,1.46,6.5,1,.38-.07.62-.94,1-1,1.37-.22,3.06.15,4.5,0v2h3.5l5.5-4ZM446,521c-2.75-.27-5.21-.1-5,3,2.75.27,5.21.1,5-3ZM454,521c-2.96-.53-5.92.69-6,4,2.08,1.34,6.43-3.65,6-4ZM462,521c-2.01-.13-2.81-.3-4.5,1-.79.6-4.52,4.11-3.5,5,2.01.13,2.81.3,4.5-1,.79-.6,4.52-4.11,3.5-5ZM233,525c.82-.66-4.29-3.71-5-3v2l5,1ZM259,524l-3.5-2c-.81,1.4-6.5.67-5.5,3.5,1.16,3.26,6.24.04,8.5.5l.5-2ZM315,522l-7,1.5c1.48,1.97,1.92,1.56,4,1s3.53.17,3-2.5ZM332,522h-7.5l-2.5,2,3.5,2,3-1,3.5-3ZM343,522h-6l2.5,3c1.01-1.27,3.13-.98,3.5-3ZM388,522c-1.25-.65-3.5,1.6-3,2,1.25.65,3.5-1.6,3-2ZM393,522c-.58-.58-6,1.75-5,4,2.26-1.36,5.32-.65,5-4ZM478.5,522c-.65,0-.65,1,0,1s.65-1,0-1ZM295,526c-.03-3.97-3.97-3.97-4,0h4ZM410,523h-3v2h3v-2ZM427,523h-6v1h6v-1ZM435,523l-1.5,1-2-1-1.5,3c2.75.27,5.21.1,5-3ZM476,525v-2l-2,1.5v.5h2ZM280,526c-1.92-4.17-6.82-.98-10-1l2.5,3h2l5.5-2ZM309,527l-3.5-3-3.5,1,1.5,3,5.5-1ZM330,528l6-2.5c-1.27-1.85-1.81-1.15-3.5-.5s-2.84.74-2.5,3ZM376,524c-1.8-.2-3.25.06-5,.5s-2.38.35-2,2.5l7-3ZM399,524l-4.5,1-2.5,3c2.85.22,5.84-1.43,7-4ZM414.26,524.98c0-.68-.55-1.24-1.24-1.24s-1.24.55-1.24,1.24.55,1.24,1.24,1.24,1.24-.55,1.24-1.24ZM248,525h-2l1.5,2h.5v-2ZM320,527l-6-2,2.5,3,3.5-1ZM345.26,525.98c0-.68-.55-1.24-1.24-1.24s-1.24.55-1.24,1.24.55,1.24,1.24,1.24,1.24-.55,1.24-1.24ZM380.6,524.34l-5.44,3.26,1.06,1.76,5.44-3.26-1.06-1.76ZM416,528l4.5,1,3.5-2.5c.09-1.94-8.99-2.87-8,1.5ZM442,525h-5v2h5v-2ZM270,530c.9-1.05-2.28-4.65-4-4-.39,2.55,2.01,2.98,4,4ZM353,528c-1.06-2.85-1.66-1.31-3.5-1s-2.94-.99-2.5,2l6-1ZM406,526l-5,.5-3,3.5c3.27.4,6.6-1.03,8-4ZM444,529c1.9.29,3.29-1.1,3-3l-3,1v2ZM471,526c-2.37-.47-4.03.82-5,3,1.21.48,5.77-2.38,5-3ZM246,528c-1.97-.13-6.61-3.1-6,1,2.2-.64,6.54,3.35,6-1ZM265,531c.4-2.79-2.16-2.66-3.5-4l-7.5,2,4.5,3,6.5-1ZM301,530l-1.5-3h-2.5l1.5,3h2.5ZM341,527l-4.5,1-1.5,2c.87.75,5.86-1.2,6-3ZM386,527c-1.52-.89-6.86,2.3-6,3,2.84.42,4.82-.26,6-3ZM431,527l-7,3,4,.5,3-3.5ZM285,529l-4.5-1-4.5,2.5,2.5,2.5,6.5-4ZM315,529l-7-1,2.5,4,4.5-3ZM328,528h-2v1h2v-1ZM368,528h-3v.5l1.5,1.5h1.5v-2ZM410,528l-6,2.5c1.94,3.96,6.28-2.26,6-2.5ZM454,528c-1.88-.24-3.47,0-4,2h4v-2ZM325,531c-.53-2.01-2.12-2.24-4-2,.53,2.01,2.12,2.24,4,2ZM345.34,527.9l-4.63,2.78,1.32,2.21,4.63-2.78-1.32-2.21ZM356,529h-3v2h1.5l1.5-2ZM374,529l-4,1,.56,2.24,4-1-.56-2.24ZM391,529l-4.5,1-1.5,2,4.5-1,1.5-2ZM419,530l-5.5-1c-1.48,1.26-3.75,1.7-4.5,4l6.5,1,3.5-4ZM438,529l-7,3,4,.5,3-3.5ZM294,531l-3-1v2l3,1v-2ZM334.26,530.98c0-.68-.55-1.24-1.24-1.24s-1.24.55-1.24,1.24.55,1.24,1.24,1.24,1.24-.55,1.24-1.24ZM357,533l7-1.5c-1.48-1.97-1.92-1.56-4-1s-3.53-.17-3,2.5ZM443,530c-1.13-1.06-5.39,3.64-5,4,1.94.55,2.34-1.3,3.5-2,.89-.54,2.34.58,1.5-2ZM279,535c-1.73.97-6.69-4.31-7-4-.1,3.78,4.94,3.3,6.5,6l.5-2ZM308,532l-6-1c1.03,2.28,2.19,2.96,4.5,3,2,.04,1.56-.07,1.5-2ZM321,532l-4.5-1-3.5,3,4,.5,4-2.5ZM379,531h-1.5l-1.5,2h3v-2ZM399,532l-4.5-1-2.5,3c2.01-.17,1.77,1.24,4,.5,1.22-.4,2.73-1.04,3-2.5ZM272,534c-1.81.5-2.01-.88-3-1.5-1.88-1.18-2.09.9-4,.5l5.5,3h1l.5-2ZM291,535c-2-4.52-6.93-3.63-10-.5l4.5,3.5,5.5-3ZM330,534c.5-.4-1.75-2.65-3-2-.5.4,1.75,2.65,3,2ZM339,534l-2-2v2h2ZM351,532h-5v2c2.17.54,3.14-1.11,5-1v-1ZM369,532c-.71-.71-5.82,2.34-5,3l2.5,1c1.2-1.33,2.89-2.1,2.5-4ZM425,532l-7,2.5,4,1,3-3.5ZM452.5,532c-.65,0-.65,1,0,1s.65-1,0-1ZM385,533h-4c.03,3.97,3.97,3.97,4,0ZM404,533c-2.59-.51-5.08,1.41-5,4,1.94.55,2.34-1.3,3.5-2,.89-.54,2.34.58,1.5-2ZM433,534l-4.5-1-2.5,4,7-3ZM301,537c.82-.66-3.83-3.2-4-3-.32,1.5.44,2.06,1.5,3h2.5ZM312,537c.29-1.9-1.1-3.29-3-3-.29,1.9,1.1,3.29,3,3ZM326,534c-2.57-.27-7.09.5-7,4l4.5-1,2.5-3ZM335,537c.29-1.9-1.1-3.29-3-3v2l3,1ZM358,536l-7-2c-.25,1.81.7,2.82,2.5,3,2.13.21,2.65-1.09,4.5-1ZM375,534c-2.37-.47-4.03.82-5,3,2.37.47,4.03-.82,5-3ZM344,535h-3v.5l1.5,1.5h1.5v-2ZM393,536l-6-1c-.26,1.91.68,2.69,2.5,3,1.98.34,4.2.64,3.5-2ZM412,536l-5.5-1-2.5,3c1.93.04,3.32,1.61,5.5,1,.41-.11,2.36-2.2,2.5-3ZM298,540l-4-3.5-4,.5,2.5,3h5.5ZM331,538l-3-1.5c-1.79,1.23-5.29,1.38-5,4.5l3.5-2,4.5-1ZM358,540l6-2.5c-2.33-3.25-5.91-.68-6,2.5ZM380,536l-6,2.5c2.33,3.25,5.91.68,6-2.5ZM340,537h-3v.5l1.5,1.5h1.5v-2ZM351,538l-4-1v2l4,1v-2ZM398,540v-1.5l-1.5-1.5-1.5,1.5v1.5h3ZM420,537l-6,3c1.64-.26,2.76-.77,4.5-1,1.35-.18,3.08-.55,1.5-2ZM277,540l-1.5-2h-4.5v1c2.48-.52,3.95.79,6,1ZM305,541c.32-1.5-.44-2.06-1.5-3h-2.5c.22,1.33,3.17,3.83,4,3ZM313,538v2h4v-2h-4ZM368,540l-2-1.5-3,3.5,5-2ZM383,544l6-3.5-4.5-2.5-4.5,2,3,4-7.5-1-4.5,5c1.85-.87,4.7,1.23,5.5,1,.4-.12.62-.92,1-1,.92-.19,2.2.24,3,0,.52-.16.86-1.54,2.5-1v-3ZM327,543l4.5,1,4.5-3.5c-2.13-3.07-3.89-.36-6.5-.5l-2.5,3ZM347,540l-5-1v2l5,1v-2ZM284,540h-5v2h5v-2ZM357,541l-4-1v2c1.21-.2,1.79.02,2.5,1l1.5-2ZM374,541c-1.91.4-2.13-1.69-4-.5-.69.44-1.29,1.46-2,2,1.82,2.28,1.64,1.42,3.5.5.78-.39,2.41-.31,2.5-2ZM406,540c-2.4.06-4.57-.67-6,1.5,2.02,2.67,6.2,2.05,6-1.5ZM294,541h-7v2h7v-2ZM321.26,541.98c0-.68-.55-1.24-1.24-1.24s-1.24.55-1.24,1.24.55,1.24,1.24,1.24,1.24-.55,1.24-1.24ZM384,548l6.5-1,4.5-4.5-4.5-1.5-6.5,7ZM343,543l-2.5-1h-2l-1.5,2,4.5,1,1.5-2ZM413,542h-5v2c1.86.11,2.83-1.54,5-1v-1ZM311,544c-.49-.41-6.76.31-8.5,0-.33-.06-.71-.96-3-1-2-.04-1.56.07-1.5,2,2.11.17,4.44-.24,6.5,0,.37.04.62.94,1,1,1.11.18,2.78.06,4,0,1.63-.08,2.87-.85,1.5-2ZM353,545c-.53-2.01-2.12-2.24-4-2v2h4ZM361,545l1-2c-1.86-.23-2.9-.04-4,1.5l3,.5v2l3.5,1,3.5-1c1.35-1.17.12-1.92-1.5-2-1.83-.09-3.68.06-5.5,0ZM401,544l-4.5-1-1.5,3,6-2ZM326,546h-14c-.6,4.33,3.42.69,4.5,1,.4.12.62.92,1,1,1.53.34,5.15.09,7,0,1.63-.08,2.87-.85,1.5-2ZM331.5,546c-.65,0-.65,1,0,1s.65-1,0-1ZM348,547l-4.5-1-3.5,2,8-1ZM328.5,551c-.65,0-.65,1,0,1s.65-1,0-1Z"/>
  <path d="M83,244c-.33.02-.67-.03-1,0,.11-.25-.16-1,.5-1l.5,1Z"/>
  <path d="M82,244c-.39.9-.9,1.95-2,2v-2c.66-.03,1.35.06,2,0Z"/>
  <polygon points="91 261 91 260 92 260.5 91 261"/>
  <path d="M130,464c-.21-.16-.68.34-1-1,1.38.51.93.97,1,1Z"/>
  <path d="M471,500l1-1-1,1Z"/>
  <polygon points="242 360 240 360 240 358 242 360"/>
  <path d="M251,343c-1.15.17-.86-.77-1-1l1,1Z"/>
  <path d="M470.31,331.3c0,68.01-55.13,123.13-123.13,123.13s-123.13-55.13-123.13-123.13,55.13-123.13,123.13-123.13,123.13,55.13,123.13,123.13ZM350,211h-2v1h2v-1ZM381,215c-2.24.88-4.37-1.75-5.5-2-2.67-.59-5.83-.02-9-1-.54-.17-.86-1.54-2.5-1l1,1.5-3,1.5c1.18,1.34,2.7,5.55,4.5,5,1.2-1.33,2.89-2.1,2.5-4l5-1c-.43,2.93.26,4.23,2.5,6l1.5-3c2.17.03,3.51.75,3-2ZM334,212c-1.82.06-3.67-.09-5.5,0-1.62.08-2.86.84-1.5,2l4.5-1,2.5-1ZM346,212h-5v1h5v-1ZM358,211.5l-2.5,2.5,2,2,2.5-2.5-2-2ZM354,213h-5c-.32,1.5.44,2.06,1.5,3h1l2.5-3ZM348,217c-2.61-.51-5.08,1.42-5,4,2.61.51,5.08-1.42,5-4ZM355,217h-3v2h3v-2ZM364,219l-5-2,2,5,3-3ZM388,218l-5-1c.59,2.66,3.22,1.37,4.5,3l.5-2ZM321,218l-4,1v1h4v-2ZM330,218c-3.75-.73-7.47,1.01-8,5l4,1v-1.5l4-4.5ZM338,218h-4v.5l2.5,2.5,1.5-1.5v-1.5ZM372,218l-5,2,1,4c2.52.52,3.48-.84,5-2.5l-1-3.5ZM305,219c-4.85.99-9.23,3.47-13.5,6-.26.15-.77-.14-1,0-.6.37-2.83,2.72-2.5,3l9.5-4c1.24-1.37,2.01-2.42,4-2l3.5-3ZM313,221v-2h-2v2h2v2c1.62-.08,3.85,2.25,5-.5.86-2.05-1.91-1.21-2.5-2.5l-2.5,1ZM398,222c-1.38.46-6.72-3.27-7-3-.03,3.89,4.69,3.52,7,5v-2ZM351,220c-.93-.93-4.7,2.27-4,4l4-2v-2ZM355,220c-.51,2.5.79,3.44,2.5,5l1.5-1.5-1.5-3.5h-2.5ZM383,224l-1.5-3c-1.19-.23-2.95-1.58-3.5.5-.42,1.6.3,2.56,1.5,3.5l3.5-1ZM327,226c3.56.73,4.86-1.23,7-3.5-1.22-1.34-1.13-1.73-3-1s-4.17,2.05-4,4.5ZM342,224c.29-1.9-1.1-3.29-3-3v3h3ZM306,223l-6.5,4c-1.46-1.74-2.99-1.6-2.5,1h3.5c1.59-2.14,4.48-2.24,5.5-5ZM320.5,223l-1.5,1.5,1.5,2.5,1.5-2.5-1.5-1.5ZM352,222.5l-3,3,3.5,3.5,3-3-3.5-3.5ZM366,223h-3l1,4h3l-1-4ZM307,231c-.24-2.81,2.96-4.35,3-7-1.12.61-4.74,3.74-5,4.5-.57,1.68-.22,3.06,2,2.5ZM309,232l4-3.5-.5-4.5c-1.83,2.1-3.63,5.12-3.5,8ZM332,230c.81.81,9.03-3.44,4.5-6-.78.98-5.68,4.83-4.5,6ZM345,227v-3h-.5l-1.5,1.5v1.5h2ZM374,223.5l-3.5,3.5,2.5,2.5,3.5-3.5-2.5-2.5ZM388,225l-2.5,1-2-1c-.29,1.15-3.44.51-2.5,2.5.35.75,1.92,1.65,2.5,2.5l2.5-1v-3l2-1ZM410,229l-8-4,3.5,4c1.86.09,4.72,4.58,4.5,0ZM362,226h-3c-.7,1.73,3.05,4.92,4,4l-1-4ZM395,228v-2h-1v2h1ZM312,234c2.31.45,2.57-.29,4-1.5s4.85-4.08,1.5-5.5c-1.89-.8-1.79,2.98-3.5,3.5l-2,3.5ZM323,229l2.5,1,2.5-1.5c-1.27-1.91-2.86-1.58-5-1.5v2ZM348,227c-5.06-.65.82,5.23,2,4l-2-4ZM342,228c-2.05-1.31-7.09,3.77-6,5l6-5ZM370,231v-1.5l-1.5-1.5-1.5,1.5v1.5h3ZM283.5,229l-1.5,1.5.5.5,1.5-1.5-.5-.5ZM293,231l-.5-2-4,2-3.5,3c2.98-.17,5.27-2.95,8-3ZM359,232c.32-1.5-.44-2.06-1.5-3h-2.5v3h4ZM379,229l-5,1c-.21,6.36,6.2,4.9,5-1ZM390,231v-2h-1v2h1ZM296,236c3.05.24,4.14-3.69,4-6-2.37.9-2.72,4.09-4,6ZM343.5,230l-4.5,3.5,1.5,1.5v2c.85-1.52,2.06-.72,3-1,.74-.22,2.5-2.87,3.5-3.5l-3.5-2.5ZM388,230c-1.5-.32-2.06.44-3,1.5v2.5h3v-4ZM405,230h-2l1.5,2h.5v-2ZM324,231l-4,1.5-3,3.5c2.13,1.11,8.55-3.57,7-5ZM331.26,231.98c0-.68-.55-1.24-1.24-1.24s-1.24.55-1.24,1.24.55,1.24,1.24,1.24,1.24-.55,1.24-1.24ZM400.5,231c-.65,0-.65,1,0,1s.65-1,0-1ZM354,234l-2-2v2h2ZM365,232h-2l1.5,2h.5v-2ZM397.5,232c-.65,0-.65,1,0,1s.65-1,0-1ZM292,233h-2v1h2v-1ZM304,233c-1.5-.32-2.06.44-3,1.5v2.5c1.33-.22,3.83-3.17,3-4ZM371,232.5l-2,2,2.5,2.5,2-2-2.5-2.5ZM328,234l-6,3.5c1.98,2.47,1.48.94,3,0s3.39-.98,3-3.5ZM362,234h-3v2h1.5l1.5-2ZM399,234h-3c-.29,1.9,1.1,3.29,3,3v-3ZM410,239c-.28-2.6-1.58-5.76-5-5l4,3-3,1v5h5l-3-3,2-1ZM281.75,234.75l-4.5,4.5,1,1,4.5-4.5-1-1ZM290,238c.29-1.9-1.1-3.29-3-3-.29,1.9,1.1,3.29,3,3ZM304,238c.4.5,2.65-1.75,2-3-.4-.5-2.65,1.75-2,3ZM311.5,235l-4.34,2.6.97,1.62,4.34-2.6-.97-1.62ZM351,235c-2.75-.27-5.21-.1-5,3l5-1v-2ZM381.34,233.9l-4.34,2.6,1.5,2.5,4.34-2.6-1.5-2.5ZM274,236c-1.76-.31-3.29,1.36-4,3,1.76.31,3.29-1.36,4-3ZM332,236c-1.94-.55-2.34,1.3-3.5,2-.89.54-2.34-.58-1.5,2,1.59-1.37,4.22-1.99,5-4ZM367.5,236c-.65,0-.65,1,0,1s.65-1,0-1ZM393.5,236c-.65,0-.65,1,0,1s.65-1,0-1ZM416,239c.29-1.9-1.1-3.29-3-3v2l3,1ZM317,237h-3v1.5l1.5,1.5,1.5-1.5v-1.5ZM391,237h-2v2l2-2ZM296.26,238.98c0-.68-.55-1.24-1.24-1.24s-1.24.55-1.24,1.24.55,1.24,1.24,1.24,1.24-.55,1.24-1.24ZM340,239c-2.56-.49-6.51-2.73-8,1,1.72.22,3.9-.32,5.5,0,.75.15,2.9,2.94,2.5-1ZM377,240c-.53-2.01-2.12-2.24-4-2v2h4ZM276,239c-1.9-.29-3.29,1.1-3,3l3-3ZM282,239c-1.32.92-2.6,1.68-4,2.5-1.51.88-.41,2.19.5,2.5,3.17,1.07,4.04-2.8,3.5-5ZM287,245l1-4.5-4-1.5v6h3ZM300,241v-2h-1v2h1ZM399,238.5l-1.5,1.5,3.75,3.75,1.5-1.5-3.75-3.75ZM304,242v-2l-2,1.5v.5h2ZM395,243c-.97-2.18-2.63-3.47-5-3-.21,3.1,2.25,3.27,5,3ZM418,243c-.37-2.02-2.49-1.73-3.5-3l-1.5,1.5c1.27,1.91,2.86,1.58,5,1.5ZM291,241h-2l-1,5h2l1-5ZM307.5,241c-.65,0-.65,1,0,1s.65-1,0-1ZM333,243v-2h-1v2h1ZM336.5,241c-.65,0-.65,1,0,1s.65-1,0-1ZM387,243c-.53-2.01-2.12-2.24-4-2,.53,2.01,2.12,2.24,4,2ZM293.91,241.65l-2.87,4.78,1.62.97,2.87-4.78-1.62-.97ZM274,380c.19.19,1.42,3.61,2,4.5,4.15,6.42,12.09,11.46,16,17,2.81,3.99,19.5,10.84,24.5,12.5,6.49,2.15,13.35,3.19,20,5,.44.12,2.62,1.92,3,2,6.35,1.37,23.96-1.44,30-3,1.14-.29,2.81-.64,4-1,4.52-1.36,9-4.39,14-5,7.41-8.46,17.49-12.38,24.5-21.5,5.42-7.04,10.71-12.81,15-21,1.4-2.68,2.25-5.07,3-8,1.01-3.95,1.98-7.42,3-11,.8-2.79,2.66-7.24,3-10,.38-3.05.57-15.39,0-18-.08-.36-2-2.82-2-3,0-.78.6-.04,0-3-2.2-10.9-8.01-19.61-11-30-.16-.56-1.85-1.45-2-2-.23-.85.23-2.15,0-3-.16-.58-5.47-9.29-6-10-1.73-2.3-6.13-5.76-8.5-7.5-14.77-10.86-31.87-16.44-49-20-5.98-1.24-7.19-2.57-14-1-4.23.98-8.77.23-14,1-.37.05-.6.91-1,1-2.55.59-3.78-1-4-1-.33,0-.62.93-1,1-8.77,1.5-11,4.76-18,8-11.98,5.55-21.3,13.29-28.5,24.5-2.79,4.34-4.62,9.1-7,13-4.72,7.73-10.42,19.51-8,28-.42.66-1.87,1.52-2,2-1.46,5.29.47,24.1,2,29l-1,5c2.48,4.03,7.58,23.27,11.5,25.5.47.27,1.31-.19,1.5,0ZM422,242h-2v1h2v-1ZM296,246c.4.5,2.65-1.75,2-3-.4-.5-2.65,1.75-2,3ZM298,248c1.55,1.32,4.32-3.35,4-5l-4,5ZM384,248l-3.5-3c-2.27-.77-4.61-.58-7-1-.38-.07-.63-.95-1-1-1.71-.24-3.73.16-5.5,0-.2,1.92,2.25.72,3.5,1,.52.12,2.04,1.8,4,1l9.5,3ZM270.5,244c-.65,0-.65,1,0,1s.65-1,0-1ZM306.25,243.25l-3.75,3.75,1.5,1.5,3.75-3.75-1.5-1.5ZM428.75,243.25l-1,1,5.5,5.5,1-1-5.5-5.5ZM260,250c2.3-.75,2.74-3.02,4-4.5l-.5-.5c-1.37,1.66-3.82,2.76-3.5,5ZM397,247c-.53-2.01-2.12-2.24-4-2,.53,2.01,2.12,2.24,4,2ZM404,246l-3-1c-.29,1.9,1.1,3.29,3,3v-2ZM407,245c-.39,1.9,1.3,2.67,2.5,4l2.5-1.5-1.5-2.5h-3.5ZM419,249c.5-3.75-1.55-4.4-5-4-.5,3.75,1.55,4.4,5,4ZM274,246c-1.09-.89-4.64,2.28-4,4h3l1-4ZM280,246l-4,1.5,1,1-1,2.5,4-.5v-4.5ZM425,247l-4-1c-.32,1.5.44,2.06,1.5,3h2.5v-2ZM285,247c-3.1-.21-3.27,2.25-3,5h2c-.11-1.86,1.54-2.83,1-5ZM288,251v-3h-1c.42,1.51-.69,1.82-1,3h2ZM298,249h-3v2h3v-2ZM400,252c-.46-2.43-2.39-1.61-3.5-2-.58-.2-.85-1.53-2.5-1-.38,2.17.21,2.03,2,2.5,1.39.37,2.53.75,4,.5ZM292,250h-2v1h2v-1ZM392,251l-4-1v1l3.5,2,.5-2ZM406,252l-2-2v2h2ZM413,253c.82-.66-3.83-3.2-4-3-.32,1.5.44,2.06,1.5,3h2.5ZM420,254c.21-3.1-2.25-3.27-5-3-.21,3.1,2.25,3.27,5,3ZM428,251h-5.5c-.85,0-.65,1.98-.5,2.5.59,1.99,4.28,1.51,6,1.5v-4ZM439,256c.51-2.61-1.42-5.08-4-5,.6.9,3.42,5.72,4,5ZM267,252h-2c.42,1.51-.69,1.82-1,3h3v-3ZM272,256l1-2.5-1.5-1.5h-2.5l-1,2.5,1.5,1.5h2.5ZM276,257c3.97-.03,3.97-3.97,0-4v4ZM407,257c.31-1.76-1.36-3.29-3-4-.31,1.76,1.36,3.29,3,4ZM283.26,254.98c0-.68-.55-1.24-1.24-1.24s-1.24.55-1.24,1.24.55,1.24,1.24,1.24,1.24-.55,1.24-1.24ZM402.26,254.98c0-.68-.55-1.24-1.24-1.24s-1.24.55-1.24,1.24.55,1.24,1.24,1.24,1.24-.55,1.24-1.24ZM285.5,255c-.65,0-.65,1,0,1s.65-1,0-1ZM414,260c.27-2.75.1-5.21-3-5-.48,1.21,2.38,5.77,3,5ZM420,256h-4c-.41,2.33.3,4.88,2.5,6,1.96,1,1.48-1.66,1.5-2.5.03-1.17-.02-2.34,0-3.5ZM266,257c-2.33-.37-2.33.93-3,2.5-.3.71-1.33,3.17-1,3.5,4.48.57,4.23-2.49,4-6ZM428,258l-5-1c-.24,4.76-.66,7.79,5,7v-6ZM271,258l-3,1.5v2.5l3-1v-3ZM443,258h-2c-.29,1.9,1.1,3.29,3,3l-1-3ZM276.5,259l-3.25,3.25,1.5,1.5,3.25-3.25-1.5-1.5ZM284.5,259c-.65,0-.65,1,0,1s.65-1,0-1ZM433,259h-3v7h3v-7ZM246,270l6-5.5,2-4.5c-3.87,2.23-5.33,6.54-8,10ZM261.26,262.98c0-.68-.55-1.24-1.24-1.24s-1.24.55-1.24,1.24.55,1.24,1.24,1.24,1.24-.55,1.24-1.24ZM443.5,262c-.65,0-.65,1,0,1s.65-1,0-1ZM270.26,263.98c0-.68-.55-1.24-1.24-1.24s-1.24.55-1.24,1.24.55,1.24,1.24,1.24,1.24-.55,1.24-1.24ZM421,264l-3-1c-.29,1.9,1.1,3.29,3,3v-2ZM266,264l-4,1v3l4-1v-3ZM276,265l-3,2.5-1,5.5,3-2.5,1-5.5ZM436,267v-2h-1v2h1ZM256,271c2.68-.94,2.73-3.41.5-5h-.5v5ZM427,269c.29-1.9-1.1-3.29-3-3-.29,1.9,1.1,3.29,3,3ZM440,266h-2v3h2v-3ZM270,268c-1.9-.29-3.29,1.1-3,3h2l1-3ZM432,272v-2.5l-1.5-1.5-1.5,1.5,3,2.5ZM445,278l-1-5.5,1-1-3-3.5,1,4.5-2,3,4,2.5ZM254,272v-2l-2,1.5v.5h2ZM265,270h-3v3c1.9.29,3.29-1.1,3-3ZM422,274c.83-.83-1.67-3.78-3-4l1,4h2ZM436,270h-2v3h2v-3ZM440,271h-2v3l2-1.5v-1.5ZM251,277c1.09.89,4.64-2.28,4-4l-3,1-1,3ZM269,273h-2l-1,4h2c-.31-1.71.21-2.62,1-4ZM432,274l-3-1c-.29,1.9,1.1,3.29,3,3v-2ZM247.25,273.25l-5.75,5.75,1,1,5.75-5.75-1-1ZM262,280c2.43-.46,1.61-2.39,2-3.5.2-.58,1.53-.85,1-2.5l-3,1.5v4.5ZM427,274h-2l1.5,2h.5v-2ZM453,274l-2,.5,4,4.5c.4-2.43-2.53-2.74-2-5ZM436.26,276.98c0-.68-.55-1.24-1.24-1.24s-1.24.55-1.24,1.24.55,1.24,1.24,1.24,1.24-.55,1.24-1.24ZM250.26,277.98c0-.68-.55-1.24-1.24-1.24s-1.24.55-1.24,1.24.55,1.24,1.24,1.24,1.24-.55,1.24-1.24ZM259,282v-5h-1v5h1ZM255,285c.42-2.6,2.42-4.9-.5-7l-2.5,1.5v3l3,2.5ZM432,281c.29-1.9-1.1-3.29-3-3l1,3h2ZM439,278h-2v1h2v-1ZM445,280l-3.5-1-1.5,3,5,2v-4ZM251,287c-.06-2.4.67-4.57-1.5-6l-1.5,1.5,1,4.5h2ZM436,281h-2v2l2-2ZM264.26,282.98c0-.68-.55-1.24-1.24-1.24s-1.24.55-1.24,1.24.55,1.24,1.24,1.24,1.24-.55,1.24-1.24ZM425,282h-2v1h2v-1ZM456,282h-2l2,5h1l-1-5ZM240,286c1.9.29,3.29-1.1,3-3l-3,3ZM452,287c.28-.24-4.06-6.46-6-2.5l6,2.5ZM443,286c.5-.4-1.75-2.65-3-2-.5.4,1.75,2.65,3,2ZM247,285c-2.66-.47-1.61.52-2.5,2-.77,1.29-2.17,1.56-1.5,4l4-6ZM260,285h-2v2l2-2ZM433,291c.44-2.82-.31-4.87-3-6l1,4.5,2,1.5ZM254.5,286l-1.5,2.5,1.5,1.5,1.5-2.5-1.5-1.5ZM241,287h-2l-1,4c.62.75,2.79-3.08,3-4ZM443,288l-4-1v2l4,1v-2ZM436,291v-1.5l-2-1.5v3h2ZM232,302c-.54-1.64.85-1.98,1-2.5.77-2.62.8-3.19,2-6,.62-1.44,1.24-2.87,1-4.5l-4,6.5-2,6,2,.5ZM252,289c-1.9-.29-3.29,1.1-3,3,1.9.29,3.29-1.1,3-3ZM449,290l-4.5-1c-.85,0-.65,1.98-.5,2.5.22.75,3.85,2.68,4,2.5l1-4ZM458.5,289c-.65,0-.65,1,0,1s.65-1,0-1ZM254,294c.4.5,2.65-1.75,2-3-.4-.5-2.65,1.75-2,3ZM262,293v-2h-1v2h1ZM248,292h-3v3c1.9.29,3.29-1.1,3-3ZM440,297l1-3.5-3-1.5v5h2ZM451,297l4-1.5c-.63-3.14-4.23-5.31-5-1l1,2.5ZM243,294c-2.67-.48-1.6.53-2.5,2-.6.98-2.01,1.19-1.5,3,1.26.07,2.33-.58,3.5-1s.26-2.97.5-4ZM253,294c-1.25-.65-3.5,1.6-3,2,1.25.65,3.5-1.6,3-2ZM260.5,294c-.65,0-.65,1,0,1s.65-1,0-1ZM461,294h-2l1.5,2h.5v-2ZM257,298v-3h-.5l-1.5,1.5v1.5h2ZM433,295h-2c-.36,1.76,1.36,2.24,1,4h2l-1-4ZM445,302c-.29-1.75,1.55-2.62,1-4.5-.15-.5-2.46-2.76-3.5-2.5-3.2,2.51-1.23,6.84,2.5,7ZM249,296l-3,2.5,1.5,1.5,1.5-1.5v-2.5ZM458,302c.11-1.86-1.54-2.83-1-5l-2,1.5,3,3.5ZM234,304l1-5h-1l-2,5h2ZM254,299h-1.5l-1.5,1.5,1.5,1.5,1.5-1.5v-1.5ZM237.5,300c-.65,0-.65,1,0,1s.65-1,0-1ZM245,300c-1.9-.29-3.29,1.1-3,3,1.9.29,3.29-1.1,3-3ZM434,303v-3h-1v3h1ZM449,306l-.5-6-2.5,4.5,3,1.5ZM436.5,301c-.65,0-.65,1,0,1s.65-1,0-1ZM250,302h-2v1.5l1.5,1.5h.5v-3ZM240,303c-2.25-1-4.58,4.42-4,5,2.58.08,4.51-2.39,4-5ZM260,309l1-6-3,4.5,2,1.5ZM457,303h-2l1.5,2h.5v-2ZM247,304c-1.5-.32-2.06.44-3,1.5v2.5h3v-4ZM435,304h-2c-.36,1.76,1.36,2.24,1,4h2l-1-4ZM253.5,305c-.65,0-.65,1,0,1s.65-1,0-1ZM454,311l1-3.5-4-2.5-1,3.5,4,2.5ZM441,306h-2v4h2v-4ZM461,306c-4.35-.54-.36,3.8-1,6-1.8.46-.19-3.06-2.5-2-.29.13-2.45,2.33-2.5,2.5-.3.96,1.94,3.33,2.5,3.5,1.97.61,3.66-3.66,4.5-4.5l-1-5.5ZM239,313c4.19.72,5.56-3.35,2.5-6l-3.5,2,1,4ZM252,310v-3h-.5l-1.5,1.5,2,1.5ZM233,311v-1.5l-2-1.5v3h2ZM249,310h-2v4c2.01-.53,2.24-2.12,2-4ZM253,310l-1,2.5.5.5,1.5-3h-1ZM445,311h-2v4c2.01-.53,2.24-2.12,2-4ZM452,315c.29-1.9-1.1-3.29-3-3l3,3ZM234,319c3.5-1.6,4.28-4.75,0-5v5ZM244,313.5l-2.5,2.5,2,2,2.5-2.5-2-2ZM251,314h-2v4c2.01-.53,2.24-2.12,2-4ZM449,319l1-2.5-2.5-2.5c-2.7,1.97-1.76,5.12,1.5,5ZM454,315.5l-1.5,1.5,3.75,3.75,1.5-1.5-3.75-3.75ZM463,316h-2v4c2.01-.53,2.24-2.12,2-4ZM256,319v-2h-1v2h1ZM247,318c-1.9-.29-3.29,1.1-3,3,1.9.29,3.29-1.1,3-3ZM240,323l-3-4-2,4.5c2.07,3.03,2.46-1,5-.5ZM447,322c.65-1.25-1.6-3.5-2-3-.65,1.25,1.6,3.5,2,3ZM451.5,319c-2.85.84-1.16,4.91,1,6,.65-.92,2.93-2.11,2.5-3.5-.17-.56-2.53-2.79-3.5-2.5ZM252.88,319.53l-2.24.56,1.12,4.47,2.24-.56-1.12-4.47ZM461,321h-2v3h2v-3ZM440,322h-2v1.5l1.5,1.5h.5v-3ZM246.5,323c-.65,0-.65,1,0,1s.65-1,0-1ZM250,323h-2l1,5h2l-1-5ZM243,324c-1.94-.55-2.34,1.3-3.5,2-.89.54-2.34-.58-1.5,2,1.14,1.05,5.39-3.65,5-4ZM458,324h-2c-.83.83,1.67,3.78,3,4l-1-4ZM451,328c.29-1.9-1.1-3.29-3-3-.29,1.9,1.1,3.29,3,3ZM233,331c.16.43-.08,1.37,0,2h.5c1.2-1.33,2.89-2.1,2.5-4-.14-.17-1.55.72-2,1l1-2.5-2-1.5c.72,1.94-1.27,3.41-1,4.5.17.68.98.45,1,.5ZM464,326h-2v2l2-2ZM243.5,327l-2.5,2.5.5.5,2.5-2.5-.5-.5ZM444,327l-4,1v5c2.31-.65,2.15-2.52,2-4.5l2-1.5ZM457,329l-2-2v2h2ZM228,328c-1.18-1.36-1.92-.11-2,1.5-.12,2.38.63,3.41,1,5.5,3.95-1.54.63-4.19,1-7ZM247,335l1-3.5-4-2.5-1,3.5,4,2.5ZM258,332v-2h-1v2h1ZM455,333v-1.5l-1.5-1.5-1.5,1.5v1.5h3ZM468,330h-2c-.54,2.17,1.11,3.14,1,5h1v-5ZM447,333l-2-2v2h2ZM460.26,331.98c0-.68-.55-1.24-1.24-1.24s-1.24.55-1.24,1.24.55,1.24,1.24,1.24,1.24-.55,1.24-1.24ZM238,333c-1.9-.29-3.29,1.1-3,3,1.9.29,3.29-1.1,3-3ZM442,339c2.81.23,3.34-1.9,3-4.5l-2-1.5-1,6ZM244,337c.65-1.25-1.6-3.5-2-3-.65,1.25,1.6,3.5,2,3ZM255,334h-2v1.5l1.5,1.5h.5v-3ZM459,339c.51-2.5-.79-3.43-2.5-5l-1.5,1.5c-.42,1.53,3.18,4.32,4,3.5ZM241,335c-5.08.38-3.06,5.43.5,6l-.5-6ZM230,344l-1.5-8-1.5,4.5,3,3.5ZM450,339c.65-1.25-1.6-3.5-2-3-.65,1.25,1.6,3.5,2,3ZM250,342c-2.37.13-.45,4.04,1,1l2-.5-1-5.5-3,2.5c-.22.77.56,1.8,1,2.5ZM234,338h-2v3l2-1.5v-1.5ZM468,338c-3.39-.73-1.59,2.47-2,4.5-.14.71-1.9,4.38-2,5-.26,1.68.18,3.74,0,5.5,3.98-1.89,2.58-6.17,3-9.5.05-.37.94-.62,1-1,.22-1.37-.15-3.06,0-4.5ZM454.5,339c-.65,0-.65,1,0,1s.65-1,0-1ZM448,340c-1.9-.29-3.29,1.1-3,3,1.9.29,3.29-1.1,3-3ZM451,340c-.08,2.14-.41,3.73,1.5,5l1.5-1.5v-1l-3-2.5ZM459.5,340c-.65,0-.65,1,0,1s.65-1,0-1ZM236,348l3-4.5c-1.78-3.51-6.09-2.7-5,1,.25.85,2.68,1.56,2,3.5ZM243,344c.4.5,2.65-1.75,2-3-.4-.5-2.65,1.75-2,3ZM440,344v-2l-2,1.5v.5h2ZM247,349c4.93-.25,2.87-4.75-1-5l1,5ZM449,346l-.5-2-1.5,2.5,3,2.5,1-3h-2ZM445.26,345.98c0-.68-.55-1.24-1.24-1.24s-1.24.55-1.24,1.24.55,1.24,1.24,1.24,1.24-.55,1.24-1.24ZM242,346c-2.67-.48-1.6.53-2.5,2-.6.98-2.01,1.19-1.5,3,2.67.48,1.6-.53,2.5-2,.6-.98,2.01-1.19,1.5-3ZM259.5,346c-.65,0-.65,1,0,1s.65-1,0-1ZM456,346h-2v1h2v-1ZM442,349v-2h-1v2h1ZM241,354l3.5,2,2.5-4.5-3.5-3.5-2.5,6ZM458,353l1-3.5-2.5-1.5-1.5,1.5,1,3.5h2ZM235,352c.65-1.25-1.6-3.5-2-3-.65,1.25,1.6,3.5,2,3ZM252,349h-2v3l2-1.5v-1.5ZM447,349h-2v3h2v-3ZM440,351h-2c.31,1.71-.21,2.62-1,4h2l1-4ZM453,356l1-3.5c-1.57-2.01-2.43-2.01-4,0l3,3.5ZM442,355l2-1.5-1.5-1.5h-.5v3ZM257,353c-2.98-.59-1.92,1.36-2,3.5l4,3.5-2-7ZM250,354h-2l-1,4c.62.75,2.79-3.08,3-4ZM459,358c2.01-.53,2.24-2.12,2-4-2.01.53-2.24,2.12-2,4ZM449,355h-2v1.5l1.5,1.5h.5v-3ZM456,355h-2l-1,4c1.5.32,2.06-.44,3-1.5v-2.5ZM237,356h-2v1h2v-1ZM240,358h-2v4l5,1-1-3h2l-2-4h-2v2ZM441.26,356.98c0-.68-.55-1.24-1.24-1.24s-1.24.55-1.24,1.24.55,1.24,1.24,1.24,1.24-.55,1.24-1.24ZM463.17,355.63l-1.44,7.21,2.5.5,1.44-7.21-2.5-.5ZM445,357h-2v2l2-2ZM441,362v-3h-.5l-1.5,1.5v1.5h2ZM452,363c.24-1.88,0-3.47-2-4-.24,1.88,0,3.47,2,4ZM247,360h-2v1h2v-1ZM258,366c.63-1.61-3.42-6.72-4-6l-.5,3,4.5,3ZM435.5,360c-.65,0-.65,1,0,1s.65-1,0-1ZM447,366l-1.5-6-1.5,6h3ZM449,363v-2h-1v2h1ZM250.26,362.98c0-.68-.55-1.24-1.24-1.24s-1.24.55-1.24,1.24.55,1.24,1.24,1.24,1.24-.55,1.24-1.24ZM233,365v-2h-1v2h1ZM245,366v-3h-1v3h1ZM241,365c-1.51.42-1.82-.69-3-1l1,4,2-1.5v-1.5ZM261,366l-2-2v2h2ZM437,364h-2v3h1c-.42-1.51.69-1.82,1-3ZM459,369l-.5-5-2,3,2.5,2ZM443,365h-2v3h2v-3ZM248.5,366c-.65,0-.65,1,0,1s.65-1,0-1ZM241.76,366.44l-1.09,4.35,2.24.56,1.09-4.35-2.24-.56ZM235,371l-1.5-3-.5.5,1,2.5h1ZM259,371l2.5,1-2-4-.5,3ZM439,368c-2.52-.51-1.74.83-3,2.5-.45.6-2.45,2.06-2,2.5,2.91.68,1.39-1.35,3-2.5,1.33-.96,2.52.25,2-2.5ZM249,370l-4-1-1,2.5,4,2.5,1-4ZM449,369l-3,1.5v2.5l3-1.5v-2.5ZM453.5,369c-.65,0-.65,1,0,1s.65-1,0-1ZM428,378l2-8-2.5,5,.5,3ZM445,375c.36-1.76-1.36-2.24-1-4h-.5c-1.54,1.1-1.73,2.14-1.5,4h3ZM455,380l1-5.5-2-2.5c.55,2.52-.99,4.16-1,6.5-.01,2,.03,1.57,2,1.5ZM255,374l-4-1v4l4,1v-4ZM247,376l-4-2v3.5c1.83,2.65,4.05,1.4,4-1.5ZM441,376l-2-2v2h2ZM437,376c-1.9-.29-3.29,1.1-3,3,1.9.29,3.29-1.1,3-3ZM259,377h-2v3h3c-.31-1.18-1.42-1.49-1-3ZM446,377l-4,1v5c2.48,1.03,4.87-5.13,4-6ZM248.5,378c-.65,0-.65,1,0,1s.65-1,0-1ZM254,382c.32-1.5-.44-2.06-1.5-3h-2.5c.22,1.33,3.17,3.83,4,3ZM264,383c.5-.4-1.75-2.65-3-2-.5.4,1.75,2.65,3,2ZM437,381h-2l-1,4c1.5.32,2.06-.44,3-1.5v-2.5ZM441,381h-2v3l2-1.5v-1.5ZM446,389l5-4.5v-3.5l-3,4.5v1.5l-2,2ZM247,393l-1-4.5-5-6.5c-.71,3.69,3.29,5.38,3,8.5l3,2.5ZM258.26,382.98c0-.68-.55-1.24-1.24-1.24s-1.24.55-1.24,1.24.55,1.24,1.24,1.24,1.24-.55,1.24-1.24ZM247.5,383c-.65,0-.65,1,0,1s.65-1,0-1ZM253,388c.37-2.4-.48-4.24-3-4v4h3ZM262,384h-2l1.5,2h.5v-2ZM420.5,384l-1.5,1.5.5.5,1.5-1.5-.5-.5ZM430.5,385c-.65,0-.65,1,0,1s.65-1,0-1ZM257,386c-3.97.03-3.97,3.97,0,4v-4ZM426,389c1.9.29,3.29-1.1,3-3l-3,3ZM443.5,386c-.65,0-.65,1,0,1s.65-1,0-1ZM437,387h-2l-1,3c1.9.29,3.29-1.1,3-3ZM263.33,390.23c0-1.16-.94-2.1-2.1-2.1s-2.1.94-2.1,2.1.94,2.1,2.1,2.1,2.1-.94,2.1-2.1ZM430,393c.64.8,3.69-4.16,3-5l-3,1v4ZM439,393l2-1.5v-3.5h-1c.54,2.17-1.11,3.14-1,5ZM421.26,390.98c0-.68-.55-1.24-1.24-1.24s-1.24.55-1.24,1.24.55,1.24,1.24,1.24,1.24-.55,1.24-1.24ZM266,393v-2h-1v2h1ZM422,396l2-1.5c-1.32-.86-1.05-2.01-1-3.5h-1v5ZM428,391h-2l-1,4c1.33-.22,3.83-3.17,3-4ZM274,392h-2v1h2v-1ZM257,394l-4-1c1.19,1.45.62,4.06,2.5,5,2.25,1.13,1.44-3.18,1.5-4ZM437,393c-1.08-.32-2.76.66-3,1.5-.6,2.09,2.14,3.21,0,5.5l3-1.5-1-2,1-3.5ZM449.5,393c-.65,0-.65,1,0,1s.65-1,0-1ZM276,398v-2.5l-1.5-1.5-1.5,2.5,3,1.5ZM444.5,394l-1.5,1.5.5.5,1.5-1.5-.5-.5ZM262,401l1-4.5c-1.1-1.55-2.17-1.73-4-1.5l-1,5,4,1ZM419,395l-2,.5-1,4.5,2-3,3,1-1-1.5-.5.5-.5-2ZM432,395c-2.66.59-1.37,3.22-3,4.5l1.5,1.5c2.17-1.43,1.44-3.6,1.5-6ZM265.98,396.89l-2.44.54,1.06,4.76,2.44-.54-1.06-4.76ZM427,402v-4h-.5c-1.54,1.1-1.73,2.14-1.5,4h2ZM270,399h-2v4h2v-4ZM281,401l-2-2v2h2ZM279,406l-1.5-4-3.5-2,1,5,4,1ZM412,403c.4.5,2.65-1.75,2-3-.4-.5-2.65,1.75-2,3ZM423,402v-2h-1v2h1ZM289.26,401.98c0-.68-.55-1.24-1.24-1.24s-1.24.55-1.24,1.24.55,1.24,1.24,1.24,1.24-.55,1.24-1.24ZM259,405v-2l1.5,4,1.5-3-3,1ZM408,403c-2.95-.11-4.01,2.93-5,5,2.95.11,4.01-2.93,5-5ZM416.5,403c-.65,0-.65,1,0,1s.65-1,0-1ZM442,403c-2.06-.2-4.2,1.94-4,4l4-4ZM267,410c.53-1.65-.8-1.93-1-2.5-.38-1.1.41-3.06-2-3.5-.11,3-.6,6.18,3,6ZM281.62,403.53l-1.62.97,2.6,4.34,1.62-.97-2.6-4.34ZM425,407c.4.5,2.65-1.75,2-3-.4-.5-2.65,1.75-2,3ZM432,404h-3v4c1.5.32,2.06-.44,3-1.5v-2.5ZM272,411l-2.5-6-1.5,4.5,4,1.5ZM421.76,404.44l-1.09,4.35,2.24.56,1.09-4.35-2.24-.56ZM399,406c-1.93-.49-2.34,1.21-3.5,2-.24.16-.8-.15-1,0-.61.45-2.86,2.7-2.5,3,2.26,1.43,7.33-4.7,7-5ZM281,413c.62-3.5-2.33-4.83-5-6-.45,2.39,1.48,3.7,1,6h4ZM289,410l-3-3c-.29,1.9,1.1,3.29,3,3ZM416,409v-2l-2,1.5v.5h2ZM259,412c.2-2.06-1.94-4.2-4-4l4,4ZM410.5,408c-.65,0-.65,1,0,1s.65-1,0-1ZM427,414v-4.5l-2-1.5v6h2ZM260.5,409c-.65,0-.65,1,0,1s.65-1,0-1ZM285,414c.37-2.4-.48-4.24-3-4-.2.17,2.34,4.82,3,4ZM300,413c.82-.66-4.29-3.71-5-3v2l5,1ZM408,415c3.1.21,3.27-2.25,3-5-2.18.97-3.47,2.63-3,5ZM423,416v-6h-.5l-1.5,1.5v4.5h2ZM292,415c-.44-1.42-4.05-4.95-5-4-.08,2.58,2.39,4.51,5,4ZM413,415c2.01-.53,2.24-2.12,2-4-2.01.53-2.24,2.12-2,4ZM268,418c.58-.58-1.75-6-4-5-.51,2.61,1.42,5.08,4,5ZM274,418c-1.39-2.78-.79-5.69-5-5-1.09,1.01,3.85,6.08,5,5ZM398,416c1.9.29,3.29-1.1,3-3l-3,1v2ZM419,413h-2v3l2-1.5v-1.5ZM278,414c-.33,2.66-.24,6.99,3.5,6,2.08-.55.73-2.31.5-3.5l-4-2.5ZM297.21,413.68l-.56,2.24,4.35,1.09.56-2.24-4.35-1.09ZM302.5,415c-.65,0-.65,1,0,1s.65-1,0-1ZM317,416l-4-1v2l4,1v-2ZM433,417l-.5-2c-.86,1.19-6.68,5.65-5.5,7,1.84-1.06,4.23-2.92,4-5h2ZM286,418v-2l-2,1.5v.5h2ZM386,417h-1.5l-1.5,2h3v-2ZM410,417c-3.48-.55-2.43.23-4,2.5l1,4.5,2.5-3,.5-4ZM325,419c-1.51.42-1.82-.69-3-1v2h3v-1ZM414,418h-2v4c2.01-.53,2.24-2.12,2-4ZM419,418h-3v2h1.5l1.5-2ZM294,424c.51-2.5-.79-3.44-2.5-5-1.91,1.27-1.58,2.86-1.5,5h4ZM302.26,419.98c0-.68-.55-1.24-1.24-1.24s-1.24.55-1.24,1.24.55,1.24,1.24,1.24,1.24-.55,1.24-1.24ZM392,419h-3v2h1.5l1.5-2ZM400,419h-4v3h3c-.42-1.51.69-1.82,1-3ZM403,423l1-4c-2.02.37-1.73,2.49-3,3.5l2,.5ZM290,429l-2-3.5,1-2-3-3.5-1,4.5,3,1.5-1,2.5,3,.5ZM298,420h-2v3h2v-3ZM375,423c1.9.29,3.29-1.1,3-3l-3,3ZM423,420h-2v1h2v-1ZM284,426l-2.5-5-2.5,2.5,5,2.5ZM312,421h-2v1h2v-1ZM274,425c.32-1.5-.44-2.06-1.5-3h-2.5c-.76.62,3.14,2.83,4,3ZM307,422h-2v1h2v-1ZM317.26,422.98c0-.68-.55-1.24-1.24-1.24s-1.24.55-1.24,1.24.55,1.24,1.24,1.24,1.24-.55,1.24-1.24ZM364,422h-4.5l-2.5,2c1.82-.06,3.67.09,5.5,0,1.63-.08,2.87-.85,1.5-2ZM384,422c-1.88-.24-3.47,0-4,2,1.88.24,3.47,0,4-2ZM390,422c-2.81-.52-3.63.79-4.5,3-.74,1.87-.33,1.78,1,3l3.5-6ZM425.5,422l-1.5,1.5.5.5,1.5-1.5-.5-.5ZM304,423h-3v2h3v-2ZM314,425l-2-2v2h2ZM397,423l-4.5,4-1.5,3h4c-.06-2.41,2.56-4.19,2-7ZM419,423c-2.06-.2-4.2,1.94-4,4l4-4ZM331,424l-1.5,1-1.5-1,1.5,3,1.5-3ZM295,428v-1.5l-2-1.5c.42,1.51-.69,1.82-1,3h3ZM299.26,425.98c0-.68-.55-1.24-1.24-1.24s-1.24.55-1.24,1.24.55,1.24,1.24,1.24,1.24-.55,1.24-1.24ZM309,427v-2h-1v2h1ZM340,427v-2l-2,1.5v.5h2ZM348,425h-3v2h1.5l1.5-2ZM369,425h-2v1h2v-1ZM403,425h-3l-1,3c2.4.37,4.24-.48,4-3ZM315,426h-2v2l2-2ZM334.5,426l-3.5,2.5,2.5,2.5,2.5-2.5v-1l-1.5-1.5ZM353.5,426c-.65,0-.65,1,0,1s.65-1,0-1ZM361,426h-2v1h2v-1ZM374,426h-3v.5l1.5,1.5,1.5-2ZM305,427h-3v3h3v-3ZM327,427h-2v1h2v-1ZM352,427h-2.5l-1.5,1.5,2.5,1.5,1.5-3ZM366,429l-1.5-2h-1.5v2h3ZM380,427c-2.4-.37-4.24.48-4,3,2.4.37,4.24-.48,4-3ZM323,428h-3c-.29,1.9,1.1,3.29,3,3v-3ZM343,430v-2l-2,1.5v.5h2ZM358,428h-2v1h2v-1ZM409,428c-1.73-.7-4.93,3.07-4,4h2l2-4ZM301,434c-.26-2.2-1.35-5.35-4-5-.95.95,2.58,4.56,4,5ZM311,429h-2v1h2v-1ZM319,434c.71-.71-2.34-5.82-3-5l-1,3.5,1.5,1.5h2.5ZM369.5,429l-1.5,1.5,1.5,1.5,1.5-1.5-1.5-1.5ZM385,433l1-2.5-3-1.5-1,4h3ZM410.5,429c-.65,0-.65,1,0,1s.65-1,0-1ZM296,430h-2v1h2v-1ZM340,433v-3l-5,2.5,1.5,1.5,3.5-1ZM347,430c-1.9-.29-3.29,1.1-3,3h3v-3ZM352,433c.4.5,2.65-1.75,2-3-.4-.5-2.65,1.75-2,3ZM363,430h-3v2h3v-2ZM307,431h-2.5l-1.5,1.5,2.5,1.5,1.5-3ZM331,434c.29-1.9-1.1-3.29-3-3-.29,1.9,1.1,3.29,3,3ZM373,435c2.9.05,4.15-2.17,1.5-4l-2.5,1.5,1,2.5ZM400,431h-2v2l2-2ZM327,436c.65-1.72-2.95-4.9-4-4,1.02,1.99,1.45,4.39,4,4ZM360,433l-2.5-1-2.5,2.5c1.97,2.7,5.12,1.76,5-1.5ZM391,435v-3h-1c.42,1.51-.69,1.82-1,3h2ZM404,432c-2.37-.47-4.03.82-5,3,1.21.48,5.77-2.38,5-3ZM283,433h-2l1.5,2h.5v-2ZM292,436c-.22-1.33-3.17-3.83-4-3v2l4,1ZM314,436c.29-1.9-1.1-3.29-3-3l1,3h2ZM368,433h-3v2h3v-2ZM310,434c-1.9-.29-3.29,1.1-3,3l4,1-1-4ZM334,434h-1.5l-1.5,1.5,1.5,1.5h1.5v-3ZM343,434h-4l1.5,3,2.5-1v-2ZM350,434h-3v2h1.5l1.5-2ZM379,434h-2v2l2-2ZM295,437v-2h-1v2h1ZM319,435v3.5l2.5,1.5,1.5-1.5c.42-1.53-3.18-4.32-4-3.5ZM373,436l-4-1v3c1.88.24,3.47,0,4-2ZM383,435c-1.5-.32-2.06.44-3,1.5v2.5h2l1-4ZM356,437l-3.5-1-1.5,1.5,2.5,2.5,2.5-1v-2ZM363,435.5l-2.5,2.5,2,2,2.5-2.5-2-2ZM299,439c.5-.4-1.75-2.65-3-2-.5.4,1.75,2.65,3,2ZM330,437h-1.5l-1.5,1.5,1.5,1.5h1.5v-3ZM346,437h-3v2h1.5l1.5-2ZM303,441l-3-3c-.29,1.9,1.1,3.29,3,3ZM317,441c.65-1.25-1.6-3.5-2-3-.65,1.25,1.6,3.5,2,3ZM334.12,437.77l-.36,2.19,4.05.68.36-2.19-4.05-.68ZM376,438h-2v4h2v-4ZM388,438c-1.72-.65-4.9,2.95-4,4,1.99-1.02,4.39-1.45,4-4ZM346,440c1.26,2.71,3.78,4.47,6,1.5l-2.5-2.5-3.5,1ZM369,439l-4,1v3c1.73.7,4.92-3.05,4-4ZM307,442l-2-2v2h2ZM357,444c1.9.39,2.67-1.3,4-2.5l-2.5-1.5-1.5,1.5v2.5ZM397.5,439l-7.6,3.8,1,2,7.6-3.8-1-2ZM326,446v-3.5l-4-1.5,4,5ZM334,444c.29-1.9-1.1-3.29-3-3v2l3,1ZM341,441h-1.5l-1.5,1.5,1.5,1.5,1.5-1.5v-1.5ZM380,441h-2v3l2-1.5v-1.5ZM309.5,442c-.65,0-.65,1,0,1s.65-1,0-1ZM374,446v-2.5l-2.5-1.5-2.5,3.5,5,.5ZM364,443l-3,2.5c.7,2.31-2.47.89-3,3.5,1.93.47,2.34-1.18,3.5-2,.2-.14.74.16,1,0,1.59-1,1.7-2.27,1.5-4ZM329,444h-2l1.5,2h.5v-2ZM345,444l-4,1,1.5,3h4.5c-.48-1.66-2.52-2.02-2-4ZM354,444c.43,1.9-1.09,2.35-2,3.5-1.02,1.28-.88,2.14.5,2.5l4.5-2.5-3-3.5ZM386,444h-2l1.5,2h.5v-2ZM367.5,445c-.65,0-.65,1,0,1s.65-1,0-1ZM383,445l-4.5,1-1.5,2c2.08-1.66,5.14-.02,6-3ZM368,447h-1.5l-1.5,2h3v-2ZM333,448h-3v2h3v-2ZM350.26,448.98c0-.68-.55-1.24-1.24-1.24s-1.24.55-1.24,1.24.55,1.24,1.24,1.24,1.24-.55,1.24-1.24ZM344,450c-2.88.26-6.34-3.08-8,1,1.79-.06,3.25-.16,5,.5,1.86.7,2.4.22,3-1.5Z"/>
  <path d="M233,331c-.17-1.15.76-.85,1-1l-1,1Z"/>
</svg>