<?xml version="1.0" encoding="UTF-8"?>
<svg id="Capa_1" data-name="Capa 1" xmlns="http://www.w3.org/2000/svg" viewBox="0 0 694 694" fill="currentColor">
  <path d="M332.5,630c-6.57.81-16.25,4.34-23,6-2.28.56-5.61,1.75-7,2-1.2.22-6.56.21-6.5-1.5.99-.63,2.78-3.29,3.5-3.5.62-.18,1.38.18,2,0,.42-.12,2.35-2.2,2.5-3-14.12-.44-28.38.59-42.5,0-5.04-.21-12.91-2.71-18,0h-98.5c.2,4.45,9.36,6.69,4.5,11l-11-8-5.5,2,1-6c-1.13-.12-2.44.19-3.5,0-.39-.07-.67-1-1-1s-.62.93-1,1c-3.4.58-4.35-1.64-6-2-2.14-.47-4.91,1.06-6.5-1.5l6-3-6-4,1-1.5c-2.06.2-4.2-1.94-4-4-2.93.43-4.24-.26-6-2.5l2-4c.56-2.51-.94-3.59-1-4-.4-2.69-.03-5.53,1-8l-2-1c-2.53,1.49-1.58,4.61-3.5,5.5s-1.34-2.2-2.5-2.5v-1c1.53-.79.68-2.22,1-3,.87-2.15,2.97-4.25,4-6,5.24-8.94,9.71-18.53,13-28,1.37-3.94,1.92-7.08,3-11,.19-.7,2.79-2.28,3-3,3.45-11.98,11.44-23.6,14-36,2.15-2.35,2.08-5.55,3-8.5-.98.31-2.5,1.7-3,2.5-6.95,11.08-10.83,22.57-17,34-.38.7-.87,1.79-1,2-1.54,2.43-3.68,1.71-4-1,.56-.74,1.71-2.3,2-3,6.08-14.68,15.48-29.53,23-44,3.84-7.39,6.36-15.32,9-23,2.25-6.55,4.3-13.42,8-19,2.19-3.31,7.81-6.69,10-10,2.42-3.65,1.36-8.24,3-11,.69-1.16,3.77-3.2,4-4,1.21-4.21,3.76-9.88,6-14,.69-1.27,2.7-1.55,2-4-.33-1.17-7.44-5.97-6-7.5,4.91,1.71,7.86,5.32,11.5,9h2c1.33-1.83,3.9-.68,6-1,5.45-.83,10.18.21,15-3,8.74.9,20.25,1.77,29,2,18.31.47,36.68-.35,55,0,.48-.13,2.39-3.12,2.5-3.5.23-.85-.23-2.15,0-3,.11-.41,2.03-3.36,2.5-3.5.52-.15,2.51-.35,2.5.5l-1,8.5h13c.04-4.68-4.69-2.37-7.5-3-1.64-.37-1.56-2.31,0-3,7.57-.34,15.48.46,23,0,.35-.02.64-.97,1-1,20.13-1.5,41.03-3.29,61-4,9.04-.32,26.46,1.63,34,0,.34-.07,2.66-1.93,3-2,1.28-.28,3.09.18,4.5,0l-1,4.5,6.5,7.5c4.4-.45,9.77.62,14,0s10.52-4.02,15-6c1.61-.71,3.17-1.26,5-1,2.56,1.48-.1,2.46.5,4.5.05.17,2.33,2.45,2.5,2.5,3.76,1.04,12.33-.58,17,0,.37.05.62.93,1,1,2.52.46,4.2-.57,6.5-1l-2-9h3c-.54,1.64.84,1.98,1,2.5.43,1.43.05,1.91,1,4,.14.31-.13.78,0,1,2.13,3.58,4.5,2,7.5,2.5.35.06,2.12,1.83,4,1l3,4,5.5-1,1.5,3,2.5-1c.54,1.63-.87,2-1,2.5-.42,1.56,2.35,3.92,3,5,5.23,8.64,11.78,19.9,16,29,6.5,14.02,14.99,27.37,21,42,.53,1.3.61,1.62,1,3,.12.41.93.63,1,1,.67,3.68-1.48,5.39-2,8.5h-2c-.71,1.93.8,2.87,1,3.5,4.8,15.48,15.95,29.83,21,47,.11.39,2.97,3.55,3.5,4.5l3.5-1c.59,3.26-.69,4.5-3,6.5l3,6c2.89,6.24,8.1,16.87,9,23,.2,1.39.3,6.92,0,8s-2.32,1.85-3.5,1.5l-1.5-1c-.89,2.79-.79,6.01-3,8.5l1,5.5c-4.62.68-6.18,6.16-7,10l-14.5,3c-2.07,2.17-5.35,9.53-8.5,5.5l2-5.5c-2.36,1.17-4.44,1.07-6,3.5-.15.23-1.94,3.78-2,4-.41,1.47.72,3.27-1.5,4.5-1.2.36-1.76-.86-2.5-1.5-4.09-3.54-5.37-9.97-12-8.5-.04,3.77,3.58,3.66,6,2,.96,1.08-3.82,8.92-6.5,5l-3-5h-66c-11.69,2.31-24.22,2.92-36,5-1.79.32-3.86-.76-5,1l-6-5c-2.49-.69-6.83,1.21-9-1-.77.8-1.38.74-1,2,.78,2.59,4.28,3.63,1,6-1.07.3-2.42-1.21-3-2-.66-.9-.45-1.44-.5-1.5-.56-.65-3.2-3.42-3.5-3.5-1.6-.44-11.83-.27-14,0-7.6.94-16.4,5.06-24,6-2.36.29-5.08-.2-7.5,0v-7h-34.5ZM419,396c-12.45.4-25.05-.55-37.5,0-.35.02-.65.98-1,1-8.64.43-16.56.29-25,1l-3.5,2c1.71-.32,2.98.49,4.5,1,7.05,2.36,15.44,5.08,23,3,1.32-.36,1.6.91,2,1,6.2,1.39,17.47-.63,23-2,4.18-1.04,7.92-1.77,12-4l2.5-3ZM427,397c-3.85-.89-4.26,1.27-6.5,3-.21.16-.8-.16-1,0-.89.7-2.16,1.9-2.5,3l5.5,1c.74-.88,1.82-1.61,2.5-2.5.15-.2-.17-.76,0-1,.8-1.16,2.49-1.57,2-3.5ZM328.5,404c8.32.89,18.02-.66,26.5,0l-2.5-3c-6.09-.74-12.43-1.48-19-1-.36.03-.64.97-1,1-2.57.24-5.38-.17-8,0l-1.5,2,5,.5c.16.27.32.48.5.5ZM433,400c-2.4-.37-4.24.48-4,3h4v-3ZM474,402v-2h-1v2h1ZM517,433c1.17.07,1.92.16,3-.5,2.64-1.62-.22-4.34-1-6-1.01-2.15-2.13-4.78-3-7-.31-.8-.33-2.86-1-4-2.46-4.17-8.25-3.23-7,2,.75,3.11,3.19,7.96,5,11l1,5.5,2-3,1,2ZM486,422c-.17-2,.8-7.37-1.5-8s-3.56.96-5.5,1c.06,2.41-2.56,4.19-2,7,1.11.15,2.52-.23,3.5,0,.39.09.6.89,1,1,1.04.29,2.62-1.74,4.5-1ZM504,423v-7.5l-1.5-1.5c-3.81.36-8.32-.5-12,0-1.34.18-1.67.47-2.5,1.5l2,6.5h6c-.23-1.84-.04-2.91,1.5-4,2.06,2.18,2.6,5.73,6.5,5ZM288.88,415.4l-11.05.61.19,3.46,11.05-.61-.19-3.46ZM364,416c-1.95.52-2.91-.8-4.5-1-3.1-.39-4.49.76-6,1-1.33.21-3.69-.63-4.5.5,2.03,2.38,7.55,2.05,9.5.5l5.5-1ZM445,415l-4.5,1-4.5,6h6c-.28-2.9,3.91-3.42,3-7ZM456,415l-6.5,1c-1.95,1.76-2.85,4.26-2.5,7,6.01,1.05,9.31-1.85,9-8ZM473,415h-11.5l-1.5,1.5-1,5.5h9.5c2.37-1.83,3.15-4.39,4.5-7ZM269.16,414.6l-4.34,2.6,1.5,2.5,4.34-2.6-1.5-2.5ZM296,416h-4v3h3c-.42-1.51.69-1.82,1-3ZM308,416l-7,1.5c1.88,2.92,5.92.88,7-1.5ZM342,416h-16.5l-1.5,2h16.5l1.5-2ZM416.5,416c-.65,0-.65,1,0,1s.65-1,0-1ZM436,416l-6.5,1-2.5,4,4.5,1c1.92-1.73,3.64-3.53,4.5-6ZM204,417c-3.28-.08-6.14-.63-8,2.5-.13.22.14.69,0,1-1.48,3.24-1.57,6.89-4,10l-3,11.5c1.69.28,3.1-1.31,4-2.5.15-.2-.17-.76,0-1,2.61-3.74,4.2-5.55,6-10,.17-.42.88-.62,1-1l-2-5.5h5l1-5ZM252.08,416.66l-.23,2.33,6.04.6.23-2.33-6.04-.6ZM318,417c-2.48.09-5.01-.12-7.5,0-1.63.08-2.87.85-1.5,2,2.83-.47,7.65,1.51,9-2ZM414,417c-1.88-.24-3.47,0-4,2,1.88.24,3.47,0,4-2ZM217,418h-1.5l-1.5,1.5,1.5,1.5,1.5-1.5v-1.5ZM223,418v2h4v-2h-4ZM423,418c-3.39-.11-5.9-.62-8,2.5,1.71,2.43,4.54,1.29,7,1.5l1-4ZM192,421v-2l-2,1.5v.5h2ZM213,420c-1.25-.65-3.5,1.6-3,2,1.25.65,3.5-1.6,3-2ZM395,422h-16v2h14.5l1.5-2ZM181,449c2.32.37,2.34-.92,3-2.5,1.5-3.58,1.57-7.66,4-11l3-12.5-3,3.5c-1.07,4.74-3.26,9.62-6,14l-1,8.5ZM213,427c-6.07-.59-4.39,1.61-5,5.5-.03.18-.47.31-.5.5-.26,1.52-1.14,3.06,1,4,2.02.89,1.23-1.93,2.5-2.5-.35-2.7,2.55-4.51,2-7.5ZM500,428c-1.21-.37-2.21.33-3,.5-1.94.41-3.77.25-5,2,2.24,1.87,3.65,5.16,7,4.5l1-7ZM508,434l-1-6h-1l1,6h1ZM224,429h-4.5c-.76.72-2.32,2.85-2.5,3.5-.37,1.34.69,3.08-1,4v3.5l6-6.5,2-4.5ZM240,430h-7.5c-2.03,1.76-3.79,4.07-3.5,7h6.5c1.33-.57,1.3-2.21,1.5-2.5,1.02-1.46,3.4-2.27,3-4.5ZM243,437h6.5c.71-.97,3.77-4.56,3.5-5.5-.55-1.88-3.9-1.56-5.5-1.5-2.06,1.97-4.35,3.94-4.5,7ZM280,430c-3.35.39-9.01-1.67-9,3,3.35-.39,9.01,1.67,9-3ZM315,430l-6,2.5c1.27,1.85,1.81,1.15,3.5.5s2.84-.74,2.5-3ZM257,431h-2v3l2-1.5v-1.5ZM287.26,431.98c0-.68-.55-1.24-1.24-1.24s-1.24.55-1.24,1.24.55,1.24,1.24,1.24,1.24-.55,1.24-1.24ZM408,437v-3l-5.5,2-4.5,7c4.6,0,6.17-5.63,10-6ZM446,434c-1.9-.29-3.29,1.1-3,3h2l1-3ZM485.5,434c-.92,1.69-2.65.63-4,1-1.99.55-1.21,3.26-1.5,4.5-.09.39-.91.61-1,1-.62,2.63,2.07,7.16,2,10l2.5,3.5,10.5-5.5c.27-2.41-.84-5.44,1-7l-7.5-7.5h-2ZM546,452l-5-11.5-5-6.5c-.73,2.39,1.46,4,2,5.5.92,2.56,1.31,6.45,3,9,.51.77,4.11,4.47,5,3.5ZM421,435h-4.5c-1.33,1.32-7.57,8.87-6.5,10,1.93.49,2.34-1.21,3.5-2,2.18-1.49,4.02-2.62,6-5,.84-1.02,1.91-1.29,1.5-3ZM459,435h-3v2h1.5l1.5-2ZM462.5,435c-.65,0-.65,1,0,1s.65-1,0-1ZM474,436h-3l.5,7c4.4-.68,1.2-3.38,1.5-4.5.13-.5,1.54-.87,1-2.5ZM525,444c.3-2.17-.27-3.76-1-5.5-.43-1.04-.79-3.07-2.5-2.5-3.11,1.04-3.98,8.96,0,9l3.5-1ZM366,442c1.77-.16,3.78.23,5.5,0,.37-.05.62-.93,1-1,2.66-.49,4.49.76,6.5-2.5-1.06-1.57-2.79-1.91-4.5-1.5-.95.23-2.76,1.81-5,1l-3.5,4ZM312,438c-.78-.73-6.85,2.54-6,5,2.24,1.3,7.1-3.96,6-5ZM328,438c-5.96-.72-10.55,1.26-10,8,3.67.67,5.26-2.42,7.5-4,.2-.14.74.16,1,0,1.58-1,1.7-2.27,1.5-4ZM393,438c-2.61-.51-5.08,1.42-5,4,2.2-.26,5.35-1.35,5-4ZM345,439h-7c.44,2.16-1.86,2.95-3,4.5l-2,5.5c1.37-.21,3.33.32,4.5,0,.37-.1,4.94-4.73,5.5-5.5.15-.21-.16-.76,0-1,.79-1.16,2.49-1.57,2-3.5ZM360,439h-5.5c-.85.96-4.65,5.66-3.5,7,3.36-1.83,7.07-3.6,9-7ZM459,443c.07-.07.92.19,2-.5s1.73-2.82.5-3.5c-2.02,2.05-4.74,3.11-6.5,5.5-.15.2.16.76,0,1-.79,1.16-2.49,1.57-2,3.5l6-4.5c.26-.47-.19-1.31,0-1.5ZM228,440c-.48.06-1.07-.17-1.5,0-1.15.46-5.6,5.65-6,7-.37,1.27.23,1.2,1,2,1.5.01,2.2,1.53,4,1,.37-.11,5.39-5.13,5.5-5.5.15-.51.35-2.5-.5-2.5h-2.5v-2ZM438.25,439.25l-3.75,3.75,1.5,1.5,3.75-3.75-1.5-1.5ZM445,440h-2v2l2-2ZM246,442l-5.5-1-2.5,2.5-2,5.5,3-.5c4.14,2.36,3.39-3.95,7-3.5v-3ZM327.5,443l-4.75,4.75,1,1,4.75-4.75-1-1ZM274,444c-2.27.32-5.44-.46-7.5,0-.35.08-.57.8-1,1-.32.15-.8-.13-1,0-1.6,1.02-2.99,5.01-4.5,6.5,1.3,1.65,1.23,1.38,3,1,1.55-.34,2.69-1.2,3.5-1.5.56-.21,1.36.18,2,0,.76-.22,4.08-3.81,3.5-5l2-2ZM283.5,444l-5.25,5.25,1.5,1.5,5.25-5.25-1.5-1.5ZM371,444c-1.74.2-3.86-.29-5.5,0-.37.07-.59.88-1,1-1.45.41-2.85.28-4.5,1.5-1.12.82-2.3,1.95-2,3.5l9.5-2,3.5-4ZM387,446v-2h-1v2h1ZM467,444c-1.84-.39-2.37,1.01-3.5,2-2.04,1.79-6.61,7.38-7.5,9.5-.23.54.18,1.32,0,1.5-.13.13-2.38-.09-3,1.5v4.5c2.2.36,3.06-1.89,4.5-3,.22-.17.8.16,1,0,1.82-1.45,8.17-9.03,8.5-10.5s-.23-3.8,0-5.5ZM183,454c3.23.28,2.49-1.82,3-3.5.38-1.24,3.99-1.94.5-4.5l-2.5,3.5-1,4.5ZM251,446l-4,3.5-2,3.5c.87.89,3.38-1.68,4-2.5.15-.2-.17-.76,0-1,.8-1.16,2.49-1.57,2-3.5ZM316,450c-.23-7.5-10.7,1.46-9,3l9-3ZM352,450v-3h-.5c-1.57,1.4-3.96,1.39-3.5,4l4-1ZM379,447h-2v1h2v-1ZM437,447l-4.5,1c-1.59.62-1.37,2.87-1.5,3-.19.19-1.02-.26-1.5,0-1.12.62-1.53,2.57-3.5,2l.5,2,2.5,1c-3.12.25-6.09,3.1-8,5.5-1.02,1.28-.88,2.13.5,2.5,3.43.93,6.58-5.83,8.5-7.5l-1-2.5c1.67-.19,4.16-1.99,5.5-3,1.19-.9,2.78-2.31,2.5-4ZM153,471c3.01.32,3.23-2.8,4-4.5,1.76-3.87,3.27-8.29,5-12,.97-2.08,2.76-3.45,2-6.5-3.46,2.76-5.35,7.47-7,11.5l-4,11.5ZM320,451c.4.5,2.65-1.75,2-3-.4-.5-2.65,1.75-2,3ZM477,448l-3,2.5v2l2.5,4.5c2.16-1.52,1.33-2.07,1-4-.25-1.48-.82-3.18-.5-5ZM528,448c-2.33-.26-4.54.92-6,2.5v1c.11.39.87.59,1,1,1.19,3.69,2.45,6.66,4,10,.6,1.3,1.03,2.96,3,3.5-.28-2.01,1.24-3.32,3-3-.14-1.11.23-2.51,0-3.5-.29-1.29-3.14-6.62-4-9-.21-.59-1.53-.85-1-2.5ZM252,451v-2h-1v2h1ZM333,450c-2.61-.51-5.08,1.42-5,4,.95.95,4.56-2.58,5-4ZM179,453h-2v5h1c-.11-1.86,1.54-2.83,1-5ZM222,453c-2.46-.85-5.73,5.22-5,6,2.23.56,6.36-4.56,5-6ZM230,458c2.18-.97,3.47-2.63,3-5-2.18.97-3.47,2.63-3,5ZM407,453c-.96-.88-7.68,3.42-7,6,2.3.45,2.57-.29,4-1.5.76-.65,4-3.59,3-4.5ZM240,458c1.72.65,4.9-2.95,4-4-1.99,1.02-4.39,1.45-4,4ZM382,455c-1.8-.1-3.24-.1-5,.5-3.91,1.33-11.63,8.14-14.5,11.5-.97,1.13-2.05,1.56-1.5,3.5.41,1.44,3.22,1.86,4.5,1.5.58-.17,3-3.18,4-4,2.99-2.46,6.75-5.94,10-8,.99-.63,3.09-4.43,2.5-5ZM512,455h-3c-.11,1.86,1.54,2.83,1,5h2v-5ZM178,464l3-3.5-.5-4.5-2.5,8ZM461,466c-.43.12-1.03-.19-1.5,0-.92.37-3.23,3.27-2.5,4,2.54.09,3.63-1.75,4-4,3.46-.95,3.09-2.3,5.5-4,.29-.2,1.93-.17,2.5-1.5l-1-4.5-4,3.5c-1.47,3.05-2.38,2.72-3,6.5ZM497,456l-5.5,2-5.5,6.5c1.68,1.22.84,3.49,1,5.5,1.44,1.49,6.17-3.25,7-4.5.28-.42.71-2.45,1-3,.37-.69,1.86-1.49,2-2,.32-1.17-.21-3.13,0-4.5ZM544,456l5,10.5c4.64,8.44,8.65,17.78,12,27,1.06.85,1.56,4.12,3.5,3.5,1.69-.54,1.83-4.03,1.5-5.5-.08-.37-1.79-2.44-2-3-1.93-5.1-3.75-9.15-6-14s-5.73-10.31-9-15c-.17-.24.15-.8,0-1-1.29-1.71-2.69-2.96-5-2.5ZM350.25,457.25l-4.75,4.75,1.5,1.5,4.75-4.75-1.5-1.5ZM439,458c-1.84-.39-2.37,1.01-3.5,2-2.65,2.34-3.88,4.82-6,6-1.64.91-2.73,3.34-3.5,5,1.97.48,4.1-.86,5-2.5,1.32-2.4,2.95-1.6,3-4.5h2l3-6ZM285,460c-1.9-.29-3.29,1.1-3,3,1.9.29,3.29-1.1,3-3ZM331,460l-4,1.5-3,2,3.5.5,3.5-4ZM211,461l-3,2.5c.23,1.85-2.51,2.26-2,4.5l4-1,1-6ZM303,461l-7,4-1,4c1.92.48,2.34-1.18,3.5-2,.21-.15.75.16,1,0,1.48-.94,1.28-2.19,1.5-2.5.82-1.16,2.48-1.58,2-3.5ZM503,462h-2v3h2v-3ZM447,467v-4h-1v4h1ZM517,473l2-3.5-3.5-6.5-2.5,3.5c1.69.93.63,2.65,1,4,.12.44,1.92,2.62,2,3,.28,1.28-.18,3.09,0,4.5h3l1-2.5c.43-1.49-1.73-2.92-3-2.5ZM263,465c-1.9-.29-3.29,1.1-3,3l3-1v-2ZM281,465c-2.07-1.35-7.12,3.88-6,5,1.98.54,2.37-1.34,3.5-2,.2-.12.65.12,1,0,.7-.24.77-2.09,1.5-3ZM291,468c.4.5,2.65-1.75,2-3-.4-.5-2.65,1.75-2,3ZM227,466c-3.19,1.07-4.56,2.91-6,5.5l.5,3.5,3.5-3.5,2-5.5ZM416,466c-1.73-.2-3-.08-4,1.5-.16.26.14.8,0,1-1.47,2.07-4.8,3.18-4,6.5,3.5-2.24,7.55-4.37,8-9ZM498,466h-2v2l2-2ZM537,473c.25-1.64-.39-3.05-1-4.5-.43-1.04-.79-3.06-2.5-2.5-.55.18-2.74,2.44-2.5,3.5,1.87,1.71,3,4.14,6,3.5ZM526,469v-2h-1v2h1ZM482,472v-4h-.5l-1.5,1.5v1l2,1.5ZM262,470l-1.5,4,4.5-4.5-3,.5ZM293.5,469c-.65,0-.65,1,0,1s.65-1,0-1ZM439.5,470c-1.24.38-6.18,6.7-7,8-1.06,1.67-.08,1.93,1,3l8.5-9.5c-.74-.67-1.32-1.86-2.5-1.5ZM504,476v-5h-1v5h1ZM478,472h-3c-.34,3.26,1.61,5.6,1,9,2.76.29,3.54-2.22,3-4.5-.09-.39-.92-.62-1-1-.21-1.03.13-2.38,0-3.5ZM500,472c-3.16-.51-5.53,2.01-5,5h-2v3l3-1c-.21,1.53,0,3.3,1.5,4,1.84.85,1.83-3.03,3.5-3.5v-1c-1.79-1.44-.76-4.23-1-6.5ZM272,474c-1.84-.39-2.37,1.01-3.5,2-2.18,1.92-9.29,8.52-10.5,10.5-.04.07-.24.85-.5,1.5-.73,1.87-.34,1.78,1,3l12.5-12.5,1-4.5ZM313,476v-2h-1v2h1ZM343,474c-1.84-.39-2.37,1.01-3.5,2-1.81,1.59-4.06,3.27-3.5,6,1.36-1.22,4.16-2.17,5-3.5.16-.26-.15-.79,0-1,.82-1.16,2.48-1.58,2-3.5ZM203,475l-7,6.5c-.65,3.55-4.48,5.53-4,9.5,1.69.28,3.1-1.31,4-2.5,1.87-2.47,3.22-6.52,6-9l1-4.5ZM348,485c1.93.49,2.34-1.21,3.5-2,1.4-.96,3.56-2.09,5-3s1.3-2.49,2.5-3.5c-2.84-3.44-6.02-.67-8,2-.15.21.16.77,0,1-1.15,1.63-3.2,3.08-3,5.5ZM538,495l-6-15.5-5-4.5,1,7.5c2.14,2.61,1.84,7.08,3,10,.16.39.81.59,1,1,.31.66.15,1.8,1.5,2.5l4.5-1ZM546,496l-6-15.5v-1l-4-3.5,1,6.5c.86,2.55,4.51,8.29,5,10,.18.61-.17,1.37,0,2,.37,1.34,2.69,1.77,4,1.5ZM471,477l-9,8.5,1,6.5c1.93.49,2.34-1.21,3.5-2,.24-.16.8.15,1,0,1.57-1.15,2.93-3.22,4.5-4.5l-1-8.5ZM285,478c-.91-1-3.85,2.24-4.5,3-1.21,1.43-1.95,1.7-1.5,4,.91,1,3.85-2.24,4.5-3,1.21-1.43,1.95-1.7,1.5-4ZM170,479c-3.09-.35-3.17,2.9-4,4.5-2.35,4.53-4.24,8.73-6,13-.35.86-1.79,2.36-2,3.5.93.91,4.41-2.61,5-3.5,2.48-3.74,4.54-9.09,6-13,.56-1.48,1.28-2.83,1-4.5ZM331,479h-3v3c1.9.29,3.29-1.1,3-3ZM429,480l-3,1.5v2.5l3-1.5v-2.5ZM519,493c.82.9,4.81-2.85,5-3.5.61-2.13-1.63-3.68-2-5-.41-1.46.74-3.23-1.5-4.5l-3.5,3.5c1.66.98.7,2.55,1,4,.08.39.93.62,1,1,.24,1.34-.16,3.07,0,4.5ZM219,482c-1.27-1.4-6.75,5.08-6,7,.91,1,3.85-2.24,4.5-3,1.21-1.43,1.95-1.7,1.5-4ZM243,482c-3.38.36-5.72,3.72-5,7,1.81-.31,5.92-6.01,5-7ZM444,491c1.03.99,5.29-3.59,6-4.5,1.53-1.95,1.24-1.94-.5-3.5l-5.5,8ZM507.5,483c-.65,0-.65,1,0,1s.65-1,0-1ZM388.5,484c-.65,0-.65,1,0,1s.65-1,0-1ZM299,489l1-4h-1l-2,3.5,2,.5ZM330,486c-3.59-.48-5.34.17-7.5,3l-1-1c-3.11,3.57-7.59,5.72-10.5,9.5-2.14,2.78-1.19,5.83,2.5,5.5.63-.06,2.57-.74,3-1,.72-.43,7.35-6.99,7.5-7.5.19-.65-.11-1.7,0-2.5,2.08,1.07,6.41-5.66,6-6ZM482,486l-3,1.5v2.5l3-1.5v-2.5ZM384,488c-2.3-.45-2.57.29-4,1.5-2.1,1.78-7.06,6.45-8.5,8.5-.48.68-1.95,3.52-1.5,4l3.5-2c3.75-3.85,7.92-7.24,10.5-12ZM232,489c-.91-1-3.85,2.24-4.5,3-1.21,1.43-1.95,1.7-1.5,4,2.58.68,6.88-6.04,6-7ZM244,491v-2h-1v2h1ZM509,493v-4h-.5c-1.54,1.1-1.73,2.14-1.5,4h2ZM270,492v-2l-2,1.5v.5h2ZM456,492c-3.77.23-5.39,4.72-5,8,1.97.57,2.38-1.38,3.5-2,.48-.26,1.31.19,1.5,0,.11-.11-.28-1.99,1-2.5l-1-3.5ZM474,493c-1.85-.39-2.37,1.01-3.5,2-1.89,1.65-5.17,3.91-2,6,1.13.33,3.8-2.58,4.5-3.5,1.3-1.69,1.13-2.49,1-4.5ZM525,498l-1.5-5c-1.14,1.13-1.78,2.37-3.5,2v4l5-1ZM505,494c-1.25-.65-3.5,1.6-3,2,1.25.65,3.5-1.6,3-2ZM254,495c-2.3-.44-2.57.28-4,1.5-2.11,1.81-5.38,6.63-7,9-.79,1.16-2.49,1.57-2,3.5,1.93.49,2.34-1.21,3.5-2,3.48-2.39,5.46-4.4,8-8,.48-.67,1.96-3.54,1.5-4ZM388,495c-1.85-.39-2.37,1.01-3.5,2-1.81,1.59-4.06,3.27-3.5,6,.44.5,8.6-5.05,7-8ZM193,496c-3.1-.21-3.27,2.25-3,5,1.61-.08,3.49-4.51,3-5ZM287,500c2.68.44,2.62-2.03,4-3.5l-.5-.5-3.5,4ZM333,499l1-2.5-.5-.5-2.5,3h2ZM228,503c1.12,1.12,6.35-3.93,5-6-.3-.36-6.15,4.85-5,6ZM499,500l2-1.5-1.5-1.5h-.5v3ZM211,506c1.73-1.44,3.81-2.65,5.5-4,1.54-1.23,1.74-2.05,1.5-4-3.44,1.34-6.61,4.12-7,8ZM538.5,498l-3.5,2.5v2l2.5,4.5,4.5-2.5c-.85-2.64-1.12-4.84-3.5-6.5ZM525.25,499.25l-3.75,3.75,1.5,1.5,3.75-3.75-1.5-1.5ZM547.26,500.98c0-.68-.55-1.24-1.24-1.24s-1.24.55-1.24,1.24.55,1.24,1.24,1.24,1.24-.55,1.24-1.24ZM155,516c1.29,1.21,5.85-4.66,7-5.5l3-9.5-8,10.5-2,4.5ZM506,501h-1.5l-1.5,2h3v-2ZM502,502h-1.5l-1.5,1.5,1.5,1.5,1.5-1.5v-1.5ZM446,503c-1.2-1.12-6.35,4.7-6,5,3.53.62,4.85-2.37,6-5ZM504,507c-1.26-.42-3.45,1.03-3,2.5l3.5,3.5,3.5-4.5-1.5-4.5-2.5,1.5v1.5ZM179,516c1.84.39,2.37-1.01,3.5-2,1.91-1.67,3.23-3.32,4.5-5.5l-2.5-3.5-4.5,5.5-1,5.5ZM307,506c-2.61-.51-5.08,1.42-5,4,2.61.51,5.08-1.42,5-4ZM455,512c1.94.69,6.4-4.41,5-6-2.4-.06-10.89,9.24-10,10l5-2v-2ZM256,508c-2.65-1.28-7.53,4.44-6,6,2.65,1.28,7.53-4.44,6-6ZM564,539c-.7-3.39-1.95-6.66-4-9.5-1.05-6.75-4.68-11.71-7-18l-3-3.5,1,5.5c3.02,4.24,3.82,10.83,6,16,.77,1.83,2.81,3.95,3,6l4,3.5ZM492,509c-3.49.02-5.18,3.09-7.5,5-.19.16-.79-.17-1,0-.89.71-2.16,1.9-2.5,3l5.5-2,5.5-6ZM528,509c-2.52-.52-3.49.86-5,2.5l1,3.5c3.35-.09,4.53-3.1,4-6ZM220,511c-1.8-.29-2.2,0-3.5,1-4.88,3.75-8.24,9.41-12.5,13.5-.89,3.85-4.88,5.97-4,10.5,2.27.38,3.05-1.97,4.5-3,3.78-2.67,8.43-8.5,11.5-12.5,1.67-2.18,3.73-3.53,4.5-6.5l-.5-3ZM544,516c.27-2.75.1-5.21-3-5-.47,2.37.82,4.03,3,5ZM331,514c-1.84-.39-2.37,1.01-3.5,2-2.64,2.32-4.9,5.13-7.5,7.5l-1,4.5c2.89.68,1.49-1.73,3.5-3,3.13-1.97,4.75-3.82,7-7,.48-.68,1.95-3.52,1.5-4ZM403,515l-4.5,3-1.5,3c2.43.4,2.74-2.53,5-2l1-4ZM494,515c-1.17-.07-1.92-.16-3,.5-2.84,1.74-6.05,6.86-9,9,1.08,1.08,1.33,2.06,3,1,1.45-.92,3.19-2.65,4.5-3.5.23-.15.76.15,1,0,1.21-.77,1.57-2.54,3.5-2v-5ZM358,526c2.01-1.51,4.48-2.48,6-4.5.16-.22-.16-.8,0-1,1.23-1.59,4.32-2.62,1.5-4.5-1.82-.5-5.08,4.75-6,6-1.04,1.4-2.04,1.62-1.5,4ZM199.5,517c-.65,0-.65,1,0,1s.65-1,0-1ZM151,528l4-3.5,2-6.5c-1.58,1.12-4.57,3.48-5.5,5s-.37,3.33-.5,5ZM246,519c-1.56-1.56-6.08,3.35-7,4.5-.16.2.17.78,0,1-.68.89-4.7,3.62-1.5,4.5,1.89.52,3.49-1.16,4.5-2.5.18-.24-.14-.83,0-1,1.74-2.01,4.65-3.3,4-6.5ZM530,525l-.5-5c-.86,1.07-4.11,1.55-3.5,3.5.44,1.39,2.66,1.75,4,1.5ZM510,521c-1.9-.39-2.67,1.3-4,2.5l1.5,2.5c1.71-1.57,3.01-2.5,2.5-5ZM274,527c2.18-.97,3.47-2.63,3-5-2.18.97-3.47,2.63-3,5ZM394,525c-2.07-1.35-7.12,3.88-6,5,1.98.54,2.37-1.34,3.5-2,.2-.12.65.12,1,0,.7-.24.77-2.09,1.5-3ZM169,530v-2h-1v2h1ZM422,533h2.5l1.5-1.5v-2.5l-4,4ZM501,529l-3,1.5c-2.64,3.6-10.42,5.32-5.5,10.5,1.46.43,4.66-3.94,6-5,.2-.16.78.17,1,0,.89-.67,1.62-1.76,2.5-2.5l-1-4.5ZM554,535c.68-2.44-.74-2.72-1.5-4s0-2.25-1.5-2c-.33,1.72.5,2.97,1,4.5.43,1.33-.79,1.82,2,1.5ZM153,534c2.02-.37,1.73-2.49,3-3.5l-.5-.5-2.5,1v3ZM176,531c-1.12-1.07-6.07,3.91-5,5,2.95.11,4.01-2.93,5-5ZM314,531c-1.85-.39-2.37,1.01-3.5,2-2.87,2.51-4.17,3.84-3.5,8,1.15,1.28,5.97-4.73,7-5.5v-4.5ZM234,532c-2.25-1-4.58,4.42-4,5,2.58.08,4.51-2.39,4-5ZM463,537l4-3.5-1.5-1.5c-1.71,1.57-3.01,2.5-2.5,5ZM152.5,535c-.65,0-.65,1,0,1s.65-1,0-1ZM258,535c-2.3-.45-2.57.29-4,1.5-2.51,2.13-5.68,5.1-6,8.5,2.19-2.02,5.34-3.3,7-5.5.17-.22-.16-.8,0-1,.91-1.16,2.59-2.02,3-3.5ZM417,535c-1.93-.49-2.34,1.21-3.5,2-.24.16-.8-.15-1,0-1.8,1.32-4.06,3.51-3.5,6,1.84.39,2.37-1.01,3.5-2,.93-.81,5.54-4.96,4.5-6ZM556,547l3-2.5-2-5-4-3.5c-.48,4.15,2.23,7.26,3,11ZM182,537c-1.25-.65-3.5,1.6-3,2,1.25.65,3.5-1.6,3-2ZM218,537l-3,1.5.5.5,2.5-1v-1ZM240.5,537c-.65,0-.65,1,0,1s.65-1,0-1ZM226,538c-1.1-1.2-5.07,3.74-6,4.5l-1,4.5c3.57-2.19,7.31-4.19,7-9ZM428,538c-2.4-.37-4.24.48-4,3,.83.83,3.78-1.67,4-3ZM373.5,539c-.76,1.85-6.26,4.7-6.5,5.5-.35,1.19.41,3.19,1.5,3.5,2.76.8,5.54-4.08,7.5-5.5l-2.5-3.5ZM303,540c-1.69-.28-3.1,1.31-4,2.5-1.24,1.64-2.8,4.32-4,6-.93,1.3-1.74,1.57-2.5,3.5s-.34,1.78,1,3c1.25.36,2.2-1.27,3-2,2.21-2.01,3.05-3.47,4.5-5.5.95-1.33,2.24-2.43,3-4l-1-3.5ZM458,540c-1.54-.38-1.63.34-2.5,1-2.95,2.24-5.56,6.08-8.5,8.5l1,4.5c1.71.41,1.98-.65,3-1.5,2.6-2.17,4.82-6.18,8-6.5l-1-6ZM235.5,541l-1.5,1.5.5.5,1.5-1.5-.5-.5ZM239,569c4.45.44,6.61-3.5,9.5-6,.53-.46,2.22-.81,3.5-2.5,3.18-4.2,6.48-8.58,10-13l1-6.5c-8.22,4.91-13.55,12.94-20,19.5-.86,2.88-4.65,4.6-4,8.5ZM484.5,541c-1.35.41-3.55,4.25-4.5,5.5l2.5,2.5c1.74.55,5.72-4.5,4.5-6.5-.74-.67-1.32-1.86-2.5-1.5ZM506.25,540.25l-7.75,7.75,1.5,1.5,7.75-7.75-1.5-1.5ZM142,542l-3,2.5-2,7.5c3.23-1.77,5.25-6.2,5-10ZM323,543c-5.44.23-8.67,7.87-12.5,10-.47.26-1.31-.19-1.5,0s.26,1.03,0,1.5c-1.11,2-5.17,4.4-6.5,6.5-1.06,1.67-.08,1.93,1,3,6.8-6.92,14-13.32,19.5-21ZM341,543c-2.3-.45-2.57.29-4,1.5-.94.8-6.02,5.41-5,6.5,2.43-.55,3.72-2.59,5.5-4,.2-.16.78.17,1,0,1.19-.9,2.78-2.31,2.5-4ZM421,544l-5.5,2c-2.89,2.39-4.16,4.02-3.5,8,1.84.39,2.37-1.01,3.5-2,1.29-1.13,2.9-2.7,4-4,1.21-1.43,1.95-1.7,1.5-4ZM201,547c-2.3-.45-2.57.29-4,1.5-2.15,1.83-3.7,3.8-5,6v4.5c3.79-.1,4.15-4.74,7-6.5l2-5.5ZM233,547c-4.6.51-7.53,4.38-7,9,1.69.28,3.1-1.31,4-2.5.15-.2-.17-.76,0-1,1.14-1.63,3.21-3.07,3-5.5ZM402,547c-.62-.58-4.38,1.52-5,2.5-.16.25.15.79,0,1-.82,1.16-2.48,1.58-2,3.5.97,1.02,4.26-2.66,5-3.5.99-1.13,2.39-1.66,2-3.5ZM567,547c-1.42-.39-3.41,1.08-3,2.5,1.16,1.23,1.4,3.34,2,5,.39,1.08,2.08.32,3,.5.77-3.21-1.69-5.1-2-8ZM275,548c-2.23-.34-3.06,1.89-4.5,3-1.99,1.53-4.75,3.04-6.5,5.5-.86,2.88-4.65,4.6-4,8.5,1.84.39,2.37-1.01,3.5-2,4.17-3.66,6.69-7.4,9.5-11.5.79-1.16,2.49-1.57,2-3.5ZM586,556l-1-4.5-3-3.5,1,4.5,3,3.5ZM364,549c-1.71-.41-1.98.65-3,1.5-2.8,2.33-5.23,5.57-8,8-1.01,2.78-3.81,4.7-3,8.5,1.84.39,2.37-1.01,3.5-2,4.02-3.53,7.53-7.89,11.5-11.5l-1-4.5ZM338,550c-.53-.5-3.32,1.11-4,1.5-4.93,2.87-8.49,7.84-12,12-2.24,2.65-5.82,4.58-6,8.5,1.91.44,2.34-1.11,3.5-2,5.76-4.43,12.39-10.5,16.5-16.5.79-1.16,2.49-1.57,2-3.5ZM185,551h-2l-1,4c1.33-.22,3.83-3.17,3-4ZM458,568c3.54-.03,5.18-3.11,7.5-5,.21-.17.81.16,1,0,2.97-2.5,5.56-5.9,8.5-8.5l-2.5-3.5c-2.59-.05-2.23,2.87-4,4-3.86,2.47-4.97,3.79-7.5,7.5-.62.92-3.69,4.84-3,5.5ZM561,556c.27-2.75.1-5.21-3-5-.47,2.33,2.47,2.67,2,5h1ZM538,558c3.91-1.9,2.19-6.91-2-6l2,6ZM407.5,554l-4.5,4.5.5,3.5c3.92-.84,7.92-4.36,4-8ZM433,568l9-8.5v-2l-2.5-3.5-5.5,5.5c-.46,2.8-1.46,5.3-1,8.5ZM494,554l-3,1.5-2,2.5,5-4ZM212,566l8-5.5,1-5.5c-1.92.81-3.71,1.79-5,3.5-.18.24.15.83,0,1-1.73,2.02-4.65,3.29-4,6.5ZM191,556c-1.71-.41-1.99.65-3,1.5-5.73,4.79-10.99,10.42-15.5,16.5-1.04,1.4-2.04,1.62-1.5,4l9.5-3c2.98-2.4,4.52-5.73,6.5-8.5,1.05-1.47,3.61-3.27,4-5,.34-1.54-.23-3.8,0-5.5ZM282,561c1.09.89,4.64-2.28,4-4l-3,1-1,3ZM508,575c1.16,1.12,8.01-3.11,9.5-4,1.41-.84,5.76-3.35,6.5-4.5.16-.25-.15-.8,0-1,1.37-1.92,2.49-1.58,2-5-.22-1.54-1.26-1.95-1-3.5-4.6,4.08-11.88,8.84-15.5,14-.48.68-1.96,3.55-1.5,4ZM576,570l-1-4.5c-1.54-1.15-3.07-8.25-5.5-7.5-3.24,1,.01,4.28.5,5.5.31.77.33,2.86,1,4,.97,1.66,2.97,2.97,5,2.5ZM141.76,558.44l-1.09,4.35,2.24.56,1.09-4.35-2.24-.56ZM389,559c-2.98-1.53-8,5.86-7,7,3.64-1.09,4.72-4.28,7-7ZM541,559h-2v1h2v-1ZM135,560l-3,2.5c-.89,3.2-2.76,6.08-4,9-.61,1.44-1.24,2.87-1,4.5,1.69.28,3.1-1.31,4-2.5,1.64-2.17,2.28-4.44,3-7,.12-.41.93-.63,1-1,.29-1.64-.2-3.76,0-5.5ZM339,565c1.55.3,2.67-.88,3.5-2,.38-.52,1.54-2.38,1-3-1.71,1.37-4.74,2.11-4.5,5ZM483,562c-3.23-.48-6.49,2.83-6,6l6-6ZM564,562h-2c-.36,1.76,1.36,2.24,1,4h2l-1-4ZM197,564c-2.67-.48-1.6.53-2.5,2-.6.98-2.01,1.19-1.5,3,.34.39,5.04-3.84,4-5ZM347,564l-4,2.5-1,4.5c1.81-.31,5.92-6.01,5-7ZM298,568l-.5-3c-1.2,1.33-2.89,2.1-2.5,4l3-1ZM430,566c-.94-.95-7.56,4.06-3.5,6l3.5-6ZM217,567c-3.67.02-7.26,2.36-9.5,5-1.21,1.43-1.95,1.7-1.5,4,3.03.73,3.68-1.6,5.5-3,.22-.17.81.15,1,0,1.97-1.6,3.61-3.62,4.5-6ZM343,584c1.64,1.54,5.97-3.29,7-4.5,2.42-2.84,5.3-5.94,8-9,.99-1.13,2.39-1.66,2-3.5l-4,2v2c-3.37,2.02-7.93,6.01-11,9.5-.99,1.13-2.39,1.66-2,3.5ZM140,568c-1.9-.29-3.29,1.1-3,3,1.9.29,3.29-1.1,3-3ZM189,576c-.28-2.9,3.91-3.42,3-7l-6,6.5,3,.5ZM594,571l-3-.5c1.72,1.03.65,2.75,1,4,.13.46,1.82,2.47,2,3,1.65,4.85,2.14,9.65,4,14l3,2.5-3-13.5c-1.77-3.01-4.07-6.21-4-9.5ZM198,575l1-4c-1.44.5-4.91,3.94-4,5l3-1ZM547,572l-1,2.5,1.5,1.5c3.64-.52,3.1-4.05-.5-4ZM285,581c1.2,1.04,6.63-3.63,7.5-5,1.06-1.67.08-1.93-1-3-1.1-.32-2.87,1.67-3.5,2.5-.15.2.17.76,0,1-.94,1.35-2.57,2.57-3,4.5ZM372,593c3.76.3,6.73-2.84,9-5.5,1.04-1.22,2.96-4.74,4-6,2.15-2.6,6.44-4.67,6-8.5l-9,7.5-10,12.5ZM411,583c2.88,2.14,2.65.27,4.5-1,.24-.16.79.15,1,0,.91-.67,2.83-2.59,3.5-3.5.15-.2-.16-.76,0-1,.67-.97,2.29-1.51,2-3-.37-1.38-1.22-1.52-2.5-.5-1.94,1.55-16.17,15.38-16.5,16.5-.19.65.11,1.7,0,2.5l5-1c-.29-1.9,1.1-3.29,3-3v-6ZM437,573c-2.5.15-5.83,3.48-6,6l6-6ZM441,573c-.89-.8-3.48,1.65-4,2.5-1.42,2.34,0,2.13-2.5,3.5-1.64.9-2.98,3.03-2.5,5l4-3.5,5-7.5ZM227,583c1.84.39,2.37-1.01,3.5-2,1.9-1.67,6.4-4.9,3-7-1.13-.33-4.71,3.47-5.5,4.5-1.3,1.69-1.13,2.49-1,4.5ZM575.5,575c-1.08.31-1.86,2.32-1.5,3.5l4.5,4.5c1.57-1.07,1.9-2.78,1.5-4.5-.08-.36-.8-.57-1-1-.65-1.4-.84-3.27-3.5-2.5ZM137,576c-2.54-.52-3.49.86-5,2.5l-1,6.5c3.01-2.13,4.34-5.92,6-9ZM446,576c-.87-.88-4.62,2.69-5,3.5-1.03,2.2,2.44,1.12,2,2l-4,4.5c3.02.64,4.14-1.81,6-3.5l-2-2,3-4.5ZM153,585c.91,1.01,4.39-2.7,5-3.5,1.3-1.69,1.13-2.49,1-4.5-1.61.78-7.63,6.19-6,8ZM526,577c-2.83-.24-7.88,0-8,4l5.5-1,2.5-3ZM465,578c-2.53.09-4.41,1.76-6,3.5-1.02,1.11-2.38,1.68-2,3.5l4.5-1c1.77-1.54,3.39-3.52,3.5-6ZM569.5,578c-.65,0-.65,1,0,1s.65-1,0-1ZM127.25,580.25l-4.75,4.75,1,1,4.75-4.75-1-1ZM213,581l-4,1v3l3-1,1-3ZM244,588c.55-1.51-1-2.29-1-2.5,0-.19,2.33-2.41.5-3.5l-3.5,4,3,.5,1,1.5ZM263,582c-2.33-.26-4.54.92-6,2.5l-2,5.5c2.45-.86,4.32-2.58,6-4.5.99-1.13,2.39-1.66,2-3.5ZM222,583c-2.48-.38-2.61,1.49-3.5,3-.75,1.27-2.18,1.56-1.5,4l4-2.5,1-4.5ZM327,583h-1.5l-1.5,2h3v-2ZM417,593h6.5c3.23-3.61,8.56-5.92,3-10l-9.5,10ZM203,584l-6,5.5v1c-1.07,1.31-2.76,3.16-.5,4.5,3.09-.55,4.2-2.15,5.5-4.5l1-6.5ZM468,586v-2l-2,1.5v.5h2ZM533,584c-5.94-1.14-6.2,4.72-9,8.5l1.5,2.5c2.2-.94,6.79-1.04,7.5-3.5.17-.61-.17-1.37,0-2,.11-.41,1-.67,1-1s-.93-.61-1-1c-.19-1.06.12-2.37,0-3.5ZM551,584c-2.58-.08-4.51,2.39-4,5,1.42-.44,4.95-4.05,4-5ZM194,585c-3.65.01-3.72,3.89-6,5.5l-2,5.5,4-1,4-10ZM494,585c-.69-.72-4.53,2.41-5.5,3-1.11.68-2.72,1.61-4,2l-4.5,5,6.5-1c2.71-3.19,7.27-4.12,7.5-9ZM397,587c-3.22-.57-4.59.7-6.5,3-.84,1.02-1.91,1.29-1.5,3h6c-.53-1.35,2.81-5.21,2-6ZM470,587l-4,1-3,6c2.31.46,3.71-.79,5-2.5.15-.2-.17-.76,0-1,.79-1.16,2.49-1.57,2-3.5ZM477,587c-1.93-.47-2.34,1.17-3.5,2-1.62,1.15-3.82,1.47-3.5,4,2.3.45,2.57-.29,4-1.5.78-.66,3.98-3.56,3-4.5ZM522,587c-1.6-1.62-6.49,3.78-7.5,5-.84,1.02-1.91,1.29-1.5,3h5.5c2.2-2.09,2.81-5.16,3.5-8ZM557,587c-1.17-.07-1.92-.16-3,.5-2.24,1.37-4.68,5.31-7,7-.56,1.95,2.74,4.98,0,7l1,4.5,4.5-1,9.5-8.5-5-9.5ZM181,588c-.94-.93-6.43,2.03-7.5,3l-1-1-3.5,4.5c2.49,3.02,6.31,1.05,9,.5l3-7ZM324,588l-3,1.5-2,3.5,5-5ZM339,588c-.83-.83-3.78,1.67-4,3,2.4.37,4.24-.48,4-3ZM462,588l-5.5,2-3.5,4h5.5c.55-.57,4.25-5.3,3.5-6ZM579,599c-.99,1.01,3.11,8.74,4.5,10,.42,0,2.22-2.89,2.5-3.5.62-1.34.66-2.81,1-4,.12-.41.93-.63,1-1,.15-.82.19-3.31,0-4-.07-.24-2.48-2.84-3-4-.23-.51.19-1.34,0-2-.16-.57-2.01-1.72-2.5-2.5l-2.5,3.5c1.15,1.67,3.57,3.98,4.5,5.5.82,1.33.46,2.59.5,4l-6-2ZM499,589l-5.5,2-2.5,4c1.35-1.07,2.8-.75,4-1.5s3.2-3.14,4-4.5ZM501,595c4.06.8,8.25-1.43,8-6l-4.5,2-3.5,4ZM120,590l-3,2.5,3,.5c.76,1.82-.86,2.95-1,3.5-.25,1.01-.95,3.68-1,4-.34,2.3.24,5.11,0,7.5l3-2.5c-.46-1.92,1.8-4.88,2-6,.37-2.06-.86-4.67,1-6l-2.5-2.5-1,1-.5-2ZM264,591l-3,1.5v2.5l3-1.5v-2.5ZM386,591h-3v2h3v-2ZM444.43,590.04l-4.26,2.56,1.24,2.06,4.26-2.56-1.24-2.06ZM164.25,591.25l-3.75,3.75,1.5,1.5,3.75-3.75-1.5-1.5ZM305.26,592.98c0-.68-.55-1.24-1.24-1.24s-1.24.55-1.24,1.24.55,1.24,1.24,1.24,1.24-.55,1.24-1.24ZM347,595c.4.5,2.65-1.75,2-3-.4-.5-2.65,1.75-2,3ZM356,594v-2h-1v2h1ZM433,592h-1.5l-1.5,2h3v-2ZM539,595v-3h-1v3h1ZM578,595c.65-1.25-1.6-3.5-2-3-.65,1.25,1.6,3.5,2,3ZM131,593c-1.31-.27-3.63.16-4,1.5-.17.63.19,1.41,0,2-.7,2.2-1.22,4.88-2,7-.21.58-1.84,2.49-2,3-1.03,3.36,2.73,4.82,5,1,1.09-1.83,1.42-5.66,2-8,.1-.4.93-.62,1-1,.29-1.64-.2-3.76,0-5.5ZM137,608c-.53-1.65.79-1.91,1-2.5.63-1.75,1.58-5.24,2-7,.32-1.35-.01-4.04-1.5-4.5-2.1-.65-3.03,3.45-3.5,4.5-.78,1.72-2.33,4.25-3,6-.31.79.54,2.17-1,3,.8.78.73,1.36,2,1,1.41-.4,2.52-.73,4-.5ZM579,598v-2h-1v2h1ZM538,598c-1.9-.29-3.29,1.1-3,3l3-3ZM359.5,599c-.65,0-.65,1,0,1s.65-1,0-1ZM489,603c1.05,3.21,4.87,1.71,7.5,2l3.5-4.5c-1.3-1.65-1.23-1.38-3-1-.82.18-2.22.39-2.5.5-1.86.74-3.31,3.13-5.5,3ZM523,600l-7.5-1c-2.3,1.62-6.09,3.2-5.5,7h9.5l3.5-6ZM175,600l-10,2c-.15,3.1-3.42,5.54-3,9,1.55.25,1.96-.76,3.5-1,2.84-.44,4.39.78,6.5-2.5l3-7.5ZM510,600c-2.65-1.28-7.53,4.44-6,6,3.65.61,5.64-2.99,6-6ZM566,600c-3-.72-3.65,1.54-5.5,3-.2.16-.78-.17-1,0-1.19.9-2.78,2.31-2.5,4h10l-1-7ZM153,604c-.19-.19.26-1.03,0-1.5-.98-1.76-2.7-1.63-4.5-1.5-1.25,1.33-5.8,7.73-4.5,9,1.12.13,2.47-.21,3.5,0,.39.08.63.95,1,1,1.88.24,4.06-.17,6,0,2.04-1.76,3.79-4.07,3.5-7-1.48-.55-2.33,1.01-2.5,1-.33-.01-.57-.84-1-1-.56-.2-1.33.17-1.5,0ZM543,601c-3.82-.5-4.39,1.63-4,5l5-1.5-1-3.5ZM195.5,602l-4.5,4.5.5,3.5c2.22-1.38,3.13-4.13,4.5-5.5,1.49-1.49.72-1.2-.5-2.5ZM442.79,601.82l-3.46,2.07,1.24,2.06,3.46-2.07-1.24-2.06ZM454,602l-4,1v1h4v-2ZM483,602c-3.44.2-7.07-.28-10.5,0-1.7.14-2.94-.13-3.5,2l4.5,1h7l2.5-3ZM534.5,602c-.65,0-.65,1,0,1s.65-1,0-1ZM159.5,603c-.65,0-.65,1,0,1s.65-1,0-1ZM186,603c-4.5-.95-7.11,3.01-7,7,2.33.26,4.54-.92,6-2.5l1-4.5ZM220,603c-2.37,1.17-4.42,1.07-6,3.5l.5,3.5,5.5-2.5v-4.5ZM208,604l-4,2.5.5,3.5,3.5-6ZM229,605h-3l-1,4,4-1v-3ZM578,608c-.31-1.18-1.42-1.49-1-3l-2,1.5c.94,1.06,1.5,1.82,3,1.5ZM249,606h-1.5l-1.5,2h3v-2ZM384,608c-1.25-3.37-5.19-2.42-5,1,2.17.54,3.14-1.11,5-1ZM236,607c-1.88-.24-3.47,0-4,2,1.88.24,3.47,0,4-2ZM569,618c2.39-.23,5.2.34,7.5,0,.37-.05.6-.91,1-1,1.59-.37,3.25.69,4.5-1.5l-2.5-4.5c-2.48,1.78-.65,1.75-.5,2.5.25,1.29-.8,1.74-1.5,2.5l-4-2-4.5,4ZM326.43,612.04l-4.26,2.56,1.24,2.06,4.26-2.56-1.24-2.06ZM328,620h14.5c1.47,0,1.25-3.82,2.5-4.5l-1.5-2.5h-9l-6.5,7ZM262,621c3.43-.3,7.49,1.21,9.5-2,.82-1.32.06-2.58,1.5-3.5-.89-1.15-1.99-1.98-3.5-1.5-.41.13-.62.91-1,1-.9.21-2.17-.23-3,0-1.05.29-4.75,4.79-3.5,6ZM277,621h22.5c.18,0,2.45-2.33,2.5-2.5.28-.98-.5-2.18,1-3-.51-.33-1.23-1.5-1.5-1.5h-20c-.25,0-3.2,3-3.5,3.5-.13.22.15.71,0,1-.38.74-1.48.86-1,2.5ZM311,614c-4.01-.56-2.4.51-3,1.5-.41.68-1.47,1.29-2,2l.5,3.5c2.44.34,5.53-5.98,4.5-7ZM356,614c-1.01-1.11-6.31,3.75-5,6l4-1,1-5ZM552,617c2.36.28,4.66,2.3,6.5,0l3,1,3.5-2.5c-1.94-3.26-4.35-.17-5.5-.5l-3-1-4.5,3ZM138,615c-3.42-.12-8.6-.45-9,4l8,1,1-5ZM233,620c-.31-1.22.23-2.05.5-3,.36-1.27-.22-1.2-1-2l-8,1-2.5,3.5,8.5,1.5,2.5-1ZM256,615h-13c.25,2.48-2.83,2.98-2,6h13.5l1.5-1.5v-4.5ZM369,619c1.9.39,2.67-1.3,4-2.5l-1.5-1.5h-1.5l-1,4ZM397,618l-1.5-3c-3.92.76-12.28-2.28-12.5,3h14ZM513,615l-7,1.5,5.5.5,1.5-2ZM218,616c-2.11.16-4.44-.24-6.5,0-.37.04-.63.95-1,1-1.73.23-3.72-.15-5.5,0v3h13v-4ZM425,616h-8v3c3.19-.26,8.05,1.42,8-3ZM440,616c-3.83.72-11.82-2.21-12,3,3.83-.72,11.82,2.21,12-3ZM480.5,616c-8.11-1.43-24.81,0-34,0-.21,0-.98,1.55-2.5,1l1.5,2h34c.2,0,1.69-1.76,3.5-1v-1c-1.61.55-2.11-.93-2.5-1ZM499,616h-4v1h4v-1ZM546.5,616c-.65,0-.65,1,0,1s.65-1,0-1ZM318,621c2.01-.53,2.24-2.12,2-4-2.01.53-2.24,2.12-2,4ZM524,617c-2.15.07-4.34-.11-6.5,0-1.63.08-2.87.85-1.5,2,2.63-.37,6.82,1.34,8-2ZM143,621c.5,3.3,9.03,2.29,9,.5-2.4-2.97-6.17-1.12-9-.5ZM167,621l-10,.5c1.61,2.34,4.14,1.34,6.5,1.5l3.5-2ZM560,627h-3v2.5l1.5,1.5,1.5-1.5v-2.5ZM442,629c-1.82.06-3.67-.09-5.5,0-1.62.08-2.86.84-1.5,2l4.5-1,2.5-1ZM386,630h-11.5l-3.5,3h9.5l3-1,2.5-2Z"/>
  <path d="M395,79c.17.17-.22.96,0,1.5,2.51,6.02,3.87,5.31,8.5,8.5,1.69,1.17,2.83,3.13,5,4,3,1.19,6.35.41,9,1,.82.18,2.87,2.49,4.5,2l-.5,2-7.5-2c-.31.25,1.1,1.88,1.5,2,1.21.35,3.98.58,5,1,17.2,7.07,36.26,25.94,46.5,41.5.53.81,1.47,3.21,2,4,.92,1.37,2.5,3.04,3.5,4.5.87-.66.67-3.51.5-4.5-.06-.38-.92-.61-1-1-4.52-20.88-21-30.26-38.5-40.5-1.72-1.01-3.12-3.37-5.5-3v-3h2.5c2.17.91,4.23,2.96,6,4,13.08,7.66,30.64,18.73,36.5,33.5,1.18,2.97,2.4,7.29,3,10,.74,3.35.44,9.38,2,12,.81,1.36,5.01,5.15,6.5,6.5,2.02,1.82,5.91,4.22,8,6,2.41,2.06,4.51,5.79,7.5,6v4h-3c-.19-.19.26-1.03,0-1.5-1.3-2.33-11.92-10.73-14.5-12.5-1.16-.79-1.57-2.49-3.5-2l2,5.5,4.5,9.5c4.2.09,8.47-.94,11.5,2.5l-8.5.5-2.5-1c-.76,1.82.86,2.95,1,3.5.22.88-.23,2.16,0,3,.11.42,2.15,3.5,2.5,3.5,1.93-1.9,5.85-1.71,5.5-5,1.99.2,7.25-.86,8,1.5.96,3.02-4.37,2.25-5.5,2.5-.37.08-2.37,1.71-3,2-.5.23-1.34-.19-2,0-2.2.63-2.89,4.38-2.5,6.5.07.38.93.62,1,1,.36,1.96.61,3.32,1,5,.45,1.95.49,5.14,1,7,.14.5,1.62,1.31,2,2,.26.47-.19,1.31,0,1.5s1.03-.26,1.5,0c1.18.66,1.55,2.59,3.5,2,.23,1.84.04,2.91-1.5,4l-4.5-3c.15,1.44-.22,3.13,0,4.5,1.51,9.27,4.95,17.52,4,28-.15,1.62-1.68,6.21-2,8-.8,4.49-2.25,10.3,1,14l1,6.5c-1.3.28-3.65-.17-4-1.5-.27-1.01.65-3.1-.5-3.5l-1.5,4c-4.3.33-5.08,6.52-8,9.5l1,5-1.5,1.5-5-2c-.67.88-1.95,1.64-2.5,2.5-2.49,3.9-4.63,8.95-7,13-3.8,6.5-7.7,12.4-11,19-1.14,2.28-2.99,4.09-5,6l1,4.5c-1.11-.15-2.52.23-3.5,0-1.61-.38-2.67-.62-4-1-.36-.1-6.23.79-7,1-.25.07-2.93,2.46-4,3-9.99,5.01-20.13,11.22-30,17-5.15.43-9.14,4.36-14.5,4l3,4c-3.3-.18-6.5,1.03-8.5-2l-11.5,2c.43,1.72,1.81,2.3,3.5,2l3.5,3h-11c.07,2.07.43,3.72-1.5,5-1.88.56-5.61-5.62-7-6-1.06-.29-2.78.22-4,0-.38-.07-.63-.94-1-1-3.08-.46-5.77-.2-7.5,2.5-.68,1.05-1.33,3.99-2,5s-2.39,1.98-3,3,1.01,2.06-3,1.5l1-4.5c1.59-2.74,4.34-5.02,4-8.5-1.78-.15-3.78.23-5.5,0-3.61-.48-7.83-2.63-12-2-.3.04-1.68,1.76-3.5,1v-1.5l-2-.5c.54,1.64-.85,1.98-1,2.5-.62,2.11-.44,4.5-2,7-.5.8-2.02,2.19-3,2.5-.26-2.71,0-5.42,2-7.5l-1-3,1-2c-1.05-1.88-2.3-1.16-3.5-1.5-1.61-.46-5.01-5.56-8-2h-1c-2.75-3.59-7.06-4.69-11-6-10.9-3.63-23.01-6.01-34-10-4.8-1.74-11.56-5.08-14.5-9.5-.69-1.04-1.35-3.73-2-5-.35-.68-1.84-1.47-2-2-3.44-11.66-4.98-22.06-11-33-3.74-6.79-9.15-12.44-13-19s-7.24-14.41-9-21c-4.83-18.05-4.17-37.48,1-55,3.08-10.43,6.82-19.04,9-29,1.8-8.22,4.1-17.33,9-25,3.38-5.3,10.99-14.21,16.5-17.5,5.02-3,11.15-2.45,15-5,2.24-1.49,4.7-5.09,7-7,6.36-5.3,14.88-9.91,20-17,4.45.39,9.01-2.14,13-4,3.35-1.57,5.77-5.16,9-7,3.92-2.24,6.86-2.26,11-3,5.49-.98,9.24-.69,15-1,.35-.02.65-.98,1-1,6.8-.32,13.7.23,20.5,0-2.16-3.88-7.56-4.53-10.5-8l1-3c1.55-.42,3.91,2.31,5,3,1.45.92,9.62,5.7,11,6,1.95.42,4.86-.3,7,0,2.42-1.63,3.57-6.99,7-6,.47.13,1.32,1.54,2,2,.24.16.79-.15,1,0,1.37,1,2.7,3.23,4,4,.22.13.69-.14,1,0,.43.2.64.92,1,1,2.99.69,4.14-1.03,6-3l2.5,1ZM384,85l-1.5-3c-2.17-2.18-4.17-4.82-7.5-5,.29,2.54-2.75,2.88-2,5.5.58,2,3.24,1.21,4.5,1.5.4.09.63.94,1,1,1.68.26,3.74-.18,5.5,0ZM394,89c.27-2.62-1.16-4.91-3-6.5l-3,.5c-.56,4.01.5,2.4,1.5,3,.61.37,4.03,3.56,4.5,3ZM330,86c-2.7.27-5.9-.38-8.5,0-.37.05-.6.91-1,1-.89.21-2.16-.23-3,0-.67.18-3.28,3.21-2.5,4,1.6-1.44,3.11-.65,4.5-1,1.94-.49,4.68-2.07,7-2l3.5-2ZM361,109c1.54.38,1.63-.34,2.5-1s6.37-6.06,6.5-6.5c.73-2.4-2.62-2.22-3.5-2.5-.41-.13-.63-.93-1-1-1.84-.33-11.33-.37-13,0-.35.08-.57.8-1,1-.32.15-.8-.13-1,0-3,1.9-1.9,7.12-4.5,9.5,1.09,1.47,3.65-1.1,4.5-1.5.5-.23,1.34.19,2,0,1.38-.4,2.1-2.88,2.5-3.5.86-1.34,1.4-3.09,3-3.5l-2,9,5-4v4ZM378,103c-.22-1.33-3.17-3.83-4-3v3h4ZM346.5,102c-.65,0-.65,1,0,1s.65-1,0-1ZM404,106c1.69.01,3.32,1.47,5,2.5,1.51.92,1.02,2.48,3,0l-4.5-4.5c-1.91.01-6.04-4.44-5.5,0l2,.5v1.5ZM332,103l-5.5,1-1.5,1.5v5.5c.85-.85,2.89-.89,3-1,.19-.19-.26-1.03,0-1.5.96-1.72,4.38-2.9,4-5.5ZM302,128c3.09-.19,5.28-2.44,7.5-4,.23-.16.8.15,1,0,1.35-1.02,11.28-10.72,11.5-11.5s-.18-2.07,0-3c.16-.81,2.38-1.54-.5-3.5-6.04,3.37-10.52,8.1-14.5,13.5-.87,1.18-2.15,3.76-3,5-.79,1.16-2.49,1.57-2,3.5ZM338,113c1.1-.34,2.29-1.61,3-2.5.62-.78,2.03-2.46,1.5-3.5l-3.5,2-1,4ZM390,109c-2.98-.34-4.76-2.76-8-2,.79,2.29-3.61,4.16-4,5.5-.45,1.57.84,3.01,1.5,4.5l-1.5,3,2-2c2.78-1.1,5.87-3.34,8.5-5,1.57-.99,1.7-2.26,1.5-4ZM436,126c-.86-2.44-2.58-4.32-4.5-6-4.39-3.83-10.09-6.87-15-10-1.16-.74-1.55-2.52-3.5-2-.39,1.84,1.01,2.37,2,3.5,4.42,5.02,10.09,8.1,15.5,11.5,1.62,1.02,3.07,3.29,5.5,3ZM351,112c-4.14,2.06-7.92,3.87-11.5,6-.25.15-.77-.15-1,0-.81.51-2.8,2.47-2.5,3.5,1.05,1.7,3.83,1.96,5.5,1.5.51-.14,1.31-1.63,2-2,1.41-.76,4.98-1.69,5.5-3.5.18-.62-.17-1.38,0-2,.23-.83,2.69-1.57,2-3.5ZM398,119c.39-1.9-1.3-2.67-2.5-4l-10.5,13.5-1,4.5c2.3.45,2.57-.29,4-1.5,2.79-2.37,5.23-5.54,8-8l-1-3,3-1.5ZM306,116c-1.93-.49-2.34,1.2-3.5,2-4.23,2.9-8.86,7.36-12.5,11.5-.99,1.13-2.39,1.66-2,3.5,1.84.39,2.38-1.01,3.5-2,4.14-3.66,7.05-6.34,10.5-10.5,1.24-1.5,3.24-2.66,4-4.5ZM375,117c-1.71-.41-1.98.66-3,1.5-.9.75-5.89,5.59-6,6-.32,1.17.21,3.13,0,4.5,4.08.36,6.42-2.96,9-5.5v-6.5ZM388,121l-.5-3c-2.5,1.55-5.04,3.34-6.5,6,2.67-.07,4.31-3.3,7-3ZM422,127c-1.42-2.58-3.98-4.73-7-5-.38,2.48,1.49,2.61,3,3.5,1.27.75,1.56,2.18,4,1.5ZM271,134c2.63.56,4.52-1.68,6-3.5.16-.19-.17-.78,0-1,1.54-1.99,4.13-3.51,4-6.5-4.78,2.8-7.22,6.38-10,11ZM316,136c1.55.25,1.96-.76,3.5-1,1.25-.19,2.86.26,4,0,.36-.08.57-.8,1-1,.31-.14.78.13,1,0,2.08-1.24,2.55-4.08,4.5-5.5l1-4c-1.67-1.87-.98-1.4-2.5-.5-4.02,2.38-7.93,5.32-11,9-.85,1.02-1.91,1.29-1.5,3ZM405,130c.28-2.33-2.24-3.42-3.5-5-3.81,2.62-7.94,6.41-11,10-1.21,1.43-1.95,1.7-1.5,4l7.5-3c2.07-1.49,4.06-3.49,6-5,.87-.68.97-1.37,2.5-1ZM417,131c.86-2.4-5.14-5.73-6-5l2.5,3,3.5,2ZM451,130c.5-.4-1.75-2.65-3-2-.5.4,1.75,2.65,3,2ZM223,172c1.99-.79,3.09-2.87,4-4.5,1.81-3.26,3.24-7.7,5-11,4.09-7.67,10.49-15.54,16-23,1.07-1.45,3.35-2.25,3-4.5-.25-.26-2.8,1.61-3.5,2-12.8,7.11-18.98,20.23-23.5,33.5l-1,7.5ZM272,129c-.51-.45-3.31,1.02-4,1.5-5.11,3.59-9.84,10.39-13,15-.79,1.16-2.49,1.57-2,3.5,2.23.34,3.06-1.89,4.5-3,4.97-3.83,8.44-8.46,12.5-13.5.88-1.09,1.44-2.25,2-3.5ZM358.46,129.07l-4.28,7.13,1.91,1.15,4.28-7.13-1.91-1.15ZM397,143c4.77-.09,8.58-3.63,11.5-7,.61-.7,1.87-1.29,1.5-2.5l-2.5-2.5c-2.25,1.62-7.2,5.17-8.5,7.5-.26.47.18,1.28,0,1.5h-.5l-1.5,3ZM307,133c-4.08-.36-6.42,2.96-9,5.5,1.07,1.08,1.33,2.06,3,1,1.86-1.18,4.54-4.64,6-6.5ZM451,143c-.18-.18.23-.96,0-1.5-.83-1.97-3.16-4.4-5-6-.79-.69-2.02-2.63-3-1,1.51.83,1.72,2.52,2.5,3.5,2.67,3.34,5.02,5.96,7.5,9.5.16.22.11.59,0,1l6,5.5c.41-4.02-4.12-6.42-5-9.5-1.18-1.85-2.87-1.37-3-1.5ZM400,150c4.06.22,6.65-3.02,9.5-5,1.36-.95,3.58-2.1,5-3,3.06-1.94,1.02-6.1-1.5-4.5-2.94,1.86-5.64,4.41-8.5,6.5-.22.16-.79-.16-1,0-1.8,1.32-4.06,3.51-3.5,6ZM340,138h-2v3l2-1.5v-1.5ZM380,140c-2.65-1.28-7.53,4.44-6,6,3.65.61,5.64-2.99,6-6ZM387.25,141.25l-3.75,3.75,1.5,1.5,3.75-3.75-1.5-1.5ZM259,151c1.11,1.05,6.05-3.85,5-5l-3.5,2-1.5,3ZM427,150h-1.5l-1.5,1.5,1.5,1.5,1.5-1.5v-1.5ZM453,164c.24-4.41-3.72-7.59-7-10l1,4.5,6,5.5ZM255,155c-4.45.45-6.87,4.78-10,7.5l-1,4.5c1.84.39,2.37-1.01,3.5-2,2.1-1.85,3.97-4.31,5.5-6.5.43-.61,2.22-3.3,2-3.5ZM456,156c-.39,1.9,1.3,2.67,2.5,4l.5-.5c-1.27-1.01-.98-3.13-3-3.5ZM286,157c-2.55-.39-2.98,2.01-4,4h2.5l1.5-1.5v-2.5ZM420.26,157.98c0-.68-.55-1.24-1.24-1.24s-1.24.55-1.24,1.24.55,1.24,1.24,1.24,1.24-.55,1.24-1.24ZM449,171c.1-.09-.28-1.99,1-2.5-2.86-2.71-4.33-5.9-7.5-8.5-.19-.16-.78.17-1,0-1.16-.91-2.02-2.59-3.5-3l-.5,3c1.35,3.6,1,7.54,1.5,11.5.05.37.92.61,1,1,.21,1.03-.13,2.38,0,3.5,3.67.95,5.11-3.66,7.5-5,.47-.26,1.3.19,1.5,0ZM376.5,158c-.65,0-.65,1,0,1s.65-1,0-1ZM391,160l-6-1c-.24,2.78-2.77,4.73-2,8,1.8.29,2.2,0,3.5-1,.93-.72,5.52-5.04,4.5-6ZM322,165c3.1.21,3.27-2.25,3-5-2.18.97-3.47,2.63-3,5ZM431,160c-1.53-1.67-7.01,6.5-8,7.5l1.5,3.5c1.95-2.41,4.28-3.77,6.5-5.5v-5.5ZM466,163v-1.5l-2-1.5v3h2ZM306,163l-4,1-1,4,5-5ZM410.26,163.98c0-.68-.55-1.24-1.24-1.24s-1.24.55-1.24,1.24.55,1.24,1.24,1.24,1.24-.55,1.24-1.24ZM277.5,164c-.65,0-.65,1,0,1s.65-1,0-1ZM378,170c3.48.6,4.16-4.81,1.5-6-2.01-.9-1.24,1.94-2.5,2.5l1,3.5ZM289,166h-3l-1,4c.95.92,4.7-2.27,4-4ZM255,167c-2.3-.45-2.57.29-4,1.5-2.13,1.81-2.74,3.16-4,5-.79,1.16-2.49,1.57-2,3.5,1.6,1.51,6.14-3.35,7-4.5.16-.21-.16-.77,0-1,.99-1.37,2.55-2.56,3-4.5ZM319,167l-4,.5-2,4.5c2.25,1.32,7.11-4,6-5ZM336,167c-1.84-.39-2.37,1.01-3.5,2-2.31,2.04-5.41,4.37-2,7,.96-1.44,2.66-3.18,3.5-4.5.15-.24-.15-.76,0-1,.74-1.16,2.52-1.55,2-3.5ZM397,174c2.76.5,3.59-.68,4.5-3,.73-1.87.34-1.78-1-3-.89.56-2.35,2.81-3,3-.62.18-1.38-.18-2,0-1.11.32-4.93,5.52-6.5,6.5l1,4.5c1.32-.77,3.13-1.12,4-2.5,1.06-1.67,2.78-3.55,3-5.5ZM367,177c1.68.32,2.52-.89,3.5-2,1.44-1.62,2.11-1.22,0-3l-3.5,5ZM420,172c-3.01-.55-4.56,1.61-5.5,4-1.21,3.08,3.28,4.69,2.5,1,3.09.22,3.28-2.27,3-5ZM311.5,173c-.65,0-.65,1,0,1s.65-1,0-1ZM429,184c1.8.29,2.2,0,3.5-1,2.19-1.68,4.13-3.66,3.5-6.5l-2.5-3.5c-2.42,3.3-6.2,2.67-5.5,7.5.22,1.54,1.26,1.95,1,3.5ZM324,176c-2.56-.03-4.7,2.97-5.5,5-.55,1.4-.29,2.63,1,3,2.97.86,4.3-2.97,5.5-4.5l-1-3.5ZM403,186l5.5-3,.5-4c-1.32.77-3.13,1.12-4,2.5-.16.26.15.79,0,1-.82,1.16-2.48,1.58-2,3.5ZM468,179c-2.76-1-2.38,2.88-2,4.5.09.38,1.68,1.37,1,3l2.5,4.5,2.5-3.5-4-8.5ZM451,199l-3.5,1,1,2c1.08-1.44,1.93-1.42,3,0l12.5-9.5-2-8-3.5-4.5-9.5,8.5,2,10.5ZM335,182h-2v2l2-2ZM359,184h-2c.42,1.51-.69,1.82-1,3h3v-3ZM423,184c-2.83-.34-3.37,3.51-6,3,.08,2.26-.72,4.51,1.5,6l5.5-4.5-1-4.5ZM381,185c-2.58-.08-4.51,2.39-4,5,3.75.5,4.4-1.55,4-5ZM407,188l-5.5,3,1,3c.78-.98,5.68-4.83,4.5-6ZM312,189c-.82-.92-4.54,2.22-4,3.5-1.07,1.31-2.76,3.16-.5,4.5,3.41-.77,4.88-4.77,4.5-8ZM471,194c.4.5,2.65-1.75,2-3-.4-.5-2.65,1.75-2,3ZM412,194l-4,.5,2,1.5c-2.87-.5-1.99.99-2,3l4-5ZM219,265l-.5-5c-3.02-17.71-6.99-37.17-2.5-55.5l-.5-8.5c-.71.67-2.32,2.84-2.5,3.5-1.08,3.97-1.26,8.84-2,13-2.96,16.67-.66,34.18,5,49l3,3.5ZM473,209c4.81-.44,4.13-4.78,4-8.5-1.58-1.12-.47-3.56-2.5-4.5s-1.34,2.2-2.5,2.5l1,10.5ZM249,198c-2.17-.38-2.03.21-2.5,2-.37,1.39-.75,2.53-.5,4,1.8-.15,3.75-5.11,3-6ZM365,206c4.35-.29,5.48-5,1.5-7-1.96-.99-1.48,1.65-1.5,2.5-.03,1.5.02,3.01,0,4.5ZM393,199c-1.25-.65-3.5,1.6-3,2,1.25.65,3.5-1.6,3-2ZM465,199c-2.42-.2-3.87,1.85-5.5,3-.23.16-.8-.15-1,0-1.17.87-6.03,5.47-4.5,7,3.62-.39,6.67-3.85,9-6.5.99-1.13,2.39-1.66,2-3.5ZM284,200c-3.38.36-5.72,3.72-5,7l4-2.5,1-4.5ZM232,217c6.41,1.45,5.41-5.56,5-10.5-.16-1.94-.82-2.78-1-4.5-2.98,1.06-2.37,4.82-4,6.5l-1,6.5-2-4c.36,2.19-.51,5.59,0,7.5.07.26,1.5,1.99,2,1l1-2.5ZM407,206l3-2.5-1.5-1.5-1.5,1.5v2.5ZM293.21,203.27l-1.6,5.61,3.17.91,1.6-5.61-3.17-.91ZM433,207l-4,5,3-.5,1-4.5ZM467,207c-1.93-.49-2.34,1.2-3.5,2-.24.17-.8-.15-1,0-.89.68-1.62,1.76-2.5,2.5l1,4.5c1.11,1.19,5.04-3.72,6-4.5-2.23-1.55.2-2.4,0-4.5ZM401,213h2.5l1.5-3.5-1.5-1.5c-1.71,1.56-3.01,2.5-2.5,5ZM370,213c1.9.29,3.29-1.1,3-3l-3,1v2ZM303.5,211l-3.25,3.25,1.5,1.5,3.25-3.25-1.5-1.5ZM352,213v-2h-1v2h1ZM425,219l1-7-4,4.5,3,2.5ZM479,213l-4,2.5v11.5l4-2.5v-11.5ZM282,216v-2h-1v2h1ZM344,216c-1.9-.29-3.29,1.1-3,3h2l1-3ZM399,216h-3v2h1.5l1.5-2ZM468,220v-3c-1.18.31-1.49,1.42-3,1v2h3ZM293,220h-2v3l2-1.5v-1.5ZM412,222c-.06,2.04-.45,3.7,1.5,5,2.96-.2,6.61-5.95,3-7-1.62-.47-2.53,2.74-4.5,2ZM236,221l-5.5,1c-2.66,2.29-2.73,5.5-2.5,9l5.5-3c1.95-1.76,2.85-4.26,2.5-7ZM337,221l-4,1v3h2.5l1.5-1.5v-2.5ZM287,223h-3v6c1.81-.1,3.76-5.25,3-6ZM392,223c-2.65-.06-4.51,2.46-4,5l4-1v-4ZM469,225l-4,2.5-1,5,1,4.5,3-.5,1-1v-10.5ZM423.5,226c-1.26,2.11-3.07,3.71-4.5,5.5-1.02,1.28-.89,2.12.5,2.5,2.77-.72,7.38-5.64,4-8ZM274,239l7-6.5c-.02-2.16.59-4.11-1.5-5.5l-5.5,6.5v5.5ZM404,235l5.5-5-1-3c-3.79,1.16-5.15,4.26-4.5,8ZM328,233h2.5l1.5-3.5-1.5-1.5c-1.71,1.56-3.01,2.5-2.5,5ZM381.5,230c-.65,0-.65,1,0,1s.65-1,0-1ZM445,237l2-7c-2.18.89-3.7,3.52-4,5.5s.41,1.59,2,1.5ZM250,232c-1.16-1.36-1.92-.12-2,1.5-.1,2.1-.25,5.01,0,7,.05.37.93.62,1,1,.37,2-1.01,4.64,2,5.5l-1-15ZM495,232c-3.39-.73-1.59,2.47-2,4.5-.63,3.14-1.66,7.87-2,11-.29,2.7.89,6.19-1,8l2.5,4.5c2.38-1.5,1.15-3.53,1.5-5.5.07-.39,1-.67,1-1v-21.5ZM238,233l-9,3c.16,1.43-.25,3.16,0,4.5.81,4.37,6.3,12.42,9,16,.9,1.2,2.34,2.79,4,2.5.25-1.55-.76-1.96-1-3.5-1-6.53-1.75-12.76-3-19-.21-1.03.13-2.38,0-3.5ZM399,235h-2v3l2-1.5v-1.5ZM416,235c-.91-1-3.85,2.24-4.5,3-1.21,1.43-1.95,1.7-1.5,4,2.58.68,6.88-6.04,6-7ZM295,241c2.58.08,4.51-2.39,4-5-1.42.44-4.95,4.05-4,5ZM266,237c-4.53-.42-5.55,3.16-5,7,2.8.8,6.06-5.93,5-7ZM317.5,238c-.65,0-.65,1,0,1s.65-1,0-1ZM320,245c.19-.19-.26-1.03,0-1.5.47-.84,3-2.59,3-3l-2.5-2.5c-1.88,1.03-1.15,2.34-1.5,3.5-.28.92-3.04,1.93-2,4.5.85-.85,2.89-.89,3-1ZM480,238l-3,3.5c.03,2.67-2.69,5.13.5,7.5,2.2-1.3,1.13-2.92,1.5-4.5.09-.4.94-.63,1-1,.26-1.69-.18-3.74,0-5.5ZM379,239c-2.56,1.05-4.69,5-4,7.5.57,2.08,4.84,3.94,5,0-1.88-1.69-.7-4.96-1-7.5ZM432.5,242c-.65,0-.65,1,0,1s.65-1,0-1ZM285,245c-.93-.93-4.7,2.27-4,4h2.5l1.5-1.5v-2.5ZM401,250c1.32-.92,2.6-1.68,4-2.5,1.73-1.01.43-1.59-.5-2.5l-3.5,5ZM262,253c2.61.46,2.6-1.93,4-3.5l-2.5-1.5-1.5,1.5v3.5ZM229,251l3,11.5c3.27,5.66,4.46,12.19,7,18,.28.64,2.11,3.5,2.5,3.5l4.5-7.5-4-9c-4.52-4.11-7.05-9.29-10-14-.5-.8-2.02-2.19-3-2.5ZM278,259c1.04,1.1,6.3-3.76,5-6-2.63,1.15-5.62,2.47-5,6ZM469,260l1-6c-2.11.61-5.18,6.83-1,6ZM476,255c-3.12-.51-1.56.91-2,2.5-.17.61-1.75,1.66-1,3.5,2.17.38,2.03-.21,2.5-2,.37-1.39.75-2.53.5-4ZM287,258l-11,10.5-2,4.5,3-1.5c2.01-1.57,2.93-3.11,4-5,1.7-3,.93-1.63,2.5-2.5,1.67-.93,3.44-4,3.5-6ZM268,265c3.1.21,3.27-2.25,3-5-2.18.97-3.47,2.63-3,5ZM425,260h-3v3h2c-.42-1.51.69-1.82,1-3ZM390,261h-3v4c.62.76,2.83-3.14,3-4ZM262,263h-2v2l2-2ZM473,265v-2h-1v2h1ZM486,274c4.54.29,6.99-9.35,3.5-11-2.31-1.09-.95,3.01-2.5,3.5l-1,7.5ZM315,265c-1.93-.49-2.34,1.21-3.5,2-2.51,1.72-4.77,3.38-7,6-1.21,1.43-1.95,1.7-1.5,4,4.78.95,6.83-3.97,10-6.5l2-5.5ZM469,267l-3,1.5-1,7,2.5,4.5,3.5-6.5c.79-3.42-1.82-3.62-2-6.5ZM269,268c-4.29-.64-7.51,1.25-10,4.5-1.3,1.69-1.13,2.49-1,4.5,2.99.13,4.51-2.46,6.5-4,.22-.17.81.16,1,0,.77-.63,4.54-4.1,3.5-5ZM400,273l3-1.5v-2.5l-3,1v3ZM459,270c-3.19-.58-1.48,1.12-2,2.5-.16.42-.92.63-1,1-.28,1.25-.2,5.59,0,7,.05.37.91.6,1,1,.37,1.58-.7,3.2,1.5,4.5l1.5-3.5c-.17-2.28.24-4.77,0-7-.04-.36-.94-.62-1-1-.22-1.38.14-3.05,0-4.5ZM346,275c.11-.11-.28-1.99,1-2.5l-.5-.5c-1.57,1.4-3.96,1.39-3.5,4,.95-.9,2.88-.88,3-1ZM266.5,277l-6.5,4.5v2c1.49.95.63,3.92,2.5,4.5,2.11.65,6.17-6.43,7.5-7.5l-3.5-3.5ZM345,277c-3.4-.73-4.68,2.27-5,5,1.03,1.11,6.11-3.93,5-5ZM322,295c4.81-.07,8.13-3.64,11.5-6,.24-.17.8.15,1,0,.89-.68,1.62-1.76,2.5-2.5-.26-2.6,1-5.72-1.5-7.5-2.08,2.24-4.46,4.23-6.5,6.5-.16.18.17.81,0,1-2.42,2.76-5.79,4.84-7,8.5ZM406,279c-2.44-.32-2.94,1.86-4,3.5-.16.24.15.77,0,1-1.24,1.85-4.11,3.27-5,5.5,2.31.46,3.71-.79,5-2.5.17-.22-.16-.8,0-1,1.63-2.07,4.7-3.21,4-6.5ZM485,279l-3,2.5-1,5.5,3-3.5,1-4.5ZM314,283c-.96-.9-5.83,3.89-6,4.5-1.66,5.8-4.52,7.56-9,12l-2,5.5c.27.31,2.89-1.75,3.5-2,.75-.31,2.87-.33,4-1,.59-.35,5.4-5.13,5.5-5.5.39-1.41-.27-3.86,0-5.5h-2l6-8ZM394,283h-2v3h2v-3ZM248.5,285c-.24.07-3.43,3.26-3.5,3.5-.7,2.45,1.31,2.73,2,4,.29.54.72,2.58,1,3,.59.89,3.45,3.83,4.5,3.5l3.5-5.5-5-6c-.21-.25-.5-3.1-2.5-2.5ZM291,286l-5,5c1.4-.76,1.8-1.39,3.5-2,.7-.25.77-2.09,1.5-3ZM373,286c-1.6-.62-4.6,1.17-5,2.5-.78,2.61,2.41,3.12,2,5.5,2.52.52,3.48-.84,5-2.5l-2-5.5ZM413,287l-4,1.5.5,3.5,3.5-5ZM281,291c-2.3-.45-2.57.29-4,1.5-2.11,1.8-3.91,4.14-6,6,1.22,1.34,1.13,1.73,3,1,3.07-1.21,6.66-4.99,7-8.5ZM339,294c-3.78.26-5.95,3.04-8.5,5-2.33,1.79-4.79,3.4-7,6-1.21,1.43-1.95,1.7-1.5,4,3.92-.18,5.85-3.76,8.5-6,2-1.69,4.4-3.11,6.5-5.5.99-1.13,2.39-1.66,2-3.5ZM349,309c2.3.45,2.57-.29,4-1.5,2.79-2.37,5.23-5.54,8-8l-2.5-3.5c-4.39,3.84-7.38,7.58-9.5,13ZM458,296l-3,2.5-1,4.5,4-7ZM289,297l-5.5,1-8.5,6.5,5.5,5.5,5.5-5.5c.64-2.46,3.61-4.26,3-7.5ZM384.5,298c-.65,0-.65,1,0,1s.65-1,0-1ZM256.5,299c-6.86,5.6,4.04,6.86,2.5,1.5-.12-.41-1.16-.96-1.5-1.5h-1ZM377,299c-3.26-.12-4.2,3.03-1.5,5l2.5-1.5-1-3.5ZM439,310c1.2,1.16,5-3.71,6-4.5l2-5.5c-1.72,1.05-3.76,2.94-5,4.5-.16.2.17.79,0,1-1.11,1.44-3.34,2.27-3,4.5ZM249,304c.29-1.9-1.1-3.29-3-3l1,3h2ZM341,301c-2.23-.33-3.06,1.89-4.5,3-1.9,1.47-5.2,3.47-7,5-1.98,1.68-5.04,4.11-4.5,7,1.97,1.97,9.85-8.08,11.5-9,.47-.26,1.31.19,1.5,0s-.26-1.03,0-1.5c.78-1.41,3.49-2.19,3-4.5ZM438,302c-4-.8-3.62,2.69-6,4.5l.5,3.5c2.26-2.34,5.29-4.42,5.5-8ZM388,304h-3v3c1.9.29,3.29-1.1,3-3ZM265,313l-2-3.5c1.2-.73,1.63-3.44.5-4.5l-1.5,4c-5.66-.19,1.86,5.04,3,4ZM450,305l-6,5.5c-2.45,4.78-6.67,7.68-10,12-1.11,1.44-3.34,2.27-3,4.5.92.88,5.58-3.31,6.5-4,3.27-2.46,3.15-2.89,5.5-5.5,1.88-2.09,4.08-3.93,6-6l1-6.5ZM424,306c-1.9-.29-3.29,1.1-3,3l3-3ZM304,307c-1.3,1.13-2.43.7-3.5,1-2.47.69-4.28.53-6,1-.39.11-4.87,4.19-6,5-.39.28-3.1.52-2.5,2.5.19.63,5.51,5.8,6.5,5.5.73-.88,1.83-1.61,2.5-2.5.18-.24-.15-.83,0-1,2.36-2.74,5.87-5.24,8-8,1-1.3,1.29-1.7,1-3.5ZM274,315c.77-3.52-2.07-7.37-6-7l1,5.5c1.5,3.75,4.93,4.03,6,7,.39,1.08,2.08.32,3,.5l1-3.5c-1.56-1.71-2.5-3.01-5-2.5ZM366,308c-2.42-.61-3.85,1.23-5.5,2-.5.23-1.34-.19-2,0-.53.15-7.68,5.15-9,6-2.27,1.45-1.09,2.83-1.5,4.5-.13.55-1.76,1.68-1,3.5l3-1v-2c3.55-1.86,8.37-5.36,11.5-8,1.57-1.32,3.45-3.23,4.5-5ZM376.9,309.8l-1.1,3.3,3.3,1.1,1.1-3.3-3.3-1.1ZM392,312h-2v3l2-1.5v-1.5ZM315,313c-.77-.8-4.44,2.51-5.5,3-3.87,1.79-5.2,2.69-9,5-.47.29-2.56.72-3,1-1.06.68-1.77,1.67-1.5,3l5.5,3,5,1c1.33-.57,1.3-2.21,1.5-2.5,1.3-1.84,7.71-6.95,8-8,.6-2.17-.93-3.5-1-5.5ZM369,313c-1.17-.28-2.58.53-3,1.5-1.04,2.37,3.19.46,2,3.5l1-5ZM424,316c.4.5,2.65-1.75,2-3-.4-.5-2.65,1.75-2,3ZM275,343l-5.5-6c-9.23-4.81-15.17-14.12-23-21-1.13-.99-1.66-2.39-3.5-2l3,10.5c1.41,2.5,2.25,5.66,4,8,.75,1.01,3.53,3.86,4.5,4.5,3.01,2,8.24,3.17,11,5l9.5,1ZM291,339c-2.45.31-3.89-2.02-5.5-3-8.14-4.93-15.78-9.84-23-15l-7.5-7c-.48,1.92,1.18,2.34,2,3.5,2.56,3.62,7.72,7.54,11.5,10.5,6.05,4.74,10.68,7.63,18,11,1.62.74,4.99,4.21,4.5,0ZM337,318c.93.93,4.7-2.27,4-4l-4,2v2ZM346,317c-4.01-.56-2.4.51-3,1.5-1.65,2.75-6.29,3.92-5,8.5,6.03.3,5.5-6.4,8-10ZM416,317c-1.39-1.39-5.55,4.17-5,6,.3.36,6.15-4.85,5-6ZM459,318h-2l-1,4h2l1-4ZM319,321c-2.4-.37-4.24.48-4,3,.83.83,3.78-1.67,4-3ZM394.5,321l-2.5,2.5,2.5,3.5c3.21-1.12,2.97-6.99,0-6ZM314,333l5.5,1,9.5-8.5-3.5-3.5h-1l-10.5,11ZM384,322c-1.42-1.46-8.73,3.86-4.5,6l4-2,.5-4ZM420,322c-2.58-.08-4.51,2.39-4,5,1.42-.44,4.95-4.05,4-5ZM300,332c-2.86,1.05-6.1-3.61-7.5-4-.85-.23-2.15.23-3,0-1.89-.52-3.31-9.38-8.5-2.5,0,.45,2.83,2.14,3.5,2.5,3.1,1.67,6.86,3.73,10,5,.78.32,2.21-.53,3,1l2.5-2ZM349,331c1.94.69,8.34-4.62,7-6-2.9,1.13-5.4,3.31-7,6ZM454,325c-3.61-.54-5.24,2.19-7.5,4-1.13.9-1.92.77-2.5,1.5,1.68,2.42,4.52,1.3,7,1.5l3-7ZM314,326c-1.68-.32-2.52.89-3.5,2-1.44,1.62-2.11,1.22,0,3l3.5-5ZM421.26,326.98c0-.68-.55-1.24-1.24-1.24s-1.24.55-1.24,1.24.55,1.24,1.24,1.24,1.24-.55,1.24-1.24ZM369,333c1.25-.34,4.94-3.94,4-5-1.38.77-1.84,1.38-3.5,2-1.08.4-.32,2.07-.5,3ZM331,335c-.23,1.6.43,2.05,1.5,3l4-3v-2c-1.06,1.68-2.83.74-4.5,1,.94-1.49,2.04-6.21-.5-5-1.59.76-2.76,2.14-4,3-.24.17-.8-.15-1,0-.89.67-1.62,1.77-2.5,2.5l4.5,2.5c.53-.98,1.93-1.48,2.5-2ZM400,339c1.93.49,2.34-1.21,3.5-2,.24-.16.8.15,1,0,1-.74,4.41-4.06,5-5,1.06-1.67.08-1.93-1-3-2.64,1.57-5,3.65-7,6-1.21,1.43-1.95,1.7-1.5,4ZM358,330c-.9-.75-6.91,2.69-6,5,.5.54,6.74-4.38,6-5ZM427,330l-3.5,2-2.5,3c2.37.2,3.39-1.7,4-3.5.41-1.2,2.35.38,2-1.5ZM411,338c2.48-.11,4.46-1.73,6-3.5l-.5-3.5c-2.14,2.13-4.51,4.03-5.5,7ZM366,334c-2.76.62-6.3,2.21-8.5,0-1.14,1.54-8.27,3.08-7.5,5.5.44,1.4,2.21,1.5,3.5,1.5,3.43,0,5.65-3.07,9-3l3.5-4ZM305,338h1.5l1.5-1.5-1.5-1.5h-1.5v3ZM386,335c-1.25-.65-3.5,1.6-3,2,1.25.65,3.5-1.6,3-2ZM344,337c-.53-.53-5,1.75-5,2.5l1.5,1.5,3.5-2v-2ZM308,341l3.5,1c5.62-2.1.63-4.98-3.5-4v3ZM322,340c-1.97-.13-6.61-3.1-6,1,2.2-.64,6.54,3.35,6-1ZM371,340c-1.41.18-3.22-.28-4.5,0-.87.19-4.02,2.73-5,3-1.52.41-4.36.39-6,1-1.26.47-2.84,2.44-4.5,2l-2,5.5,1,2.5h7.5c1.74-1.52,3.24-3.55,5-5,1.39-1.14,4.52-2.88,6-4,1.71-1.29,2.97-2.7,2.5-5ZM376,340c-1.9-.29-3.29,1.1-3,3,1.9.29,3.29-1.1,3-3ZM365,354c5.91.72,10.44-2.13,15.5-5,2.01-1.14,5.27-2.69,7-4,.84-.64,2.8-2.38,2.5-3.5l-3.5-.5c-6.1,3.14-11.65,6.3-18,9l-3.5,4ZM346,352c-.08-2.3.7-4.54-1.5-6l-7.5,2v3l9,1Z"/>
  <path d="M331,335c.13-.91.11-.86,1-1-.64,1.01-.73.76-1,1Z"/>
</svg>